<svg width="73" height="102" viewBox="0 0 73 102" fill="none" xmlns="http://www.w3.org/2000/svg">
<path d="M22.6251 70.125L49.7501 70.375C52.9481 61.601 72.9781 49.297 72.8751 32.875C72.7491 12.744 54.4781 0 36.3751 0C17.9801 0 0.831084 13.233 0.875084 33C0.913084 49.893 25.0141 69.908 22.6251 70.125Z" fill="url(#paint0_linear_4476_3097)"/>
<path d="M36.0902 0.10056C36.0902 0.10056 30.3532 -0.379439 22.0892 2.75856C13.8832 5.87356 8.08222 20.1986 8.08222 20.1986C8.08222 20.1986 5.43123 37.3166 8.61323 38.0236C11.7952 38.7306 17.3092 34.6576 20.4912 25.4656C23.6732 16.2736 22.4012 11.8896 24.6992 9.06156C26.9972 6.23356 36.0902 0.10056 36.0902 0.10056Z" fill="#F6F8F5"/>
<path d="M35.983 0.158699C35.983 0.158699 35.716 2.5217 35.759 9.3457C35.809 17.1317 36.6021 21.3717 36.6021 21.3717C36.6021 21.3717 33.7741 34.6897 36.9561 35.3967C40.1381 36.1037 49.2901 25.1367 49.0101 15.4137C48.6551 3.0747 45.017 -0.348301 35.983 0.0476988V0.158699Z" fill="#D5E9E8"/>
<path d="M36.0751 0.0771484C22.9551 0.0771484 19.6411 19.4511 19.6411 28.2901C19.6411 37.1291 30.4131 68.7551 30.4131 68.7551L36.7661 68.6171L36.0751 0.0771484Z" fill="url(#linear_baloon)"/>
<path d="M20.574 3.45603C9.14801 6.48403 0 21.428 0 30.024C0 48.481 17.982 65.342 22.669 70.03C25.697 69.541 26.863 69.226 26.863 69.226C26.863 69.226 8.66803 50.527 8.00803 30.708C7.39303 12.234 20.574 3.45603 20.574 3.45603ZM41.283 0.332031C54.418 3.79903 62.069 18.875 62.484 29.542C63.2 47.986 49.467 59.341 47.151 69.289C43.364 68.663 42.997 68.865 42.997 68.865C45.823 59.731 53.092 48.024 53.15 29.357C53.216 8.35803 41.283 0.332031 41.283 0.332031Z" fill="url(#linear_baloon)"/>
<path d="M58.43 6.89941C67.951 12.0264 72.2 20.9994 72.711 33.4254C73.471 51.8664 53.079 62.3444 50.128 70.3644C49.083 69.7204 49.318 69.7194 49.318 69.7194C51.022 63.1254 68.844 52.2934 68.461 33.6294C68.085 15.2824 58.43 6.89941 58.43 6.89941Z" fill="url(#linear_baloon)"/>
<path d="M29.4924 90.5715L25.8794 76.3135M33.3994 90.9615L32.7154 76.6065M38.4774 90.6685L39.2584 76.8015M42.5784 90.2785L46.2894 76.8015" stroke="#5CA0A9"/>
<path d="M22.2651 70.0724C28.4561 68.9434 31.8441 68.3984 36.8161 68.3984C42.4721 68.3984 44.4431 68.7264 50.2131 70.0724C49.1681 73.9364 47.2371 77.5294 47.2371 77.5294C47.2371 77.5294 41.1201 78.0894 36.2861 78.0894C31.4531 78.0894 25.4991 77.5294 25.4991 77.5294L22.2651 70.0724Z" fill="url(#paint4_linear_4476_3097)" stroke="#4E929C" stroke-width="0.202"/>
<path d="M44.2633 100.824H26.9043V101.777H44.2633V100.824Z" fill="#4D675C"/>
<path d="M37.7842 91.4258H26.9772C26.959 91.426 26.9416 91.4334 26.9287 91.4463C26.9158 91.4592 26.9085 91.4766 26.9082 91.4948V100.777C26.9085 100.795 26.9158 100.812 26.9287 100.825C26.9416 100.838 26.959 100.846 26.9772 100.846H37.7842C37.8024 100.846 37.8198 100.838 37.8327 100.825C37.8456 100.812 37.8529 100.795 37.8532 100.777V91.4948C37.8529 91.4766 37.8456 91.4592 37.8327 91.4463C37.8198 91.4334 37.8024 91.426 37.7842 91.4258Z" fill="#948865"/>
<path d="M39.0803 89.7227H26.9962C26.9779 89.7227 26.9602 89.7299 26.9471 89.7428C26.934 89.7557 26.9265 89.7733 26.9263 89.7917V92.0296C26.9263 92.0686 26.9572 92.0986 26.9962 92.0986H39.0803C39.1183 92.0986 39.1493 92.0686 39.1493 92.0296V89.7917C39.149 89.7734 39.1416 89.756 39.1288 89.7431C39.1159 89.7303 39.0985 89.7229 39.0803 89.7227Z" fill="#7F7A5E"/>
<path d="M37.9103 89.2432H25.8243C25.8063 89.2437 25.7892 89.2511 25.7765 89.264C25.7638 89.2768 25.7566 89.2941 25.7563 89.3122V91.5512C25.7563 91.5892 25.7863 91.6202 25.8243 91.6202H37.9103C37.9284 91.6196 37.9456 91.6122 37.9582 91.5993C37.9709 91.5865 37.9781 91.5692 37.9783 91.5512V89.3122C37.9781 89.2941 37.9709 89.2768 37.9582 89.264C37.9456 89.2511 37.9284 89.2437 37.9103 89.2432Z" fill="#948865"/>
<path d="M44.2599 91.5898H37.856V100.837H44.2599V91.5898Z" fill="#4D675C"/>
<path d="M44.257 89.749H37.875V92.126H44.257V89.749Z" fill="#3E4E48"/>
<path d="M45.5682 89.2412H37.8862V91.6182H45.5682V89.2412Z" fill="#4D675C"/>
<path d="M33.9244 94.2842H31.0934C31.0752 94.2844 31.0578 94.2918 31.0449 94.3047C31.032 94.3176 31.0247 94.335 31.0244 94.3532V97.1502C31.0247 97.1684 31.032 97.1858 31.0449 97.1987C31.0578 97.2116 31.0752 97.2189 31.0934 97.2192H33.9244C33.9426 97.2189 33.96 97.2116 33.9729 97.1987C33.9858 97.1858 33.9931 97.1684 33.9934 97.1502V94.3532C33.9931 94.335 33.9858 94.3176 33.9729 94.3047C33.96 94.2918 33.9426 94.2844 33.9244 94.2842Z" fill="#7F7A5E"/>
<path d="M33.6344 94.0352H30.8034C30.7852 94.0354 30.7678 94.0428 30.7549 94.0557C30.742 94.0685 30.7346 94.0859 30.7344 94.1042V96.9012C30.7346 96.9194 30.742 96.9368 30.7549 96.9497C30.7678 96.9625 30.7852 96.9699 30.8034 96.9702H33.6344C33.6526 96.9699 33.67 96.9625 33.6829 96.9497C33.6958 96.9368 33.7031 96.9194 33.7034 96.9012V94.1042C33.7031 94.0859 33.6958 94.0685 33.6829 94.0557C33.67 94.0428 33.6526 94.0354 33.6344 94.0352Z" fill="#AC9D76"/>
<defs>
<linearGradient id="paint0_linear_4476_3097" x1="65.6251" y1="35.688" x2="10.8761" y2="36.688" gradientUnits="userSpaceOnUse">
<stop stop-color="#85BCC3"/>
<stop offset="1" stop-color="#DAEAE9"/>
</linearGradient>
<linearGradient id="linear_baloon" x1="-1.17752" y1="35.2208" x2="102.346" y2="34.8538" gradientUnits="userSpaceOnUse">
<stop offset="0.248209" stop-color="#D5863D"/>
<stop offset="1" stop-color="#947333"/>
</linearGradient>
<linearGradient id="paint4_linear_4476_3097" x1="40.6831" y1="73.5154" x2="25.3911" y2="73.6764" gradientUnits="userSpaceOnUse">
<stop stop-color="#406A70"/>
<stop offset="1" stop-color="#5CA0A9"/>
</linearGradient>
</defs>
</svg>
