<svg width="50" height="61" viewBox="0 0 50 61" fill="none" xmlns="http://www.w3.org/2000/svg">
<path d="M47.9121 55.7652C48.0499 55.6461 48.1837 55.522 48.3106 55.3921C48.4452 55.2544 48.5733 55.111 48.6964 54.9645C48.8172 54.8185 48.929 54.6669 49.0322 54.5108C49.1354 54.3547 49.23 54.1941 49.3158 54.0295C49.4015 53.8649 49.4787 53.6967 49.5471 53.5251C49.6155 53.3535 49.675 53.179 49.7262 53.002C49.7774 52.825 49.8204 52.6456 49.8545 52.4647C49.8887 52.2838 49.9143 52.101 49.9314 51.9177C49.9485 51.7344 49.9573 51.5504 49.9575 51.3663C49.9578 51.1821 49.9494 50.9983 49.9329 50.8148C49.9164 50.6314 49.8914 50.4484 49.8583 50.2671C49.8252 50.0859 49.784 49.9058 49.7344 49.7284C49.6848 49.5509 49.6273 49.376 49.5613 49.2038C49.4953 49.0316 49.4212 48.8625 49.3389 48.6971C49.2566 48.5317 49.1657 48.3698 49.0673 48.2128C48.9688 48.0558 48.8624 47.9033 48.7479 47.7561C48.6334 47.6089 48.5112 47.4673 48.3808 47.3315C48.2503 47.1958 48.1114 47.0663 47.9651 46.9435C47.7933 46.7907 47.6037 46.6519 47.401 46.5263C47.1983 46.4008 46.9826 46.2883 46.7585 46.1891C46.5344 46.0899 46.3023 46.004 46.066 45.9301C45.8298 45.8562 45.5893 45.7946 45.3504 45.7451C45.1114 45.6955 44.8738 45.6578 44.6415 45.6316C44.4092 45.6055 44.1824 45.5906 43.9662 45.5869C43.7499 45.5831 43.5443 45.5908 43.3535 45.6085C43.1627 45.6262 42.9872 45.654 42.8312 45.6921C42.5192 45.7683 42.2385 45.852 41.9827 45.9398C41.7269 46.0276 41.4954 46.1194 41.2828 46.2137C41.0702 46.308 40.8764 46.4046 40.694 46.5002C40.6515 46.5225 40.6144 46.5437 40.5731 46.5659C37.8055 48.1207 34.6151 49.0105 31.2179 49.0105C29.174 49.0105 27.1303 48.6824 25.1959 48.0255L24.7579 47.8792L24.3199 47.7695C22.8235 47.5141 21.2179 47.8794 20.0135 48.7919C19.758 48.9743 19.5027 49.1565 19.2837 49.412C18.1523 50.5069 17.495 52.04 17.495 53.6094C17.495 54.1569 17.5677 54.7044 17.7502 55.2518C18.1517 56.5657 19.0276 57.7336 20.1955 58.4635C20.2685 58.5 20.342 58.5733 20.4515 58.6098C23.9187 59.9237 27.5682 60.6172 31.2544 60.6537C37.3957 60.6537 43.1128 58.8584 47.9121 55.7652Z" fill="#429388"/>
<path d="M31.3078 0.121125C30.4689 0.119864 29.6277 0.156855 28.7859 0.234298C32.3057 2.78434 33.0958 8.13562 30.438 11.5836C33.8104 11.4614 37.1319 12.3392 40.0425 13.986C40.0779 14.0061 40.1141 14.0246 40.1494 14.0448C40.1922 14.0684 40.4533 14.2124 40.4533 14.2124C40.6158 14.3018 40.7781 14.3931 40.939 14.4868C41.0999 14.5806 41.2599 14.6764 41.4184 14.7765C41.5797 14.8727 41.7459 14.9584 41.9165 15.034C42.0871 15.1096 42.2613 15.1755 42.4387 15.2327C42.6161 15.2899 42.797 15.3387 42.9787 15.3797C43.1604 15.4208 43.3433 15.4541 43.5268 15.4813C43.7087 15.5069 43.8912 15.5224 44.073 15.5286C44.2549 15.5347 44.4361 15.5312 44.6166 15.5188C44.7971 15.5063 44.977 15.4848 45.1548 15.4546C45.3327 15.4244 45.5083 15.3858 45.6824 15.3387C45.8564 15.2917 46.0285 15.2369 46.1974 15.1739C46.3664 15.1109 46.5329 15.0399 46.6956 14.9618C46.8583 14.8837 47.0172 14.7976 47.1723 14.7052C47.3275 14.6128 47.4786 14.5142 47.625 14.4084C47.7714 14.3026 47.9128 14.1899 48.0492 14.0716C48.1856 13.9533 48.317 13.829 48.4422 13.6991C48.5673 13.5691 48.6868 13.4335 48.7995 13.2927C48.9122 13.152 49.0177 13.0059 49.1168 12.8552C49.2158 12.7045 49.308 12.5498 49.3921 12.39C49.4762 12.2303 49.5523 12.0661 49.6202 11.8981C49.6882 11.7302 49.7479 11.5583 49.7985 11.3831C49.849 11.2078 49.8904 11.0292 49.9223 10.8475C49.9447 10.7386 49.9624 10.6282 49.9749 10.516C49.9874 10.4038 49.9948 10.2894 49.9981 10.1747C50.0011 10.0601 50.0008 9.94517 49.9954 9.82896C49.9902 9.71276 49.9808 9.5956 49.9678 9.47875C49.9548 9.36191 49.938 9.24514 49.9178 9.12855C49.8977 9.01195 49.8741 8.89555 49.8475 8.78012C49.8208 8.66468 49.7908 8.55042 49.7583 8.43704C49.7259 8.32366 49.6907 8.21151 49.6532 8.10109C49.5781 7.88024 49.4934 7.66578 49.4019 7.46215C49.3104 7.25853 49.2121 7.06569 49.1096 6.88649C49.0071 6.70729 48.9005 6.54217 48.7924 6.3946C48.7383 6.32081 48.6837 6.2515 48.6293 6.18697C48.5748 6.12243 48.5204 6.06223 48.4662 6.00785C48.3579 5.8991 48.2519 5.79803 48.1481 5.70309C48.0443 5.60814 47.9428 5.51943 47.8433 5.43664C47.6602 5.28422 47.4856 5.15485 47.3158 5.03564C47.2318 4.98045 47.149 4.92336 47.0645 4.869C46.9167 4.77396 46.7665 4.68255 46.6171 4.59008C46.493 4.51763 46.3687 4.44551 46.2509 4.37889L46.2562 4.36909C41.7532 1.6663 36.5823 0.12921 31.3078 0.121125Z" fill="#C44D63"/>
<path d="M23.5058 1.02693C10.0372 4.36712 0.555326 16.4709 0.519409 30.3345C0.555316 41.0375 6.19417 50.9145 15.4246 56.3378C14.4908 53.6441 15.1014 50.4835 17.0049 48.3644C17.1486 48.1848 17.2923 48.0412 17.4719 47.8975C18.3338 47.0715 19.3754 46.425 20.5247 46.0299C15.2091 42.5819 12.0126 36.6557 11.9767 30.3345C12.0126 21.8942 17.6514 14.4237 25.8044 12.1969C26.5227 11.9814 27.1692 11.5863 27.7439 11.1194C30.0066 9.25173 30.4376 5.62419 28.6418 3.28965C27.6002 1.853 25.8403 0.991014 24.0804 1.02693C23.9009 0.991023 23.7213 0.991023 23.5058 1.02693Z" fill="#FAC969"/>
</svg>
