<?xml version="1.0" encoding="UTF-8" standalone="no"?>
<svg
   width="480"
   height="63"
   viewBox="0 0 480 63"
   fill="none"
   version="1.1"
   id="svg6"
   sodipodi:docname="dummy-tabs-interesants.svg"
   xml:space="preserve"
   inkscape:version="1.4 (e7c3feb1, 2024-10-09)"
   xmlns:inkscape="http://www.inkscape.org/namespaces/inkscape"
   xmlns:sodipodi="http://sodipodi.sourceforge.net/DTD/sodipodi-0.dtd"
   xmlns="http://www.w3.org/2000/svg"
   xmlns:svg="http://www.w3.org/2000/svg"><sodipodi:namedview
     id="namedview6"
     pagecolor="#ffffff"
     bordercolor="#666666"
     borderopacity="1.0"
     inkscape:showpageshadow="2"
     inkscape:pageopacity="0.0"
     inkscape:pagecheckerboard="0"
     inkscape:deskcolor="#d1d1d1"
     inkscape:zoom="2.56"
     inkscape:cx="200.78125"
     inkscape:cy="99.804688"
     inkscape:window-width="2560"
     inkscape:window-height="1412"
     inkscape:window-x="1440"
     inkscape:window-y="0"
     inkscape:window-maximized="0"
     inkscape:current-layer="svg6" /><g
     id="g1"
     transform="matrix(1.2772363,0,0,1.2772363,-85.811078,-8.1086993)"
     style="stroke-width:0.782941"><path
       d="m 181.407,44.7473 c 9.727,0 17.612,-7.8853 17.612,-17.6123 0,-9.727 -7.885,-17.61229 -17.612,-17.61229 -9.727,0 -17.613,7.88529 -17.613,17.61229 0,9.727 7.886,17.6123 17.613,17.6123 z"
       fill="#fac969"
       id="path3"
       style="display:inline;stroke-width:0.782941"
       transform="translate(92.1875)" /><path
       fill-rule="evenodd"
       clip-rule="evenodd"
       d="m 187.024,25.1736 v -2.9421 c 0,-2.746 -2.809,-4.9036 -5.617,-4.9036 -2.809,0 -5.617,2.1576 -5.617,4.9036 v 2.9421 c -1.204,0 -2.407,1.1769 -2.407,2.3537 v 6.865 c 0,1.3731 1.203,2.5499 2.407,2.5499 h 11.033 c 1.404,0 2.608,-1.1768 2.608,-2.3538 v -6.8649 c 0,-1.373 -1.204,-2.5499 -2.407,-2.5499 z m -8.626,0 h 6.018 v -2.9421 c 0,-1.5692 -1.404,-2.5499 -3.009,-2.5499 -1.605,0 -3.009,0.9807 -3.009,2.5499 z"
       fill="#282727"
       id="path4"
       style="display:inline;stroke-width:0.782941"
       transform="translate(92.1875)" /></g><rect
     y="58"
     width="202.44531"
     height="5.3382401"
     fill="#439388"
     id="rect4"
     x="0"
     style="stroke-width:1" /><path
     style="font-weight:600;font-size:32.848px;line-height:1.25;font-family:Golos;-inkscape-font-specification:'Golos Semi-Bold';fill:#4b4a4a;fill-opacity:0.933333"
     d="M 6.6863144,17.026823 H 10.885112 V 28.559916 L 18.392053,17.026823 H 22.27276 V 35.004879 H 18.073962 V 23.471786 L 10.567021,35.004879 H 6.6863144 Z M 32.769772,35.41193 q -3.658043,0 -5.566587,-1.594281 -1.908544,-1.59428 -2.06759,-4.579316 h 4.262416 q 0.06362,0.576655 0.254472,1.017626 0.190855,0.440971 0.572564,0.746259 0.381709,0.305287 0.986081,0.474892 0.636181,0.135683 1.558644,0.135683 1.844927,0 2.608344,-0.576654 0.763418,-0.610576 0.763418,-1.458597 0,-1.017626 -0.636181,-1.526439 -0.636182,-0.508813 -2.258444,-0.508813 h -2.544726 v -3.324245 h 2.322062 q 1.208745,0 1.844926,-0.542733 0.636182,-0.542734 0.636182,-1.424677 0,-0.780179 -0.636182,-1.288992 -0.604372,-0.542734 -2.099399,-0.542734 -1.558644,0 -2.258444,0.576655 -0.66799,0.542733 -0.795226,1.628201 h -4.262416 q 0.159045,-2.917194 2.003972,-4.443633 1.844926,-1.56036 5.312114,-1.56036 1.844927,0 3.149099,0.37313 1.335981,0.373129 2.194825,1.085467 0.858845,0.678418 1.240554,1.662123 0.413518,0.949784 0.413518,2.137014 0,1.288993 -0.636181,2.306619 -0.604373,1.017625 -1.940354,1.492517 1.813117,0.474892 2.512917,1.56036 0.6998,1.051547 0.6998,2.510144 0,1.221151 -0.477136,2.272698 -0.445327,1.017625 -1.3996,1.797805 -0.922463,0.746259 -2.353871,1.18723 -1.431408,0.407051 -3.403571,0.407051 z M 51.378081,17.026823 h 3.912516 v 2.645827 q 0.636181,-1.221151 2.003971,-2.137014 1.36779,-0.915864 3.467189,-0.915864 3.371762,0 5.248497,2.238777 1.908544,2.204856 1.908544,6.648489 v 0.678417 q 0,4.647158 -1.940353,6.953777 -1.908544,2.272698 -5.216688,2.272698 -1.71769,0 -3.053671,-0.78018 -1.304172,-0.814101 -2.131207,-2.103094 v 9.260396 h -4.198798 z m 8.397595,14.58597 q 1.654072,0 2.767389,-1.322913 1.113318,-1.356835 1.113318,-4.104425 v -0.678417 q 0,-2.544065 -1.081509,-3.799136 -1.081508,-1.288993 -2.799198,-1.288993 -1.813117,0 -3.021862,1.119388 -1.176935,1.085468 -1.176935,3.290324 v 2.035252 q 0,2.408381 1.145126,3.595611 1.176936,1.153309 3.053671,1.153309 z m 18.799153,3.799137 q -1.71769,0 -3.276334,-0.542734 -1.526835,-0.576655 -2.671962,-1.696043 -1.145127,-1.153309 -1.813117,-2.883273 -0.667991,-1.763885 -0.667991,-4.104425 v -0.678417 q 0,-2.238777 0.636182,-3.900899 0.636181,-1.662122 1.749499,-2.74759 1.113317,-1.119388 2.576535,-1.662122 1.463217,-0.576655 3.149098,-0.576655 3.976134,0 6.043723,2.238777 2.06759,2.238777 2.06759,6.478885 v 1.899568 H 74.43965 q 0.03181,1.18723 0.381709,2.069173 0.3499,0.848021 0.922463,1.390755 0.572563,0.542734 1.304172,0.814101 0.763418,0.237446 1.526835,0.237446 1.622263,0 2.449299,-0.508813 0.827036,-0.508813 1.176935,-1.492518 h 3.848898 q -0.508945,2.815431 -2.512917,4.240108 -2.003971,1.424676 -4.962215,1.424676 z M 78.415784,20.283225 q -0.731609,0 -1.463217,0.203526 -0.6998,0.203525 -1.240554,0.644496 -0.540754,0.440971 -0.890654,1.18723 -0.3499,0.746259 -0.381709,1.797806 h 7.856841 q -0.03181,-1.119389 -0.3499,-1.865648 -0.286282,-0.746259 -0.827036,-1.18723 Q 80.61061,20.622434 79.91081,20.45283 79.211011,20.283225 78.415784,20.283225 Z m 11.292221,-3.256402 h 12.087445 v 3.731294 h -7.888647 v 14.246762 h -4.198798 z m 14.632145,0 h 4.19881 v 11.533093 l 7.50694,-11.533093 h 3.8807 v 17.978056 h -4.19879 V 23.471786 l -7.50694,11.533093 h -3.88072 z m 27.03773,18.385107 q -1.71769,0 -3.27634,-0.542734 -1.52683,-0.576655 -2.67196,-1.729964 -1.14512,-1.153309 -1.81312,-2.883273 -0.66799,-1.729964 -0.66799,-4.070504 v -0.678417 q 0,-2.204856 0.66799,-3.866978 0.668,-1.662122 1.81312,-2.781511 1.14513,-1.119388 2.67196,-1.662122 1.55865,-0.576655 3.27634,-0.576655 1.71769,0 3.24452,0.576655 1.52684,0.542734 2.67196,1.662122 1.17694,1.119389 1.84494,2.781511 0.66798,1.662122 0.66798,3.866978 v 0.678417 q 0,2.306619 -0.66798,4.036583 -0.668,1.729964 -1.84494,2.883273 -1.14512,1.153309 -2.67196,1.729964 -1.52683,0.576655 -3.24452,0.576655 z m 0,-3.799137 q 1.78131,0 2.95824,-1.356834 1.20875,-1.356835 1.20875,-4.070504 v -0.678417 q 0,-2.476223 -1.20875,-3.765216 -1.17693,-1.322913 -2.95824,-1.322913 -1.81312,0 -2.99006,1.322913 -1.17693,1.288993 -1.17693,3.765216 v 0.678417 q 0,2.74759 1.17693,4.104425 1.17694,1.322913 2.99006,1.322913 z m 11.45128,-14.58597 h 4.1988 v 6.953776 h 7.18884 v -6.953776 h 4.19881 v 17.978056 h -4.19881 v -7.292985 h -7.18884 v 7.292985 h -4.1988 z M 169.8669,35.41193 q -1.71769,0 -3.27634,-0.542734 -1.52683,-0.576655 -2.67196,-1.729964 -1.14513,-1.153309 -1.81311,-2.883273 -0.66799,-1.729964 -0.66799,-4.070504 v -0.678417 q 0,-2.204856 0.66799,-3.866978 0.66798,-1.662122 1.81311,-2.781511 1.14513,-1.119388 2.67196,-1.662122 1.55865,-0.576655 3.27634,-0.576655 1.71769,0 3.24452,0.576655 1.52684,0.542734 2.67197,1.662122 1.17693,1.119389 1.84492,2.781511 0.66799,1.662122 0.66799,3.866978 v 0.678417 q 0,2.306619 -0.66799,4.036583 -0.66799,1.729964 -1.84492,2.883273 -1.14513,1.153309 -2.67197,1.729964 -1.52683,0.576655 -3.24452,0.576655 z m 0,-3.799137 q 1.78131,0 2.95824,-1.356834 1.20875,-1.356835 1.20875,-4.070504 v -0.678417 q 0,-2.476223 -1.20875,-3.765216 -1.17693,-1.322913 -2.95824,-1.322913 -1.81312,0 -2.99005,1.322913 -1.17694,1.288993 -1.17694,3.765216 v 0.678417 q 0,2.74759 1.17694,4.104425 1.17693,1.322913 2.99005,1.322913 z m 11.45127,-14.58597 h 8.46121 q 1.62226,0 2.76738,0.373129 1.17694,0.339209 1.94036,0.983705 0.76341,0.644497 1.11332,1.526439 0.3499,0.881942 0.3499,1.933489 0,1.255072 -0.73161,2.37446 -0.6998,1.085468 -1.94035,1.458597 1.55864,0.407051 2.41749,1.56036 0.89065,1.119388 0.89065,2.645827 0,2.34054 -1.52683,3.731295 -1.52684,1.390755 -4.64413,1.390755 h -9.09739 z m 8.27035,14.382445 q 1.43141,0 2.0994,-0.440971 0.6998,-0.474892 0.6998,-1.492518 0,-1.017626 -0.66798,-1.458597 -0.63619,-0.474892 -2.13122,-0.474892 h -4.07155 v 3.866978 z m -0.41351,-7.191223 q 1.46321,0 2.00397,-0.440971 0.57256,-0.440971 0.57256,-1.356834 0,-0.881943 -0.57256,-1.322914 -0.57256,-0.474892 -2.00397,-0.474892 h -3.65804 v 3.595611 z"
     id="text6"
     aria-label="из регионов" /><path
     style="font-weight:600;font-size:32.848px;line-height:1.25;font-family:Golos;-inkscape-font-specification:'Golos Semi-Bold';fill:#959090"
     d="m 305.21756,18.198698 h 4.1988 v 11.533093 l 7.50694,-11.533093 h 3.88071 v 17.978057 h -4.1988 V 24.643662 l -7.50694,11.533093 h -3.88071 z m 26.08346,18.385107 q -3.65804,0 -5.56659,-1.59428 -1.90854,-1.594281 -2.06759,-4.579317 h 4.26242 q 0.0636,0.576655 0.25448,1.017626 0.19084,0.440971 0.57256,0.746259 0.38171,0.305288 0.98608,0.474892 0.63618,0.135684 1.55864,0.135684 1.84492,0 2.60835,-0.576655 0.76341,-0.610575 0.76341,-1.458597 0,-1.017626 -0.63618,-1.526439 -0.63618,-0.508813 -2.25844,-0.508813 h -2.54473 v -3.324244 h 2.32206 q 1.20875,0 1.84493,-0.542734 0.63618,-0.542734 0.63618,-1.424676 0,-0.78018 -0.63618,-1.288993 -0.60437,-0.542734 -2.0994,-0.542734 -1.55864,0 -2.25844,0.576655 -0.668,0.542734 -0.79523,1.628201 h -4.26241 q 0.15904,-2.917194 2.00396,-4.443632 1.84493,-1.56036 5.31212,-1.56036 1.84492,0 3.1491,0.373129 1.33598,0.37313 2.19482,1.085468 0.85885,0.678417 1.24056,1.662122 0.41352,0.949784 0.41352,2.137014 0,1.288993 -0.63618,2.306619 -0.60437,1.017626 -1.94036,1.492518 1.81312,0.474892 2.51292,1.56036 0.6998,1.051546 0.6998,2.510143 0,1.221151 -0.47714,2.272698 -0.44532,1.017626 -1.39959,1.797806 -0.92247,0.746259 -2.35387,1.18723 -1.43141,0.40705 -3.40358,0.40705 z m 18.9264,-18.385107 h 12.08745 v 3.731295 h -7.88865 v 14.246762 h -4.1988 z m 21.94823,18.385107 q -1.71769,0 -3.27633,-0.542734 -1.52684,-0.576654 -2.67196,-1.729963 -1.14513,-1.15331 -1.81312,-2.883274 -0.66799,-1.729964 -0.66799,-4.070503 v -0.678417 q 0,-2.204856 0.66799,-3.866979 0.66799,-1.662122 1.81312,-2.78151 1.14512,-1.119389 2.67196,-1.662122 1.55864,-0.576655 3.27633,-0.576655 1.71769,0 3.24453,0.576655 1.52683,0.542733 2.67196,1.662122 1.17694,1.119388 1.84492,2.78151 0.66799,1.662123 0.66799,3.866979 v 0.678417 q 0,2.306618 -0.66799,4.036582 -0.66798,1.729964 -1.84492,2.883274 -1.14513,1.153309 -2.67196,1.729964 -1.52684,0.576654 -3.24453,0.576654 z m 0,-3.799136 q 1.78131,0 2.95825,-1.356835 1.20874,-1.356834 1.20874,-4.070503 v -0.678417 q 0,-2.476223 -1.20874,-3.765216 -1.17694,-1.322914 -2.95825,-1.322914 -1.81311,0 -2.99005,1.322914 -1.17694,1.288993 -1.17694,3.765216 v 0.678417 q 0,2.74759 1.17694,4.104424 1.17694,1.322914 2.99005,1.322914 z m 11.45127,-14.585971 h 3.91252 v 2.645827 q 0.63618,-1.221151 2.00397,-2.137014 1.36779,-0.915863 3.46719,-0.915863 3.37176,0 5.2485,2.238777 1.90854,2.204856 1.90854,6.648489 v 0.678417 q 0,4.647158 -1.94035,6.953777 -1.90855,2.272697 -5.21669,2.272697 -1.71769,0 -3.05367,-0.78018 -1.30418,-0.8141 -2.1312,-2.103093 v 9.260395 h -4.19881 z m 8.3976,14.585971 q 1.65407,0 2.76739,-1.322914 1.11332,-1.356834 1.11332,-4.104424 v -0.678417 q 0,-2.544065 -1.08151,-3.799137 -1.08151,-1.288993 -2.7992,-1.288993 -1.81311,0 -3.02186,1.119389 -1.17693,1.085467 -1.17693,3.290323 v 2.035252 q 0,2.408381 1.14511,3.595611 1.17694,1.15331 3.05368,1.15331 z m 18.79916,3.799136 q -1.7177,0 -3.27634,-0.542734 -1.52683,-0.576654 -2.67196,-1.729963 -1.14513,-1.15331 -1.81312,-2.883274 -0.66798,-1.729964 -0.66798,-4.070503 v -0.678417 q 0,-2.204856 0.66798,-3.866979 0.66799,-1.662122 1.81312,-2.78151 1.14513,-1.119389 2.67196,-1.662122 1.55864,-0.576655 3.27634,-0.576655 1.71769,0 3.24452,0.576655 1.52684,0.542733 2.67196,1.662122 1.17694,1.119388 1.84493,2.78151 0.66799,1.662123 0.66799,3.866979 v 0.678417 q 0,2.306618 -0.66799,4.036582 -0.66799,1.729964 -1.84493,2.883274 -1.14512,1.153309 -2.67196,1.729964 -1.52683,0.576654 -3.24452,0.576654 z m 0,-3.799136 q 1.7813,0 2.95824,-1.356835 1.20874,-1.356834 1.20874,-4.070503 v -0.678417 q 0,-2.476223 -1.20874,-3.765216 -1.17694,-1.322914 -2.95824,-1.322914 -1.81312,0 -2.99006,1.322914 -1.17693,1.288993 -1.17693,3.765216 v 0.678417 q 0,2.74759 1.17693,4.104424 1.17694,1.322914 2.99006,1.322914 z m 9.86081,-0.339209 h 1.90855 q 0.31809,-0.508813 0.57257,-1.458597 0.25446,-0.983705 0.3817,-2.170935 0.15904,-1.221151 0.22267,-2.544065 0.0954,-1.356834 0.0954,-2.645827 v -5.427338 h 13.20077 V 32.44546 h 2.06759 v 7.971403 h -3.68986 v -4.240108 h -11.06955 v 4.240108 h -3.68986 z m 12.18288,0 V 21.929993 h -5.15307 v 2.37446 q 0,1.18723 -0.0636,2.34054 -0.0636,1.153309 -0.19085,2.238777 -0.0954,1.051546 -0.28629,1.96741 -0.19085,0.915863 -0.47713,1.59428 z m 16.60432,4.138345 q -1.71769,0 -3.27633,-0.542734 -1.52684,-0.576654 -2.67196,-1.729963 -1.14513,-1.15331 -1.81312,-2.883274 -0.66799,-1.729964 -0.66799,-4.070503 v -0.678417 q 0,-2.204856 0.66799,-3.866979 0.66799,-1.662122 1.81312,-2.78151 1.14512,-1.119389 2.67196,-1.662122 1.55864,-0.576655 3.27633,-0.576655 1.71769,0 3.24453,0.576655 1.52683,0.542733 2.67196,1.662122 1.17694,1.119388 1.84492,2.78151 0.668,1.662123 0.668,3.866979 v 0.678417 q 0,2.306618 -0.668,4.036582 -0.66798,1.729964 -1.84492,2.883274 -1.14513,1.153309 -2.67196,1.729964 -1.52684,0.576654 -3.24453,0.576654 z m 0,-3.799136 q 1.78131,0 2.95825,-1.356835 1.20874,-1.356834 1.20874,-4.070503 v -0.678417 q 0,-2.476223 -1.20874,-3.765216 -1.17694,-1.322914 -2.95825,-1.322914 -1.81311,0 -2.99005,1.322914 -1.17694,1.288993 -1.17694,3.765216 v 0.678417 q 0,2.74759 1.17694,4.104424 1.17694,1.322914 2.99005,1.322914 z m 11.45129,-14.585971 h 8.46121 q 1.62227,0 2.76739,0.37313 1.17694,0.339208 1.94035,0.983705 0.76342,0.644496 1.11332,1.526438 0.3499,0.881943 0.3499,1.93349 0,1.255071 -0.7316,2.37446 -0.69981,1.085467 -1.94036,1.458597 1.55864,0.40705 2.41749,1.56036 0.89065,1.119388 0.89065,2.645827 0,2.340539 -1.52683,3.731295 -1.52684,1.390755 -4.64413,1.390755 h -9.09739 z m 8.27036,14.382446 q 1.4314,0 2.0994,-0.440972 0.69979,-0.474892 0.69979,-1.492518 0,-1.017625 -0.66798,-1.458597 -0.63618,-0.474892 -2.13121,-0.474892 h -4.07156 v 3.866979 z m -0.41352,-7.191223 q 1.46321,0 2.00397,-0.440971 0.57256,-0.440972 0.57256,-1.356835 0,-0.881942 -0.57256,-1.322913 -0.57256,-0.474892 -2.00397,-0.474892 h -3.65804 v 3.595611 z"
     id="text7"
     aria-label="из городов" /><defs
     id="defs6"><clipPath
       id="clip1_2658_37209"><rect
         width="35.224602"
         height="35.224602"
         fill="#ffffff"
         transform="translate(163.794,9.52271)"
         id="rect6"
         x="0"
         y="0" /></clipPath></defs></svg>
