<svg width="667" height="57" viewBox="0 0 667 57" fill="none" xmlns="http://www.w3.org/2000/svg">
<path d="M53.3953 37.5972C58.3102 37.5972 62.2945 33.6129 62.2945 28.698C62.2945 23.7831 58.3102 19.7988 53.3953 19.7988C48.4804 19.7988 44.4961 23.7831 44.4961 28.698C44.4961 33.6129 48.4804 37.5972 53.3953 37.5972Z" stroke="#439388" stroke-width="7.11935"/>
<path d="M83.1189 39.4996C82.7744 39.4996 82.5038 39.4011 82.3069 39.2043C82.1101 39.0075 82.0117 38.7286 82.0117 38.3678V23.8762C82.0117 23.499 82.1101 23.2201 82.3069 23.0397C82.5038 22.8429 82.7744 22.7445 83.1189 22.7445C83.4797 22.7445 83.7504 22.8429 83.9308 23.0397C84.1276 23.2201 84.226 23.499 84.226 23.8762V26.1152L83.9554 25.6723C84.2178 24.7702 84.7345 24.0485 85.5054 23.5072C86.2763 22.9659 87.2031 22.6953 88.2856 22.6953C89.3518 22.6953 90.2785 22.9495 91.0658 23.458C91.8532 23.9501 92.4682 24.6636 92.9111 25.5985C93.354 26.517 93.5754 27.616 93.5754 28.8954C93.5754 30.1584 93.354 31.2655 92.9111 32.2169C92.4847 33.1518 91.8696 33.8735 91.0658 34.382C90.2785 34.8741 89.3518 35.1201 88.2856 35.1201C87.2195 35.1201 86.3009 34.8495 85.53 34.3082C84.7591 33.7669 84.2424 33.0534 83.98 32.1677H84.2506V38.3678C84.2506 38.7286 84.1522 39.0075 83.9554 39.2043C83.7586 39.4011 83.4797 39.4996 83.1189 39.4996ZM87.769 33.3486C88.4743 33.3486 89.0893 33.1764 89.6142 32.832C90.1555 32.4875 90.5738 31.9872 90.869 31.3311C91.1643 30.675 91.3119 29.8631 91.3119 28.8954C91.3119 27.452 90.992 26.353 90.3523 25.5985C89.7126 24.844 88.8515 24.4667 87.769 24.4667C87.0472 24.4667 86.4158 24.639 85.8745 24.9834C85.3496 25.3115 84.9395 25.8035 84.6443 26.4596C84.3654 27.1157 84.226 27.9276 84.226 28.8954C84.226 30.3388 84.5459 31.446 85.1856 32.2169C85.8253 32.9714 86.6864 33.3486 87.769 33.3486ZM102.252 35.1201C100.957 35.1201 99.8409 34.8741 98.9059 34.382C97.9874 33.8735 97.2739 33.16 96.7654 32.2415C96.257 31.3065 96.0027 30.2076 96.0027 28.9446C96.0027 27.698 96.2487 26.6072 96.7408 25.6723C97.2493 24.7374 97.9382 24.0075 98.8075 23.4826C99.6933 22.9577 100.702 22.6953 101.834 22.6953C102.638 22.6953 103.36 22.8347 103.999 23.1135C104.655 23.376 105.213 23.7614 105.672 24.2699C106.132 24.7784 106.476 25.4017 106.706 26.1398C106.952 26.8615 107.075 27.6816 107.075 28.6001C107.075 28.8626 106.993 29.0676 106.829 29.2152C106.681 29.3464 106.46 29.4121 106.164 29.4121H97.7496V27.985H105.599L105.18 28.3295C105.18 27.4766 105.049 26.7549 104.787 26.1644C104.541 25.5575 104.172 25.0982 103.679 24.7866C103.204 24.4749 102.605 24.3191 101.883 24.3191C101.096 24.3191 100.424 24.5077 99.8655 24.885C99.3078 25.2458 98.8813 25.7625 98.5861 26.435C98.2909 27.0911 98.1432 27.8538 98.1432 28.7232V28.8708C98.1432 30.347 98.4959 31.4624 99.2012 32.2169C99.9065 32.9714 100.924 33.3486 102.252 33.3486C102.777 33.3486 103.31 33.283 103.852 33.1518C104.409 33.0206 104.942 32.7828 105.451 32.4383C105.697 32.2907 105.918 32.2251 106.115 32.2415C106.328 32.2415 106.501 32.3071 106.632 32.4383C106.763 32.5531 106.845 32.7007 106.878 32.8812C106.911 33.0452 106.886 33.2256 106.804 33.4225C106.722 33.6193 106.566 33.7915 106.337 33.9391C105.795 34.3164 105.147 34.6116 104.393 34.8249C103.655 35.0217 102.941 35.1201 102.252 35.1201ZM111.255 35.0709C110.895 35.0709 110.616 34.9725 110.419 34.7757C110.222 34.5624 110.124 34.2672 110.124 33.8899V24.1961C110.124 23.786 110.23 23.4744 110.444 23.2611C110.673 23.0315 110.993 22.9167 111.403 22.9167H117.849C118.194 22.9167 118.448 22.9905 118.612 23.1381C118.776 23.2858 118.858 23.5072 118.858 23.8024C118.858 24.0977 118.776 24.3273 118.612 24.4913C118.448 24.639 118.194 24.7128 117.849 24.7128H112.363V33.8899C112.363 34.6772 111.994 35.0709 111.255 35.0709ZM121.993 35.0709C121.78 35.0709 121.591 35.0299 121.427 34.9479C121.28 34.8659 121.165 34.7346 121.083 34.5542C121.001 34.3738 120.96 34.1442 120.96 33.8653V23.827C120.96 23.4826 121.05 23.2201 121.23 23.0397C121.411 22.8429 121.665 22.7445 121.993 22.7445C122.305 22.7445 122.551 22.8429 122.731 23.0397C122.912 23.2201 123.002 23.4826 123.002 23.827V32.7089H122.362L129.3 23.458C129.432 23.2776 129.596 23.1135 129.793 22.9659C129.989 22.8183 130.252 22.7445 130.58 22.7445C130.81 22.7445 130.998 22.7855 131.146 22.8675C131.293 22.9495 131.4 23.0807 131.466 23.2611C131.548 23.4252 131.589 23.6466 131.589 23.9254V33.9883C131.589 34.3164 131.498 34.5788 131.318 34.7757C131.154 34.9725 130.916 35.0709 130.604 35.0709C130.26 35.0709 129.998 34.9725 129.817 34.7757C129.653 34.5788 129.571 34.3164 129.571 33.9883V25.0818H130.211L123.273 34.3574C123.141 34.5378 122.977 34.7018 122.781 34.8495C122.584 34.9971 122.321 35.0709 121.993 35.0709ZM140.517 35.1201C139.336 35.1201 138.311 34.8659 137.442 34.3574C136.572 33.8489 135.9 33.1272 135.424 32.1923C134.948 31.2573 134.711 30.1584 134.711 28.8954C134.711 27.944 134.842 27.0911 135.104 26.3366C135.383 25.5657 135.777 24.9096 136.285 24.3683C136.794 23.827 137.401 23.417 138.106 23.1381C138.828 22.8429 139.631 22.6953 140.517 22.6953C141.698 22.6953 142.723 22.9495 143.593 23.458C144.462 23.9665 145.134 24.6882 145.61 25.6231C146.086 26.5416 146.324 27.6324 146.324 28.8954C146.324 29.8467 146.184 30.7079 145.905 31.4788C145.643 32.2497 145.257 32.9058 144.749 33.4471C144.24 33.9883 143.625 34.4066 142.904 34.7018C142.198 34.9807 141.403 35.1201 140.517 35.1201ZM140.517 33.3486C141.239 33.3486 141.862 33.1764 142.387 32.832C142.928 32.4875 143.338 31.9872 143.617 31.3311C143.912 30.675 144.06 29.8631 144.06 28.8954C144.06 27.452 143.74 26.353 143.1 25.5985C142.461 24.844 141.6 24.4667 140.517 24.4667C139.812 24.4667 139.188 24.639 138.647 24.9834C138.122 25.3115 137.712 25.8035 137.417 26.4596C137.122 27.1157 136.974 27.9276 136.974 28.8954C136.974 30.3388 137.294 31.446 137.934 32.2169C138.59 32.9714 139.451 33.3486 140.517 33.3486ZM150.612 35.0709C150.251 35.0709 149.972 34.9725 149.775 34.7757C149.578 34.5788 149.48 34.2918 149.48 33.9145V23.8762C149.48 23.499 149.578 23.2201 149.775 23.0397C149.972 22.8429 150.251 22.7445 150.612 22.7445C150.973 22.7445 151.243 22.8429 151.424 23.0397C151.62 23.2201 151.719 23.499 151.719 23.8762V27.8374H157.968V23.8762C157.968 23.499 158.058 23.2201 158.239 23.0397C158.436 22.8429 158.714 22.7445 159.075 22.7445C159.436 22.7445 159.715 22.8429 159.912 23.0397C160.109 23.2201 160.207 23.499 160.207 23.8762V33.9145C160.207 34.2918 160.109 34.5788 159.912 34.7757C159.715 34.9725 159.436 35.0709 159.075 35.0709C158.714 35.0709 158.436 34.9725 158.239 34.7757C158.058 34.5788 157.968 34.2918 157.968 33.9145V29.6335H151.719V33.9145C151.719 34.2918 151.629 34.5788 151.448 34.7757C151.268 34.9725 150.989 35.0709 150.612 35.0709Z" fill="#2A434F"/>
<path d="M252.228 35.0709C251.867 35.0709 251.589 34.9725 251.392 34.7757C251.195 34.5624 251.097 34.2672 251.097 33.8899V24.1961C251.097 23.786 251.203 23.4744 251.416 23.2611C251.646 23.0315 251.966 22.9167 252.376 22.9167H258.822C259.167 22.9167 259.421 22.9905 259.585 23.1381C259.749 23.2858 259.831 23.5072 259.831 23.8024C259.831 24.0977 259.749 24.3273 259.585 24.4913C259.421 24.639 259.167 24.7128 258.822 24.7128H253.336V33.8899C253.336 34.6772 252.966 35.0709 252.228 35.0709ZM267.026 35.1201C265.845 35.1201 264.82 34.8659 263.95 34.3574C263.081 33.8489 262.408 33.1272 261.933 32.1923C261.457 31.2573 261.219 30.1584 261.219 28.8954C261.219 27.944 261.35 27.0911 261.613 26.3366C261.892 25.5657 262.285 24.9096 262.794 24.3683C263.302 23.827 263.909 23.417 264.615 23.1381C265.336 22.8429 266.14 22.6953 267.026 22.6953C268.207 22.6953 269.232 22.9495 270.101 23.458C270.97 23.9665 271.643 24.6882 272.119 25.6231C272.594 26.5416 272.832 27.6324 272.832 28.8954C272.832 29.8467 272.693 30.7079 272.414 31.4788C272.151 32.2497 271.766 32.9058 271.258 33.4471C270.749 33.9883 270.134 34.4066 269.412 34.7018C268.707 34.9807 267.911 35.1201 267.026 35.1201ZM267.026 33.3486C267.747 33.3486 268.371 33.1764 268.896 32.832C269.437 32.4875 269.847 31.9872 270.126 31.3311C270.421 30.675 270.569 29.8631 270.569 28.8954C270.569 27.452 270.249 26.353 269.609 25.5985C268.969 24.844 268.108 24.4667 267.026 24.4667C266.32 24.4667 265.697 24.639 265.156 24.9834C264.631 25.3115 264.221 25.8035 263.926 26.4596C263.63 27.1157 263.483 27.9276 263.483 28.8954C263.483 30.3388 263.803 31.446 264.442 32.2169C265.098 32.9714 265.96 33.3486 267.026 33.3486ZM277.096 39.4996C276.751 39.4996 276.481 39.4011 276.284 39.2043C276.087 39.0075 275.989 38.7286 275.989 38.3678V23.8762C275.989 23.499 276.087 23.2201 276.284 23.0397C276.481 22.8429 276.751 22.7445 277.096 22.7445C277.457 22.7445 277.727 22.8429 277.908 23.0397C278.104 23.2201 278.203 23.499 278.203 23.8762V26.1152L277.932 25.6723C278.195 24.7702 278.711 24.0485 279.482 23.5072C280.253 22.9659 281.18 22.6953 282.262 22.6953C283.329 22.6953 284.255 22.9495 285.043 23.458C285.83 23.9501 286.445 24.6636 286.888 25.5985C287.331 26.517 287.552 27.616 287.552 28.8954C287.552 30.1584 287.331 31.2655 286.888 32.2169C286.461 33.1518 285.846 33.8735 285.043 34.382C284.255 34.8741 283.329 35.1201 282.262 35.1201C281.196 35.1201 280.278 34.8495 279.507 34.3082C278.736 33.7669 278.219 33.0534 277.957 32.1677H278.227V38.3678C278.227 38.7286 278.129 39.0075 277.932 39.2043C277.735 39.4011 277.457 39.4996 277.096 39.4996ZM281.746 33.3486C282.451 33.3486 283.066 33.1764 283.591 32.832C284.132 32.4875 284.551 31.9872 284.846 31.3311C285.141 30.675 285.289 29.8631 285.289 28.8954C285.289 27.452 284.969 26.353 284.329 25.5985C283.689 24.844 282.828 24.4667 281.746 24.4667C281.024 24.4667 280.393 24.639 279.851 24.9834C279.326 25.3115 278.916 25.8035 278.621 26.4596C278.342 27.1157 278.203 27.9276 278.203 28.8954C278.203 30.3388 278.523 31.446 279.162 32.2169C279.802 32.9714 280.663 33.3486 281.746 33.3486ZM295.786 35.1201C294.605 35.1201 293.58 34.8659 292.711 34.3574C291.841 33.8489 291.169 33.1272 290.693 32.1923C290.217 31.2573 289.98 30.1584 289.98 28.8954C289.98 27.944 290.111 27.0911 290.373 26.3366C290.652 25.5657 291.046 24.9096 291.554 24.3683C292.063 23.827 292.67 23.417 293.375 23.1381C294.097 22.8429 294.9 22.6953 295.786 22.6953C296.967 22.6953 297.992 22.9495 298.861 23.458C299.731 23.9665 300.403 24.6882 300.879 25.6231C301.355 26.5416 301.592 27.6324 301.592 28.8954C301.592 29.8467 301.453 30.7079 301.174 31.4788C300.912 32.2497 300.526 32.9058 300.018 33.4471C299.509 33.9883 298.894 34.4066 298.173 34.7018C297.467 34.9807 296.672 35.1201 295.786 35.1201ZM295.786 33.3486C296.508 33.3486 297.131 33.1764 297.656 32.832C298.197 32.4875 298.607 31.9872 298.886 31.3311C299.181 30.675 299.329 29.8631 299.329 28.8954C299.329 27.452 299.009 26.353 298.369 25.5985C297.73 24.844 296.869 24.4667 295.786 24.4667C295.081 24.4667 294.457 24.639 293.916 24.9834C293.391 25.3115 292.981 25.8035 292.686 26.4596C292.391 27.1157 292.243 27.9276 292.243 28.8954C292.243 30.3388 292.563 31.446 293.203 32.2169C293.859 32.9714 294.72 33.3486 295.786 33.3486ZM304.454 38.2694C304.158 38.2694 303.921 38.1792 303.74 37.9987C303.56 37.8183 303.469 37.5641 303.469 37.236V34.2098C303.469 33.4717 303.839 33.1026 304.577 33.1026H305.807L304.454 33.5701C304.913 32.996 305.274 32.3727 305.536 31.7002C305.799 31.0113 305.987 30.2404 306.102 29.3875C306.233 28.5181 306.299 27.534 306.299 26.435V24.1961C306.299 23.786 306.405 23.4744 306.619 23.2611C306.848 23.0315 307.168 22.9167 307.578 22.9167H313.705C314.115 22.9167 314.426 23.0315 314.64 23.2611C314.869 23.4744 314.984 23.786 314.984 24.1961V34.136L313.951 33.1026H315.796C316.157 33.1026 316.427 33.201 316.608 33.3978C316.805 33.5783 316.903 33.8489 316.903 34.2098V37.236C316.903 37.9249 316.583 38.2694 315.943 38.2694C315.615 38.2694 315.369 38.1792 315.205 37.9987C315.041 37.8183 314.959 37.5641 314.959 37.236V34.8987H305.413V37.236C305.413 37.9249 305.093 38.2694 304.454 38.2694ZM306.889 33.1026H312.868V24.6636H308.267V26.8533C308.267 28.0343 308.144 29.1824 307.898 30.2978C307.668 31.3968 307.332 32.3317 306.889 33.1026ZM323.267 35.1201C322.447 35.1201 321.7 34.9561 321.028 34.628C320.372 34.3 319.855 33.8571 319.478 33.2994C319.117 32.7418 318.937 32.1185 318.937 31.4296C318.937 30.5438 319.158 29.8467 319.601 29.3382C320.044 28.8298 320.79 28.4689 321.84 28.2557C322.89 28.0261 324.3 27.9112 326.072 27.9112H327.228V29.3382H326.121C324.858 29.3382 323.857 29.3957 323.119 29.5105C322.398 29.6253 321.889 29.8303 321.594 30.1256C321.299 30.4044 321.151 30.7981 321.151 31.3065C321.151 31.9462 321.372 32.4711 321.815 32.8812C322.275 33.2912 322.898 33.4963 323.685 33.4963C324.308 33.4963 324.858 33.3486 325.334 33.0534C325.809 32.7418 326.187 32.3317 326.465 31.8232C326.744 31.2983 326.884 30.6996 326.884 30.0271V27.1977C326.884 26.23 326.687 25.5329 326.293 25.1064C325.9 24.6636 325.235 24.4421 324.3 24.4421C323.759 24.4421 323.201 24.5159 322.627 24.6636C322.053 24.8112 321.454 25.0408 320.831 25.3525C320.585 25.4673 320.372 25.5083 320.191 25.4755C320.011 25.4263 319.863 25.3279 319.749 25.1802C319.65 25.0162 319.593 24.844 319.576 24.6636C319.576 24.4667 319.617 24.2781 319.699 24.0977C319.798 23.9172 319.962 23.786 320.191 23.704C320.913 23.3432 321.627 23.0889 322.332 22.9413C323.054 22.7773 323.726 22.6953 324.349 22.6953C325.416 22.6953 326.293 22.8675 326.982 23.2119C327.671 23.54 328.188 24.0567 328.532 24.762C328.877 25.4509 329.049 26.3366 329.049 27.4192V33.9145C329.049 34.2918 328.959 34.5788 328.778 34.7757C328.598 34.9725 328.335 35.0709 327.991 35.0709C327.663 35.0709 327.4 34.9725 327.204 34.7757C327.023 34.5788 326.933 34.2918 326.933 33.9145V32.1677H327.154C327.023 32.7746 326.777 33.2994 326.416 33.7423C326.055 34.1852 325.604 34.5296 325.063 34.7757C324.538 35.0053 323.939 35.1201 323.267 35.1201Z" fill="#8F95A1"/>
<path d="M422.043 35.0709C421.682 35.0709 421.403 34.9725 421.206 34.7757C421.009 34.5788 420.911 34.2918 420.911 33.9145V24.7128H417.417C416.761 24.7128 416.433 24.4093 416.433 23.8024C416.433 23.5236 416.523 23.3104 416.704 23.1627C416.884 22.9987 417.122 22.9167 417.417 22.9167H426.619C427.291 22.9167 427.628 23.2119 427.628 23.8024C427.628 24.0977 427.537 24.3273 427.357 24.4913C427.193 24.639 426.947 24.7128 426.619 24.7128H423.15V33.9145C423.15 34.2918 423.051 34.5788 422.855 34.7757C422.674 34.9725 422.403 35.0709 422.043 35.0709ZM434.499 35.1201C433.318 35.1201 432.292 34.8659 431.423 34.3574C430.554 33.8489 429.881 33.1272 429.406 32.1923C428.93 31.2573 428.692 30.1584 428.692 28.8954C428.692 27.944 428.823 27.0911 429.086 26.3366C429.365 25.5657 429.758 24.9096 430.267 24.3683C430.775 23.827 431.382 23.417 432.087 23.1381C432.809 22.8429 433.613 22.6953 434.499 22.6953C435.68 22.6953 436.705 22.9495 437.574 23.458C438.443 23.9665 439.116 24.6882 439.592 25.6231C440.067 26.5416 440.305 27.6324 440.305 28.8954C440.305 29.8467 440.166 30.7079 439.887 31.4788C439.624 32.2497 439.239 32.9058 438.73 33.4471C438.222 33.9883 437.607 34.4066 436.885 34.7018C436.18 34.9807 435.384 35.1201 434.499 35.1201ZM434.499 33.3486C435.22 33.3486 435.844 33.1764 436.368 32.832C436.91 32.4875 437.32 31.9872 437.599 31.3311C437.894 30.675 438.041 29.8631 438.041 28.8954C438.041 27.452 437.722 26.353 437.082 25.5985C436.442 24.844 435.581 24.4667 434.499 24.4667C433.793 24.4667 433.17 24.639 432.629 24.9834C432.104 25.3115 431.694 25.8035 431.399 26.4596C431.103 27.1157 430.956 27.9276 430.956 28.8954C430.956 30.3388 431.275 31.446 431.915 32.2169C432.571 32.9714 433.432 33.3486 434.499 33.3486ZM452.22 35.0709C451.859 35.0709 451.581 34.9725 451.384 34.7757C451.203 34.5624 451.113 34.2672 451.113 33.8899V30.1748C450.654 30.4372 450.162 30.634 449.637 30.7653C449.128 30.8965 448.595 30.9621 448.038 30.9621C446.299 30.9621 445.02 30.552 444.2 29.7319C443.379 28.8954 442.969 27.6406 442.969 25.9675V23.8762C442.969 23.499 443.06 23.2201 443.24 23.0397C443.437 22.8429 443.716 22.7445 444.077 22.7445C444.437 22.7445 444.716 22.8429 444.913 23.0397C445.11 23.2201 445.208 23.499 445.208 23.8762V25.7953C445.208 26.9435 445.454 27.78 445.946 28.3049C446.438 28.8298 447.234 29.0922 448.333 29.0922C448.891 29.0922 449.391 29.0348 449.834 28.92C450.277 28.7888 450.695 28.5837 451.089 28.3049V23.9254C451.089 23.1381 451.466 22.7445 452.22 22.7445C452.581 22.7445 452.852 22.8429 453.032 23.0397C453.229 23.2365 453.327 23.5318 453.327 23.9254V33.8899C453.327 34.2672 453.237 34.5624 453.057 34.7757C452.876 34.9725 452.598 35.0709 452.22 35.0709ZM458.289 35.0709C457.928 35.0709 457.649 34.9725 457.452 34.7757C457.255 34.5788 457.157 34.2918 457.157 33.9145V23.9254C457.157 23.5646 457.255 23.2858 457.452 23.0889C457.649 22.8921 457.928 22.7937 458.289 22.7937C458.649 22.7937 458.92 22.8921 459.1 23.0889C459.297 23.2858 459.396 23.5646 459.396 23.9254V27.8374H461.512L465.055 23.2858C465.219 23.0561 465.407 22.9167 465.62 22.8675C465.834 22.8019 466.039 22.8019 466.236 22.8675C466.432 22.9167 466.596 23.0233 466.728 23.1873C466.859 23.3514 466.924 23.54 466.924 23.7532C466.924 23.9665 466.834 24.1879 466.654 24.4175L463.308 28.7724L462.742 28.0835C463.185 28.1327 463.578 28.2475 463.923 28.4279C464.267 28.6083 464.595 28.879 464.907 29.2398C465.219 29.6007 465.555 30.0846 465.916 30.6914L467.589 33.5455C467.736 33.7915 467.786 34.0211 467.736 34.2344C467.704 34.4476 467.605 34.628 467.441 34.7757C467.293 34.9069 467.113 34.9889 466.9 35.0217C466.687 35.0709 466.473 35.0463 466.26 34.9479C466.047 34.8659 465.866 34.7018 465.719 34.4558L463.849 31.3065C463.587 30.8637 463.332 30.5192 463.086 30.2732C462.84 30.0271 462.57 29.8549 462.274 29.7565C461.979 29.6581 461.618 29.6089 461.192 29.6089H459.396V33.9145C459.396 34.2918 459.297 34.5788 459.1 34.7757C458.92 34.9725 458.649 35.0709 458.289 35.0709ZM471.333 35.0709C471.12 35.0709 470.931 35.0299 470.767 34.9479C470.619 34.8659 470.505 34.7346 470.423 34.5542C470.341 34.3738 470.3 34.1442 470.3 33.8653V23.827C470.3 23.4826 470.39 23.2201 470.57 23.0397C470.751 22.8429 471.005 22.7445 471.333 22.7445C471.645 22.7445 471.891 22.8429 472.071 23.0397C472.251 23.2201 472.342 23.4826 472.342 23.827V32.7089H471.702L478.64 23.458C478.771 23.2776 478.935 23.1135 479.132 22.9659C479.329 22.8183 479.592 22.7445 479.92 22.7445C480.149 22.7445 480.338 22.7855 480.485 22.8675C480.633 22.9495 480.74 23.0807 480.805 23.2611C480.887 23.4252 480.928 23.6466 480.928 23.9254V33.9883C480.928 34.3164 480.838 34.5788 480.658 34.7757C480.494 34.9725 480.256 35.0709 479.944 35.0709C479.6 35.0709 479.337 34.9725 479.157 34.7757C478.993 34.5788 478.911 34.3164 478.911 33.9883V25.0818H479.551L472.612 34.3574C472.481 34.5378 472.317 34.7018 472.12 34.8495C471.923 34.9971 471.661 35.0709 471.333 35.0709ZM492.311 35.0709C491.95 35.0709 491.671 34.9725 491.474 34.7757C491.277 34.5788 491.179 34.2918 491.179 33.9145V24.1961C491.179 23.786 491.286 23.4744 491.499 23.2611C491.728 23.0315 492.048 22.9167 492.458 22.9167H500.553C500.963 22.9167 501.275 23.0315 501.488 23.2611C501.718 23.4744 501.832 23.786 501.832 24.1961V33.9145C501.832 34.2918 501.734 34.5788 501.537 34.7757C501.34 34.9725 501.061 35.0709 500.701 35.0709C500.34 35.0709 500.061 34.9725 499.864 34.7757C499.684 34.5788 499.593 34.2918 499.593 33.9145V24.7128H493.418V33.9145C493.418 34.2918 493.328 34.5788 493.147 34.7757C492.967 34.9725 492.688 35.0709 492.311 35.0709ZM506.774 39.4996C506.43 39.4996 506.159 39.4011 505.963 39.2043C505.766 39.0075 505.667 38.7286 505.667 38.3678V23.8762C505.667 23.499 505.766 23.2201 505.963 23.0397C506.159 22.8429 506.43 22.7445 506.774 22.7445C507.135 22.7445 507.406 22.8429 507.586 23.0397C507.783 23.2201 507.882 23.499 507.882 23.8762V26.1152L507.611 25.6723C507.873 24.7702 508.39 24.0485 509.161 23.5072C509.932 22.9659 510.859 22.6953 511.941 22.6953C513.007 22.6953 513.934 22.9495 514.721 23.458C515.509 23.9501 516.124 24.6636 516.567 25.5985C517.01 26.517 517.231 27.616 517.231 28.8954C517.231 30.1584 517.01 31.2655 516.567 32.2169C516.14 33.1518 515.525 33.8735 514.721 34.382C513.934 34.8741 513.007 35.1201 511.941 35.1201C510.875 35.1201 509.957 34.8495 509.186 34.3082C508.415 33.7669 507.898 33.0534 507.636 32.1677H507.906V38.3678C507.906 38.7286 507.808 39.0075 507.611 39.2043C507.414 39.4011 507.135 39.4996 506.774 39.4996ZM511.425 33.3486C512.13 33.3486 512.745 33.1764 513.27 32.832C513.811 32.4875 514.229 31.9872 514.525 31.3311C514.82 30.675 514.967 29.8631 514.967 28.8954C514.967 27.452 514.648 26.353 514.008 25.5985C513.368 24.844 512.507 24.4667 511.425 24.4667C510.703 24.4667 510.071 24.639 509.53 24.9834C509.005 25.3115 508.595 25.8035 508.3 26.4596C508.021 27.1157 507.882 27.9276 507.882 28.8954C507.882 30.3388 508.201 31.446 508.841 32.2169C509.481 32.9714 510.342 33.3486 511.425 33.3486ZM521.405 35.0709C521.192 35.0709 521.003 35.0299 520.839 34.9479C520.692 34.8659 520.577 34.7346 520.495 34.5542C520.413 34.3738 520.372 34.1442 520.372 33.8653V23.827C520.372 23.4826 520.462 23.2201 520.642 23.0397C520.823 22.8429 521.077 22.7445 521.405 22.7445C521.717 22.7445 521.963 22.8429 522.143 23.0397C522.324 23.2201 522.414 23.4826 522.414 23.827V32.7089H521.774L528.712 23.458C528.844 23.2776 529.008 23.1135 529.205 22.9659C529.401 22.8183 529.664 22.7445 529.992 22.7445C530.221 22.7445 530.41 22.7855 530.558 22.8675C530.705 22.9495 530.812 23.0807 530.878 23.2611C530.96 23.4252 531.001 23.6466 531.001 23.9254V33.9883C531.001 34.3164 530.91 34.5788 530.73 34.7757C530.566 34.9725 530.328 35.0709 530.016 35.0709C529.672 35.0709 529.41 34.9725 529.229 34.7757C529.065 34.5788 528.983 34.3164 528.983 33.9883V25.0818H529.623L522.685 34.3574C522.553 34.5378 522.389 34.7018 522.192 34.8495C521.996 34.9971 521.733 35.0709 521.405 35.0709ZM538.477 35.0709C538.117 35.0709 537.838 34.9725 537.641 34.7757C537.444 34.5788 537.346 34.2918 537.346 33.9145V24.7128H533.852C533.196 24.7128 532.868 24.4093 532.868 23.8024C532.868 23.5236 532.958 23.3104 533.138 23.1627C533.319 22.9987 533.557 22.9167 533.852 22.9167H543.054C543.726 22.9167 544.062 23.2119 544.062 23.8024C544.062 24.0977 543.972 24.3273 543.792 24.4913C543.628 24.639 543.382 24.7128 543.054 24.7128H539.585V33.9145C539.585 34.2918 539.486 34.5788 539.289 34.7757C539.109 34.9725 538.838 35.0709 538.477 35.0709ZM554.401 35.0709C554.073 35.0709 553.818 34.9807 553.638 34.8003C553.458 34.6034 553.367 34.3328 553.367 33.9883V30.4208H551.719C551.112 30.4208 550.587 30.5766 550.144 30.8883C549.701 31.1999 549.349 31.5936 549.086 32.0693L547.733 34.4312C547.569 34.71 547.372 34.8905 547.143 34.9725C546.929 35.0709 546.708 35.0873 546.478 35.0217C546.265 34.9725 546.077 34.8659 545.912 34.7018C545.748 34.5378 545.642 34.341 545.593 34.1114C545.56 33.8817 545.625 33.6439 545.789 33.3978L546.847 31.5526C547.126 31.0933 547.495 30.6996 547.955 30.3716C548.414 30.0436 548.89 29.8795 549.382 29.8795H549.726V30.101C548.381 30.101 547.331 29.7893 546.577 29.166C545.822 28.5427 545.445 27.6734 545.445 26.558C545.445 25.8199 545.609 25.1802 545.937 24.639C546.282 24.0813 546.782 23.6548 547.438 23.3596C548.094 23.0643 548.914 22.9167 549.898 22.9167H554.302C554.663 22.9167 554.942 23.0151 555.139 23.2119C555.352 23.4088 555.459 23.6958 555.459 24.0731V33.9883C555.459 34.3328 555.36 34.6034 555.163 34.8003C554.983 34.9807 554.729 35.0709 554.401 35.0709ZM550.341 28.8708H553.367V24.4667H550.341C549.406 24.4667 548.717 24.6636 548.274 25.0572C547.832 25.4345 547.61 25.9675 547.61 26.6565C547.61 27.3454 547.832 27.8866 548.274 28.2803C548.717 28.6739 549.406 28.8708 550.341 28.8708ZM567.144 35.0709C566.783 35.0709 566.504 34.9725 566.308 34.7757C566.127 34.5788 566.037 34.2918 566.037 33.9145V29.6089H564.561C564.118 29.6089 563.749 29.6581 563.454 29.7565C563.158 29.8549 562.888 30.0271 562.642 30.2732C562.412 30.5028 562.166 30.8473 561.904 31.3065L560.009 34.4558C559.878 34.7018 559.697 34.8659 559.468 34.9479C559.255 35.0463 559.041 35.0709 558.828 35.0217C558.615 34.9889 558.426 34.9069 558.262 34.7757C558.115 34.628 558.016 34.4476 557.967 34.2344C557.934 34.0211 557.992 33.7915 558.139 33.5455L559.837 30.6914C560.198 30.0846 560.526 29.6007 560.821 29.2398C561.133 28.879 561.461 28.6083 561.805 28.4279C562.166 28.2475 562.568 28.1327 563.011 28.0835L562.494 28.7724L559.123 24.4421C558.943 24.2125 558.844 23.9911 558.828 23.7778C558.828 23.5482 558.894 23.3596 559.025 23.2119C559.156 23.0479 559.312 22.9331 559.492 22.8675C559.689 22.8019 559.894 22.8019 560.107 22.8675C560.321 22.9167 560.509 23.0561 560.673 23.2858L564.216 27.8374H566.037V23.9254C566.037 23.5646 566.127 23.2858 566.308 23.0889C566.504 22.8921 566.783 22.7937 567.144 22.7937C567.505 22.7937 567.784 22.8921 567.981 23.0889C568.177 23.2858 568.276 23.5646 568.276 23.9254V27.8374H570.072L573.615 23.2858C573.779 23.0561 573.968 22.9167 574.181 22.8675C574.394 22.8019 574.599 22.8019 574.796 22.8675C574.993 22.9167 575.148 23.0233 575.263 23.1873C575.395 23.3514 575.46 23.54 575.46 23.7532C575.46 23.9665 575.37 24.1879 575.189 24.4175L571.819 28.7724L571.278 28.0835C571.737 28.1327 572.139 28.2475 572.483 28.4279C572.828 28.6083 573.156 28.879 573.467 29.2398C573.779 29.6007 574.115 30.0846 574.476 30.6914L576.149 33.5455C576.297 33.7915 576.346 34.0211 576.297 34.2344C576.264 34.4476 576.165 34.628 576.001 34.7757C575.854 34.9069 575.673 34.9889 575.46 35.0217C575.247 35.0709 575.034 35.0463 574.82 34.9479C574.607 34.8659 574.427 34.7018 574.279 34.4558L572.409 31.3065C572.147 30.8637 571.893 30.5192 571.647 30.2732C571.401 30.0271 571.13 29.8549 570.835 29.7565C570.539 29.6581 570.179 29.6089 569.752 29.6089H568.276V33.9145C568.276 34.2918 568.177 34.5788 567.981 34.7757C567.784 34.9725 567.505 35.0709 567.144 35.0709ZM584.365 35.1201C583.069 35.1201 581.954 34.8741 581.019 34.382C580.101 33.8735 579.387 33.16 578.879 32.2415C578.37 31.3065 578.116 30.2076 578.116 28.9446C578.116 27.698 578.362 26.6072 578.854 25.6723C579.363 24.7374 580.051 24.0075 580.921 23.4826C581.807 22.9577 582.815 22.6953 583.947 22.6953C584.751 22.6953 585.472 22.8347 586.112 23.1135C586.768 23.376 587.326 23.7614 587.785 24.2699C588.244 24.7784 588.589 25.4017 588.819 26.1398C589.065 26.8615 589.188 27.6816 589.188 28.6001C589.188 28.8626 589.106 29.0676 588.942 29.2152C588.794 29.3464 588.573 29.4121 588.277 29.4121H579.863V27.985H587.711L587.293 28.3295C587.293 27.4766 587.162 26.7549 586.899 26.1644C586.653 25.5575 586.284 25.0982 585.792 24.7866C585.317 24.4749 584.718 24.3191 583.996 24.3191C583.209 24.3191 582.536 24.5077 581.979 24.885C581.421 25.2458 580.995 25.7625 580.699 26.435C580.404 27.0911 580.256 27.8538 580.256 28.7232V28.8708C580.256 30.347 580.609 31.4624 581.314 32.2169C582.02 32.9714 583.037 33.3486 584.365 33.3486C584.89 33.3486 585.423 33.283 585.965 33.1518C586.522 33.0206 587.055 32.7828 587.564 32.4383C587.81 32.2907 588.031 32.2251 588.228 32.2415C588.441 32.2415 588.614 32.3071 588.745 32.4383C588.876 32.5531 588.958 32.7007 588.991 32.8812C589.024 33.0452 588.999 33.2256 588.917 33.4225C588.835 33.6193 588.679 33.7915 588.449 33.9391C587.908 34.3164 587.26 34.6116 586.506 34.8249C585.768 35.0217 585.054 35.1201 584.365 35.1201ZM593.368 35.0709C593.007 35.0709 592.729 34.9725 592.532 34.7757C592.335 34.5788 592.237 34.2918 592.237 33.9145V23.8762C592.237 23.499 592.335 23.2201 592.532 23.0397C592.729 22.8429 593.007 22.7445 593.368 22.7445C593.729 22.7445 594 22.8429 594.18 23.0397C594.377 23.2201 594.475 23.499 594.475 23.8762V27.8374H600.725V23.8762C600.725 23.499 600.815 23.2201 600.995 23.0397C601.192 22.8429 601.471 22.7445 601.832 22.7445C602.193 22.7445 602.472 22.8429 602.668 23.0397C602.865 23.2201 602.964 23.499 602.964 23.8762V33.9145C602.964 34.2918 602.865 34.5788 602.668 34.7757C602.472 34.9725 602.193 35.0709 601.832 35.0709C601.471 35.0709 601.192 34.9725 600.995 34.7757C600.815 34.5788 600.725 34.2918 600.725 33.9145V29.6335H594.475V33.9145C594.475 34.2918 594.385 34.5788 594.205 34.7757C594.024 34.9725 593.746 35.0709 593.368 35.0709ZM607.83 35.0709C607.617 35.0709 607.428 35.0299 607.264 34.9479C607.117 34.8659 607.002 34.7346 606.92 34.5542C606.838 34.3738 606.797 34.1442 606.797 33.8653V23.827C606.797 23.4826 606.887 23.2201 607.068 23.0397C607.248 22.8429 607.502 22.7445 607.83 22.7445C608.142 22.7445 608.388 22.8429 608.568 23.0397C608.749 23.2201 608.839 23.4826 608.839 23.827V32.7089H608.199L615.138 23.458C615.269 23.2776 615.433 23.1135 615.63 22.9659C615.826 22.8183 616.089 22.7445 616.417 22.7445C616.647 22.7445 616.835 22.7855 616.983 22.8675C617.13 22.9495 617.237 23.0807 617.303 23.2611C617.385 23.4252 617.426 23.6466 617.426 23.9254V33.9883C617.426 34.3164 617.335 34.5788 617.155 34.7757C616.991 34.9725 616.753 35.0709 616.442 35.0709C616.097 35.0709 615.835 34.9725 615.654 34.7757C615.49 34.5788 615.408 34.3164 615.408 33.9883V25.0818H616.048L609.11 34.3574C608.978 34.5378 608.814 34.7018 608.618 34.8495C608.421 34.9971 608.158 35.0709 607.83 35.0709ZM629.749 35.0709C629.421 35.0709 629.167 34.9807 628.987 34.8003C628.806 34.6034 628.716 34.3328 628.716 33.9883V30.4208H627.068C626.461 30.4208 625.936 30.5766 625.493 30.8883C625.05 31.1999 624.697 31.5936 624.435 32.0693L623.082 34.4312C622.918 34.71 622.721 34.8905 622.491 34.9725C622.278 35.0709 622.057 35.0873 621.827 35.0217C621.614 34.9725 621.425 34.8659 621.261 34.7018C621.097 34.5378 620.991 34.341 620.941 34.1114C620.908 33.8817 620.974 33.6439 621.138 33.3978L622.196 31.5526C622.475 31.0933 622.844 30.6996 623.303 30.3716C623.763 30.0436 624.238 29.8795 624.73 29.8795H625.075V30.101C623.73 30.101 622.68 29.7893 621.925 29.166C621.171 28.5427 620.794 27.6734 620.794 26.558C620.794 25.8199 620.958 25.1802 621.286 24.639C621.63 24.0813 622.13 23.6548 622.787 23.3596C623.443 23.0643 624.263 22.9167 625.247 22.9167H629.651C630.012 22.9167 630.291 23.0151 630.488 23.2119C630.701 23.4088 630.807 23.6958 630.807 24.0731V33.9883C630.807 34.3328 630.709 34.6034 630.512 34.8003C630.332 34.9807 630.077 35.0709 629.749 35.0709ZM625.69 28.8708H628.716V24.4667H625.69C624.755 24.4667 624.066 24.6636 623.623 25.0572C623.18 25.4345 622.959 25.9675 622.959 26.6565C622.959 27.3454 623.18 27.8866 623.623 28.2803C624.066 28.6739 624.755 28.8708 625.69 28.8708Z" fill="#8F95A1"/>
<mask id="mask0_4566_2991" style="mask-type:luminance" maskUnits="userSpaceOnUse" x="199" y="9" width="36" height="37">
<path d="M234.939 9.89844H199.342V45.4952H234.939V9.89844Z" fill="white"/>
</mask>
<g mask="url(#mask0_4566_2991)">
<path d="M217.14 45.4952C226.97 45.4952 234.939 37.5266 234.939 27.6968C234.939 17.8671 226.97 9.89844 217.14 9.89844C207.311 9.89844 199.342 17.8671 199.342 27.6968C199.342 37.5266 207.311 45.4952 217.14 45.4952Z" fill="#FAC969"/>
<path fill-rule="evenodd" clip-rule="evenodd" d="M222.817 25.7157V22.7425C222.817 19.9674 219.979 17.7871 217.141 17.7871C214.302 17.7871 211.464 19.9674 211.464 22.7425V25.7157C210.248 25.7157 209.032 26.905 209.032 28.0943V35.0318C209.032 36.4194 210.248 37.6086 211.464 37.6086H222.614C224.033 37.6086 225.249 36.4194 225.249 35.23V28.2925C225.249 26.905 224.033 25.7157 222.817 25.7157ZM214.1 25.7157H220.181V22.7425C220.181 21.1567 218.762 20.1657 217.141 20.1657C215.519 20.1657 214.1 21.1567 214.1 22.7425V25.7157Z" fill="#282727"/>
</g>
<mask id="mask1_4566_2991" style="mask-type:luminance" maskUnits="userSpaceOnUse" x="366" y="9" width="37" height="37">
<path d="M402.243 9.89844H366.646V45.4952H402.243V9.89844Z" fill="white"/>
</mask>
<g mask="url(#mask1_4566_2991)">
<path d="M384.445 45.4952C394.275 45.4952 402.243 37.5266 402.243 27.6968C402.243 17.8671 394.275 9.89844 384.445 9.89844C374.615 9.89844 366.646 17.8671 366.646 27.6968C366.646 37.5266 374.615 45.4952 384.445 45.4952Z" fill="#FAC969"/>
<path fill-rule="evenodd" clip-rule="evenodd" d="M390.122 25.7157V22.7425C390.122 19.9674 387.284 17.7871 384.446 17.7871C381.608 17.7871 378.77 19.9674 378.77 22.7425V25.7157C377.554 25.7157 376.337 26.905 376.337 28.0943V35.0318C376.337 36.4194 377.554 37.6086 378.77 37.6086H389.92C391.339 37.6086 392.555 36.4194 392.555 35.23V28.2925C392.555 26.905 391.339 25.7157 390.122 25.7157ZM381.405 25.7157H387.487V22.7425C387.487 21.1567 386.068 20.1657 384.446 20.1657C382.824 20.1657 381.405 21.1567 381.405 22.7425V25.7157Z" fill="#282727"/>
</g>
</svg>
