<svg width="667" height="57" viewBox="0 0 667 57" fill="none" xmlns="http://www.w3.org/2000/svg">
<rect width="667" height="57" fill="white"/>
<circle cx="53.3954" cy="28.6974" r="8.89919" stroke="#439388" stroke-width="7.11935"/>
<path d="M83.1193 39.5001C82.7748 39.5001 82.5042 39.4016 82.3073 39.2048C82.1105 39.008 82.0121 38.7291 82.0121 38.3683V23.8767C82.0121 23.4995 82.1105 23.2206 82.3073 23.0402C82.5042 22.8434 82.7748 22.745 83.1193 22.745C83.4801 22.745 83.7508 22.8434 83.9312 23.0402C84.128 23.2206 84.2264 23.4995 84.2264 23.8767V26.1157L83.9558 25.6728C84.2182 24.7707 84.7349 24.049 85.5058 23.5077C86.2767 22.9664 87.2035 22.6958 88.286 22.6958C89.3522 22.6958 90.2789 22.95 91.0662 23.4585C91.8536 23.9506 92.4686 24.6641 92.9115 25.599C93.3544 26.5175 93.5758 27.6165 93.5758 28.8959C93.5758 30.1589 93.3544 31.266 92.9115 32.2174C92.4851 33.1523 91.87 33.874 91.0662 34.3825C90.2789 34.8746 89.3522 35.1206 88.286 35.1206C87.2199 35.1206 86.3013 34.85 85.5304 34.3087C84.7595 33.7674 84.2428 33.0539 83.9804 32.1682H84.251V38.3683C84.251 38.7291 84.1526 39.008 83.9558 39.2048C83.759 39.4016 83.4801 39.5001 83.1193 39.5001ZM87.7694 33.3491C88.4747 33.3491 89.0897 33.1769 89.6146 32.8325C90.1559 32.488 90.5742 31.9877 90.8694 31.3316C91.1647 30.6755 91.3123 29.8636 91.3123 28.8959C91.3123 27.4525 90.9924 26.3535 90.3527 25.599C89.713 24.8445 88.8519 24.4672 87.7694 24.4672C87.0476 24.4672 86.4162 24.6395 85.8749 24.9839C85.35 25.312 84.9399 25.804 84.6447 26.4601C84.3658 27.1162 84.2264 27.9281 84.2264 28.8959C84.2264 30.3393 84.5463 31.4465 85.186 32.2174C85.8257 32.9719 86.6868 33.3491 87.7694 33.3491ZM102.252 35.1206C100.957 35.1206 99.8413 34.8746 98.9063 34.3825C97.9878 33.874 97.2743 33.1605 96.7658 32.242C96.2574 31.307 96.0031 30.2081 96.0031 28.9451C96.0031 27.6985 96.2491 26.6077 96.7412 25.6728C97.2497 24.7379 97.9386 24.008 98.8079 23.4831C99.6937 22.9582 100.702 22.6958 101.834 22.6958C102.638 22.6958 103.36 22.8352 103.999 23.114C104.655 23.3765 105.213 23.7619 105.672 24.2704C106.132 24.7789 106.476 25.4022 106.706 26.1403C106.952 26.862 107.075 27.6821 107.075 28.6006C107.075 28.8631 106.993 29.0681 106.829 29.2157C106.681 29.3469 106.46 29.4126 106.164 29.4126H97.75V27.9855H105.599L105.18 28.33C105.18 27.4771 105.049 26.7554 104.787 26.1649C104.541 25.558 104.172 25.0987 103.679 24.7871C103.204 24.4754 102.605 24.3196 101.883 24.3196C101.096 24.3196 100.424 24.5082 99.8659 24.8855C99.3082 25.2463 98.8817 25.763 98.5865 26.4355C98.2913 27.0916 98.1436 27.8543 98.1436 28.7237V28.8713C98.1436 30.3475 98.4963 31.4629 99.2016 32.2174C99.9069 32.9719 100.924 33.3491 102.252 33.3491C102.777 33.3491 103.31 33.2835 103.852 33.1523C104.409 33.0211 104.942 32.7833 105.451 32.4388C105.697 32.2912 105.918 32.2256 106.115 32.242C106.328 32.242 106.501 32.3076 106.632 32.4388C106.763 32.5536 106.845 32.7012 106.878 32.8817C106.911 33.0457 106.886 33.2261 106.804 33.423C106.722 33.6198 106.566 33.792 106.337 33.9396C105.795 34.3169 105.147 34.6121 104.393 34.8254C103.655 35.0222 102.941 35.1206 102.252 35.1206ZM111.255 35.0714C110.895 35.0714 110.616 34.973 110.419 34.7762C110.222 34.5629 110.124 34.2677 110.124 33.8904V24.1966C110.124 23.7865 110.23 23.4749 110.444 23.2616C110.673 23.032 110.993 22.9172 111.403 22.9172H117.849C118.194 22.9172 118.448 22.991 118.612 23.1386C118.776 23.2863 118.858 23.5077 118.858 23.8029C118.858 24.0982 118.776 24.3278 118.612 24.4918C118.448 24.6395 118.194 24.7133 117.849 24.7133H112.363V33.8904C112.363 34.6777 111.994 35.0714 111.255 35.0714ZM121.993 35.0714C121.78 35.0714 121.591 35.0304 121.427 34.9484C121.28 34.8664 121.165 34.7351 121.083 34.5547C121.001 34.3743 120.96 34.1447 120.96 33.8658V23.8275C120.96 23.4831 121.05 23.2206 121.23 23.0402C121.411 22.8434 121.665 22.745 121.993 22.745C122.305 22.745 122.551 22.8434 122.731 23.0402C122.912 23.2206 123.002 23.4831 123.002 23.8275V32.7094H122.362L129.3 23.4585C129.432 23.2781 129.596 23.114 129.793 22.9664C129.989 22.8188 130.252 22.745 130.58 22.745C130.81 22.745 130.998 22.786 131.146 22.868C131.293 22.95 131.4 23.0812 131.466 23.2616C131.548 23.4257 131.589 23.6471 131.589 23.9259V33.9888C131.589 34.3169 131.498 34.5793 131.318 34.7762C131.154 34.973 130.916 35.0714 130.604 35.0714C130.26 35.0714 129.998 34.973 129.817 34.7762C129.653 34.5793 129.571 34.3169 129.571 33.9888V25.0823H130.211L123.273 34.3579C123.141 34.5383 122.977 34.7023 122.781 34.85C122.584 34.9976 122.321 35.0714 121.993 35.0714ZM140.517 35.1206C139.336 35.1206 138.311 34.8664 137.442 34.3579C136.572 33.8494 135.9 33.1277 135.424 32.1928C134.948 31.2578 134.711 30.1589 134.711 28.8959C134.711 27.9445 134.842 27.0916 135.104 26.3371C135.383 25.5662 135.777 24.9101 136.285 24.3688C136.794 23.8275 137.401 23.4175 138.106 23.1386C138.828 22.8434 139.631 22.6958 140.517 22.6958C141.698 22.6958 142.723 22.95 143.593 23.4585C144.462 23.967 145.134 24.6887 145.61 25.6236C146.086 26.5421 146.324 27.6329 146.324 28.8959C146.324 29.8472 146.184 30.7084 145.905 31.4793C145.643 32.2502 145.257 32.9063 144.749 33.4476C144.24 33.9888 143.625 34.4071 142.904 34.7023C142.198 34.9812 141.403 35.1206 140.517 35.1206ZM140.517 33.3491C141.239 33.3491 141.862 33.1769 142.387 32.8325C142.928 32.488 143.338 31.9877 143.617 31.3316C143.912 30.6755 144.06 29.8636 144.06 28.8959C144.06 27.4525 143.74 26.3535 143.1 25.599C142.461 24.8445 141.6 24.4672 140.517 24.4672C139.812 24.4672 139.188 24.6395 138.647 24.9839C138.122 25.312 137.712 25.804 137.417 26.4601C137.122 27.1162 136.974 27.9281 136.974 28.8959C136.974 30.3393 137.294 31.4465 137.934 32.2174C138.59 32.9719 139.451 33.3491 140.517 33.3491ZM150.612 35.0714C150.251 35.0714 149.972 34.973 149.775 34.7762C149.578 34.5793 149.48 34.2923 149.48 33.915V23.8767C149.48 23.4995 149.578 23.2206 149.775 23.0402C149.972 22.8434 150.251 22.745 150.612 22.745C150.973 22.745 151.243 22.8434 151.424 23.0402C151.62 23.2206 151.719 23.4995 151.719 23.8767V27.8379H157.968V23.8767C157.968 23.4995 158.058 23.2206 158.239 23.0402C158.436 22.8434 158.714 22.745 159.075 22.745C159.436 22.745 159.715 22.8434 159.912 23.0402C160.109 23.2206 160.207 23.4995 160.207 23.8767V33.915C160.207 34.2923 160.109 34.5793 159.912 34.7762C159.715 34.973 159.436 35.0714 159.075 35.0714C158.714 35.0714 158.436 34.973 158.239 34.7762C158.058 34.5793 157.968 34.2923 157.968 33.915V29.634H151.719V33.915C151.719 34.2923 151.629 34.5793 151.448 34.7762C151.268 34.973 150.989 35.0714 150.612 35.0714Z" fill="#2D2F31"/>
<path d="M252.228 35.0714C251.867 35.0714 251.589 34.973 251.392 34.7762C251.195 34.5629 251.097 34.2677 251.097 33.8904V24.1966C251.097 23.7865 251.203 23.4749 251.416 23.2616C251.646 23.032 251.966 22.9172 252.376 22.9172H258.822C259.167 22.9172 259.421 22.991 259.585 23.1386C259.749 23.2863 259.831 23.5077 259.831 23.8029C259.831 24.0982 259.749 24.3278 259.585 24.4918C259.421 24.6395 259.167 24.7133 258.822 24.7133H253.336V33.8904C253.336 34.6777 252.966 35.0714 252.228 35.0714ZM267.026 35.1206C265.845 35.1206 264.82 34.8664 263.95 34.3579C263.081 33.8494 262.408 33.1277 261.933 32.1928C261.457 31.2578 261.219 30.1589 261.219 28.8959C261.219 27.9445 261.35 27.0916 261.613 26.3371C261.892 25.5662 262.285 24.9101 262.794 24.3688C263.302 23.8275 263.909 23.4175 264.615 23.1386C265.336 22.8434 266.14 22.6958 267.026 22.6958C268.207 22.6958 269.232 22.95 270.101 23.4585C270.97 23.967 271.643 24.6887 272.119 25.6236C272.594 26.5421 272.832 27.6329 272.832 28.8959C272.832 29.8472 272.693 30.7084 272.414 31.4793C272.151 32.2502 271.766 32.9063 271.258 33.4476C270.749 33.9888 270.134 34.4071 269.412 34.7023C268.707 34.9812 267.911 35.1206 267.026 35.1206ZM267.026 33.3491C267.747 33.3491 268.371 33.1769 268.896 32.8325C269.437 32.488 269.847 31.9877 270.126 31.3316C270.421 30.6755 270.569 29.8636 270.569 28.8959C270.569 27.4525 270.249 26.3535 269.609 25.599C268.969 24.8445 268.108 24.4672 267.026 24.4672C266.32 24.4672 265.697 24.6395 265.156 24.9839C264.631 25.312 264.221 25.804 263.926 26.4601C263.63 27.1162 263.483 27.9281 263.483 28.8959C263.483 30.3393 263.803 31.4465 264.442 32.2174C265.098 32.9719 265.96 33.3491 267.026 33.3491ZM277.096 39.5001C276.751 39.5001 276.481 39.4016 276.284 39.2048C276.087 39.008 275.989 38.7291 275.989 38.3683V23.8767C275.989 23.4995 276.087 23.2206 276.284 23.0402C276.481 22.8434 276.751 22.745 277.096 22.745C277.457 22.745 277.727 22.8434 277.908 23.0402C278.104 23.2206 278.203 23.4995 278.203 23.8767V26.1157L277.932 25.6728C278.195 24.7707 278.711 24.049 279.482 23.5077C280.253 22.9664 281.18 22.6958 282.262 22.6958C283.329 22.6958 284.255 22.95 285.043 23.4585C285.83 23.9506 286.445 24.6641 286.888 25.599C287.331 26.5175 287.552 27.6165 287.552 28.8959C287.552 30.1589 287.331 31.266 286.888 32.2174C286.461 33.1523 285.846 33.874 285.043 34.3825C284.255 34.8746 283.329 35.1206 282.262 35.1206C281.196 35.1206 280.278 34.85 279.507 34.3087C278.736 33.7674 278.219 33.0539 277.957 32.1682H278.227V38.3683C278.227 38.7291 278.129 39.008 277.932 39.2048C277.735 39.4016 277.457 39.5001 277.096 39.5001ZM281.746 33.3491C282.451 33.3491 283.066 33.1769 283.591 32.8325C284.132 32.488 284.551 31.9877 284.846 31.3316C285.141 30.6755 285.289 29.8636 285.289 28.8959C285.289 27.4525 284.969 26.3535 284.329 25.599C283.689 24.8445 282.828 24.4672 281.746 24.4672C281.024 24.4672 280.393 24.6395 279.851 24.9839C279.326 25.312 278.916 25.804 278.621 26.4601C278.342 27.1162 278.203 27.9281 278.203 28.8959C278.203 30.3393 278.523 31.4465 279.162 32.2174C279.802 32.9719 280.663 33.3491 281.746 33.3491ZM295.786 35.1206C294.605 35.1206 293.58 34.8664 292.711 34.3579C291.841 33.8494 291.169 33.1277 290.693 32.1928C290.217 31.2578 289.98 30.1589 289.98 28.8959C289.98 27.9445 290.111 27.0916 290.373 26.3371C290.652 25.5662 291.046 24.9101 291.554 24.3688C292.063 23.8275 292.67 23.4175 293.375 23.1386C294.097 22.8434 294.9 22.6958 295.786 22.6958C296.967 22.6958 297.992 22.95 298.861 23.4585C299.731 23.967 300.403 24.6887 300.879 25.6236C301.355 26.5421 301.592 27.6329 301.592 28.8959C301.592 29.8472 301.453 30.7084 301.174 31.4793C300.912 32.2502 300.526 32.9063 300.018 33.4476C299.509 33.9888 298.894 34.4071 298.173 34.7023C297.467 34.9812 296.672 35.1206 295.786 35.1206ZM295.786 33.3491C296.508 33.3491 297.131 33.1769 297.656 32.8325C298.197 32.488 298.607 31.9877 298.886 31.3316C299.181 30.6755 299.329 29.8636 299.329 28.8959C299.329 27.4525 299.009 26.3535 298.369 25.599C297.73 24.8445 296.869 24.4672 295.786 24.4672C295.081 24.4672 294.457 24.6395 293.916 24.9839C293.391 25.312 292.981 25.804 292.686 26.4601C292.391 27.1162 292.243 27.9281 292.243 28.8959C292.243 30.3393 292.563 31.4465 293.203 32.2174C293.859 32.9719 294.72 33.3491 295.786 33.3491ZM304.454 38.2699C304.158 38.2699 303.921 38.1797 303.74 37.9992C303.56 37.8188 303.469 37.5646 303.469 37.2365V34.2103C303.469 33.4722 303.839 33.1031 304.577 33.1031H305.807L304.454 33.5706C304.913 32.9965 305.274 32.3732 305.536 31.7007C305.799 31.0118 305.987 30.2409 306.102 29.388C306.233 28.5186 306.299 27.5345 306.299 26.4355V24.1966C306.299 23.7865 306.405 23.4749 306.619 23.2616C306.848 23.032 307.168 22.9172 307.578 22.9172H313.705C314.115 22.9172 314.426 23.032 314.64 23.2616C314.869 23.4749 314.984 23.7865 314.984 24.1966V34.1365L313.951 33.1031H315.796C316.157 33.1031 316.427 33.2015 316.608 33.3983C316.805 33.5788 316.903 33.8494 316.903 34.2103V37.2365C316.903 37.9254 316.583 38.2699 315.943 38.2699C315.615 38.2699 315.369 38.1797 315.205 37.9992C315.041 37.8188 314.959 37.5646 314.959 37.2365V34.8992H305.413V37.2365C305.413 37.9254 305.093 38.2699 304.454 38.2699ZM306.889 33.1031H312.868V24.6641H308.267V26.8538C308.267 28.0348 308.144 29.1829 307.898 30.2983C307.668 31.3973 307.332 32.3322 306.889 33.1031ZM323.267 35.1206C322.447 35.1206 321.7 34.9566 321.028 34.6285C320.372 34.3005 319.855 33.8576 319.478 33.2999C319.117 32.7423 318.937 32.119 318.937 31.4301C318.937 30.5443 319.158 29.8472 319.601 29.3387C320.044 28.8303 320.79 28.4694 321.84 28.2562C322.89 28.0266 324.3 27.9117 326.072 27.9117H327.228V29.3387H326.121C324.858 29.3387 323.857 29.3962 323.119 29.511C322.398 29.6258 321.889 29.8308 321.594 30.1261C321.299 30.4049 321.151 30.7986 321.151 31.307C321.151 31.9467 321.372 32.4716 321.815 32.8817C322.275 33.2917 322.898 33.4968 323.685 33.4968C324.308 33.4968 324.858 33.3491 325.334 33.0539C325.809 32.7423 326.187 32.3322 326.465 31.8237C326.744 31.2988 326.884 30.7001 326.884 30.0276V27.1982C326.884 26.2305 326.687 25.5334 326.293 25.1069C325.9 24.6641 325.235 24.4426 324.3 24.4426C323.759 24.4426 323.201 24.5164 322.627 24.6641C322.053 24.8117 321.454 25.0413 320.831 25.353C320.585 25.4678 320.372 25.5088 320.191 25.476C320.011 25.4268 319.863 25.3284 319.749 25.1807C319.65 25.0167 319.593 24.8445 319.576 24.6641C319.576 24.4672 319.617 24.2786 319.699 24.0982C319.798 23.9177 319.962 23.7865 320.191 23.7045C320.913 23.3437 321.627 23.0894 322.332 22.9418C323.054 22.7778 323.726 22.6958 324.349 22.6958C325.416 22.6958 326.293 22.868 326.982 23.2124C327.671 23.5405 328.188 24.0572 328.532 24.7625C328.877 25.4514 329.049 26.3371 329.049 27.4197V33.915C329.049 34.2923 328.959 34.5793 328.778 34.7762C328.598 34.973 328.335 35.0714 327.991 35.0714C327.663 35.0714 327.4 34.973 327.204 34.7762C327.023 34.5793 326.933 34.2923 326.933 33.915V32.1682H327.154C327.023 32.7751 326.777 33.2999 326.416 33.7428C326.055 34.1857 325.604 34.5301 325.063 34.7762C324.538 35.0058 323.939 35.1206 323.267 35.1206Z" fill="#2D2F31"/>
<path d="M422.043 35.0714C421.682 35.0714 421.403 34.973 421.206 34.7762C421.009 34.5793 420.911 34.2923 420.911 33.915V24.7133H417.417C416.761 24.7133 416.433 24.4098 416.433 23.8029C416.433 23.5241 416.523 23.3109 416.704 23.1632C416.884 22.9992 417.122 22.9172 417.417 22.9172H426.619C427.291 22.9172 427.628 23.2124 427.628 23.8029C427.628 24.0982 427.537 24.3278 427.357 24.4918C427.193 24.6395 426.947 24.7133 426.619 24.7133H423.15V33.915C423.15 34.2923 423.051 34.5793 422.855 34.7762C422.674 34.973 422.403 35.0714 422.043 35.0714ZM434.499 35.1206C433.318 35.1206 432.292 34.8664 431.423 34.3579C430.554 33.8494 429.881 33.1277 429.406 32.1928C428.93 31.2578 428.692 30.1589 428.692 28.8959C428.692 27.9445 428.823 27.0916 429.086 26.3371C429.365 25.5662 429.758 24.9101 430.267 24.3688C430.775 23.8275 431.382 23.4175 432.087 23.1386C432.809 22.8434 433.613 22.6958 434.499 22.6958C435.68 22.6958 436.705 22.95 437.574 23.4585C438.443 23.967 439.116 24.6887 439.592 25.6236C440.067 26.5421 440.305 27.6329 440.305 28.8959C440.305 29.8472 440.166 30.7084 439.887 31.4793C439.624 32.2502 439.239 32.9063 438.73 33.4476C438.222 33.9888 437.607 34.4071 436.885 34.7023C436.18 34.9812 435.384 35.1206 434.499 35.1206ZM434.499 33.3491C435.22 33.3491 435.844 33.1769 436.368 32.8325C436.91 32.488 437.32 31.9877 437.599 31.3316C437.894 30.6755 438.041 29.8636 438.041 28.8959C438.041 27.4525 437.722 26.3535 437.082 25.599C436.442 24.8445 435.581 24.4672 434.499 24.4672C433.793 24.4672 433.17 24.6395 432.629 24.9839C432.104 25.312 431.694 25.804 431.399 26.4601C431.103 27.1162 430.956 27.9281 430.956 28.8959C430.956 30.3393 431.275 31.4465 431.915 32.2174C432.571 32.9719 433.432 33.3491 434.499 33.3491ZM452.22 35.0714C451.859 35.0714 451.581 34.973 451.384 34.7762C451.203 34.5629 451.113 34.2677 451.113 33.8904V30.1753C450.654 30.4377 450.162 30.6345 449.637 30.7658C449.128 30.897 448.595 30.9626 448.038 30.9626C446.299 30.9626 445.02 30.5525 444.2 29.7324C443.379 28.8959 442.969 27.6411 442.969 25.968V23.8767C442.969 23.4995 443.06 23.2206 443.24 23.0402C443.437 22.8434 443.716 22.745 444.077 22.745C444.437 22.745 444.716 22.8434 444.913 23.0402C445.11 23.2206 445.208 23.4995 445.208 23.8767V25.7958C445.208 26.944 445.454 27.7805 445.946 28.3054C446.438 28.8303 447.234 29.0927 448.333 29.0927C448.891 29.0927 449.391 29.0353 449.834 28.9205C450.277 28.7893 450.695 28.5842 451.089 28.3054V23.9259C451.089 23.1386 451.466 22.745 452.22 22.745C452.581 22.745 452.852 22.8434 453.032 23.0402C453.229 23.237 453.327 23.5323 453.327 23.9259V33.8904C453.327 34.2677 453.237 34.5629 453.057 34.7762C452.876 34.973 452.598 35.0714 452.22 35.0714ZM458.289 35.0714C457.928 35.0714 457.649 34.973 457.452 34.7762C457.255 34.5793 457.157 34.2923 457.157 33.915V23.9259C457.157 23.5651 457.255 23.2863 457.452 23.0894C457.649 22.8926 457.928 22.7942 458.289 22.7942C458.649 22.7942 458.92 22.8926 459.1 23.0894C459.297 23.2863 459.396 23.5651 459.396 23.9259V27.8379H461.512L465.055 23.2863C465.219 23.0566 465.407 22.9172 465.62 22.868C465.834 22.8024 466.039 22.8024 466.236 22.868C466.432 22.9172 466.596 23.0238 466.728 23.1878C466.859 23.3519 466.924 23.5405 466.924 23.7537C466.924 23.967 466.834 24.1884 466.654 24.418L463.308 28.7729L462.742 28.084C463.185 28.1332 463.578 28.248 463.923 28.4284C464.267 28.6088 464.595 28.8795 464.907 29.2403C465.219 29.6012 465.555 30.0851 465.916 30.6919L467.589 33.546C467.736 33.792 467.786 34.0216 467.736 34.2349C467.704 34.4481 467.605 34.6285 467.441 34.7762C467.293 34.9074 467.113 34.9894 466.9 35.0222C466.687 35.0714 466.473 35.0468 466.26 34.9484C466.047 34.8664 465.866 34.7023 465.719 34.4563L463.849 31.307C463.587 30.8642 463.332 30.5197 463.086 30.2737C462.84 30.0276 462.57 29.8554 462.274 29.757C461.979 29.6586 461.618 29.6094 461.192 29.6094H459.396V33.915C459.396 34.2923 459.297 34.5793 459.1 34.7762C458.92 34.973 458.649 35.0714 458.289 35.0714ZM471.333 35.0714C471.12 35.0714 470.931 35.0304 470.767 34.9484C470.619 34.8664 470.505 34.7351 470.423 34.5547C470.341 34.3743 470.3 34.1447 470.3 33.8658V23.8275C470.3 23.4831 470.39 23.2206 470.57 23.0402C470.751 22.8434 471.005 22.745 471.333 22.745C471.645 22.745 471.891 22.8434 472.071 23.0402C472.251 23.2206 472.342 23.4831 472.342 23.8275V32.7094H471.702L478.64 23.4585C478.771 23.2781 478.935 23.114 479.132 22.9664C479.329 22.8188 479.592 22.745 479.92 22.745C480.149 22.745 480.338 22.786 480.485 22.868C480.633 22.95 480.74 23.0812 480.805 23.2616C480.887 23.4257 480.928 23.6471 480.928 23.9259V33.9888C480.928 34.3169 480.838 34.5793 480.658 34.7762C480.494 34.973 480.256 35.0714 479.944 35.0714C479.6 35.0714 479.337 34.973 479.157 34.7762C478.993 34.5793 478.911 34.3169 478.911 33.9888V25.0823H479.551L472.612 34.3579C472.481 34.5383 472.317 34.7023 472.12 34.85C471.923 34.9976 471.661 35.0714 471.333 35.0714ZM492.311 35.0714C491.95 35.0714 491.671 34.973 491.474 34.7762C491.277 34.5793 491.179 34.2923 491.179 33.915V24.1966C491.179 23.7865 491.286 23.4749 491.499 23.2616C491.728 23.032 492.048 22.9172 492.458 22.9172H500.553C500.963 22.9172 501.275 23.032 501.488 23.2616C501.718 23.4749 501.832 23.7865 501.832 24.1966V33.915C501.832 34.2923 501.734 34.5793 501.537 34.7762C501.34 34.973 501.061 35.0714 500.701 35.0714C500.34 35.0714 500.061 34.973 499.864 34.7762C499.684 34.5793 499.593 34.2923 499.593 33.915V24.7133H493.418V33.915C493.418 34.2923 493.328 34.5793 493.147 34.7762C492.967 34.973 492.688 35.0714 492.311 35.0714ZM506.774 39.5001C506.43 39.5001 506.159 39.4016 505.963 39.2048C505.766 39.008 505.667 38.7291 505.667 38.3683V23.8767C505.667 23.4995 505.766 23.2206 505.963 23.0402C506.159 22.8434 506.43 22.745 506.774 22.745C507.135 22.745 507.406 22.8434 507.586 23.0402C507.783 23.2206 507.882 23.4995 507.882 23.8767V26.1157L507.611 25.6728C507.873 24.7707 508.39 24.049 509.161 23.5077C509.932 22.9664 510.859 22.6958 511.941 22.6958C513.007 22.6958 513.934 22.95 514.721 23.4585C515.509 23.9506 516.124 24.6641 516.567 25.599C517.01 26.5175 517.231 27.6165 517.231 28.8959C517.231 30.1589 517.01 31.266 516.567 32.2174C516.14 33.1523 515.525 33.874 514.721 34.3825C513.934 34.8746 513.007 35.1206 511.941 35.1206C510.875 35.1206 509.957 34.85 509.186 34.3087C508.415 33.7674 507.898 33.0539 507.636 32.1682H507.906V38.3683C507.906 38.7291 507.808 39.008 507.611 39.2048C507.414 39.4016 507.135 39.5001 506.774 39.5001ZM511.425 33.3491C512.13 33.3491 512.745 33.1769 513.27 32.8325C513.811 32.488 514.229 31.9877 514.525 31.3316C514.82 30.6755 514.967 29.8636 514.967 28.8959C514.967 27.4525 514.648 26.3535 514.008 25.599C513.368 24.8445 512.507 24.4672 511.425 24.4672C510.703 24.4672 510.071 24.6395 509.53 24.9839C509.005 25.312 508.595 25.804 508.3 26.4601C508.021 27.1162 507.882 27.9281 507.882 28.8959C507.882 30.3393 508.201 31.4465 508.841 32.2174C509.481 32.9719 510.342 33.3491 511.425 33.3491ZM521.405 35.0714C521.192 35.0714 521.003 35.0304 520.839 34.9484C520.692 34.8664 520.577 34.7351 520.495 34.5547C520.413 34.3743 520.372 34.1447 520.372 33.8658V23.8275C520.372 23.4831 520.462 23.2206 520.642 23.0402C520.823 22.8434 521.077 22.745 521.405 22.745C521.717 22.745 521.963 22.8434 522.143 23.0402C522.324 23.2206 522.414 23.4831 522.414 23.8275V32.7094H521.774L528.712 23.4585C528.844 23.2781 529.008 23.114 529.205 22.9664C529.401 22.8188 529.664 22.745 529.992 22.745C530.221 22.745 530.41 22.786 530.558 22.868C530.705 22.95 530.812 23.0812 530.878 23.2616C530.96 23.4257 531.001 23.6471 531.001 23.9259V33.9888C531.001 34.3169 530.91 34.5793 530.73 34.7762C530.566 34.973 530.328 35.0714 530.016 35.0714C529.672 35.0714 529.41 34.973 529.229 34.7762C529.065 34.5793 528.983 34.3169 528.983 33.9888V25.0823H529.623L522.685 34.3579C522.553 34.5383 522.389 34.7023 522.192 34.85C521.996 34.9976 521.733 35.0714 521.405 35.0714ZM538.477 35.0714C538.117 35.0714 537.838 34.973 537.641 34.7762C537.444 34.5793 537.346 34.2923 537.346 33.915V24.7133H533.852C533.196 24.7133 532.868 24.4098 532.868 23.8029C532.868 23.5241 532.958 23.3109 533.138 23.1632C533.319 22.9992 533.557 22.9172 533.852 22.9172H543.054C543.726 22.9172 544.062 23.2124 544.062 23.8029C544.062 24.0982 543.972 24.3278 543.792 24.4918C543.628 24.6395 543.382 24.7133 543.054 24.7133H539.585V33.915C539.585 34.2923 539.486 34.5793 539.289 34.7762C539.109 34.973 538.838 35.0714 538.477 35.0714ZM554.401 35.0714C554.073 35.0714 553.818 34.9812 553.638 34.8008C553.458 34.6039 553.367 34.3333 553.367 33.9888V30.4213H551.719C551.112 30.4213 550.587 30.5771 550.144 30.8888C549.701 31.2004 549.349 31.5941 549.086 32.0698L547.733 34.4317C547.569 34.7105 547.372 34.891 547.143 34.973C546.929 35.0714 546.708 35.0878 546.478 35.0222C546.265 34.973 546.077 34.8664 545.912 34.7023C545.748 34.5383 545.642 34.3415 545.593 34.1119C545.56 33.8822 545.625 33.6444 545.789 33.3983L546.847 31.5531C547.126 31.0938 547.495 30.7001 547.955 30.3721C548.414 30.0441 548.89 29.88 549.382 29.88H549.726V30.1015C548.381 30.1015 547.331 29.7898 546.577 29.1665C545.822 28.5432 545.445 27.6739 545.445 26.5585C545.445 25.8204 545.609 25.1807 545.937 24.6395C546.282 24.0818 546.782 23.6553 547.438 23.3601C548.094 23.0648 548.914 22.9172 549.898 22.9172H554.302C554.663 22.9172 554.942 23.0156 555.139 23.2124C555.352 23.4093 555.459 23.6963 555.459 24.0736V33.9888C555.459 34.3333 555.36 34.6039 555.163 34.8008C554.983 34.9812 554.729 35.0714 554.401 35.0714ZM550.341 28.8713H553.367V24.4672H550.341C549.406 24.4672 548.717 24.6641 548.274 25.0577C547.832 25.435 547.61 25.968 547.61 26.657C547.61 27.3459 547.832 27.8871 548.274 28.2808C548.717 28.6744 549.406 28.8713 550.341 28.8713ZM567.144 35.0714C566.783 35.0714 566.504 34.973 566.308 34.7762C566.127 34.5793 566.037 34.2923 566.037 33.915V29.6094H564.561C564.118 29.6094 563.749 29.6586 563.454 29.757C563.158 29.8554 562.888 30.0276 562.642 30.2737C562.412 30.5033 562.166 30.8478 561.904 31.307L560.009 34.4563C559.878 34.7023 559.697 34.8664 559.468 34.9484C559.255 35.0468 559.041 35.0714 558.828 35.0222C558.615 34.9894 558.426 34.9074 558.262 34.7762C558.115 34.6285 558.016 34.4481 557.967 34.2349C557.934 34.0216 557.992 33.792 558.139 33.546L559.837 30.6919C560.198 30.0851 560.526 29.6012 560.821 29.2403C561.133 28.8795 561.461 28.6088 561.805 28.4284C562.166 28.248 562.568 28.1332 563.011 28.084L562.494 28.7729L559.123 24.4426C558.943 24.213 558.844 23.9916 558.828 23.7783C558.828 23.5487 558.894 23.3601 559.025 23.2124C559.156 23.0484 559.312 22.9336 559.492 22.868C559.689 22.8024 559.894 22.8024 560.107 22.868C560.321 22.9172 560.509 23.0566 560.673 23.2863L564.216 27.8379H566.037V23.9259C566.037 23.5651 566.127 23.2863 566.308 23.0894C566.504 22.8926 566.783 22.7942 567.144 22.7942C567.505 22.7942 567.784 22.8926 567.981 23.0894C568.177 23.2863 568.276 23.5651 568.276 23.9259V27.8379H570.072L573.615 23.2863C573.779 23.0566 573.968 22.9172 574.181 22.868C574.394 22.8024 574.599 22.8024 574.796 22.868C574.993 22.9172 575.148 23.0238 575.263 23.1878C575.395 23.3519 575.46 23.5405 575.46 23.7537C575.46 23.967 575.37 24.1884 575.189 24.418L571.819 28.7729L571.278 28.084C571.737 28.1332 572.139 28.248 572.483 28.4284C572.828 28.6088 573.156 28.8795 573.467 29.2403C573.779 29.6012 574.115 30.0851 574.476 30.6919L576.149 33.546C576.297 33.792 576.346 34.0216 576.297 34.2349C576.264 34.4481 576.165 34.6285 576.001 34.7762C575.854 34.9074 575.673 34.9894 575.46 35.0222C575.247 35.0714 575.034 35.0468 574.82 34.9484C574.607 34.8664 574.427 34.7023 574.279 34.4563L572.409 31.307C572.147 30.8642 571.893 30.5197 571.647 30.2737C571.401 30.0276 571.13 29.8554 570.835 29.757C570.539 29.6586 570.179 29.6094 569.752 29.6094H568.276V33.915C568.276 34.2923 568.177 34.5793 567.981 34.7762C567.784 34.973 567.505 35.0714 567.144 35.0714ZM584.365 35.1206C583.069 35.1206 581.954 34.8746 581.019 34.3825C580.101 33.874 579.387 33.1605 578.879 32.242C578.37 31.307 578.116 30.2081 578.116 28.9451C578.116 27.6985 578.362 26.6077 578.854 25.6728C579.363 24.7379 580.051 24.008 580.921 23.4831C581.807 22.9582 582.815 22.6958 583.947 22.6958C584.751 22.6958 585.472 22.8352 586.112 23.114C586.768 23.3765 587.326 23.7619 587.785 24.2704C588.244 24.7789 588.589 25.4022 588.819 26.1403C589.065 26.862 589.188 27.6821 589.188 28.6006C589.188 28.8631 589.106 29.0681 588.942 29.2157C588.794 29.3469 588.573 29.4126 588.277 29.4126H579.863V27.9855H587.711L587.293 28.33C587.293 27.4771 587.162 26.7554 586.899 26.1649C586.653 25.558 586.284 25.0987 585.792 24.7871C585.317 24.4754 584.718 24.3196 583.996 24.3196C583.209 24.3196 582.536 24.5082 581.979 24.8855C581.421 25.2463 580.995 25.763 580.699 26.4355C580.404 27.0916 580.256 27.8543 580.256 28.7237V28.8713C580.256 30.3475 580.609 31.4629 581.314 32.2174C582.02 32.9719 583.037 33.3491 584.365 33.3491C584.89 33.3491 585.423 33.2835 585.965 33.1523C586.522 33.0211 587.055 32.7833 587.564 32.4388C587.81 32.2912 588.031 32.2256 588.228 32.242C588.441 32.242 588.614 32.3076 588.745 32.4388C588.876 32.5536 588.958 32.7012 588.991 32.8817C589.024 33.0457 588.999 33.2261 588.917 33.423C588.835 33.6198 588.679 33.792 588.449 33.9396C587.908 34.3169 587.26 34.6121 586.506 34.8254C585.768 35.0222 585.054 35.1206 584.365 35.1206ZM593.368 35.0714C593.007 35.0714 592.729 34.973 592.532 34.7762C592.335 34.5793 592.237 34.2923 592.237 33.915V23.8767C592.237 23.4995 592.335 23.2206 592.532 23.0402C592.729 22.8434 593.007 22.745 593.368 22.745C593.729 22.745 594 22.8434 594.18 23.0402C594.377 23.2206 594.475 23.4995 594.475 23.8767V27.8379H600.725V23.8767C600.725 23.4995 600.815 23.2206 600.995 23.0402C601.192 22.8434 601.471 22.745 601.832 22.745C602.193 22.745 602.472 22.8434 602.668 23.0402C602.865 23.2206 602.964 23.4995 602.964 23.8767V33.915C602.964 34.2923 602.865 34.5793 602.668 34.7762C602.472 34.973 602.193 35.0714 601.832 35.0714C601.471 35.0714 601.192 34.973 600.995 34.7762C600.815 34.5793 600.725 34.2923 600.725 33.915V29.634H594.475V33.915C594.475 34.2923 594.385 34.5793 594.205 34.7762C594.024 34.973 593.746 35.0714 593.368 35.0714ZM607.83 35.0714C607.617 35.0714 607.428 35.0304 607.264 34.9484C607.117 34.8664 607.002 34.7351 606.92 34.5547C606.838 34.3743 606.797 34.1447 606.797 33.8658V23.8275C606.797 23.4831 606.887 23.2206 607.068 23.0402C607.248 22.8434 607.502 22.745 607.83 22.745C608.142 22.745 608.388 22.8434 608.568 23.0402C608.749 23.2206 608.839 23.4831 608.839 23.8275V32.7094H608.199L615.138 23.4585C615.269 23.2781 615.433 23.114 615.63 22.9664C615.826 22.8188 616.089 22.745 616.417 22.745C616.647 22.745 616.835 22.786 616.983 22.868C617.13 22.95 617.237 23.0812 617.303 23.2616C617.385 23.4257 617.426 23.6471 617.426 23.9259V33.9888C617.426 34.3169 617.335 34.5793 617.155 34.7762C616.991 34.973 616.753 35.0714 616.442 35.0714C616.097 35.0714 615.835 34.973 615.654 34.7762C615.49 34.5793 615.408 34.3169 615.408 33.9888V25.0823H616.048L609.11 34.3579C608.978 34.5383 608.814 34.7023 608.618 34.85C608.421 34.9976 608.158 35.0714 607.83 35.0714ZM629.749 35.0714C629.421 35.0714 629.167 34.9812 628.987 34.8008C628.806 34.6039 628.716 34.3333 628.716 33.9888V30.4213H627.068C626.461 30.4213 625.936 30.5771 625.493 30.8888C625.05 31.2004 624.697 31.5941 624.435 32.0698L623.082 34.4317C622.918 34.7105 622.721 34.891 622.491 34.973C622.278 35.0714 622.057 35.0878 621.827 35.0222C621.614 34.973 621.425 34.8664 621.261 34.7023C621.097 34.5383 620.991 34.3415 620.941 34.1119C620.908 33.8822 620.974 33.6444 621.138 33.3983L622.196 31.5531C622.475 31.0938 622.844 30.7001 623.303 30.3721C623.763 30.0441 624.238 29.88 624.73 29.88H625.075V30.1015C623.73 30.1015 622.68 29.7898 621.925 29.1665C621.171 28.5432 620.794 27.6739 620.794 26.5585C620.794 25.8204 620.958 25.1807 621.286 24.6395C621.63 24.0818 622.13 23.6553 622.787 23.3601C623.443 23.0648 624.263 22.9172 625.247 22.9172H629.651C630.012 22.9172 630.291 23.0156 630.488 23.2124C630.701 23.4093 630.807 23.6963 630.807 24.0736V33.9888C630.807 34.3333 630.709 34.6039 630.512 34.8008C630.332 34.9812 630.077 35.0714 629.749 35.0714ZM625.69 28.8713H628.716V24.4672H625.69C624.755 24.4672 624.066 24.6641 623.623 25.0577C623.18 25.435 622.959 25.968 622.959 26.657C622.959 27.3459 623.18 27.8871 623.623 28.2808C624.066 28.6744 624.755 28.8713 625.69 28.8713Z" fill="#4B4A4A"/>
<g clip-path="url(#clip0_2658_37197)">
<path d="M217.14 45.4959C226.97 45.4959 234.939 37.5273 234.939 27.6975C234.939 17.8678 226.97 9.89917 217.14 9.89917C207.311 9.89917 199.342 17.8678 199.342 27.6975C199.342 37.5273 207.311 45.4959 217.14 45.4959Z" fill="#FAC969"/>
<path fill-rule="evenodd" clip-rule="evenodd" d="M222.817 25.7155V22.7423C222.817 19.9672 219.979 17.7869 217.141 17.7869C214.302 17.7869 211.464 19.9672 211.464 22.7423V25.7155C210.248 25.7155 209.032 26.9048 209.032 28.0941V35.0316C209.032 36.4192 210.248 37.6084 211.464 37.6084H222.614C224.033 37.6084 225.249 36.4192 225.249 35.2298V28.2923C225.249 26.9048 224.033 25.7155 222.817 25.7155ZM214.1 25.7155H220.181V22.7423C220.181 21.1565 218.762 20.1655 217.141 20.1655C215.519 20.1655 214.1 21.1565 214.1 22.7423V25.7155Z" fill="#282727"/>
</g>
<g clip-path="url(#clip1_2658_37197)">
<path d="M384.445 45.4959C394.275 45.4959 402.243 37.5273 402.243 27.6975C402.243 17.8678 394.275 9.89917 384.445 9.89917C374.615 9.89917 366.646 17.8678 366.646 27.6975C366.646 37.5273 374.615 45.4959 384.445 45.4959Z" fill="#FAC969"/>
<path fill-rule="evenodd" clip-rule="evenodd" d="M390.121 25.7155V22.7423C390.121 19.9672 387.283 17.7869 384.445 17.7869C381.607 17.7869 378.769 19.9672 378.769 22.7423V25.7155C377.553 25.7155 376.336 26.9048 376.336 28.0941V35.0316C376.336 36.4192 377.553 37.6084 378.769 37.6084H389.919C391.338 37.6084 392.554 36.4192 392.554 35.2298V28.2923C392.554 26.9048 391.338 25.7155 390.121 25.7155ZM381.404 25.7155H387.486V22.7423C387.486 21.1565 386.067 20.1655 384.445 20.1655C382.823 20.1655 381.404 21.1565 381.404 22.7423V25.7155Z" fill="#282727"/>
</g>
<defs>
<clipPath id="clip0_2658_37197">
<rect width="35.5968" height="35.5968" fill="white" transform="translate(199.342 9.89917)"/>
</clipPath>
<clipPath id="clip1_2658_37197">
<rect width="35.5968" height="35.5968" fill="white" transform="translate(366.646 9.89917)"/>
</clipPath>
</defs>
</svg>
