<svg width="332" height="63" viewBox="0 0 332 63" fill="none" xmlns="http://www.w3.org/2000/svg">
<g clip-path="url(#clip0_2658_37209)">
<rect width="332" height="63" fill="white"/>
<path d="M3.94271 35.9852C2.74964 35.9852 2.15311 35.37 2.15311 34.1397V17.8655C2.15311 16.6538 2.75897 16.0479 3.97067 16.0479H10.7096C12.8721 16.0479 14.5405 16.5885 15.7149 17.6697C16.8893 18.751 17.4766 20.2609 17.4766 22.1997C17.4766 24.1384 16.8893 25.6577 15.7149 26.7576C14.5405 27.8388 12.8721 28.3794 10.7096 28.3794H5.73231V34.1397C5.73231 35.37 5.13578 35.9852 3.94271 35.9852ZM5.73231 25.5552H10.1504C12.7229 25.5552 14.0092 24.4367 14.0092 22.1997C14.0092 19.9813 12.7229 18.8721 10.1504 18.8721H5.73231V25.5552ZM26.5019 36.0411C24.9546 36.0411 23.6217 35.7522 22.5032 35.1743C21.3847 34.5964 20.5179 33.7761 19.9027 32.7136C19.3062 31.651 19.0079 30.3927 19.0079 28.9386C19.0079 27.5219 19.2969 26.2822 19.8748 25.2196C20.4713 24.157 21.2822 23.3275 22.3075 22.731C23.3514 22.1158 24.5352 21.8082 25.8587 21.8082C27.7975 21.8082 29.3261 22.4234 30.4446 23.6537C31.5817 24.8841 32.1503 26.5618 32.1503 28.687C32.1503 29.3767 31.7029 29.7216 30.8081 29.7216H22.3634C22.6244 32.1636 24.0225 33.3847 26.5578 33.3847C27.0425 33.3847 27.5831 33.3287 28.1796 33.2169C28.7948 33.0864 29.3727 32.872 29.9133 32.5738C30.398 32.2941 30.8081 32.2102 31.1437 32.3221C31.4792 32.4153 31.7122 32.611 31.8427 32.9093C31.9918 33.2076 32.0105 33.5431 31.8986 33.916C31.8054 34.2701 31.5444 34.5777 31.1157 34.8387C30.4632 35.2488 29.7082 35.5564 28.8507 35.7615C28.0119 35.9479 27.2289 36.0411 26.5019 36.0411ZM25.9986 24.185C24.9733 24.185 24.1437 24.5019 23.5099 25.1357C22.8761 25.7695 22.4939 26.6271 22.3634 27.7083H29.2422C29.1676 26.5711 28.8507 25.7043 28.2915 25.1078C27.7509 24.4926 26.9866 24.185 25.9986 24.185ZM37.0343 35.9852C35.8599 35.9852 35.2727 35.3793 35.2727 34.1676V24.0452C35.2727 22.7403 35.9252 22.0878 37.2301 22.0878H44.3605C45.3485 22.0878 45.8425 22.5445 45.8425 23.458C45.8425 24.3714 45.3485 24.8281 44.3605 24.8281H38.768V34.1676C38.768 35.3793 38.1901 35.9852 37.0343 35.9852ZM49.6743 35.9852C48.593 35.9852 48.0524 35.3607 48.0524 34.1117V23.5419C48.0524 22.4234 48.5837 21.8641 49.6463 21.8641C50.6902 21.8641 51.2122 22.4234 51.2122 23.5419V31.2036L57.3919 22.9826C57.597 22.7216 57.8486 22.47 58.1469 22.2276C58.4452 21.9853 58.8553 21.8641 59.3772 21.8641C60.4398 21.8641 60.9711 22.4793 60.9711 23.7096V34.3074C60.9711 35.4259 60.4491 35.9852 59.4052 35.9852C58.3426 35.9852 57.8113 35.4259 57.8113 34.3074V26.6457L51.6316 34.8667C51.4452 35.1277 51.2029 35.3793 50.9046 35.6217C50.625 35.864 50.2149 35.9852 49.6743 35.9852ZM71.1918 36.0411C69.7751 36.0411 68.5447 35.7522 67.5008 35.1743C66.4568 34.5964 65.6459 33.7761 65.068 32.7136C64.4902 31.6323 64.2012 30.3647 64.2012 28.9107C64.2012 27.4566 64.4902 26.1983 65.068 25.1357C65.6459 24.0732 66.4568 23.2529 67.5008 22.675C68.5447 22.0971 69.7751 21.8082 71.1918 21.8082C72.6086 21.8082 73.8389 22.0971 74.8829 22.675C75.9268 23.2529 76.7377 24.0732 77.3156 25.1357C77.8935 26.1983 78.1824 27.4566 78.1824 28.9107C78.1824 30.3647 77.8935 31.6323 77.3156 32.7136C76.7377 33.7761 75.9268 34.5964 74.8829 35.1743C73.8389 35.7522 72.6086 36.0411 71.1918 36.0411ZM71.1918 33.3847C72.2358 33.3847 73.0746 33.0118 73.7085 32.2662C74.3423 31.5019 74.6592 30.3834 74.6592 28.9107C74.6592 27.4193 74.3423 26.3102 73.7085 25.5831C73.0746 24.8375 72.2358 24.4646 71.1918 24.4646C70.1479 24.4646 69.309 24.8375 68.6752 25.5831C68.0414 26.3102 67.7245 27.4193 67.7245 28.9107C67.7245 30.3834 68.0414 31.5019 68.6752 32.2662C69.309 33.0118 70.1479 33.3847 71.1918 33.3847ZM83.1834 35.9852C82.0089 35.9852 81.4217 35.3886 81.4217 34.1956V23.6258C81.4217 22.4513 82.0089 21.8641 83.1834 21.8641C84.3391 21.8641 84.917 22.4513 84.917 23.6258V27.3727H90.9569V23.6258C90.9569 22.4513 91.5348 21.8641 92.6906 21.8641C93.865 21.8641 94.4522 22.4513 94.4522 23.6258V34.1956C94.4522 35.3886 93.865 35.9852 92.6906 35.9852C91.5348 35.9852 90.9569 35.3886 90.9569 34.1956V30.1131H84.917V34.1956C84.917 35.3886 84.3391 35.9852 83.1834 35.9852ZM100.168 35.7615C99.0119 35.7615 98.4341 35.1836 98.4341 34.0278V23.6258C98.4341 22.4513 99.0213 21.8641 100.196 21.8641C101.351 21.8641 101.929 22.4513 101.929 23.6258V26.6177H105.537C107.345 26.6177 108.706 26.9999 109.619 27.7642C110.551 28.5285 111.017 29.647 111.017 31.1197C111.017 32.5178 110.523 33.6456 109.535 34.5032C108.566 35.342 107.233 35.7615 105.537 35.7615H100.168ZM114.401 35.9852C113.245 35.9852 112.667 35.3886 112.667 34.1956V23.6258C112.667 22.4513 113.245 21.8641 114.401 21.8641C115.575 21.8641 116.162 22.4513 116.162 23.6258V34.1956C116.162 35.3886 115.575 35.9852 114.401 35.9852ZM101.929 33.4686H105.005C105.881 33.4686 106.562 33.2821 107.046 32.9093C107.531 32.5178 107.774 31.9306 107.774 31.1477C107.774 30.3834 107.531 29.8241 107.046 29.4699C106.562 29.0971 105.881 28.9107 105.005 28.9107H101.929V33.4686Z" fill="#4B4A4A"/>
<path d="M214.683 35.9573C214.273 35.9573 213.956 35.8454 213.732 35.6216C213.508 35.3792 213.396 35.0436 213.396 34.6148V17.3863C213.396 16.9574 213.508 16.6311 213.732 16.4074C213.974 16.165 214.31 16.0438 214.739 16.0438H224.919C225.292 16.0438 225.572 16.137 225.758 16.3235C225.963 16.5099 226.066 16.7803 226.066 17.1346C226.066 17.4888 225.963 17.7685 225.758 17.9736C225.572 18.1601 225.292 18.2533 224.919 18.2533H215.997V34.6148C215.997 35.0436 215.886 35.3792 215.662 35.6216C215.438 35.8454 215.112 35.9573 214.683 35.9573ZM230.898 36.0132C229.556 36.0132 228.391 35.7242 227.402 35.1462C226.414 34.5682 225.65 33.7478 225.109 32.685C224.568 31.6222 224.298 30.3729 224.298 28.9372C224.298 27.8558 224.447 26.8862 224.745 26.0285C225.062 25.1522 225.51 24.4063 226.088 23.791C226.666 23.1757 227.356 22.7096 228.158 22.3926C228.978 22.057 229.892 21.8892 230.898 21.8892C232.241 21.8892 233.406 22.1782 234.394 22.7562C235.383 23.3342 236.147 24.1546 236.688 25.2174C237.229 26.2616 237.499 27.5015 237.499 28.9372C237.499 30.0186 237.34 30.9975 237.023 31.8739C236.725 32.7502 236.287 33.496 235.709 34.1113C235.131 34.7266 234.432 35.2021 233.611 35.5377C232.81 35.8547 231.905 36.0132 230.898 36.0132ZM230.898 33.9995C231.719 33.9995 232.427 33.8037 233.024 33.4121C233.639 33.0206 234.105 32.4519 234.422 31.7061C234.758 30.9602 234.926 30.0373 234.926 28.9372C234.926 27.2964 234.562 26.0471 233.835 25.1894C233.108 24.3317 232.129 23.9029 230.898 23.9029C230.097 23.9029 229.388 24.0987 228.773 24.4902C228.176 24.8631 227.71 25.4225 227.374 26.1683C227.039 26.9142 226.871 27.8371 226.871 28.9372C226.871 30.578 227.235 31.8366 227.962 32.7129C228.708 33.5706 229.686 33.9995 230.898 33.9995ZM242.346 40.9916C241.954 40.9916 241.646 40.8797 241.423 40.6559C241.199 40.4322 241.087 40.1152 241.087 39.705V23.2317C241.087 22.8028 241.199 22.4858 241.423 22.2807C241.646 22.057 241.954 21.9451 242.346 21.9451C242.756 21.9451 243.063 22.057 243.269 22.2807C243.492 22.4858 243.604 22.8028 243.604 23.2317V25.7768L243.296 25.2733C243.595 24.2478 244.182 23.4274 245.058 22.8121C245.935 22.1968 246.988 21.8892 248.219 21.8892C249.431 21.8892 250.484 22.1782 251.379 22.7562C252.274 23.3156 252.974 24.1266 253.477 25.1894C253.98 26.2336 254.232 27.4828 254.232 28.9372C254.232 30.3729 253.98 31.6315 253.477 32.7129C252.992 33.7757 252.293 34.5961 251.379 35.1741C250.484 35.7335 249.431 36.0132 248.219 36.0132C247.007 36.0132 245.963 35.7055 245.086 35.0902C244.21 34.4749 243.623 33.6638 243.324 32.657H243.632V39.705C243.632 40.1152 243.52 40.4322 243.296 40.6559C243.073 40.8797 242.756 40.9916 242.346 40.9916ZM247.632 33.9995C248.433 33.9995 249.133 33.8037 249.729 33.4121C250.344 33.0206 250.82 32.4519 251.156 31.7061C251.491 30.9602 251.659 30.0373 251.659 28.9372C251.659 27.2964 251.295 26.0471 250.568 25.1894C249.841 24.3317 248.862 23.9029 247.632 23.9029C246.811 23.9029 246.093 24.0987 245.478 24.4902C244.881 24.8631 244.415 25.4225 244.08 26.1683C243.763 26.9142 243.604 27.8371 243.604 28.9372C243.604 30.578 243.968 31.8366 244.695 32.7129C245.422 33.5706 246.401 33.9995 247.632 33.9995ZM263.592 36.0132C262.249 36.0132 261.084 35.7242 260.096 35.1462C259.108 34.5682 258.343 33.7478 257.802 32.685C257.262 31.6222 256.991 30.3729 256.991 28.9372C256.991 27.8558 257.141 26.8862 257.439 26.0285C257.756 25.1522 258.203 24.4063 258.781 23.791C259.359 23.1757 260.049 22.7096 260.851 22.3926C261.671 22.057 262.585 21.8892 263.592 21.8892C264.934 21.8892 266.1 22.1782 267.088 22.7562C268.076 23.3342 268.841 24.1546 269.381 25.2174C269.922 26.2616 270.192 27.5015 270.192 28.9372C270.192 30.0186 270.034 30.9975 269.717 31.8739C269.419 32.7502 268.98 33.496 268.402 34.1113C267.824 34.7266 267.125 35.2021 266.305 35.5377C265.503 35.8547 264.599 36.0132 263.592 36.0132ZM263.592 33.9995C264.412 33.9995 265.121 33.8037 265.717 33.4121C266.333 33.0206 266.799 32.4519 267.116 31.7061C267.452 30.9602 267.619 30.0373 267.619 28.9372C267.619 27.2964 267.256 26.0471 266.529 25.1894C265.801 24.3317 264.822 23.9029 263.592 23.9029C262.79 23.9029 262.082 24.0987 261.466 24.4902C260.87 24.8631 260.403 25.4225 260.068 26.1683C259.732 26.9142 259.564 27.8371 259.564 28.9372C259.564 30.578 259.928 31.8366 260.655 32.7129C261.401 33.5706 262.38 33.9995 263.592 33.9995ZM273.445 39.5931C273.109 39.5931 272.839 39.4906 272.634 39.2855C272.429 39.0804 272.326 38.7914 272.326 38.4185V34.9784C272.326 34.1393 272.746 33.7198 273.585 33.7198H274.983L273.445 34.2512C273.967 33.5986 274.377 32.8901 274.675 32.1256C274.974 31.3425 275.188 30.4661 275.319 29.4966C275.468 28.5084 275.542 27.3896 275.542 26.1404V23.5952C275.542 23.1291 275.664 22.7748 275.906 22.5324C276.167 22.2714 276.531 22.1409 276.997 22.1409H283.961C284.427 22.1409 284.781 22.2714 285.024 22.5324C285.285 22.7748 285.415 23.1291 285.415 23.5952V34.8945L284.241 33.7198H286.338C286.748 33.7198 287.056 33.8317 287.261 34.0554C287.485 34.2605 287.597 34.5682 287.597 34.9784V38.4185C287.597 39.2016 287.233 39.5931 286.506 39.5931C286.133 39.5931 285.853 39.4906 285.667 39.2855C285.481 39.0804 285.387 38.7914 285.387 38.4185V35.7615H274.536V38.4185C274.536 39.2016 274.172 39.5931 273.445 39.5931ZM276.214 33.7198H283.01V24.1266H277.78V26.6158C277.78 27.9583 277.64 29.2635 277.36 30.5314C277.099 31.7806 276.717 32.8434 276.214 33.7198ZM294.831 36.0132C293.899 36.0132 293.05 35.8267 292.286 35.4538C291.54 35.0809 290.953 34.5775 290.524 33.9435C290.114 33.3096 289.909 32.6011 289.909 31.8179C289.909 30.8111 290.16 30.0186 290.664 29.4406C291.167 28.8626 292.016 28.4524 293.209 28.21C294.402 27.949 296.006 27.8185 298.019 27.8185H299.334V29.4406H298.075C296.64 29.4406 295.502 29.5059 294.663 29.6364C293.843 29.7669 293.265 30 292.929 30.3356C292.594 30.6526 292.426 31.1001 292.426 31.6781C292.426 32.4053 292.677 33.0019 293.181 33.4681C293.703 33.9342 294.411 34.1673 295.306 34.1673C296.015 34.1673 296.64 33.9995 297.18 33.6638C297.721 33.3096 298.15 32.8434 298.467 32.2654C298.784 31.6688 298.942 30.9882 298.942 30.2237V27.0074C298.942 25.9073 298.719 25.1149 298.271 24.6301C297.824 24.1266 297.068 23.8749 296.006 23.8749C295.39 23.8749 294.756 23.9588 294.104 24.1266C293.451 24.2945 292.771 24.5555 292.062 24.9098C291.782 25.0403 291.54 25.0869 291.335 25.0496C291.13 24.9937 290.962 24.8818 290.832 24.714C290.72 24.5275 290.654 24.3317 290.636 24.1266C290.636 23.9029 290.682 23.6885 290.776 23.4834C290.887 23.2783 291.074 23.1291 291.335 23.0359C292.155 22.6257 292.966 22.3367 293.768 22.1689C294.589 21.9824 295.353 21.8892 296.062 21.8892C297.274 21.8892 298.271 22.085 299.054 22.4765C299.837 22.8494 300.425 23.4368 300.816 24.2385C301.208 25.0216 301.404 26.0285 301.404 27.2591V34.6427C301.404 35.0716 301.301 35.3979 301.096 35.6216C300.891 35.8454 300.592 35.9573 300.201 35.9573C299.828 35.9573 299.53 35.8454 299.306 35.6216C299.101 35.3979 298.998 35.0716 298.998 34.6427V32.657H299.25C299.101 33.3469 298.821 33.9435 298.411 34.447C298.001 34.9504 297.488 35.3419 296.873 35.6216C296.276 35.8827 295.595 36.0132 294.831 36.0132Z" fill="#4B4A4A"/>
<g clip-path="url(#clip1_2658_37209)">
<path d="M181.407 44.7473C191.134 44.7473 199.019 36.862 199.019 27.135C199.019 17.408 191.134 9.52271 181.407 9.52271C171.68 9.52271 163.794 17.408 163.794 27.135C163.794 36.862 171.68 44.7473 181.407 44.7473Z" fill="#FAC969"/>
<path fill-rule="evenodd" clip-rule="evenodd" d="M187.024 25.1736V22.2315C187.024 19.4855 184.215 17.3279 181.407 17.3279C178.598 17.3279 175.79 19.4855 175.79 22.2315V25.1736C174.586 25.1736 173.383 26.3505 173.383 27.5273V34.3923C173.383 35.7654 174.586 36.9422 175.79 36.9422H186.823C188.227 36.9422 189.431 35.7654 189.431 34.5884V27.7235C189.431 26.3505 188.227 25.1736 187.024 25.1736ZM178.398 25.1736H184.416V22.2315C184.416 20.6623 183.012 19.6816 181.407 19.6816C179.802 19.6816 178.398 20.6623 178.398 22.2315V25.1736Z" fill="#282727"/>
</g>
<rect y="58" width="121" height="5.33824" fill="#439388"/>
</g>
<defs>
<clipPath id="clip0_2658_37209">
<rect width="332" height="63" fill="white"/>
</clipPath>
<clipPath id="clip1_2658_37209">
<rect width="35.2246" height="35.2246" fill="white" transform="translate(163.794 9.52271)"/>
</clipPath>
</defs>
</svg>
