<svg width="480" height="63" viewBox="0 0 480 63" fill="none" xmlns="http://www.w3.org/2000/svg">
<g clip-path="url(#clip0_4566_3009)">
<path d="M263.634 49.0448C276.057 49.0448 286.128 38.9734 286.128 26.5497C286.128 14.1261 276.057 4.05469 263.634 4.05469C251.21 4.05469 241.138 14.1261 241.138 26.5497C241.138 38.9734 251.21 49.0448 263.634 49.0448Z" fill="#FAC969"/>
<path fill-rule="evenodd" clip-rule="evenodd" d="M270.808 24.0442V20.2865C270.808 16.7792 267.22 14.0234 263.633 14.0234C260.046 14.0234 256.459 16.7792 256.459 20.2865V24.0442C254.921 24.0442 253.385 25.5474 253.385 27.0505V35.8187C253.385 37.5725 254.921 39.0755 256.459 39.0755H270.551C272.344 39.0755 273.882 37.5725 273.882 36.0692V27.3011C273.882 25.5474 272.344 24.0442 270.808 24.0442ZM259.79 24.0442H267.477V20.2865C267.477 18.2823 265.683 17.0297 263.633 17.0297C261.583 17.0297 259.79 18.2823 259.79 20.2865V24.0442Z" fill="#282727"/>
<path d="M202.445 58H0V63.3382H202.445V58Z" fill="#439388"/>
<path d="M6.68652 17.0262H10.8853V28.5593L18.3923 17.0262H22.273V35.0042H18.0742V23.4712L10.5672 35.0042H6.68652V17.0262ZM32.77 35.4113C30.3313 35.4113 28.4758 34.8799 27.2034 33.817C25.931 32.7542 25.2418 31.2277 25.1358 29.2377H29.3982C29.4406 29.6221 29.5255 29.9613 29.6527 30.2553C29.7799 30.5493 29.9708 30.7981 30.2253 31.0016C30.4797 31.2051 30.8084 31.3634 31.2113 31.4765C31.6355 31.5669 32.155 31.6122 32.77 31.6122C33.9999 31.6122 34.8694 31.4199 35.3783 31.0355C35.8873 30.6285 36.1417 30.1423 36.1417 29.5769C36.1417 28.8985 35.9297 28.3897 35.5056 28.0505C35.0814 27.7113 34.3286 27.5417 33.2471 27.5417H30.7024V24.2174H33.0245C33.8303 24.2174 34.4453 24.0365 34.8694 23.6747C35.2935 23.3129 35.5056 22.838 35.5056 22.25C35.5056 21.7299 35.2935 21.3002 34.8694 20.961C34.4665 20.5992 33.7667 20.4183 32.77 20.4183C31.7309 20.4183 30.9781 20.6105 30.5115 20.9949C30.0662 21.3568 29.8011 21.8995 29.7163 22.6231H25.4539C25.5599 20.6783 26.2279 19.1971 27.4579 18.1795C28.6878 17.1393 30.4585 16.6191 32.77 16.6191C33.9999 16.6191 35.0496 16.7435 35.9191 16.9923C36.8097 17.241 37.5413 17.6028 38.1139 18.0777C38.6865 18.53 39.1 19.0841 39.3545 19.7399C39.6301 20.373 39.768 21.0854 39.768 21.8769C39.768 22.7362 39.5559 23.5051 39.1318 24.1835C38.7289 24.8619 38.0821 25.3594 37.1914 25.676C38.4002 25.9926 39.2378 26.5127 39.7044 27.2364C40.1709 27.9374 40.4042 28.7741 40.4042 29.7465C40.4042 30.5606 40.2451 31.3182 39.927 32.0192C39.6301 32.6976 39.1636 33.2969 38.5274 33.817C37.9124 34.3145 37.1278 34.7103 36.1736 35.0042C35.2193 35.2756 34.0848 35.4113 32.77 35.4113ZM51.3783 17.0262H55.2908V19.672C55.7149 18.8579 56.3829 18.1456 57.2948 17.535C58.2066 16.9244 59.3624 16.6191 60.762 16.6191C63.0098 16.6191 64.7593 17.3654 66.0105 18.8579C67.2828 20.3278 67.919 22.544 67.919 25.5064V26.1848C67.919 29.2829 67.2722 31.6009 65.9787 33.1386C64.7063 34.6537 62.9674 35.4113 60.762 35.4113C59.6168 35.4113 58.5989 35.1512 57.7083 34.6311C56.8388 34.0884 56.1284 33.3874 55.5771 32.528V41.7884H51.3783V17.0262ZM59.7759 31.6122C60.8786 31.6122 61.8011 31.1712 62.5433 30.2892C63.2855 29.3847 63.6566 28.0166 63.6566 26.1848V25.5064C63.6566 23.8104 63.2961 22.544 62.5751 21.7073C61.8541 20.8479 60.921 20.4183 59.7759 20.4183C58.5671 20.4183 57.5599 20.7914 56.754 21.5377C55.9694 22.2613 55.5771 23.3581 55.5771 24.828V26.8632C55.5771 28.4688 55.9588 29.6674 56.7222 30.4589C57.5068 31.2277 58.5247 31.6122 59.7759 31.6122ZM78.575 35.4113C77.4299 35.4113 76.3378 35.2304 75.2987 34.8686C74.2808 34.4841 73.3902 33.9188 72.6267 33.1725C71.8633 32.4036 71.2589 31.4426 70.8136 30.2892C70.3683 29.1133 70.1456 27.7452 70.1456 26.1848V25.5064C70.1456 24.0139 70.3577 22.7136 70.7818 21.6055C71.2059 20.4974 71.7891 19.5816 72.5313 18.8579C73.2735 18.1117 74.1324 17.5576 75.1078 17.1958C76.0833 16.8114 77.133 16.6191 78.2569 16.6191C80.9077 16.6191 82.9223 17.3654 84.3007 18.8579C85.6791 20.3504 86.3683 22.5101 86.3683 25.3368V27.2364H74.4399C74.4611 28.0279 74.5883 28.7176 74.8216 29.3055C75.0548 29.8709 75.3623 30.3345 75.744 30.6963C76.1257 31.0581 76.5605 31.3295 77.0482 31.5104C77.5571 31.6687 78.0661 31.7478 78.575 31.7478C79.6565 31.7478 80.473 31.5782 81.0243 31.239C81.5757 30.8998 81.968 30.4023 82.2013 29.7465H86.0502C85.7109 31.6235 84.8732 33.0368 83.5372 33.9866C82.2013 34.9364 80.5472 35.4113 78.575 35.4113ZM78.416 20.2826C77.9283 20.2826 77.4405 20.3504 76.9528 20.4861C76.4862 20.6218 76.0727 20.8366 75.7122 21.1306C75.3517 21.4246 75.0548 21.8203 74.8216 22.3178C74.5883 22.8154 74.4611 23.4146 74.4399 24.1157H82.2967C82.2755 23.3694 82.1589 22.7475 81.9468 22.25C81.7559 21.7525 81.4803 21.3568 81.1198 21.0628C80.7805 20.7688 80.3776 20.5653 79.911 20.4522C79.4445 20.3391 78.9461 20.2826 78.416 20.2826ZM89.7082 17.0262H101.796V20.7575H93.907V35.0042H89.7082V17.0262ZM104.34 17.0262H108.539V28.5593L116.046 17.0262H119.927V35.0042H115.728V23.4712L108.221 35.0042H104.34V17.0262ZM131.378 35.4113C130.233 35.4113 129.141 35.2304 128.102 34.8686C127.084 34.4841 126.193 33.9075 125.43 33.1386C124.666 32.3697 124.062 31.4086 123.617 30.2553C123.171 29.102 122.949 27.7452 122.949 26.1848V25.5064C122.949 24.0365 123.171 22.7475 123.617 21.6394C124.062 20.5313 124.666 19.6042 125.43 18.8579C126.193 18.1117 127.084 17.5576 128.102 17.1958C129.141 16.8114 130.233 16.6191 131.378 16.6191C132.523 16.6191 133.605 16.8114 134.623 17.1958C135.641 17.5576 136.531 18.1117 137.295 18.8579C138.079 19.6042 138.694 20.5313 139.14 21.6394C139.585 22.7475 139.807 24.0365 139.807 25.5064V26.1848C139.807 27.7226 139.585 29.0681 139.14 30.2214C138.694 31.3747 138.079 32.3358 137.295 33.1047C136.531 33.8736 135.641 34.4502 134.623 34.8346C133.605 35.2191 132.523 35.4113 131.378 35.4113ZM131.378 31.6122C132.566 31.6122 133.552 31.1599 134.336 30.2553C135.142 29.3508 135.545 27.9939 135.545 26.1848V25.5064C135.545 23.8556 135.142 22.6005 134.336 21.7412C133.552 20.8592 132.566 20.4183 131.378 20.4183C130.169 20.4183 129.173 20.8592 128.388 21.7412C127.603 22.6005 127.211 23.8556 127.211 25.5064V26.1848C127.211 28.0166 127.603 29.3847 128.388 30.2892C129.173 31.1712 130.169 31.6122 131.378 31.6122ZM142.829 17.0262H147.028V23.98H154.217V17.0262H158.416V35.0042H154.217V27.7113H147.028V35.0042H142.829V17.0262ZM169.867 35.4113C168.722 35.4113 167.63 35.2304 166.591 34.8686C165.573 34.4841 164.682 33.9075 163.919 33.1386C163.155 32.3697 162.551 31.4086 162.106 30.2553C161.66 29.102 161.438 27.7452 161.438 26.1848V25.5064C161.438 24.0365 161.66 22.7475 162.106 21.6394C162.551 20.5313 163.155 19.6042 163.919 18.8579C164.682 18.1117 165.573 17.5576 166.591 17.1958C167.63 16.8114 168.722 16.6191 169.867 16.6191C171.012 16.6191 172.094 16.8114 173.112 17.1958C174.13 17.5576 175.02 18.1117 175.784 18.8579C176.568 19.6042 177.183 20.5313 177.629 21.6394C178.074 22.7475 178.297 24.0365 178.297 25.5064V26.1848C178.297 27.7226 178.074 29.0681 177.629 30.2214C177.183 31.3747 176.568 32.3358 175.784 33.1047C175.02 33.8736 174.13 34.4502 173.112 34.8346C172.094 35.2191 171.012 35.4113 169.867 35.4113ZM169.867 31.6122C171.055 31.6122 172.041 31.1599 172.825 30.2553C173.631 29.3508 174.034 27.9939 174.034 26.1848V25.5064C174.034 23.8556 173.631 22.6005 172.825 21.7412C172.041 20.8592 171.055 20.4183 169.867 20.4183C168.658 20.4183 167.662 20.8592 166.877 21.7412C166.092 22.6005 165.7 23.8556 165.7 25.5064V26.1848C165.7 28.0166 166.092 29.3847 166.877 30.2892C167.662 31.1712 168.658 31.6122 169.867 31.6122ZM181.318 17.0262H189.78C190.861 17.0262 191.784 17.1506 192.547 17.3993C193.332 17.6255 193.978 17.9534 194.487 18.383C194.996 18.8127 195.367 19.3215 195.601 19.9095C195.834 20.4974 195.951 21.1419 195.951 21.843C195.951 22.6797 195.707 23.4712 195.219 24.2174C194.752 24.9411 194.106 25.4273 193.279 25.676C194.318 25.9474 195.124 26.4675 195.696 27.2364C196.29 27.9826 196.587 28.8646 196.587 29.8822C196.587 31.4426 196.078 32.6863 195.06 33.6135C194.042 34.5407 192.494 35.0042 190.416 35.0042H181.318V17.0262ZM189.589 31.4086C190.543 31.4086 191.243 31.2616 191.688 30.9677C192.155 30.6511 192.388 30.1536 192.388 29.4751C192.388 28.7967 192.165 28.3105 191.72 28.0166C191.296 27.7 190.585 27.5417 189.589 27.5417H185.517V31.4086H189.589ZM189.175 24.2174C190.151 24.2174 190.819 24.0704 191.179 23.7764C191.561 23.4825 191.752 23.0302 191.752 22.4196C191.752 21.8316 191.561 21.3907 191.179 21.0967C190.797 20.7801 190.129 20.6218 189.175 20.6218H185.517V24.2174H189.175Z" fill="#2A434F"/>
<path d="M305.218 18.1981H309.417V29.7312L316.924 18.1981H320.804V36.1761H316.605V24.643L309.098 36.1761H305.218V18.1981ZM331.301 36.5832C328.863 36.5832 327.007 36.0517 325.735 34.9889C324.462 33.926 323.773 32.3996 323.667 30.4096H327.929C327.972 30.794 328.057 31.1332 328.184 31.4272C328.311 31.7212 328.502 31.9699 328.757 32.1735C329.011 32.377 329.34 32.5353 329.743 32.6484C330.167 32.7388 330.686 32.784 331.301 32.784C332.531 32.784 333.401 32.5918 333.91 32.2074C334.419 31.8003 334.673 31.3141 334.673 30.7488C334.673 30.0704 334.461 29.5616 334.037 29.2223C333.613 28.8831 332.86 28.7135 331.778 28.7135H329.234V25.3893H331.556C332.362 25.3893 332.977 25.2084 333.401 24.8466C333.825 24.4847 334.037 24.0098 334.037 23.4219C334.037 22.9018 333.825 22.4721 333.401 22.1329C332.998 21.7711 332.298 21.5902 331.301 21.5902C330.262 21.5902 329.509 21.7824 329.043 22.1668C328.597 22.5286 328.332 23.0714 328.248 23.795H323.985C324.091 21.8502 324.759 20.369 325.989 19.3514C327.219 18.3111 328.99 17.791 331.301 17.791C332.531 17.791 333.581 17.9154 334.45 18.1641C335.341 18.4129 336.073 18.7747 336.645 19.2496C337.218 19.7019 337.631 20.2559 337.886 20.9117C338.161 21.5449 338.299 22.2573 338.299 23.0487C338.299 23.9081 338.087 24.677 337.663 25.3554C337.26 26.0338 336.613 26.5313 335.723 26.8479C336.931 27.1645 337.769 27.6846 338.236 28.4082C338.702 29.1093 338.935 29.946 338.935 30.9184C338.935 31.7325 338.776 32.4901 338.458 33.1911C338.161 33.8695 337.695 34.4688 337.059 34.9889C336.444 35.4864 335.659 35.8821 334.705 36.1761C333.751 36.4475 332.616 36.5832 331.301 36.5832ZM350.228 18.1981H362.315V21.9294H354.426V36.1761H350.228V18.1981ZM372.176 36.5832C371.031 36.5832 369.939 36.4023 368.9 36.0404C367.882 35.656 366.991 35.0793 366.228 34.3105C365.464 33.5416 364.86 32.5805 364.414 31.4272C363.969 30.2739 363.746 28.9171 363.746 27.3567V26.6783C363.746 25.2084 363.969 23.9194 364.414 22.8113C364.86 21.7032 365.464 20.776 366.228 20.0298C366.991 19.2835 367.882 18.7295 368.9 18.3677C369.939 17.9832 371.031 17.791 372.176 17.791C373.321 17.791 374.402 17.9832 375.42 18.3677C376.438 18.7295 377.329 19.2835 378.092 20.0298C378.877 20.776 379.492 21.7032 379.937 22.8113C380.383 23.9194 380.605 25.2084 380.605 26.6783V27.3567C380.605 28.8944 380.383 30.24 379.937 31.3933C379.492 32.5466 378.877 33.5077 378.092 34.2766C377.329 35.0454 376.438 35.6221 375.42 36.0065C374.402 36.391 373.321 36.5832 372.176 36.5832ZM372.176 32.784C373.363 32.784 374.349 32.3318 375.134 31.4272C375.94 30.5226 376.343 29.1658 376.343 27.3567V26.6783C376.343 25.0275 375.94 23.7724 375.134 22.9131C374.349 22.0311 373.363 21.5902 372.176 21.5902C370.967 21.5902 369.97 22.0311 369.186 22.9131C368.401 23.7724 368.009 25.0275 368.009 26.6783V27.3567C368.009 29.1884 368.401 30.5566 369.186 31.4611C369.97 32.3431 370.967 32.784 372.176 32.784ZM383.627 18.1981H387.54V20.8439C387.964 20.0298 388.632 19.3175 389.544 18.7069C390.455 18.0963 391.611 17.791 393.011 17.791C395.259 17.791 397.008 18.5373 398.259 20.0298C399.532 21.4997 400.168 23.7159 400.168 26.6783V27.3567C400.168 30.4548 399.521 32.7727 398.228 34.3105C396.955 35.8256 395.216 36.5832 393.011 36.5832C391.866 36.5832 390.848 36.3231 389.957 35.803C389.088 35.2603 388.377 34.5592 387.826 33.6999V42.9603H383.627V18.1981ZM392.025 32.784C393.127 32.784 394.05 32.3431 394.792 31.4611C395.534 30.5566 395.905 29.1884 395.905 27.3567V26.6783C395.905 24.9822 395.545 23.7159 394.824 22.8791C394.103 22.0198 393.17 21.5902 392.025 21.5902C390.816 21.5902 389.809 21.9633 389.003 22.7095C388.218 23.4332 387.826 24.53 387.826 25.9999V28.0351C387.826 29.6407 388.208 30.8392 388.971 31.6307C389.756 32.3996 390.774 32.784 392.025 32.784ZM410.824 36.5832C409.679 36.5832 408.587 36.4023 407.548 36.0404C406.53 35.656 405.639 35.0793 404.876 34.3105C404.112 33.5416 403.508 32.5805 403.062 31.4272C402.617 30.2739 402.395 28.9171 402.395 27.3567V26.6783C402.395 25.2084 402.617 23.9194 403.062 22.8113C403.508 21.7032 404.112 20.776 404.876 20.0298C405.639 19.2835 406.53 18.7295 407.548 18.3677C408.587 17.9832 409.679 17.791 410.824 17.791C411.969 17.791 413.051 17.9832 414.068 18.3677C415.086 18.7295 415.977 19.2835 416.74 20.0298C417.525 20.776 418.14 21.7032 418.585 22.8113C419.031 23.9194 419.253 25.2084 419.253 26.6783V27.3567C419.253 28.8944 419.031 30.24 418.585 31.3933C418.14 32.5466 417.525 33.5077 416.74 34.2766C415.977 35.0454 415.086 35.6221 414.068 36.0065C413.051 36.391 411.969 36.5832 410.824 36.5832ZM410.824 32.784C412.011 32.784 412.998 32.3318 413.782 31.4272C414.588 30.5226 414.991 29.1658 414.991 27.3567V26.6783C414.991 25.0275 414.588 23.7724 413.782 22.9131C412.998 22.0311 412.011 21.5902 410.824 21.5902C409.615 21.5902 408.618 22.0311 407.834 22.9131C407.049 23.7724 406.657 25.0275 406.657 26.6783V27.3567C406.657 29.1884 407.049 30.5566 407.834 31.4611C408.618 32.3431 409.615 32.784 410.824 32.784ZM420.685 32.4448H422.593C422.805 32.1056 422.996 31.6194 423.166 30.9862C423.335 30.3304 423.463 29.6068 423.548 28.8153C423.654 28.0012 423.728 27.1532 423.77 26.2712C423.834 25.3667 423.866 24.4847 423.866 23.6254V18.1981H437.066V32.4448H439.134V40.4162H435.444V36.1761H424.375V40.4162H420.685V32.4448ZM432.868 32.4448V21.9294H427.715V24.3038C427.715 25.0953 427.693 25.8755 427.651 26.6444C427.609 27.4132 427.545 28.1595 427.46 28.8831C427.396 29.5842 427.301 30.24 427.174 30.8505C427.047 31.4611 426.888 31.9926 426.697 32.4448H432.868ZM449.472 36.5832C448.327 36.5832 447.235 36.4023 446.196 36.0404C445.178 35.656 444.287 35.0793 443.524 34.3105C442.76 33.5416 442.156 32.5805 441.71 31.4272C441.265 30.2739 441.043 28.9171 441.043 27.3567V26.6783C441.043 25.2084 441.265 23.9194 441.71 22.8113C442.156 21.7032 442.76 20.776 443.524 20.0298C444.287 19.2835 445.178 18.7295 446.196 18.3677C447.235 17.9832 448.327 17.791 449.472 17.791C450.617 17.791 451.699 17.9832 452.716 18.3677C453.734 18.7295 454.625 19.2835 455.388 20.0298C456.173 20.776 456.788 21.7032 457.233 22.8113C457.679 23.9194 457.901 25.2084 457.901 26.6783V27.3567C457.901 28.8944 457.679 30.24 457.233 31.3933C456.788 32.5466 456.173 33.5077 455.388 34.2766C454.625 35.0454 453.734 35.6221 452.716 36.0065C451.699 36.391 450.617 36.5832 449.472 36.5832ZM449.472 32.784C450.659 32.784 451.646 32.3318 452.43 31.4272C453.236 30.5226 453.639 29.1658 453.639 27.3567V26.6783C453.639 25.0275 453.236 23.7724 452.43 22.9131C451.646 22.0311 450.659 21.5902 449.472 21.5902C448.263 21.5902 447.266 22.0311 446.482 22.9131C445.697 23.7724 445.305 25.0275 445.305 26.6783V27.3567C445.305 29.1884 445.697 30.5566 446.482 31.4611C447.266 32.3431 448.263 32.784 449.472 32.784ZM460.923 18.1981H469.384C470.466 18.1981 471.388 18.3224 472.152 18.5712C472.936 18.7973 473.583 19.1252 474.092 19.5549C474.601 19.9846 474.972 20.4934 475.205 21.0813C475.439 21.6693 475.555 22.3138 475.555 23.0148C475.555 23.8515 475.311 24.643 474.824 25.3893C474.357 26.1129 473.71 26.5991 472.883 26.8479C473.922 27.1193 474.728 27.6394 475.301 28.4082C475.895 29.1545 476.192 30.0364 476.192 31.0541C476.192 32.6144 475.683 33.8582 474.665 34.7854C473.647 35.7125 472.099 36.1761 470.021 36.1761H460.923V18.1981ZM469.194 32.5805C470.148 32.5805 470.848 32.4335 471.293 32.1395C471.759 31.8229 471.993 31.3254 471.993 30.647C471.993 29.9686 471.77 29.4824 471.325 29.1884C470.901 28.8718 470.19 28.7135 469.194 28.7135H465.122V32.5805H469.194ZM468.78 25.3893C469.756 25.3893 470.423 25.2423 470.784 24.9483C471.166 24.6543 471.357 24.2021 471.357 23.5915C471.357 23.0035 471.166 22.5625 470.784 22.2686C470.402 21.952 469.734 21.7937 468.78 21.7937H465.122V25.3893H468.78Z" fill="#8F95A1"/>
</g>
<defs>
<clipPath id="clip0_4566_3009">
<rect width="480" height="63" fill="white"/>
</clipPath>
</defs>
</svg>
