<svg width="1264" height="1264" viewBox="0 0 1264 1264" fill="none" xmlns="http://www.w3.org/2000/svg">
<path d="M877.392 390.328C889.224 401.464 903.687 409.981 919.463 413.912C953.646 423.739 993.086 414.567 1019.38 390.983C1056.85 358.88 1064.74 299.264 1037.79 257.992C1037.13 257.335 1036.47 256.025 1035.81 255.37C923.407 136.137 759.728 68.0031 595.39 83.0711C659.81 129.585 674.271 227.2 625.628 290.093C716.342 286.817 805.085 322.848 870.82 385.086" fill="#C44D63"/>
<path d="M498.394 97.5988C251.484 158.411 77.6584 378.775 77 631.179C77.6584 826.04 181.032 1005.86 350.247 1104.6C333.128 1055.56 344.322 998.015 379.218 959.436C381.851 956.167 384.485 953.55 387.778 950.936C403.579 935.895 422.675 924.126 443.743 916.933C346.296 854.159 287.697 746.265 287.038 631.179C287.697 477.513 391.069 341.502 540.532 300.961C553.702 297.037 565.553 289.845 576.088 281.344C617.569 247.341 625.47 181.298 592.548 138.794C573.454 112.638 541.192 96.9449 508.928 97.5988C505.637 96.9449 502.344 96.9449 498.394 97.5988Z" fill="#FFBA0C"/>
<path d="M1096.15 329.952C1087.59 406.523 1012.61 467.389 935.007 458.881C933.035 458.881 931.063 458.224 929.09 458.224C960.001 510.583 976.442 570.794 976.442 631.662C976.442 821.465 821.882 974.618 631.81 974.618C594.978 974.618 558.155 968.734 523.297 956.955L515.395 954.335L507.505 952.369C480.539 947.787 451.603 954.326 429.899 970.687C425.295 973.96 420.692 977.241 416.745 981.823C396.358 1001.46 384.52 1028.94 384.52 1057.08C384.52 1066.9 385.829 1076.72 389.118 1086.54C396.353 1110.1 412.145 1131.05 433.191 1144.14C497.474 1175.3 571.857 1186.31 643.668 1183.16C715.479 1180.02 795.223 1155.6 860.165 1115.21C906.836 1085.38 946.283 1059.48 980.548 1017.22L981.511 1079.91C981.555 1149.81 1034.28 1182.55 1087.67 1182.3C1140.3 1182.05 1187 1145.68 1187 1082.76V645.394L1186.56 645.216C1186.68 640.699 1186.91 636.211 1186.91 631.667C1186.91 524.33 1155.34 419.618 1096.15 329.952Z" fill="#22786C"/>
</svg>
