<svg width="100" height="100" viewBox="0 0 100 100" fill="none" xmlns="http://www.w3.org/2000/svg">
<path d="M39.4784 79.2304L38.767 79.0524C36.3367 78.637 33.7285 79.2304 31.7724 80.714C31.3574 81.0107 30.9425 81.3074 30.5868 81.7228C28.7492 83.503 27.6823 85.9954 27.6823 88.5471C27.6823 89.4372 27.8008 90.3273 28.0972 91.2174C28.7492 93.3537 30.1719 95.2526 32.0688 96.4395C32.1873 96.4988 32.3059 96.6175 32.4837 96.6768C38.115 98.8131 44.0427 99.9406 50.0297 100C77.6527 100 100 77.6282 100 49.9751C100 40.2431 97.1547 30.7484 91.8198 22.6187C91.0492 29.5616 84.2917 35.0804 77.297 34.3089C77.1192 34.3089 76.9413 34.2496 76.7635 34.2496C79.5495 38.9969 81.0314 44.4563 81.0314 49.9751C81.0314 67.1841 67.1013 81.07 49.9703 81.07C46.6508 81.07 43.3314 80.536 40.1897 79.4678" fill="#429388"/>
<path d="M72.0806 28.0188C73.1476 29.0276 74.4517 29.799 75.8743 30.1551C78.9567 31.0452 82.5133 30.2144 84.8844 28.0781C88.2632 25.1704 88.9745 19.7703 86.5442 16.0318C86.4849 15.9724 86.4256 15.8538 86.3663 15.7944C76.23 4.99426 61.47 -1.17725 46.6508 0.187601C52.4599 4.40085 53.764 13.2427 49.3775 18.9395C57.5577 18.6428 65.5601 21.9066 71.4878 27.544" fill="#C44D63"/>
<path d="M37.9372 1.49324C15.7084 7.012 0.0592768 27.0101 0 49.9159C0.0592768 67.5997 9.36574 83.9186 24.5999 92.8791C23.0587 88.4285 24.0664 83.2065 27.208 79.7053C27.4452 79.4086 27.6823 79.1713 27.9786 78.9339C29.4013 77.569 31.1203 76.5009 33.0172 75.8481C24.2442 70.1513 18.9686 60.36 18.9093 49.9159C18.9686 35.9706 28.275 23.6276 41.7309 19.9484C42.9164 19.5924 43.9834 18.9396 44.9318 18.1682C48.6662 15.0824 49.3776 9.08895 46.4137 5.23175C44.6947 2.85809 41.7902 1.4339 38.8856 1.49324C38.5892 1.4339 38.2928 1.4339 37.9372 1.49324Z" fill="#FAC969"/>
</svg>
