<svg width="50" height="50" viewBox="0 0 50 50" fill="none" xmlns="http://www.w3.org/2000/svg">
 <g>
  <path d="M12.9788 46.2499C12.7105 45.4664 12.6062 44.636 12.6723 43.8104C12.7385 42.9848 12.9737 42.1817 13.3634 41.4511C13.753 40.7206 14.2887 40.0784 14.9371 39.5644C15.5854 39.0505 16.3325 38.6758 17.1318 38.4639C16.7481 38.2378 16.3794 38.0041 16.0108 37.7479C15.7775 37.582 15.5443 37.4087 15.3261 37.2278L15.2358 37.16L14.9199 36.9037C12.7419 35.062 11.1089 32.6579 10.1983 29.9522C9.28774 27.2466 9.13423 24.3427 9.75447 21.5558C10.3747 18.769 11.745 16.2055 13.7167 14.1437C15.6883 12.0818 18.186 10.6004 20.9386 9.86006C21.9266 9.60808 22.8032 9.03474 23.4308 8.22994C24.0585 7.42515 24.4018 6.43441 24.407 5.41309V5.18697C24.4076 4.48559 24.2478 3.79341 23.9398 3.16355C23.6318 2.5337 23.1838 1.98293 22.6302 1.55354C22.0767 1.12415 21.4322 0.82755 20.7465 0.686522C20.0607 0.545495 19.3517 0.563787 18.6741 0.739995C14.1986 1.91277 10.1357 4.3066 6.93738 7.65509C3.73911 11.0036 1.53092 15.1754 0.55854 19.7064C-0.413844 24.2374 -0.112297 28.9498 1.42964 33.3193C2.97157 37.6889 5.69342 41.5441 9.2923 44.456V44.456L9.45782 44.5841L9.69105 44.765L10.0296 45.0288L10.2478 45.1871L10.6465 45.4735L10.7895 45.5791C11.6142 46.1317 12.4709 46.6351 13.355 47.0865C13.2105 46.8166 13.0848 46.5371 12.9788 46.2499Z" fill="#FAC969"/>
  <path d="M47.6552 14.4026L47.4746 14.0408C47.437 13.9579 47.3994 13.875 47.3542 13.7921L47.3091 13.7016C46.8619 12.802 46.3594 11.931 45.8044 11.0938C45.7905 12.6838 45.1503 14.204 44.023 15.3234C42.8958 16.4428 41.3728 17.0708 39.7856 17.0708V17.0708C39.2907 17.0686 38.798 17.0054 38.3185 16.8824C38.643 17.4206 38.9369 17.9767 39.1988 18.5481V18.5481C39.2891 18.7516 39.3794 18.9551 39.4621 19.1661C40.406 21.5236 40.7623 24.0759 40.5002 26.6024C40.238 29.1288 39.3653 31.5531 37.9576 33.6657C36.5498 35.7782 34.6494 37.5152 32.4209 38.7264C30.1923 39.9377 27.7027 40.5866 25.1675 40.6171C23.4471 40.6505 21.7333 40.3957 20.0967 39.8634C19.4924 39.5829 18.8355 39.4343 18.1695 39.4273C17.5035 39.4203 16.8436 39.5551 16.2336 39.8228C15.6235 40.0905 15.0772 40.485 14.6308 40.9801C14.1843 41.4752 13.848 42.0597 13.644 42.6949C13.44 43.3301 13.373 44.0014 13.4474 44.6644C13.5219 45.3275 13.7361 45.9671 14.0759 46.541C14.4156 47.1149 14.8732 47.6099 15.4183 47.9933C15.9634 48.3767 16.5836 48.6397 17.2377 48.7649C21.8677 50.2777 26.8377 50.4032 31.5379 49.1262C36.238 47.8491 40.4637 45.225 43.6963 41.5759C46.9288 37.9268 49.0275 33.4116 49.7348 28.5845C50.4421 23.7574 49.7271 18.8284 47.6778 14.4026H47.6552Z" fill="#429388"/>
  <path d="M43.2153 7.82366C39.3715 3.71304 34.2552 1.02273 28.6949 0.188431V0.188431H28.4392L27.92 0.0829097L27.5288 0.0452235C27.3708 0.0452235 27.2053 0.0452235 27.0473 0H26.6185H26.1746H25.7081H24.9558C24.2034 0 23.4511 0.0376862 22.6987 0.105521C23.61 0.618388 24.3688 1.36462 24.8976 2.26784C25.4264 3.17106 25.7061 4.19882 25.7081 5.24592V5.48712C25.7101 6.94226 25.1741 8.34659 24.2034 9.42909C24.4592 9.42909 24.7225 9.42909 24.9558 9.42909H25.52C26.1935 9.45094 26.8646 9.51894 27.5288 9.6326V9.6326L27.9652 9.71551H28.0479L28.4316 9.79842H28.537C31.5107 10.4775 34.2189 12.019 36.3238 14.2303C37.1708 15.1459 38.3462 15.6868 39.5913 15.7342C40.8364 15.7815 42.0494 15.3314 42.9632 14.4828C43.8771 13.6342 44.4171 12.4567 44.4643 11.2093C44.5116 9.96188 44.0623 8.74674 43.2153 7.8312V7.82366Z" fill="#C44D63"/>
  <animateTransform attributeName="transform" type="rotate" repeatCount="indefinite" dur="1s" values="0 25 25;360 25 25" keyTimes="0;1"></animateTransform>
 </g>
</svg>
