<svg width="200" height="200" viewBox="0 0 200 200" fill="none" xmlns="http://www.w3.org/2000/svg">
<g clip-path="url(#clip0_4481_169061)">
<mask id="mask0_4481_169061" style="mask-type:luminance" maskUnits="userSpaceOnUse" x="0" y="0" width="200" height="200">
<path d="M4.08183 71.9743C6.28921 71.9743 8.07864 70.1849 8.07864 67.9775C8.07864 65.7701 6.28921 63.9807 4.08183 63.9807C1.87445 63.9807 0.085022 65.7701 0.085022 67.9775C0.085022 70.1849 1.87445 71.9743 4.08183 71.9743Z" fill="white"/>
<path d="M4.08183 95.9589C6.28921 95.9589 8.07864 94.1695 8.07864 91.9621C8.07864 89.7548 6.28921 87.9653 4.08183 87.9653C1.87445 87.9653 0.085022 89.7548 0.085022 91.9621C0.085022 94.1695 1.87445 95.9589 4.08183 95.9589Z" fill="white"/>
<path d="M4.08183 103.954C6.28921 103.954 8.07864 102.164 8.07864 99.957C8.07864 97.7496 6.28921 95.9602 4.08183 95.9602C1.87445 95.9602 0.085022 97.7496 0.085022 99.957C0.085022 102.164 1.87445 103.954 4.08183 103.954Z" fill="white"/>
<path d="M4.08183 111.949C6.28921 111.949 8.07864 110.159 8.07864 107.952C8.07864 105.745 6.28921 103.955 4.08183 103.955C1.87445 103.955 0.085022 105.745 0.085022 107.952C0.085022 110.159 1.87445 111.949 4.08183 111.949Z" fill="white"/>
<path d="M4.08183 119.944C6.28921 119.944 8.07864 118.154 8.07864 115.947C8.07864 113.74 6.28921 111.95 4.08183 111.95C1.87445 111.95 0.085022 113.74 0.085022 115.947C0.085022 118.154 1.87445 119.944 4.08183 119.944Z" fill="white"/>
<path d="M4.08183 127.927C6.28921 127.927 8.07864 126.138 8.07864 123.93C8.07864 121.723 6.28921 119.934 4.08183 119.934C1.87445 119.934 0.085022 121.723 0.085022 123.93C0.085022 126.138 1.87445 127.927 4.08183 127.927Z" fill="white"/>
<path d="M12.0767 71.9743C14.2841 71.9743 16.0735 70.1849 16.0735 67.9775C16.0735 65.7701 14.2841 63.9807 12.0767 63.9807C9.86933 63.9807 8.0799 65.7701 8.0799 67.9775C8.0799 70.1849 9.86933 71.9743 12.0767 71.9743Z" fill="white"/>
<path d="M12.0767 79.9692C14.2841 79.9692 16.0735 78.1798 16.0735 75.9724C16.0735 73.765 14.2841 71.9756 12.0767 71.9756C9.86933 71.9756 8.0799 73.765 8.0799 75.9724C8.0799 78.1798 9.86933 79.9692 12.0767 79.9692Z" fill="white"/>
<path d="M12.0767 95.9589C14.2841 95.9589 16.0735 94.1695 16.0735 91.9621C16.0735 89.7548 14.2841 87.9653 12.0767 87.9653C9.86933 87.9653 8.0799 89.7548 8.0799 91.9621C8.0799 94.1695 9.86933 95.9589 12.0767 95.9589Z" fill="white"/>
<path d="M12.0767 119.944C14.2841 119.944 16.0735 118.154 16.0735 115.947C16.0735 113.74 14.2841 111.95 12.0767 111.95C9.86933 111.95 8.0799 113.74 8.0799 115.947C8.0799 118.154 9.86933 119.944 12.0767 119.944Z" fill="white"/>
<path d="M12.0767 127.927C14.2841 127.927 16.0735 126.138 16.0735 123.93C16.0735 121.723 14.2841 119.934 12.0767 119.934C9.86933 119.934 8.0799 121.723 8.0799 123.93C8.0799 126.138 9.86933 127.927 12.0767 127.927Z" fill="white"/>
<path d="M12.0767 135.922C14.2841 135.922 16.0735 134.133 16.0735 131.925C16.0735 129.718 14.2841 127.928 12.0767 127.928C9.86933 127.928 8.0799 129.718 8.0799 131.925C8.0799 134.133 9.86933 135.922 12.0767 135.922Z" fill="white"/>
<path d="M20.0716 71.9743C22.279 71.9743 24.0684 70.1849 24.0684 67.9775C24.0684 65.7701 22.279 63.9807 20.0716 63.9807C17.8643 63.9807 16.0748 65.7701 16.0748 67.9775C16.0748 70.1849 17.8643 71.9743 20.0716 71.9743Z" fill="white"/>
<path d="M20.0716 79.9692C22.279 79.9692 24.0684 78.1798 24.0684 75.9724C24.0684 73.765 22.279 71.9756 20.0716 71.9756C17.8643 71.9756 16.0748 73.765 16.0748 75.9724C16.0748 78.1798 17.8643 79.9692 20.0716 79.9692Z" fill="white"/>
<path d="M20.0716 119.944C22.279 119.944 24.0684 118.154 24.0684 115.947C24.0684 113.74 22.279 111.95 20.0716 111.95C17.8643 111.95 16.0748 113.74 16.0748 115.947C16.0748 118.154 17.8643 119.944 20.0716 119.944Z" fill="white"/>
<path d="M28.0608 71.9743C30.2681 71.9743 32.0576 70.1849 32.0576 67.9775C32.0576 65.7701 30.2681 63.9807 28.0608 63.9807C25.8534 63.9807 24.064 65.7701 24.064 67.9775C24.064 70.1849 25.8534 71.9743 28.0608 71.9743Z" fill="white"/>
<path d="M28.0608 79.9692C30.2681 79.9692 32.0576 78.1798 32.0576 75.9724C32.0576 73.765 30.2681 71.9756 28.0608 71.9756C25.8534 71.9756 24.064 73.765 24.064 75.9724C24.064 78.1798 25.8534 79.9692 28.0608 79.9692Z" fill="white"/>
<path d="M28.0608 87.9641C30.2681 87.9641 32.0576 86.1746 32.0576 83.9673C32.0576 81.7599 30.2681 79.9705 28.0608 79.9705C25.8534 79.9705 24.064 81.7599 24.064 83.9673C24.064 86.1746 25.8534 87.9641 28.0608 87.9641Z" fill="white"/>
<path d="M28.0608 103.954C30.2681 103.954 32.0576 102.164 32.0576 99.957C32.0576 97.7496 30.2681 95.9602 28.0608 95.9602C25.8534 95.9602 24.064 97.7496 24.064 99.957C24.064 102.164 25.8534 103.954 28.0608 103.954Z" fill="white"/>
<path d="M28.0608 119.944C30.2681 119.944 32.0576 118.154 32.0576 115.947C32.0576 113.74 30.2681 111.95 28.0608 111.95C25.8534 111.95 24.064 113.74 24.064 115.947C24.064 118.154 25.8534 119.944 28.0608 119.944Z" fill="white"/>
<path d="M28.0608 127.927C30.2681 127.927 32.0576 126.138 32.0576 123.93C32.0576 121.723 30.2681 119.934 28.0608 119.934C25.8534 119.934 24.064 121.723 24.064 123.93C24.064 126.138 25.8534 127.927 28.0608 127.927Z" fill="white"/>
<path d="M36.0556 71.9743C38.263 71.9743 40.0525 70.1849 40.0525 67.9775C40.0525 65.7701 38.263 63.9807 36.0556 63.9807C33.8483 63.9807 32.0588 65.7701 32.0588 67.9775C32.0588 70.1849 33.8483 71.9743 36.0556 71.9743Z" fill="white"/>
<path d="M36.0556 119.944C38.263 119.944 40.0525 118.154 40.0525 115.947C40.0525 113.74 38.263 111.95 36.0556 111.95C33.8483 111.95 32.0588 113.74 32.0588 115.947C32.0588 118.154 33.8483 119.944 36.0556 119.944Z" fill="white"/>
<path d="M36.0556 127.927C38.263 127.927 40.0525 126.138 40.0525 123.93C40.0525 121.723 38.263 119.934 36.0556 119.934C33.8483 119.934 32.0588 121.723 32.0588 123.93C32.0588 126.138 33.8483 127.927 36.0556 127.927Z" fill="white"/>
<path d="M44.0506 79.9692C46.258 79.9692 48.0475 78.1798 48.0475 75.9724C48.0475 73.765 46.258 71.9756 44.0506 71.9756C41.8433 71.9756 40.0538 73.765 40.0538 75.9724C40.0538 78.1798 41.8433 79.9692 44.0506 79.9692Z" fill="white"/>
<path d="M44.0506 103.954C46.258 103.954 48.0475 102.164 48.0475 99.957C48.0475 97.7496 46.258 95.9602 44.0506 95.9602C41.8433 95.9602 40.0538 97.7496 40.0538 99.957C40.0538 102.164 41.8433 103.954 44.0506 103.954Z" fill="white"/>
<path d="M44.0506 111.949C46.258 111.949 48.0475 110.159 48.0475 107.952C48.0475 105.745 46.258 103.955 44.0506 103.955C41.8433 103.955 40.0538 105.745 40.0538 107.952C40.0538 110.159 41.8433 111.949 44.0506 111.949Z" fill="white"/>
<path d="M44.0506 127.927C46.258 127.927 48.0475 126.138 48.0475 123.93C48.0475 121.723 46.258 119.934 44.0506 119.934C41.8433 119.934 40.0538 121.723 40.0538 123.93C40.0538 126.138 41.8433 127.927 44.0506 127.927Z" fill="white"/>
<path d="M44.0506 135.922C46.258 135.922 48.0475 134.133 48.0475 131.925C48.0475 129.718 46.258 127.928 44.0506 127.928C41.8433 127.928 40.0538 129.718 40.0538 131.925C40.0538 134.133 41.8433 135.922 44.0506 135.922Z" fill="white"/>
<path d="M52.0455 71.9743C54.2529 71.9743 56.0423 70.1849 56.0423 67.9775C56.0423 65.7701 54.2529 63.9807 52.0455 63.9807C49.8381 63.9807 48.0487 65.7701 48.0487 67.9775C48.0487 70.1849 49.8381 71.9743 52.0455 71.9743Z" fill="white"/>
<path d="M52.0455 87.9641C54.2529 87.9641 56.0423 86.1746 56.0423 83.9673C56.0423 81.7599 54.2529 79.9705 52.0455 79.9705C49.8381 79.9705 48.0487 81.7599 48.0487 83.9673C48.0487 86.1746 49.8381 87.9641 52.0455 87.9641Z" fill="white"/>
<path d="M52.0455 103.954C54.2529 103.954 56.0423 102.164 56.0423 99.957C56.0423 97.7496 54.2529 95.9602 52.0455 95.9602C49.8381 95.9602 48.0487 97.7496 48.0487 99.957C48.0487 102.164 49.8381 103.954 52.0455 103.954Z" fill="white"/>
<path d="M52.0455 119.944C54.2529 119.944 56.0423 118.154 56.0423 115.947C56.0423 113.74 54.2529 111.95 52.0455 111.95C49.8381 111.95 48.0487 113.74 48.0487 115.947C48.0487 118.154 49.8381 119.944 52.0455 119.944Z" fill="white"/>
<path d="M52.0455 135.922C54.2529 135.922 56.0423 134.133 56.0423 131.925C56.0423 129.718 54.2529 127.928 52.0455 127.928C49.8381 127.928 48.0487 129.718 48.0487 131.925C48.0487 134.133 49.8381 135.922 52.0455 135.922Z" fill="white"/>
<path d="M60.0404 71.9743C62.2478 71.9743 64.0372 70.1849 64.0372 67.9775C64.0372 65.7701 62.2478 63.9807 60.0404 63.9807C57.833 63.9807 56.0436 65.7701 56.0436 67.9775C56.0436 70.1849 57.833 71.9743 60.0404 71.9743Z" fill="white"/>
<path d="M60.0404 79.9692C62.2478 79.9692 64.0372 78.1798 64.0372 75.9724C64.0372 73.765 62.2478 71.9756 60.0404 71.9756C57.833 71.9756 56.0436 73.765 56.0436 75.9724C56.0436 78.1798 57.833 79.9692 60.0404 79.9692Z" fill="white"/>
<path d="M60.0404 103.954C62.2478 103.954 64.0372 102.164 64.0372 99.957C64.0372 97.7496 62.2478 95.9602 60.0404 95.9602C57.833 95.9602 56.0436 97.7496 56.0436 99.957C56.0436 102.164 57.833 103.954 60.0404 103.954Z" fill="white"/>
<path d="M60.0404 111.949C62.2478 111.949 64.0372 110.159 64.0372 107.952C64.0372 105.745 62.2478 103.955 60.0404 103.955C57.833 103.955 56.0436 105.745 56.0436 107.952C56.0436 110.159 57.833 111.949 60.0404 111.949Z" fill="white"/>
<path d="M60.0404 119.944C62.2478 119.944 64.0372 118.154 64.0372 115.947C64.0372 113.74 62.2478 111.95 60.0404 111.95C57.833 111.95 56.0436 113.74 56.0436 115.947C56.0436 118.154 57.833 119.944 60.0404 119.944Z" fill="white"/>
<path d="M60.0404 135.922C62.2478 135.922 64.0372 134.133 64.0372 131.925C64.0372 129.718 62.2478 127.928 60.0404 127.928C57.833 127.928 56.0436 129.718 56.0436 131.925C56.0436 134.133 57.833 135.922 60.0404 135.922Z" fill="white"/>
<path d="M68.0295 16.0214C70.2369 16.0214 72.0263 14.232 72.0263 12.0246C72.0263 9.81726 70.2369 8.02783 68.0295 8.02783C65.8221 8.02783 64.0327 9.81726 64.0327 12.0246C64.0327 14.232 65.8221 16.0214 68.0295 16.0214Z" fill="white"/>
<path d="M68.0295 24.0163C70.2369 24.0163 72.0263 22.2269 72.0263 20.0195C72.0263 17.8121 70.2369 16.0227 68.0295 16.0227C65.8221 16.0227 64.0327 17.8121 64.0327 20.0195C64.0327 22.2269 65.8221 24.0163 68.0295 24.0163Z" fill="white"/>
<path d="M68.0295 40.0061C70.2369 40.0061 72.0263 38.2166 72.0263 36.0093C72.0263 33.8019 70.2369 32.0125 68.0295 32.0125C65.8221 32.0125 64.0327 33.8019 64.0327 36.0093C64.0327 38.2166 65.8221 40.0061 68.0295 40.0061Z" fill="white"/>
<path d="M68.0295 55.9846C70.2369 55.9846 72.0263 54.1952 72.0263 51.9878C72.0263 49.7804 70.2369 47.991 68.0295 47.991C65.8221 47.991 64.0327 49.7804 64.0327 51.9878C64.0327 54.1952 65.8221 55.9846 68.0295 55.9846Z" fill="white"/>
<path d="M68.0295 63.9795C70.2369 63.9795 72.0263 62.19 72.0263 59.9826C72.0263 57.7753 70.2369 55.9858 68.0295 55.9858C65.8221 55.9858 64.0327 57.7753 64.0327 59.9826C64.0327 62.19 65.8221 63.9795 68.0295 63.9795Z" fill="white"/>
<path d="M68.0295 95.9589C70.2369 95.9589 72.0263 94.1695 72.0263 91.9621C72.0263 89.7548 70.2369 87.9653 68.0295 87.9653C65.8221 87.9653 64.0327 89.7548 64.0327 91.9621C64.0327 94.1695 65.8221 95.9589 68.0295 95.9589Z" fill="white"/>
<path d="M68.0295 103.954C70.2369 103.954 72.0263 102.164 72.0263 99.957C72.0263 97.7496 70.2369 95.9602 68.0295 95.9602C65.8221 95.9602 64.0327 97.7496 64.0327 99.957C64.0327 102.164 65.8221 103.954 68.0295 103.954Z" fill="white"/>
<path d="M68.0295 119.944C70.2369 119.944 72.0263 118.154 72.0263 115.947C72.0263 113.74 70.2369 111.95 68.0295 111.95C65.8221 111.95 64.0327 113.74 64.0327 115.947C64.0327 118.154 65.8221 119.944 68.0295 119.944Z" fill="white"/>
<path d="M68.0295 135.922C70.2369 135.922 72.0263 134.133 72.0263 131.925C72.0263 129.718 70.2369 127.928 68.0295 127.928C65.8221 127.928 64.0327 129.718 64.0327 131.925C64.0327 134.133 65.8221 135.922 68.0295 135.922Z" fill="white"/>
<path d="M68.0295 151.912C70.2369 151.912 72.0263 150.122 72.0263 147.915C72.0263 145.708 70.2369 143.918 68.0295 143.918C65.8221 143.918 64.0327 145.708 64.0327 147.915C64.0327 150.122 65.8221 151.912 68.0295 151.912Z" fill="white"/>
<path d="M68.0295 167.902C70.2369 167.902 72.0263 166.112 72.0263 163.905C72.0263 161.697 70.2369 159.908 68.0295 159.908C65.8221 159.908 64.0327 161.697 64.0327 163.905C64.0327 166.112 65.8221 167.902 68.0295 167.902Z" fill="white"/>
<path d="M68.0295 175.896C70.2369 175.896 72.0263 174.107 72.0263 171.9C72.0263 169.692 70.2369 167.903 68.0295 167.903C65.8221 167.903 64.0327 169.692 64.0327 171.9C64.0327 174.107 65.8221 175.896 68.0295 175.896Z" fill="white"/>
<path d="M68.0295 183.892C70.2369 183.892 72.0263 182.102 72.0263 179.895C72.0263 177.687 70.2369 175.898 68.0295 175.898C65.8221 175.898 64.0327 177.687 64.0327 179.895C64.0327 182.102 65.8221 183.892 68.0295 183.892Z" fill="white"/>
<path d="M68.0295 191.886C70.2369 191.886 72.0263 190.097 72.0263 187.89C72.0263 185.682 70.2369 183.893 68.0295 183.893C65.8221 183.893 64.0327 185.682 64.0327 187.89C64.0327 190.097 65.8221 191.886 68.0295 191.886Z" fill="white"/>
<path d="M68.0295 199.881C70.2369 199.881 72.0263 198.092 72.0263 195.885C72.0263 193.677 70.2369 191.888 68.0295 191.888C65.8221 191.888 64.0327 193.677 64.0327 195.885C64.0327 198.092 65.8221 199.881 68.0295 199.881Z" fill="white"/>
<path d="M76.0244 40.0061C78.2318 40.0061 80.0212 38.2166 80.0212 36.0093C80.0212 33.8019 78.2318 32.0125 76.0244 32.0125C73.817 32.0125 72.0276 33.8019 72.0276 36.0093C72.0276 38.2166 73.817 40.0061 76.0244 40.0061Z" fill="white"/>
<path d="M76.0244 47.9895C78.2318 47.9895 80.0212 46.2 80.0212 43.9927C80.0212 41.7853 78.2318 39.9958 76.0244 39.9958C73.817 39.9958 72.0276 41.7853 72.0276 43.9927C72.0276 46.2 73.817 47.9895 76.0244 47.9895Z" fill="white"/>
<path d="M76.0244 135.922C78.2318 135.922 80.0212 134.133 80.0212 131.925C80.0212 129.718 78.2318 127.928 76.0244 127.928C73.817 127.928 72.0276 129.718 72.0276 131.925C72.0276 134.133 73.817 135.922 76.0244 135.922Z" fill="white"/>
<path d="M76.0244 143.917C78.2318 143.917 80.0212 142.128 80.0212 139.92C80.0212 137.713 78.2318 135.923 76.0244 135.923C73.817 135.923 72.0276 137.713 72.0276 139.92C72.0276 142.128 73.817 143.917 76.0244 143.917Z" fill="white"/>
<path d="M76.0244 151.912C78.2318 151.912 80.0212 150.122 80.0212 147.915C80.0212 145.708 78.2318 143.918 76.0244 143.918C73.817 143.918 72.0276 145.708 72.0276 147.915C72.0276 150.122 73.817 151.912 76.0244 151.912Z" fill="white"/>
<path d="M76.0244 159.907C78.2318 159.907 80.0212 158.117 80.0212 155.91C80.0212 153.703 78.2318 151.913 76.0244 151.913C73.817 151.913 72.0276 153.703 72.0276 155.91C72.0276 158.117 73.817 159.907 76.0244 159.907Z" fill="white"/>
<path d="M76.0244 199.881C78.2318 199.881 80.0212 198.092 80.0212 195.885C80.0212 193.677 78.2318 191.888 76.0244 191.888C73.817 191.888 72.0276 193.677 72.0276 195.885C72.0276 198.092 73.817 199.881 76.0244 199.881Z" fill="white"/>
<path d="M84.0194 16.0214C86.2268 16.0214 88.0162 14.232 88.0162 12.0246C88.0162 9.81726 86.2268 8.02783 84.0194 8.02783C81.812 8.02783 80.0226 9.81726 80.0226 12.0246C80.0226 14.232 81.812 16.0214 84.0194 16.0214Z" fill="white"/>
<path d="M84.0194 24.0163C86.2268 24.0163 88.0162 22.2269 88.0162 20.0195C88.0162 17.8121 86.2268 16.0227 84.0194 16.0227C81.812 16.0227 80.0226 17.8121 80.0226 20.0195C80.0226 22.2269 81.812 24.0163 84.0194 24.0163Z" fill="white"/>
<path d="M84.0194 55.9846C86.2268 55.9846 88.0162 54.1952 88.0162 51.9878C88.0162 49.7804 86.2268 47.991 84.0194 47.991C81.812 47.991 80.0226 49.7804 80.0226 51.9878C80.0226 54.1952 81.812 55.9846 84.0194 55.9846Z" fill="white"/>
<path d="M84.0194 71.9743C86.2268 71.9743 88.0162 70.1849 88.0162 67.9775C88.0162 65.7701 86.2268 63.9807 84.0194 63.9807C81.812 63.9807 80.0226 65.7701 80.0226 67.9775C80.0226 70.1849 81.812 71.9743 84.0194 71.9743Z" fill="white"/>
<path d="M84.0194 143.917C86.2268 143.917 88.0162 142.128 88.0162 139.92C88.0162 137.713 86.2268 135.923 84.0194 135.923C81.812 135.923 80.0226 137.713 80.0226 139.92C80.0226 142.128 81.812 143.917 84.0194 143.917Z" fill="white"/>
<path d="M84.0194 167.902C86.2268 167.902 88.0162 166.112 88.0162 163.905C88.0162 161.697 86.2268 159.908 84.0194 159.908C81.812 159.908 80.0226 161.697 80.0226 163.905C80.0226 166.112 81.812 167.902 84.0194 167.902Z" fill="white"/>
<path d="M84.0194 183.892C86.2268 183.892 88.0162 182.102 88.0162 179.895C88.0162 177.687 86.2268 175.898 84.0194 175.898C81.812 175.898 80.0226 177.687 80.0226 179.895C80.0226 182.102 81.812 183.892 84.0194 183.892Z" fill="white"/>
<path d="M84.0194 191.886C86.2268 191.886 88.0162 190.097 88.0162 187.89C88.0162 185.682 86.2268 183.893 84.0194 183.893C81.812 183.893 80.0226 185.682 80.0226 187.89C80.0226 190.097 81.812 191.886 84.0194 191.886Z" fill="white"/>
<path d="M84.0194 199.881C86.2268 199.881 88.0162 198.092 88.0162 195.885C88.0162 193.677 86.2268 191.888 84.0194 191.888C81.812 191.888 80.0226 193.677 80.0226 195.885C80.0226 198.092 81.812 199.881 84.0194 199.881Z" fill="white"/>
<path d="M92.0143 16.0214C94.2216 16.0214 96.0111 14.232 96.0111 12.0246C96.0111 9.81726 94.2216 8.02783 92.0143 8.02783C89.8069 8.02783 88.0175 9.81726 88.0175 12.0246C88.0175 14.232 89.8069 16.0214 92.0143 16.0214Z" fill="white"/>
<path d="M92.0143 24.0163C94.2216 24.0163 96.0111 22.2269 96.0111 20.0195C96.0111 17.8121 94.2216 16.0227 92.0143 16.0227C89.8069 16.0227 88.0175 17.8121 88.0175 20.0195C88.0175 22.2269 89.8069 24.0163 92.0143 24.0163Z" fill="white"/>
<path d="M92.0143 40.0061C94.2216 40.0061 96.0111 38.2166 96.0111 36.0093C96.0111 33.8019 94.2216 32.0125 92.0143 32.0125C89.8069 32.0125 88.0175 33.8019 88.0175 36.0093C88.0175 38.2166 89.8069 40.0061 92.0143 40.0061Z" fill="white"/>
<path d="M92.0143 47.9895C94.2216 47.9895 96.0111 46.2 96.0111 43.9927C96.0111 41.7853 94.2216 39.9958 92.0143 39.9958C89.8069 39.9958 88.0175 41.7853 88.0175 43.9927C88.0175 46.2 89.8069 47.9895 92.0143 47.9895Z" fill="white"/>
<path d="M92.0143 71.9743C94.2216 71.9743 96.0111 70.1849 96.0111 67.9775C96.0111 65.7701 94.2216 63.9807 92.0143 63.9807C89.8069 63.9807 88.0175 65.7701 88.0175 67.9775C88.0175 70.1849 89.8069 71.9743 92.0143 71.9743Z" fill="white"/>
<path d="M92.0143 135.922C94.2216 135.922 96.0111 134.133 96.0111 131.925C96.0111 129.718 94.2216 127.928 92.0143 127.928C89.8069 127.928 88.0175 129.718 88.0175 131.925C88.0175 134.133 89.8069 135.922 92.0143 135.922Z" fill="white"/>
<path d="M92.0143 143.917C94.2216 143.917 96.0111 142.128 96.0111 139.92C96.0111 137.713 94.2216 135.923 92.0143 135.923C89.8069 135.923 88.0175 137.713 88.0175 139.92C88.0175 142.128 89.8069 143.917 92.0143 143.917Z" fill="white"/>
<path d="M92.0143 151.912C94.2216 151.912 96.0111 150.122 96.0111 147.915C96.0111 145.708 94.2216 143.918 92.0143 143.918C89.8069 143.918 88.0175 145.708 88.0175 147.915C88.0175 150.122 89.8069 151.912 92.0143 151.912Z" fill="white"/>
<path d="M92.0143 191.886C94.2216 191.886 96.0111 190.097 96.0111 187.89C96.0111 185.682 94.2216 183.893 92.0143 183.893C89.8069 183.893 88.0175 185.682 88.0175 187.89C88.0175 190.097 89.8069 191.886 92.0143 191.886Z" fill="white"/>
<path d="M100.009 16.0214C102.217 16.0214 104.006 14.232 104.006 12.0246C104.006 9.81726 102.217 8.02783 100.009 8.02783C97.8018 8.02783 96.0123 9.81726 96.0123 12.0246C96.0123 14.232 97.8018 16.0214 100.009 16.0214Z" fill="white"/>
<path d="M100.009 32.0112C102.217 32.0112 104.006 30.2218 104.006 28.0144C104.006 25.807 102.217 24.0176 100.009 24.0176C97.8018 24.0176 96.0123 25.807 96.0123 28.0144C96.0123 30.2218 97.8018 32.0112 100.009 32.0112Z" fill="white"/>
<path d="M100.009 40.0061C102.217 40.0061 104.006 38.2166 104.006 36.0093C104.006 33.8019 102.217 32.0125 100.009 32.0125C97.8018 32.0125 96.0123 33.8019 96.0123 36.0093C96.0123 38.2166 97.8018 40.0061 100.009 40.0061Z" fill="white"/>
<path d="M100.009 55.9846C102.217 55.9846 104.006 54.1952 104.006 51.9878C104.006 49.7804 102.217 47.991 100.009 47.991C97.8018 47.991 96.0123 49.7804 96.0123 51.9878C96.0123 54.1952 97.8018 55.9846 100.009 55.9846Z" fill="white"/>
<path d="M100.009 63.9795C102.217 63.9795 104.006 62.19 104.006 59.9826C104.006 57.7753 102.217 55.9858 100.009 55.9858C97.8018 55.9858 96.0123 57.7753 96.0123 59.9826C96.0123 62.19 97.8018 63.9795 100.009 63.9795Z" fill="white"/>
<path d="M100.009 143.917C102.217 143.917 104.006 142.128 104.006 139.92C104.006 137.713 102.217 135.923 100.009 135.923C97.8018 135.923 96.0123 137.713 96.0123 139.92C96.0123 142.128 97.8018 143.917 100.009 143.917Z" fill="white"/>
<path d="M100.009 151.912C102.217 151.912 104.006 150.122 104.006 147.915C104.006 145.708 102.217 143.918 100.009 143.918C97.8018 143.918 96.0123 145.708 96.0123 147.915C96.0123 150.122 97.8018 151.912 100.009 151.912Z" fill="white"/>
<path d="M100.009 159.907C102.217 159.907 104.006 158.117 104.006 155.91C104.006 153.703 102.217 151.913 100.009 151.913C97.8018 151.913 96.0123 153.703 96.0123 155.91C96.0123 158.117 97.8018 159.907 100.009 159.907Z" fill="white"/>
<path d="M100.009 175.896C102.217 175.896 104.006 174.107 104.006 171.9C104.006 169.692 102.217 167.903 100.009 167.903C97.8018 167.903 96.0123 169.692 96.0123 171.9C96.0123 174.107 97.8018 175.896 100.009 175.896Z" fill="white"/>
<path d="M100.009 191.886C102.217 191.886 104.006 190.097 104.006 187.89C104.006 185.682 102.217 183.893 100.009 183.893C97.8018 183.893 96.0123 185.682 96.0123 187.89C96.0123 190.097 97.8018 191.886 100.009 191.886Z" fill="white"/>
<path d="M100.009 199.881C102.217 199.881 104.006 198.092 104.006 195.885C104.006 193.677 102.217 191.888 100.009 191.888C97.8018 191.888 96.0123 193.677 96.0123 195.885C96.0123 198.092 97.8018 199.881 100.009 199.881Z" fill="white"/>
<path d="M107.998 16.0214C110.206 16.0214 111.995 14.232 111.995 12.0246C111.995 9.81726 110.206 8.02783 107.998 8.02783C105.791 8.02783 104.001 9.81726 104.001 12.0246C104.001 14.232 105.791 16.0214 107.998 16.0214Z" fill="white"/>
<path d="M107.998 40.0061C110.206 40.0061 111.995 38.2166 111.995 36.0093C111.995 33.8019 110.206 32.0125 107.998 32.0125C105.791 32.0125 104.001 33.8019 104.001 36.0093C104.001 38.2166 105.791 40.0061 107.998 40.0061Z" fill="white"/>
<path d="M107.998 47.9895C110.206 47.9895 111.995 46.2 111.995 43.9927C111.995 41.7853 110.206 39.9958 107.998 39.9958C105.791 39.9958 104.001 41.7853 104.001 43.9927C104.001 46.2 105.791 47.9895 107.998 47.9895Z" fill="white"/>
<path d="M107.998 63.9795C110.206 63.9795 111.995 62.19 111.995 59.9826C111.995 57.7753 110.206 55.9858 107.998 55.9858C105.791 55.9858 104.001 57.7753 104.001 59.9826C104.001 62.19 105.791 63.9795 107.998 63.9795Z" fill="white"/>
<path d="M107.998 71.9743C110.206 71.9743 111.995 70.1849 111.995 67.9775C111.995 65.7701 110.206 63.9807 107.998 63.9807C105.791 63.9807 104.001 65.7701 104.001 67.9775C104.001 70.1849 105.791 71.9743 107.998 71.9743Z" fill="white"/>
<path d="M107.998 135.922C110.206 135.922 111.995 134.133 111.995 131.925C111.995 129.718 110.206 127.928 107.998 127.928C105.791 127.928 104.001 129.718 104.001 131.925C104.001 134.133 105.791 135.922 107.998 135.922Z" fill="white"/>
<path d="M107.998 143.917C110.206 143.917 111.995 142.128 111.995 139.92C111.995 137.713 110.206 135.923 107.998 135.923C105.791 135.923 104.001 137.713 104.001 139.92C104.001 142.128 105.791 143.917 107.998 143.917Z" fill="white"/>
<path d="M107.998 151.912C110.206 151.912 111.995 150.122 111.995 147.915C111.995 145.708 110.206 143.918 107.998 143.918C105.791 143.918 104.001 145.708 104.001 147.915C104.001 150.122 105.791 151.912 107.998 151.912Z" fill="white"/>
<path d="M107.998 175.896C110.206 175.896 111.995 174.107 111.995 171.9C111.995 169.692 110.206 167.903 107.998 167.903C105.791 167.903 104.001 169.692 104.001 171.9C104.001 174.107 105.791 175.896 107.998 175.896Z" fill="white"/>
<path d="M107.998 199.881C110.206 199.881 111.995 198.092 111.995 195.885C111.995 193.677 110.206 191.888 107.998 191.888C105.791 191.888 104.001 193.677 104.001 195.885C104.001 198.092 105.791 199.881 107.998 199.881Z" fill="white"/>
<path d="M115.993 8.02658C118.201 8.02658 119.99 6.23714 119.99 4.02977C119.99 1.82239 118.201 0.032959 115.993 0.032959C113.786 0.032959 111.996 1.82239 111.996 4.02977C111.996 6.23714 113.786 8.02658 115.993 8.02658Z" fill="white"/>
<path d="M115.993 32.0112C118.201 32.0112 119.99 30.2218 119.99 28.0144C119.99 25.807 118.201 24.0176 115.993 24.0176C113.786 24.0176 111.996 25.807 111.996 28.0144C111.996 30.2218 113.786 32.0112 115.993 32.0112Z" fill="white"/>
<path d="M115.993 40.0061C118.201 40.0061 119.99 38.2166 119.99 36.0093C119.99 33.8019 118.201 32.0125 115.993 32.0125C113.786 32.0125 111.996 33.8019 111.996 36.0093C111.996 38.2166 113.786 40.0061 115.993 40.0061Z" fill="white"/>
<path d="M115.993 47.9895C118.201 47.9895 119.99 46.2 119.99 43.9927C119.99 41.7853 118.201 39.9958 115.993 39.9958C113.786 39.9958 111.996 41.7853 111.996 43.9927C111.996 46.2 113.786 47.9895 115.993 47.9895Z" fill="white"/>
<path d="M115.993 55.9846C118.201 55.9846 119.99 54.1952 119.99 51.9878C119.99 49.7804 118.201 47.991 115.993 47.991C113.786 47.991 111.996 49.7804 111.996 51.9878C111.996 54.1952 113.786 55.9846 115.993 55.9846Z" fill="white"/>
<path d="M115.993 63.9795C118.201 63.9795 119.99 62.19 119.99 59.9826C119.99 57.7753 118.201 55.9858 115.993 55.9858C113.786 55.9858 111.996 57.7753 111.996 59.9826C111.996 62.19 113.786 63.9795 115.993 63.9795Z" fill="white"/>
<path d="M115.993 71.9743C118.201 71.9743 119.99 70.1849 119.99 67.9775C119.99 65.7701 118.201 63.9807 115.993 63.9807C113.786 63.9807 111.996 65.7701 111.996 67.9775C111.996 70.1849 113.786 71.9743 115.993 71.9743Z" fill="white"/>
<path d="M115.993 143.917C118.201 143.917 119.99 142.128 119.99 139.92C119.99 137.713 118.201 135.923 115.993 135.923C113.786 135.923 111.996 137.713 111.996 139.92C111.996 142.128 113.786 143.917 115.993 143.917Z" fill="white"/>
<path d="M115.993 159.907C118.201 159.907 119.99 158.117 119.99 155.91C119.99 153.703 118.201 151.913 115.993 151.913C113.786 151.913 111.996 153.703 111.996 155.91C111.996 158.117 113.786 159.907 115.993 159.907Z" fill="white"/>
<path d="M115.993 183.892C118.201 183.892 119.99 182.102 119.99 179.895C119.99 177.687 118.201 175.898 115.993 175.898C113.786 175.898 111.996 177.687 111.996 179.895C111.996 182.102 113.786 183.892 115.993 183.892Z" fill="white"/>
<path d="M115.993 191.886C118.201 191.886 119.99 190.097 119.99 187.89C119.99 185.682 118.201 183.893 115.993 183.893C113.786 183.893 111.996 185.682 111.996 187.89C111.996 190.097 113.786 191.886 115.993 191.886Z" fill="white"/>
<path d="M115.993 199.881C118.201 199.881 119.99 198.092 119.99 195.885C119.99 193.677 118.201 191.888 115.993 191.888C113.786 191.888 111.996 193.677 111.996 195.885C111.996 198.092 113.786 199.881 115.993 199.881Z" fill="white"/>
<path d="M123.988 16.0214C126.196 16.0214 127.985 14.232 127.985 12.0246C127.985 9.81726 126.196 8.02783 123.988 8.02783C121.781 8.02783 119.991 9.81726 119.991 12.0246C119.991 14.232 121.781 16.0214 123.988 16.0214Z" fill="white"/>
<path d="M123.988 24.0163C126.196 24.0163 127.985 22.2269 127.985 20.0195C127.985 17.8121 126.196 16.0227 123.988 16.0227C121.781 16.0227 119.991 17.8121 119.991 20.0195C119.991 22.2269 121.781 24.0163 123.988 24.0163Z" fill="white"/>
<path d="M123.988 32.0112C126.196 32.0112 127.985 30.2218 127.985 28.0144C127.985 25.807 126.196 24.0176 123.988 24.0176C121.781 24.0176 119.991 25.807 119.991 28.0144C119.991 30.2218 121.781 32.0112 123.988 32.0112Z" fill="white"/>
<path d="M123.988 135.922C126.196 135.922 127.985 134.133 127.985 131.925C127.985 129.718 126.196 127.928 123.988 127.928C121.781 127.928 119.991 129.718 119.991 131.925C119.991 134.133 121.781 135.922 123.988 135.922Z" fill="white"/>
<path d="M123.988 167.902C126.196 167.902 127.985 166.112 127.985 163.905C127.985 161.697 126.196 159.908 123.988 159.908C121.781 159.908 119.991 161.697 119.991 163.905C119.991 166.112 121.781 167.902 123.988 167.902Z" fill="white"/>
<path d="M123.988 191.886C126.196 191.886 127.985 190.097 127.985 187.89C127.985 185.682 126.196 183.893 123.988 183.893C121.781 183.893 119.991 185.682 119.991 187.89C119.991 190.097 121.781 191.886 123.988 191.886Z" fill="white"/>
<path d="M131.983 8.02658C134.19 8.02658 135.98 6.23714 135.98 4.02977C135.98 1.82239 134.19 0.032959 131.983 0.032959C129.776 0.032959 127.986 1.82239 127.986 4.02977C127.986 6.23714 129.776 8.02658 131.983 8.02658Z" fill="white"/>
<path d="M131.983 24.0163C134.19 24.0163 135.98 22.2269 135.98 20.0195C135.98 17.8121 134.19 16.0227 131.983 16.0227C129.776 16.0227 127.986 17.8121 127.986 20.0195C127.986 22.2269 129.776 24.0163 131.983 24.0163Z" fill="white"/>
<path d="M131.983 32.0112C134.19 32.0112 135.98 30.2218 135.98 28.0144C135.98 25.807 134.19 24.0176 131.983 24.0176C129.776 24.0176 127.986 25.807 127.986 28.0144C127.986 30.2218 129.776 32.0112 131.983 32.0112Z" fill="white"/>
<path d="M131.983 40.0061C134.19 40.0061 135.98 38.2166 135.98 36.0093C135.98 33.8019 134.19 32.0125 131.983 32.0125C129.776 32.0125 127.986 33.8019 127.986 36.0093C127.986 38.2166 129.776 40.0061 131.983 40.0061Z" fill="white"/>
<path d="M131.983 47.9895C134.19 47.9895 135.98 46.2 135.98 43.9927C135.98 41.7853 134.19 39.9958 131.983 39.9958C129.776 39.9958 127.986 41.7853 127.986 43.9927C127.986 46.2 129.776 47.9895 131.983 47.9895Z" fill="white"/>
<path d="M131.983 55.9846C134.19 55.9846 135.98 54.1952 135.98 51.9878C135.98 49.7804 134.19 47.991 131.983 47.991C129.776 47.991 127.986 49.7804 127.986 51.9878C127.986 54.1952 129.776 55.9846 131.983 55.9846Z" fill="white"/>
<path d="M131.983 71.9743C134.19 71.9743 135.98 70.1849 135.98 67.9775C135.98 65.7701 134.19 63.9807 131.983 63.9807C129.776 63.9807 127.986 65.7701 127.986 67.9775C127.986 70.1849 129.776 71.9743 131.983 71.9743Z" fill="white"/>
<path d="M131.983 103.954C134.19 103.954 135.98 102.164 135.98 99.957C135.98 97.7496 134.19 95.9602 131.983 95.9602C129.776 95.9602 127.986 97.7496 127.986 99.957C127.986 102.164 129.776 103.954 131.983 103.954Z" fill="white"/>
<path d="M131.983 119.944C134.19 119.944 135.98 118.154 135.98 115.947C135.98 113.74 134.19 111.95 131.983 111.95C129.776 111.95 127.986 113.74 127.986 115.947C127.986 118.154 129.776 119.944 131.983 119.944Z" fill="white"/>
<path d="M131.983 135.922C134.19 135.922 135.98 134.133 135.98 131.925C135.98 129.718 134.19 127.928 131.983 127.928C129.776 127.928 127.986 129.718 127.986 131.925C127.986 134.133 129.776 135.922 131.983 135.922Z" fill="white"/>
<path d="M131.983 143.917C134.19 143.917 135.98 142.128 135.98 139.92C135.98 137.713 134.19 135.923 131.983 135.923C129.776 135.923 127.986 137.713 127.986 139.92C127.986 142.128 129.776 143.917 131.983 143.917Z" fill="white"/>
<path d="M131.983 151.912C134.19 151.912 135.98 150.122 135.98 147.915C135.98 145.708 134.19 143.918 131.983 143.918C129.776 143.918 127.986 145.708 127.986 147.915C127.986 150.122 129.776 151.912 131.983 151.912Z" fill="white"/>
<path d="M131.983 159.907C134.19 159.907 135.98 158.117 135.98 155.91C135.98 153.703 134.19 151.913 131.983 151.913C129.776 151.913 127.986 153.703 127.986 155.91C127.986 158.117 129.776 159.907 131.983 159.907Z" fill="white"/>
<path d="M131.983 167.902C134.19 167.902 135.98 166.112 135.98 163.905C135.98 161.697 134.19 159.908 131.983 159.908C129.776 159.908 127.986 161.697 127.986 163.905C127.986 166.112 129.776 167.902 131.983 167.902Z" fill="white"/>
<path d="M131.983 175.896C134.19 175.896 135.98 174.107 135.98 171.9C135.98 169.692 134.19 167.903 131.983 167.903C129.776 167.903 127.986 169.692 127.986 171.9C127.986 174.107 129.776 175.896 131.983 175.896Z" fill="white"/>
<path d="M139.972 71.9743C142.18 71.9743 143.969 70.1849 143.969 67.9775C143.969 65.7701 142.18 63.9807 139.972 63.9807C137.765 63.9807 135.975 65.7701 135.975 67.9775C135.975 70.1849 137.765 71.9743 139.972 71.9743Z" fill="white"/>
<path d="M139.972 79.9692C142.18 79.9692 143.969 78.1798 143.969 75.9724C143.969 73.765 142.18 71.9756 139.972 71.9756C137.765 71.9756 135.975 73.765 135.975 75.9724C135.975 78.1798 137.765 79.9692 139.972 79.9692Z" fill="white"/>
<path d="M139.972 95.9589C142.18 95.9589 143.969 94.1695 143.969 91.9621C143.969 89.7548 142.18 87.9653 139.972 87.9653C137.765 87.9653 135.975 89.7548 135.975 91.9621C135.975 94.1695 137.765 95.9589 139.972 95.9589Z" fill="white"/>
<path d="M139.972 111.949C142.18 111.949 143.969 110.159 143.969 107.952C143.969 105.745 142.18 103.955 139.972 103.955C137.765 103.955 135.975 105.745 135.975 107.952C135.975 110.159 137.765 111.949 139.972 111.949Z" fill="white"/>
<path d="M139.972 119.944C142.18 119.944 143.969 118.154 143.969 115.947C143.969 113.74 142.18 111.95 139.972 111.95C137.765 111.95 135.975 113.74 135.975 115.947C135.975 118.154 137.765 119.944 139.972 119.944Z" fill="white"/>
<path d="M139.972 127.927C142.18 127.927 143.969 126.138 143.969 123.93C143.969 121.723 142.18 119.934 139.972 119.934C137.765 119.934 135.975 121.723 135.975 123.93C135.975 126.138 137.765 127.927 139.972 127.927Z" fill="white"/>
<path d="M139.972 135.922C142.18 135.922 143.969 134.133 143.969 131.925C143.969 129.718 142.18 127.928 139.972 127.928C137.765 127.928 135.975 129.718 135.975 131.925C135.975 134.133 137.765 135.922 139.972 135.922Z" fill="white"/>
<path d="M139.972 167.902C142.18 167.902 143.969 166.112 143.969 163.905C143.969 161.697 142.18 159.908 139.972 159.908C137.765 159.908 135.975 161.697 135.975 163.905C135.975 166.112 137.765 167.902 139.972 167.902Z" fill="white"/>
<path d="M139.972 175.896C142.18 175.896 143.969 174.107 143.969 171.9C143.969 169.692 142.18 167.903 139.972 167.903C137.765 167.903 135.975 169.692 135.975 171.9C135.975 174.107 137.765 175.896 139.972 175.896Z" fill="white"/>
<path d="M139.972 191.886C142.18 191.886 143.969 190.097 143.969 187.89C143.969 185.682 142.18 183.893 139.972 183.893C137.765 183.893 135.975 185.682 135.975 187.89C135.975 190.097 137.765 191.886 139.972 191.886Z" fill="white"/>
<path d="M139.972 199.881C142.18 199.881 143.969 198.092 143.969 195.885C143.969 193.677 142.18 191.888 139.972 191.888C137.765 191.888 135.975 193.677 135.975 195.885C135.975 198.092 137.765 199.881 139.972 199.881Z" fill="white"/>
<path d="M147.967 71.9743C150.175 71.9743 151.964 70.1849 151.964 67.9775C151.964 65.7701 150.175 63.9807 147.967 63.9807C145.76 63.9807 143.97 65.7701 143.97 67.9775C143.97 70.1849 145.76 71.9743 147.967 71.9743Z" fill="white"/>
<path d="M147.967 79.9692C150.175 79.9692 151.964 78.1798 151.964 75.9724C151.964 73.765 150.175 71.9756 147.967 71.9756C145.76 71.9756 143.97 73.765 143.97 75.9724C143.97 78.1798 145.76 79.9692 147.967 79.9692Z" fill="white"/>
<path d="M147.967 119.944C150.175 119.944 151.964 118.154 151.964 115.947C151.964 113.74 150.175 111.95 147.967 111.95C145.76 111.95 143.97 113.74 143.97 115.947C143.97 118.154 145.76 119.944 147.967 119.944Z" fill="white"/>
<path d="M147.967 127.927C150.175 127.927 151.964 126.138 151.964 123.93C151.964 121.723 150.175 119.934 147.967 119.934C145.76 119.934 143.97 121.723 143.97 123.93C143.97 126.138 145.76 127.927 147.967 127.927Z" fill="white"/>
<path d="M147.967 135.922C150.175 135.922 151.964 134.133 151.964 131.925C151.964 129.718 150.175 127.928 147.967 127.928C145.76 127.928 143.97 129.718 143.97 131.925C143.97 134.133 145.76 135.922 147.967 135.922Z" fill="white"/>
<path d="M147.967 151.912C150.175 151.912 151.964 150.122 151.964 147.915C151.964 145.708 150.175 143.918 147.967 143.918C145.76 143.918 143.97 145.708 143.97 147.915C143.97 150.122 145.76 151.912 147.967 151.912Z" fill="white"/>
<path d="M147.967 167.902C150.175 167.902 151.964 166.112 151.964 163.905C151.964 161.697 150.175 159.908 147.967 159.908C145.76 159.908 143.97 161.697 143.97 163.905C143.97 166.112 145.76 167.902 147.967 167.902Z" fill="white"/>
<path d="M147.967 175.896C150.175 175.896 151.964 174.107 151.964 171.9C151.964 169.692 150.175 167.903 147.967 167.903C145.76 167.903 143.97 169.692 143.97 171.9C143.97 174.107 145.76 175.896 147.967 175.896Z" fill="white"/>
<path d="M147.967 191.886C150.175 191.886 151.964 190.097 151.964 187.89C151.964 185.682 150.175 183.893 147.967 183.893C145.76 183.893 143.97 185.682 143.97 187.89C143.97 190.097 145.76 191.886 147.967 191.886Z" fill="white"/>
<path d="M147.967 199.881C150.175 199.881 151.964 198.092 151.964 195.885C151.964 193.677 150.175 191.888 147.967 191.888C145.76 191.888 143.97 193.677 143.97 195.885C143.97 198.092 145.76 199.881 147.967 199.881Z" fill="white"/>
<path d="M155.962 79.9692C158.169 79.9692 159.959 78.1798 159.959 75.9724C159.959 73.765 158.169 71.9756 155.962 71.9756C153.755 71.9756 151.965 73.765 151.965 75.9724C151.965 78.1798 153.755 79.9692 155.962 79.9692Z" fill="white"/>
<path d="M155.962 87.9641C158.169 87.9641 159.959 86.1746 159.959 83.9673C159.959 81.7599 158.169 79.9705 155.962 79.9705C153.755 79.9705 151.965 81.7599 151.965 83.9673C151.965 86.1746 153.755 87.9641 155.962 87.9641Z" fill="white"/>
<path d="M155.962 103.954C158.169 103.954 159.959 102.164 159.959 99.957C159.959 97.7496 158.169 95.9602 155.962 95.9602C153.755 95.9602 151.965 97.7496 151.965 99.957C151.965 102.164 153.755 103.954 155.962 103.954Z" fill="white"/>
<path d="M155.962 111.949C158.169 111.949 159.959 110.159 159.959 107.952C159.959 105.745 158.169 103.955 155.962 103.955C153.755 103.955 151.965 105.745 151.965 107.952C151.965 110.159 153.755 111.949 155.962 111.949Z" fill="white"/>
<path d="M155.962 135.922C158.169 135.922 159.959 134.133 159.959 131.925C159.959 129.718 158.169 127.928 155.962 127.928C153.755 127.928 151.965 129.718 151.965 131.925C151.965 134.133 153.755 135.922 155.962 135.922Z" fill="white"/>
<path d="M155.962 167.902C158.169 167.902 159.959 166.112 159.959 163.905C159.959 161.697 158.169 159.908 155.962 159.908C153.755 159.908 151.965 161.697 151.965 163.905C151.965 166.112 153.755 167.902 155.962 167.902Z" fill="white"/>
<path d="M155.962 175.896C158.169 175.896 159.959 174.107 159.959 171.9C159.959 169.692 158.169 167.903 155.962 167.903C153.755 167.903 151.965 169.692 151.965 171.9C151.965 174.107 153.755 175.896 155.962 175.896Z" fill="white"/>
<path d="M155.962 199.881C158.169 199.881 159.959 198.092 159.959 195.885C159.959 193.677 158.169 191.888 155.962 191.888C153.755 191.888 151.965 193.677 151.965 195.885C151.965 198.092 153.755 199.881 155.962 199.881Z" fill="white"/>
<path d="M163.957 71.9743C166.164 71.9743 167.954 70.1849 167.954 67.9775C167.954 65.7701 166.164 63.9807 163.957 63.9807C161.75 63.9807 159.96 65.7701 159.96 67.9775C159.96 70.1849 161.75 71.9743 163.957 71.9743Z" fill="white"/>
<path d="M163.957 79.9692C166.164 79.9692 167.954 78.1798 167.954 75.9724C167.954 73.765 166.164 71.9756 163.957 71.9756C161.75 71.9756 159.96 73.765 159.96 75.9724C159.96 78.1798 161.75 79.9692 163.957 79.9692Z" fill="white"/>
<path d="M163.957 103.954C166.164 103.954 167.954 102.164 167.954 99.957C167.954 97.7496 166.164 95.9602 163.957 95.9602C161.75 95.9602 159.96 97.7496 159.96 99.957C159.96 102.164 161.75 103.954 163.957 103.954Z" fill="white"/>
<path d="M163.957 111.949C166.164 111.949 167.954 110.159 167.954 107.952C167.954 105.745 166.164 103.955 163.957 103.955C161.75 103.955 159.96 105.745 159.96 107.952C159.96 110.159 161.75 111.949 163.957 111.949Z" fill="white"/>
<path d="M163.957 135.922C166.164 135.922 167.954 134.133 167.954 131.925C167.954 129.718 166.164 127.928 163.957 127.928C161.75 127.928 159.96 129.718 159.96 131.925C159.96 134.133 161.75 135.922 163.957 135.922Z" fill="white"/>
<path d="M163.957 143.917C166.164 143.917 167.954 142.128 167.954 139.92C167.954 137.713 166.164 135.923 163.957 135.923C161.75 135.923 159.96 137.713 159.96 139.92C159.96 142.128 161.75 143.917 163.957 143.917Z" fill="white"/>
<path d="M163.957 151.912C166.164 151.912 167.954 150.122 167.954 147.915C167.954 145.708 166.164 143.918 163.957 143.918C161.75 143.918 159.96 145.708 159.96 147.915C159.96 150.122 161.75 151.912 163.957 151.912Z" fill="white"/>
<path d="M163.957 159.907C166.164 159.907 167.954 158.117 167.954 155.91C167.954 153.703 166.164 151.913 163.957 151.913C161.75 151.913 159.96 153.703 159.96 155.91C159.96 158.117 161.75 159.907 163.957 159.907Z" fill="white"/>
<path d="M163.957 167.902C166.164 167.902 167.954 166.112 167.954 163.905C167.954 161.697 166.164 159.908 163.957 159.908C161.75 159.908 159.96 161.697 159.96 163.905C159.96 166.112 161.75 167.902 163.957 167.902Z" fill="white"/>
<path d="M163.957 175.896C166.164 175.896 167.954 174.107 167.954 171.9C167.954 169.692 166.164 167.903 163.957 167.903C161.75 167.903 159.96 169.692 159.96 171.9C159.96 174.107 161.75 175.896 163.957 175.896Z" fill="white"/>
<path d="M163.957 199.881C166.164 199.881 167.954 198.092 167.954 195.885C167.954 193.677 166.164 191.888 163.957 191.888C161.75 191.888 159.96 193.677 159.96 195.885C159.96 198.092 161.75 199.881 163.957 199.881Z" fill="white"/>
<path d="M171.952 79.9692C174.159 79.9692 175.949 78.1798 175.949 75.9724C175.949 73.765 174.159 71.9756 171.952 71.9756C169.745 71.9756 167.955 73.765 167.955 75.9724C167.955 78.1798 169.745 79.9692 171.952 79.9692Z" fill="white"/>
<path d="M171.952 87.9641C174.159 87.9641 175.949 86.1746 175.949 83.9673C175.949 81.7599 174.159 79.9705 171.952 79.9705C169.745 79.9705 167.955 81.7599 167.955 83.9673C167.955 86.1746 169.745 87.9641 171.952 87.9641Z" fill="white"/>
<path d="M171.952 95.9589C174.159 95.9589 175.949 94.1695 175.949 91.9621C175.949 89.7548 174.159 87.9653 171.952 87.9653C169.745 87.9653 167.955 89.7548 167.955 91.9621C167.955 94.1695 169.745 95.9589 171.952 95.9589Z" fill="white"/>
<path d="M171.952 111.949C174.159 111.949 175.949 110.159 175.949 107.952C175.949 105.745 174.159 103.955 171.952 103.955C169.745 103.955 167.955 105.745 167.955 107.952C167.955 110.159 169.745 111.949 171.952 111.949Z" fill="white"/>
<path d="M171.952 119.944C174.159 119.944 175.949 118.154 175.949 115.947C175.949 113.74 174.159 111.95 171.952 111.95C169.745 111.95 167.955 113.74 167.955 115.947C167.955 118.154 169.745 119.944 171.952 119.944Z" fill="white"/>
<path d="M171.952 135.922C174.159 135.922 175.949 134.133 175.949 131.925C175.949 129.718 174.159 127.928 171.952 127.928C169.745 127.928 167.955 129.718 167.955 131.925C167.955 134.133 169.745 135.922 171.952 135.922Z" fill="white"/>
<path d="M171.952 159.907C174.159 159.907 175.949 158.117 175.949 155.91C175.949 153.703 174.159 151.913 171.952 151.913C169.745 151.913 167.955 153.703 167.955 155.91C167.955 158.117 169.745 159.907 171.952 159.907Z" fill="white"/>
<path d="M171.952 167.902C174.159 167.902 175.949 166.112 175.949 163.905C175.949 161.697 174.159 159.908 171.952 159.908C169.745 159.908 167.955 161.697 167.955 163.905C167.955 166.112 169.745 167.902 171.952 167.902Z" fill="white"/>
<path d="M171.952 175.896C174.159 175.896 175.949 174.107 175.949 171.9C175.949 169.692 174.159 167.903 171.952 167.903C169.745 167.903 167.955 169.692 167.955 171.9C167.955 174.107 169.745 175.896 171.952 175.896Z" fill="white"/>
<path d="M171.952 183.892C174.159 183.892 175.949 182.102 175.949 179.895C175.949 177.687 174.159 175.898 171.952 175.898C169.745 175.898 167.955 177.687 167.955 179.895C167.955 182.102 169.745 183.892 171.952 183.892Z" fill="white"/>
<path d="M179.941 71.9743C182.148 71.9743 183.938 70.1849 183.938 67.9775C183.938 65.7701 182.148 63.9807 179.941 63.9807C177.734 63.9807 175.944 65.7701 175.944 67.9775C175.944 70.1849 177.734 71.9743 179.941 71.9743Z" fill="white"/>
<path d="M179.941 87.9641C182.148 87.9641 183.938 86.1746 183.938 83.9673C183.938 81.7599 182.148 79.9705 179.941 79.9705C177.734 79.9705 175.944 81.7599 175.944 83.9673C175.944 86.1746 177.734 87.9641 179.941 87.9641Z" fill="white"/>
<path d="M179.941 127.927C182.148 127.927 183.938 126.138 183.938 123.93C183.938 121.723 182.148 119.934 179.941 119.934C177.734 119.934 175.944 121.723 175.944 123.93C175.944 126.138 177.734 127.927 179.941 127.927Z" fill="white"/>
<path d="M179.941 167.902C182.148 167.902 183.938 166.112 183.938 163.905C183.938 161.697 182.148 159.908 179.941 159.908C177.734 159.908 175.944 161.697 175.944 163.905C175.944 166.112 177.734 167.902 179.941 167.902Z" fill="white"/>
<path d="M179.941 199.881C182.148 199.881 183.938 198.092 183.938 195.885C183.938 193.677 182.148 191.888 179.941 191.888C177.734 191.888 175.944 193.677 175.944 195.885C175.944 198.092 177.734 199.881 179.941 199.881Z" fill="white"/>
<path d="M187.936 71.9743C190.143 71.9743 191.933 70.1849 191.933 67.9775C191.933 65.7701 190.143 63.9807 187.936 63.9807C185.729 63.9807 183.939 65.7701 183.939 67.9775C183.939 70.1849 185.729 71.9743 187.936 71.9743Z" fill="white"/>
<path d="M187.936 95.9589C190.143 95.9589 191.933 94.1695 191.933 91.9621C191.933 89.7548 190.143 87.9653 187.936 87.9653C185.729 87.9653 183.939 89.7548 183.939 91.9621C183.939 94.1695 185.729 95.9589 187.936 95.9589Z" fill="white"/>
<path d="M187.936 127.927C190.143 127.927 191.933 126.138 191.933 123.93C191.933 121.723 190.143 119.934 187.936 119.934C185.729 119.934 183.939 121.723 183.939 123.93C183.939 126.138 185.729 127.927 187.936 127.927Z" fill="white"/>
<path d="M187.936 135.922C190.143 135.922 191.933 134.133 191.933 131.925C191.933 129.718 190.143 127.928 187.936 127.928C185.729 127.928 183.939 129.718 183.939 131.925C183.939 134.133 185.729 135.922 187.936 135.922Z" fill="white"/>
<path d="M187.936 167.902C190.143 167.902 191.933 166.112 191.933 163.905C191.933 161.697 190.143 159.908 187.936 159.908C185.729 159.908 183.939 161.697 183.939 163.905C183.939 166.112 185.729 167.902 187.936 167.902Z" fill="white"/>
<path d="M187.936 175.896C190.143 175.896 191.933 174.107 191.933 171.9C191.933 169.692 190.143 167.903 187.936 167.903C185.729 167.903 183.939 169.692 183.939 171.9C183.939 174.107 185.729 175.896 187.936 175.896Z" fill="white"/>
<path d="M187.936 191.886C190.143 191.886 191.933 190.097 191.933 187.89C191.933 185.682 190.143 183.893 187.936 183.893C185.729 183.893 183.939 185.682 183.939 187.89C183.939 190.097 185.729 191.886 187.936 191.886Z" fill="white"/>
<path d="M195.931 79.9692C198.138 79.9692 199.928 78.1798 199.928 75.9724C199.928 73.765 198.138 71.9756 195.931 71.9756C193.723 71.9756 191.934 73.765 191.934 75.9724C191.934 78.1798 193.723 79.9692 195.931 79.9692Z" fill="white"/>
<path d="M195.931 87.9641C198.138 87.9641 199.928 86.1746 199.928 83.9673C199.928 81.7599 198.138 79.9705 195.931 79.9705C193.723 79.9705 191.934 81.7599 191.934 83.9673C191.934 86.1746 193.723 87.9641 195.931 87.9641Z" fill="white"/>
<path d="M195.931 95.9589C198.138 95.9589 199.928 94.1695 199.928 91.9621C199.928 89.7548 198.138 87.9653 195.931 87.9653C193.723 87.9653 191.934 89.7548 191.934 91.9621C191.934 94.1695 193.723 95.9589 195.931 95.9589Z" fill="white"/>
<path d="M195.931 103.954C198.138 103.954 199.928 102.164 199.928 99.957C199.928 97.7496 198.138 95.9602 195.931 95.9602C193.723 95.9602 191.934 97.7496 191.934 99.957C191.934 102.164 193.723 103.954 195.931 103.954Z" fill="white"/>
<path d="M195.931 135.922C198.138 135.922 199.928 134.133 199.928 131.925C199.928 129.718 198.138 127.928 195.931 127.928C193.723 127.928 191.934 129.718 191.934 131.925C191.934 134.133 193.723 135.922 195.931 135.922Z" fill="white"/>
<path d="M195.931 143.917C198.138 143.917 199.928 142.128 199.928 139.92C199.928 137.713 198.138 135.923 195.931 135.923C193.723 135.923 191.934 137.713 191.934 139.92C191.934 142.128 193.723 143.917 195.931 143.917Z" fill="white"/>
<path d="M195.931 151.912C198.138 151.912 199.928 150.122 199.928 147.915C199.928 145.708 198.138 143.918 195.931 143.918C193.723 143.918 191.934 145.708 191.934 147.915C191.934 150.122 193.723 151.912 195.931 151.912Z" fill="white"/>
<path d="M195.931 159.907C198.138 159.907 199.928 158.117 199.928 155.91C199.928 153.703 198.138 151.913 195.931 151.913C193.723 151.913 191.934 153.703 191.934 155.91C191.934 158.117 193.723 159.907 195.931 159.907Z" fill="white"/>
<path d="M195.931 191.886C198.138 191.886 199.928 190.097 199.928 187.89C199.928 185.682 198.138 183.893 195.931 183.893C193.723 183.893 191.934 185.682 191.934 187.89C191.934 190.097 193.723 191.886 195.931 191.886Z" fill="white"/>
<path d="M195.931 199.881C198.138 199.881 199.928 198.092 199.928 195.885C199.928 193.677 198.138 191.888 195.931 191.888C193.723 191.888 191.934 193.677 191.934 195.885C191.934 198.092 193.723 199.881 195.931 199.881Z" fill="white"/>
</mask>
<g mask="url(#mask0_4481_169061)">
<path d="M199.926 0.032959H0.0852051V199.873H199.926V0.032959Z" fill="#2F4D5A"/>
</g>
<mask id="mask1_4481_169061" style="mask-type:luminance" maskUnits="userSpaceOnUse" x="0" y="0" width="57" height="56">
<path fill-rule="evenodd" clip-rule="evenodd" d="M28.0576 0.032959C20.6379 0.0343179 13.5226 2.98291 8.27677 8.23014C3.03098 13.4774 0.0843426 20.5935 0.0850221 28.0132C0.0857015 35.4329 3.03364 42.5484 8.28039 47.7947C13.5271 53.041 20.643 55.9883 28.0627 55.9883C35.4824 55.9883 42.5982 53.041 47.845 47.7947C53.0917 42.5484 56.0397 35.4329 56.0403 28.0132C56.041 20.5935 53.0944 13.4774 47.8486 8.23014C42.6028 2.98291 35.4875 0.0343179 28.0678 0.032959H28.0576ZM28.0576 8.02658C33.3572 8.02793 38.4393 10.1343 42.186 13.8825C45.9327 17.6306 48.0372 22.7135 48.0365 28.0132C48.0358 33.3128 45.93 38.3952 42.1824 42.1424C38.4347 45.8896 33.3521 47.9947 28.0524 47.9947C22.7528 47.9947 17.6701 45.8896 13.9225 42.1424C10.1748 38.3952 8.06907 33.3128 8.06839 28.0132C8.06771 22.7135 10.1722 17.6306 13.9189 13.8825C17.6656 10.1343 22.7477 8.02793 28.0473 8.02658H28.0576Z" fill="white"/>
</mask>
<g mask="url(#mask1_4481_169061)">
<path d="M56.0348 0.032959H0.0794678V55.9883H56.0348V0.032959Z" fill="#2F4D5A"/>
</g>
<mask id="mask2_4481_169061" style="mask-type:luminance" maskUnits="userSpaceOnUse" x="16" y="16" width="25" height="25">
<path d="M28.0596 40.0033C34.6818 40.0033 40.0501 34.635 40.0501 28.0129C40.0501 21.3908 34.6818 16.0225 28.0596 16.0225C21.4375 16.0225 16.0692 21.3908 16.0692 28.0129C16.0692 34.635 21.4375 40.0033 28.0596 40.0033Z" fill="white"/>
</mask>
<g mask="url(#mask2_4481_169061)">
<path d="M40.0502 16.0227H16.0693V40.0036H40.0502V16.0227Z" fill="#2F4D5A"/>
</g>
<mask id="mask3_4481_169061" style="mask-type:luminance" maskUnits="userSpaceOnUse" x="143" y="0" width="57" height="56">
<path fill-rule="evenodd" clip-rule="evenodd" d="M199.929 28.0055C199.928 20.5858 196.979 13.4705 191.732 8.2247C186.485 2.9789 179.369 0.0322796 171.949 0.0329591C164.529 0.0336386 157.414 2.98157 152.167 8.22833C146.921 13.4751 143.974 20.5909 143.974 28.0106C143.974 35.4303 146.921 42.5461 152.167 47.7929C157.414 53.0397 164.529 55.9876 171.949 55.9883C179.369 55.989 186.485 53.0423 191.732 47.7965C196.979 42.5507 199.928 35.4354 199.929 28.0157V28.0055ZM191.936 28.0055C191.934 33.3051 189.828 38.3872 186.08 42.1339C182.332 45.8806 177.249 47.9851 171.949 47.9844C166.649 47.9837 161.567 45.878 157.82 42.1303C154.073 38.3827 151.967 33.3 151.967 28.0004C151.967 22.7007 154.073 17.6181 157.82 13.8704C161.567 10.1228 166.649 8.017 171.949 8.01632C177.249 8.01564 182.332 10.1201 186.08 13.8668C189.828 17.6135 191.934 22.6956 191.936 27.9952V28.0055Z" fill="white"/>
</mask>
<g mask="url(#mask3_4481_169061)">
<path d="M199.926 0.032959H143.971V55.9883H199.926V0.032959Z" fill="#2F4D5A"/>
</g>
<mask id="mask4_4481_169061" style="mask-type:luminance" maskUnits="userSpaceOnUse" x="159" y="16" width="25" height="25">
<path d="M159.952 28.0129C159.952 34.635 165.321 40.0033 171.943 40.0033C178.565 40.0033 183.933 34.635 183.933 28.0129C183.933 21.3908 178.565 16.0225 171.943 16.0225C165.321 16.0225 159.952 21.3908 159.952 28.0129Z" fill="white"/>
</mask>
<g mask="url(#mask4_4481_169061)">
<path d="M183.935 16.0227H159.955V40.0036H183.935V16.0227Z" fill="#2F4D5A"/>
</g>
<mask id="mask5_4481_169061" style="mask-type:luminance" maskUnits="userSpaceOnUse" x="0" y="143" width="57" height="57">
<path fill-rule="evenodd" clip-rule="evenodd" d="M0.085022 171.875C0.0863809 179.295 3.03497 186.41 8.2822 191.656C13.5294 196.902 20.6456 199.848 28.0652 199.848C35.4849 199.847 42.6005 196.899 47.8468 191.652C53.093 186.406 56.0403 179.29 56.0403 171.87C56.0403 164.45 53.093 157.334 47.8468 152.088C42.6005 146.841 35.4849 143.893 28.0652 143.892C20.6456 143.892 13.5294 146.838 8.2822 152.084C3.03497 157.33 0.0863809 164.445 0.085022 171.865V171.875ZM8.07864 171.875C8.08 166.575 10.1864 161.493 13.9346 157.747C17.6827 154 22.7656 151.896 28.0652 151.896C33.3649 151.897 38.4473 154.003 42.1944 157.75C45.9416 161.498 48.0467 166.581 48.0467 171.88C48.0467 177.18 45.9416 182.263 42.1944 186.01C38.4473 189.758 33.3649 191.864 28.0652 191.864C22.7656 191.865 17.6827 189.761 13.9346 186.014C10.1864 182.267 8.08 177.185 8.07864 171.885V171.875Z" fill="white"/>
</mask>
<g mask="url(#mask5_4481_169061)">
<path d="M56.0405 143.901H0.0852051V199.856H56.0405V143.901Z" fill="#2F4D5A"/>
</g>
<mask id="mask6_4481_169061" style="mask-type:luminance" maskUnits="userSpaceOnUse" x="16" y="159" width="25" height="25">
<path d="M40.0501 171.891C40.0501 165.269 34.6818 159.9 28.0596 159.9C21.4375 159.9 16.0692 165.269 16.0692 171.891C16.0692 178.513 21.4375 183.881 28.0596 183.881C34.6818 183.881 40.0501 178.513 40.0501 171.891Z" fill="white"/>
</mask>
<g mask="url(#mask6_4481_169061)">
<path d="M40.0502 159.896H16.0693V183.877H40.0502V159.896Z" fill="#2F4D5A"/>
</g>
<rect x="86.7065" y="88.3215" width="25.3491" height="25.3491" fill="white"/>
<path d="M100.004 80.0103C88.9854 80.0103 80.0576 88.9381 80.0576 99.9571C80.0576 110.976 88.9854 119.904 100.004 119.904C111.023 119.904 119.951 110.976 119.951 99.9571C119.951 88.9381 111.023 80.0103 100.004 80.0103ZM109.801 93.6754L106.527 109.102C106.286 110.196 105.635 110.461 104.726 109.947L99.739 106.271L97.3341 108.587C97.0687 108.853 96.8435 109.078 96.3287 109.078L96.6826 104.003L105.924 95.654C106.326 95.3001 105.836 95.099 105.305 95.4529L93.8837 102.643L88.9613 101.107C87.8916 100.769 87.8674 100.037 89.1865 99.5227L108.417 92.107C109.31 91.7853 110.09 92.3242 109.801 93.6754V93.6754Z" fill="#27A7E7"/>
</g>
<defs>
<clipPath id="clip0_4481_169061">
<rect width="200" height="200" fill="white"/>
</clipPath>
</defs>
</svg>
