<svg xmlns="http://www.w3.org/2000/svg" width="640" height="420" fill="none"><g clip-path="url(#a)"><path fill="#fff" d="M640 0H0v420h640z"/><path fill="#e6ebeb" d="M0 321s28.357-23.526 68.037-23.525c50.668 0 70.543 20.926 115.963 19.525 48.289-1.49 58.01-29.374 106.265-31.702C337.028 283.041 345.207 301.504 392 303c43.417 1.388 84.072-17.702 127.511-17.702 60.429 0 120.489 12.177 120.489 12.177V471H0z" opacity=".8"/><path fill="#c2cdcd" d="M0 356c54-18 104-6 151 19 74 39 141 11 191-17 79-43 162.698 40.075 298-26v88H0z" opacity=".5"/><path fill="#f3f5f5" d="M299.32 406.322c47.496 0 86-38.504 86-86s-38.504-86-86-86-86 38.504-86 86 38.504 86 86 86" opacity=".16"/><path fill="#f0f3f3" d="M299.32 380.322c33.137 0 60-26.863 60-60s-26.863-60-60-60-60 26.863-60 60 26.863 60 60 60" opacity=".27"/><path fill="#fff" d="M299.32 352.322c17.673 0 32-14.327 32-32s-14.327-32-32-32-32 14.327-32 32 14.327 32 32 32" opacity=".88"/><g fill="#a3b4b4" opacity=".36"><path d="m48 354 9-24 9 24zM75 369l10-27 10 27zM112 350l9-25 9 25zM532 327.455l10-30 10 30zM569 366l12-35 12 35zM602 356l9-26 9 26z"/></g></g><defs><clipPath id="a"><path fill="#fff" d="M0 0h640v420H0z"/></clipPath></defs></svg>
