<svg xmlns="http://www.w3.org/2000/svg" width="640" height="420" fill="none"><g clip-path="url(#a)"><path fill="#fff" d="M640 0H0v420h640z"/><path fill="url(#b)" d="M-.001 295.831c76.678 0 134 17.169 194 48.169 62 32 125 36 179 5 66-38 130.999-47 266.999-16v86.999h-640z"/><path fill="#c2cdcd" d="M0 374c65-24 121-7 175 15 73 31 131 7 185-20 64-32 105.704 26.824 280-19v70H0z" opacity=".5"/><path stroke="#f3f5f5" stroke-linecap="round" stroke-width="12" d="M-11.14 275.388c81.161 0 127.996 35.11 180.996 54.11 43 16 88 13 130-12 39-23 85-41 149-27 65 14 103 43 222 43"/><path fill="#bfcbcb" d="m44.645 315.41-5.45 2.509 5.018 10.9 5.45-2.508-2.509-5.451zm138.073-46.051v6zm403.559 33.199a6 6 0 0 0 3.911-7.53l-16.282-51.487a6 6 0 1 0-11.441 3.619l14.473 45.766-45.766 14.473a6 6 0 1 0 3.618 11.441zM47.154 320.86l2.51 5.451c10.425-4.8 21.046-10.461 31.732-16.156 10.74-5.724 21.575-11.498 32.665-16.679 22.199-10.372 44.913-18.117 68.657-18.117v-12c-26.316 0-50.907 8.579-73.736 19.245-11.424 5.337-22.535 11.261-33.23 16.961-10.75 5.729-21.055 11.218-31.107 15.845zm332.84 16.81v6c33.643 0 51.459-18.469 66.719-35.215 15.497-17.007 27.815-31.297 51.193-31.297v-12c-29.49 0-45.257 18.966-60.063 35.215-15.044 16.51-29.75 31.297-57.849 31.297zm117.912-66.512v6c34.509 0 61.339 13.338 83.796 25.004l2.766-5.325 2.766-5.324c-22.532-11.705-51.646-26.355-89.328-26.355zm-315.188-1.799v6c36.481 0 66.755 16.247 97.782 33.406 30.581 16.912 62.16 34.905 99.494 34.905v-12c-33.689 0-62.505-16.162-93.686-33.406-30.734-16.997-63.586-34.905-103.59-34.905z" opacity=".5"/></g><defs><linearGradient id="b" x1="-.001" x2="594.794" y1="275.847" y2="554.329" gradientUnits="userSpaceOnUse"><stop offset=".127" stop-color="#e0e6e6"/><stop offset="1" stop-color="#e6eaea" stop-opacity=".5"/></linearGradient><clipPath id="a"><path fill="#fff" d="M0 0h640v420H0z"/></clipPath></defs></svg>
