<svg xmlns="http://www.w3.org/2000/svg" width="640" height="420" fill="none"><g clip-path="url(#a)"><path fill="#fff" d="M640 0H0v420h640z"/><path fill="url(#b)" d="M0 283.154c82.084 0 104 27 170 34 68 8 89.252-11.22 150.306-6.876 49.404 3.515 77.67 21.876 134.67 6.876 62-17 80.59-50.353 185.024-50.353v159.353H0z"/><path stroke="#fff" stroke-linecap="round" stroke-opacity=".55" stroke-width="12" d="M-10 399.999c74-4 106-35 159-54 43-16 88-13 130 12 39 23 85 41 149 27 65-14 103-43 222-43"/><path fill="#506161" d="M311 298.354h18v64.305l-18 3.949z" opacity=".42"/><g fill="#a3b4b4" opacity=".3"><path d="M45.309 366.608c0 7.287-5.907 13.194-13.194 13.194s-13.194-5.907-13.194-13.194c0-7.286 5.907-13.194 13.194-13.194 7.286 0 13.194 5.908 13.194 13.194M585.755 305.733c0 7.287-5.907 13.194-13.194 13.194s-13.194-5.907-13.194-13.194 5.907-13.194 13.194-13.194 13.194 5.907 13.194 13.194M546.805 332.12c0 7.286-5.907 13.193-13.194 13.193s-13.194-5.907-13.194-13.193c0-7.287 5.907-13.194 13.194-13.194s13.194 5.907 13.194 13.194"/></g><path fill="url(#c)" d="M0 340c66-28 124-5 184 22 56 26 114 12 176-12 73-28 133 10 199 27 33 9 59-1 81-14v57H0z"/><path fill="#f8fafa" d="M253.32 241.285a6 6 0 0 1 6-6l114.234.001c1.351 0 2.663.456 3.723 1.294l33.319 26.363c3.095 2.449 3.023 7.169-.146 9.522l-33.216 24.669a6 6 0 0 1-3.578 1.183H259.32a6 6 0 0 1-6-6z" opacity=".78"/></g><defs><linearGradient id="b" x1="0" x2="640" y1="241.154" y2="474.64" gradientUnits="userSpaceOnUse"><stop offset=".127" stop-color="#e0e6e6"/><stop offset="1" stop-color="#e6eaea" stop-opacity=".5"/></linearGradient><linearGradient id="c" x1="0" x2="640" y1="280" y2="410" gradientUnits="userSpaceOnUse"><stop stop-color="#a8b8b8" stop-opacity=".44"/><stop offset="1" stop-color="#c4cece" stop-opacity=".56"/></linearGradient><clipPath id="a"><path fill="#fff" d="M0 0h640v420H0z"/></clipPath></defs></svg>
