<svg xmlns="http://www.w3.org/2000/svg" width="255" height="138" fill="none" preserveAspectRatio="xMinYMin meet"><rect width="32" height="32" x="2.857" y="2.857" fill="url(#a)" rx="16"/><g filter="url(#b)"><rect width="32" height="32" x="2.857" y="2.857" fill="#fff" fill-opacity=".01" rx="16" shape-rendering="crispEdges"/></g><path fill="#605904" d="M15.01 25.18v-3.392h2.128V18.06l-2.128 1.52v-3.824l2.496-1.776h3.856v7.808h1.648v3.392z"/><path fill="#738086" d="M48.657 12.357h2.48l4.46 8.3 4.46-8.3h2.4v14h-2.4v-9.8l-3.7 6.9h-1.6l-3.7-6.9v9.8h-2.4zm21.603 14.22q-1.1 0-2.06-.34a4.8 4.8 0 0 1-1.64-1.04 4.8 4.8 0 0 1-1.1-1.68q-.4-1.02-.4-2.36v-.4q0-1.26.4-2.22.4-.98 1.1-1.64a4.5 4.5 0 0 1 1.64-1.02 6.1 6.1 0 0 1 2.06-.34q1.1 0 2.04.34a4.612 4.612 0 0 1 2.76 2.66q.4.96.4 2.22v.4q0 1.34-.4 2.36a4.8 4.8 0 0 1-1.1 1.68q-.7.68-1.66 1.04a6 6 0 0 1-2.04.34m0-1.92q.58 0 1.1-.2.54-.2.94-.62.42-.42.66-1.08.26-.66.26-1.6v-.4q0-.86-.26-1.48a2.76 2.76 0 0 0-.66-1.02 2.6 2.6 0 0 0-.94-.6 3 3 0 0 0-1.1-.2 3.2 3.2 0 0 0-1.12.2q-.52.201-.94.6a3.1 3.1 0 0 0-.66 1.02q-.24.62-.24 1.48v.4q0 .94.24 1.6.26.66.66 1.08.42.42.94.62.54.2 1.12.2m11.792 1.92q-1.08 0-2-.32a4.4 4.4 0 0 1-1.58-1.02q-.66-.68-1.04-1.7t-.38-2.38v-.4q0-1.28.4-2.26.399-.98 1.08-1.64.7-.66 1.6-.98a5.5 5.5 0 0 1 1.92-.34q1.04 0 1.84.28a4 4 0 0 1 1.38.78q.58.48.92 1.14t.46 1.42h-2.24a2.5 2.5 0 0 0-.72-1.22q-.52-.48-1.64-.48-.56 0-1.06.2-.5.18-.88.58-.381.4-.6 1.04-.22.62-.22 1.48v.4q0 .94.22 1.62.219.66.6 1.08.38.42.88.62.5.18 1.06.18 1.86 0 2.36-1.7h2.24a4.7 4.7 0 0 1-.56 1.52q-.38.66-.98 1.14-.6.46-1.38.72-.78.24-1.68.24m6.694-10.82h2.2v4.3h1.2l3.72-4.3h2.48l-4.5 5.06 4.7 5.54h-2.68l-3.72-4.5h-1.2v4.5h-2.2zm11.601 0h5q2 0 2.9.82.9.8.9 2.06 0 .7-.42 1.36-.42.64-1.18.86.98.24 1.48.92.52.66.52 1.56 0 1.38-.92 2.2t-2.88.82h-5.4zm5.1 8.72q1.08 0 1.48-.34.42-.36.42-1 0-.639-.42-.96-.4-.34-1.48-.34h-2.9v2.64zm-.3-4.36q1 0 1.4-.32.4-.34.4-.92 0-.579-.4-.9-.4-.34-1.4-.34h-2.6v2.48zm9.706 6.46q-.86 0-1.54-.24a3.4 3.4 0 0 1-1.12-.7 3.1 3.1 0 0 1-.7-1.06q-.24-.6-.24-1.32 0-1.58.94-2.34.94-.78 2.76-.78h3.3v-.58q0-1.2-.54-1.64-.52-.46-1.66-.46-1.02 0-1.5.32t-.56.88h-2.14q.04-.68.34-1.24.32-.58.86-1 .56-.42 1.34-.64a6 6 0 0 1 1.76-.24q.98 0 1.76.22.8.22 1.36.7.56.46.86 1.2.32.74.32 1.78v4.22q0 .84.02 1.48.02.62.1 1.22h-2l-.1-.78q-.02-.32-.02-.8-.38.74-1.32 1.28-.92.52-2.28.52m.6-1.92q.56 0 1.06-.14.52-.16.9-.44.381-.3.6-.72.24-.44.24-1v-.58h-2.9q-.84 0-1.36.36-.5.36-.5 1.06 0 .66.46 1.06.48.4 1.5.4"/><path stroke="url(#c)" d="M2.857 43.357h250"/><rect width="32" height="32" x="2.857" y="52.857" fill="url(#d)" rx="16"/><g filter="url(#e)"><rect width="32" height="32" x="2.857" y="52.857" fill="#fff" fill-opacity=".01" rx="16" shape-rendering="crispEdges"/></g><path fill="#605904" d="M14.057 75.18v-2.4l3.344-2.72q.912-.737 1.344-1.16.432-.425.56-.68.128-.257.128-.48 0-.305-.144-.456-.144-.153-.432-.152-.368 0-.552.248-.184.247-.184 1h-3.904q0-1.553.496-2.576a3.3 3.3 0 0 1 1.528-1.544q1.032-.52 2.616-.52t2.568.456 1.448 1.272q.465.816.464 1.872 0 .751-.32 1.408-.32.655-.968 1.288-.648.632-1.624 1.352l-.528.4h3.6v3.392z"/><path fill="#738086" d="M48.657 62.357h2.4v5.86h1.4l5.08-5.86h2.72l-5.9 6.66 6.1 7.34h-2.92l-5.08-6.26h-1.4v6.26h-2.4zm13.702 3.4h2.04v1.78q.48-.92 1.42-1.46.96-.54 2.16-.54 2.08 0 3.28 1.3t1.2 3.92v.4q0 1.36-.32 2.38t-.92 1.7a3.75 3.75 0 0 1-1.4 1q-.82.34-1.84.34-1.14 0-2.08-.5t-1.34-1.4v5.68h-2.2zm5.1 8.9q1.24 0 2-.86t.76-2.64v-.4q0-1.68-.74-2.48-.74-.82-2.02-.82-.561 0-1.08.18-.52.18-.94.54-.4.34-.64.88-.24.52-.24 1.2v1.4q0 .76.24 1.32t.64.94.92.56 1.1.18m10.304 1.92a4.6 4.6 0 0 1-1.54-.24 3.4 3.4 0 0 1-1.12-.7 3.1 3.1 0 0 1-.7-1.06q-.24-.6-.24-1.32 0-1.58.94-2.34.94-.78 2.76-.78h3.3v-.58q0-1.2-.54-1.64-.52-.46-1.66-.46-1.02 0-1.5.32t-.56.88h-2.14q.04-.68.34-1.24.32-.58.86-1 .56-.42 1.34-.64.78-.24 1.76-.24t1.76.22q.8.22 1.36.7.56.46.86 1.2.32.74.32 1.78v4.22q0 .84.02 1.48.02.62.1 1.22h-2l-.1-.78q-.02-.32-.02-.8-.38.74-1.32 1.28-.92.52-2.28.52m.6-1.92q.56 0 1.06-.14.52-.16.9-.44.381-.3.6-.72.24-.44.24-1v-.58h-2.9q-.84 0-1.36.36-.5.36-.5 1.06 0 .66.46 1.06.48.4 1.5.4m12.107 1.92q-1.08 0-2-.32a4.4 4.4 0 0 1-1.58-1.02q-.66-.68-1.04-1.7t-.38-2.38v-.4q0-1.28.4-2.26a4.75 4.75 0 0 1 1.08-1.64q.7-.66 1.6-.98a5.5 5.5 0 0 1 1.92-.34q1.04 0 1.84.28a4 4 0 0 1 1.38.78q.58.48.92 1.14t.46 1.42h-2.24a2.5 2.5 0 0 0-.72-1.22q-.52-.48-1.64-.48-.56 0-1.06.2-.5.18-.88.58-.381.4-.6 1.04-.22.62-.22 1.48v.4q0 .94.22 1.62.219.66.6 1.08.38.42.88.62.5.18 1.06.18 1.86 0 2.36-1.7h2.24a4.7 4.7 0 0 1-.56 1.52q-.38.66-.98 1.14-.6.46-1.38.72-.78.24-1.68.24m6.693-10.82h2.2v4.26h5v-4.26h2.2v10.6h-2.2v-4.46h-5v4.46h-2.2zm16.807 10.82q-1.1 0-2.06-.34a4.8 4.8 0 0 1-1.64-1.04 4.8 4.8 0 0 1-1.1-1.68q-.4-1.02-.4-2.36v-.4q0-1.26.4-2.22.4-.98 1.1-1.64a4.55 4.55 0 0 1 1.64-1.02 6.1 6.1 0 0 1 2.06-.34 6 6 0 0 1 2.04.34q.96.34 1.66 1.02a4.6 4.6 0 0 1 1.1 1.64q.4.96.4 2.22v.4q0 1.34-.4 2.36a4.8 4.8 0 0 1-1.1 1.68q-.7.68-1.66 1.04a6 6 0 0 1-2.04.34m0-1.92q.58 0 1.1-.2.54-.2.94-.62.42-.42.66-1.08.26-.66.26-1.6v-.4q0-.86-.26-1.48a2.76 2.76 0 0 0-.66-1.02 2.6 2.6 0 0 0-.94-.6 3 3 0 0 0-1.1-.2q-.58 0-1.12.2-.52.201-.94.6a3.2 3.2 0 0 0-.66 1.02q-.24.62-.24 1.48v.4q0 .94.24 1.6.261.66.66 1.08.42.42.94.62.54.2 1.12.2m6.295-.18h1.2q.2-.3.36-.9.18-.6.3-1.36.12-.78.18-1.66.06-.9.06-1.8v-3h7.9v8.72h1.4v4.38h-2.04v-2.5h-7.32v2.5h-2.04zm7.8 0v-6.84h-3.58v1.52q0 1.54-.18 2.96-.18 1.4-.6 2.36zm8.8 2.1a4.6 4.6 0 0 1-1.54-.24 3.4 3.4 0 0 1-1.12-.7 3.1 3.1 0 0 1-.7-1.06q-.24-.6-.24-1.32 0-1.58.94-2.34.94-.78 2.76-.78h3.3v-.58q0-1.2-.54-1.64-.52-.46-1.66-.46-1.02 0-1.5.32t-.56.88h-2.14q.04-.68.34-1.24.32-.58.86-1 .56-.42 1.34-.64a6 6 0 0 1 1.76-.24q.98 0 1.76.22.8.22 1.36.7.56.46.86 1.2.32.74.32 1.78v4.22q0 .84.02 1.48.02.62.1 1.22h-2l-.1-.78q-.02-.32-.02-.8-.38.74-1.32 1.28-.92.52-2.28.52m.6-1.92q.56 0 1.06-.14.52-.16.9-.44.38-.3.6-.72.24-.44.24-1v-.58h-2.9q-.84 0-1.36.36-.5.36-.5 1.06 0 .66.46 1.06.48.4 1.5.4m7.706-8.9h2.04v1.78q.48-.92 1.42-1.46.96-.54 2.16-.54 2.08 0 3.28 1.3t1.2 3.92v.4q0 1.36-.32 2.38t-.92 1.7q-.58.66-1.4 1t-1.84.34a4.36 4.36 0 0 1-2.08-.5q-.94-.5-1.34-1.4v5.68h-2.2zm5.1 8.9q1.24 0 2-.86t.76-2.64v-.4q0-1.68-.74-2.48-.74-.82-2.02-.82-.56 0-1.08.18t-.94.54q-.4.34-.64.88-.24.52-.24 1.2v1.4q0 .76.24 1.32t.64.94.92.56 1.1.18m11.605 1.92q-1.08 0-2-.32a4.4 4.4 0 0 1-1.58-1.02q-.66-.68-1.04-1.7t-.38-2.38v-.4q0-1.28.4-2.26t1.08-1.64q.7-.66 1.6-.98a5.5 5.5 0 0 1 1.92-.34q1.04 0 1.84.28a4 4 0 0 1 1.38.78q.58.48.92 1.14t.46 1.42h-2.24a2.5 2.5 0 0 0-.72-1.22q-.52-.48-1.64-.48-.56 0-1.06.2-.5.18-.88.58t-.6 1.04q-.22.62-.22 1.48v.4q0 .94.22 1.62.22.66.6 1.08t.88.62q.5.18 1.06.18 1.86 0 2.36-1.7h2.24a4.7 4.7 0 0 1-.56 1.52q-.38.66-.98 1.14-.6.46-1.38.72-.78.24-1.68.24m6.694-10.82h2.2v4.3h1.2l3.72-4.3h2.48l-4.5 5.06 4.7 5.54h-2.68l-3.72-4.5h-1.2v4.5h-2.2zm11.601 0h2.2v7.5l5.1-7.5h2.1v10.6h-2.2v-7.5l-5.1 7.5h-2.1zm12.207 0h2.2v7.5l5.1-7.5h2.1v10.6h-2.2v-7.5l-5.1 7.5h-2.1zm4.7-1.2q-1.66 0-2.44-.72-.76-.74-.76-2.08h2.04q0 .72.28 1.04.3.32.88.32t.86-.32q.3-.32.3-1.04h2.04q0 1.34-.78 2.08-.78.72-2.42.72m12.507 1.2h2.2v4.3h1.2l3.72-4.3h2.48l-4.5 5.06 4.7 5.54h-2.68l-3.72-4.5h-1.2v4.5h-2.2zm11.602 0h2.04v1.78a3.56 3.56 0 0 1 1.42-1.46q.96-.54 2.16-.54 2.08 0 3.28 1.3t1.2 3.92v.4q0 1.36-.32 2.38t-.92 1.7a3.75 3.75 0 0 1-1.4 1q-.82.34-1.84.34a4.36 4.36 0 0 1-2.08-.5q-.94-.5-1.34-1.4v5.68h-2.2zm5.1 8.9q1.24 0 2-.86t.76-2.64v-.4q0-1.68-.74-2.48-.74-.82-2.02-.82-.56 0-1.08.18t-.94.54q-.4.34-.64.88-.24.52-.24 1.2v1.4q0 .76.24 1.32t.64.94.92.56 1.1.18m10.305 1.92q-.86 0-1.54-.24a3.4 3.4 0 0 1-1.12-.7 3.1 3.1 0 0 1-.7-1.06q-.24-.6-.24-1.32 0-1.58.94-2.34.939-.78 2.76-.78h3.3v-.58q0-1.2-.54-1.64-.52-.46-1.66-.46-1.02 0-1.5.32t-.56.88h-2.14q.04-.68.34-1.24.32-.58.86-1 .56-.42 1.34-.64.78-.24 1.76-.24t1.76.22q.8.22 1.36.7.56.46.86 1.2.32.74.32 1.78v4.22q0 .84.02 1.48.02.62.1 1.22h-2q-.06-.459-.1-.78-.02-.32-.02-.8-.381.74-1.32 1.28-.921.52-2.28.52m.6-1.92q.56 0 1.06-.14.519-.16.9-.44.38-.3.6-.72.24-.44.24-1v-.58h-2.9q-.84 0-1.36.36-.5.36-.5 1.06 0 .66.46 1.06.48.4 1.5.4m7.706-8.9h2.2v7.5l5.1-7.5h2.1v10.6h-2.2v-7.5l-5.1 7.5h-2.1zm4.7-1.2q-1.66 0-2.44-.72-.76-.74-.76-2.08h2.04q0 .72.28 1.04.3.32.88.32t.86-.32q.3-.32.3-1.04h2.04q0 1.34-.78 2.08-.78.72-2.42.72"/><path stroke="url(#f)" d="M2.857 93.357h250"/><rect width="32" height="32" x="2.857" y="102.857" fill="url(#g)" rx="16"/><g filter="url(#h)"><rect width="32" height="32" x="2.857" y="102.857" fill="#fff" fill-opacity=".01" rx="16" shape-rendering="crispEdges"/></g><path fill="#605904" d="M18.777 125.42q-1.728 0-2.784-.608a3.6 3.6 0 0 1-1.536-1.68q-.48-1.073-.48-2.432h3.584q0 .704.248 1.16t.968.456q.384 0 .64-.184t.256-.568q0-.417-.24-.592-.24-.176-.736-.176h-.64v-2.592h.64a.68.68 0 0 0 .464-.168q.192-.168.192-.504t-.176-.512q-.175-.176-.48-.176-.48 0-.728.352t-.248 1.264h-3.584q0-1.584.496-2.632.495-1.049 1.528-1.568t2.616-.52q1.536 0 2.568.384t1.552 1.12.52 1.792q0 .864-.464 1.488-.464.623-1.28.896 1.04.24 1.472.88t.432 1.52q0 1.167-.576 1.976t-1.648 1.216q-1.071.408-2.576.408"/><path fill="#738086" d="M54.057 126.577a7.1 7.1 0 0 1-2.42-.4 4.95 4.95 0 0 1-1.92-1.26q-.82-.86-1.3-2.2-.46-1.36-.46-3.26v-.4q0-1.82.48-3.12.48-1.32 1.3-2.16a5.26 5.26 0 0 1 1.94-1.24 7 7 0 0 1 2.38-.4q1.16 0 2.16.3a5 5 0 0 1 1.74.86q.76.58 1.22 1.44.48.86.58 2.02h-2.52q-.26-1.3-1.12-1.9-.84-.6-2.06-.6-.66 0-1.3.24t-1.16.8q-.5.56-.82 1.48-.3.921-.3 2.28v.4q0 1.44.32 2.4.34.96.86 1.54t1.14.82q.64.24 1.26.24 1.44 0 2.22-.66.8-.68.96-1.84h2.52q-.12 1.24-.6 2.12a4.3 4.3 0 0 1-1.24 1.44 5.1 5.1 0 0 1-1.74.8q-.98.26-2.12.26m11.109 0a4.6 4.6 0 0 1-1.54-.24 3.4 3.4 0 0 1-1.12-.7 3.1 3.1 0 0 1-.7-1.06q-.24-.6-.24-1.32 0-1.58.94-2.34.939-.78 2.76-.78h3.3v-.58q0-1.2-.54-1.64-.52-.46-1.66-.46-1.02 0-1.5.32t-.56.88h-2.14q.04-.68.34-1.24.32-.58.86-1a4 4 0 0 1 1.34-.64q.78-.24 1.76-.24t1.76.22q.8.22 1.36.7.56.46.86 1.2.32.74.32 1.78v4.22q0 .84.02 1.48.02.62.1 1.22h-2q-.06-.459-.1-.78-.02-.32-.02-.8-.381.74-1.32 1.28-.921.52-2.28.52m.6-1.92a3.9 3.9 0 0 0 1.06-.14 3 3 0 0 0 .9-.44q.38-.3.6-.72.24-.44.24-1v-.58h-2.9q-.84 0-1.36.36-.5.36-.5 1.06 0 .66.46 1.06.48.4 1.5.4m7.706-8.9h2.2v4.26h5v-4.26h2.2v10.6h-2.2v-4.46h-5v4.46h-2.2zm12.207 0h2.2v4.3h1.2l3.72-4.3h2.48l-4.5 5.06 4.7 5.54H92.8l-3.72-4.5h-1.2v4.5h-2.2zm14.102 1.88h-3.5v-1.88h9.2v1.88h-3.5v8.72h-2.2zm5.276 2.08h6.2v2.08h-6.2zm8.698-7.36h11.4v14h-2.4v-11.92h-6.6v11.92h-2.4zm19.2 14.22a6.2 6.2 0 0 1-2-.32 4.9 4.9 0 0 1-1.66-1q-.7-.68-1.12-1.7t-.42-2.4v-.4q0-1.32.4-2.3t1.08-1.62q.7-.66 1.6-.98t1.92-.32q2.42 0 3.7 1.3 1.3 1.3 1.3 3.72v1.12h-7.76q.02.82.26 1.4.26.56.66.92.42.34.94.5.54.16 1.1.16 1.14 0 1.66-.36.54-.36.74-.94h2.2q-.32 1.581-1.58 2.4-1.24.82-3.02.82m-.1-9.12q-.56 0-1.08.14a2.5 2.5 0 0 0-.9.46q-.38.3-.62.8-.24.48-.26 1.18h5.56q-.02-.74-.24-1.24-.2-.5-.56-.8a2.1 2.1 0 0 0-.86-.42q-.48-.12-1.04-.12m9.406.18h-3.5v-1.88h9.2v1.88h-3.5v8.72h-2.2zm11.905 8.94a6.1 6.1 0 0 1-2-.32 4.9 4.9 0 0 1-1.66-1q-.7-.68-1.12-1.7t-.42-2.4v-.4q0-1.32.4-2.3.399-.98 1.08-1.62.7-.66 1.6-.98t1.92-.32q2.42 0 3.7 1.3 1.3 1.3 1.3 3.72v1.12h-7.76q.02.82.26 1.4.26.56.66.92.42.34.94.5.54.16 1.1.16 1.14 0 1.66-.36.54-.36.74-.94h2.2q-.32 1.581-1.58 2.4-1.24.82-3.02.82m-.1-9.12q-.561 0-1.08.14a2.5 2.5 0 0 0-.9.46q-.38.3-.62.8-.24.48-.26 1.18h5.56q-.021-.74-.24-1.24-.2-.5-.56-.8a2.1 2.1 0 0 0-.86-.42q-.48-.12-1.04-.12m7.101-1.7h2.04v1.78q.48-.92 1.42-1.46.96-.54 2.16-.54 2.08 0 3.28 1.3t1.2 3.92v.4q0 1.36-.32 2.38t-.92 1.7q-.58.66-1.4 1t-1.84.34q-1.14 0-2.08-.5t-1.34-1.4v5.68h-2.2zm5.1 8.9q1.24 0 2-.86t.76-2.64v-.4q0-1.68-.74-2.48-.74-.82-2.02-.82-.56 0-1.08.18t-.94.54q-.4.34-.64.88-.24.52-.24 1.2v1.4q0 .76.24 1.32t.64.94.92.56 1.1.18m11.805 1.92a5.1 5.1 0 0 1-2.02-.4 4.5 4.5 0 0 1-1.62-1.16q-.68-.78-1.08-1.9-.38-1.14-.38-2.6v-.4q0-1.8.26-3.2t.88-2.38a4.35 4.35 0 0 1 1.68-1.54q1.06-.56 2.62-.64 1.26-.06 2.28-.1 1.02-.06 1.68-.4v2.02q-.32.18-1.18.3-.86.1-2.48.14-.94.02-1.64.22-.68.2-1.16.64-.46.44-.74 1.16-.26.7-.34 1.72.46-.94 1.44-1.52 1-.6 2.4-.6a4.7 4.7 0 0 1 1.8.34q.84.321 1.44.96.6.62.92 1.54.34.9.34 2.04v.46q0 1.24-.4 2.24a4.7 4.7 0 0 1-1.06 1.66q-.68.68-1.62 1.04-.92.36-2.02.36m0-1.92q1.3 0 2.08-.86t.78-2.52v-.46q0-1.4-.8-2.18-.78-.78-2.06-.78t-2.08.78q-.78.76-.78 2.18v.46q0 .801.22 1.44.22.62.6 1.06.4.42.92.66.52.22 1.12.22m8.604 5.92q-.3 0-.6-.06v-1.92q.3.06.6.06.34 0 .56-.12.24-.1.42-.38.2-.26.38-.7.2-.44.44-1.1l-4.5-10.6h2.4l3.24 8.2 2.92-8.2h2.24l-4.1 10.6a31 31 0 0 1-.82 1.92q-.38.8-.84 1.3a2.7 2.7 0 0 1-1 .76q-.56.24-1.34.24m9.901-14.82h2.04v1.78q.48-.92 1.42-1.46.96-.54 2.16-.54 2.08 0 3.28 1.3t1.2 3.92v.4q0 1.36-.32 2.38t-.92 1.7q-.58.66-1.4 1t-1.84.34q-1.14 0-2.08-.5t-1.34-1.4v5.68h-2.2zm5.1 8.9q1.24 0 2-.86t.76-2.64v-.4q0-1.68-.74-2.48-.74-.82-2.02-.82-.56 0-1.08.18t-.94.54q-.4.34-.64.88-.24.52-.24 1.2v1.4q0 .76.24 1.32t.64.94.92.56 1.1.18m7.205-8.9h7.4v1.88h-5.2v8.72h-2.2z"/><defs><linearGradient id="a" x1="2.857" x2="34.857" y1="34.857" y2="2.857" gradientUnits="userSpaceOnUse"><stop stop-color="#f2b90c"/><stop offset=".56" stop-color="#fff"/><stop offset=".96" stop-color="#f2b90c"/></linearGradient><linearGradient id="c" x1="-57.428" x2="318.352" y1="43.857" y2="43.857" gradientUnits="userSpaceOnUse"><stop stop-color="#fff"/><stop offset=".317" stop-color="#d6dbe0"/><stop offset=".707" stop-color="#d6dbe0"/><stop offset="1" stop-color="#fff"/></linearGradient><linearGradient id="d" x1="2.857" x2="34.857" y1="84.857" y2="52.857" gradientUnits="userSpaceOnUse"><stop stop-color="#a0a0a0"/><stop offset=".56" stop-color="#ebebeb"/><stop offset=".96" stop-color="#a0a0a0"/></linearGradient><linearGradient id="f" x1="-57.428" x2="318.352" y1="93.857" y2="93.857" gradientUnits="userSpaceOnUse"><stop stop-color="#fff"/><stop offset=".317" stop-color="#d6dbe0"/><stop offset=".707" stop-color="#d6dbe0"/><stop offset="1" stop-color="#fff"/></linearGradient><linearGradient id="g" x1="2.857" x2="34.857" y1="134.857" y2="102.857" gradientUnits="userSpaceOnUse"><stop stop-color="#dfb667"/><stop offset=".56" stop-color="#f9f3e8"/><stop offset=".96" stop-color="#e7c074"/></linearGradient><filter id="b" width="37.714" height="37.714" x="0" y="0" color-interpolation-filters="sRGB" filterUnits="userSpaceOnUse"><feFlood flood-opacity="0" result="BackgroundImageFix"/><feColorMatrix in="SourceAlpha" result="hardAlpha" values="0 0 0 0 0 0 0 0 0 0 0 0 0 0 0 0 0 0 127 0"/><feMorphology in="SourceAlpha" operator="dilate" radius="2.857" result="effect1_dropShadow_4332_545"/><feOffset/><feComposite in2="hardAlpha" operator="out"/><feColorMatrix values="0 0 0 0 0.964706 0 0 0 0 0.811765 0 0 0 0 0.360784 0 0 0 1 0"/><feBlend in2="BackgroundImageFix" result="effect1_dropShadow_4332_545"/><feBlend in="SourceGraphic" in2="effect1_dropShadow_4332_545" result="shape"/></filter><filter id="e" width="37.714" height="37.714" x="0" y="50" color-interpolation-filters="sRGB" filterUnits="userSpaceOnUse"><feFlood flood-opacity="0" result="BackgroundImageFix"/><feColorMatrix in="SourceAlpha" result="hardAlpha" values="0 0 0 0 0 0 0 0 0 0 0 0 0 0 0 0 0 0 127 0"/><feMorphology in="SourceAlpha" operator="dilate" radius="2.857" result="effect1_dropShadow_4332_545"/><feOffset/><feComposite in2="hardAlpha" operator="out"/><feColorMatrix values="0 0 0 0 0.627451 0 0 0 0 0.627451 0 0 0 0 0.627451 0 0 0 1 0"/><feBlend in2="BackgroundImageFix" result="effect1_dropShadow_4332_545"/><feBlend in="SourceGraphic" in2="effect1_dropShadow_4332_545" result="shape"/></filter><filter id="h" width="37.714" height="37.714" x="0" y="100" color-interpolation-filters="sRGB" filterUnits="userSpaceOnUse"><feFlood flood-opacity="0" result="BackgroundImageFix"/><feColorMatrix in="SourceAlpha" result="hardAlpha" values="0 0 0 0 0 0 0 0 0 0 0 0 0 0 0 0 0 0 127 0"/><feMorphology in="SourceAlpha" operator="dilate" radius="2.857" result="effect1_dropShadow_4332_545"/><feOffset/><feComposite in2="hardAlpha" operator="out"/><feColorMatrix values="0 0 0 0 0.87451 0 0 0 0 0.713726 0 0 0 0 0.403922 0 0 0 1 0"/><feBlend in2="BackgroundImageFix" result="effect1_dropShadow_4332_545"/><feBlend in="SourceGraphic" in2="effect1_dropShadow_4332_545" result="shape"/></filter></defs></svg>
