<svg xmlns="http://www.w3.org/2000/svg" width="333" height="147" fill="none" preserveAspectRatio="xMinYMin meet"><g clip-path="url(#a)"><circle cx="70.941" cy="72.058" r="42.941" fill="#a5a660" opacity=".1"/><path stroke="#a5a660" stroke-linejoin="round" stroke-width="2.342" d="M47.532 91.984h46.815"/><path stroke="#a5a660" stroke-width="2.342" d="M60.363 75.593a2.345 2.345 0 0 0-2.342-2.347 2.345 2.345 0 0 0-2.343 2.347 2.345 2.345 0 0 0 2.343 2.346 2.345 2.345 0 0 0 2.342-2.346ZM86.13 75.593a2.345 2.345 0 0 0-2.342-2.347 2.345 2.345 0 0 0-2.343 2.347 2.345 2.345 0 0 0 2.343 2.346 2.345 2.345 0 0 0 2.342-2.346Z"/><path stroke="#a5a660" stroke-linejoin="round" stroke-width="2.342" d="M58.02 77.94v13.838M83.788 77.94v13.838M57.982 77.463c5.893 6.322 19.948 6.322 26.067.056"/><path stroke="#a5a660" stroke-linecap="round" stroke-linejoin="round" stroke-width="2.342" d="M57.518 78.11c-.954 1.225-4.578 3.775-6.557 4.322M84.257 78.11c.954 1.225 4.578 3.775 6.557 4.322M85.98 52.135H55.842a.103.103 0 0 0-.103.103v16.217c0 .058.046.104.103.104H85.98a.104.104 0 0 0 .104-.104V52.238a.104.104 0 0 0-.104-.103"/><path stroke="#a5a660" stroke-linecap="round" stroke-linejoin="round" stroke-width="2.342" d="M81.34 56.848H60.464a.104.104 0 0 0-.103.103v6.794c0 .057.046.103.103.103H81.34a.103.103 0 0 0 .103-.103V56.95a.103.103 0 0 0-.103-.103"/><path fill="#455963" d="m143.169 42.937-4.3-6.82h3.8l3.3 5.54h.82v-5.54h3.6v5.54h.8l3.44-5.54h3.64l-4.3 6.54 4.5 7.46h-3.92l-3.36-5.94h-.8v5.94h-3.6v-5.94h-.8l-3.52 5.94h-3.8zm21.3 7.44q-1.16 0-2.18-.32a4.8 4.8 0 0 1-1.74-1.02 4.7 4.7 0 0 1-1.16-1.7q-.42-1.04-.42-2.42v-.4q0-1.32.4-2.3.42-.98 1.12-1.64.72-.66 1.68-.98a6.4 6.4 0 0 1 2.1-.34q2.619 0 3.96 1.36 1.34 1.341 1.34 3.9v1.1h-7.44q.02.62.22 1.06a2.12 2.12 0 0 0 1.24 1.12q.42.12.88.12.879 0 1.38-.26.52-.28.68-.74h2.84q-.32 1.74-1.58 2.6t-3.32.86m-.1-8.68q-.42 0-.82.1-.38.1-.7.34-.3.22-.5.58-.18.36-.2.88h4.4q0-.56-.18-.92t-.48-.58a1.6 1.6 0 0 0-.68-.3 3.5 3.5 0 0 0-.84-.1m6.797-2.18h3.08v3.94h4.04v-3.94h3.08v10.6h-3.08v-4.14h-4.04v4.14h-3.08zm25.807 10.6h-13.6v-10.6h3.08v8.08h2.78v-8.08h3.08v8.08h2.78v-8.08h3.08v8.08h1.4v5.02h-2.6zm3.997-10.6h3v6.4l4.5-6.4h2.7v10.6h-3v-6.4l-4.5 6.4h-2.7zm12.207 0h3.08v3.94h4.04v-3.94h3.08v10.6h-3.08v-4.14h-4.04v4.14h-3.08zm12.207 0h3.08v3.44h1.72q2.08 0 3.14.88t1.06 2.7q0 .8-.24 1.46-.22.66-.74 1.14-.5.46-1.3.72-.78.26-1.92.26h-4.8zm4.4 8.28q.82 0 1.16-.3.36-.32.36-.96 0-.66-.36-.96-.34-.3-1.16-.3h-1.32v2.52zm5.52-8.28h3.08v10.6h-3.08zM144.369 80.377q-1.34 0-2.36-.36-1-.38-1.68-1.04a4.2 4.2 0 0 1-1.02-1.56 5.7 5.7 0 0 1-.34-2h3.6q0 .98.44 1.48.46.48 1.46.48.86 0 1.28-.42t.42-1.16q0-.76-.44-1.16-.42-.4-1.36-.4h-1.18v-2.64h1.18q1.6 0 1.6-1.42 0-.62-.4-.96-.38-.36-1.1-.36-1.7 0-1.7 1.76h-3.6q0-2.24 1.34-3.5 1.36-1.26 3.86-1.26 1.24 0 2.2.3.98.28 1.64.8.66.5 1 1.22.36.7.36 1.56 0 1.14-.64 1.94t-1.72 1.14q1.26.34 1.9 1.16.66.82.66 2.14 0 .96-.38 1.74-.381.78-1.08 1.34t-1.7.88q-1 .3-2.24.3m12.307 0q-1.44 0-2.42-.36-.98-.38-1.6-1a3.8 3.8 0 0 1-.88-1.44 6 6 0 0 1-.3-1.76h3.48q.04.8.5 1.3.46.48 1.22.48.94 0 1.34-.58.42-.6.42-1.68 0-1.14-.5-1.58-.501-.46-1.26-.46-1.06 0-1.64.82h-3.26v-8h9.52v2.94h-6.06v1.96q.84-.62 2.3-.62 1 0 1.84.32.84.3 1.44.92t.92 1.54q.34.9.34 2.12 0 1.16-.38 2.1a4.5 4.5 0 0 1-1.08 1.6q-.7.66-1.7 1.02t-2.24.36m6.607-7.34h6.6v2.96h-6.6zm13.777 4.36h-6.28v-2.46l6.52-8.82h3.36v8.32h1.52v2.96h-1.52v2.72h-3.6zm0-2.96v-4.34l-3.06 4.34zm12.5 2.96h-6.28v-2.46l6.52-8.82h3.36v8.32h1.52v2.96h-1.52v2.72h-3.6zm0-2.96v-4.34l-3.06 4.34zm11.82-4.92h7.8v2.52h-4.72v8.08h-3.08zm14.004 10.86a6.7 6.7 0 0 1-2.1-.32 4.9 4.9 0 0 1-1.72-1.02 4.7 4.7 0 0 1-1.16-1.7q-.42-1.04-.42-2.42v-.4q0-1.3.42-2.28t1.16-1.64a5 5 0 0 1 1.72-1 6.4 6.4 0 0 1 2.1-.34 6.4 6.4 0 0 1 2.1.34q.98.34 1.72 1t1.16 1.64.42 2.28v.4q0 1.36-.42 2.4a4.7 4.7 0 0 1-1.16 1.7 4.9 4.9 0 0 1-1.72 1.02 6.4 6.4 0 0 1-2.1.34m0-2.56q1.08 0 1.66-.78t.58-2.12v-.4q0-1.2-.58-1.94-.58-.76-1.66-.76t-1.66.76q-.58.74-.58 1.94v.4q0 1.38.58 2.14t1.66.76m6.195-.22h1.12q.42-.62.6-1.7.18-1.1.18-2.98v-3.4h8.7v8.08h1.2v5.02h-2.6v-2.5h-6.6v2.5h-2.6zm7.52 0v-5.56h-2.78v1.28q0 1.5-.16 2.54-.14 1.04-.44 1.74zm9.077 2.78a4.3 4.3 0 0 1-1.54-.26 3.4 3.4 0 0 1-1.12-.7 3.1 3.1 0 0 1-.7-1.06 3.7 3.7 0 0 1-.24-1.34q0-1.58.96-2.42.981-.84 2.94-.84h3.02v-.44q0-.96-.46-1.32-.459-.38-1.26-.38-.76 0-1.12.24t-.4.76h-3.08q.04-.72.36-1.32.321-.62.9-1.06.6-.459 1.46-.72.861-.26 1.98-.26 1.04 0 1.9.24a3.7 3.7 0 0 1 1.5.74q.621.5.96 1.32.34.8.34 1.96v3.9q0 .84.04 1.48.04.62.12 1.22h-2.92a15 15 0 0 0-.08-.6 9 9 0 0 1-.02-.64q-.48.64-1.34 1.08-.84.42-2.2.42m1-2.16q.98 0 1.64-.56.68-.56.68-1.54v-.44h-2.42q-.68 0-1.02.36-.32.36-.32.84 0 .58.32.96.34.38 1.12.38"/><path fill="#c3c6c8" d="M144.215 106.327q-1.047 0-1.955-.227a4.5 4.5 0 0 1-1.588-.733 3.8 3.8 0 0 1-1.099-1.309q-.419-.803-.506-1.955h2.722q.14.995.786 1.519.645.506 1.64.506.489 0 .942-.157.454-.175.821-.541a2.9 2.9 0 0 0 .628-.995q.262-.611.349-1.501h-4.223v-2.06h4.206q-.175-1.605-.925-2.285-.733-.699-1.798-.699-.942 0-1.588.49-.646.488-.838 1.535h-2.722q.07-1.1.488-1.902a4 4 0 0 1 1.117-1.31 4.7 4.7 0 0 1 1.606-.767 7.4 7.4 0 0 1 1.937-.245q1.17 0 2.164.367a4.4 4.4 0 0 1 1.745 1.1q.75.732 1.17 1.884.418 1.135.418 2.705v.349q0 1.675-.436 2.862-.419 1.187-1.169 1.938a4.5 4.5 0 0 1-1.745 1.082 6.5 6.5 0 0 1-2.147.349m7.42-9.46h2.304v3.631h.873l2.827-3.63h2.548l-3.49 4.38 3.664 4.869h-2.757l-2.792-3.804h-.873v3.804h-2.304zm13.799 9.46q-.96 0-1.798-.297a4 4 0 0 1-1.431-.89 4.1 4.1 0 0 1-.959-1.484q-.35-.89-.349-2.076v-.349q0-1.117.366-1.972t.977-1.431a4.3 4.3 0 0 1 1.449-.873 5.1 5.1 0 0 1 1.745-.297q.977 0 1.728.262.768.262 1.291.716a3.3 3.3 0 0 1 .82 1.064q.298.611.349 1.309h-2.338q-.14-.646-.576-1.012-.419-.384-1.274-.384-.454 0-.855.157a2 2 0 0 0-.698.489q-.297.314-.471.802-.175.489-.175 1.17v.349q0 .732.157 1.274.175.524.471.872.297.332.698.489.402.157.873.157.681 0 1.169-.349.507-.366.681-1.047h2.338a3.7 3.7 0 0 1-.436 1.396 3.35 3.35 0 0 1-.89 1.047 4 4 0 0 1-1.274.681 5.4 5.4 0 0 1-1.588.227m5.767-9.46h2.303v3.631h.873l2.827-3.63h2.548l-3.49 4.38 3.665 4.869h-2.758l-2.792-3.804h-.873v3.804h-2.303zm11.779 12.95a2.7 2.7 0 0 1-.524-.052v-1.955q.262.052.524.052.524 0 .803-.401.297-.384.663-1.344l-3.909-9.25h2.583l2.513 6.388 2.303-6.387h2.374l-3.56 9.249q-.385.977-.733 1.676-.332.716-.751 1.151a2.55 2.55 0 0 1-.96.664q-.54.209-1.326.209m8.553-12.95h2.146v1.362q.349-.628 1.1-1.1.75-.47 1.902-.47 1.85 0 2.88 1.151 1.047 1.135 1.047 3.421v.349q0 2.39-1.065 3.577-1.047 1.17-2.862 1.17-.942 0-1.675-.402a3.6 3.6 0 0 1-1.17-1.082v4.765h-2.303zm4.607 7.505q.907 0 1.518-.681.611-.698.611-2.111v-.349q0-1.309-.593-1.955-.594-.663-1.536-.663-.995 0-1.658.576-.645.558-.646 1.693v1.047q0 1.238.629 1.85.646.593 1.675.593m10.231 1.955q-.96 0-1.798-.297a4 4 0 0 1-1.431-.89 4.15 4.15 0 0 1-.96-1.484q-.349-.89-.349-2.076v-.349q0-1.117.367-1.972.366-.855.977-1.431a4.3 4.3 0 0 1 1.449-.873 5.1 5.1 0 0 1 1.745-.297q.977 0 1.728.262.768.262 1.291.716t.82 1.064.349 1.309h-2.338q-.14-.646-.576-1.012-.419-.384-1.274-.384-.454 0-.855.157a2 2 0 0 0-.698.489q-.297.314-.472.802-.174.489-.174 1.17v.349q0 .732.157 1.274.174.524.471.872.297.332.698.489.402.157.873.157.68 0 1.169-.349.506-.366.681-1.047h2.338a3.7 3.7 0 0 1-.436 1.396 3.35 3.35 0 0 1-.89 1.047 4 4 0 0 1-1.274.681 5.4 5.4 0 0 1-1.588.227m5.766-9.46h2.304v5.934l4.119-5.933h2.129v9.249h-2.304v-5.933l-4.118 5.933h-2.13zm10.652 0h2.304v5.934l4.119-5.933h2.129v9.249h-2.304v-5.933l-4.119 5.933h-2.129z"/><path fill="url(#b)" d="M.84 212.749h2a360751 360751 0 0 1-.104-184.747C1.698 13.4 14.923 1.275 29.367 2.372a363817 363817 0 0 1 365.173.114v-2A365239 365239 0 0 1 29.367.6C14.383-.731-.313 12.69.942 28.002a365507 365507 0 0 1-.103 184.747"/></g><defs><linearGradient id="b" x1="1.839" x2="324.5" y1="-27.454" y2="26.195" gradientUnits="userSpaceOnUse"><stop offset=".005" stop-color="#a5a660"/><stop offset="1" stop-color="#fff"/></linearGradient><clipPath id="a"><path fill="#fff" d="M0 0h395v213H0z"/></clipPath></defs></svg>
