<svg xmlns="http://www.w3.org/2000/svg" width="1600" height="360" fill="none"><g clip-path="url(#a)"><path fill="url(#b)" d="M1572 0H0v360h1600V0z"/><path fill="url(#c)" d="M2018.79-45.284H8.07c-20.14 0-36.464 26.216-36.464 58.555v635.74c0 32.339 16.325 58.555 36.463 58.555H2018.79c20.14 0 36.47-26.216 36.47-58.555V13.271c0-32.34-16.33-58.555-36.47-58.555"/><path fill="url(#d)" d="M1600 0H0v360h1600V0"/><g filter="url(#e)"><rect width="13.149" height="1" x="192.104" y="179.5" fill="#429087" rx=".5"/></g><path fill="url(#f)" d="M21.945 433.185a247 247 0 0 1-25.983 0zc99.366-5.312 151.11-70.686 274.185-70.686 143.465 0 146.392 42.757 366.641 42.757 266.723 0 314.689-152.557 555.139-156.199 115.16-1.744 280.73 72.278 423.72 72.278v111.85z" opacity=".1"/><path fill="url(#g)" d="M252.047 379.686c-11.578.735-23.768.793-36.763 0zc96.895-6.157 150.893-59.815 274.648-59.815 188.908 0 153.329 25.412 379.214 25.412 277.081 0 324.741-131.366 574.541-134.073 119.63-1.296 159.54 61 294.49 61 70.25.312 134.89-42.461 181.43-56.164v163.64H252.047" opacity=".15"/></g><defs><linearGradient id="b" x1="0" x2="1600" y1="360" y2="0" gradientUnits="userSpaceOnUse"><stop stop-color="#1d766d"/><stop offset=".45" stop-color="#68a198"/><stop offset="1" stop-color="#82c2b7"/></linearGradient><linearGradient id="f" x1="937.577" x2="937.577" y1="171.935" y2="463.545" gradientUnits="userSpaceOnUse"><stop stop-color="#fff"/><stop offset="1" stop-color="#87bab3"/></linearGradient><linearGradient id="g" x1="1193.48" x2="1193.48" y1="128.032" y2="416.841" gradientUnits="userSpaceOnUse"><stop stop-color="#fff"/><stop offset="1" stop-color="#87bab3"/></linearGradient><radialGradient id="c" cx="0" cy="0" r="1" gradientTransform="rotate(136.025 648.244 322.969)scale(552.131 657.85)" gradientUnits="userSpaceOnUse"><stop stop-color="#d4f2ea" stop-opacity=".82"/><stop offset=".402" stop-color="#9fd3c8" stop-opacity=".34"/><stop offset="1" stop-color="#68a198" stop-opacity="0"/></radialGradient><radialGradient id="d" cx="0" cy="0" r="1" gradientTransform="matrix(460 0 0 220 145 300)" gradientUnits="userSpaceOnUse"><stop stop-color="#0b5e55" stop-opacity=".58"/><stop offset="1" stop-color="#0b5e55" stop-opacity="0"/></radialGradient><clipPath id="a"><path fill="#fff" d="M0 0h1600v360H0z"/></clipPath><filter id="e" width="739.549" height="727.4" x="-171.096" y="-183.7" color-interpolation-filters="sRGB" filterUnits="userSpaceOnUse"><feFlood flood-opacity="0" result="BackgroundImageFix"/><feColorMatrix in="SourceAlpha" result="hardAlpha" values="0 0 0 0 0 0 0 0 0 0 0 0 0 0 0 0 0 0 127 0"/><feMorphology in="SourceAlpha" operator="dilate" radius="218" result="effect1_dropShadow_4198_8316"/><feOffset/><feGaussianBlur stdDeviation="72.6"/><feComposite in2="hardAlpha" operator="out"/><feColorMatrix values="0 0 0 0 0.610913 0 0 0 0 0.900906 0 0 0 0 0.859479 0 0 0 0.38 0"/><feBlend in2="BackgroundImageFix" result="effect1_dropShadow_4198_8316"/><feBlend in="SourceGraphic" in2="effect1_dropShadow_4198_8316" result="shape"/></filter></defs></svg>
