<svg width="347" height="214" viewBox="0 0 347 214" fill="none" xmlns="http://www.w3.org/2000/svg">
<g clip-path="url(#clip0_4398_245)">
<path opacity="0.2" d="M77.0826 142.605C104.09 142.605 125.984 120.711 125.984 93.7037C125.984 66.6965 104.09 44.8027 77.0826 44.8027C50.0754 44.8027 28.1816 66.6965 28.1816 93.7037C28.1816 120.711 50.0754 142.605 77.0826 142.605Z" fill="#00372E"/>
<g filter="url(#filter0_d_4398_245)">
<mask id="mask0_4398_245" style="mask-type:luminance" maskUnits="userSpaceOnUse" x="51" y="39" width="215" height="133">
<path d="M258 39.2637H59C54.5817 39.2637 51 42.8454 51 47.2637V163.264C51 167.682 54.5817 171.264 59 171.264H258C262.418 171.264 266 167.682 266 163.264V47.2637C266 42.8454 262.418 39.2637 258 39.2637Z" fill="white"/>
</mask>
<g mask="url(#mask0_4398_245)">
<path d="M258 39.2637H59C54.5817 39.2637 51 42.8454 51 47.2637V163.264C51 167.682 54.5817 171.264 59 171.264H258C262.418 171.264 266 167.682 266 163.264V47.2637C266 42.8454 262.418 39.2637 258 39.2637Z" fill="white"/>
<g opacity="0.7">
<path opacity="0.95" d="M231.787 132.92H190.513C190.011 132.92 189.514 133.019 189.051 133.211C188.587 133.403 188.166 133.684 187.811 134.039C187.456 134.394 187.175 134.815 186.983 135.279C186.791 135.743 186.692 136.24 186.692 136.742V162.729C186.692 163.231 186.791 163.728 186.983 164.191C187.175 164.655 187.456 165.076 187.811 165.431C188.166 165.786 188.587 166.067 189.051 166.259C189.515 166.451 190.012 166.55 190.513 166.55H231.787C232.289 166.55 232.786 166.451 233.25 166.259C233.713 166.067 234.135 165.786 234.49 165.431C234.844 165.076 235.126 164.655 235.318 164.191C235.51 163.728 235.609 163.231 235.608 162.729V136.742C235.609 136.24 235.51 135.743 235.318 135.279C235.126 134.815 234.845 134.394 234.49 134.039C234.135 133.684 233.714 133.403 233.25 133.211C232.786 133.019 232.289 132.92 231.787 132.92Z" fill="white" stroke="#C44D63" stroke-width="0.382"/>
<path d="M204.653 147.443C205.565 147.443 206.44 147.08 207.085 146.435C207.73 145.79 208.093 144.915 208.093 144.003C208.093 143.09 207.73 142.215 207.085 141.57C206.44 140.925 205.565 140.563 204.653 140.562C203.741 140.563 202.866 140.925 202.22 141.57C201.575 142.215 201.213 143.09 201.213 144.003C201.213 144.915 201.575 145.79 202.22 146.435C202.866 147.08 203.741 147.443 204.653 147.443Z" fill="#C44D63"/>
<path d="M200.067 153.557H216.118M200.067 159.289H212.296" stroke="#CBD4D4" stroke-width="2.293" stroke-linecap="round"/>
</g>
<g opacity="0.7">
<path opacity="0.95" d="M117.383 132.92H76.1101C75.6081 132.92 75.111 133.018 74.6472 133.21C74.1833 133.402 73.7619 133.684 73.4069 134.039C73.052 134.394 72.7705 134.815 72.5785 135.279C72.3865 135.743 72.2878 136.24 72.2881 136.742V162.729C72.2881 164.839 73.9991 166.55 76.1101 166.55H117.383C117.885 166.55 118.382 166.451 118.845 166.259C119.309 166.067 119.73 165.786 120.085 165.431C120.44 165.076 120.722 164.655 120.913 164.191C121.105 163.728 121.204 163.231 121.204 162.729V136.742C121.204 136.24 121.106 135.743 120.914 135.279C120.722 134.815 120.44 134.394 120.086 134.039C119.731 133.684 119.309 133.403 118.846 133.211C118.382 133.019 117.885 132.92 117.383 132.92Z" fill="white" stroke="#22786C" stroke-width="0.382"/>
<path d="M90.2495 147.442C90.7061 147.45 91.1597 147.367 91.5838 147.197C92.008 147.028 92.3941 146.776 92.7198 146.456C93.0454 146.135 93.3041 145.754 93.4807 145.332C93.6572 144.911 93.7482 144.459 93.7482 144.002C93.7482 143.546 93.6572 143.094 93.4807 142.673C93.3041 142.251 93.0454 141.87 92.7198 141.549C92.3941 141.229 92.008 140.977 91.5838 140.808C91.1597 140.638 90.7061 140.555 90.2495 140.563C89.3475 140.578 88.4875 140.948 87.8551 141.591C87.2226 142.234 86.8682 143.1 86.8682 144.002C86.8682 144.905 87.2226 145.771 87.8551 146.414C88.4875 147.057 89.3475 147.427 90.2495 147.442Z" fill="#22786C"/>
<path d="M85.6641 153.557H101.714M85.6641 159.289H97.8931" stroke="#CBD4D4" stroke-width="2.293" stroke-linecap="round"/>
</g>
<g opacity="0.7">
<path opacity="0.95" d="M174.001 132.92H132.728C132.226 132.92 131.729 133.019 131.266 133.211C130.802 133.403 130.381 133.684 130.026 134.039C129.671 134.394 129.389 134.815 129.198 135.279C129.006 135.743 128.907 136.24 128.907 136.742V162.729C128.907 163.231 129.006 163.728 129.198 164.191C129.39 164.655 129.671 165.076 130.026 165.431C130.381 165.786 130.802 166.067 131.266 166.259C131.729 166.451 132.226 166.55 132.728 166.55H174.001C174.503 166.55 175 166.452 175.464 166.26C175.928 166.068 176.349 165.786 176.704 165.431C177.059 165.077 177.341 164.655 177.533 164.192C177.725 163.728 177.823 163.231 177.823 162.729V136.742C177.823 136.24 177.725 135.743 177.533 135.279C177.341 134.815 177.059 134.394 176.704 134.039C176.349 133.684 175.928 133.402 175.464 133.21C175 133.018 174.503 132.92 174.001 132.92Z" fill="white" stroke="#F7B03A" stroke-width="0.382"/>
<path d="M146.868 147.443C147.78 147.443 148.655 147.08 149.3 146.435C149.945 145.79 150.308 144.915 150.308 144.003C150.308 143.09 149.945 142.215 149.3 141.57C148.655 140.925 147.78 140.563 146.868 140.562C145.955 140.563 145.08 140.925 144.435 141.57C143.79 142.215 143.428 143.09 143.428 144.003C143.428 144.915 143.79 145.79 144.435 146.435C145.08 147.08 145.955 147.443 146.868 147.443Z" fill="#F9B21B"/>
<path d="M142.282 153.557H158.333M142.282 159.289H154.511" stroke="#CBD4D4" stroke-width="2.293" stroke-linecap="round"/>
</g>
<mask id="mask1_4398_245" style="mask-type:luminance" maskUnits="userSpaceOnUse" x="148" y="50" width="110" height="79">
<path d="M148.282 50.3535H257.282V128.354H148.282V50.3535Z" fill="white"/>
</mask>
<g mask="url(#mask1_4398_245)">
<g opacity="0.9">
<mask id="mask2_4398_245" style="mask-type:luminance" maskUnits="userSpaceOnUse" x="148" y="50" width="110" height="79">
<g opacity="0.9">
<path d="M254.574 50.3535H150.99C149.495 50.3535 148.282 51.3655 148.282 52.6135V126.093C148.282 127.341 149.495 128.354 150.99 128.354H254.574C256.07 128.354 257.282 127.341 257.282 126.093V52.6135C257.282 51.3655 256.07 50.3535 254.574 50.3535Z" fill="white"/>
</g>
</mask>
<g mask="url(#mask2_4398_245)">
<g opacity="0.95">
<path d="M254.574 50.3535H150.99C149.495 50.3535 148.282 51.3655 148.282 52.6135V126.093C148.282 127.341 149.495 128.354 150.99 128.354H254.574C256.07 128.354 257.282 127.341 257.282 126.093V52.6135C257.282 51.3655 256.07 50.3535 254.574 50.3535Z" fill="#F5FBFA"/>
<path d="M148.282 67.5927C157.76 62.7877 165.546 64.4827 174.686 59.6787C187.549 52.8967 200.751 56.8527 210.906 52.0487C222.754 46.3967 236.972 51.7657 257.282 49.2227V128.353H148.282V67.5927Z" fill="url(#paint0_linear_4398_245)"/>
<path opacity="0.6" d="M162.161 75.2233C167.649 71.9273 171.497 69.7063 178.071 70.1363C183.371 70.4833 185.285 74.7703 190.596 74.9403C197.291 75.1553 199.472 68.6603 206.167 68.4403C213.13 68.2123 215.808 73.8843 222.754 74.3753C230.674 74.9353 234.463 69.0783 242.388 69.5713C248.51 69.9513 257.282 74.0933 257.282 74.0933V128.353H148.621C148.621 128.353 141.872 104.281 148.621 91.0493C152.239 83.9553 154.959 79.5493 162.161 75.2233Z" fill="#BFE4DF"/>
<path opacity="0.78" d="M201.766 72.3968C207.474 72.0308 215.645 76.6368 215.645 76.6368C215.645 76.6368 220.925 71.4567 225.462 70.7007C231.457 69.7037 237.901 70.6268 240.018 75.7878C242.141 80.9648 232.237 82.7108 232.571 88.2228C232.902 93.7018 242.738 94.4627 241.372 99.8097C239.861 105.725 232.021 107.077 225.462 105.745C220.253 104.687 220.254 98.5128 214.968 97.8318C209.875 97.1748 207.811 103.336 202.782 102.354C197.428 101.308 198.059 95.6707 193.642 92.7437C189.025 89.6857 181.47 92.6787 180.102 87.6577C178.728 82.6157 184.975 80.5928 189.58 77.4838C193.779 74.6488 196.537 72.7318 201.766 72.3968Z" fill="#D4EEEA" stroke="#F9FFFF" stroke-width="1.5"/>
<path opacity="0.55" d="M143.887 95.57C147.8 92.385 151.146 91.177 156.412 91.048C162.55 90.898 164.83 96.247 170.968 96.418C177.266 96.593 180.252 93.49 186.201 91.613M165.213 128.352C169.719 123.75 173.737 121.738 180.446 120.722C188.973 119.431 193.14 126.538 201.772 126.092C210.809 125.624 228.32 118.65 228.32 110.708" stroke="white" stroke-width="1.4"/>
<path opacity="0.95" d="M179.764 114.224C181.072 114.224 182.133 113.338 182.133 112.246C182.133 111.154 181.072 110.268 179.764 110.268C178.456 110.268 177.394 111.153 177.394 112.246C177.394 113.339 178.455 114.224 179.764 114.224Z" fill="#D74C76"/>
<path opacity="0.95" d="M208.471 91.331C209.779 91.331 210.84 90.445 210.84 89.353C210.84 88.261 209.779 87.375 208.471 87.375C207.163 87.375 206.101 88.26 206.101 89.353C206.101 90.446 207.162 91.331 208.471 91.331Z" fill="#F9AF22"/>
<path opacity="0.95" d="M237.31 66.1787C238.619 66.1787 239.68 65.2937 239.68 64.2007C239.68 63.1077 238.619 62.2227 237.31 62.2227C236.001 62.2227 234.94 63.1087 234.94 64.2007C234.94 65.2927 236.001 66.1787 237.31 66.1787Z" fill="#2A8677"/>
<path opacity="0.95" d="M236.294 75.5051C243.073 73.2991 254.574 73.2441 254.574 73.2441L259.313 85.1141C259.313 85.1141 250.011 87.4741 248.819 91.8961C247.611 96.3801 254.479 97.7551 254.912 102.353C255.545 109.065 252.543 115.285 245.434 117.331C238.996 119.184 234.164 116.086 229.186 111.961C224.806 108.333 221.339 105.135 222.077 99.8091C222.695 95.3541 229.086 94.9561 229.524 90.4831C229.921 86.4381 223.786 84.7511 225.124 80.8741C226.594 76.6141 231.645 77.0191 236.294 75.5051Z" fill="url(#paint1_linear_4398_245)"/>
</g>
</g>
</g>
</g>
<mask id="mask3_4398_245" style="mask-type:luminance" maskUnits="userSpaceOnUse" x="27" y="51" width="116" height="78">
<path d="M27.2822 51.3535H142.282V128.354H27.2822V51.3535Z" fill="white"/>
</mask>
<g mask="url(#mask3_4398_245)">
<g opacity="0.8">
<path d="M140.085 51.3535H29.4802C28.2662 51.3535 27.2822 52.2145 27.2822 53.2785V67.0735C27.2822 68.1375 28.2662 68.9985 29.4802 68.9985H140.085C141.298 68.9985 142.282 68.1365 142.282 67.0735V53.2785C142.282 52.2145 141.298 51.3535 140.085 51.3535Z" fill="#DDF5F0"/>
<path d="M99.0661 57.7705H61.7091C60.9001 57.7705 60.2441 58.3445 60.2441 59.0535C60.2441 59.7615 60.9001 60.3365 61.7091 60.3365H99.0661C99.8751 60.3365 100.531 59.7615 100.531 59.0535C100.531 58.3435 99.8751 57.7705 99.0661 57.7705Z" fill="#CBD4D4"/>
<path d="M136.422 57.7705H112.983C112.173 57.7705 111.518 58.3445 111.518 59.0535V59.3735C111.518 60.0835 112.173 60.6575 112.983 60.6575H136.422C137.231 60.6575 137.887 60.0825 137.887 59.3745V59.0535C137.887 58.3435 137.231 57.7705 136.422 57.7705Z" fill="#3B927F"/>
<path d="M27.2822 76.3789H141.916M27.2822 93.7039H141.916M27.2822 111.029H141.916M27.2822 128.354H141.916" stroke="#E8EEEE" stroke-width="0.83"/>
<path d="M98.3333 83.4355H60.2433C59.4353 83.4355 58.7793 84.0096 58.7793 84.7186C58.7793 85.4276 59.4353 86.0025 60.2443 86.0025H98.3333C99.1423 86.0025 99.7983 85.4276 99.7983 84.7186C99.7983 84.0096 99.1423 83.4355 98.3333 83.4355ZM136.788 83.4355H117.378C116.568 83.4355 115.913 84.0096 115.913 84.7186C115.913 85.4276 116.568 86.0025 117.378 86.0025H136.788C137.597 86.0025 138.253 85.4276 138.253 84.7186C138.253 84.0096 137.597 83.4355 136.788 83.4355ZM89.5433 100.761H60.2433C59.4353 100.761 58.7793 101.336 58.7793 102.045C58.7793 102.753 59.4353 103.328 60.2443 103.328H89.5443C90.3523 103.328 91.0083 102.753 91.0083 102.045C91.0083 101.336 90.3523 100.761 89.5433 100.761ZM136.789 100.761H121.04C120.231 100.761 119.575 101.336 119.575 102.045C119.575 102.753 120.231 103.328 121.04 103.328H136.789C137.598 103.328 138.254 102.753 138.254 102.045C138.254 101.336 137.598 100.761 136.789 100.761ZM97.6003 118.086H60.2443C59.4343 118.086 58.7793 118.66 58.7793 119.369C58.7793 120.078 59.4353 120.652 60.2443 120.652H97.6003C98.4103 120.652 99.0653 120.078 99.0653 119.369C99.0653 118.66 98.4093 118.086 97.6003 118.086ZM134.591 118.086H117.378C116.568 118.086 115.913 118.66 115.913 119.369C115.913 120.078 116.568 120.652 117.378 120.652H134.591C135.4 120.652 136.056 120.078 136.056 119.369C136.056 118.66 135.4 118.086 134.591 118.086Z" fill="#CFD8D8"/>
</g>
</g>
<g opacity="0.98">
<path d="M208.767 97.1086C209.785 97.1086 210.793 96.908 211.734 96.5183C212.675 96.1285 213.53 95.5573 214.25 94.8372C214.97 94.117 215.541 93.2621 215.931 92.3212C216.32 91.3804 216.521 90.372 216.521 89.3536C216.521 87.2971 215.704 85.3249 214.25 83.8707C212.795 82.4165 210.823 81.5996 208.767 81.5996C206.71 81.5996 204.738 82.4165 203.284 83.8707C201.83 85.3249 201.013 87.2971 201.013 89.3536C201.013 90.372 201.213 91.3804 201.603 92.3212C201.992 93.2621 202.563 94.117 203.283 94.8372C204.003 95.5573 204.858 96.1285 205.799 96.5183C206.74 96.908 207.748 97.1086 208.767 97.1086Z" stroke="#9BCDC6"/>
<path d="M208.767 104.862C217.332 104.862 224.276 97.9177 224.276 89.3527C224.276 80.7877 217.332 73.8438 208.767 73.8438C200.202 73.8438 193.258 80.7877 193.258 89.3527C193.258 97.9177 200.202 104.862 208.767 104.862Z" stroke="#9BCDC6"/>
<path d="M208.767 113.81C222.274 113.81 233.223 102.86 233.223 89.3534C233.223 75.8474 222.274 64.8984 208.767 64.8984C195.26 64.8984 184.311 75.8474 184.311 89.3544C184.311 102.861 195.26 113.81 208.767 113.81Z" stroke="#9BCDC6"/>
</g>
</g>
<path d="M258 39.7637H59C54.8579 39.7637 51.5 43.1215 51.5 47.2637V163.264C51.5 167.406 54.8579 170.764 59 170.764H258C262.142 170.764 265.5 167.406 265.5 163.264V47.2637C265.5 43.1215 262.142 39.7637 258 39.7637Z" stroke="#F2F3F5"/>
</g>
<g opacity="0.67">
<path d="M77.6396 118.965C86.0236 99.7691 119.512 63.4231 178.312 79.3331" stroke="#FFBA0C" stroke-dasharray="2 2"/>
<path d="M210.05 61.5958C215.722 49.8148 223.548 45.6348 235.656 45.6348" stroke="#C44D63" stroke-dasharray="2 2"/>
<path d="M105.004 165.898C113.388 190.404 163.852 190.082 188.036 186.858M246.892 89.3066C267.198 89.3066 281.444 99.7866 283.901 116.491" stroke="white" stroke-dasharray="2 2"/>
<path d="M286.583 113.631L284.591 117.139C284.511 117.279 284.399 117.398 284.263 117.485C284.128 117.573 283.973 117.626 283.812 117.641C283.652 117.655 283.49 117.631 283.341 117.569C283.192 117.508 283.06 117.411 282.956 117.288L280.5 114.366M183.591 184.203L187.132 186.135C187.273 186.212 187.394 186.322 187.484 186.456C187.574 186.59 187.63 186.744 187.647 186.904C187.665 187.065 187.643 187.227 187.584 187.377C187.526 187.527 187.431 187.661 187.31 187.767L184.43 190.272" stroke="white" stroke-linecap="round"/>
</g>
<g filter="url(#filter1_d_4398_245)">
<path d="M320 122H236C231.582 122 228 125.582 228 130V172C228 176.418 231.582 180 236 180H320C324.418 180 328 176.418 328 172V130C328 125.582 324.418 122 320 122Z" fill="white"/>
<path d="M320 122.5H236C231.858 122.5 228.5 125.858 228.5 130V172C228.5 176.142 231.858 179.5 236 179.5H320C324.142 179.5 327.5 176.142 327.5 172V130C327.5 125.858 324.142 122.5 320 122.5Z" stroke="#F2F3F5"/>
<path d="M313.24 134H259.76C258.236 134 257 135.236 257 136.76C257 138.284 258.236 139.52 259.76 139.52H313.24C314.764 139.52 316 138.284 316 136.76C316 135.236 314.764 134 313.24 134Z" fill="#22786C"/>
<path d="M313.24 148.52H259.76C258.236 148.52 257 149.755 257 151.28C257 152.804 258.236 154.04 259.76 154.04H313.24C314.764 154.04 316 152.804 316 151.28C316 149.755 314.764 148.52 313.24 148.52Z" fill="#FFBA0C"/>
<path d="M313.24 163.039H259.76C258.236 163.039 257 164.275 257 165.799C257 167.323 258.236 168.559 259.76 168.559H313.24C314.764 168.559 316 167.323 316 165.799C316 164.275 314.764 163.039 313.24 163.039Z" fill="#C44D63"/>
<path d="M249.5 136.5H240.5C239.672 136.5 239 137.172 239 138C239 138.828 239.672 139.5 240.5 139.5H249.5C250.328 139.5 251 138.828 251 138C251 137.172 250.328 136.5 249.5 136.5Z" fill="#CBD4D4"/>
<path d="M249.5 150.5H240.5C239.672 150.5 239 151.172 239 152C239 152.828 239.672 153.5 240.5 153.5H249.5C250.328 153.5 251 152.828 251 152C251 151.172 250.328 150.5 249.5 150.5Z" fill="#CBD4D4"/>
<path d="M249.5 164.5H240.5C239.672 164.5 239 165.172 239 166C239 166.828 239.672 167.5 240.5 167.5H249.5C250.328 167.5 251 166.828 251 166C251 165.172 250.328 164.5 249.5 164.5Z" fill="#CBD4D4"/>
</g>
<g filter="url(#filter2_d_4398_245)">
<path d="M76 122H34C29.5817 122 26 125.582 26 130V172C26 176.418 29.5817 180 34 180H76C80.4183 180 84 176.418 84 172V130C84 125.582 80.4183 122 76 122Z" fill="white"/>
<path d="M76 122.5H34C29.8579 122.5 26.5 125.858 26.5 130V172C26.5 176.142 29.8579 179.5 34 179.5H76C80.1421 179.5 83.5 176.142 83.5 172V130C83.5 125.858 80.1421 122.5 76 122.5Z" stroke="#F2F3F5"/>
<path d="M63.372 142.742C63.776 143.122 64.269 143.412 64.808 143.546C65.3966 143.707 66.0159 143.72 66.6107 143.583C67.2055 143.447 67.7573 143.165 68.217 142.764C69.495 141.669 69.764 139.635 68.845 138.226C68.823 138.204 68.8 138.159 68.778 138.137C64.942 134.069 59.358 131.744 53.75 132.258C55.949 133.845 56.442 137.176 54.782 139.322C57.877 139.21 60.905 140.439 63.148 142.563" fill="#C44D63"/>
<path d="M50.4415 132.755C42.0175 134.829 36.0865 142.348 36.0635 150.96C36.0732 154.231 36.9389 157.444 38.5746 160.278C40.2103 163.111 42.5591 165.468 45.3875 167.113C44.8035 165.44 45.1845 163.476 46.3755 162.16C46.4655 162.049 46.5555 161.959 46.6675 161.87C47.2126 161.349 47.8643 160.953 48.5775 160.71C46.9461 159.657 45.6028 158.214 44.6692 156.512C43.7356 154.809 43.2411 152.901 43.2305 150.96C43.2525 145.717 46.7805 141.076 51.8805 139.693C52.3285 139.559 52.7335 139.314 53.0925 139.024C54.5085 137.864 54.7775 135.61 53.6545 134.16C53.3237 133.717 52.8927 133.358 52.3968 133.114C51.9009 132.87 51.3542 132.747 50.8015 132.755C50.6827 132.73 50.5603 132.73 50.4415 132.755Z" fill="#FFBA0C"/>
<path d="M70.8376 140.684C70.5456 143.296 67.9876 145.373 65.3396 145.083C65.2716 145.083 65.2046 145.06 65.1376 145.06C66.1927 146.854 66.7502 148.896 66.7526 150.978C66.7526 157.454 61.4796 162.679 54.9946 162.679C53.7376 162.679 52.4806 162.479 51.2916 162.077L51.0216 161.987L50.7526 161.92C49.8326 161.764 48.8456 161.987 48.1046 162.545C47.9476 162.657 47.7906 162.769 47.6566 162.925C47.3114 163.258 47.0363 163.657 46.8474 164.098C46.6585 164.539 46.5596 165.013 46.5566 165.493C46.5566 165.828 46.6016 166.163 46.7136 166.498C46.9639 167.311 47.4975 168.009 48.2176 168.463C50.4106 169.527 52.9486 169.902 55.3986 169.795C57.8486 169.688 60.5696 168.855 62.7856 167.476C64.3776 166.458 65.7236 165.575 66.8936 164.133L66.9256 166.272C66.9276 168.657 68.7256 169.774 70.5476 169.765C72.3436 169.757 73.9376 168.516 73.9376 166.369V151.446L73.9226 151.44C73.9266 151.286 73.9336 151.133 73.9336 150.978C73.9331 147.317 72.8565 143.737 70.8376 140.684Z" fill="#22786C"/>
</g>
<g filter="url(#filter3_d_4398_245)">
<path d="M287 26H245C240.582 26 237 29.5817 237 34V76C237 80.4183 240.582 84 245 84H287C291.418 84 295 80.4183 295 76V34C295 29.5817 291.418 26 287 26Z" fill="white"/>
<path d="M287 26.5H245C240.858 26.5 237.5 29.8579 237.5 34V76C237.5 80.1421 240.858 83.5 245 83.5H287C291.142 83.5 294.5 80.1421 294.5 76V34C294.5 29.8579 291.142 26.5 287 26.5Z" stroke="#F2F3F5"/>
<path d="M255.861 35.0586C253.934 35.0599 252.086 35.8261 250.723 37.1888C249.36 38.5515 248.594 40.3994 248.593 42.3266C248.594 44.2538 249.36 46.1017 250.723 47.4644C252.086 48.8271 253.934 49.5933 255.861 49.5946C257.788 49.5935 259.636 48.8275 260.999 47.4647C262.362 46.102 263.128 44.254 263.13 42.3266C263.128 40.3992 262.362 38.5512 260.999 37.1885C259.636 35.8257 257.788 35.0597 255.861 35.0586ZM255.861 35.6616C256.736 35.6609 257.603 35.8329 258.412 36.1676C259.221 36.5023 259.956 36.9932 260.575 37.6123C261.194 38.2313 261.685 38.9663 262.02 39.7752C262.354 40.5842 262.526 41.4512 262.526 42.3266C262.528 43.6883 262.111 45.0177 261.332 46.1346C261.246 45.9285 261.126 45.7382 260.978 45.5716C260.598 45.1526 260.037 44.9156 259.228 44.7186C259.772 44.6146 260.227 44.4006 260.325 44.1226L260.327 44.1126C260.327 44.1023 260.324 44.0922 260.317 44.0844C260.311 44.0765 260.301 44.0716 260.291 44.0706C259.76 44.0266 259.381 43.5706 259.119 42.9526C258.756 42.0926 258.623 40.9186 258.627 40.0826V40.0776C258.598 39.7613 258.524 39.4507 258.407 39.1556C258.192 38.6053 257.796 38.1447 257.284 37.8496C256.805 37.5773 256.254 37.461 255.706 37.5166C255.45 37.5419 255.2 37.6035 254.962 37.6996C253.389 38.3356 253.292 39.8296 253.203 41.2146C253.185 41.4946 253.167 41.7716 253.137 42.0366C253.101 42.4149 253.014 42.7867 252.878 43.1416C252.669 43.5646 252.396 43.8876 252.046 44.0146C251.957 44.044 251.864 44.0627 251.771 44.0706L251.76 44.0726C251.75 44.0762 251.742 44.0834 251.738 44.0928C251.733 44.1021 251.733 44.1128 251.736 44.1226C251.742 44.1411 251.75 44.1592 251.759 44.1766L251.786 44.1816C251.924 44.4316 252.351 44.6216 252.855 44.7186C252.047 44.9156 251.486 45.1526 251.106 45.5716C250.892 45.8076 250.742 46.1016 250.64 46.4686C249.703 45.2914 249.194 43.831 249.196 42.3266C249.195 41.4512 249.367 40.5842 249.702 39.7752C250.036 38.9663 250.527 38.2313 251.146 37.6123C251.765 36.9932 252.5 36.5023 253.309 36.1676C254.118 35.8329 254.985 35.6609 255.861 35.6616ZM256.83 38.6726C257.018 39.5326 257.385 40.1046 257.947 40.3646C257.98 40.5333 258.004 40.6999 258.019 40.8646C258.11 41.8896 257.927 42.4026 257.239 43.1646C256.927 43.4946 256.492 43.6836 256.05 43.7076C255.593 43.689 255.161 43.4944 254.845 43.1646C254.623 42.9304 254.433 42.6682 254.279 42.3846C254.098 41.9496 254.067 41.5446 254.084 40.9296C254.087 40.8049 254.089 40.6739 254.09 40.5366C254.596 40.2386 256.605 40.3096 256.83 38.6726ZM256.981 43.7416C256.909 44.0616 257.016 44.2996 257.232 44.4686C257.373 44.5786 257.562 44.6586 257.776 44.7106C257.845 44.7279 257.917 44.7423 257.991 44.7536C258.205 44.8126 258.412 44.8536 258.56 44.8836L258.584 44.8886C258.757 44.9226 258.92 44.9576 259.073 44.9936C258.093 45.9936 257.134 46.4786 256.195 46.5176V46.5116C256.163 46.5143 256.133 46.5166 256.103 46.5186H255.981C255.583 46.5035 255.192 46.4168 254.826 46.2626L254.836 46.2856C254.236 46.0476 253.628 45.6226 253.011 44.9936C253.164 44.9583 253.327 44.9233 253.499 44.8886L253.524 44.8826L253.601 44.8676L253.607 44.8706C253.866 44.8286 254.181 44.7726 254.439 44.6736C254.599 44.6236 254.741 44.5556 254.852 44.4686C254.956 44.3921 255.036 44.287 255.082 44.1659C255.128 44.0449 255.138 43.9131 255.111 43.7866C255.417 43.9626 255.728 44.0473 256.042 44.0406C256.092 44.0413 256.143 44.0399 256.195 44.0366V44.0296C256.459 43.9983 256.721 43.9023 256.981 43.7416Z" fill="#C44D63"/>
<path d="M282.5 59H249.5C248.672 59 248 59.6716 248 60.5C248 61.3284 248.672 62 249.5 62H282.5C283.328 62 284 61.3284 284 60.5C284 59.6716 283.328 59 282.5 59Z" fill="#CBD4D4"/>
<path d="M272.013 68H249.5C248.672 68 248 68.6716 248 69.5C248 70.3284 248.672 71 249.5 71H272.013C272.841 71 273.513 70.3284 273.513 69.5C273.513 68.6716 272.841 68 272.013 68Z" fill="#CBD4D4"/>
</g>
</g>
<defs>
<filter id="filter0_d_4398_245" x="25" y="13.2637" width="275" height="192" filterUnits="userSpaceOnUse" color-interpolation-filters="sRGB">
<feFlood flood-opacity="0" result="BackgroundImageFix"/>
<feColorMatrix in="SourceAlpha" type="matrix" values="0 0 0 0 0 0 0 0 0 0 0 0 0 0 0 0 0 0 127 0" result="hardAlpha"/>
<feOffset dx="4" dy="4"/>
<feGaussianBlur stdDeviation="15"/>
<feComposite in2="hardAlpha" operator="out"/>
<feColorMatrix type="matrix" values="0 0 0 0 0.448737 0 0 0 0 0.542361 0 0 0 0 0.528986 0 0 0 0.25 0"/>
<feBlend mode="normal" in2="BackgroundImageFix" result="effect1_dropShadow_4398_245"/>
<feBlend mode="normal" in="SourceGraphic" in2="effect1_dropShadow_4398_245" result="shape"/>
</filter>
<filter id="filter1_d_4398_245" x="202" y="96" width="160" height="118" filterUnits="userSpaceOnUse" color-interpolation-filters="sRGB">
<feFlood flood-opacity="0" result="BackgroundImageFix"/>
<feColorMatrix in="SourceAlpha" type="matrix" values="0 0 0 0 0 0 0 0 0 0 0 0 0 0 0 0 0 0 127 0" result="hardAlpha"/>
<feOffset dx="4" dy="4"/>
<feGaussianBlur stdDeviation="15"/>
<feComposite in2="hardAlpha" operator="out"/>
<feColorMatrix type="matrix" values="0 0 0 0 0.448737 0 0 0 0 0.542361 0 0 0 0 0.528986 0 0 0 0.25 0"/>
<feBlend mode="normal" in2="BackgroundImageFix" result="effect1_dropShadow_4398_245"/>
<feBlend mode="normal" in="SourceGraphic" in2="effect1_dropShadow_4398_245" result="shape"/>
</filter>
<filter id="filter2_d_4398_245" x="0" y="96" width="118" height="118" filterUnits="userSpaceOnUse" color-interpolation-filters="sRGB">
<feFlood flood-opacity="0" result="BackgroundImageFix"/>
<feColorMatrix in="SourceAlpha" type="matrix" values="0 0 0 0 0 0 0 0 0 0 0 0 0 0 0 0 0 0 127 0" result="hardAlpha"/>
<feOffset dx="4" dy="4"/>
<feGaussianBlur stdDeviation="15"/>
<feComposite in2="hardAlpha" operator="out"/>
<feColorMatrix type="matrix" values="0 0 0 0 0.448737 0 0 0 0 0.542361 0 0 0 0 0.528986 0 0 0 0.25 0"/>
<feBlend mode="normal" in2="BackgroundImageFix" result="effect1_dropShadow_4398_245"/>
<feBlend mode="normal" in="SourceGraphic" in2="effect1_dropShadow_4398_245" result="shape"/>
</filter>
<filter id="filter3_d_4398_245" x="211" y="0" width="118" height="118" filterUnits="userSpaceOnUse" color-interpolation-filters="sRGB">
<feFlood flood-opacity="0" result="BackgroundImageFix"/>
<feColorMatrix in="SourceAlpha" type="matrix" values="0 0 0 0 0 0 0 0 0 0 0 0 0 0 0 0 0 0 127 0" result="hardAlpha"/>
<feOffset dx="4" dy="4"/>
<feGaussianBlur stdDeviation="15"/>
<feComposite in2="hardAlpha" operator="out"/>
<feColorMatrix type="matrix" values="0 0 0 0 0.448737 0 0 0 0 0.542361 0 0 0 0 0.528986 0 0 0 0.25 0"/>
<feBlend mode="normal" in2="BackgroundImageFix" result="effect1_dropShadow_4398_245"/>
<feBlend mode="normal" in="SourceGraphic" in2="effect1_dropShadow_4398_245" result="shape"/>
</filter>
<linearGradient id="paint0_linear_4398_245" x1="147.605" y1="30.0057" x2="218.955" y2="145.539" gradientUnits="userSpaceOnUse">
<stop stop-color="#DDF3F0" stop-opacity="0.72"/>
<stop offset="1" stop-color="#A7D7CF" stop-opacity="0.52"/>
</linearGradient>
<linearGradient id="paint1_linear_4398_245" x1="228.847" y1="74.0921" x2="257.921" y2="130.797" gradientUnits="userSpaceOnUse">
<stop stop-color="#5FB0A3"/>
<stop offset="1" stop-color="#2E7468"/>
</linearGradient>
<clipPath id="clip0_4398_245">
<rect width="347" height="214" fill="white"/>
</clipPath>
</defs>
</svg>
