<svg xmlns="http://www.w3.org/2000/svg" width="398" height="224" fill="none"><g clip-path="url(#a)"><path fill="#fff" d="M0 0h398v224H0z"/><g clip-path="url(#b)"><path fill="#fff" d="M0 0h398v224H0z"/><g filter="url(#c)" opacity=".4"><path fill="#deede8" d="M25.178 238.7h1a4166.49 4166.49 0 0 0 7.373-184.747c.175-11.893 7.563-18.371 19.656-18.103 9.943.073 19.997.11 30.083.11 78.219 0 156.097-2.169 234.286-6.504 8.698-.48 17.236-.986 25.851-1.518v-1c-8.615-.533-17.153-1.04-25.851-1.52A4226 4226 0 0 0 83.29 18.917c-10.086 0-20.14.036-30.083.11-8.44.011-18.323 2.303-25.596 9.34-7.325 6.972-10 16.999-9.805 25.587A4167 4167 0 0 0 25.178 238.7"/></g><rect width="404.459" height="263.59" x="30" y="30" fill="url(#d)" stroke="url(#e)" rx="24"/></g><circle cx="93.84" cy="139.986" r="31.074" fill="#fee9dd"/><path stroke="#d98252" stroke-width="2.062" d="M93.836 127.567c1.054 0 1.908-.872 1.908-1.948 0-1.075-.854-1.947-1.908-1.947s-1.909.872-1.909 1.947.855 1.948 1.909 1.948ZM85.483 136.107c0-1.077-.853-1.951-1.905-1.951s-1.905.874-1.905 1.951c0 1.078.853 1.951 1.905 1.951s1.905-.873 1.905-1.951ZM105.999 136.107c0-1.077-.853-1.951-1.905-1.951s-1.905.874-1.905 1.951c0 1.078.853 1.951 1.905 1.951s1.905-.873 1.905-1.951ZM87.855 142.07a1.88 1.88 0 0 0-2.697-.003 1.98 1.98 0 0 0 .004 2.757 1.88 1.88 0 0 0 2.696.003 1.98 1.98 0 0 0-.004-2.757ZM102.362 127.24a1.88 1.88 0 0 0-2.697-.003 1.98 1.98 0 0 0 .004 2.757 1.88 1.88 0 0 0 2.697.003 1.98 1.98 0 0 0-.004-2.757ZM99.818 142.142a1.88 1.88 0 0 1 2.697-.003 1.98 1.98 0 0 1-.004 2.757 1.88 1.88 0 0 1-2.697.003 1.98 1.98 0 0 1 .004-2.757ZM85.236 127.314a1.88 1.88 0 0 1 2.697-.003 1.98 1.98 0 0 1-.004 2.757 1.88 1.88 0 0 1-2.697.003 1.98 1.98 0 0 1 .004-2.757Z"/><path stroke="#d98252" stroke-linecap="round" stroke-linejoin="round" stroke-width="2.062" d="M87.828 152.457c3.917-10.25 4.063-10.711 6.008-16.182"/><path stroke="#d98252" stroke-linecap="square" stroke-linejoin="round" stroke-width="2.062" d="M76.036 156.279h35.608"/><path stroke="#d98252" stroke-linecap="round" stroke-linejoin="round" stroke-width="2.062" d="M79.716 155.347c0-.974 1.155-2.89 3.498-2.89h11.72"/><path stroke="#d98252" stroke-linecap="round" stroke-linejoin="round" stroke-width="2.062" d="M107.939 155.347c0-.974-1.156-2.89-3.499-2.89H92.72M93.833 144.645c4.613 0 8.353-3.823 8.353-8.539 0-4.717-3.74-8.54-8.353-8.54-4.614 0-8.354 3.823-8.354 8.54s3.74 8.539 8.354 8.539M99.91 152.456l-2.32-4.983"/><rect width="201.159" height="24.383" x="154.914" y="102.295" fill="#c44d63" fill-opacity=".84" rx="5.279"/><path stroke="#fff" stroke-width="1.32" d="M172.531 108.842a.66.66 0 0 1 1.089 0l1.328 1.938c.258.376.637.651 1.073.78l2.253.664a.66.66 0 0 1 .337 1.036l-1.432 1.861a1.98 1.98 0 0 0-.41 1.262l.064 2.348a.66.66 0 0 1-.881.64l-2.214-.787a1.98 1.98 0 0 0-1.326 0l-2.214.787a.66.66 0 0 1-.88-.64l.065-2.348a2 2 0 0 0-.41-1.262l-1.433-1.861a.66.66 0 0 1 .336-1.036l2.254-.664a1.98 1.98 0 0 0 1.073-.78z"/><path fill="#fff" d="M185.853 110.696h7.522v9.238h-1.584v-7.866h-4.354v7.866h-1.584zm10.293 2.243h1.346v1.175q.318-.608.937-.963a2.86 2.86 0 0 1 1.426-.357q1.372 0 2.164.858t.792 2.587v.263q0 .898-.212 1.571-.21.673-.607 1.122-.383.435-.923.659-.542.225-1.214.225-.752 0-1.373-.33a1.9 1.9 0 0 1-.884-.924v3.748h-1.452zm3.365 5.873q.819 0 1.32-.568.502-.567.502-1.742v-.263q0-1.109-.489-1.637-.487-.541-1.333-.541-.369 0-.712.119a1.9 1.9 0 0 0-.62.356q-.264.224-.423.581a1.9 1.9 0 0 0-.158.792v.923q0 .502.158.871.159.37.423.621.264.25.607.369a2.2 2.2 0 0 0 .725.119m5.414-5.873h1.452v4.949l3.365-4.949h1.386v6.995h-1.452v-4.949l-3.365 4.949h-1.386zm11.75 7.14q-.726 0-1.359-.225a3.15 3.15 0 0 1-1.083-.686 3.2 3.2 0 0 1-.725-1.108q-.264-.673-.264-1.558v-.263q0-.832.264-1.465a3.05 3.05 0 0 1 1.808-1.755q.633-.225 1.359-.225t1.346.225q.633.223 1.095.673.462.435.726 1.082.264.633.264 1.465v.263q0 .885-.264 1.558a3.15 3.15 0 0 1-.726 1.108 3.1 3.1 0 0 1-1.095.686 3.9 3.9 0 0 1-1.346.225m0-1.267q.382 0 .726-.132.356-.132.62-.409.278-.277.435-.713.172-.435.172-1.056v-.263q0-.568-.172-.977a1.8 1.8 0 0 0-1.055-1.069 2.109 2.109 0 0 0-1.465 0q-.344.132-.62.396-.264.264-.436.673a2.7 2.7 0 0 0-.158.977v.263q0 .621.158 1.056.171.436.436.713.276.277.62.409.356.132.739.132m5.537-5.873h1.346v1.175q.317-.608.937-.963a2.86 2.86 0 0 1 1.425-.357q1.373 0 2.165.858t.792 2.587v.263q0 .898-.212 1.571-.21.673-.607 1.122-.383.435-.923.659a3.1 3.1 0 0 1-1.215.225q-.751 0-1.372-.33a1.9 1.9 0 0 1-.884-.924v3.748h-1.452zm3.365 5.873q.819 0 1.32-.568.502-.567.502-1.742v-.263q0-1.109-.489-1.637-.488-.541-1.333-.541-.369 0-.712.119a1.9 1.9 0 0 0-.62.356q-.264.224-.423.581a1.9 1.9 0 0 0-.158.792v.923q0 .502.158.871.159.37.423.621.263.25.607.369a2.2 2.2 0 0 0 .725.119m5.414-5.873h1.452v4.949l3.365-4.949h1.385v6.995h-1.451v-4.949l-3.365 4.949h-1.386zm10.364 1.241h-2.309v-1.241h6.07v1.241h-2.309v5.754h-1.452zm8.515 5.899q-.699 0-1.32-.211a3.25 3.25 0 0 1-1.095-.66 3.3 3.3 0 0 1-.739-1.122q-.277-.673-.277-1.584v-.263q0-.871.264-1.518.264-.646.712-1.069.462-.435 1.056-.647.594-.21 1.267-.211 1.597 0 2.441.858.858.858.858 2.455v.739h-5.12q.014.54.171.923.172.37.436.607.277.225.62.33.357.106.726.106.752 0 1.095-.238.357-.237.489-.62h1.451q-.211 1.042-1.042 1.584-.819.54-1.993.541m-.066-6.018a2.8 2.8 0 0 0-.713.092q-.33.093-.593.304a1.5 1.5 0 0 0-.41.528 1.9 1.9 0 0 0-.171.778h3.669a2.2 2.2 0 0 0-.159-.818 1.3 1.3 0 0 0-.369-.528 1.4 1.4 0 0 0-.568-.277 2.8 2.8 0 0 0-.686-.079m6.866.119h-2.309v-1.241h6.07v1.241h-2.309v5.754h-1.452zm5.609-1.241h1.452v2.811h3.299v-2.811h1.451v6.995h-1.451v-2.943h-3.299v2.943h-1.452zm10.76 7.14a3 3 0 0 1-1.016-.159 2.2 2.2 0 0 1-.739-.461 2.1 2.1 0 0 1-.462-.7 2.3 2.3 0 0 1-.159-.871q0-1.043.621-1.544.62-.515 1.821-.515h2.177v-.382q0-.792-.356-1.082-.344-.304-1.095-.304-.673 0-.99.211a.81.81 0 0 0-.37.581h-1.412q.027-.449.225-.818.21-.382.567-.66.37-.278.884-.422a4 4 0 0 1 1.162-.159q.647 0 1.161.145.528.145.897.462.37.305.568.792.21.489.211 1.175v2.784q0 .555.013.977.013.408.066.805h-1.32l-.066-.515a10 10 0 0 1-.013-.528q-.25.489-.871.845-.606.343-1.504.343m.396-1.267q.369 0 .699-.092.344-.107.594-.291a1.5 1.5 0 0 0 .396-.475q.158-.29.158-.66v-.382h-1.913q-.555 0-.898.237-.33.237-.33.7 0 .435.304.699.317.264.99.264m7.104-1.531q-.792-.237-1.175-.779-.383-.54-.383-1.306 0-1.03.687-1.636.686-.621 2.085-.621h3.167v6.995h-1.452v-2.481h-1.504l-1.557 2.481h-1.69zm-.08-2.085q0 .554.33.792.33.224.898.224h1.781v-2.032h-1.781q-.568 0-.898.237-.33.225-.33.779m10.93-2.257h4.883v1.241h-3.432v5.754h-1.451zm6.73 0h1.346v1.175a2.34 2.34 0 0 1 .937-.963 2.85 2.85 0 0 1 1.425-.357q1.372 0 2.164.858t.792 2.587v.263q0 .898-.211 1.571a3.1 3.1 0 0 1-.607 1.122q-.382.435-.924.659-.541.225-1.214.225-.752 0-1.373-.33a1.9 1.9 0 0 1-.884-.924v3.748h-1.451zm3.365 5.873q.818 0 1.319-.568.502-.567.502-1.742v-.263q0-1.109-.488-1.637-.489-.541-1.333-.541-.37 0-.713.119a1.9 1.9 0 0 0-.62.356q-.264.224-.422.581a1.9 1.9 0 0 0-.159.792v.923q0 .502.159.871.158.37.422.621.264.25.607.369.344.119.726.119m6.277 3.906a2 2 0 0 1-.396-.04v-1.266q.198.039.396.039.225 0 .37-.079a.62.62 0 0 0 .277-.251 2 2 0 0 0 .251-.462q.132-.29.29-.725l-2.969-6.995h1.583l2.138 5.411 1.927-5.411h1.478l-2.705 6.995q-.29.739-.541 1.266a3.5 3.5 0 0 1-.555.858 1.8 1.8 0 0 1-.659.502 2.3 2.3 0 0 1-.885.158m7.194-9.779h6.07v6.995h-1.452v-5.754h-3.167v5.754h-1.451zm8.572 0h6.071v6.995h-1.452v-5.754h-3.167v5.754h-1.452zm10.618 7.14a3 3 0 0 1-1.016-.159 2.3 2.3 0 0 1-.739-.461 2.1 2.1 0 0 1-.462-.7 2.3 2.3 0 0 1-.158-.871q0-1.043.62-1.544.621-.515 1.821-.515h2.178v-.382q0-.792-.357-1.082-.342-.304-1.095-.304-.673 0-.99.211a.81.81 0 0 0-.369.581h-1.412q.026-.449.224-.818.211-.382.568-.66.37-.278.884-.422.514-.159 1.161-.159t1.161.145q.528.145.898.462.369.305.567.792.211.489.211 1.175v2.784q0 .555.014.977.012.408.066.805h-1.32l-.066-.515a9 9 0 0 1-.013-.528q-.251.489-.871.845-.607.343-1.505.343m.396-1.267q.37 0 .7-.092.342-.107.594-.291.25-.198.395-.475.159-.29.159-.66v-.382h-1.914q-.553 0-.897.237-.33.237-.33.7 0 .435.303.699.318.264.99.264"/><path fill="#585b60" d="M156.894 136.278h2.64v6.446h1.54l5.588-6.446h2.992l-6.49 7.326 6.71 8.074h-3.212l-5.588-6.886h-1.54v6.886h-2.64zm18.266 15.642q-.945 0-1.694-.264a3.8 3.8 0 0 1-1.232-.77 3.45 3.45 0 0 1-.77-1.166 3.9 3.9 0 0 1-.264-1.452q0-1.738 1.034-2.574 1.035-.858 3.036-.858h3.63v-.638q0-1.32-.594-1.804-.572-.507-1.826-.506-1.122 0-1.65.352a1.35 1.35 0 0 0-.616.968h-2.354q.044-.749.374-1.364.352-.639.946-1.1a4.4 4.4 0 0 1 1.474-.704q.858-.264 1.936-.264t1.936.242a3.8 3.8 0 0 1 1.496.77q.616.505.946 1.32.352.813.352 1.958v4.642q0 .923.022 1.628.023.681.11 1.342h-2.2l-.11-.858a15 15 0 0 1-.022-.88q-.417.814-1.452 1.408-1.011.572-2.508.572m.66-2.112q.617 0 1.166-.154.573-.177.99-.484.418-.33.66-.792.264-.485.264-1.1v-.638h-3.19q-.924 0-1.496.396-.55.395-.55 1.166 0 .726.506 1.166.528.44 1.65.44m8.257 2.112q-.175 0-.396-.022-.197 0-.374-.044v-2.288q.111.022.33.022.462 0 .792-.264.33-.287.528-.968.22-.705.33-1.87t.11-2.948v-3.52h8.8v11.66h-2.42v-9.592h-4.048v1.892q0 2.353-.242 3.894-.22 1.517-.682 2.42-.462.901-1.144 1.276-.681.352-1.584.352m13.197-11.902h2.42v8.25l5.61-8.25h2.31v11.66h-2.42v-8.25l-5.61 8.25h-2.31zm13.428 0h2.42v4.686h5.5v-4.686h2.42v11.66h-2.42v-4.906h-5.5v4.906h-2.42zm13.427 0h2.42v8.25l5.61-8.25h2.31v11.66h-2.42v-8.25l-5.61 8.25h-2.31zm13.428 0h2.42v4.686h5.5v-4.686h2.42v11.66h-2.42v-4.906h-5.5v4.906h-2.42zm13.428 0h8.14v2.068h-5.72v9.592h-2.42zm10.119 0h2.244v1.958a3.9 3.9 0 0 1 1.562-1.606q1.056-.594 2.376-.594 2.288 0 3.608 1.43t1.32 4.312v.44q0 1.496-.352 2.618t-1.012 1.87q-.638.726-1.54 1.1t-2.024.374a4.8 4.8 0 0 1-2.288-.55q-1.034-.55-1.474-1.54v6.248h-2.42zm5.61 9.79q1.364 0 2.2-.946t.836-2.904v-.44q0-1.848-.814-2.728-.814-.903-2.222-.902-.617 0-1.188.198-.572.198-1.034.594a2.7 2.7 0 0 0-.704.968q-.264.571-.264 1.32v1.54q0 .835.264 1.452.264.615.704 1.034.44.417 1.012.616.572.198 1.21.198m11.335 2.112q-.946 0-1.694-.264a3.8 3.8 0 0 1-1.232-.77 3.45 3.45 0 0 1-.77-1.166 3.9 3.9 0 0 1-.264-1.452q0-1.738 1.034-2.574 1.034-.858 3.036-.858h3.63v-.638q0-1.32-.594-1.804-.572-.507-1.826-.506-1.122 0-1.65.352a1.35 1.35 0 0 0-.616.968h-2.354q.044-.749.374-1.364.352-.639.946-1.1a4.4 4.4 0 0 1 1.474-.704q.858-.264 1.936-.264t1.936.242a3.8 3.8 0 0 1 1.496.77q.616.505.946 1.32.352.813.352 1.958v4.642q0 .923.022 1.628.022.681.11 1.342h-2.2l-.11-.858a14 14 0 0 1-.022-.88q-.418.814-1.452 1.408-1.013.572-2.508.572m.66-2.112q.616 0 1.166-.154a3.3 3.3 0 0 0 .99-.484q.418-.33.66-.792.264-.485.264-1.1v-.638h-3.19q-.924 0-1.496.396-.55.395-.55 1.166 0 .726.506 1.166.528.44 1.65.44m7.377-.198h1.32q.22-.33.396-.99.198-.66.33-1.496a22 22 0 0 0 .198-1.826q.066-.99.066-1.98v-3.3h8.69v9.592h1.54v4.818h-2.244v-2.75h-8.052v2.75h-2.244zm8.58 0v-7.524h-3.938v1.672a26 26 0 0 1-.198 3.256q-.198 1.54-.66 2.596z"/><path fill="#a2a2a2" d="M156.174 164.878h3.57q1.974 0 2.912.854.938.84.938 2.268t-.938 2.282q-.938.84-2.912.84h-1.89v3.556h-1.68zm3.43 4.788q.657 0 1.106-.098a2.1 2.1 0 0 0 .714-.308q.266-.21.378-.518.112-.322.112-.742t-.112-.728a1.15 1.15 0 0 0-.378-.518q-.267-.21-.714-.308a4.6 4.6 0 0 0-1.106-.112h-1.75v3.332zm7.565 5.166q-.602 0-1.078-.168a2.4 2.4 0 0 1-.784-.49 2.2 2.2 0 0 1-.49-.742 2.5 2.5 0 0 1-.168-.924q0-1.107.658-1.638.658-.546 1.932-.546h2.31v-.406q0-.84-.378-1.148-.364-.322-1.162-.322-.714 0-1.05.224a.85.85 0 0 0-.392.616h-1.498q.028-.477.238-.868.224-.406.602-.7.392-.294.938-.448a4.2 4.2 0 0 1 1.232-.168q.686 0 1.232.154.56.153.952.49.392.321.602.84.224.517.224 1.246v2.954q0 .588.014 1.036.014.434.07.854h-1.4l-.07-.546a10 10 0 0 1-.014-.56q-.266.518-.924.896-.644.363-1.596.364m.42-1.344q.392 0 .742-.098.364-.113.63-.308.266-.21.42-.504a1.44 1.44 0 0 0 .168-.7v-.406h-2.03q-.588 0-.952.252-.35.252-.35.742 0 .462.322.742.336.28 1.05.28m8.124 1.344q-1.512 0-2.338-.616-.812-.63-.882-1.778h1.568q.07.504.448.784.378.266 1.176.266.953 0 1.316-.308a.97.97 0 0 0 .364-.77q0-.42-.322-.658-.308-.252-1.092-.252h-1.218v-1.204h1.12q.644 0 .938-.266a.87.87 0 0 0 .294-.672q0-.364-.308-.63-.308-.28-1.064-.28-.811 0-1.134.266a1.14 1.14 0 0 0-.378.714h-1.568q.07-1.065.854-1.694.798-.63 2.226-.63 1.527 0 2.226.602.714.602.714 1.568 0 .531-.266.938-.252.406-.84.616.784.196 1.078.658.308.462.308 1.064 0 .476-.196.896-.195.42-.602.728-.392.307-1.008.49a5.3 5.3 0 0 1-1.414.168m4.763-7.574h3.5q1.4 0 2.03.574.63.56.63 1.442 0 .49-.294.952a1.44 1.44 0 0 1-.826.602q.685.167 1.036.644.364.462.364 1.092 0 .966-.644 1.54-.645.574-2.016.574h-3.78zm3.57 6.104q.756 0 1.036-.238.294-.252.294-.7t-.294-.672q-.28-.238-1.036-.238h-2.03v1.848zm-.21-3.052q.7 0 .98-.224a.8.8 0 0 0 .28-.644q0-.406-.28-.63-.28-.238-.98-.238h-1.82v1.736zm4.484 4.522q-.113 0-.252-.014-.126 0-.238-.028v-1.456q.07.014.21.014a.78.78 0 0 0 .504-.168q.21-.183.336-.616.14-.449.21-1.19.07-.742.07-1.876v-2.24h5.6v7.42h-1.54v-6.104h-2.576v1.204q0 1.497-.154 2.478-.14.966-.434 1.54-.294.573-.728.812a2.2 2.2 0 0 1-1.008.224m11.618 0a4.3 4.3 0 0 1-1.4-.224 3.4 3.4 0 0 1-1.162-.7 3.5 3.5 0 0 1-.784-1.19q-.294-.714-.294-1.68v-.28q0-.924.28-1.61.279-.687.756-1.134.49-.462 1.12-.686t1.344-.224q1.693 0 2.59.91.91.909.91 2.604v.784h-5.432q.014.573.182.98.182.392.462.644.294.237.658.35.377.112.77.112.798 0 1.162-.252.378-.252.518-.658h1.54q-.225 1.105-1.106 1.68-.869.574-2.114.574m-.07-6.384a2.9 2.9 0 0 0-.756.098 1.7 1.7 0 0 0-.63.322q-.266.21-.434.56a1.96 1.96 0 0 0-.182.826h3.892q-.015-.519-.168-.868a1.4 1.4 0 0 0-.392-.56 1.46 1.46 0 0 0-.602-.294 3 3 0 0 0-.728-.084m4.971-1.19h1.54v3.01h.84l2.604-3.01h1.736l-3.15 3.542 3.29 3.878h-1.876l-2.604-3.15h-.84v3.15h-1.54zm10.154 7.574q-.601 0-1.078-.168a2.4 2.4 0 0 1-.784-.49 2.2 2.2 0 0 1-.49-.742 2.5 2.5 0 0 1-.168-.924q0-1.107.658-1.638.659-.546 1.932-.546h2.31v-.406q0-.84-.378-1.148-.363-.322-1.162-.322-.714 0-1.05.224a.86.86 0 0 0-.392.616h-1.498q.028-.477.238-.868.225-.406.602-.7.393-.294.938-.448a4.2 4.2 0 0 1 1.232-.168q.686 0 1.232.154.56.153.952.49.393.321.602.84.225.517.224 1.246v2.954q0 .588.014 1.036.015.434.07.854h-1.4l-.07-.546a10 10 0 0 1-.014-.56q-.266.518-.924.896-.643.363-1.596.364m.42-1.344q.393 0 .742-.098.365-.113.63-.308a1.5 1.5 0 0 0 .42-.504 1.44 1.44 0 0 0 .168-.7v-.406h-2.03q-.588 0-.952.252-.35.252-.35.742 0 .462.322.742.336.28 1.05.28m7.008-4.914h-2.45v-1.316h6.44v1.316h-2.45v6.104h-1.54zm8.333 6.258q-.741 0-1.4-.224a3.4 3.4 0 0 1-1.162-.7 3.5 3.5 0 0 1-.784-1.19q-.294-.714-.294-1.68v-.28q0-.924.28-1.61.28-.687.756-1.134.49-.462 1.12-.686t1.344-.224q1.695 0 2.59.91.91.909.91 2.604v.784h-5.432q.014.573.182.98.183.392.462.644.294.237.658.35.378.112.77.112.798 0 1.162-.252.378-.252.518-.658h1.54q-.224 1.105-1.106 1.68-.867.574-2.114.574m-.07-6.384q-.392 0-.756.098a1.75 1.75 0 0 0-.63.322q-.266.21-.434.56-.167.336-.182.826h3.892q-.013-.519-.168-.868a1.4 1.4 0 0 0-.392-.56 1.45 1.45 0 0 0-.602-.294 3 3 0 0 0-.728-.084m4.695 6.384q-.112 0-.252-.014-.126 0-.238-.028v-1.456q.069.014.21.014a.78.78 0 0 0 .504-.168q.21-.183.336-.616.14-.449.21-1.19.07-.742.07-1.876v-2.24h5.6v7.42h-1.54v-6.104h-2.576v1.204q0 1.497-.154 2.478-.14.966-.434 1.54-.294.573-.728.812-.435.224-1.008.224m8.537-7.574h1.54v2.604h1.68q1.428 0 2.114.616.686.601.686 1.792 0 1.119-.672 1.764-.672.644-2.128.644h-3.22zm3.08 6.104q.77 0 1.078-.266.322-.28.322-.826t-.322-.812q-.307-.28-1.078-.28h-1.54v2.184zm4.341-6.104h1.54v2.982h3.5v-2.982h1.54v7.42h-1.54v-3.122h-3.5v3.122h-1.54zm8.545 0h1.54v2.604h1.4q1.428 0 2.114.616.686.601.686 1.792 0 1.119-.672 1.764-.672.644-2.128.644h-2.94zm2.8 6.104q.77 0 1.078-.266.322-.28.322-.826t-.322-.812q-.308-.28-1.078-.28h-1.26v2.184zm3.92-6.104h1.54v7.42h-1.54zm3.506 0h1.54v5.25l3.57-5.25h1.47v7.42h-1.54v-5.25l-3.57 5.25h-1.47zm3.29-.84q-1.162 0-1.708-.504-.531-.519-.532-1.456h1.428q0 .504.196.728.21.224.616.224t.602-.224q.21-.224.21-.728h1.428q0 .937-.546 1.456-.545.504-1.694.504m10.505 2.156h-2.45v-1.316h6.44v1.316h-2.45v6.104h-1.54zm6.714 9.058q-.21 0-.42-.042v-1.344q.21.042.42.042a.8.8 0 0 0 .392-.084.67.67 0 0 0 .294-.266q.14-.183.266-.49.14-.308.308-.77l-3.15-7.42h1.68l2.268 5.74 2.044-5.74h1.568l-2.87 7.42q-.309.783-.574 1.344a3.7 3.7 0 0 1-.588.91q-.309.363-.7.532a2.4 2.4 0 0 1-.938.168m6.931-10.374h1.428v1.246q.336-.645.994-1.022a3.03 3.03 0 0 1 1.512-.378q1.456 0 2.296.91t.84 2.744v.28q0 .951-.224 1.666a3.2 3.2 0 0 1-.644 1.19 2.6 2.6 0 0 1-.98.7 3.35 3.35 0 0 1-1.288.238 3.06 3.06 0 0 1-1.456-.35q-.658-.35-.938-.98v3.976h-1.54zm3.57 6.23q.868 0 1.4-.602.532-.603.532-1.848v-.28q0-1.176-.518-1.736-.518-.574-1.414-.574-.392 0-.756.126t-.658.378a1.7 1.7 0 0 0-.448.616 2 2 0 0 0-.168.84v.98q0 .531.168.924.168.391.448.658.28.266.644.392t.77.126m5.043-6.23h1.54v5.25l3.57-5.25h1.47v7.42h-1.54v-5.25l-3.57 5.25h-1.47zm11.275 7.574q-1.512 0-2.338-.616-.811-.63-.882-1.778h1.568q.07.504.448.784.378.266 1.176.266.952 0 1.316-.308a.97.97 0 0 0 .364-.77q0-.42-.322-.658-.308-.252-1.092-.252h-1.218v-1.204h1.12q.644 0 .938-.266a.87.87 0 0 0 .294-.672q0-.364-.308-.63-.308-.28-1.064-.28-.811 0-1.134.266a1.14 1.14 0 0 0-.378.714h-1.568q.07-1.065.854-1.694.798-.63 2.226-.63 1.526 0 2.226.602.714.602.714 1.568 0 .531-.266.938-.252.406-.84.616.784.196 1.078.658.308.462.308 1.064 0 .476-.196.896t-.602.728q-.392.307-1.008.49a5.3 5.3 0 0 1-1.414.168m4.762-7.574h1.736l2.366 4.34 2.366-4.34h1.652v7.42h-1.54v-5.11l-1.96 3.57h-1.12l-1.96-3.57v5.11h-1.54z"/><path fill="#22786c" d="M62.766 74.536V27.438h20.969l-.001 47.098-11.036-7.725z"/><path fill="#707877" d="m65.418 76.55.001-47.099h20.968V76.55L75.35 68.825z" opacity=".2"/><path fill="#32786e" d="M103.823 58.549h6q2.36 0 3.48 1 1.12.98 1.12 2.74 0 1.08-.54 1.86a2.92 2.92 0 0 1-1.44 1.1q1.2.28 1.88 1.14.7.84.7 2.2 0 .9-.28 1.64-.28.72-.88 1.24-.58.52-1.52.8t-2.26.28h-6.26zm5.72 11.72q1.4 0 1.94-.48t.54-1.42-.54-1.46q-.54-.54-1.96-.54h-2.7v3.9zm-.32-5.94q1.22 0 1.7-.48.5-.48.5-1.3 0-.84-.48-1.28t-1.7-.44h-2.42v3.5zm11.993 8.46q-2.3 0-3.5-.94t-1.3-2.7h2.68q.04.34.16.6t.36.44.62.28q.4.08.98.08 1.16 0 1.64-.34.48-.36.48-.86 0-.6-.4-.9t-1.42-.3h-1.6v-1.96h1.46q.76 0 1.16-.32t.4-.84q0-.46-.4-.76-.38-.32-1.32-.32-.98 0-1.42.34-.42.32-.5.96h-2.68q.1-1.72 1.26-2.62 1.16-.92 3.34-.92 1.161 0 1.98.22.84.22 1.38.64.54.4.78.98.26.56.26 1.26 0 .76-.4 1.36-.38.6-1.22.88 1.14.28 1.58.92.44.62.44 1.48 0 .72-.3 1.34-.28.6-.88 1.06-.58.44-1.48.7-.9.24-2.14.24m8.839-4.22q-1.22-.4-1.78-1.2t-.56-1.88q0-.78.26-1.42.28-.66.82-1.12.54-.48 1.36-.74.84-.26 1.96-.26h5v10.6h-2.64v-3.66h-1.9l-2.3 3.66h-2.96zm.3-3.08q0 .68.44 1 .46.32 1.22.32h2.46v-2.66h-2.46q-.76 0-1.22.34-.44.32-.44 1m11.741-1.34h-3.38v-2.2h9.4v2.2h-3.38v8.4h-2.64zm12.22 8.64q-1.08 0-2.06-.32a4.7 4.7 0 0 1-1.68-1.02q-.72-.68-1.14-1.7t-.42-2.4v-.4q0-1.3.42-2.28t1.14-1.64 1.68-.98a6.2 6.2 0 0 1 2.06-.34q1.08 0 2.04.34.96.32 1.68.98.74.66 1.16 1.64t.42 2.28v.4q0 1.36-.42 2.38a4.7 4.7 0 0 1-1.16 1.7q-.72.68-1.68 1.02t-2.04.34m0-2.24q1.12 0 1.86-.8.76-.8.76-2.4v-.4q0-1.46-.76-2.22-.74-.78-1.86-.78-1.14 0-1.88.78-.74.76-.74 2.22v.4q0 1.62.74 2.42.74.78 1.88.78m12.193-8.6h5.32q1.02 0 1.74.22.74.2 1.22.58t.7.9.22 1.14q0 .74-.46 1.4-.44.64-1.22.86.98.24 1.52.92.56.66.56 1.56 0 1.38-.96 2.2t-2.92.82h-5.72zm5.2 8.48q.9 0 1.32-.26.44-.28.44-.88t-.42-.86q-.4-.28-1.34-.28h-2.56v2.28zm-.26-4.24q.92 0 1.26-.26.36-.26.36-.8 0-.52-.36-.78-.36-.28-1.26-.28h-2.3v2.12zm11.564-4.24h2.46v1.56q.399-.72 1.26-1.26.86-.54 2.18-.54 2.12 0 3.3 1.32 1.2 1.3 1.2 3.92v.4q0 2.74-1.22 4.1-1.2 1.34-3.28 1.34-1.08 0-1.92-.46a4.1 4.1 0 0 1-1.34-1.24v5.46h-2.64zm5.28 8.6q1.04 0 1.74-.78.7-.8.7-2.42v-.4q0-1.5-.68-2.24-.68-.76-1.76-.76-1.14 0-1.9.66-.74.64-.74 1.94v1.2q0 1.42.72 2.12.74.68 1.92.68m10.204 2.24q-.86 0-1.52-.24a3.4 3.4 0 0 1-1.12-.7 3.1 3.1 0 0 1-.7-1.06 3.7 3.7 0 0 1-.24-1.34q0-3.2 3.8-3.2h3.16v-.5q0-1.04-.48-1.46-.46-.42-1.48-.42-.9 0-1.3.32-.4.3-.46.76h-2.64q.04-.68.34-1.28.32-.6.88-1.02.58-.44 1.4-.68.82-.26 1.88-.26 1.02 0 1.84.22.84.219 1.42.72.6.48.92 1.26t.32 1.88v4.06q0 .84.02 1.48.04.62.12 1.22h-2.46a9 9 0 0 1-.1-.66v-.7q-.44.64-1.34 1.12-.88.48-2.26.48m.82-2.04q.48 0 .94-.12.46-.14.82-.4.36-.28.58-.7t.22-.98v-.5h-2.66q-.759 0-1.2.36-.42.34-.42.94 0 .639.44 1.02.44.38 1.28.38m12.304 2.04q-1.12 0-2.08-.38a4.5 4.5 0 0 1-1.64-1.14q-.7-.78-1.1-1.9-.38-1.14-.38-2.64v-.46q0-1.8.26-3.2.28-1.4.9-2.38a4.4 4.4 0 0 1 1.68-1.52q1.06-.56 2.64-.64l1.22-.04q.6-.02 1.14-.06t.98-.12q.44-.1.78-.26v2.34q-.32.18-1.2.3-.86.12-2.62.14-.9.02-1.56.22a2.5 2.5 0 0 0-1.08.6q-.42.4-.68 1.06-.24.66-.34 1.62.46-.9 1.38-1.46t2.4-.56q1 0 1.82.32.82.3 1.42.9t.92 1.48q.34.88.34 2.04v.38q0 1.26-.4 2.26a4.75 4.75 0 0 1-1.08 1.7q-.7.68-1.66 1.04-.94.36-2.06.36m0-2.24q1.2 0 1.86-.78.66-.8.66-2.26v-.4q0-1.26-.68-1.98t-1.84-.72q-1.14 0-1.84.72-.68.72-.68 1.98v.36q0 .72.18 1.3.2.58.54.98.34.38.8.6.46.2 1 .2m11.895 2.24q-1.08 0-2.06-.32a4.7 4.7 0 0 1-1.68-1.02q-.72-.68-1.14-1.7t-.42-2.4v-.4q0-1.3.42-2.28t1.14-1.64 1.68-.98a6.2 6.2 0 0 1 2.06-.34q1.08 0 2.04.34.96.32 1.68.98.74.66 1.16 1.64t.42 2.28v.4q0 1.36-.42 2.38a4.7 4.7 0 0 1-1.16 1.7q-.72.68-1.68 1.02t-2.04.34m0-2.24q1.119 0 1.86-.8.76-.8.76-2.4v-.4q0-1.46-.76-2.22-.741-.78-1.86-.78-1.14 0-1.88.78-.74.76-.74 2.22v.4q0 1.62.74 2.42.74.78 1.88.78m9.577-6.4h-3.38v-2.2h9.4v2.2h-3.38v8.4h-2.64zm9.805 12.64q-.3 0-.6-.06v-2.24q.3.06.6.06.6 0 .92-.46.34-.44.76-1.54l-4.48-10.6h2.96l2.88 7.32 2.64-7.32h2.72l-4.08 10.6a24 24 0 0 1-.84 1.92q-.38.82-.86 1.32-.48.52-1.1.76t-1.52.24" opacity=".9"/><circle cx="70.512" cy="210.709" r="8.639" fill="#cfd8d8" opacity=".5"/><rect width="47.179" height="4.096" x="87.151" y="202.613" fill="#cfd8d8" opacity=".5" rx="2.048"/><rect width="66.142" height="4.096" x="87.151" y="214.709" fill="#cfd8d8" opacity=".5" rx="2.048"/><path stroke="#cfd8d8" stroke-linecap="round" d="M164.792 198.5v24.42"/><circle cx="183.931" cy="210.709" r="8.639" fill="#cfd8d8" opacity=".5"/><rect width="47.179" height="4.096" x="200.57" y="202.613" fill="#cfd8d8" opacity=".5" rx="2.048"/><rect width="66.142" height="4.096" x="200.57" y="214.709" fill="#cfd8d8" opacity=".5" rx="2.048"/><path stroke="#cfd8d8" stroke-linecap="round" d="M278.211 198.5v24.42"/><circle cx="297.35" cy="210.709" r="8.639" fill="#cfd8d8" opacity=".5"/><rect width="47.179" height="4.096" x="313.989" y="202.613" fill="#cfd8d8" opacity=".5" rx="2.048"/><rect width="66.142" height="4.096" x="313.989" y="214.709" fill="#cfd8d8" opacity=".5" rx="2.048"/></g><defs><linearGradient id="d" x1="77.246" x2="155.061" y1="-58.771" y2="265.339" gradientUnits="userSpaceOnUse"><stop stop-color="#32786e" stop-opacity="0"/><stop offset=".493" stop-color="#fff" stop-opacity=".23"/><stop offset=".986" stop-color="#fff"/></linearGradient><linearGradient id="e" x1="94.534" x2="311.98" y1="-183.421" y2="143.958" gradientUnits="userSpaceOnUse"><stop stop-color="#68b7ac"/><stop offset=".876" stop-color="#fff"/></linearGradient><clipPath id="a"><path fill="#fff" d="M0 0h398v224H0z"/></clipPath><clipPath id="b"><path fill="#fff" d="M0 0h398v224H0z"/></clipPath><filter id="c" width="385.631" height="279.783" x="-12.204" y="-11.084" color-interpolation-filters="sRGB" filterUnits="userSpaceOnUse"><feFlood flood-opacity="0" result="BackgroundImageFix"/><feBlend in="SourceGraphic" in2="BackgroundImageFix" result="shape"/><feGaussianBlur result="effect1_foregroundBlur_4278_3541" stdDeviation="15"/></filter></defs></svg>
