<svg xmlns="http://www.w3.org/2000/svg" width="398" height="224" fill="none"><g clip-path="url(#a)"><path fill="#fff" d="M0 0h398v224H0z"/><g clip-path="url(#b)"><path fill="#fff" d="M0 0h398v224H0z"/><g filter="url(#c)" opacity=".4"><path fill="#deede8" d="M25.178 238.7h1a4166.49 4166.49 0 0 0 7.373-184.747c.175-11.893 7.563-18.371 19.656-18.103 9.943.073 19.997.11 30.083.11 78.219 0 156.097-2.169 234.286-6.504 8.698-.48 17.236-.986 25.851-1.518v-1c-8.615-.533-17.153-1.04-25.851-1.52A4226 4226 0 0 0 83.29 18.917c-10.086 0-20.14.036-30.083.11-8.44.011-18.323 2.303-25.596 9.34-7.325 6.972-10 16.999-9.805 25.587A4167 4167 0 0 0 25.178 238.7"/></g><rect width="404.459" height="263.59" x="30" y="30" fill="#fff" stroke="url(#d)" rx="24"/></g><rect width="285.568" height="39" x="66.136" y="55.103" fill="#fff" stroke="#e5e5e5" rx="7.5"/><g filter="url(#e)"><rect width="286.568" height="56.928" x="65.636" y="106.604" fill="#f6fbf8" rx="8"/><rect width="285.168" height="55.528" x="66.336" y="107.304" stroke="#22786c" stroke-opacity=".35" stroke-width="1.4" rx="7.3"/></g><g opacity=".6"><rect width="47.179" height="4.096" x="78.855" y="128.508" fill="#22786c" rx="2.048"/><rect width="66.142" height="4.096" x="78.855" y="140.604" fill="#22786c" rx="2.048"/><path stroke="#22786c" stroke-linejoin="round" stroke-width="1.416" d="M307.826 148.643h28.323"/><path stroke="#22786c" stroke-linecap="round" stroke-linejoin="round" stroke-width="1.416" d="M329.783 148.22v-17.3M329.79 136.368l2.118-2.616M329.783 142.89l-3.376-3.449M319.879 148.641l-.016-7.08M312.782 148.641v-7.08M311.327 142.979h9.992M309.948 145.811h12.749M326.236 128.108c-.243-1.417 1.318-3.514 3.548-3.543 2.425-.032 3.533 2.126 3.533 3.543 2.481 1.416 3.497 15.622-.884 15.578-.773 2.132-4.723 2.898-6.197 0-4.917-2.125-3.006-13.261 0-15.578"/><path stroke="#22786c" stroke-width="1.416" d="M313.491 129.522a1.417 1.417 0 1 0-1.418-1.416c0 .782.635 1.416 1.418 1.416Z"/></g><rect width="285.568" height="39" x="66.136" y="179.104" fill="#fff" stroke="#d3d3d3" rx="7.5"/><rect width="47.179" height="4.096" x="76.92" y="66.508" fill="#cfd8d8" opacity=".5" rx="2.048"/><rect width="66.142" height="4.096" x="76.92" y="78.603" fill="#cfd8d8" opacity=".5" rx="2.048"/><circle cx="329.7" cy="74.603" r="8.639" fill="#cfd8d8" opacity=".5"/><rect width="47.179" height="4.096" x="76.92" y="190.508" fill="#cfd8d8" opacity=".5" rx="2.048"/><rect width="66.142" height="4.096" x="76.92" y="202.604" fill="#cfd8d8" opacity=".5" rx="2.048"/><circle cx="329.7" cy="198.604" r="8.639" fill="#cfd8d8" opacity=".5"/><path fill="url(#f)" d="M56.539 158.604H407.92v65.4H56.539z"/></g><defs><linearGradient id="d" x1="94.534" x2="311.98" y1="-183.421" y2="143.958" gradientUnits="userSpaceOnUse"><stop stop-color="#c3ded9"/><stop offset=".876" stop-color="#fff"/></linearGradient><linearGradient id="f" x1="232.23" x2="232.23" y1="158.604" y2="231.115" gradientUnits="userSpaceOnUse"><stop stop-color="#fff" stop-opacity="0"/><stop offset=".832" stop-color="#fff"/><stop offset="1" stop-color="#fff"/></linearGradient><clipPath id="a"><path fill="#fff" d="M0 0h398v224H0z"/></clipPath><clipPath id="b"><path fill="#fff" d="M0 0h398v224H0z"/></clipPath><filter id="c" width="385.631" height="279.783" x="-12.204" y="-11.084" color-interpolation-filters="sRGB" filterUnits="userSpaceOnUse"><feFlood flood-opacity="0" result="BackgroundImageFix"/><feBlend in="SourceGraphic" in2="BackgroundImageFix" result="shape"/><feGaussianBlur result="effect1_foregroundBlur_4278_3931" stdDeviation="15"/></filter><filter id="e" width="325.368" height="95.728" x="50.236" y="91.204" color-interpolation-filters="sRGB" filterUnits="userSpaceOnUse"><feFlood flood-opacity="0" result="BackgroundImageFix"/><feColorMatrix in="SourceAlpha" result="hardAlpha" values="0 0 0 0 0 0 0 0 0 0 0 0 0 0 0 0 0 0 127 0"/><feMorphology in="SourceAlpha" radius="2" result="effect1_dropShadow_4278_3931"/><feOffset dx="4" dy="4"/><feGaussianBlur stdDeviation="10.7"/><feComposite in2="hardAlpha" operator="out"/><feColorMatrix values="0 0 0 0 0.362531 0 0 0 0 0.628596 0 0 0 0 0.597294 0 0 0 0.38 0"/><feBlend in2="BackgroundImageFix" result="effect1_dropShadow_4278_3931"/><feBlend in="SourceGraphic" in2="effect1_dropShadow_4278_3931" result="shape"/></filter></defs></svg>
