<svg xmlns="http://www.w3.org/2000/svg" version="1" width="661.38" height="700"><defs><linearGradient x2="1" id="e" gradientUnits="userSpaceOnUse" gradientTransform="matrix(91.24828 -71.29095 -71.29095 -91.24826 337.942 254.433)"><stop offset="0" stop-color="#fff"/><stop offset=".83" stop-color="#aed8eb"/><stop offset=".83" stop-color="#aed8eb"/><stop offset="1" stop-color="#a4d3e8"/></linearGradient><linearGradient x2="1" id="d" gradientUnits="userSpaceOnUse" gradientTransform="matrix(71.02997 -33.12181 -33.12181 -71.02995 314.99 193.404)"><stop offset="0" stop-color="#fff"/><stop offset=".8" stop-color="#abd7eb"/><stop offset=".8" stop-color="#abd7eb"/><stop offset="1" stop-color="#a4d3e8"/></linearGradient><linearGradient x2="1" id="c" gradientUnits="userSpaceOnUse" gradientTransform="matrix(91.76828 71.69724 71.69724 -91.76826 120.972 180.404)"><stop offset="0" stop-color="#a4d3e8"/><stop offset=".13" stop-color="#b0d9e9"/><stop offset=".28" stop-color="#fff"/><stop offset="1" stop-color="#fff"/></linearGradient><linearGradient x2="1" id="b" gradientUnits="userSpaceOnUse" gradientTransform="scale(90.3238 -90.3238) rotate(-28 -2.507 -4.493)"><stop offset="0" stop-color="#a4d3e8"/><stop offset=".2" stop-color="#a9d4e8"/><stop offset=".3" stop-color="#fff"/><stop offset="1" stop-color="#fff"/></linearGradient><clipPath id="a"><path d="M0 792h612V0H0v792z"/></clipPath></defs><g clip-path="url(#a)" transform="matrix(1.45693 0 0 -1.45693 -70.262 879.862)"><path d="M199.385 130.077l-37.363 54.945-29.67 14.286-27.473 31.868-49.45 109.89 2.197 79.121 52.748 101.099 51.648 47.253 52.747 20.878 67.033 6.594 43.956-3.297 37.363-10.989 34.066-24.176 43.956-36.263 27.472-42.857 14.286-31.868 8.791-46.154-2.198-46.154-15.384-56.044-16.484-34.066-16.483-36.264-15.385-14.285-18.681-16.484-18.681-8.792-6.594-8.791-9.89-14.285-12.088-23.077-43.956 20.879-42.857 2.198-43.956-7.692-29.67-27.473z" fill="#fff"/><path d="M242.014 185.068c-4.176-27.648-51.119-15.551-59.831-42.912-3.384 6.264-11.016 14.256-12.456 21.025-1.656 29.735 76.535 49.607 72.287 21.887" fill="url(#b)"/><path d="M219.983 218.692c-17.424 4.825-90.72 6.336-92.52-23.4-4.824 4.32-11.88 8.784-14.328 14.616 5.4 36.145 90.648 17.928 112.896 9.864-1.441 0-4.609-.648-6.048-1.08" fill="url(#c)"/><path d="M317.434 188.148c-.792 26.28 70.704 7.632 62.279-24.984-2.447-4.824-7.128-12.527-9.504-17.351-5.184 26.855-51.983 16.127-52.775 42.335" fill="url(#d)"/><path d="M418.233 193.116c0 19.441-12.744 23.689-31.463 27.144-18.792 2.449-38.953 6.697-57.313 1.44-2.519 0-4.103-.216-4.103 1.08l7.343 3.168c17.208 6.048 99.144 20.376 101.304-11.376-1.008-8.064-10.584-15.48-15.768-21.456" fill="url(#e)"/><path d="M259.737 318.625c21.904 4.09 46.242-.944 68.192-18.501l-4.26-.575h.001l-68.824-9.306-2.966 1.44-1.704-2.072-22.079-2.984-2.665 3.687-4.049-3.109-1.273-1.658-15.797-2.136c13.139 17.656 33.52 31.124 55.424 35.214" fill="#fff200" fill-rule="evenodd"/><path d="M447.198 232.854c-2.72 4.088-5.308 5.821-9.556 8.655 4.931 4.931 5.541 14.845 5.541 21.195 24.593 17.516 1.851 30.213-2.349 18.354-4.91 6.503-3.878 17.296 4.528 19.685-3.866 7.431 1.843 15.38 11.494 14.683-5.306-7.168 2.103-14.933 9.715-12.072 7.613 2.86 5.565 22.947 1.695 30.042 5.3 5.783 10.621 11.415 8.693 21.535-.964 2.89-.706 6.7-6.229 7.533-5.522.833-10.355-3.669-8.472-9.313-10.671 3.708-8.131 14.199-3.983 19.5-4.791 4.453-1.881 18.555 5.61 16.176 0-12.643 11.672-13.987 14.782-2.473 0 10.602-4.867 14.637-11.585 21.853 2.891 5.301 6.64 12.268 5.193 19.495-1.366 9.228-18.255 12.71-15.809-2.253-7.014-1.565-12.522 8.064-9.122 15.83-2.239-1.06-10.377 13.221.793 18.542-1.222-8.55 9.299-9.13 13.155-1.417 2.892 5.3.456 10.711-2.918 14.565-3.854 5.302-10.018 8.419-15.8 11.31 1.446 10.602 2.008 20.762-5.701 25.579-12.502 3.783-18.165-7.884-7.094-14.211-.48-1.445-6.227-4.681-8.154-4.199-5.782.964-10.961 9.798-12.103 13.454-1.098 3.516-19.174 6.773-10.846 20.581 5.963-3.842 11.509-4.488 13.156 4.935 1.647 9.424-13.655 11.208-21.146 12.04-2.41 8.409-6.596 17.077-16.23 20.169-5.784.483-8.393-2.792-10.803-6.646-1.399-6.997 1.929-7.555 6.747-9.963-7.55-11.377-17.062.072-19.457 3.315-6.606-.355-18.064-1.443-16.361 12.12 10.236-3.348 15.889 9.368 6.223 14.543-7.71 3.855-15.491-.729-22.719-2.657-6.265 6.747-13.503 14.347-26.031 11.455-9.437-4.212-6.788-18.059 3.457-16.005-.675-9.069-11.503-10.11-18.641-4.802-4.949-4.949-19.57-5.205-18.632 5.174 8.419-.041 11.689 12.8 3.839 14.142-7.85 1.341-17.419-5.462-21.395-12.278-6.265 3.373-14.644 6.54-23.318 5.096-3.855-1.446-8.1-5.328-6.766-11.51 1.335-6.182 6.629-3.142 9.999-3.176 1.51-10.572-7.951-12.246-15.773-11.715-3.326-11.207-14.676-9.398-18.365-3.81 5.585.931 9.659 5.153 6.999 10.477-1.929 3.373-3.288 4.716-7.143 4.716-10.064-.771-15.457-10.709-16.676-19.274-9.639 1.446-22.346 1.54-27.647-5.688-7.886-8.059 4.309-19.103 12.916-9.575 8.21-13.984-4.928-15.189-10.81-17.127-.826-9.122-7.316-20.332-16.94-11.031 9.655 7.858-2.475 18.101-9.962 10.855-7.487-7.247-6.153-15.95-6.204-23.178-6.99-1.93-15.076-5.353-18.945-10.626-4.894-11.426 7.566-22.107 14.145-8.942 8.5-3.837.347-19.45-3.981-19.472 2.512-5.984 2.085-19.961-9.94-17.706 4.983 13.093-11.933 20.755-15.92 6.639-2.89-8.192-.46-16.608 3.395-22.391-7.309-6.713-14.925-15.537-11.764-26.845 1.445-1.445 4.568-3.513 6.495-4.477 6.677-1.536 8.6 7.505 9.203 12.017 13.899-6.636 3.325-17.875 5.202-20.921 4.292-5.008 4.789-18.036-3.382-20.079-.48 3.374-1.013 8.891-6.267 9.63-5.254.739-11.266-3.382-9.187-11.346 2.079-7.962 3.468-7.835 9.459-13.271-1.759-5.865-5.785-11.256-4.295-20.941 3.373-3.373 3.879-7.663 11.107-5.735 3.064 1.439 6.046 3.105 4.397 11.213 3.855.482 8.753-4.719 10.198-7.611 1.927-3.855.134-6.411 5.138-11.361 2.891-2.409 4.838-6.053 4.838-10.39 0-1.927-1.157-5.94-1.639-7.386-3.552 1.75-8.498 6.632-14.512.19-6.014-6.442 5.864-21.095 16.268-21.266-1.446-7.229 1.141-16.08 3.07-22.827-3.687-2.212-11.078-4.379-12.573-8.865-20.404 28.711-34.116 45.604-45.737 93.695-14.856 61.473-.623 121.74 30.603 171.874 42.463 68.178 124.966 110.372 210.735 102.232 128.759-13.55 215.878-123.299 200.671-251.226-4.989-37.838-23.411-88.254-50.577-117.037" fill="#fbbd09" fill-rule="evenodd"/><path d="M435.172 539.498c64.09-62.163 85.292-165.284 50.114-248.166-8.674-21.202-20.238-39.995-34.695-58.307-.963-.482-1.445-2.409-2.408-2.409-.483 1.447-.964 2.409-1.447 3.855 1.447 1.446 2.892 3.374 4.337 4.818 23.613 30.841 39.996 66.982 45.779 110.832 8.191 68.907-13.974 124.324-47.706 168.175-25.54 33.248-61.679 55.415-101.194 70.353-15.902 5.301-32.767 9.156-51.079 11.083-22.647 1.928-48.668.482-68.907-4.337-52.525-12.528-95.894-40.477-127.697-80.956-6.265-9.154-13.493-17.828-18.793-27.466-23.612-41.924-38.55-102.158-24.094-159.5 5.782-28.912 18.31-53.97 33.25-77.1 3.372-5.3 7.709-10.119 11.564-15.902-1.235-1.236-1.434-2.88-2.409-3.855-.409 2.615-11.995 16.244-13.974 19.757-22.649 36.622-37.587 78.064-37.587 123.841 0 72.763 34.695 138.78 83.846 178.295 41.442 34.695 100.231 55.897 163.837 50.596 53.971-4.818 100.712-27.467 139.263-63.607" fill="#e08517" fill-rule="evenodd"/><path d="M439.288 241.761c-.965.48-1.907.46-2.872.942 3.941 7.876 3.709 12.519 4.538 21.645 5.3 2.89 13 5.844 12.319 14.456-.679 8.611-10.244 7.141-11.2-.836-3.758 1.511-10.481 15.689.656 23.554-1.79 10.783 9.258 19.124 16.627 14.742-3.945-3.247-3.439-12.787 5.82-11.564 9.258 1.225 5.565 23.952.481 29.677 3.545 3.769 11.924 7.371 9.029 22.009-1.98 10-14.567 4.473-10.457-4.377-11.709.761-13.807 15.973-7.673 19.766-7.356 13.634 4.9 22.207 10.11 19.561-3.313-10.898 6.218-14.53 9.759-6.626 3.542 7.904-5.808 19.259-11.859 22.754 3.163 5.531 8.491 14.958 5.226 21.575-3.265 6.617-15.422 6.487-10.354-5.103-11.214-1.479-15.751 9.275-14.301 16.039-6.203 6.657-5.961 19.832 4.846 23.102-1.98-7.441 7.832-12.493 10.61-1.972 2.776 10.52-15.23 20.408-20.121 21.531-.364 3.847 3.785 23.418-5.342 26.241-9.127 2.824-13.265-8.907-2.367-11.402-4.769-14.638-24.576-5.821-24.576 6.59-16.236 2.03-16.927 22.518-8.192 25.795 0-8.133 11.091-7.435 11.193 1.635.1 9.069-16.813 9.497-22.758 7.521-.428 9.753-5.096 18.313-14.031 20.879-8.934 2.564-14.745-11.034-1.161-11.789-4.241-10.603-15.198-10.376-22.849-1.097-9.812-.526-20.685 4.985-16.018 17.53 5.858-5.8 13.656 1.154 9.754 7.159-3.902 6.004-20.697 2.707-26.504-1.168-3.936 6.448-17.413 15.399-24.982 12.036-7.568-3.362-4.119-16.07 3.421-10.476 4.814-11.181-8.098-16.085-18.953-10.331-6.419-4.028-23.083-3.426-20.332 10.789 9.808-5.137 13.369 11.944-.369 9.528-5.58-.981-10.317-7.33-15.136-14.076-5.16 2.965-20.336 11.885-27.835 2.907-4.047-4.844 1.361-12.487 7.902-6.144 5.316-8.849-4.015-18.773-15.243-16.986-2.312-8.898-18.364-12.244-21.705-.363 12.69 1.009 8.529 12.697 1.153 11.833-7.376-.865-13.848-10.951-14.711-20.239-6.747 1.904-15.203 1.334-22.241-.371-7.037-1.704-9.335-10.176-4.714-13.222 4.622-3.046 8.722 1.019 10.165 4.365 4.242-1.812 6.001-8.531 4.837-13.413-1.181-4.958-7.417-7.236-12.349-8.192-.482-4.819-3.267-11.434-7.295-13.77-4.028-2.336-10.238-1.553-14.154 3.871 4.124 2.365 6.76 9.973 1.02 11.455-5.74 1.482-8.537-1.414-10.694-5.703-2.157-4.289-4.326-13.673-2.127-19.852-4.958.265-16.505-4.108-18.996-9.421-2.491-5.314-.784-11.369 3.932-12.585 4.717-1.215 6.101 5.097 6.582 7.988 9.687-5.192 8.342-15.508-.192-23.662 2.424-8.305-1.244-22.512-14.682-18.794 1.941 4.009 3.074 13.413-4.038 13.466-7.111.054-7.921-6.925-8.264-12.02-.343-5.095 2.585-13.43 5.356-16.446-8.593-4.303-19.724-21.798-9.434-27.51 7.52-4.174 10.367 7.746 6.005 10.224 4.582 1.078 9.345-.614 11.933-5.255 2.589-4.64-.061-12.505-1.274-15.448 1.109-2.606 3.915-7.854 3.591-12.321-.324-4.468-3.822-10.186-9.724-11.788 1.366 6.213-4.116 13.285-9.862 9.383-5.747-3.901-1.258-15.734 9.191-20.467-4.106-5.753-8.146-14.987-5.255-21.153 4.806-10.252 17.519-3.919 8.147 6.697 3.854.963 9.663-.386 13.613-3.73 3.95-3.344 4.8-7.59 4.8-13.854 7.817-6.062 11.672-14.849 3.857-25.624-1.274 6.505-13.016 11.709-13.699-1.095 1.865-12.129 17.127-12.97 19.378-14.027-3.374-7.228-.585-16.186 1.342-23.415-1.078-1.078-2.169-.956-3.27-1.138-1.928 6.747-3.856 14.938-2.409 22.167-8.333.68-20.467 6.008-18.475 19.461 1.246 8.42 13.115 12.202 17.262 3.578 3.258 9.238-1.192 14.026-7.823 17.655 1.149 4.988.437 14.258-8.631 16.486 4.574-13.399-13.922-17.027-17.95-2.228-1.63 5.99 3.048 17.738 4.776 18.775-6.498 3.337-14.115 13.804-8.9 21.968 5.215 8.165 15.899 5.553 16.517-4.567 8.445 6.632.982 16.858.165 18.902.754 2.216 7.405 14.505-2.521 18.248.855-4.035-1.463-10.076-5.415-10.976-7.042-1.604-13.251 3.465-12.473 12.381.658 7.51 6.169 15.065 12.136 19.461-3.629 6.008-4.937 12.896-3.906 19.717 1.032 6.822 5.337 10.871 10.759 11.049 5.421.18 10.931-4.062 8.208-14.461 10.075.778 9.738 12.76 7.02 17.955 2.506.502 12.007 10.844 5.765 17.627-1.103-3.917-3.494-7.098-9.349-6.146-5.854.953-9.131 10.799-5.339 16.83 3.791 6.031 10.188 8.895 17.975 11.006-1.451 7.228.712 14.92 3.466 19.749 2.754 4.828 9.263 7.817 15.401 4.864 6.139-2.953 3.058-11.577.312-13.736 2.498-2.395 6.048-2.97 9.421-.569 3.372 2.402 4.933 8.088 5.414 13.388 3.476.62 10.221 1.725 11.888 5.76 1.666 4.036.169 8.027-.701 8.998-3.227-5.779-13.587-5.066-15.608 0-2.022 5.066-.365 10.166 3.541 13.557 3.907 3.39 15.336 5.124 25.854 3.599 1.306 7.487 7.416 18.869 17.62 19.467 10.205.596 13.494-15.198 1.749-16.772 7.384-7.447 15.363.98 16.383 5.579 5.694-2.227 16.67 2.31 16.054 10.008-7.771-4.916-12.027 2.993-11.412 7.158.615 4.165 3.85 7.284 9.596 9.235 5.745 1.95 15.458-1.937 21.808-5.571 3.374 5.782 9.163 12.151 14.748 13.202 17.776 3.348 15.564-18.564 3.754-16.108.477-8.052 13.345-7.548 17.969-3.563 6.869-4.163 16.853-4.458 17.118 2.477-11.069-1.88-12.062 15.792-1.673 18.235 10.117 2.38 19.883-4.222 26.147-10.968 7.062 2.982 22.352 5.846 27.689-1.102 5.337-6.949-.672-17.665-10.301-13.544-1.363-6.999 9.017-11.706 15.761-9.929 2.954-4.654 10.296-11.534 17.804-4.337-12.676 2.062-6.928 18.865 4.055 17.121 10.984-1.745 15.346-10.758 17.756-19.914 6.18.318 20.538.258 22.676-9.999 2.138-10.257-8.551-16.274-15.194-8.765-5.146-12.118 8.24-18.769 12.756-17.516-2.704-7.644 9.609-19.422 16.949-11.426-11.939 7.453-2.714 20.484 8.109 16.383 7.71-4.818 8.674-16.383 7.229-26.985 13.713-6.818 21.565-16.675 19.228-24.343-3.882-12.738-14.807-9.917-15.576-1.903-6.507-5.311-3.389-15.271 1.166-16.64-2.158-6.554.175-14.893 7.229-15.641-2.462 13.532 13.966 11.836 16.892 3.611 2.926-8.224-.753-14.93-3.4-21.702 7.129-7.294 12.437-15.478 10.384-24.251-2.053-8.774-17.758-10.59-16.648 4.012-7.638-1.394-7.308-11.898-2.429-16.304-5.102-3.6-7.335-11.677.11-16.049-.533 10.252 13.844 12.739 16.28 1.986 2.437-10.753-.223-19.143-6.862-23.986 4.08-7.869 6.516-26.998-2.646-31.29-9.163-4.291-17.399 6.206-12.245 12.113-8.153-.44-10.689-7.712-9.329-14.936-4.03-1.319-9.884-6.778-5.119-16.521 4.678 8.946 14.891 4.631 15.493-3.915.603-8.547-5.783-13.975-12.047-17.348-.325-5.577-1.263-14.965-5.039-20.177" fill="#e08517" fill-rule="evenodd"/><path d="M214.473 464.324c-1.445-.963-2.89-3.854-5.3-2.89-1.927 8.673-6.264 16.383-5.782 25.539 1.445 3.373 2.89-1.928 3.855-3.372 2.89-6.266 2.409-13.976 7.227-19.277M248.688 469.143c-3.375-.963-1.447 1.446-.965 3.374 3.855 3.855 1.445-1.928.965-3.374M240.014 466.734c-2.41-.481-2.41-3.855-4.337-4.337-.483.964.48 1.927-.965 1.927 0 .483.482.965.482 1.447 1.928.482 2.891 1.927 4.82 2.409.48-.482 0-.964 0-1.446M250.615 466.253c-.483-1.446-2.892-.482-4.338-.482-.482.482-1.927.482-.964 1.445 1.928 0 4.337 0 5.302-.963M247.241 463.361c0-.964-1.928-.482-2.41-1.446.964-1.445 3.374-1.445 2.41-4.336 0-.964-3.373 0-1.928-1.929-.482-.481-3.372-1.445-1.445-2.408 0-1.446-2.41.963-3.854.963-1.447 0-2.41 2.41-1.929 3.855.964 1.927 1.446-1.927 3.373-.481 0 2.408 0 5.3 1.928 7.228 1.445.482 2.891-.964 3.855-1.446M322.894 410.836c-1.257 0-2.086.373-3.139 1.111 1.573 0 2.316-1.111 3.139-1.111M323.858 410.354c1.446.482 2.892 0 2.892-.963-1.446.483-2.892 0-2.892.963M282.899 403.607c2.892-4.817 8.674-5.299 10.119-11.082-1.928-1.446-5.3-2.891-6.265-5.783 1.928-.482 2.893 1.928 4.82 1.446h2.891c5.3-3.855 5.783-11.083 12.047-13.974 0-6.265 6.264-8.673 6.264-14.937.964-2.409 1.927-4.337 1.927-6.264-3.854-2.892-3.372 4.337-6.264 5.3-3.373 1.927-7.709 3.855-11.084 5.301 1.928 10.117-7.708 10.6-11.563 18.309-1.929 1.93-2.41 5.302-5.302 6.747-.482 0 0 .481 0 .481 2.41 0 4.82.965 7.229 1.447-.965 2.409-3.856 3.373-5.783 5.3-2.41 1.446-4.337-3.854-7.227-.482-.964-.482-.964-.963-1.928-1.445-.963.963-1.927 2.892-2.408 4.337 0 6.264 7.708 4.819 10.117 8.674 2.41.482.965-2.41 2.41-3.375M307.956 398.308c.482-2.892-1.928.482-2.41 0-.963.482-.963 1.927-2.89 1.927-1.447.965-3.374 2.41-4.819 3.855 3.854 1.447 8.674-1.927 10.119-5.782" fill="#fffffa" fill-rule="evenodd"/><path d="M417.343 454.688l1.444-2.892-44.958-62.803-.802 2.151 44.316 63.544zM371.292 393.665l-1.336 2.425 44.178 65.034 1.489-3.48-44.331-63.979zM421.789 445.623l-45.657-61.021-.964 1.927 45.338 62.319 1.283-3.225zM418.303 422.397l-45.139-58.3-.627 3.063 44.65 58.468 1.116-3.231zM421.521 412.444l-46.428-55.913-.311 2.914 45.138 56.227 1.601-3.228zM423.768 402.153l-51.565-58.778-1.603 2.409 52.208 59.762.96-3.393z" fill="#fff200" fill-rule="evenodd"/><path d="M256.879 396.863c.482-2.892-3.855.963-2.892-2.41-1.445 0-1.927.963-1.927 1.927 0 1.446 1.927 1.446 2.892 1.928.963.482 1.927-.964 1.927-1.445M351.807 376.623c-.483-.964-.964-.964-1.446-.964-.481-.481-.964-.481-.964-.963-.482 0-.962-.482-1.445-.482.483 0 .483.482.963.964.482 0 .965.481 1.446.481.963.964.963.964 1.446.964M346.987 373.731c-.48-.962-.963-.962-.963-.962v.962c.483 0 .963.483.963 0M345.543 372.769c-.482-.964-.965-.964-1.445-.483.963.483.963.483 1.445.483M235.194 362.168c1.928-1.928 1.446-4.818 1.446-7.228-3.373-3.374.482-8.191-.963-12.047-3.374-4.337-4.338-9.155-4.82-14.456-.482-.482-.964-2.41-2.409-1.927-1.445 2.891-.482 6.746-1.445 9.636-2.41-.962-1.447-4.818-3.374-6.264-.963 3.374-3.855 8.193-8.192 10.601-2.409.964-6.264 1.929-7.229 4.819h.483c2.892-.963 5.782-1.927 9.156-2.89 1.927.481 7.229-5.784 5.299 0-1.444 8.192-9.154 10.601-15.418 13.491-1.447.965-3.374 2.41-3.856 4.337 4.819-2.409 11.565-2.409 16.384-5.782 1.928 2.41-1.446 4.819-1.446 7.229-.963 1.445-1.927 1.927-2.891 3.373-.482 0-.964 0-1.446.481 0 0-.481.963 0 .963.964.481.964-.963 1.927-.963.483-.481 1.447-.964 1.929-1.444 9.637-1.448 7.227-13.011 11.564-19.277 2.41 4.337 4.337 8.674 2.41 13.975-2.41 3.854-3.855 8.673-5.782 12.527 3.854-2.409 4.818-6.745 8.673-9.154M364.335 351.086c-.481-1.447-.963-2.892-1.927-3.857h-.482c0 1.447-.481 2.892-.481 4.82.963-.483 2.89.481 2.89-.963M359.998 343.857c-.481-1.445-.481-2.41-.963-3.855-.481-1.446-1.927-1.927-3.373-1.927.482 1.927 2.892 3.372 3.855 5.782h.481z" fill="#fffffa" fill-rule="evenodd"/><path d="M263.143 423.847c-2.409-1.445-2.892-5.301-6.747-5.782-.964-.482-1.444-2.892-2.891-1.927-.481 2.408 1.447 2.408 1.447 4.337 2.409 0 2.89 2.409 3.854 4.337.963 0 5.782 2.408 4.337-.965M341.206 377.587c-4.337-.482-5.782-5.301-10.119-5.782-2.409-1.928-7.229-.963-10.12-.963v1.444c4.819-.964 8.191.963 11.083 2.41 1.928 2.891 5.301 4.337 9.156 4.337.482-.965-.482-.482 0-1.446" fill="#fbbd0b" fill-rule="evenodd"/><path d="M265.442 543.869l1.974-96.41h-3.374l-2.299 95.894 3.699.516zM273.907 543.6l-.165-103.701-2.892-.149-.478 104.149 3.535-.299zM283.705 542.891l-3.534-102.686-2.889-.137 2.725 103.285 3.698-.462zM292.697 541.425l-6.59-100.875-2.409.167 5.948 101.671 3.051-.963zM208.53 525.203l10.28-45.939-2.41-.482-11.082 45.296 3.212 1.125zM348.435 523.596l-17.508-67.458-2.896-.335 17.027 69.238 3.377-1.445zM245.033 524.429l3.474-39.703-3.057-.645-4.273 39.997 3.856.351zM308.438 523.113l-9.795-80.954-2.894.146 9.316 80.808h3.373zM234.916 523.113l5.141-39.995-3.382-.639-5.616 40.153 3.857.481zM202.427 512.994l-2.41-.482-2.892 9.638 3.053.812 2.249-9.968zM307.474 448.423l-3.378-.482 10.124 74.209 3.374-.482-10.12-73.245zM338.157 457.75l-2.702-.303 17.156 65.036 3.237-2.201-17.691-62.532zM326.265 518.666l-12.045-66.388-2.574-.502 11.404 67.17 3.215-.28zM195.348 513.425l-2.077-1.876-2.729 6.913 2.62 1.571 2.186-6.608zM224.596 519.1l6.261-36.946-3.374-1.445-6.586 37.587 3.699.804zM363.217 515.114l-18.303-56.576-2.42.15 17.666 58.659 3.057-2.233zM186.997 516.088l2.748-8.388-2.405-1.482-3.391 7.734 3.048 2.136zM369.476 510.58l-18.152-53.001-1.927.481 16.866 53.97 3.213-1.45zM188.934 463.853l-1.441-3.556-11.095 27.467 2.683 2.007 9.853-25.918zM378.961 483.778l-13.179-28.609-2.414 1.592 12.051 28.767 3.542-1.75zM171.514 482.837l19.611-45.672-1.782-2.516-20.719 45.778 2.89 2.41zM386.026 478.462l-12.052-25.22-2.734 1.273 12.054 26.356 2.732-2.409zM393.248 473.48l-11.888-23.129-1.926 1.445 10.922 23.131 2.892-1.447zM202.913 392.678l-2.414-2.074-39.514 81.431 2.415 3.709 39.513-83.066zM192.304 387.721l-2.891-.482-46.043 75.76 2.363 3.735 46.571-79.013zM412.041 463.843l-22.165-32.767-1.14 2.389 20.896 32.306 2.409-1.928zM140.581 459.673l45.462-73.894-2.409-1.446-45.455 71.958 2.402 3.382zM180.742 381.923l-2.412-1.602-45.138 66.184 1.945 3.856 45.605-68.438zM131.106 441.524l44.335-63.456-2.408-1.926-43.687 61.511 1.76 3.871zM213.352 397.555l-2.249-.973-3.686 10.921 2.437 1.54 3.498-11.488zM203.226 409.283l5.312-13.99-2.574-1.137-6.429 14.127 3.691 1zM132.71 406.187l31.649-36.792-2.244-1.77-30.524 34.538 1.119 4.024zM160.018 363.943l-1.764-2.739-29.242 30.84.806 3.864 30.2-31.965zM436.592 390.212l-66.641-61.775-1.925 1.937 67.515 63.733 1.051-3.895zM438.334 382.414l-65.019-56.717-1.764 1.749 66.033 58.984.75-4.016zM156.648 357.831l-1.116-2.896-28.284 26.996.163 4.345 29.237-28.445zM439.494 374.49l-62.957-51.683-1.778 1.744 64.187 54.038.548-4.099zM440.478 366.791l-60.739-46.724-1.773 1.917 62.135 48.849.377-4.042zM115.993 371.518l69.091-57.862-.804-3.057-68.921 56.404.634 4.515zM185.721 304.83l-1.124-2.896-70.353 53.969v4.348l71.477-55.421zM114.852 346.47l71.508-48.225-1.279-3.063-69.392 47.077-.837 4.211zM280.971 338.059l-.964-9.904-1.927.491.482 9.636 2.409-.223zM272.449 338.412l.069-9.933-1.763-.039-.383 9.949 2.077.023zM285.158 336.931l-1.296-9.356-1.859.25.896 9.751 2.259-.645zM255.411 337.601l1.973-10.515-2.497-.655-2.559 10.743 3.083.427zM264.573 338.144l.855-10.171-2.218-.006-1.168 9.959 2.531.218zM259.827 337.984l1.577-10.24-2.327-.394-1.509 10.243 2.259.391zM268.487 338.227l.647-9.816-1.927-.064-.964 9.928 2.244-.048zM250.188 336.571l2.979-10.746-2.814-.716-3.184 11.037 3.019.425zM289.811 334.986l-1.627-8.211-2.41.566 1.462 8.805 2.575-1.16zM310.92 320.214l6.676 16.047 2.536-1.156-6.654-16.172-2.558 1.281zM315.273 337.396l-6.559-16.777-2.506 1.095 6.9 16.779 2.165-1.097zM315.741 317.813l7.03 15.884 2.426-1.856-7.492-15.109-1.964 1.081zM248.755 324.448l-2.402-.831-4.198 10.121 2.549 1.285 4.051-10.575zM294.081 332.844l-1.674-6.772-2.396.555 1.592 7.311 2.478-1.094zM416.378 330.847l-25.388-18.804-1.938 1.751 26.008 19.675 1.318-2.622zM117.59 333.757l67.649-41.298-1.124-3.054-65.534 39.514-.991 4.838zM298.003 329.984l-1.619-4.885-1.837.565 1.377 6.312 2.079-1.992zM301.623 327.825l-1.196-3.959-1.857.942.91 4.228 2.143-1.211zM329.507 328.09l-7.576-13.978-1.994 1.231 7.642 14.675 1.928-1.928zM305.065 325.064l-.88-2.787-2.011.811.964 3.422 1.927-1.446zM418.472 325.064l-23.866-15.674-1.744 1.769 24.467 16.836 1.143-2.931zM242.231 321.797l2.057 1.075-3.736 9.599-2.328-1.563 4.007-9.111zM334.19 323.324l-7.944-11.586-1.968 1.276 7.97 12.534 1.942-2.224zM234.882 323.667l2.498-4.234-1.357-.883-2.612 3.707 1.471 1.41zM338.264 318.918l-7.758-10.023-1.929 1.444 7.926 10.756 1.761-2.177zM415.713 317.055l-17.828-10.119-1.47 1.469 17.736 10.784 1.562-2.134zM341.138 314.212l-6.527-7.96-1.597 1.465 6.528 8.441 1.596-1.946zM344.43 311.105l-7.244-7.576-1.282 1.296 7.131 7.729 1.395-1.449zM168.006 284.244l-1.113-2.343-25.049 11.566-1.227 4.332 27.389-13.555zM166.142 278.941l-.817-2.063-19.734 7.911-2.012 4.06 22.563-9.908zM164.287 273.915l-.478-1.858-14.799 4.751-1.735 3.849 17.012-6.742z" fill="#fff200" fill-rule="evenodd"/><path d="M334.941 220.979c20.721-3.856 38.55-10.121 52.043-23.131 3.372-4.337 4.337-10.119 3.855-16.866.482 6.747-.483 12.529-3.855 16.866-13.493 13.01-31.322 19.275-52.043 23.131" fill="#6b6155" fill-rule="evenodd"/><path d="M273.92 328.573l.234 9.702 2.482-.007-.482-9.904-2.234.209zM240.498 321.475l-1.856-1.167-3.28 6.569 2.242 1.078 2.894-6.48z" fill="#fff200" fill-rule="evenodd"/><path d="M344.416 182.095l4.013-1.475-1.639-5.074 2.607-.959 3.81 11.802-2.607.958-1.432-4.434-4.012 1.474 1.43 4.433-2.607.958-3.809-11.8 2.608-.958 1.638 5.075zm-11.814 2.353l2.501 4.27.462-5.001-2.963.731zm1.821 7.785l-6.9-11.108 2.835-.7 1.209 2.099 4.137-1.017.238-2.457 2.852-.701-1.651 13.215-2.72.669zm-12.074.121l-1.476-9.932 2.726-.46 1.472 9.932 3.484-.589.354 2.394-9.703 1.641-.355-2.395 3.498-.591zm-8.247-4.147c-.143-.575-.371-1.034-.709-1.391-.507-.535-1.15-.75-1.965-.658-.961.108-1.655.599-2.073 1.47-.376.777-.501 1.724-.388 2.875.105 1.065.342 1.935.71 2.61.572 1.031 1.389 1.476 2.486 1.353.596-.085 1.068-.245 1.411-.517.53-.418.786-1.056.803-1.918l2.692-.302c.126 1.277-.172 2.35-.89 3.254-.851 1.082-2.149 1.712-3.912 1.909-2.061.214-3.613-.347-4.685-1.697-.884-1.102-1.398-2.586-1.583-4.465-.215-2.343.231-4.115 1.357-5.316.884-.924 2.123-1.478 3.718-1.657 1.914-.196 3.368.235 4.381 1.305.691.71 1.136 1.648 1.371 2.839l-2.724.306zm-16.366-.788c-.835.048-1.473.351-1.929.912-.601.73-.862 1.869-.787 3.419.092 1.495.41 2.548.977 3.194.531.595 1.247.859 2.149.809.833-.065 1.472-.352 1.93-.894.616-.73.878-1.871.801-3.436-.098-1.674-.523-2.828-1.307-3.463-.488-.4-1.101-.582-1.834-.541m-.119-2.424c2.037-.097 3.588.482 4.673 1.76.958 1.126 1.465 2.613 1.558 4.501.077 1.905-.284 3.443-1.109 4.649-.986 1.413-2.472 2.158-4.475 2.27-2.186.121-3.809-.572-4.905-2.084-.808-1.114-1.243-2.501-1.326-4.174-.066-1.675.232-3.102.927-4.302.957-1.625 2.504-2.499 4.657-2.62m-13.346 11.07l-.164-10.054 2.757-.052.166 10.055 3.524-.066.039 2.424-9.824.184-.04-2.425 3.542-.066zm-12.058-.034l2.155.039.233.005c.486-.009.855-.072 1.107-.212.439-.24.646-.701.658-1.379-.008-.641-.167-1.089-.513-1.364-.331-.257-.796-.371-1.431-.384l-2.154-.039-.055 3.334zm-2.797 2.372l.204-12.478 2.757.052-.07 4.295 2.622.049c1.505.045 2.617.407 3.341 1.116.74.726 1.091 1.766 1.069 3.122-.018 1.068-.265 1.902-.743 2.537-.735.984-1.979 1.442-3.733 1.409l-5.447-.102zm-8.269-11.015c-.834-.064-1.501.155-2.02.654-.679.646-1.068 1.743-1.169 3.29-.081 1.494.116 2.582.604 3.298.459.66 1.139 1.015 2.041 1.082.834.045 1.499-.156 2.017-.636.695-.644 1.086-1.743 1.189-3.306.092-1.673-.199-2.876-.904-3.608-.439-.462-1.026-.72-1.758-.774m.159-2.422c2.032.169 3.505.943 4.437 2.353.822 1.242 1.156 2.785 1.032 4.671-.14 1.901-.675 3.381-1.632 4.471-1.139 1.273-2.699 1.818-4.699 1.67-2.184-.164-3.717-1.065-4.631-2.705-.674-1.211-.95-2.645-.839-4.317.125-1.67.584-3.046 1.41-4.148 1.137-1.488 2.772-2.155 4.922-1.995m-16.988-1.415l2.737.359-.662 6.055 4.809-5.513 3.351.44-5.7 6.079 4.009 6.273-3.22-.422-3.413-5.727-.599 5.201-4.925-.645.275-2.406 2.19.286 1.148-9.98zm-17.199-.868l-1.799 9.871-2.722-.565 2.232-12.251 15.32 3.177-2.233 12.252-2.721-.564 1.799-9.873-3.578-.741-1.799 9.871-2.722-.565 1.799-9.871-3.576-.741zm-11.971-1.583l.165 5.034 2.743-4.085-2.908-.949zm-2.072 7.715l-.769-13.301 2.783.908.063 2.463 4.06 1.323 1.359-1.998 2.796.911-7.623 10.564-2.669-.87zm-10.296-11.941l2.108.953c.652.277 1.16.371 1.542.274.406-.107.689-.407.884-.898.18-.5.149-.921-.11-1.27-.239-.32-.651-.606-1.266-.884l-2.06-.933-1.098 2.758zm-1.696 4.267l5.828 2.64-.888 2.233-8.367-3.791 4.57-11.49 5.139 2.329c.991.468 1.757 1.009 2.281 1.654.848 1.062.986 2.267.432 3.662-.447 1.076-1.048 1.81-1.835 2.19-1.011.491-2.261.39-3.752-.286l-2.599-1.178-.809 2.037z" fill="#231f20" fill-rule="evenodd"/><path d="M344.416 182.095l4.013-1.475-1.639-5.074 2.607-.959 3.81 11.802-2.607.958-1.432-4.434-4.012 1.474 1.43 4.433-2.607.958-3.809-11.8 2.608-.958 1.638 5.075zm-11.814 2.353l2.501 4.27.462-5.001-2.963.731zm1.821 7.785l-6.9-11.108 2.835-.7 1.209 2.099 4.137-1.017.238-2.457 2.852-.701-1.651 13.215-2.72.669zm-12.074.121l-1.476-9.932 2.726-.46 1.472 9.932 3.484-.589.354 2.394-9.703 1.641-.355-2.395 3.498-.591zm-8.247-4.147c-.143-.575-.371-1.034-.709-1.391-.507-.535-1.15-.75-1.965-.658-.961.108-1.655.599-2.073 1.47-.376.777-.501 1.724-.388 2.875.105 1.065.342 1.935.71 2.61.572 1.031 1.389 1.476 2.486 1.353.596-.085 1.068-.245 1.411-.517.53-.418.786-1.056.803-1.918l2.692-.302c.126 1.277-.172 2.35-.89 3.254-.851 1.082-2.149 1.712-3.912 1.909-2.061.214-3.613-.347-4.685-1.697-.884-1.102-1.398-2.586-1.583-4.465-.215-2.343.231-4.115 1.357-5.316.884-.924 2.123-1.478 3.718-1.657 1.914-.196 3.368.235 4.381 1.305.691.71 1.136 1.648 1.371 2.839l-2.724.306zm-16.366-.788c-.835.048-1.473.351-1.929.912-.601.73-.862 1.869-.787 3.419.092 1.495.41 2.548.977 3.194.531.595 1.247.859 2.149.809.833-.065 1.472-.352 1.93-.894.616-.73.878-1.871.801-3.436-.098-1.674-.523-2.828-1.307-3.463-.488-.4-1.101-.582-1.834-.541zm-.119-2.424c2.037-.097 3.588.482 4.673 1.76.958 1.126 1.465 2.613 1.558 4.501.077 1.905-.284 3.443-1.109 4.649-.986 1.413-2.472 2.158-4.475 2.27-2.186.121-3.809-.572-4.905-2.084-.808-1.114-1.243-2.501-1.326-4.174-.066-1.675.232-3.102.927-4.302.957-1.625 2.504-2.499 4.657-2.62zm-13.346 11.07l-.164-10.054 2.757-.052.166 10.055 3.524-.066.039 2.424-9.824.184-.04-2.425 3.542-.066zm-12.058-.034l2.155.039.233.005c.486-.009.855-.072 1.107-.212.439-.24.646-.701.658-1.379-.008-.641-.167-1.089-.513-1.364-.331-.257-.796-.371-1.431-.384l-2.154-.039-.055 3.334zm-2.797 2.372l.204-12.478 2.757.052-.07 4.295 2.622.049c1.505.045 2.617.407 3.341 1.116.74.726 1.091 1.766 1.069 3.122-.018 1.068-.265 1.902-.743 2.537-.735.984-1.979 1.442-3.733 1.409l-5.447-.102zm-8.269-11.015c-.834-.064-1.501.155-2.02.654-.679.646-1.068 1.743-1.169 3.29-.081 1.494.116 2.582.604 3.298.459.66 1.139 1.015 2.041 1.082.834.045 1.499-.156 2.017-.636.695-.644 1.086-1.743 1.189-3.306.092-1.673-.199-2.876-.904-3.608-.439-.462-1.026-.72-1.758-.774zm.159-2.422c2.032.169 3.505.943 4.437 2.353.822 1.242 1.156 2.785 1.032 4.671-.14 1.901-.675 3.381-1.632 4.471-1.139 1.273-2.699 1.818-4.699 1.67-2.184-.164-3.717-1.065-4.631-2.705-.674-1.211-.95-2.645-.839-4.317.125-1.67.584-3.046 1.41-4.148 1.137-1.488 2.772-2.155 4.922-1.995zm-16.988-1.415l2.737.359-.662 6.055 4.809-5.513 3.351.44-5.7 6.079 4.009 6.273-3.22-.422-3.413-5.727-.599 5.201-4.925-.645.275-2.406 2.19.286 1.148-9.98zm-17.199-.868l-1.799 9.871-2.722-.565 2.232-12.251 15.32 3.177-2.233 12.252-2.721-.564 1.799-9.873-3.578-.741-1.799 9.871-2.722-.565 1.799-9.871-3.576-.741zm-11.971-1.583l.165 5.034 2.743-4.085-2.908-.949zm-2.072 7.715l-.769-13.301 2.783.908.063 2.463 4.06 1.323 1.359-1.998 2.796.911-7.623 10.564-2.669-.87zm-10.296-11.941l2.108.953c.652.277 1.16.371 1.542.274.406-.107.689-.407.884-.898.18-.5.149-.921-.11-1.27-.239-.32-.651-.606-1.266-.884l-2.06-.933-1.098 2.758zm-1.696 4.267l5.828 2.64-.888 2.233-8.367-3.791 4.57-11.49 5.139 2.329c.991.468 1.757 1.009 2.281 1.654.848 1.062.986 2.267.432 3.662-.447 1.076-1.048 1.81-1.835 2.19-1.011.491-2.261.39-3.752-.286l-2.599-1.178-.809 2.037z" fill="none" stroke="#fff" stroke-width=".1" stroke-miterlimit="2.613"/><path d="M448.183 226.466c-9.48-13.491-18.715-24.761-30.359-34.882 0 .759.673 2.133 1.034 2.858 2.892 3.373 6.194 6.78 9.085 10.153 2.892 2.891 4.337 6.263 4.82 10.12-3.279 33.38-98.353 13.098-106.977 7.709 1.851-.925 7.092-1.445 9.155-1.445 20.721-3.856 38.55-10.121 52.043-23.131 3.372-4.337 4.337-10.119 3.855-16.866-3.855-7.228-7.709-14.937-11.566-22.167-2.408-4.336-6.032-10.6-9.404-14.937.481 1.927.559 3.104 1.041 4.55 2.409 4.819 5.473 9.906 7.883 14.724 10.734 36.189-87.954 43.243-105.23 42.889-19.835-.406-102.923-11.483-101.142-43.627 1.446-6.747 6.611-11.063 9.983-17.327 0-1.445.117-2.634.117-4.08-7.657 10.01-19.979 26.309-23.301 44.207-.2 17.507 44.094 32.346 66.336 34.801-8.191 3.854-18.31 5.782-28.431 7.228-18.59 3.627-77.74 11.418-82.881-16.865.296-3.183 8.673-9.639 13.491-13.976.482-.964.482-2.409.965-3.372-11.318 8.486-20.252 19.223-28.913 30.359-4.821 17.824 19.098 23.165 33.732 21.684 34.212-2.892 66.016-10.602 95.892-24.094 28.913 7.227 60.953 6.264 90.828 1.927 28.519 16.729 135.268 41.719 127.944 3.56" fill="#1082cf" fill-rule="evenodd"/><path d="M371.981 146.946c-3.618-7.166-7.38-13.698-14.392-18.488-9.801 23.563-46.734 32.404-81.191 32.47-34.457.065-89.135-19.271-78.308-37.288-5.605 0-14.533 14.232-16.123 18.048-.219 26.356 71.272 38.712 93.818 38.677 22.546-.035 85.489-5.127 96.196-33.419" fill="#00a870" fill-rule="evenodd"/><path d="M320.673 155.268c13.158-.393 45.565-14.5 37.68-25.637-7.886-11.137-33.693 21.997-37.68 25.637M196.888 123.711c-14.035 13.31 25.407 28.608 33.63 29.337-8.388-11.187-18.401-32.159-33.63-29.337" fill="#6b5f52" fill-rule="evenodd"/><path d="M221.209 219.389c-1.54-.223-2.368-.61-3.844-.82-4.82-.482-10.119-.964-14.938-1.446-18.312-2.408-34.696-6.265-47.706-15.419-3.372-3.374-7.229-6.746-6.264-12.53 2.409-4.337 6.876-4.036 11.212-5.964-2.409-.481-3.503-.782-5.913-.782-9.154.964-19.275 3.856-25.056 10.602-.483.963-.483 2.408-.965 3.372-.963 5.302 2.41 9.639 6.265 12.53 20.883 15.282 63 16.513 87.209 10.457" fill="#00a870" fill-rule="evenodd"/><path d="M218.938 218.845c-19.772-3.495-63.428-18.32-59.301-35.633-3.645.685-11.496 2.427-11.514 7.181-1.09 21.078 53.76 28.04 70.815 28.452" fill="#6b5f52" fill-rule="evenodd"/><path d="M417.824 191.584c-5.646-8.463-17.136-11.119-26.985-10.602.482 6.747-.483 12.529-3.855 16.866-13.493 13.01-31.248 18.705-51.967 22.561-2.251.288-5.467.888-7.396 1.37 18.231 4.723 108.214 3.848 90.203-30.195" fill="#00a870" fill-rule="evenodd"/><path d="M334.226 220.477c10.537-2.998 26.189-5.194 38.902-12.942 9.277-5.655 18.399-8.522 17.68-26.2 3.416 0 10.281 1.524 11.75 5.957 6.37 22.073-53.088 32.973-68.332 33.185" fill="#6b5f52" fill-rule="evenodd"/><path d="M277.828 242.436l8.555 14.816c.405-.095.831-.14 1.264-.14 3.073 0 5.584 2.511 5.584 5.584 0 3.074-2.511 5.584-5.584 5.584a5.597 5.597 0 0 1-5.584-5.584c0-1.27.426-2.446 1.146-3.388l-8.603-14.902v16.871c2.149.779 3.697 2.84 3.697 5.251 0 3.074-2.511 5.584-5.585 5.584-3.073 0-5.584-2.51-5.584-5.584 0-2.41 1.547-4.471 3.695-5.251v-17.286l-8.728 15.119a5.572 5.572 0 0 1 1.591 3.899 5.597 5.597 0 0 1-5.584 5.584c-3.073 0-5.584-2.51-5.584-5.584 0-3.073 2.511-5.584 5.584-5.584.198 0 .395.01.587.029l8.721-15.103-14.397 8.313c.111.44.168.902.168 1.377 0 3.073-2.511 5.584-5.584 5.584-3.074 0-5.584-2.511-5.584-5.584a5.597 5.597 0 0 1 5.584-5.584c1.225 0 2.366.397 3.29 1.072l14.288-8.249h-15.988a5.604 5.604 0 0 1-5.336 3.928c-3.073 0-5.584-2.511-5.584-5.584 0-3.073 2.511-5.584 5.584-5.584 2.323 0 4.325 1.436 5.165 3.463h21.807v-5.287h3.777v5.287h22.023c.84-2.027 2.843-3.463 5.165-3.463 3.073 0 5.584 2.511 5.584 5.584 0 3.073-2.511 5.584-5.584 5.584a5.6 5.6 0 0 1-5.335-3.928h-16.543l14.839 8.567a5.567 5.567 0 0 1 3.296-1.076c3.074 0 5.584 2.51 5.584 5.583a5.596 5.596 0 0 1-5.584 5.584c-3.073 0-5.584-2.509-5.584-5.584 0-.47.056-.931.167-1.37l-14.806-8.548z" fill="#00a870" fill-rule="evenodd"/><path d="M225.505 455.369c.436 3.075 2.706 6.737 4.87 8.474 2.892 1.446 1.928 5.782 5.302 7.228 3.854.964 6.264 1.927 9.154 3.856 1.928.963 5.784 2.408 7.711 0 0-2.41-2.892-5.784-.482-7.711-.482-2.892-.482-4.819-3.372-5.301-.965-1.445 1.444-6.746-1.929-6.746-3.855-4.818 1.929-6.746 4.819-9.155 5.783-1.928 6.746-7.711 9.638-12.048 6.264-1.927 12.046-4.818 18.791-2.89 1.928-.965 4.819-.965 5.302-3.374 1.444-1.928 1.444-3.855.482-5.782-1.929-.482-4.337-2.41-6.266-.482-1.927.964-2.408 3.854-5.299 2.409-.964-.963-.482-2.891-1.927-2.891 3.373-1.928 6.263-3.373 8.19-7.228 3.855 2.89 8.192 7.228 10.119 12.046 3.374 2.892 8.674 3.855 10.601 8.674 1.929 1.927 4.819 1.447 7.711 1.447 3.373 3.372 5.782 10.601 11.565 9.154 3.373 2.41 7.228 4.82 11.565 2.41.964 1.927 3.374 1.927 4.819 1.927 2.892-.482 7.709 1.927 10.601-1.445 1.927 1.445 5.301.482 7.711.482 1.445-3.374 4.817-1.927 7.71-2.891 2.409-.483 3.854-2.892 5.3-4.82 4.818 1.447 9.637 1.447 14.456.965.483-3.374-3.854-3.855-5.301-6.264 1.447-3.374 5.301-5.302 5.301-8.674-1.446-.483-3.854.481-4.336-1.447.962-1.927 2.409-5.299.482-6.746-2.893-.963-4.819-4.336-6.747-6.745-.964-.483-2.409-.483-2.892.963-.482-3.373-3.372-5.782-6.746-7.71-1.928-2.891-3.373-6.746-6.746-8.674-.205-1.236-11.534-8.055-12.047-2.409-.964 3.855 4.337 2.409 4.337 5.782-.965.964-2.409.482-3.374.482-1.927-1.445-1.927-6.264-5.3-3.855h-.021c-.461 1.178-1.093 2.854-.513 3.72 2.092 3.116 9.966 7.521 6.317 12.664-4.82-.482-2.41-9.637-8.674-7.227-.483-.965.964-.965 1.446-1.447.963-1.445-.482-1.927-1.446-1.445.377-1.13.997-4.419 1.483-6.265h-.037c.48-3.373.48-6.264.48-9.638 6.735-1.682 24.028 3.58 26.504 1.928 1.928-1.928 3.374-3.855 4.337-5.782 0-2.892 0-6.265-1.445-8.192-1.446-7.711 1.445-14.456 2.891-21.683-5.783-4.819-4.818-15.903-13.974-16.867-.482-.962-1.928-.962-3.374-.962-.481 5.299 0 9.636 0 14.455 1.446 1.927 5.302 1.447 5.783 4.337-4.818 4.337.482 8.673 0 13.492 0 3.374 0 6.263-.481 9.637-1.928-1.927-5.302-1.446-5.783-3.856-7.228-3.372-11.083-7.708-18.312-12.045-4.337-.964-5.781-3.373-10.119-4.336 1.446-3.855 5.301-5.782 8.192-8.674.482.963.482 1.927.482 2.41 2.41.482 2.41-3.375 5.782-1.928-.483 4.337-4.818 6.264-7.229 9.155-.963 1.929 1.929.964 2.411.482 2.409-1.927-.482 3.374 2.409 2.41 2.409-5.3 5.783-10.602 9.156-15.421 1.444-4.819 5.781-7.227 6.264-12.046 4.337-7.229 10.119-12.528 15.902-17.83 3.373-3.855 10.602 0 13.011-4.819 1.506-1.204 1.87-4.522 2.105-5.88l3.53.497c1.446-2.892-.335-6.663.147-10.037l-31.804-6.264 39.032 1.927c3.374-5.3 6.748-10.601 9.155-15.901-2.89-7.228-4.336-14.457-7.227-21.202-27.949-5.784-54.452-13.976-78.547-28.432-1.444.482-2.891.482-3.854.963 3.854 13.493-.964 27.95-10.601 38.07-11.083 11.564-26.984 15.901-42.405 11.084-13.974-3.375-24.574-17.83-27.466-30.841-1.446-6.265-.964-13.493 0-19.276-.482-.481-.964-.481-1.928-.481-25.058 9.155-49.632 21.202-77.581 23.611 1.927 5.783 5.782 11.084 9.154 16.866 5.784.482 12.048.964 17.83 1.446.965 3.373.06 6.673.06 10.527l35.573 4.81c-1.005.803-1.228 3.26-1.668 4.915-.578 2.342-1.524 4.205-5.534 1.914-.963 1.446-1.927 2.409-3.373 3.854-1.927 5.301-4.337 11.083-9.155 15.903-3.869 3.048-5.523 4.584-2.892 8.674 2.63 4.089 11.083 8.673 12.528 15.419-5.3 7.71-11.082 14.939-13.01 24.577-1.741 1.74-5.743-.282-6.265-2.892.482-3.372 0-7.229-.963-10.601-1.446-1.445-3.854 0-5.301-1.445 2.409-2.41 3.374-5.784 2.892-9.639-2.892-.481-6.747-1.926-9.638-.481-1.446.964-1.446-1.928-2.891-1.928-.964 0-1.927.483-2.892.483-2.409 4.337.965 6.746 2.892 10.6-.482 0-.482.483-.964.483-1.928-.964-5.3-.483-7.71-1.447-2.641 1.321 1.086 7.229 1.927 7.229-3.685 9.209 9.053 23.043 17.349 18.311 1.444-1.446 4.336-1.446 6.746-1.446 1.445 2.408 7.227-.963 5.782 3.855 3.854 10.119 11.565 15.421 21.202 19.275.482.481.482.481.964.481 1.928.482 3.373.963 5.3 1.446 9.156.964 17.348 1.928 24.576 6.264 0 1.446-2.409.965-2.891 1.928-4.337.964-6.747.482-11.083 0-.482 0-.964 0-1.446.482h-1.445c-.482 1.445-.482 3.855-2.409 3.372-1.928 1.927-3.375 3.857-3.375 5.784 5.784 1.927 7.711 8.674 11.084 13.492-.482.964-1.927-.481-2.891.482-1.928 5.301 8.675 1.927 3.855 6.746-2.973 1.273-7.847 5.782-9.844 6.883-.482-.964-1.721-2.064-2.204-3.028-2.89-2.41-4.336-6.265-6.263-8.674-.964 0-1.928.482-1.928 1.447 0 2.408 2.41 3.372 2.892 5.781.963 3.373 3.372 6.747 3.372 10.119-2.409-.962-3.854 4.337-5.782.965-3.372-1.927-6.746-3.855-10.119-6.264 0-.482 0-1.928-.964-1.447-.963.482-2.41 1.929-1.445 2.892 4.337 2.409 6.746 6.264 11.564 8.674.964.964.482 1.927 0 2.891-3.372.481-5.782.963-7.709 4.337 1.927 4.819-2.892 8.674-2.892 13.493-.481 3.372-1.445 6.745-1.928 9.637-2.409-2.41-.963-6.265-1.927-9.637-.964-3.856-5.782-.964-7.228-4.819 0-5.301 4.818-8.674 5.783-13.493-.965-8.674-1.447-17.83 3.855-24.576.482-1.445.482-3.372 0-4.337-.965-.963-2.892-.963-3.855 0-.965.965-.965 3.374 0 4.337 0 .482.481.964.963.964-3.855 6.264-3.372 14.456-2.89 22.167-.965 6.264-10.121 13.974-1.928 19.275.481 0 1.928 0 2.408.963.482 7.228.482 14.457 2.41 20.722-1.928 1.927-4.818 3.854-5.3 7.227.482 3.856.482 7.711 1.928 10.602.482 0 1.444.481 1.927 0 1.927-2.891 1.927-6.746 3.372-10.12.482 2.409 1.929 3.854 1.447 6.746 1.445.483 1.927-.482 3.372-1.445-.482-3.855-.963-8.193.965-11.566-.965-1.927 1.445-2.891 1.445-4.337 3.374-6.746 4.819-13.974 9.638-20.239.271-.631.335-1.083.271-1.403-.051-.258 4.452-2.83 5.017-3.865-.129-.678 1.863-3.87 1.888-3.687m-2.233 3.005c-.886-.743-1.285-.901-1.57-1.759-2.892.482-3.855-1.446-5.302-2.892 0-.481-.963-1.445 0-1.927 1.929-.963 4.337 2.892 4.819-.483-.963 0-1.445-.48-1.445-1.444.963-.965 2.41-2.892 3.855-2.41.964.482 0 2.892 1.927 2.41 2.892-1.928.483-5.783 1.927-8.675 1.928-1.927-3.372-.964-.48-3.372 3.372-1.447 6.264-4.337 9.637-3.856-.963 3.374-5.783 2.409-7.229 5.301 5.783 0 9.156-5.301 15.42-4.819 3.374-1.445 7.229-3.855 10.601-1.445 1.929 1.928-.48 4.337-.963 6.747-.964 1.444-3.374 1.927-3.854 3.372-4.82.964-4.82 8.674-11.084 8.191-2.891 0-2.891 7.711-5.783 2.41.482-1.445 2.892-1.927 4.337-3.372 1.929-.965 4.336-2.41 3.856-4.819.963-.964 1.927-1.446 1.445-2.892-2.409 0-2.892 2.892-4.819 4.337-4.337 2.892-8.674 5.301-13.011 7.711-.192.181-1.625 2.139-2.284 3.686m89.021-108.735c4.818 1.447 7.228-4.819 11.565-6.746 10.12-4.337 12.046-15.901 22.649-19.757 6.745-4.337 5.782-16.384 15.901-15.902 1.446-1.446 1.446-3.374 1.927-5.3L257.8 287.76c-.481 2.41-1.885 4.537-3.813 5.981-9.156 1.928-16.383 7.23-24.094 10.602-.482.965-.963 1.445-.963 2.409-.482.482-.964.965-1.447 1.928v7.228c2.41 6.746 6.747 12.529 7.229 20.72.966 2.897 6.251 7.711 9.156 7.711 3.373 0 6.747-.482 10.119-.482 10.119 0 20.239 1.927 30.357 1.445 1.447.482 3.374.965 4.337.482 0-1.445 0-3.372.965-4.337 6.746-.481 8.673-7.228 13.973-10.6.964 0 2.892-.483 3.374.963 0 6.746-6.746 11.565-7.229 18.311 1.927 1.928 4.819 1.445 7.229 3.373 2.409 0 2.89-3.373 5.3-3.855m-44.813 75.173c.586-1.761 2.086-3.051 3.373-4.337 1.446-1.447.964-2.892 2.409-3.857 2.41-.48 3.374-2.89 5.3-3.854 3.855-2.89-1.445-3.855-2.408-5.782-6.264.963-5.782-10.602-12.048-6.265-1.445 0-1.927 3.855-2.89 1.446.482-2.41 2.89-2.892 2.89-5.783-2.89.483-5.782.964-6.745 3.373 1.445 1.927 2.408 4.337 4.337 5.784 3.855-.483 4.818 2.89 6.745 5.299 1.447 0 2.891.965 3.374 2.41.482.482.963 1.927 0 2.892-1.445-3.856-7.229-.483-7.711-5.302-2.408-.482-5.3-1.445-6.264-4.336-.963-4.337-6.264-4.82-10.119-4.82-.964-1.445-2.892 0-3.855 0 1.927 2.892 7.227 0 9.637 2.41 2.891 3.374 5.301 8.674 9.156 11.565.964 2.41-.482 1.928-1.445.483-2.41-2.41-8.192-1.928-9.156-6.747l-.482-.482c-1.928-.482-3.855-.964-5.783-.964-2.891-.481-4.818 1.446-6.746 2.891 1.445 1.928 4.337 2.41 5.782 4.337 1.446 1.928 2.892 3.855 3.374 5.783-.964.964-1.446 0-2.41-.481-1.927-.482-3.374-1.929-4.818-1.929 1.444 3.856 2.891 8.193 8.191 8.193 2.892 1.445 7.711.963 9.638 4.819 3.855-1.929 4.819-5.784 8.674-6.746m-32.286-62.644c1.928-1.928 1.446-4.818 1.446-7.228-3.373-3.374.482-8.191-.963-12.047-3.374-4.337-4.338-9.155-4.82-14.456-.482-.482-.964-2.41-2.409-1.927-1.445 2.891-.482 6.746-1.445 9.636-2.41-.962-1.447-4.818-3.374-6.264-.963 3.374-3.855 8.193-8.192 10.601-2.409.964-6.264 1.929-7.229 4.819h.483c2.892-.963 5.782-1.927 9.156-2.89 1.927.481 7.229-5.784 5.299 0-1.444 8.192-9.154 10.601-15.418 13.491-1.447.965-3.374 2.41-3.856 4.337 4.819-2.409 11.565-2.409 16.384-5.782 1.928 2.41-1.446 4.819-1.446 7.229-.456.685-5.013 4.817-4.337 4.817.449.225 3.398-1.951 3.856-2.407 9.637-1.448 7.227-13.011 11.564-19.277 2.41 4.337 4.337 8.674 2.41 13.975-2.41 3.854-3.855 8.673-5.782 12.527 3.854-2.409 4.818-6.745 8.673-9.154m98.302-14.456c2.408-1.928 4.817-4.337 8.192-4.819 3.373-2.41 7.227-5.783 6.747-10.12 5.782-7.228 11.563-13.974 18.31-20.239 2.409-1.444 4.819-1.927 8.192-1.444-.481-2.893-4.818-.965-6.746-1.928-2.891.482-5.3 4.337-8.674 1.928-1.446 9.155-10.602 15.42-16.866 21.683 0 3.855-4.338 5.302-5.782 8.193 0 2.409-3.373 3.854-3.373 6.746m17.347 97.82c3.374 1.445 3.374-2.892 6.265-2.892 2.409.482 5.783 0 6.746-2.41 2.409-7.709 8.673.482 13.492-.48 0-1.928-3.372-2.41-3.372-4.337 2.409-1.447 3.854-3.855 5.299-5.784 0-1.445-1.445-.481-1.927-.963-2.409-1.446-.481-4.819 0-7.228-1.446.482-2.89 2.409-2.89 4.336 0 .482-.482.965-.965 1.446-.964 0-1.927-.964-1.445-1.928.481-2.408 3.854-4.336 1.445-6.264-.964 2.41-2.891 4.819-4.819 6.746-.481 2.41 2.892 8.192-.963 6.265-1.446-4.819-2.892-11.564 1.928-14.938-1.928-4.337-3.855-8.192-8.192-10.119-.482-.482 0-.964-.482-1.445-1.928-.483-3.855-3.857-6.746-2.892 0 3.855 5.3 4.819 4.818 8.673 2.891 2.41 1.445-4.336 3.856-.482 1.444 3.374-2.411 4.819-1.446 7.71-1.447.964-1.447-.481-1.928-1.445 0-2.41-.963-5.3-3.855-6.265-2.41 0 .482 1.928-.481 3.855-1.447 1.927-.483 3.855 0 6.265-1.929 0-1.929-1.928-2.892-2.41-.965.482 0 1.929 0 2.892.963.482 1.928 1.446 2.409 2.409-.964.482-.964 1.927 0 1.927 1.928 3.855 7.228 2.892 10.119 5.784-5.3 1.927-11.083.481-15.902-1.929-.963 2.41 2.409 3.374 4.337 4.819 1.446 0 2.892 1.447 3.374 2.892-.482 4.819-2.892-.965-5.302 0-3.372-1.927-6.263-1.927-9.636-3.855-.482 2.89 4.819 6.265 2.89 9.637-1.445-6.264-10.119-4.337-12.046-10.119-4.337 1.445.964 4.819.964 7.709-.482.482.482 2.41-.964 1.928-.965-3.373-4.819-5.3-5.302-8.192-2.408-.482-4.817-1.927-5.299-4.337-2.892.965.963 3.855.963 5.784 0 .963.482 1.927-.481 2.89-1.446-.482-.965-1.927-1.928-2.89-5.3-2.41-5.783-7.711-7.228-12.53-2.892.964-3.855 2.891-6.264 2.891-1.928 0-3.374-1.444-4.819 0-2.892-.482.964-1.927.482-2.891.963-.481 1.927-.481 2.89-.963 0-.964-1.927-1.927-3.372-1.446-2.892.964-4.337-.481-6.747.482-.482-1.445.965-1.928 2.41-2.892 1.927.482 2.41-3.855 5.301-2.408 3.373-2.892 7.71-.483 11.564-2.41-1.927-1.446-4.337-.964-5.782-2.41-4.337 1.446-8.673 1.446-13.493 2.892-2.409-2.409-6.264-2.892-10.601-3.856-1.445 6.264 7.229 6.264 6.264 12.53 3.855.481 7.711 1.928 9.639 5.3.48 1.927 2.409 2.892 3.854 4.337 7.23-.963 8.674 7.709 14.456 9.156 1.446-.483 3.855-.483 5.301.963.482 1.928 1.928 2.409 3.373 2.409 2.891 1.447 5.783-3.855 8.191.483 1.929.482 4.337-1.928 5.784.482 3.855 1.927 5.782-4.337 9.155-.482m-67.944-41.925c2.892-4.817 8.674-5.299 10.119-11.082-1.928-1.446-5.3-2.891-6.265-5.783 1.314.521 5.393 2.863 7.711 1.446 5.3-3.855 5.783-11.083 12.047-13.974 0-6.265 6.264-8.673 6.264-14.937.964-2.409 1.927-4.337 1.927-6.264-3.854-2.892-3.372 4.337-6.264 5.3-3.373 1.927-7.709 3.855-11.084 5.301 1.928 10.117-7.708 10.6-11.563 18.309-1.929 1.93-2.41 5.302-5.302 6.747-.482 0 0 .481 0 .481 2.41 0 4.82.965 7.229 1.447-.965 2.409-3.856 3.373-5.783 5.3-2.41 1.446-4.337-3.854-7.227-.482-.964-.482-.964-.963-1.928-1.445-.963.963-1.927 2.892-2.408 4.337 0 6.264 7.708 4.819 10.117 8.674 2.41.482.965-2.41 2.41-3.375m0-33.248c-1.445-3.374-2.892-7.227-6.263-8.672-.482-.483-.482-.964-.964-.964-.964-.483-.483.481-.483.481 0 .483.483.483.965.483.963 1.927 1.926 3.373 3.371 5.298.964 2.41 1.446 4.82 2.41 7.229 1.446-.483 1.446-2.409.964-3.855m.963-9.155c-2.408-4.336-6.745-8.191-12.528-8.674.965 1.928 3.855 2.893 5.783 4.338 1.927 3.855 4.337 7.709 7.227 11.081.965-1.926.482-4.817-.482-6.745m24.094 37.104c.482-2.892-1.928.482-2.41 0-.963.482-.963 1.927-2.89 1.927-1.447.965-3.374 2.41-4.819 3.855 3.854 1.447 8.674-1.927 10.119-5.782m15.902 12.046c1.446.482 2.892 0 2.892-.963-1.446.483-2.892 0-2.892.963m-66.979-13.491c.482-2.892-3.855.963-2.892-2.41-1.445 0-1.927.963-1.927 1.927 0 1.446 1.927 1.446 2.892 1.928.963.482 1.927-.964 1.927-1.445m-16.865 69.871c-2.41-.481-2.41-3.855-4.337-4.337-.483.964.48 1.927-.965 1.927 0 .483.482.965.482 1.447 1.928.482 2.891 1.927 4.82 2.409.48-.482 0-.964 0-1.446m-25.541-2.41c-1.445-.963-2.89-3.854-5.3-2.89-1.927 8.673-6.264 16.383-5.782 25.539 1.445 3.373 2.89-1.928 3.855-3.372 2.89-6.266 2.409-13.976 7.227-19.277m32.768-.963c0-.964-1.928-.482-2.41-1.446.964-1.445 3.374-1.445 2.41-4.336 0-.964-3.373 0-1.928-1.929-.482-.481-3.372-1.445-1.445-2.408 0-1.446-2.41.963-3.854.963-1.447 0-2.41 2.41-1.929 3.855.964 1.927 1.446-1.927 3.373-.481 0 2.408 0 5.3 1.928 7.228 1.445.482 2.891-.964 3.855-1.446m1.447 5.782c-3.375-.963-1.447 1.446-.965 3.374 3.855 3.855 1.445-1.928.965-3.374m1.927-2.89c-.483-1.446-2.892-.482-4.338-.482-.482.482-1.927.482-.964 1.445 1.928 0 4.337 0 5.302-.963m-36.142-145.045c-1.445 2.409-.481 5.784-2.89 7.711-.482.963 0 2.891.962.963 2.41-1.927 2.41-5.3 1.928-8.674m12.53-34.213c-.482-1.927-3.857-1.445-5.784-1.445 0 1.445 2.41 2.41 3.857 2.89.963.483 1.445-.48 1.927-1.445m27.804 1.421c-.675-1.787-4.662-.936-6.602-1.421-.482 1.445 3.373.965 3.855 3.855.964 0 2.265-1.47 2.747-2.434M213.51 303.38c2.89-.965 5.782-.483 8.192-2.409 4.524-2.023 14.786-12.325 16.029-10.996.963-1.448 2.853-2.746 1.891-4.673l-8.546-1.156c-1.447 4.337-4.073 7.668-6.965 10.078-2.409.963-6.746-.483-7.711 1.445-.481.482-.963.482-1.927.482-3.372 5.3-10.119 11.083-6.265 17.83 1.447-.482 1.447 2.41 2.893 1.445 0-2.28-3.268-13.308 2.409-12.046m13.493 3.372c.48-.481.963-.964.963-1.444-2.41-.483-3.373 1.444-4.337 2.889-.963 2.893-.483 4.82-.483 7.711 2.893 1.928 1.93-.964 1.93-2.409 0-4.415 1.927-3.63 1.927-6.747m-15.902 13.976c-4.337-3.374-10.12-4.82-11.566-10.603-.963 1.929-1.445 3.856-1.445 5.783 4.337 1.928 8.191 3.855 11.083 7.228 1.928 2.891 2.41-1.446 1.928-2.408m118.057 76.616c.964-4.337 2.892-8.674 2.409-13.491-.963-.965-2.409.48-3.372-.483-1.445-.482-2.891 0-4.337-1.447 1.446-2.407 4.82-.963 7.229-1.444 8.674 5.3 20.237.963 29.393 6.263 4.337 1.446 4.337-3.854 6.265-6.263-1.928-8.674-2.41-17.347-.482-26.021-.481-.964-.963-1.928-2.409-1.445-2.409.481.481 1.445 0 2.89-1.446 1.928-3.374 3.374-1.928 5.784 1.928 4.817.965 11.082 0 15.9-1.928 2.409-4.337.964-5.782 1.929-8.674-1.448-16.866-3.857-22.648-10.121-2.409-2.891-6.266-3.854-10.12-3.854-3.372 2.408-2.891 6.745-6.265 8.673-2.891 0-5.298 2.409-7.228 3.854 0 1.448-.481 2.411-.963 3.374 3.855-.963 8.674-.482 11.565-3.374.482-.481.963.483.963.965-.481 6.264-6.263 7.709-9.635 11.565 5.298-.482 10.118-2.891 14.455-6.265 1.927 3.855 2.41 8.192 1.927 13.011h.963zm49.635-92.519v-.965c-2.41 0-4.819-.963-7.229-.963.482 2.411 3.855 2.411 5.301 3.855 1.446 0 .963-1.444 1.928-1.927M221.707 460.282c-1.005.713-2.622 2.028-3.351 2.186-1.445-1.445-6.773-4.408-7.255-6.335 0-.483 0-1.445.482-1.445 2.409 4.336 6.504 4.439 10.124 5.594" fill="#fbbd09" fill-rule="evenodd"/></g></svg>
