<?xml version="1.0" encoding="UTF-8" standalone="no"?>
<!-- Created with Inkscape (http://www.inkscape.org/) -->

<svg
   xmlns:dc="http://purl.org/dc/elements/1.1/"
   xmlns:cc="http://creativecommons.org/ns#"
   xmlns:rdf="http://www.w3.org/1999/02/22-rdf-syntax-ns#"
   xmlns:svg="http://www.w3.org/2000/svg"
   xmlns="http://www.w3.org/2000/svg"
   xmlns:sodipodi="http://sodipodi.sourceforge.net/DTD/sodipodi-0.dtd"
   xmlns:inkscape="http://www.inkscape.org/namespaces/inkscape"
   version="1.0"
   width="488.99973"
   height="600"
   id="svg2181"
   sodipodi:version="0.32"
   inkscape:version="0.92.3 (2405546, 2018-03-11)"
   sodipodi:docname="Coat_of_Arms_of_Buryatia.svg"
   inkscape:output_extension="org.inkscape.output.svg.inkscape">
  <metadata
     id="metadata18">
    <rdf:RDF>
      <cc:Work
         rdf:about="">
        <dc:format>image/svg+xml</dc:format>
        <dc:type
           rdf:resource="http://purl.org/dc/dcmitype/StillImage" />
      </cc:Work>
    </rdf:RDF>
  </metadata>
  <sodipodi:namedview
     inkscape:window-height="844"
     inkscape:window-width="1440"
     inkscape:pageshadow="2"
     inkscape:pageopacity="0.0"
     guidetolerance="10.0"
     gridtolerance="10.0"
     objecttolerance="10.0"
     borderopacity="1.0"
     bordercolor="#666666"
     pagecolor="#ffffff"
     id="base"
     showguides="true"
     inkscape:guide-bbox="true"
     inkscape:zoom="0.88795159"
     inkscape:cx="90.664898"
     inkscape:cy="281.03217"
     inkscape:window-x="-8"
     inkscape:window-y="-8"
     inkscape:current-layer="svg2181"
     showgrid="false"
     inkscape:window-maximized="1" />
  <defs
     id="defs2183" />
  <g
     id="g5105"
     transform="matrix(1.0003396,0,0,0.9992726,-1.5775417e-4,1.6776881e-4)">
    <path
       id="_128635016"
       style="fill:#d1d3d4;fill-opacity:1;fill-rule:evenodd;stroke:#000000;stroke-width:0.05849923;stroke-miterlimit:4;stroke-dasharray:none;stroke-opacity:1"
       transform="matrix(9.7810232,0,0,9.7810232,-817.41429,-1293.9976)"
       d="m 133.52,132.326 v 51.827 c 0,3.3052 -2.6538,5.9677 -5.9482,5.9677 h -13.2692 c -2.608,0.0918 -4.7128,0.9641 -5.9025,3.5347 -1.2811,-2.4789 -2.1504,-3.3511 -5.8566,-3.5347 H 89.5489 c -3.2944,0 -5.9482,-2.6625 -5.9482,-5.9677 v -51.827 z"
       inkscape:connector-curvature="0" />
    <path
       id="_129012848"
       style="fill:#ffffff;fill-rule:evenodd;stroke:#1f1a17;stroke-width:0.0762"
       transform="matrix(9.7810232,0,0,9.7810232,-817.41429,-1293.9976)"
       d="m 108.608,144.768 c 11.0257,0 19.9672,8.9415 19.9672,19.9671 0,11.0258 -8.9415,19.9673 -19.9672,19.9673 -11.0257,0 -19.9672,-8.9415 -19.9672,-19.9673 0,-11.0256 8.9415,-19.9671 19.9672,-19.9671 z"
       inkscape:connector-curvature="0" />
    <path
       id="_128637832"
       style="fill:#ffd900;fill-opacity:1;fill-rule:evenodd"
       transform="matrix(9.7810232,0,0,9.7810232,-817.41429,-1293.9976)"
       d="m 108.608,151.606 c 7.2495,0 13.1287,5.8791 13.1287,13.1286 0,7.2496 -5.8792,13.1288 -13.1287,13.1288 -7.2496,0 -13.1287,-5.8792 -13.1287,-13.1288 0,-7.2495 5.8791,-13.1286 13.1287,-13.1286 z m 0,-1.563 c 8.1126,0 14.6917,6.5791 14.6917,14.6916 0,8.1127 -6.5791,14.6918 -14.6917,14.6918 -8.1126,0 -14.6917,-6.5791 -14.6917,-14.6918 0,-8.1125 6.5791,-14.6916 14.6917,-14.6916 z"
       inkscape:connector-curvature="0" />
    <path
       id="_129015144"
       style="fill:#066c4b;fill-rule:evenodd"
       transform="matrix(9.7810232,0,0,9.7810232,-817.41429,-1293.9976)"
       d="m 121.181,168.522 c -0.2512,0.8347 -0.5831,1.6344 -0.9868,2.39 h -23.172 c -0.2886,-0.5399 -0.5409,-1.102 -0.7529,-1.6836 l 0.265,0.0597 c 1.6404,-1.0568 3.1675,-1.6609 4.9582,-2.3361 0.6833,0.4608 1.3508,0.7151 1.907,1.4302 1.5257,-0.4512 2.849,-0.831 4.3747,-1.2821 0.5085,-0.1503 1.0291,-0.4439 1.6806,-0.5228 1.5255,0.2862 2.8921,0.7276 3.909,1.3954 0.5289,-0.2582 1.0896,-0.5484 1.8739,-1.0616 2.0379,0.9425 4.0123,1.2264 5.9433,1.6109 z"
       inkscape:connector-curvature="0" />
    <path
       id="_129018048"
       style="fill:#0039a6;fill-opacity:1;fill-rule:evenodd"
       transform="matrix(9.7810232,0,0,9.7810232,-817.41429,-1293.9976)"
       d="m 120.194,170.912 c -2.2103,4.1361 -6.5697,6.9516 -11.586,6.9516 -5.0163,0 -9.3758,-2.8155 -11.586,-6.9516 z"
       inkscape:connector-curvature="0" />
    <path
       id="_129018968"
       style="fill:#ffffff;fill-rule:evenodd"
       transform="matrix(9.7810232,0,0,9.7810232,-817.41429,-1293.9976)"
       d="m 116.639,175.119 c -0.4533,0.3511 -0.9301,0.6732 -1.4278,0.9635 -0.0878,-0.049 -0.1667,-0.1002 -0.2335,-0.1527 -0.2744,0.2463 -0.9002,0.5337 -1.3502,0.5337 -0.5786,0 -1.3239,-0.2983 -1.7359,-0.5337 -0.3305,0.2568 -1.0419,0.5337 -1.5628,0.5337 -0.521,0 -1.1959,-0.2965 -1.5628,-0.5337 -0.3496,0.2372 -1.183,0.5337 -1.7745,0.5337 -0.5219,0 -1.1318,-0.2371 -1.5657,-0.5337 -0.4919,0.2966 -1.0278,0.5337 -1.5418,0.5337 -0.6608,0 -1.4755,-0.2371 -1.9822,-0.5337 -0.0233,0.0171 -0.0469,0.0336 -0.0709,0.0499 -0.4414,-0.2666 -0.8656,-0.5587 -1.271,-0.8737 0.4374,-0.0619 0.8566,-0.2833 1.3419,-0.5165 0.6087,0.3023 1.248,0.5337 1.8721,0.5337 0.5507,0 1.1453,-0.257 1.6519,-0.5337 0.5193,0.2965 1.0828,0.5337 1.6241,0.5337 0.5413,0 1.1303,-0.1914 1.6241,-0.5337 0.4637,0.3209 1.1178,0.5337 1.6768,0.5337 0.4931,0 1.0455,-0.2413 1.4795,-0.5337 0.4718,0.2657 1.1802,0.5337 1.7704,0.5337 0.459,0 0.996,-0.1597 1.377,-0.5337 0.4387,0.304 1.0335,0.5337 1.5503,0.5337 0.0366,0 0.0735,-0.002 0.111,-0.004 z m 2.7134,-2.8408 c -0.3012,0.4282 -0.6274,0.8375 -0.9764,1.2261 -0.08,-0.0359 -0.1446,-0.0723 -0.1903,-0.1087 -0.4201,0.4295 -1.0694,0.5939 -1.604,0.5939 -0.5347,0 -1.2452,-0.2807 -1.604,-0.5939 -0.2744,0.2741 -0.9002,0.5939 -1.3502,0.5939 -0.5786,0 -1.3239,-0.332 -1.7359,-0.5939 -0.3305,0.2857 -1.0419,0.5939 -1.5628,0.5939 -0.521,0 -1.1959,-0.33 -1.5628,-0.5939 -0.3496,0.2639 -1.183,0.5939 -1.7745,0.5939 -0.5219,0 -1.1318,-0.264 -1.5657,-0.5939 -0.4919,0.3299 -1.0278,0.5939 -1.5418,0.5939 -0.6608,0 -1.4755,-0.264 -1.9822,-0.5939 -0.4604,0.3739 -1.0528,0.5939 -1.5792,0.5939 -0.5263,0 -1.1188,-0.2639 -1.5791,-0.5938 -0.3251,-0.3701 -0.6298,-0.7585 -0.9122,-1.1637 0.3131,-0.103 0.6202,-0.2215 0.9121,-0.3278 0.5875,0.3364 1.0528,0.5938 1.5792,0.5938 0.5264,0 1.007,-0.288 1.5792,-0.5938 0.6087,0.3364 1.248,0.5938 1.8721,0.5938 0.5507,0 1.1453,-0.2859 1.6519,-0.5938 0.5193,0.3299 1.0828,0.5938 1.6241,0.5938 0.5413,0 1.1303,-0.2129 1.6241,-0.5938 0.4637,0.3571 1.1178,0.5938 1.6768,0.5938 0.4931,0 1.0455,-0.2685 1.4795,-0.5938 0.4718,0.2957 1.1802,0.5938 1.7704,0.5938 0.459,0 0.996,-0.1775 1.377,-0.5938 0.4387,0.3382 1.0335,0.5938 1.5503,0.5938 0.5169,0 1.1378,-0.3076 1.5505,-0.5938 0.2691,0.1238 0.7413,0.2621 1.2739,0.374 z"
       inkscape:connector-curvature="0" />
    <path
       id="_129022192"
       style="fill:#0039a6;fill-opacity:1;fill-rule:evenodd"
       transform="matrix(9.7810232,0,0,9.7810232,-817.41429,-1293.9976)"
       d="m 108.608,148.246 c 9.1048,0 16.4886,7.3837 16.4886,16.4885 0,9.1049 -7.3838,16.4887 -16.4886,16.4887 -9.1048,0 -16.4886,-7.3838 -16.4886,-16.4887 0,-9.1048 7.3838,-16.4885 16.4886,-16.4885 z m 0,-3.4786 c 11.0257,0 19.9672,8.9415 19.9672,19.9671 0,11.0257 -8.9415,19.9673 -19.9672,19.9673 -11.0256,0 -19.9672,-8.9416 -19.9672,-19.9673 0,-11.0256 8.9416,-19.9671 19.9672,-19.9671 z"
       inkscape:connector-curvature="0" />
    <path
       sodipodi:nodetypes="ccsccsccccscccsccsccccsc"
       id="_129022968"
       style="fill:#47a5ae;fill-opacity:1;fill-rule:evenodd;stroke:#ffffff;stroke-width:0.30671638;stroke-miterlimit:4;stroke-dasharray:none;stroke-opacity:1"
       transform="matrix(9.7810232,0,0,9.7810232,-817.41429,-1293.9976)"
       d="m 124.88255,178.3371 c -0.0732,-0.7934 0.10362,-1.71981 0.51632,-2.46261 0.5268,0.4127 1.02836,1.73139 0.96696,1.85829 -0.3155,0.6529 -1.06175,0.2459 -1.48328,0.60432 z m -5.51509,-6.34808 c -0.7563,-0.2819 -1.51556,-0.0568 -1.98006,0.53138 -0.3214,0.407 0.13756,0.82224 0.61936,1.16014 0.50801,-0.53308 0.94604,-1.08481 1.3607,-1.69152 z m -27.066843,6.19502 c 0.0445,-0.7934 -0.135902,-1.65495 -0.548602,-2.39775 -0.5269,0.4127 -0.9564,1.60186 -0.8951,1.72866 0.3156,0.6529 1.011475,0.25679 1.443702,0.66909 z m 6.821919,-4.5846 c -0.5001,-0.537 -0.89773,-1.03704 -1.30323,-1.65184 0.7564,-0.2819 1.450894,-0.1036 1.915394,0.4846 0.3214,0.4069 -0.130464,0.82944 -0.612164,1.16724 z m 24.151754,4.96765 c 0.3733,0.2695 1.12912,1.28563 0.81062,1.65713 -0.4168,0.486 -1.7621,0.26619 -2.5366,-0.0381 0.57733,-0.49656 1.21108,-1.05984 1.72598,-1.61902 z m -27.588333,1.65315 c -0.690599,-0.56849 -1.328936,-1.19966 -1.769436,-1.68026 -0.3696,0.2695 -1.117345,1.29392 -0.802045,1.66542 0.4127,0.486 1.804681,0.31914 2.571481,0.0148 z"
       inkscape:connector-curvature="0" />
    <path
       id="_129021688"
       style="fill:#ffcb05;fill-opacity:1;fill-rule:evenodd"
       transform="matrix(9.7810232,0,0,9.7810232,-817.41429,-1293.9976)"
       d="m 117.292,152.3 c 0.0556,0.4081 0.085,0.8249 0.085,1.2483 0,5.0622 -4.1052,9.1674 -9.1673,9.1674 -5.0622,0 -9.1675,-4.1052 -9.1675,-9.1674 0,-0.4233 0.0295,-0.8399 0.0851,-1.2481 1.2041,3.8712 4.8154,6.683 9.0824,6.683 4.2669,0 7.8783,-2.8119 9.0823,-6.6832 z m -9.0824,-8.8699 c 3.9102,0 7.0811,3.171 7.0811,7.0812 0,3.9102 -3.1709,7.0812 -7.0811,7.0812 -3.9102,0 -7.0812,-3.171 -7.0812,-7.0812 0,-3.9102 3.171,-7.0812 7.0812,-7.0812 z m 0.1003,-0.3163 c 0.2812,-0.4166 0.7892,-0.8038 1.1417,-0.8209 1.0429,-0.0507 1.9182,-0.3711 2.3234,-1.3159 0.435,-1.0146 -0.3154,-1.8631 -0.4139,-2.297 -0.0597,-0.2633 0.0696,-0.5495 0,-0.8105 -0.0625,-0.2343 -0.3117,-0.3875 -0.3814,-0.6198 -0.0776,-0.2591 -0.1237,-0.5403 -0.1396,-0.8104 -0.1907,0.2383 -0.4189,0.4162 -0.4801,0.7151 -0.0776,0.3787 0.2664,0.7651 0.1907,1.1442 -0.0623,0.3116 -0.4861,0.4839 -0.6382,0.7628 -0.0856,0.157 -0.0165,0.3612 -0.0204,0.5642 -0.002,0.1138 -0.1342,0.2646 -0.2555,0.2795 -0.1308,0.016 -0.2924,-0.0745 -0.3084,-0.284 -0.008,-0.1084 0.0306,-0.2317 0.0306,-0.3213 0,-0.3069 0.3481,-0.6584 0.3179,-0.9636 -0.0628,-0.6338 -0.6947,-0.789 -0.8424,-1.3248 -0.1184,-0.4299 0.18,-0.8943 0.1116,-1.3349 -0.0469,-0.302 -0.2672,-0.5806 -0.3806,-0.8428 -0.0759,-0.1755 -0.0617,-0.3653 0.0153,-0.556 -0.4482,0.2198 -0.8569,0.7187 -0.979,1.1604 -0.0981,0.3552 0.3338,0.7281 0.3269,1.0965 -0.0109,0.5846 -0.7897,0.9121 -0.9058,1.478 -0.1095,0.5334 0.3823,1.2111 0.4195,1.5746 0.0218,0.2135 0.005,0.3933 -0.2288,0.4277 -0.1829,0.027 -0.3828,-0.1105 -0.4282,-0.2653 -0.0584,-0.199 0.0902,-0.4764 -9e-4,-0.6405 -0.1561,-0.2812 -0.4582,-0.4957 -0.5244,-0.8105 -0.0694,-0.3298 0.125,-0.6647 0.143,-1.0012 0.018,-0.3364 -0.2402,-0.6208 -0.4902,-0.8597 0.0135,0.1907 -0.008,0.4946 -0.098,0.669 -0.1518,0.2936 -0.4815,0.5251 -0.5721,0.8428 -0.079,0.2766 0.1766,0.4518 0.0555,0.7127 -0.1627,0.3508 -0.6746,0.754 -0.6115,1.4481 0.114,1.2518 1.0891,2.0736 2.3798,2.1453 0.4388,0.0244 0.9098,0.5721 1.2435,0.8582 z"
       inkscape:connector-curvature="0" />
    <path
       id="_129030520"
       style="fill:#00923f;fill-rule:evenodd"
       transform="matrix(9.7810232,0,0,9.7810232,-817.41429,-1293.9976)"
       d="m 97.2431,168.948 2.9201,-1.333 1.2389,-0.454 -0.4293,2.0014 -0.1073,-0.7863 -1.7441,0.8935 0.4292,-0.7863 z m 14.1632,0.6105 2.9906,-2.0571 0.8478,-0.454 -0.2938,2.0014 -0.0735,-0.7863 -1.1934,0.8935 0.2938,-0.7862 z m -8.4281,-0.853 5.0331,-1.4946 1.3112,-0.5338 -0.84,2.6988 0.1252,-1.4836 -2.779,1.4567 1.0278,-1.3495 z"
       inkscape:connector-curvature="0" />
    <path
       sodipodi:nodetypes="ccscccccccccscccsccccccscccccccscssccsccc"
       id="_129031656"
       style="fill:#47a5ae;fill-opacity:1;fill-rule:evenodd;stroke:#ffffff;stroke-width:0.30671638;stroke-miterlimit:4;stroke-dasharray:none;stroke-opacity:1"
       transform="matrix(9.7810232,0,0,9.7810232,-817.07748,-1291.6086)"
       d="m 130.081,175.075 c -0.2962,-0.3269 -0.7722,-0.7185 -1.0685,-1.1272 -0.909,1.2871 -1.6911,2.6262 -2.6593,3.8106 -0.5383,0.6585 -1.4048,0.0391 -1.4816,0.6261 0.3775,2.5745 1.1977,3.1119 1.9918,3.7692 0.9672,-2.3597 2.086,-4.7192 3.2176,-7.0787 z m -0.9892,-1.5852 c -0.859,1.1657 -1.848,2.7867 -2.707,3.9525 0.0382,-1.5041 -3.0226,-3.7844 -5.0236,-4.8115 -1.2057,-0.6188 -2.877,-1.6056 -4.0494,-0.3977 0.8794,-1.7588 1.7588,-3.488 2.6382,-5.2468 0.824,-0.1941 2.5982,0.4679 4.1721,1.043 2.8303,1.0342 6.1968,3.5176 4.9697,5.4605 z m -42.0521,1.497 c 0.2962,-0.3269 0.7791,-0.8079 1.0754,-1.2165 0.9091,1.287 1.6019,2.7386 2.6706,3.8963 0.434,0.4701 1.3606,-0.0423 1.4634,0.6297 -0.3775,2.5744 -1.1978,3.1119 -1.9918,3.7691 -0.9673,-2.3597 -2.086,-4.7191 -3.2176,-7.0786 z m 0.9892,-1.5852 c 0.859,1.1657 1.848,2.7867 2.7069,3.9524 -0.0382,-1.504 3.0227,-3.7843 5.0237,-4.8114 1.2056,-0.6188 2.769056,-1.56252 3.941456,-0.35452 -0.8794,-1.7588 -1.650856,-3.53128 -2.530356,-5.29008 -0.824,-0.194 -2.5981,0.4679 -4.172,1.043 -2.8304,1.0343 -6.1968,3.5177 -4.9697,5.4606 z m 20.472,10.9414 c 4.0998,0 7.9733,0.5727 12.0633,1.7179 0.4545,-0.9544 0.843,-1.9424 1.3634,-2.8631 0.5148,-0.9108 1.2807,-1.9498 1.859,-2.8223 -0.5646,0.2454 -1.3622,0.1866 -1.9003,0 -3.7139,-1.288 -8.0209,-2.3724 -13.3856,-2.3724 -5.3115,0 -9.5755,1.0844 -13.2525,2.3724 -0.5328,0.1866 -1.3225,0.2454 -1.8815,0 0.5726,0.8725 1.3309,1.9115 1.8406,2.8223 0.5153,0.9207 0.8999,1.9087 1.3498,2.8631 4.0494,-1.1452 7.8842,-1.7179 11.9438,-1.7179 z"
       inkscape:connector-curvature="0" />
  </g>
</svg>
