<?xml version="1.0" encoding="UTF-8" standalone="no"?>
<!-- Created with Inkscape (http://www.inkscape.org/) -->
<svg
   xmlns:svg="http://www.w3.org/2000/svg"
   xmlns="http://www.w3.org/2000/svg"
   version="1.0"
   width="491"
   height="600"
   id="svg17080">
  <defs
     id="defs17082" />
  <g
     transform="translate(236.95413,735.68051)"
     id="layer1">
    <g
       transform="matrix(1.0264345,0,0,1.025402,-496.53118,-639.34632)"
       style="fill-rule:evenodd"
       id="g17007">
      <path
         d="M 135.672,163.887 L 135.672,163.6911 L 135.672,163.6494 L 135.673,163.6494 C 135.6731,154.0207 135.6993,144.2502 135.7254,134.4565 C 135.7507,124.9438 135.7761,115.4062 135.7765,105.3866 L 80.1227,105.3866 C 80.1229,114.9942 80.1356,124.6398 80.1483,134.2743 C 80.161,143.9682 80.1738,153.6511 80.1738,163.2731 L 80.1748,163.2731 L 80.1748,163.4157 C 80.1748,164.5721 80.2923,165.558 80.5332,166.3815 C 80.7697,167.1905 81.1254,167.8447 81.6056,168.3521 C 82.0842,168.8577 82.6994,169.2302 83.4567,169.4771 C 84.2285,169.7288 85.1483,169.8506 86.2216,169.8506 L 101.4956,169.8506 L 101.5117,169.8495 L 101.5128,169.8495 C 101.5325,169.8483 101.5619,169.8467 101.6004,169.8449 C 101.6231,169.8439 101.6528,169.8428 101.6893,169.8418 C 101.8344,169.8376 101.9789,169.8393 102.1223,169.8465 L 102.1268,169.8467 C 102.3603,169.8587 102.5911,169.885 102.818,169.9242 C 103.0435,169.9631 103.2708,170.0159 103.4982,170.081 C 104.6408,170.4079 105.7137,171.0382 106.5802,171.78 L 106.5802,171.78 L 106.5807,171.7804 C 106.6858,171.8704 106.7868,171.9611 106.8834,172.052 C 106.9807,172.1436 107.0755,172.2373 107.1675,172.3325 C 107.52,172.6974 107.8253,173.0805 108.0707,173.4638 C 108.1005,173.4177 108.131,173.3716 108.1624,173.3254 C 108.2802,173.1523 108.4121,172.9764 108.5569,172.7994 C 109.2855,171.9097 110.2959,171.0772 111.4765,170.5295 C 111.7898,170.3842 112.1102,170.2605 112.4354,170.1605 C 112.7604,170.0606 113.093,169.9834 113.431,169.931 C 113.5219,169.9169 113.5982,169.9062 113.66,169.8987 C 113.8321,169.878 114.0071,169.8639 114.1848,169.8568 L 114.1848,169.8487 L 114.4505,169.8487 L 114.4517,169.8487 L 129.1483,169.8487 L 129.414,169.8487 L 129.414,169.8488 L 129.4769,169.8475 L 129.4859,169.8473 C 129.765,169.8402 130.0367,169.8242 130.3007,169.7989 C 130.5553,169.7746 130.8089,169.7401 131.0613,169.6954 C 132.3029,169.4756 133.3185,169.0193 134.07,168.3058 L 134.0696,168.3053 L 134.07,168.3049 L 134.0742,168.3018 C 134.2193,168.1637 134.354,168.0169 134.4778,167.8615 C 134.601,167.7069 134.7168,167.5392 134.8249,167.3584 C 135.3548,166.4711 135.6477,165.3208 135.672,163.887 L 135.672,163.887 z "
         transform="matrix(8.5951887,0,0,8.5951887,-435.77775,-999.76544)"
         style="fill:#fe0000;fill-opacity:1;fill-rule:nonzero"
         id="_131813888" />
      <path
         d="M 112.366,110.544 C 110.5498,110.3961 108.6931,110.553 106.9173,110.5108 C 106.5939,111.0039 106.5341,111.1238 106.2106,111.6169 C 103.6022,111.6383 103.8185,113.6137 104.9024,115.0794 C 105.3569,114.3965 105.4396,113.6423 105.947,113.7986 C 105.3256,117.6213 103.4205,119.6088 101.2057,120.2737 C 101.0813,119.7312 101.1452,119.45 101.0208,118.9076 C 100.4237,119.3761 99.8266,119.6206 99.2295,120.0891 C 96.8526,118.0714 99.0653,116.2768 99.2081,114.0485 C 99.33,112.1477 97.2856,111.6069 95.7207,111.8422 C 88.9874,113.5013 85.1601,121.7377 85.0769,129.3892 C 85.0437,132.4373 84.9603,135.8327 85.064,139.0991 C 85.2328,144.4184 85.2605,149.3655 83.6766,152.7726 C 84.4201,152.6976 84.8112,152.483 85.3821,152.0468 C 85.5528,153.5213 85.4792,155.5181 85.5636,157.4246 C 85.6196,158.6874 85.7237,159.9106 86.09,160.9164 C 86.9426,162.5265 87.8765,163.2696 90.4445,163.1145 C 89.6917,161.9987 88.2746,160.9486 88.4892,159.2993 C 89.0438,159.9308 90.7041,160.7872 91.834,160.7065 C 89.8886,158.4057 90.4419,156.2763 90.4068,153.7753 C 93.7692,149.6899 96.8439,144.6974 100.3786,141.6065 C 101.105,141.9508 100.9343,145.7329 100.7186,146.8601 C 99.704,147.0787 98.7271,146.9614 97.7126,147.18 C 96.3991,147.4404 96.2852,148.6892 96.6141,150.0842 C 97.0418,149.6899 97.5426,149.3547 97.9617,149.2236 C 96.9625,150.2617 96.3935,151.98 97.8347,152.9975 C 98.1096,151.6716 98.3859,151.3375 98.9891,151.7043 C 97.9912,152.9658 97.9896,154.06 100.1801,154.7861 C 100.1401,153.1765 100.7393,152.8825 101.3022,152.5233 C 101.7398,152.244 102.1407,151.94 102.2974,150.8519 C 102.9754,150.422 103.5437,150.3836 103.9516,150.9175 C 103.8192,152.134 103.8426,153.179 103.7188,154.2428 C 103.5693,155.5268 103.4217,156.7211 102.3636,157.7367 C 103.1355,157.7367 103.9828,157.7367 104.7547,157.7367 C 104.8942,158.528 104.2475,159.1911 103.6594,160.0316 C 104.8214,160.2001 106.1357,159.8471 106.7295,159.4516 C 107.902,161.284 108.7385,161.3915 109.992,159.5172 C 111.4159,160.0158 112.2223,159.7038 113.281,159.7038 C 112.8399,159.0699 112.3988,158.4361 111.9577,157.8023 C 112.884,157.8897 113.1944,157.894 114.4311,157.7618 C 112.5207,156.0462 113.0338,153.5785 112.9308,150.9457 C 113.4745,150.3713 113.9349,150.4086 114.5382,150.983 C 115.0159,152.7229 116.9459,152.4351 116.473,154.4626 C 117.5224,154.2022 117.9885,153.8281 118.1683,153.3769 C 118.349,152.9235 118.2765,152.5322 118.0663,152.1183 C 117.9409,151.8713 117.8458,151.619 118.1203,151.3866 C 118.3976,151.4161 118.7405,152.092 118.9713,152.8382 C 120.3254,151.9129 120.2422,150.7905 119.1667,149.9573 C 118.81,149.6701 118.6573,149.4576 118.9225,149.3063 C 119.4929,149.2915 119.8255,149.5403 120.2957,150.065 C 120.8923,148.7465 120.6987,147.7657 118.9149,147.1175 C 118.0186,146.7921 116.9844,146.9831 116.0417,146.8793 C 115.9975,145.2401 116.1041,143.3769 116.06,141.7377 C 117.0385,142.2073 118.4526,143.4588 121.0464,146.8271 C 122.4628,148.6717 124.0769,150.9174 125.9849,153.737 C 126.4816,156.8622 126.1847,159.3056 124.7278,160.7529 C 126.2027,160.5144 127.5309,160.0463 128.4982,159.0774 C 128.696,160.6422 127.9457,162.035 126.3992,163.3203 C 129.7889,163.2185 130.6342,161.7391 131.2207,159.4988 C 131.4495,158.5105 131.343,157.2863 131.3634,156.0113 C 131.3838,154.7363 131.3729,152.8731 131.5144,151.9202 C 132.1218,151.9523 132.059,151.9943 132.7166,152.1057 C 131.2093,148.8602 131.7054,145.2622 131.5688,141.5469 C 131.6554,139.1163 131.5684,135.2803 131.5554,131.6957 C 131.5397,127.3267 131.6063,123.9733 129.6445,119.844 C 128.1839,116.7698 126.5714,115.0509 125.1411,113.9178 C 124.2722,113.2295 123.4666,112.7407 122.4457,112.3325 C 121.097,111.7931 120.2702,111.5553 119.0736,111.803 C 117.5507,112.3822 116.9743,113.878 117.6361,115.3052 C 118.31,116.7584 119.3611,118.5638 117.2615,120.1168 C 116.6516,119.4116 116.4936,118.9304 115.8837,118.2252 C 115.782,119.0311 115.8653,119.8476 115.4657,120.0831 C 114.6247,120.1549 114.0263,119.749 113.6501,119.3408 C 112.095,117.9902 111.2363,115.0071 111.3049,112.0108 C 111.7834,111.3495 111.8876,111.2053 112.366,110.544 L 112.366,110.544 z "
         transform="matrix(8.5951887,0,0,8.5951887,-435.77775,-999.76544)"
         style="fill:#1f1a17"
         id="_131821016" />
      <path
         d="M 104.86,114.068 C 105.0171,113.2998 105.8617,112.7129 106.5655,113.1039 C 106.3106,111.8328 104.2147,112.1365 104.86,114.068 z "
         transform="matrix(8.5951887,0,0,8.5951887,-435.77775,-999.76544)"
         style="fill:#fcef01;fill-opacity:1"
         id="_131821392" />
      <path
         d="M 100.791,123.117 C 99.6109,122.2973 99.1834,121.3655 99.0805,120.5456 C 97.6095,119.507 97.3232,118.4856 97.5736,117.3971 C 97.9181,115.8997 99.1616,114.4437 98.7385,113.5238 C 97.7221,111.9678 95.4174,112.6543 94.3337,113.0544 C 92.3825,113.7749 90.9445,115.1209 89.4952,117.0162 C 87.3041,119.8813 85.8079,123.7332 85.697,128.0863 C 87.4816,123.416 89.6032,119.8724 93.1933,119.3023 C 90.7222,121.9558 88.2363,125.4409 88.5841,129.495 C 90.0341,126.6216 91.5541,123.8298 93.9024,122.9163 C 92.5355,124.9941 91.8205,127.5386 91.4712,130.345 C 92.447,128.1129 93.6908,126.3372 95.3453,125.4504 C 94.5902,127.1402 94.0992,128.7181 94.0791,130.4081 C 94.8222,129.0061 95.7858,127.999 96.9545,127.296 C 96.4742,128.5247 96.2664,129.8574 96.1817,131.1983 C 96.8502,130.1516 97.772,128.9053 98.4385,128.3641 C 98.7533,129.5049 98.9598,130.2152 99.5377,131.2254 C 99.7073,130.1636 100.0112,129.7682 100.5377,129.2381 C 100.4429,127.1641 100.497,124.902 100.791,123.117 L 100.791,123.117 z "
         transform="matrix(8.5951887,0,0,8.5951887,-435.77775,-999.76544)"
         style="fill:#fcef01;fill-opacity:1"
         id="_131829544" />
      <polygon
         points="101.454,130.096 115.198,130.096 115.198,140.155 101.454,140.155 101.454,130.096 "
         transform="matrix(8.5951887,0,0,8.5951887,-435.77775,-999.76544)"
         style="fill:#1f1a17"
         id="_131833488" />
      <path
         d="M 101.454,140.463 C 106.0354,140.463 110.6169,140.463 115.1983,140.463 C 115.1983,142.4477 115.1983,144.4324 115.1983,146.4171 C 112.2421,153.5641 104.0365,153.5141 101.454,146.4171 C 101.454,144.4324 101.454,142.4477 101.454,140.463 z "
         transform="matrix(8.5951887,0,0,8.5951887,-435.77775,-999.76544)"
         style="fill:#007225;fill-opacity:1"
         id="_131781312" />
      <path
         d="M 101.454,130.065 L 115.1983,130.065 C 115.1983,132.5258 115.1983,134.8374 115.1983,137.2983 C 113.4901,135.5785 111.8823,134.0393 110.804,133.3794 C 110.0117,132.8944 108.952,133.0854 108.2885,133.719 C 107.5869,133.1006 106.6386,132.9582 105.8196,133.3831 C 105.2823,133.6619 104.7119,134.1737 103.9318,134.9305 C 103.2781,135.5647 102.2857,136.4691 101.454,137.2983 L 101.454,130.065 L 101.454,130.065 z "
         transform="matrix(8.5951887,0,0,8.5951887,-435.77775,-999.76544)"
         style="fill:#008fc9"
         id="_131781168" />
      <path
         d="M 101.454,137.734 C 102.8414,136.581 104.0677,135.2915 105.0656,134.4622 C 106.8503,132.8672 107.5625,133.6368 108.079,134.0908 C 108.1869,134.1856 108.303,134.2644 108.4077,134.3625 C 108.8141,134.7432 109.2761,135.1984 109.4294,135.3022 C 108.9167,134.7864 108.7179,134.5476 108.3923,134.2266 C 108.5261,133.9065 109.1811,133.5483 109.4907,133.5 C 109.9625,133.4263 110.4846,133.5583 110.8232,133.799 C 111.5418,134.3023 112.2803,134.993 112.561,135.3163 C 113.3297,136.0458 114.1779,136.9049 115.1983,137.734 L 115.1983,140.1519 L 101.454,140.1519 C 101.454,139.3459 101.454,138.54 101.454,137.734 L 101.454,137.734 z "
         transform="matrix(8.5951887,0,0,8.5951887,-435.77775,-999.76544)"
         style="fill:#ffffff;fill-opacity:1"
         id="_131833104" />
      <path
         d="M 109.431,143.08 L 109.4587,143.1721 L 109.4845,143.267 C 109.5448,143.5153 109.5822,143.762 109.6041,144.0163 L 109.6117,144.1357 L 109.6166,144.2583 C 109.6217,144.5236 109.6064,144.7767 109.5583,145.0379 L 109.5408,145.1205 L 109.5216,145.2008 C 109.4052,145.6397 109.1627,146.057 109.0968,146.505 C 109.068,146.7766 109.1042,147.1097 109.2201,147.3523 C 109.363,147.6172 109.8515,147.1687 109.9839,147.0601 C 110.0919,146.9692 110.1983,146.8763 110.3048,146.7836 C 110.5809,146.5448 110.8654,146.3132 111.1973,146.1558 C 111.6572,145.953 112.1217,145.7996 112.6217,145.7318 L 112.7199,145.7212 C 113.1838,145.685 113.6262,145.7287 114.0437,145.944 L 114.1088,145.9815 L 114.3287,146.122 L 114.2914,146.371 L 114.278,146.4377 C 114.1776,146.8332 113.9519,147.1515 113.6665,147.4392 C 113.2631,147.8226 112.7944,148.0943 112.2825,148.3116 L 112.2047,148.3472 L 112.1208,148.383 C 111.7009,148.549 111.2775,148.6245 110.8173,148.6223 C 110.5719,148.6186 110.3275,148.6 110.082,148.6021 C 109.978,148.6053 109.8775,148.6112 109.7749,148.6292 C 109.5539,148.6867 109.571,148.8679 109.5806,149.0474 L 109.5806,150.8193 L 107.2672,150.8193 L 107.2672,148.9691 L 107.2713,148.916 C 107.2724,148.8857 107.2726,148.8559 107.271,148.8256 C 107.2647,148.7608 107.256,148.716 107.2062,148.6735 C 107.1095,148.5988 107.0014,148.5596 106.8792,148.5524 L 106.8485,148.552 C 106.4943,148.5525 106.1401,148.5671 105.7858,148.5626 L 105.7106,148.5609 C 105.4774,148.5528 105.2485,148.5329 105.0184,148.4945 L 104.9391,148.4797 C 104.5395,148.396 104.1748,148.2458 103.8182,148.0574 C 103.3977,147.8237 103.0269,147.553 102.7561,147.1516 L 102.7126,147.0803 C 102.5895,146.8571 102.5165,146.6346 102.4767,146.3835 L 102.4668,146.301 L 102.4445,146.0333 L 102.6778,145.9011 C 103.106,145.6956 103.5662,145.6933 104.0294,145.7525 C 104.1941,145.7779 104.3553,145.8107 104.517,145.8509 C 105.0689,146.0002 105.5679,146.2222 106.0129,146.5735 C 106.2528,146.7657 106.4887,146.9623 106.7405,147.1394 C 106.9065,147.2514 107.0757,147.3567 107.2699,147.413 C 107.4138,147.4443 107.4992,147.4347 107.5766,147.3025 C 107.6247,147.1933 107.6408,147.0874 107.6571,146.971 C 107.6761,146.6487 107.5748,146.3747 107.4791,146.07 C 107.4452,145.9641 107.4107,145.8582 107.3769,145.7523 C 107.2195,145.2516 107.1303,144.7774 107.132,144.2512 L 107.1352,144.1186 C 107.1491,143.8103 107.1821,143.5115 107.2513,143.2104 L 107.2765,143.1144 L 107.3038,143.0218 L 107.3334,142.9328 C 107.4649,142.5761 107.686,142.2757 107.9678,142.0164 L 108.019,141.9722 L 108.0709,141.9303 L 108.123,141.8907 L 108.1752,141.8534 L 108.4,141.7016 L 108.6192,141.86 C 109.0258,142.1756 109.2702,142.5993 109.431,143.08 L 109.431,143.08 z M 108.3941,142.0669 C 108.8585,142.3888 109.3079,143.0943 109.3177,144.3864 C 109.326,145.3947 108.847,145.8801 108.7915,146.5282 C 108.7641,146.8484 108.8484,147.6624 109.2218,147.7324 C 109.9017,147.8076 110.5623,146.7645 111.3236,146.4269 C 112.5407,145.8753 113.4746,145.9125 114.0022,146.2686 C 113.9366,146.8089 113.377,147.5373 112.16,148.0388 C 111.3212,148.4354 110.7158,148.3026 110.1787,148.3027 C 109.6213,148.3029 109.1027,148.36 109.1664,149.0553 C 109.1664,149.604 109.1664,149.9721 109.1664,150.5208 C 108.5961,150.5208 108.2517,150.5208 107.6814,150.5208 C 107.6814,149.995 107.6814,149.5065 107.6814,148.9807 C 107.7062,148.7196 107.532,148.5622 107.4266,148.4677 C 107.2726,148.3295 107.062,148.2509 106.8504,148.2535 C 105.9818,148.2515 105.3055,148.3444 104.4677,148.0378 C 103.2805,147.5274 102.812,146.9843 102.7605,146.1981 C 103.3586,145.8295 104.5554,146.0643 105.3921,146.5049 C 105.8712,146.7445 106.7989,147.7934 107.4513,147.7254 C 107.962,147.6723 107.9968,146.9543 107.9481,146.5651 C 107.8731,145.9681 107.4705,145.306 107.4705,144.3864 C 107.4607,142.9596 107.9038,142.3887 108.3941,142.0669 L 108.3941,142.0669 z "
         transform="matrix(8.5951887,0,0,8.5951887,-435.77775,-999.76544)"
         style="fill:#1f1a17"
         id="_131825024" />
      <path
         d="M 108.394,142.029 C 108.8584,142.3509 109.3078,143.0937 109.3176,144.3858 C 109.3259,145.3941 108.9222,145.9168 108.8667,146.5649 C 108.8393,146.8851 108.886,147.6244 109.2594,147.6945 C 109.9393,147.7697 110.5622,146.7639 111.3235,146.4263 C 112.5406,145.8747 113.5122,145.9119 114.0397,146.268 C 113.9741,146.8083 113.3769,147.5367 112.1599,148.0382 C 111.3211,148.4348 110.7157,148.302 110.1786,148.3021 C 109.6212,148.3023 109.1403,148.3594 109.204,149.0547 C 109.204,149.6034 109.204,149.9715 109.204,150.5202 C 108.6337,150.5202 108.2516,150.5202 107.6813,150.5202 C 107.6813,149.9944 107.6813,149.5059 107.6813,148.9801 C 107.7061,148.719 107.5319,148.5616 107.4265,148.4671 C 107.2725,148.3289 107.0619,148.2503 106.8503,148.2529 C 105.9817,148.2509 105.3054,148.3438 104.4676,148.0372 C 103.2804,147.5268 102.7742,146.9837 102.7228,146.1975 C 103.3209,145.8289 104.5553,146.0637 105.392,146.5043 C 106.1086,146.8163 106.7988,147.7928 107.4512,147.7248 C 107.9619,147.6717 107.9591,146.9537 107.9103,146.5645 C 107.8354,145.9675 107.4328,145.3054 107.4328,144.3858 C 107.4229,142.959 107.9037,142.3508 108.394,142.029 z "
         transform="matrix(8.5951887,0,0,8.5951887,-435.77775,-999.76544)"
         style="fill:#fcef01;fill-opacity:1"
         id="_131837472" />
      <path
         d="M 100.709,129.701 C 100.784,132.1551 100.7461,134.6837 100.8211,137.1378 C 100.3066,137.6902 99.792,138.056 99.2774,138.6084 C 100.0294,134.7956 99.0071,131.457 100.709,129.701 z "
         transform="matrix(8.5951887,0,0,8.5951887,-435.77775,-999.76544)"
         style="fill:#f0be33"
         id="_131842024" />
      <path
         d="M 98.4726,129.433 C 98.5369,130.3149 98.9628,130.6126 99.1269,131.4904 C 99.0943,132.297 98.8986,137.0199 98.8772,138.7837 C 98.6792,139.2473 98.2364,139.674 97.4088,140.329 C 97.7378,138.6609 97.5815,136.9443 97.5288,135.0581 C 97.461,132.6329 97.5153,130.2356 98.4726,129.433 L 98.4726,129.433 z "
         transform="matrix(8.5951887,0,0,8.5951887,-435.77775,-999.76544)"
         style="fill:#fcef01;fill-opacity:1"
         id="_131824400" />
      <path
         d="M 97.3053,130.556 C 95.7018,132.2714 95.6651,134.5084 95.7854,136.7868 C 95.7006,138.7617 96.0307,140.4152 95.5197,142.124 C 96.0301,141.7533 96.6062,141.2751 97.0002,140.7315 C 97.1521,137.2153 97.1534,134.0722 97.3053,130.556 L 97.3053,130.556 z "
         transform="matrix(8.5951887,0,0,8.5951887,-435.77775,-999.76544)"
         style="fill:#fcef01;fill-opacity:1"
         id="_131836040" />
      <path
         d="M 95.9218,128.848 C 93.8918,130.583 93.3998,134.4768 93.5296,137.2541 C 93.4381,139.6614 93.5713,142.0409 93.0198,144.1239 C 93.5118,143.5733 94.424,142.9608 94.916,142.4101 C 95.08,138.1239 95.0193,132.877 95.9218,128.848 L 95.9218,128.848 z "
         transform="matrix(8.5951887,0,0,8.5951887,-435.77775,-999.76544)"
         style="fill:#fcef01;fill-opacity:1"
         id="_131836880" />
      <path
         d="M 94.1078,127.039 C 91.5479,129.7767 90.8687,134.4766 90.9986,137.2539 C 90.907,139.6612 91.2661,144.0185 90.7146,146.1016 C 91.1336,145.6297 91.8244,145.0881 92.3375,144.5907 C 92.6538,144.284 92.5897,144.0771 92.6159,143.6124 C 92.7122,141.9134 92.8245,139.6372 92.8675,137.302 C 93.0345,133.3664 93.2889,129.2208 94.1078,127.039 L 94.1078,127.039 z "
         transform="matrix(8.5951887,0,0,8.5951887,-435.77775,-999.76544)"
         style="fill:#fcef01;fill-opacity:1"
         id="_131841880" />
      <path
         d="M 92.1307,125.053 C 90.6058,126.5836 89.5528,128.5341 88.9977,130.5794 C 88.3686,132.8974 88.3472,135.3055 88.4162,136.7809 C 88.3246,139.1882 88.8335,146.3274 87.9385,148.4529 C 88.3688,147.9884 89.2775,147.331 89.828,146.7947 C 89.9416,146.6135 90.0446,146.1118 90.0668,145.554 C 90.1557,143.32 90.2424,139.1432 90.285,136.8291 C 90.452,132.8934 91.0223,127.1827 92.1307,125.053 L 92.1307,125.053 z "
         transform="matrix(8.5951887,0,0,8.5951887,-435.77775,-999.76544)"
         style="fill:#fcef01;fill-opacity:1"
         id="_131845792" />
      <path
         d="M 91.5331,120.657 C 89.2421,121.5902 86.2536,126.5755 86.1118,128.9893 C 85.4827,131.3073 85.612,135.6934 85.6809,137.1689 C 85.5894,139.5761 86.1378,149.0137 85.0913,151.0164 C 85.5833,150.4657 86.6524,149.6238 87.1444,149.0732 C 87.4266,148.7738 87.579,148.1193 87.6065,147.4812 C 87.7257,144.716 87.773,139.4049 87.8133,137.217 C 87.7944,135.1891 87.6988,131.8702 87.868,128.9624 C 87.9182,128.0972 88.0661,127.2766 88.2731,126.4391 C 88.9938,123.5235 90.2677,121.3292 91.5331,120.657 L 91.5331,120.657 z "
         transform="matrix(8.5951887,0,0,8.5951887,-435.77775,-999.76544)"
         style="fill:#fcef01;fill-opacity:1"
         id="_131843808" />
      <path
         d="M 100.546,138.589 C 100.5566,139.183 100.5296,139.8889 100.5402,140.483 C 100.0754,141.0192 99.2232,142.1672 98.9281,142.1456 C 98.9281,142.1456 98.9736,140.2023 98.8968,140.0935 C 99.0697,139.864 100.546,138.589 100.546,138.589 z "
         transform="matrix(8.5951887,0,0,8.5951887,-435.77775,-999.76544)"
         style="fill:#fcef01;fill-opacity:1"
         id="_131846712" />
      <path
         d="M 98.1991,141.08 C 98.2079,141.5716 98.2608,142.1931 98.2696,142.6847 C 97.885,143.1285 97.1421,144.1159 96.8979,144.098 C 96.8979,144.098 96.9731,142.4524 96.9096,142.3624 C 97.0527,142.1724 98.1991,141.08 98.1991,141.08 z "
         transform="matrix(8.5951887,0,0,8.5951887,-435.77775,-999.76544)"
         style="fill:#fcef01;fill-opacity:1"
         id="_131850096" />
      <path
         d="M 96.2814,142.795 C 96.2902,143.3712 96.2678,144.4729 96.2766,145.0491 C 95.892,145.5692 95.149,146.6518 94.9048,146.6309 C 94.9048,146.6309 94.9801,144.2543 94.9165,144.1488 C 95.0597,143.9262 96.2814,142.795 96.2814,142.795 L 96.2814,142.795 z "
         transform="matrix(8.5951887,0,0,8.5951887,-435.77775,-999.76544)"
         style="fill:#fcef01;fill-opacity:1"
         id="_131847816" />
      <path
         d="M 94.3355,144.477 C 94.3443,145.1273 94.3218,147.0357 94.3306,147.6861 C 93.946,148.2732 93.4077,149.3472 92.9588,149.4342 C 92.9588,149.4342 92.9449,145.8392 92.9705,145.7437 C 93.1137,145.4924 94.3355,144.477 94.3355,144.477 z "
         transform="matrix(8.5951887,0,0,8.5951887,-435.77775,-999.76544)"
         style="fill:#fcef01;fill-opacity:1"
         id="_131848216" />
      <path
         d="M 92.1524,145.918 C 92.1633,146.8 92.1356,149.7617 92.1464,150.6437 C 91.6713,151.44 91.0062,152.5236 90.4517,152.6416 C 90.4517,152.6416 90.4344,147.7657 90.4661,147.636 C 90.643,147.2952 92.1524,145.918 92.1524,145.918 z "
         transform="matrix(8.5951887,0,0,8.5951887,-435.77775,-999.76544)"
         style="fill:#fcef01;fill-opacity:1"
         id="_131849560" />
      <path
         d="M 88.1895,149.517 C 88.1786,150.8633 88.1687,155.9064 88.1578,157.2528 C 88.2291,158.2643 89.3051,159.6919 90.5168,159.7108 C 90.5168,159.7108 89.8544,158.7324 89.8566,157.8798 C 89.8632,154.6718 89.8739,148.1642 89.85,148.0153 C 89.5436,148.3174 88.1895,149.517 88.1895,149.517 L 88.1895,149.517 z "
         transform="matrix(8.5951887,0,0,8.5951887,-435.77775,-999.76544)"
         style="fill:#fcef01;fill-opacity:1"
         id="_131850888" />
      <path
         d="M 85.9583,151.324 C 85.9475,152.7092 86.2764,157.9723 86.2656,159.3576 C 86.3369,160.3983 87.5605,162.5055 89.0178,162.5639 C 89.0178,162.5639 87.7362,161.3496 87.7384,159.5556 C 87.7383,158.5239 87.7175,157.5106 87.6884,156.1392 C 87.6245,153.1225 87.633,149.9584 87.6189,149.8535 C 87.3125,150.1644 85.9583,151.324 85.9583,151.324 z "
         transform="matrix(8.5951887,0,0,8.5951887,-435.77775,-999.76544)"
         style="fill:#fcef01;fill-opacity:1"
         id="_131846568" />
      <path
         d="M 106.312,123.012 C 106.6701,123.0159 107.6981,124.5616 107.993,125.2589 C 108.0794,125.4634 108.0726,125.634 108.0813,125.8506 C 108.1271,126.9903 108.1564,128.1765 108.0749,129.1266 C 107.4898,130.096 105.3105,129.7911 105.1795,128.7009 C 105.1724,127.9178 105.0899,127.224 105.0829,126.5219 C 105.0785,126.0856 105.0952,125.646 105.1013,125.1797 C 105.1145,124.1734 105.4086,123.4362 106.312,123.012 L 106.312,123.012 z "
         transform="matrix(8.5951887,0,0,8.5951887,-435.77775,-999.76544)"
         style="fill:#fcef01;fill-opacity:1"
         id="_131853096" />
      <path
         d="M 104.206,122.155 C 104.6776,122.2598 104.7666,123.5273 104.7513,123.9006 C 104.794,124.4669 104.35,124.5632 104.2281,125.3781 C 104.1543,125.8718 104.1385,126.7714 104.239,127.2547 C 104.3358,127.7193 104.5795,127.7937 104.6917,128.1203 C 104.8372,128.5443 104.8927,129.5883 104.6676,129.5923 C 103.6571,129.7252 103.1541,129.4334 102.9912,128.8943 C 102.8297,128.5045 102.7967,126.6432 102.8331,125.4454 C 102.8533,124.7777 102.9187,124.4072 103.1759,123.8065 C 103.5067,123.0341 103.8855,122.2718 104.206,122.155 L 104.206,122.155 z "
         transform="matrix(8.5951887,0,0,8.5951887,-435.77775,-999.76544)"
         style="fill:#fcef01;fill-opacity:1"
         id="_131854392" />
      <path
         d="M 102.172,123.205 C 102.5173,123.2997 102.6561,123.7568 102.493,124.2296 C 102.326,124.6339 102.2591,124.6619 102.1966,124.8772 C 102.0788,125.2525 102.1055,125.7909 102.1104,126.2891 C 102.1153,126.7873 102.1363,127.3572 102.2331,127.7205 C 102.3065,128.0491 102.3485,128.0874 102.4802,128.511 C 102.6707,128.8124 102.645,129.3961 102.4518,129.5791 C 102.3626,129.6636 102.1702,129.6476 102.0601,129.6202 C 101.6913,129.5281 101.3508,129.0915 101.1943,128.2747 C 101.1648,127.6173 101.1028,126.9796 101.0839,126.3607 C 101.0609,125.6045 101.0615,124.6395 101.1881,123.9093 C 101.3582,123.3974 101.6611,123.1518 102.172,123.205 L 102.172,123.205 z "
         transform="matrix(8.5951887,0,0,8.5951887,-435.77775,-999.76544)"
         style="fill:#fcef01;fill-opacity:1"
         id="_131857856" />
      <path
         d="M 106.358,119.254 C 106.6795,119.6111 106.8144,120.7665 106.7155,121.6537 C 106.3112,122.5063 105.7024,122.9063 105.1313,123.1668 C 105.0894,122.4132 105.1228,121.6223 105.0809,120.8687 C 105.103,120.5926 106.1137,119.3187 106.358,119.254 L 106.358,119.254 z "
         transform="matrix(8.5951887,0,0,8.5951887,-435.77775,-999.76544)"
         style="fill:#fcef01;fill-opacity:1"
         id="_131856800" />
      <path
         d="M 108.433,124.543 C 109.2246,124.543 109.5507,123.5119 109.553,122.3286 C 109.5557,120.9006 109.0741,119.2543 108.3954,118.5971 C 107.6488,119.2417 107.2104,120.9191 107.2386,122.3286 C 107.2626,123.5338 107.6278,124.543 108.433,124.543 z "
         transform="matrix(8.5951887,0,0,8.5951887,-435.77775,-999.76544)"
         style="fill:#fcef01;fill-opacity:1"
         id="_131857320" />
      <path
         d="M 110.475,123.087 C 110.1102,123.091 109.0499,124.6158 108.7782,125.2678 C 108.7082,125.4356 108.7151,125.5798 108.7081,125.757 C 108.6609,126.9266 108.6292,128.2354 108.7121,129.2016 C 109.2972,130.171 111.4765,129.8661 111.6075,128.7759 C 111.6146,127.9928 111.6971,127.299 111.7042,126.5969 C 111.7086,126.1606 111.6918,125.721 111.6857,125.2547 C 111.6725,124.2484 111.3342,123.4893 110.475,123.087 z "
         transform="matrix(8.5951887,0,0,8.5951887,-435.77775,-999.76544)"
         style="fill:#fcef01;fill-opacity:1"
         id="_131856656" />
      <path
         d="M 112.581,122.23 C 112.1094,122.3348 112.0205,123.6023 112.0357,123.9756 C 111.993,124.5419 112.437,124.6383 112.5589,125.4532 C 112.6327,125.9468 112.6486,126.8464 112.548,127.3297 C 112.4512,127.7943 112.2075,127.8687 112.0954,128.1953 C 111.9498,128.6193 111.8943,129.6634 112.1194,129.6673 C 113.13,129.8002 113.633,129.5084 113.7958,128.9693 C 113.9538,128.5882 113.9887,126.8002 113.9563,125.6012 C 113.9362,124.8589 113.8611,124.457 113.5712,123.7889 C 113.2502,123.0492 112.8887,122.3422 112.581,122.23 L 112.581,122.23 z "
         transform="matrix(8.5951887,0,0,8.5951887,-435.77775,-999.76544)"
         style="fill:#fcef01;fill-opacity:1"
         id="_131862376" />
      <path
         d="M 114.614,123.28 C 114.2687,123.3747 114.1299,123.8318 114.293,124.3046 C 114.46,124.7089 114.5269,124.7369 114.5894,124.9522 C 114.7072,125.3275 114.6805,125.866 114.6756,126.3641 C 114.6707,126.8623 114.6497,127.4322 114.5529,127.7955 C 114.4795,128.1241 114.4375,128.1624 114.3058,128.586 C 114.1154,128.8874 114.141,129.4711 114.3342,129.6541 C 114.4234,129.7386 114.6158,129.7226 114.726,129.6952 C 115.0947,129.6031 115.4352,129.1665 115.5917,128.3497 C 115.6213,127.6924 115.6832,127.0546 115.7021,126.4357 C 115.7251,125.6795 115.7245,124.7145 115.5979,123.9843 C 115.4278,123.4724 115.1249,123.2268 114.614,123.28 L 114.614,123.28 z "
         transform="matrix(8.5951887,0,0,8.5951887,-435.77775,-999.76544)"
         style="fill:#fcef01;fill-opacity:1"
         id="_131861712" />
      <path
         d="M 110.429,119.329 C 110.1075,119.6861 109.9726,120.8415 110.0715,121.7287 C 110.4758,122.5813 111.0846,122.9813 111.6557,123.2418 C 111.6976,122.4882 111.6642,121.6973 111.7061,120.9437 C 111.684,120.6676 110.6733,119.3937 110.429,119.329 L 110.429,119.329 z "
         transform="matrix(8.5951887,0,0,8.5951887,-435.77775,-999.76544)"
         style="fill:#fcef01;fill-opacity:1"
         id="_131863560" />
      <path
         d="M 115.991,123.219 C 117.171,122.3992 117.5985,121.4675 117.7014,120.6476 C 119.1724,119.609 119.4587,118.5875 119.2083,117.4991 C 118.8638,116.0016 117.6994,114.4319 118.1224,113.5119 C 119.1389,111.9559 121.2305,112.535 122.4482,113.1564 C 124.3994,113.8769 125.8374,115.2229 127.2868,117.1182 C 129.4778,119.9833 130.9741,123.8352 131.0849,128.1883 C 129.3003,123.518 127.1787,119.9744 123.5886,119.4043 C 126.0597,122.0577 128.5457,125.5429 128.1978,129.5969 C 126.7478,126.7236 125.2278,123.9318 122.8795,123.0183 C 124.2465,125.0961 124.9615,127.6406 125.3107,130.447 C 124.3349,128.2149 123.0912,126.4391 121.4366,125.5524 C 122.1918,127.2422 122.6827,128.8201 122.7029,130.5101 C 121.9597,129.108 120.9961,128.101 119.8274,127.398 C 120.3077,128.6267 120.5155,129.9594 120.6002,131.3003 C 119.9317,130.2535 119.01,129.0073 118.3435,128.4661 C 118.0286,129.6069 117.8222,130.3172 117.2442,131.3274 C 117.0746,130.2656 116.7708,129.8702 116.2442,129.3401 C 116.339,127.2661 116.2849,125.004 115.991,123.219 L 115.991,123.219 z "
         transform="matrix(8.5951887,0,0,8.5951887,-435.77775,-999.76544)"
         style="fill:#fcef01;fill-opacity:1"
         id="_131863416" />
      <path
         d="M 116.073,129.803 C 115.998,132.257 116.0359,134.7857 115.9609,137.2397 C 116.4755,137.7921 116.99,138.158 117.5046,138.7104 C 116.7527,134.8976 117.7749,131.559 116.073,129.803 z "
         transform="matrix(8.5951887,0,0,8.5951887,-435.77775,-999.76544)"
         style="fill:#fcef01;fill-opacity:1"
         id="_131864576" />
      <path
         d="M 118.31,129.535 C 118.2458,130.4169 117.8198,130.7146 117.6557,131.5924 C 117.6883,132.3989 117.884,137.1219 117.9054,138.8857 C 118.42,139.4381 118.8592,139.8786 119.3738,140.431 C 119.0448,138.7629 119.2012,137.0463 119.2539,135.16 C 119.3216,132.7349 119.2673,130.3376 118.31,129.535 z "
         transform="matrix(8.5951887,0,0,8.5951887,-435.77775,-999.76544)"
         style="fill:#fcef01;fill-opacity:1"
         id="_131866728" />
      <path
         d="M 119.477,130.658 C 121.0805,132.3734 121.1172,134.6104 120.9969,136.8889 C 121.0818,138.8637 120.7516,140.3306 121.2626,142.0395 C 120.8068,141.5878 120.238,141.0987 119.7822,140.647 C 119.6302,137.1307 119.6289,134.1743 119.477,130.658 L 119.477,130.658 z "
         transform="matrix(8.5951887,0,0,8.5951887,-435.77775,-999.76544)"
         style="fill:#fcef01;fill-opacity:1"
         id="_131866896" />
      <path
         d="M 120.86,128.95 C 122.89,130.6851 123.382,134.5788 123.2521,137.3562 C 123.3437,139.7635 123.2104,142.1056 123.7619,144.1886 C 123.27,143.638 122.3577,143.0255 121.8657,142.4749 C 121.7017,138.1887 121.7624,132.9791 120.86,128.95 L 120.86,128.95 z "
         transform="matrix(8.5951887,0,0,8.5951887,-435.77775,-999.76544)"
         style="fill:#fcef01;fill-opacity:1"
         id="_131867960" />
      <path
         d="M 122.674,127.141 C 125.2339,129.8788 125.913,134.5786 125.7831,137.356 C 125.8747,139.7633 125.5156,144.1206 126.0671,146.2036 C 125.6481,145.7318 124.9574,145.1902 124.4442,144.6928 C 124.128,144.3861 124.1921,144.1792 124.1658,143.7144 C 124.0696,142.0155 123.9572,139.7393 123.9143,137.4041 C 123.7472,133.4685 123.4929,129.3229 122.674,127.141 z "
         transform="matrix(8.5951887,0,0,8.5951887,-435.77775,-999.76544)"
         style="fill:#fcef01;fill-opacity:1"
         id="_131864552" />
      <path
         d="M 124.651,125.156 C 126.1759,126.6866 127.229,128.637 127.784,130.6824 C 128.4131,133.0004 128.4346,135.4085 128.3656,136.8839 C 128.4572,139.2912 127.8281,146.4628 128.8432,148.5559 C 128.4129,148.0914 127.5165,147.4179 126.9538,146.8976 C 126.7031,146.7058 126.7371,146.2148 126.715,145.657 C 126.6261,143.423 126.5393,139.2462 126.4967,136.932 C 126.3297,132.9964 125.7594,127.2857 124.651,125.156 L 124.651,125.156 z "
         transform="matrix(8.5951887,0,0,8.5951887,-435.77775,-999.76544)"
         style="fill:#fcef01;fill-opacity:1"
         id="_131870344" />
      <path
         d="M 125.249,120.759 C 127.54,121.6921 130.5285,126.6775 130.6703,129.0912 C 131.2994,131.4093 131.1702,135.7954 131.1012,137.2708 C 131.1928,139.6781 130.6443,149.1157 131.6908,151.1183 C 131.1989,150.5677 130.1297,149.7258 129.6377,149.1752 C 129.3556,148.8757 129.2031,148.2213 129.1756,147.5832 C 129.0565,144.818 129.0091,139.5068 128.9689,137.319 C 128.9877,135.291 129.0833,131.9722 128.9141,129.0644 C 128.8639,128.1992 128.716,127.3786 128.509,126.541 C 127.7884,123.6255 126.5145,121.4312 125.249,120.759 L 125.249,120.759 z "
         transform="matrix(8.5951887,0,0,8.5951887,-435.77775,-999.76544)"
         style="fill:#fcef01;fill-opacity:1"
         id="_131871920" />
      <path
         d="M 116.237,138.691 C 116.2263,139.285 116.2534,139.9909 116.2428,140.5849 C 116.7075,141.1212 117.5597,142.2691 117.8548,142.2476 C 117.8548,142.2476 117.8094,140.3043 117.8862,140.1955 C 117.7132,139.966 116.237,138.691 116.237,138.691 z "
         transform="matrix(8.5951887,0,0,8.5951887,-435.77775,-999.76544)"
         style="fill:#fcef01;fill-opacity:1"
         id="_131872856" />
      <path
         d="M 118.583,141.182 C 118.5742,141.6735 118.5213,142.2951 118.5125,142.7867 C 118.8971,143.2305 119.64,144.2178 119.8843,144.2 C 119.8843,144.2 119.809,142.5544 119.8726,142.4644 C 119.7294,142.2744 118.583,141.182 118.583,141.182 z "
         transform="matrix(8.5951887,0,0,8.5951887,-435.77775,-999.76544)"
         style="fill:#fcef01;fill-opacity:1"
         id="_131873112" />
      <path
         d="M 120.501,142.898 C 120.4922,143.4741 120.5146,144.5758 120.5058,145.152 C 120.8905,145.6722 121.6334,146.7548 121.8776,146.7339 C 121.8776,146.7339 121.8023,144.3573 121.8659,144.2518 C 121.7228,144.0291 120.501,142.898 120.501,142.898 L 120.501,142.898 z "
         transform="matrix(8.5951887,0,0,8.5951887,-435.77775,-999.76544)"
         style="fill:#fcef01;fill-opacity:1"
         id="_131874344" />
      <path
         d="M 122.447,144.579 C 122.4382,145.2293 122.4606,147.1377 122.4518,147.788 C 122.8364,148.3752 123.3747,149.4492 123.8236,149.5362 C 123.8236,149.5362 123.8376,145.9412 123.8119,145.8456 C 123.6687,145.5944 122.447,144.579 122.447,144.579 L 122.447,144.579 z "
         transform="matrix(8.5951887,0,0,8.5951887,-435.77775,-999.76544)"
         style="fill:#fcef01;fill-opacity:1"
         id="_131875248" />
      <path
         d="M 124.63,146.02 C 124.6191,146.902 124.6469,149.8636 124.636,150.7457 C 125.1112,151.542 125.7762,152.6256 126.3308,152.7436 C 126.3308,152.7436 126.348,147.8676 126.3163,147.738 C 126.1394,147.3972 124.63,146.02 124.63,146.02 z "
         transform="matrix(8.5951887,0,0,8.5951887,-435.77775,-999.76544)"
         style="fill:#fcef01;fill-opacity:1"
         id="_131876248" />
      <path
         d="M 128.593,149.62 C 128.6039,150.9664 128.6138,156.0095 128.6247,157.3559 C 128.5534,158.3674 127.4774,159.795 126.2658,159.8138 C 126.2658,159.8138 126.9281,158.8355 126.9259,157.9828 C 126.9193,154.7749 126.9086,148.2672 126.9325,148.1184 C 127.2389,148.4205 128.593,149.62 128.593,149.62 z "
         transform="matrix(8.5951887,0,0,8.5951887,-435.77775,-999.76544)"
         style="fill:#fcef01;fill-opacity:1"
         id="_131877000" />
      <path
         d="M 130.824,151.426 C 130.8349,152.8112 130.5059,158.0743 130.5167,159.4596 C 130.4455,160.5003 129.2218,162.6075 127.7645,162.6658 C 127.7645,162.6658 129.0461,161.4515 129.0439,159.6576 C 129.0441,158.6259 129.0648,157.6126 129.0939,156.2412 C 129.1579,153.2245 129.1493,150.0604 129.1635,149.9555 C 129.4699,150.2663 130.824,151.426 130.824,151.426 L 130.824,151.426 z "
         transform="matrix(8.5951887,0,0,8.5951887,-435.77775,-999.76544)"
         style="fill:#fcef01;fill-opacity:1"
         id="_131874800" />
      <path
         d="M 105.347,151.449 C 105.3544,152.2469 105.3611,154.4517 105.3684,155.2496 C 105.3985,156.1024 104.9308,157.3245 103.6109,157.2198 C 103.6109,157.2198 104.2884,156.6342 104.3303,155.5092 C 104.3258,153.6082 104.4315,150.8715 104.4477,150.7832 C 104.6553,150.9623 105.347,151.449 105.347,151.449 z "
         transform="matrix(8.5951887,0,0,8.5951887,-435.77775,-999.76544)"
         style="fill:#fcef01;fill-opacity:1"
         id="_131879656" />
      <path
         d="M 106.989,152.228 C 106.9968,153.1541 106.9663,156.4134 106.9742,157.3396 C 106.9227,158.0353 106.3235,159.137 105.0623,159.15 C 105.0623,159.15 105.7471,158.0106 105.7918,157.0898 C 105.9337,155.0288 105.862,151.7814 105.8793,151.679 C 106.1007,151.8868 106.989,152.228 106.989,152.228 L 106.989,152.228 z "
         transform="matrix(8.5951887,0,0,8.5951887,-435.77775,-999.76544)"
         style="fill:#fcef01;fill-opacity:1"
         id="_131879952" />
      <path
         d="M 111.463,151.451 C 111.4557,152.2488 111.4489,154.5283 111.4416,155.3262 C 111.4116,156.179 111.8793,157.4011 113.1991,157.2964 C 113.1991,157.2964 112.5216,156.7108 112.4797,155.5858 C 112.4843,153.6848 112.3785,150.8734 112.3624,150.7852 C 112.1547,150.9642 111.463,151.451 111.463,151.451 z "
         transform="matrix(8.5951887,0,0,8.5951887,-435.77775,-999.76544)"
         style="fill:#fcef01;fill-opacity:1"
         id="_131882992" />
      <path
         d="M 109.859,152.267 C 109.8512,153.193 109.844,156.4899 109.8362,157.416 C 109.8877,158.1117 110.4869,159.2134 111.748,159.2264 C 111.748,159.2264 111.0633,158.087 111.0186,157.1663 C 110.8767,155.1052 110.9483,151.7831 110.931,151.6807 C 110.7096,151.8885 109.859,152.267 109.859,152.267 L 109.859,152.267 z "
         transform="matrix(8.5951887,0,0,8.5951887,-435.77775,-999.76544)"
         style="fill:#fcef01;fill-opacity:1"
         id="_131881528" />
      <path
         d="M 107.617,152.27 C 108.0047,152.3127 108.8715,152.3024 109.2651,152.27 C 109.2651,153.7801 109.2651,154.8424 109.2651,156.3526 C 109.2651,156.9466 109.4991,157.8633 109.4932,158.4456 C 109.4902,158.7471 109.4455,159.0489 109.3404,159.3505 C 109.0788,159.9727 108.8338,160.2096 108.4606,160.3584 C 108.064,160.1947 107.8671,159.9727 107.5794,159.3505 C 107.4468,159.0598 107.4098,158.7643 107.3933,158.464 C 107.3599,157.8578 107.617,156.9603 107.617,156.3526 C 107.617,154.8424 107.617,153.7801 107.617,152.27 L 107.617,152.27 z "
         transform="matrix(8.5951887,0,0,8.5951887,-435.77775,-999.76544)"
         style="fill:#fcef01;fill-opacity:1"
         id="_131879512" />
      <path
         d="M 99.7056,153.942 C 98.6686,153.5377 98.5798,152.6284 99.3666,151.9716 C 99.6587,152.12 99.8869,152.3145 100.0219,152.5762 C 99.4891,152.9026 99.3837,153.3579 99.7056,153.942 z "
         transform="matrix(8.5951887,0,0,8.5951887,-435.77775,-999.76544)"
         style="fill:#fcef01;fill-opacity:1"
         id="_131886360" />
      <path
         d="M 98.8997,150.807 C 98.8233,150.3124 98.7827,149.952 98.8846,149.7098 C 98.8846,149.7098 99.3401,149.1911 99.6378,149.165 C 100.1201,149.1354 100.4403,149.7145 100.4135,150.2174 C 100.243,150.4963 100.1266,150.6048 99.8261,150.7548 C 99.5956,150.8423 99.2973,150.922 98.8997,150.807 z "
         transform="matrix(8.5951887,0,0,8.5951887,-435.77775,-999.76544)"
         style="fill:#fcef01;fill-opacity:1"
         id="_131887024" />
      <path
         d="M 99.8713,147.538 C 99.4758,147.715 98.5611,147.6478 98.3513,147.7821 C 98.3287,147.8941 98.3423,148.8367 98.3423,148.8367 C 98.4162,149.0334 98.6015,148.9978 99.1994,149.1029 C 99.7184,148.67 99.9385,148.105 99.8713,147.538 z "
         transform="matrix(8.5951887,0,0,8.5951887,-435.77775,-999.76544)"
         style="fill:#fcef01;fill-opacity:1"
         id="_131885112" />
      <path
         d="M 96.9564,149.294 C 96.5607,148.6154 97.1459,147.8784 97.947,147.7279 C 98.0905,147.9429 97.9835,148.3517 97.9741,148.5845 C 97.4782,148.6047 96.9633,148.7666 96.9564,149.294 L 96.9564,149.294 z "
         transform="matrix(8.5951887,0,0,8.5951887,-435.77775,-999.76544)"
         style="fill:#fcef01;fill-opacity:1"
         id="_131885600" />
      <path
         d="M 97.6735,151.957 C 97.0033,151.3505 97.5508,150.4165 98.2962,150.2022 C 98.4757,150.2328 98.5824,150.6671 98.5805,150.8381 C 98.1418,151.3364 97.6507,151.1835 97.6735,151.957 z "
         transform="matrix(8.5951887,0,0,8.5951887,-435.77775,-999.76544)"
         style="fill:#fcef01;fill-opacity:1"
         id="_131888000" />
      <path
         d="M 100.064,152.158 C 99.8851,151.679 100.0012,151.4876 100.0006,151.1985 C 100.0006,151.1985 100.6542,150.6203 100.9519,150.5942 C 101.3196,150.7237 101.644,151.1751 101.5779,151.5683 C 101.4073,151.8472 101.2909,151.9558 100.9904,152.1057 C 100.7599,152.1932 100.4616,152.273 100.064,152.158 z "
         transform="matrix(8.5951887,0,0,8.5951887,-435.77775,-999.76544)"
         style="fill:#fcef01;fill-opacity:1"
         id="_131891168" />
      <path
         d="M 100.892,150.271 C 100.8406,149.7352 101.1978,149.1597 102.0716,148.8873 C 102.4393,149.0168 102.8426,149.5073 102.7764,149.9006 C 102.687,150.5223 101.4989,150.2071 100.892,150.271 L 100.892,150.271 z "
         transform="matrix(8.5951887,0,0,8.5951887,-435.77775,-999.76544)"
         style="fill:#fcef01;fill-opacity:1"
         id="_131889304" />
      <path
         d="M 101.386,147.521 C 101.1633,147.4003 100.915,147.402 100.6732,147.5131 C 100.5643,147.629 100.4317,147.6432 100.3445,147.8173 C 100.2513,148.2487 99.9888,148.2764 100.0153,148.5753 C 99.9892,148.7555 100.2378,149.0939 100.2378,149.0939 C 100.3117,149.2906 100.6584,149.1113 101.1173,149.1248 C 101.1808,148.8689 101.6652,148.7047 101.6722,148.3298 C 101.6957,147.901 101.4029,147.8235 101.386,147.521 L 101.386,147.521 z "
         transform="matrix(8.5951887,0,0,8.5951887,-435.77775,-999.76544)"
         style="fill:#fcef01;fill-opacity:1"
         id="_131886128" />
      <path
         d="M 117.064,153.948 C 118.1009,153.5437 118.1898,152.6344 117.4029,151.9776 C 117.1109,152.126 117.0074,152.2662 116.7947,152.7034 C 117.3275,153.0299 117.3858,153.3639 117.064,153.948 L 117.064,153.948 z "
         transform="matrix(8.5951887,0,0,8.5951887,-435.77775,-999.76544)"
         style="fill:#fcef01;fill-opacity:1"
         id="_131891056" />
      <path
         d="M 117.907,150.776 C 117.9834,150.2814 118.024,149.9209 117.9221,149.6788 C 117.9221,149.6788 117.4666,149.1601 117.1689,149.1339 C 116.6866,149.1044 116.3664,149.6835 116.3932,150.1863 C 116.5637,150.4653 116.6801,150.5738 116.9806,150.7237 C 117.2111,150.8112 117.5094,150.891 117.907,150.776 z "
         transform="matrix(8.5951887,0,0,8.5951887,-435.77775,-999.76544)"
         style="fill:#fcef01;fill-opacity:1"
         id="_131894136" />
      <path
         d="M 116.924,147.664 C 117.4488,147.5052 118.2455,147.6165 118.4553,147.7508 C 118.4779,147.8627 118.4643,148.8053 118.4643,148.8053 C 118.3904,149.0021 118.0359,149.2134 117.6072,149.0716 C 117.0882,148.6387 116.8568,148.231 116.924,147.664 z "
         transform="matrix(8.5951887,0,0,8.5951887,-435.77775,-999.76544)"
         style="fill:#fcef01;fill-opacity:1"
         id="_131894304" />
      <path
         d="M 120.039,149.337 C 120.4347,148.6584 119.8494,147.9214 119.0484,147.7709 C 118.9049,147.9859 119.0119,148.3947 119.0213,148.6275 C 119.5172,148.6477 120.0321,148.8096 120.039,149.337 L 120.039,149.337 z "
         transform="matrix(8.5951887,0,0,8.5951887,-435.77775,-999.76544)"
         style="fill:#fcef01;fill-opacity:1"
         id="_131894384" />
      <path
         d="M 119.049,151.925 C 119.8604,151.2905 119.3694,150.4404 118.4262,150.2448 C 118.2468,150.2754 118.311,150.6915 118.3129,150.8626 C 118.7516,151.4226 119.0266,151.099 119.049,151.925 L 119.049,151.925 z "
         transform="matrix(8.5951887,0,0,8.5951887,-435.77775,-999.76544)"
         style="fill:#fcef01;fill-opacity:1"
         id="_131893680" />
      <path
         d="M 116.667,152.164 C 116.8458,151.6851 116.9839,151.5496 116.881,151.2419 C 116.881,151.2419 116.1521,150.5891 115.8544,150.563 C 115.4867,150.6924 115.1623,150.9013 115.2284,151.5371 C 115.399,151.816 115.5154,151.9245 115.8159,152.0745 C 116.0464,152.162 116.2694,152.2791 116.667,152.164 L 116.667,152.164 z "
         transform="matrix(8.5951887,0,0,8.5951887,-435.77775,-999.76544)"
         style="fill:#fcef01;fill-opacity:1"
         id="_131895520" />
      <path
         d="M 115.915,150.24 C 115.9664,149.7041 115.6092,149.1287 114.7354,148.8563 C 114.3677,148.9858 113.9644,149.4763 114.0306,149.8695 C 114.12,150.4913 115.3081,150.176 115.915,150.24 z "
         transform="matrix(8.5951887,0,0,8.5951887,-435.77775,-999.76544)"
         style="fill:#fcef01;fill-opacity:1"
         id="_131896344" />
      <path
         d="M 116.134,147.482 C 116.3698,147.7329 116.8254,148.165 116.7919,148.5442 C 116.818,148.7244 116.5694,149.0627 116.5694,149.0627 C 116.4955,149.2595 116.1488,149.0802 115.6899,149.0937 C 115.6264,148.8377 115.142,148.6735 115.135,148.2987 C 115.1034,147.7215 115.5422,147.2101 116.134,147.482 z "
         transform="matrix(8.5951887,0,0,8.5951887,-435.77775,-999.76544)"
         style="fill:#fcef01;fill-opacity:1"
         id="_131897272" />
      <path
         d="M 107.363,110.941 C 107.8061,111.0321 108.2023,111.0886 108.5631,111.1232 C 109.5605,111.2189 110.2871,111.1474 110.9866,111.1781 C 110.7307,111.6568 110.4604,111.8998 110.1219,112.2047 C 110.4965,112.5432 110.6858,112.7782 110.7951,113.2445 C 110.8427,118.1572 114.5429,122.9452 116.2478,120.0133 C 117.1333,120.6388 116.7524,122.1872 115.3212,122.7489 C 114.763,122.9679 113.7217,123.0609 113.2891,122.6033 C 112.0623,121.3064 111.7103,119.9817 110.2859,118.289 C 110.0397,118.7362 109.6996,119.2216 109.4345,119.5559 C 108.8819,118.778 108.6813,118.0911 108.3613,117.3743 C 108.0507,118.0703 107.6607,118.8942 107.1099,119.5864 C 106.7989,119.2212 106.5857,118.7772 106.3238,118.2312 C 105.7873,119.0376 105.2459,119.8662 104.6477,120.6859 C 104.1712,121.339 103.7451,121.9293 103.1917,122.5409 C 102.799,122.975 102.2356,123.0273 101.6586,122.8679 C 101.0131,122.6896 100.5381,122.2071 100.0936,121.636 C 99.4882,120.8582 99.7295,120.1668 100.2796,119.7998 C 100.5148,120.6072 101.0782,120.8837 101.773,120.7677 C 103.6191,120.4597 106.3929,117.3808 106.4023,114.1287 C 106.7003,113.8591 107.0628,113.7067 107.3391,113.6714 C 107.2719,113.4437 107.2633,113.3852 107.2945,113.204 C 106.7064,112.8332 106.7221,112.3803 106.7868,111.9971 C 106.9612,112.0377 107.143,112.0441 107.3173,112.0274 C 107.4317,112.3698 107.6678,112.5754 108.0945,112.7567 C 108.655,112.4724 109.0075,112.1133 109.1002,111.7201 C 108.4565,111.7669 107.6141,111.8556 107.3699,111.4761 C 107.3801,111.2729 107.3527,111.1442 107.363,110.941 z "
         transform="matrix(8.5951887,0,0,8.5951887,-435.77775,-999.76544)"
         style="fill:#fcef01;fill-opacity:1"
         id="_131890944" />
      <path
         d="M 108.058,111.985 C 108.1889,111.985 108.295,112.0902 108.295,112.22 C 108.295,112.3497 108.1889,112.4549 108.058,112.4549 C 107.9271,112.4549 107.8209,112.3497 107.8209,112.22 C 107.8209,112.0902 107.9271,111.985 108.058,111.985 z "
         transform="matrix(8.5951887,0,0,8.5951887,-435.77775,-999.76544)"
         style="fill:#008fc9"
         id="_131903056" />
    </g>
  </g>
</svg>
