<?xml version="1.0" encoding="UTF-8" standalone="no"?>
<!-- Created with Inkscape (http://www.inkscape.org/) -->
<svg
   xmlns:dc="http://purl.org/dc/elements/1.1/"
   xmlns:cc="http://web.resource.org/cc/"
   xmlns:rdf="http://www.w3.org/1999/02/22-rdf-syntax-ns#"
   xmlns:svg="http://www.w3.org/2000/svg"
   xmlns="http://www.w3.org/2000/svg"
   xmlns:sodipodi="http://sodipodi.sourceforge.net/DTD/sodipodi-0.dtd"
   xmlns:inkscape="http://www.inkscape.org/namespaces/inkscape"
   version="1.0"
   width="521.00006"
   height="599.99994"
   id="svg3448"
   sodipodi:version="0.32"
   inkscape:version="0.45.1"
   sodipodi:docname="Coat_of_Arms_of_Kalmykia.svg"
   inkscape:output_extension="org.inkscape.output.svg.inkscape"
   sodipodi:docbase="C:\Users\Mistrz\Desktop">
  <metadata
     id="metadata57">
    <rdf:RDF>
      <cc:Work
         rdf:about="">
        <dc:format>image/svg+xml</dc:format>
        <dc:type
           rdf:resource="http://purl.org/dc/dcmitype/StillImage" />
      </cc:Work>
    </rdf:RDF>
  </metadata>
  <sodipodi:namedview
     inkscape:window-height="974"
     inkscape:window-width="1280"
     inkscape:pageshadow="2"
     inkscape:pageopacity="0.0"
     guidetolerance="10.0"
     gridtolerance="10.0"
     objecttolerance="10.0"
     borderopacity="1.0"
     bordercolor="#666666"
     pagecolor="#ffffff"
     id="base"
     inkscape:zoom="0.88859761"
     inkscape:cx="140.7939"
     inkscape:cy="358.51897"
     inkscape:window-x="-8"
     inkscape:window-y="-8"
     inkscape:current-layer="svg3448" />
  <defs
     id="defs3450" />
  <path
     d="M 521.00006,289.06163 C 521.00006,432.87628 404.37308,549.4609 260.50152,549.4609 C 116.62996,549.4609 -3.9540008e-007,432.87628 -3.9540008e-007,289.06163 C -3.9540008e-007,145.24698 116.62996,28.661361 260.50152,28.661361 C 404.37308,28.661361 521.00006,145.24698 521.00006,289.06163 z "
     style="fill:#2e2779;fill-rule:evenodd"
     id="_146181688" />
  <path
     d="M 504.72635,289.05171 C 504.72635,423.31026 395.84923,532.14605 261.53947,532.14605 C 127.2307,532.14605 18.351592,423.31026 18.351592,289.05171 C 18.351592,154.79613 127.2307,45.959351 261.53947,45.959351 C 395.84923,45.959351 504.72635,154.79613 504.72635,289.05171 L 504.72635,289.05171 z "
     style="fill:#00a7e5;fill-rule:evenodd"
     id="_146180928" />
  <path
     d="M 73.543307,248.24436 C 76.620429,232.59592 81.607727,217.63092 88.251175,203.60327 L 87.533742,203.58839 L 71.022865,194.64827 L 70.802575,194.18504 C 68.534178,198.82819 66.430502,203.56557 64.498494,208.39024 L 55.477497,206.43518 C 60.955984,192.49085 67.813768,179.23888 75.887119,166.84987 L 82.98107,172.56727 C 80.062717,177.10825 77.309085,181.76826 74.73109,186.53838 L 92.112213,195.90105 C 99.449278,182.06584 108.42959,169.2384 118.79714,157.67764 L 104.87716,144.13206 C 101.77027,147.52838 98.776499,151.02488 95.895852,154.61858 C 95.6706,154.89929 95.971267,154.63048 95.748992,154.91219 L 88.806863,149.02716 C 97.277134,138.48907 106.69604,128.74748 116.93757,119.93035 L 122.66612,126.80035 C 118.73264,130.20857 114.92816,133.75863 111.25665,137.44458 L 124.94543,151.13299 C 136.28543,139.61191 149.07717,129.52018 163.02394,121.1514 L 153.68938,104.56263 L 153.71022,104.43864 C 149.2925,107.05332 144.97698,109.82275 140.76864,112.74195 L 135.44694,105.61902 C 146.65298,97.867207 158.61714,91.127151 171.1995,85.52978 L 174.64873,93.579163 C 169.91943,95.705827 165.28142,97.999132 160.74562,100.45511 L 170.04347,117.1401 C 197.21165,102.36157 228.35696,93.965017 261.46405,93.965017 L 261.35192,287.25634 L 69.939274,287.25634 C 69.934313,286.64532 69.932328,286.03331 69.932328,285.42031 C 69.932328,275.58746 70.673576,265.92821 72.10348,256.49312 L 52.087801,253.84669 L 51.991548,253.83876 C 51.193739,258.89256 50.575536,264.00488 50.139916,269.17176 L 41.092127,268.1491 C 42.22831,254.71065 44.569145,241.61639 48.009449,228.97246 L 56.920301,230.95232 C 55.786102,235.08166 54.775941,239.26159 53.891802,243.48714 L 53.764787,243.91763 L 62.628009,245.85682 L 73.543307,248.24436 L 73.543307,248.24436 z "
     style="fill:#2e2779;fill-rule:evenodd;stroke:#ffffff;stroke-width:8.13924503;stroke-linecap:round;stroke-linejoin:round"
     id="_146178176" />
  <path
     d="M 507.92155,289.05171 L 507.92155,289.05567 L 507.90865,289.05567 C 507.90766,357.07519 480.33562,418.64826 435.75655,463.21099 C 391.17947,507.77174 329.58642,535.33307 261.54244,535.33505 L 261.54244,535.34795 L 261.5355,535.34795 L 261.53252,535.34795 L 261.53252,535.33505 C 193.48854,535.33406 131.89252,507.77075 87.314444,463.20802 C 42.73736,418.64727 15.164325,357.07618 15.162341,289.05865 L 15.149441,289.05865 L 15.149441,289.05171 L 15.149441,289.04873 L 15.162341,289.04873 C 15.163333,221.0312 42.73736,159.45912 87.316428,114.89837 C 131.8945,70.337624 193.48755,42.776298 261.52855,42.774315 L 261.52855,42.76142 L 261.5355,42.76142 L 261.53847,42.76142 L 261.53847,42.774315 C 329.58543,42.775306 391.18145,70.338615 435.75953,114.90036 C 480.33562,159.46111 507.90667,221.03021 507.90865,289.04576 L 507.92155,289.04576 L 507.92155,289.05171 L 507.92155,289.05171 z M 501.53511,289.05567 L 501.52221,289.05567 L 501.52221,289.05171 L 501.52221,289.04576 L 501.53511,289.04576 C 501.53313,222.81268 474.66859,162.84155 431.23464,119.42348 C 387.79969,76.003437 327.80128,49.146371 261.53847,49.145379 L 261.53847,49.158274 L 261.5355,49.158274 L 261.52855,49.158274 L 261.52855,49.145379 C 195.27071,49.147363 135.27626,76.002445 91.840323,119.42051 C 48.404384,162.83956 21.536874,222.81367 21.536874,289.04873 L 21.548782,289.04873 L 21.548782,289.05171 L 21.548782,289.05865 L 21.536874,289.05865 C 21.537867,355.29371 48.404384,415.26682 91.839331,458.68588 C 135.27527,502.10593 195.2717,528.96299 261.53252,528.96399 L 261.53252,528.95109 L 261.5355,528.95109 L 261.54244,528.95109 L 261.54244,528.96399 C 327.80227,528.962 387.7987,502.10593 431.23265,458.68786 C 474.66859,415.26782 501.53412,355.29272 501.53511,289.05567 L 501.53511,289.05567 z "
     style="fill:#ffffff;fill-rule:nonzero"
     id="_146179552" />
  <path
     d="M 71.66786,314.63317 L 60.636463,316.40076 L 51.679965,317.83507 L 51.779195,318.27548 C 52.42419,322.5417 53.198184,326.77023 54.092246,330.96008 L 45.085141,332.42712 C 42.365247,319.61357 40.771614,306.40822 40.398509,292.92612 L 49.48996,292.41826 C 49.631859,297.60002 49.96031,302.73913 50.470352,307.83162 L 50.566605,307.82666 L 70.700368,306.31895 C 70.096057,299.88936 69.864852,286.78518 69.864852,286.78518 L 171.00302,286.78022 L 261.84112,286.77427 L 261.84112,480.64289 C 228.78663,478.76718 186.87883,467.28082 160.59181,450.98664 L 150.36418,467.12013 C 154.75511,469.83202 159.25419,472.38421 163.8545,474.77473 L 159.95277,482.61382 C 147.70978,476.31219 136.14849,468.90855 125.3999,460.53778 L 131.11257,453.72631 C 135.14925,456.87465 139.30401,459.88907 143.56593,462.74678 L 143.54907,462.61783 L 153.80945,446.58651 C 140.3618,437.44305 128.16147,426.64309 117.49127,414.50107 L 103.04934,427.39 C 106.50552,431.27929 110.10658,435.04063 113.83663,438.66211 L 107.72804,445.19982 C 98.002505,435.82028 89.151191,425.55793 81.288207,414.55562 L 88.553826,409.07629 C 88.762209,409.36593 88.479404,409.08125 88.685802,409.37684 C 91.36005,413.12727 94.149405,416.78545 97.057835,420.35237 L 111.72105,407.62016 C 102.02628,395.48905 93.784238,382.17062 87.248952,367.94459 L 69.362748,376.3094 C 71.664883,381.21937 74.150594,386.02817 76.81095,390.72389 L 69.399463,396.03163 C 62.044537,383.20717 55.94487,369.58819 51.266176,355.3572 L 60.383427,353.91694 C 62.038583,358.83782 63.869376,363.68928 65.873822,368.45443 L 66.115943,368.00311 L 83.107092,360.00927 L 83.824525,360.03606 C 77.987818,345.65429 73.855881,330.43436 71.66786,314.63317 L 71.66786,314.63317 z "
     style="fill:#2e2779;fill-rule:evenodd;stroke:#ffffff;stroke-width:8.13924503;stroke-linecap:round;stroke-linejoin:round"
     id="_146176816" />
  <path
     d="M 73.444077,248.80975 C 76.521199,233.16131 81.508497,218.19532 88.151945,204.16866 L 87.434512,204.15378 L 70.923636,195.21465 L 70.70533,194.75043 C 68.436932,199.39358 66.33028,204.13096 64.401249,208.95564 L 55.380251,206.99958 C 60.856754,193.05525 67.717515,179.80427 75.787889,167.41526 L 82.883825,173.13266 C 79.963487,177.67463 77.208862,182.33266 74.634837,187.10278 L 92.01596,196.46545 C 99.349056,182.63123 108.33036,169.80379 118.69791,158.24303 L 104.77694,144.69646 C 101.67401,148.09278 98.680246,151.59126 95.799599,155.18397 C 95.573355,155.46468 95.875014,155.19587 95.64877,155.47758 L 88.707633,149.59255 C 97.177904,139.05446 106.59681,129.31287 116.83834,120.49475 L 122.56986,127.36475 C 118.63639,130.77396 114.82992,134.32402 111.15941,138.00997 L 124.84918,151.69739 C 136.18918,140.1773 148.98091,130.08458 162.92769,121.71679 L 153.59114,105.12901 L 153.61297,105.00403 C 149.19525,107.61871 144.87676,110.38814 140.6714,113.30635 L 135.35068,106.18441 C 146.55673,98.432598 158.51791,91.69155 171.09928,86.095171 L 174.5505,94.144554 C 169.82318,96.271218 165.18517,98.564523 160.64838,101.01951 L 169.94424,117.70549 C 197.11242,102.92696 228.25773,94.529417 261.36482,94.529417 L 261.2517,287.82173 L 69.841036,287.82173 C 69.835083,287.20972 69.835083,286.59771 69.835083,285.98471 C 69.835083,276.15286 70.577323,266.4926 72.006235,257.05851 L 51.991548,254.41208 L 51.894302,254.40316 C 51.096493,259.45696 50.475314,264.57027 50.043663,269.73616 L 40.994881,268.71449 C 42.12908,255.27604 44.469915,242.18079 47.909226,229.53884 L 56.820078,231.51672 C 55.689849,235.64705 54.678695,239.82698 53.792572,244.05253 L 53.668534,244.48302 L 62.528779,246.42122 L 73.444077,248.80975 L 73.444077,248.80975 z "
     style="fill:#2e2779;fill-rule:evenodd"
     id="_146175456" />
  <path
     d="M 71.66786,315.43662 L 60.636463,317.20421 L 51.679965,318.63852 L 51.779195,319.07397 C 52.42419,323.3392 53.198184,327.57269 54.092246,331.75857 L 45.085141,333.22958 C 42.365247,320.41702 40.771614,307.20572 40.398509,293.7266 L 49.48996,293.21874 C 49.631859,298.4005 49.96031,303.5396 50.470352,308.62912 L 50.566605,308.62912 L 70.700368,307.12041 C 70.096057,300.68983 69.864852,287.58566 69.864852,287.58566 L 171.00302,287.57971 L 261.84112,287.57574 L 261.84112,481.44039 C 228.78663,479.57063 186.87585,468.08427 160.58884,451.7891 L 150.36815,467.92258 C 154.75511,470.63051 159.25419,473.18271 163.8545,475.57322 L 159.95476,483.41727 C 147.70978,477.11465 136.15147,469.70704 125.40189,461.33627 L 131.11555,454.52381 C 135.14925,457.6781 139.30103,460.68657 143.56792,463.55023 L 143.55303,463.42029 L 153.81242,447.38897 C 140.3618,438.24551 128.16544,427.44753 117.49127,415.29956 L 103.04934,428.19444 C 106.50552,432.07778 110.10658,435.83813 113.83663,439.46556 L 107.72804,445.99732 C 98.002505,436.61778 89.151191,426.35642 81.288207,415.35907 L 88.553826,409.87379 C 88.762209,410.16938 88.479404,409.8847 88.685802,410.17434 C 91.36005,413.92476 94.149405,417.5879 97.057835,421.15582 L 111.72105,408.41766 C 102.02628,396.28655 93.784238,382.97407 87.248952,368.74804 L 69.362748,377.11285 C 71.664883,382.01687 74.150594,386.82567 76.81095,391.52139 L 69.399463,396.83408 C 62.044537,384.00566 55.94487,370.38569 51.266176,356.1547 L 60.383427,354.71444 C 62.038583,359.64127 63.869376,364.48777 65.873822,369.25193 L 66.115943,368.80061 L 83.107092,360.81272 L 83.824525,360.83951 C 77.987818,346.45675 73.855881,331.23186 71.66786,315.43662 L 71.66786,315.43662 z "
     style="fill:#2e2779;fill-rule:evenodd"
     id="_146146392" />
  <path
     d="M 450.2094,248.24436 L 461.12469,245.85682 L 469.98792,243.91763 L 469.8609,243.48714 C 468.97775,239.26159 467.9666,235.08166 466.8324,230.95232 L 475.74325,228.97246 C 479.18356,241.61639 481.52439,254.71065 482.66058,268.1491 L 473.61279,269.17176 C 473.17717,264.00488 472.55896,258.89256 471.76116,253.83876 L 471.6649,253.84669 L 451.65022,256.49312 C 453.07913,265.92821 453.82037,275.58746 453.82037,285.42031 C 453.82037,286.03331 453.81839,286.64532 453.81244,287.25634 L 262.40078,287.25634 L 262.28865,93.965017 C 295.39475,93.965017 326.54106,102.36157 353.70923,117.1401 L 363.00708,100.45511 C 358.47029,97.999132 353.83228,95.705827 349.10298,93.579163 L 352.5532,85.52978 C 365.13556,91.127151 377.09972,97.867207 388.30477,105.61902 L 382.98505,112.74195 C 378.77671,109.82275 374.46021,107.05332 370.04249,104.43864 L 370.06432,104.56263 L 360.72777,121.1514 C 374.67454,129.52018 387.46628,139.61191 398.80628,151.13299 L 412.49605,137.44458 C 408.82553,133.75863 405.02006,130.20857 401.08559,126.80035 L 406.81513,119.93035 C 417.05666,128.74748 426.47557,138.48907 434.94584,149.02716 L 428.00371,154.91219 C 427.78044,154.63048 428.0821,154.89929 427.85685,154.61858 C 424.9762,151.02488 421.98244,147.52838 418.87554,144.13206 L 404.95556,157.67764 C 415.32311,169.2384 424.30342,182.06584 431.64049,195.90105 L 449.02161,186.53838 C 446.44362,181.76826 443.68999,177.10825 440.77163,172.56727 L 447.86558,166.84987 C 455.93794,179.23888 462.79672,192.49085 468.27521,206.43518 L 459.25421,208.39024 C 457.3222,203.56557 455.21853,198.82819 452.95013,194.18504 L 452.72984,194.64827 L 436.21896,203.58839 L 435.50153,203.60327 C 442.14398,217.63092 447.13227,232.59592 450.2094,248.24436 z "
     style="fill:#2e2779;fill-rule:evenodd;stroke:#ffffff;stroke-width:8.13924503;stroke-linecap:round;stroke-linejoin:round"
     id="_146146024" />
  <path
     d="M 452.08484,314.63317 C 449.89682,330.43436 445.76488,345.65429 439.92719,360.03606 L 440.64561,360.00927 L 457.63676,368.00311 L 457.87789,368.45443 C 459.88333,363.68928 461.71412,358.83782 463.36928,353.91694 L 472.48653,355.3572 C 467.80783,369.58819 461.70817,383.20717 454.35324,396.03163 L 446.94175,390.72389 C 449.60211,386.02817 452.08782,381.21937 454.39095,376.3094 L 436.50375,367.94459 C 429.96846,382.17062 421.72642,395.48905 412.03165,407.62016 L 426.69586,420.35237 C 429.6033,416.78545 432.39265,413.12727 435.06591,409.37684 C 435.2733,409.08125 434.99049,409.36593 435.19788,409.07629 L 442.4645,414.55562 C 434.60151,425.55793 425.7502,435.82028 416.02467,445.19982 L 409.91607,438.66211 C 413.64613,435.04063 417.24718,431.27929 420.70336,427.39 L 406.26143,414.50107 C 395.59024,426.64309 383.38991,437.44305 369.94326,446.58651 L 380.20264,462.61783 L 380.18677,462.74678 C 384.4487,459.88907 388.60345,456.87465 392.64013,453.72631 L 398.3528,460.53778 C 387.60421,468.90855 376.04292,476.31219 363.79993,482.61382 L 359.89821,474.77473 C 364.49851,472.38421 368.9976,469.83202 373.38753,467.12013 L 363.1599,450.98664 C 336.87288,467.28082 294.96508,478.76718 261.91158,480.64289 L 261.91158,286.77427 L 352.74968,286.78022 L 453.88785,286.78518 C 453.88785,286.78518 453.65665,299.88936 453.05233,306.31895 L 473.1861,307.82666 L 473.28235,307.83162 C 473.79239,302.73913 474.12084,297.60002 474.26274,292.41826 L 483.35419,292.92612 C 482.9801,306.40822 481.38646,319.61357 478.66756,332.42712 L 469.65946,330.96008 C 470.55452,326.77023 471.32851,322.5417 471.97351,318.27548 L 472.07274,317.83507 L 463.11624,316.40076 L 452.08484,314.63317 L 452.08484,314.63317 z "
     style="fill:#2e2779;fill-rule:evenodd;stroke:#ffffff;stroke-width:8.13924503;stroke-linecap:round;stroke-linejoin:round"
     id="_146145536" />
  <path
     d="M 450.30863,248.80975 L 461.22392,246.42122 L 470.08417,244.48302 L 469.96013,244.05253 C 469.07401,239.82698 468.06285,235.64705 466.93262,231.51672 L 475.84348,229.53884 C 479.28279,242.18079 481.62362,255.27604 482.75782,268.71449 L 473.70904,269.73616 C 473.2764,264.57027 472.65621,259.45696 471.8584,254.40316 L 471.76116,254.41208 L 451.74647,257.05851 C 453.17538,266.4926 453.91762,276.15286 453.91762,285.98471 C 453.91762,286.59771 453.91762,287.20972 453.91167,287.82173 L 262.501,287.82173 L 262.38788,94.529417 C 295.49497,94.529417 326.64029,102.92696 353.80846,117.70549 L 363.10433,101.01951 C 358.56852,98.564523 353.92952,96.271218 349.20221,94.144554 L 352.65343,86.095171 C 365.23479,91.69155 377.19598,98.432598 388.40202,106.18441 L 383.08131,113.30635 C 378.87594,110.38814 374.55745,107.61871 370.13874,105.00403 L 370.16057,105.12901 L 360.82501,121.71679 C 374.77179,130.08458 387.56352,140.1773 398.90353,151.69739 L 412.59329,138.00997 C 408.92179,134.32402 405.11632,130.77396 401.18284,127.36475 L 406.91436,120.49475 C 417.1549,129.31287 426.57381,139.05446 435.04507,149.59255 L 428.10393,155.47758 C 427.87769,155.19587 428.17836,155.46468 427.9531,155.18397 C 425.07246,151.59126 422.07869,148.09278 418.97477,144.69646 L 405.05479,158.24303 C 415.42234,169.80379 424.40365,182.63123 431.73674,196.46545 L 449.11787,187.10278 C 446.54384,182.33266 443.78922,177.67463 440.86789,173.13266 L 447.96581,167.41526 C 456.03519,179.80427 462.89595,193.05525 468.37245,206.99958 L 459.35145,208.95564 C 457.42242,204.13096 455.31478,199.39358 453.04638,194.75043 L 452.82907,195.21465 L 436.31918,204.15378 L 435.60175,204.16866 C 442.24421,218.19532 447.2315,233.16131 450.30863,248.80975 L 450.30863,248.80975 z "
     style="fill:#2e2779;fill-rule:evenodd"
     id="_146138448" />
  <path
     d="M 452.08484,315.43662 C 449.89682,331.23186 445.76488,346.45675 439.92719,360.83951 L 440.64561,360.81272 L 457.63676,368.80061 L 457.87789,369.25193 C 459.88333,364.48777 461.71412,359.64127 463.36928,354.71444 L 472.48653,356.1547 C 467.80783,370.38569 461.70817,384.00566 454.35324,396.83408 L 446.94175,391.52139 C 449.60211,386.82567 452.08782,382.01687 454.39095,377.11285 L 436.50375,368.74804 C 429.96846,382.97407 421.72642,396.28655 412.03165,408.41766 L 426.69586,421.15582 C 429.6033,417.5879 432.39265,413.92476 435.06591,410.17434 C 435.2733,409.8847 434.99049,410.16938 435.19788,409.87379 L 442.4645,415.35907 C 434.60151,426.35642 425.7502,436.61778 416.02467,445.99732 L 409.91607,439.46556 C 413.64613,435.83813 417.24718,432.07778 420.70336,428.19444 L 406.26143,415.29956 C 395.58726,427.44753 383.38991,438.24551 369.94028,447.38897 L 380.20066,463.42029 L 380.18478,463.55023 C 384.45167,460.68657 388.60345,457.6781 392.63715,454.52381 L 398.35082,461.33627 C 387.60123,469.70704 376.04292,477.11465 363.79794,483.41727 L 359.89821,475.57322 C 364.49851,473.18271 368.9976,470.63051 373.38555,467.92258 L 363.16287,451.7891 C 336.87685,468.08427 294.96508,479.57063 261.91158,481.44039 L 261.91158,287.57574 L 352.74968,287.57971 L 453.88785,287.58566 C 453.88785,287.58566 453.65665,300.68983 453.05233,307.12041 L 473.1861,308.62912 L 473.28235,308.62912 C 473.79239,303.5396 474.12084,298.4005 474.26274,293.21874 L 483.35419,293.7266 C 482.9801,307.20572 481.38646,320.41702 478.66756,333.22958 L 469.65946,331.75857 C 470.55452,327.57269 471.32851,323.3392 471.97351,319.07397 L 472.07274,318.63852 L 463.11624,317.20421 L 452.08484,315.43662 L 452.08484,315.43662 z "
     style="fill:#2e2779;fill-rule:evenodd"
     id="_146139888" />
  <path
     d="M 446.93481,287.16707 C 446.93481,389.14179 364.23654,471.80791 262.22217,471.80791 C 160.20779,471.80791 77.509529,389.14179 77.509529,287.16707 C 77.509529,185.19235 160.20779,102.52623 262.22217,102.52623 C 364.23654,102.52623 446.93481,185.19235 446.93481,287.16707 z "
     style="fill:#00a7e5;fill-rule:evenodd"
     id="_146139400" />
  <path
     d="M 430.42294,286.13548 C 430.42294,379.56585 354.65589,455.30445 261.18918,455.30445 C 167.72447,455.30445 91.95543,379.56585 91.95543,286.13548 C 91.95543,192.70709 167.72447,116.9685 261.18918,116.9685 C 354.65589,116.9685 430.42294,192.70709 430.42294,286.13548 z "
     style="fill:#ffe502;fill-opacity:1;fill-rule:evenodd"
     id="_146138912" />
  <path
     d="M 263.41577,375.18953 L 232.26311,375.41469 L 232.26311,381.60424 L 262.95343,381.83535 L 262.72276,418.96964 C 262.72276,418.96964 243.10967,420.11431 232.26311,406.36043 C 223.50557,395.25 222.56991,381.60424 222.56991,381.60424 L 228.80104,381.60424 L 228.80104,373.35151 C 228.80104,373.35151 199.72442,371.28932 187.26316,365.09978 C 174.80189,358.91122 160.9556,340.80284 151.95641,336.21921 C 142.03653,331.1664 135.40397,333.6809 131.75217,330.57422 C 128.41791,327.73735 129.11093,319.94487 139.69686,320.70865 C 149.74556,321.43373 156.13546,325.75947 159.11023,327.73735 C 166.39686,332.58483 177.539,345.78126 184.03276,350.43334 C 193.95463,357.53643 207.57125,359.37346 207.57125,359.37346 C 207.57125,359.37346 198.28847,355.23618 188.3576,345.37259 C 178.42574,335.50602 170.2274,320.00042 162.53635,312.81797 C 151.2634,302.29277 139.52311,301.21753 132.571,300.22959 C 125.62089,299.24263 127.09579,287.55392 136.03307,288.53988 C 144.97035,289.52584 150.10005,291.74079 159.80224,298.1674 C 167.4174,303.21128 185.91707,327.62129 195.802,338.51251 C 205.68694,349.40174 209.21092,348.3275 209.21092,348.3275 C 209.21092,348.3275 197.51656,333.29504 189.57187,319.48562 C 181.62618,305.6752 176.64727,291.97984 166.49472,281.89306 C 155.52633,270.99689 150.94984,268.5786 139.0338,265.61774 C 127.11776,262.65786 134.73093,249.68462 145.65538,253.63145 C 156.57883,257.57728 165.2425,264.23501 173.18619,274.0986 C 181.12989,283.9622 188.64419,300.18495 195.30771,311.83101 C 204.8012,328.42475 216.57044,338.96978 216.57044,338.96978 C 216.57044,338.96978 207.22275,321.6956 199.28005,301.96742 C 191.33536,282.23825 188.3556,262.50908 176.43956,250.67257 C 164.52252,238.83506 159.3399,236.50605 153.59907,232.91631 C 144.66579,227.33084 151.6119,215.16204 162.53635,222.06676 C 173.4598,228.97147 186.16971,241.22558 191.64792,249.80167 C 199.26308,261.72051 207.33958,293.81091 214.26273,308.94058 C 220.76148,323.13883 227.08648,332.54615 227.08648,332.54615 C 227.08648,332.54615 224.21157,316.5188 220.13337,300.98047 C 215.18542,282.12219 212.28654,253.0978 202.72415,236.04878 C 193.72496,220.00258 187.49483,215.6461 175.03356,203.9554 C 169.5993,198.85795 177.93344,189.25721 185.87813,196.16193 C 193.82382,203.06664 210.34031,221.6075 216.16203,239.16735 C 221.07403,253.98159 228.50046,292.37958 232.26311,305.23082 C 236.02376,318.08206 240.98869,327.94565 240.98869,327.94565 C 240.98869,327.94565 238.34146,307.73044 236.18553,287.39422 C 234.8015,274.32873 230.90704,251.47403 227.87835,238.10997 C 224.91257,225.01968 211.22206,195.86534 203.1855,183.09544 C 197.41671,173.92817 209.41663,167.27937 214.26273,176.44863 C 221.3097,189.78194 228.80104,206.47783 233.044,221.4111 C 239.0145,242.42381 244.38785,275.45256 245.95362,290.46221 C 247.95478,309.62996 248.70171,308.85825 251.91214,324.00081 C 251.91214,324.00081 250.49216,283.03872 247.95478,245.90444 C 246.53779,225.14367 244.46374,188.18297 236.64587,171.40574 C 230.87808,159.02764 245.18672,149.85938 250.26149,169.34255 C 256.82016,194.51237 258.49977,250.01394 259.49136,269.74311 C 260.48394,289.47228 263.64544,324.07123 263.64544,324.07123 L 263.41577,375.18953 L 263.41577,375.18953 z "
     style="fill:#da251d;fill-rule:evenodd"
     id="_146136920" />
  <path
     d="M 183.2232,345.62057 C 183.2232,345.62057 177.44603,340.51816 171.75717,331.17631 C 162.1269,315.36024 153.41253,309.85909 144.92737,307.10851 C 136.14849,304.26172 128.41749,305.04533 128.41749,310.54649 C 128.41749,316.04764 133.54668,316.65172 139.42507,316.73504 C 155.47651,316.96516 165.75971,329.94436 174.05137,337.59499 C 180.01311,343.09515 183.2232,345.62057 183.2232,345.62057 L 183.2232,345.62057 z "
     style="fill:#da251d;fill-rule:evenodd"
     id="_146136112" />
  <path
     d="M 191.02069,329.1052 C 191.02069,329.1052 178.17834,306.41219 170.38184,294.03409 C 161.70418,280.25938 149.61996,275.16689 142.63417,272.71687 C 129.56359,268.13224 127.42519,279.3121 131.39935,282.11525 C 135.2971,284.86682 142.86438,283.71918 153.87196,289.90773 C 162.37498,294.68975 174.50981,307.10058 178.63778,313.28913 C 182.76475,319.47867 191.02069,329.1052 191.02069,329.1052 L 191.02069,329.1052 z "
     style="fill:#da251d;fill-rule:evenodd"
     id="_146135304" />
  <path
     d="M 199.50584,313.06595 C 199.50584,313.06595 194.90157,300.26827 191.93757,291.97587 C 188.49826,282.34934 186.47595,273.96172 179.78289,262.40691 C 172.21661,249.34043 156.9729,238.70711 149.97421,236.27493 C 139.42507,232.60783 136.67144,244.52865 146.07447,248.19477 C 159.59356,253.46679 163.00211,256.86211 168.54807,262.40691 C 174.74003,268.59546 182.49088,280.4905 186.89272,288.99715 C 190.33203,295.64397 199.50584,313.06595 199.50584,313.06595 L 199.50584,313.06595 z "
     style="fill:#da251d;fill-rule:evenodd"
     id="_146134464" />
  <path
     d="M 216.70141,303.20632 C 216.70141,303.20632 214.86664,296.55851 212.57443,286.93199 C 210.47969,278.13272 208.57149,263.98604 203.40161,250.48311 C 196.29178,231.91547 187.14675,222.30482 176.57181,212.66143 C 163.50025,200.74259 157.07907,212.43229 165.33402,218.39171 C 175.70057,225.87571 191.41066,241.47752 197.43988,252.08803 C 203.1714,262.1748 207.37379,279.58984 209.59257,286.2436 C 211.65655,292.43215 216.70141,303.20632 216.70141,303.20632 z "
     style="fill:#da251d;fill-rule:evenodd"
     id="_146157840" />
  <path
     d="M 199.27563,186.52747 C 204.76503,194.56098 211.16239,204.44044 216.70339,218.61985 C 222.4369,233.28927 225.646,246.61663 228.39764,261.02617 C 230.01609,269.4991 230.69283,275.9267 232.75682,294.26422 C 232.75682,294.26422 229.08829,278.68025 227.25253,269.50802 C 224.50088,255.75414 220.58626,240.5362 215.55629,228.70464 C 207.76079,210.36713 195.67557,199.57312 190.10281,193.17627 C 183.91086,186.0692 192.85446,177.12908 199.27563,186.52747 L 199.27563,186.52747 z "
     style="fill:#da251d;fill-rule:evenodd"
     id="_146157120" />
  <path
     d="M 246.74824,280.73947 C 246.06058,281.42686 244.52649,238.2657 241.93361,222.28696 C 239.18097,205.32523 233.94361,178.9671 228.86204,170.7114 C 223.35875,161.77227 213.49727,166.58602 218.08467,174.15036 C 224.31235,184.41965 229.82358,198.51574 233.67767,210.59725 C 238.72153,226.41332 241.93361,253.92109 242.62127,258.04646 C 243.30893,262.17282 246.74824,280.73947 246.74824,280.73947 L 246.74824,280.73947 z "
     style="fill:#da251d;fill-rule:evenodd"
     id="_146159256" />
  <path
     d="M 262.10905,156.95851 C 262.10905,156.95851 257.45714,156.26218 255.91709,161.54413 C 254.31354,167.04528 253.8541,169.3366 257.29242,198.90655 C 260.73273,228.4765 261.67343,281.45761 261.67343,281.45761 L 262.10905,156.95851 L 262.10905,156.95851 z "
     style="fill:#da251d;fill-rule:evenodd"
     id="_146158384" />
  <path
     d="M 261.36482,375.18953 L 292.3216,375.41469 L 292.3216,381.60424 L 261.82426,381.83535 L 262.05248,418.96964 C 262.05248,418.96964 281.54324,420.11431 292.3216,406.36043 C 301.02307,395.25 301.95286,381.60424 301.95286,381.60424 L 295.7619,381.60424 L 295.7619,373.35151 C 295.7619,373.35151 324.65469,371.28932 337.0376,365.09978 C 349.42051,358.91122 363.17974,340.80483 372.12334,336.21921 C 381.97985,331.1664 388.5717,333.6809 392.19955,330.57521 C 395.51284,327.73834 394.82517,319.94586 384.30382,320.70865 C 374.31831,321.43373 367.97156,325.75947 365.0145,327.73834 C 357.7727,332.58483 346.70161,345.78126 340.24869,350.43334 C 330.38721,357.53643 316.85919,359.37346 316.85919,359.37346 C 316.85919,359.37346 326.08162,355.23618 335.94905,345.37259 C 345.81946,335.50701 353.96525,320.00042 361.60794,312.81995 C 372.811,302.29475 384.47648,301.21753 391.38487,300.23157 C 398.29128,299.24263 396.82664,287.5559 387.94556,288.54087 C 379.06348,289.52783 373.96902,291.74079 364.32684,298.16839 C 356.75956,303.21128 338.37622,327.62328 328.55443,338.51251 C 318.72967,349.40174 315.22785,348.3275 315.22785,348.3275 C 315.22785,348.3275 326.85065,333.29703 334.74539,319.48661 C 342.64013,305.67619 347.58476,291.97984 357.67645,281.89306 C 368.57587,270.99689 373.12259,268.58058 384.96568,265.61972 C 396.80581,262.65985 389.23753,249.68462 378.38475,253.63145 C 367.52998,257.57728 358.92079,264.236 351.02506,274.09959 C 343.13231,283.96418 335.66426,300.18594 329.04264,311.83101 C 319.61083,328.42673 307.91559,338.96978 307.91559,338.96978 C 307.91559,338.96978 317.20252,321.69758 325.09825,301.96742 C 332.991,282.23924 335.95302,262.50908 347.79513,250.67356 C 359.63525,238.83506 364.78429,236.50605 370.49101,232.9183 C 379.36812,227.33084 372.4637,215.16204 361.60794,222.06775 C 350.75317,228.97147 338.12616,241.22558 332.68141,249.80365 C 325.11512,261.7215 317.08742,293.81091 310.20879,308.94058 C 303.75091,323.13983 297.46469,332.54714 297.46469,332.54714 C 297.46469,332.54714 300.32152,316.5188 304.37407,300.98146 C 309.29191,282.12418 312.17256,253.09879 321.67482,236.04977 C 330.61842,220.00258 336.80937,215.64808 349.19228,203.95738 C 354.59139,198.85894 346.30866,189.2582 338.41392,196.16193 C 330.51919,203.06862 314.10754,221.60849 308.31946,239.16835 C 303.43833,253.98258 296.05959,292.37958 292.3216,305.23082 C 288.5836,318.08206 283.64989,327.94565 283.64989,327.94565 C 283.64989,327.94565 286.28147,307.73143 288.42186,287.39422 C 289.79818,274.32873 293.66815,251.47403 296.67779,238.10997 C 299.62592,225.01968 313.23134,195.86634 321.21538,183.09544 C 326.94691,173.92817 315.02343,167.27937 310.20879,176.45061 C 303.20514,189.78194 295.7619,206.47982 291.54562,221.41209 C 285.61167,242.42381 280.2721,275.45455 278.71618,290.46221 C 276.72761,309.63095 275.98537,308.86023 272.79611,324.0018 C 272.79611,324.0018 274.20716,283.03972 276.72761,245.90543 C 278.13568,225.14367 280.19669,188.18297 287.96639,171.40574 C 293.69792,159.02764 279.47925,149.85938 274.43539,169.34255 C 267.91797,194.51237 266.24991,250.01592 265.26357,269.74311 C 264.27722,289.47327 261.1356,324.07223 261.1356,324.07223 L 261.36482,375.18953 L 261.36482,375.18953 z "
     style="fill:#da251d;fill-rule:evenodd"
     id="_146154824" />
  <path
     d="M 340.70911,345.62057 C 340.70911,345.62057 346.48628,340.51816 352.17514,331.1783 C 361.8064,315.36124 370.52177,309.86008 379.00494,307.1095 C 387.78481,304.26172 395.51582,305.04632 395.51582,310.54748 C 395.51582,316.04962 390.38563,316.65172 384.50923,316.73702 C 368.45778,316.96516 358.17359,329.94535 349.88392,337.59499 C 343.92019,343.09515 340.70911,345.62057 340.70911,345.62057 z "
     style="fill:#da251d;fill-rule:evenodd"
     id="_146154016" />
  <path
     d="M 332.90964,329.11512 C 332.90964,329.11512 345.75198,306.42211 353.54749,294.04401 C 362.22416,280.26831 374.30938,275.17483 381.29417,272.72579 C 394.36475,268.14017 396.50315,279.32004 392.52899,282.12517 C 388.63223,284.87575 381.06495,283.7291 370.05836,289.91765 C 361.55336,294.69867 349.41952,307.1095 345.29255,313.29806 C 341.16458,319.4876 332.90964,329.11512 332.90964,329.11512 z "
     style="fill:#da251d;fill-rule:evenodd"
     id="_146153208" />
  <path
     d="M 324.42547,313.06595 C 324.42547,313.06595 329.02875,300.26926 331.99275,291.97686 C 335.43305,282.34934 337.45437,273.96073 344.14545,262.40691 C 351.71173,249.34043 366.95643,238.70611 373.9581,236.27493 C 384.50526,232.60882 387.25988,244.52766 377.85387,248.19377 C 364.33676,253.46679 360.92921,256.86211 355.38324,262.40691 C 349.19129,268.59546 341.43945,280.4905 337.03661,288.99715 C 333.5973,295.64298 324.42547,313.06595 324.42547,313.06595 L 324.42547,313.06595 z "
     style="fill:#da251d;fill-rule:evenodd"
     id="_146148592" />
  <path
     d="M 307.22892,303.20632 C 307.22892,303.20632 309.0617,296.5605 311.35688,286.93298 C 313.44965,278.13272 315.35784,263.98604 320.52871,250.48311 C 327.63656,231.91547 336.78357,222.30482 347.35851,212.66143 C 360.42909,200.74259 366.84927,212.43229 358.59432,218.3937 C 348.22876,225.87769 332.51867,241.47851 326.49144,252.08902 C 320.75694,262.17679 316.55654,279.59083 314.33676,286.24558 C 312.27278,292.43215 307.22892,303.20632 307.22892,303.20632 L 307.22892,303.20632 z "
     style="fill:#da251d;fill-rule:evenodd"
     id="_146148240" />
  <path
     d="M 324.6537,186.52747 C 319.16331,194.56197 312.76794,204.44143 307.22693,218.61985 C 301.49243,233.28927 298.28433,246.61663 295.53169,261.02716 C 293.91424,269.4991 293.23749,275.92769 291.17351,294.26422 C 291.17351,294.26422 294.84204,278.68124 296.6768,269.50802 C 299.42845,255.75414 303.34406,240.5362 308.37205,228.70663 C 316.16954,210.36713 328.25178,199.57411 333.82553,193.17627 C 340.01748,186.07019 331.07388,177.13106 324.6537,186.52747 L 324.6537,186.52747 z "
     style="fill:#da251d;fill-rule:evenodd"
     id="_146150208" />
  <path
     d="M 277.18208,280.73947 C 277.86974,281.42686 279.40384,238.2657 281.99771,222.28696 C 284.74936,205.32721 289.98672,178.9671 295.06828,170.7114 C 300.57158,161.77227 310.43107,166.58602 305.84664,174.15036 C 299.61798,184.41965 294.10675,198.51772 290.25265,210.59725 C 285.20879,226.41332 281.99771,253.92109 281.31005,258.04646 C 280.62139,262.17282 277.18208,280.73947 277.18208,280.73947 z "
     style="fill:#da251d;fill-rule:evenodd"
     id="_146149840" />
  <path
     d="M 260.75668,156.95851 C 260.75668,156.95851 266.07573,156.26218 267.83701,161.54413 C 269.67207,167.04528 270.1975,169.3366 266.26298,198.90655 C 262.32958,228.4765 261.25375,281.45761 261.25375,281.45761 L 260.75668,156.95851 L 260.75668,156.95851 z "
     style="fill:#da251d;fill-rule:evenodd"
     id="_146149112" />
  <path
     d="M 331.82803,71.058745 C 331.82803,110.30482 299.99902,142.11848 260.73868,142.11848 C 221.47735,142.11848 189.65131,110.30482 189.65131,71.058745 C 189.65131,31.814656 221.47735,2.7832e-006 260.73868,2.7832e-006 C 299.99902,2.7832e-006 331.82803,31.814656 331.82803,71.058745 z "
     style="fill:#2e2779;fill-rule:evenodd"
     id="_146133072" />
  <path
     d="M 321.04173,70.721494 C 321.04173,103.57468 294.40146,130.20559 261.5355,130.20559 C 228.66953,130.20559 202.02827,103.57468 202.02827,70.721494 C 202.02827,37.868307 228.66953,11.23839 261.5355,11.23839 C 294.40146,11.23839 321.04173,37.868307 321.04173,70.721494 L 321.04173,70.721494 z "
     style="fill:#00a7e5;fill-rule:evenodd"
     id="_146132216" />
  <path
     d="M 322.63933,70.721494 L 322.63933,70.72447 L 322.63239,70.72447 C 322.63239,87.589985 315.79246,102.85951 304.73825,113.90844 C 293.68601,124.95539 278.41154,131.79166 261.54046,131.79365 L 261.54046,131.7996 L 261.53351,131.7996 L 261.53053,131.7996 L 261.53053,131.79365 C 244.65152,131.79265 229.37605,124.95539 218.32481,113.90646 C 207.27456,102.85852 200.4396,87.590977 200.43761,70.727446 L 200.43067,70.727446 L 200.43067,70.721494 L 200.43067,70.717527 L 200.43761,70.717527 C 200.43861,53.844076 207.27456,38.572566 218.32679,27.523635 C 229.37704,16.476688 244.65052,9.6433917 261.52657,9.6414078 L 261.52657,9.6344644 L 261.53351,9.6344644 L 261.53649,9.6344644 L 261.53649,9.6414078 C 278.41055,9.6423997 293.687,16.476688 304.74122,27.525619 C 315.79346,38.573558 322.6314,53.842092 322.63239,70.714551 L 322.63933,70.714551 L 322.63933,70.721494 L 322.63933,70.721494 z M 319.44413,70.72447 L 319.43817,70.72447 L 319.43817,70.721494 L 319.43817,70.714551 L 319.44413,70.714551 C 319.44314,54.734815 312.95846,40.264772 302.47779,29.788175 C 291.99513,19.309595 277.51847,12.828428 261.53649,12.828428 L 261.53649,12.834379 L 261.53351,12.834379 L 261.52657,12.834379 L 261.52657,12.828428 C 245.5426,12.82942 231.06991,19.309595 220.59023,29.786191 C 210.10857,40.26378 203.62587,54.735807 203.62587,70.717527 L 203.63183,70.717527 L 203.63183,70.721494 L 203.63183,70.727446 L 203.62587,70.727446 C 203.62686,86.699247 210.10857,101.16731 220.58725,111.6439 C 231.06792,122.12248 245.54459,128.60563 261.53053,128.60663 L 261.53053,128.59968 L 261.53351,128.59968 L 261.54046,128.59968 L 261.54046,128.60663 C 277.51946,128.60464 291.99414,122.12248 302.4758,111.64589 C 312.95846,101.1683 319.44413,86.698255 319.44413,70.72447 L 319.44413,70.72447 z "
     style="fill:#ffffff;fill-rule:nonzero"
     id="_146128400" />
  <path
     d="M 246.74824,21.383687 L 239.18097,30.322817 L 235.85676,38.57455 L 235.74166,44.764094 L 229.89403,45.909755 L 220.60611,48.660333 C 220.60611,48.660333 214.41515,53.590146 214.07181,53.93434 C 213.72748,54.27655 208.45341,64.478387 208.2232,64.936651 C 207.99398,65.393924 208.56753,78.458424 208.56753,78.91768 C 208.56753,79.376937 215.67636,88.317059 215.67636,88.317059 C 215.67636,88.317059 225.30961,94.505611 225.88216,94.849805 C 226.45472,95.193999 232.18625,96.45373 232.18625,96.45373 L 235.74166,95.881395 L 237.46131,108.37455 L 242.27694,116.28209 L 249.15656,121.55412 L 258.90293,124.64889 C 258.90293,124.64889 265.208,124.53383 265.66743,124.53383 C 266.12687,124.53383 276.10147,120.75265 276.10147,120.75265 L 282.52164,113.98879 L 286.07706,105.04966 L 286.53351,96.33966 L 294.90455,95.652263 L 304.88014,90.38024 L 313.25019,79.376937 L 313.93885,66.883779 L 310.49855,57.830579 L 301.21161,48.660333 L 293.41313,46.253949 L 285.96096,44.993226 L 285.61762,35.823972 L 279.54177,25.164864 L 267.84652,17.486456 L 256.03617,17.028192 L 246.74824,21.383687 L 246.74824,21.383687 z "
     style="fill:#da251d;fill-rule:evenodd"
     id="_146126224" />
  <path
     d="M 239.36553,96.580695 C 239.36553,96.580695 239.22364,95.465783 239.22364,94.915271 C 239.22364,94.364759 239.63941,93.267702 239.63941,93.267702 C 249.51577,90.423884 256.73277,81.326048 256.73277,70.54295 C 256.73277,70.54295 257.81636,70.581634 258.52585,70.503273 C 258.9962,70.450702 260.05499,70.360438 260.05499,70.360438 C 260.05499,83.084712 251.23245,93.752748 239.36553,96.580695 z "
     style="fill:#ffffff;fill-rule:evenodd"
     id="_146125416" />
  <path
     d="M 233.08428,97.314711 C 218.19383,97.314711 206.1225,85.246092 206.1225,70.361429 C 206.1225,55.475775 218.19383,43.406164 233.08428,43.406164 C 245.03752,43.406164 255.17089,51.176819 258.70744,61.937103 C 258.70744,61.937103 257.57523,62.313038 257.0245,62.313038 C 256.47378,62.313038 255.20065,62.163259 255.20065,62.163259 C 251.8179,53.240992 243.18787,46.897701 233.07336,46.897701 C 220.01073,46.897701 209.41991,57.485393 209.41991,70.543942 C 209.41991,83.602491 220.01073,94.190182 233.07336,94.190182 C 233.07336,94.190182 232.83918,95.466775 232.83918,95.939918 C 232.83918,96.412069 233.08428,97.314711 233.08428,97.314711 L 233.08428,97.314711 z "
     style="fill:#ffffff;fill-rule:evenodd"
     id="_146124496" />
  <path
     d="M 234.95972,47.947147 C 234.95972,47.947147 236.08003,47.825141 236.63076,47.836052 C 237.18247,47.848947 238.26805,48.285389 238.26805,48.285389 C 240.92543,58.207506 249.88987,65.596274 260.67418,65.8016 C 260.67418,65.8016 260.61266,66.882787 260.67914,67.593989 C 260.71983,68.064156 260.78929,69.123521 260.78929,69.123521 C 248.06503,68.883477 237.5655,59.861027 234.95972,47.947147 L 234.95972,47.947147 z "
     style="fill:#ffffff;fill-rule:evenodd"
     id="_146123688" />
  <path
     d="M 234.3445,41.66833 C 234.6273,26.786643 246.92984,14.952116 261.81929,15.234811 C 276.70379,15.519491 288.54689,27.812282 288.2621,42.693969 C 288.03685,54.639591 280.07166,64.621223 269.2417,67.950086 C 269.2417,67.950086 268.88447,66.812361 268.89737,66.261848 C 268.90828,65.710344 269.08293,64.440694 269.08293,64.440694 C 278.07217,61.228876 284.58364,52.727181 284.77417,42.617592 C 285.02125,29.561027 274.63584,18.775945 261.57221,18.526974 C 248.50958,18.278004 237.7203,28.661361 237.47024,41.715942 C 237.47024,41.715942 236.19911,41.460028 235.72578,41.450109 C 235.25245,41.441182 234.3445,41.66833 234.3445,41.66833 z "
     style="fill:#ffffff;fill-rule:evenodd"
     id="_146122768" />
  <path
     d="M 262.58535,72.080417 C 262.58535,72.080417 263.69772,71.904848 264.22661,71.750109 C 264.75352,71.594379 265.68827,70.886152 265.68827,70.886152 C 265.64362,60.61389 272.3476,51.130199 282.69927,48.097917 C 282.69927,48.097917 282.35792,47.070294 282.23189,46.369011 C 282.15152,45.90182 281.93916,44.862294 281.93916,44.862294 C 269.72197,48.439136 261.96417,59.902687 262.58535,72.080417 z "
     style="fill:#ffffff;fill-rule:evenodd"
     id="_146121960" />
  <path
     d="M 263.64711,78.309637 C 267.83462,92.591216 282.81636,100.77748 297.10647,96.591606 C 311.39757,92.404737 319.589,77.431793 315.4015,63.14823 C 312.03959,51.682695 301.7286,44.147124 290.40745,43.780115 C 290.40745,43.780115 290.36181,44.970412 290.5176,45.499103 C 290.67339,46.026801 291.17648,47.206187 291.17648,47.206187 C 300.69165,47.945163 309.21054,54.437241 312.05348,64.141136 C 315.72697,76.671987 308.54173,89.806913 296.00204,93.480963 C 283.46532,97.153029 270.32529,89.969587 266.65179,77.439728 C 266.65179,77.439728 265.49378,78.022974 265.03931,78.15589 C 264.58483,78.288807 263.64711,78.309637 263.64711,78.309637 z "
     style="fill:#ffffff;fill-rule:evenodd"
     id="_146111248" />
  <path
     d="M 287.57146,93.366893 C 287.57146,93.366893 286.45115,93.495842 285.89943,93.486915 C 285.35168,93.479971 284.26015,93.047497 284.26015,93.047497 C 281.55415,83.137283 272.55201,75.794143 261.76571,75.643372 C 261.76571,75.643372 261.82128,74.560202 261.75479,73.851975 C 261.70617,73.380816 261.63373,72.323436 261.63373,72.323436 C 274.36296,72.498012 284.90515,81.4669 287.57146,93.366893 z "
     style="fill:#ffffff;fill-rule:evenodd"
     id="_146110760" />
  <path
     d="M 288.21645,99.655629 C 288.00609,114.53732 275.76607,126.43433 260.87562,126.22504 C 245.98517,126.01674 234.08352,113.78247 234.28992,98.898798 C 234.4596,86.952185 242.37419,76.930877 253.18529,73.549441 C 253.18529,73.549441 253.54748,74.682207 253.53954,75.235695 C 253.53161,75.7872 253.36192,77.055858 253.36192,77.055858 C 244.39153,80.314296 237.92372,88.848724 237.78083,98.960297 C 237.59825,112.01488 248.04121,122.74937 261.10385,122.93188 C 274.16946,123.1144 284.90515,112.67847 285.08773,99.622895 C 285.08773,99.622895 286.35887,99.875834 286.83418,99.880793 C 287.30751,99.886745 288.21645,99.655629 288.21645,99.655629 L 288.21645,99.655629 z "
     style="fill:#ffffff;fill-rule:evenodd"
     id="_146109424" />
  <path
     d="M 196.52398,431.4013 L 193.77234,435.52766 L 183.45242,424.86756 C 183.45242,424.86756 188.9567,420.398 190.33203,413.17785 C 191.70835,405.95672 181.38943,391.51544 181.38943,391.51544 C 181.38943,391.51544 191.23006,402.45427 194.11666,408.70829 C 200.30762,422.11798 196.52398,431.4013 196.52398,431.4013 L 196.52398,431.4013 z "
     style="fill:#2e2779;fill-rule:evenodd"
     id="_146108936" />
  <path
     d="M 190.67636,392.54802 C 190.67636,392.54802 182.42043,386.70367 181.0451,379.82673 C 179.66977,372.94979 189.30004,370.19921 194.46,372.60658 C 199.61996,375.01197 204.43559,385.67208 204.43559,385.67208 C 204.43559,385.67208 199.62293,378.82688 193.08467,379.48253 C 189.64437,379.82673 189.30004,381.20152 188.9567,384.29629 C 188.61238,387.39106 190.67636,392.54802 190.67636,392.54802 z "
     style="fill:#2e2779;fill-rule:evenodd"
     id="_146108448" />
  <path
     d="M 332.04634,431.4013 L 334.79798,435.52766 L 345.11691,424.86756 C 345.11691,424.86756 339.61361,420.398 338.23829,413.17785 C 336.86197,405.95672 347.18089,391.51544 347.18089,391.51544 C 347.18089,391.51544 337.34026,402.45427 334.45365,408.70829 C 328.2627,422.11798 332.04634,431.4013 332.04634,431.4013 z "
     style="fill:#2e2779;fill-rule:evenodd"
     id="_146107976" />
  <path
     d="M 337.89098,392.54802 C 337.89098,392.54802 346.14592,386.70367 347.52224,379.82673 C 348.89757,372.94979 339.2673,370.19921 334.10734,372.60658 C 328.94838,375.01197 324.13175,385.67208 324.13175,385.67208 C 324.13175,385.67208 328.94441,378.82688 335.48267,379.48253 C 338.92297,379.82673 339.2673,381.20152 339.61064,384.29629 C 339.95496,387.39106 337.89098,392.54802 337.89098,392.54802 z "
     style="fill:#2e2779;fill-rule:evenodd"
     id="_146113936" />
  <path
     d="M 208.90689,434.84324 L 195.14766,423.49574 C 195.14766,423.49574 199.61996,419.71358 191.02069,405.2723 C 182.42043,390.83102 177.94912,388.08044 177.94912,381.5477 C 177.94912,375.01396 186.54839,372.26437 186.54839,372.26437 C 186.54839,372.26437 180.35743,375.35815 182.76475,382.23509 C 185.17207,389.11203 199.61996,397.70796 204.77892,412.14924 C 209.93888,426.59052 208.90689,434.84324 208.90689,434.84324 L 208.90689,434.84324 z "
     style="fill:#ffffff;fill-rule:evenodd"
     id="_146113120" />
  <path
     d="M 319.49374,434.84324 L 333.25198,423.49574 C 333.25198,423.49574 328.78068,419.71358 337.37995,405.2723 C 345.97922,390.83102 350.45052,388.08044 350.45052,381.5477 C 350.45052,375.01396 341.85125,372.26437 341.85125,372.26437 C 341.85125,372.26437 348.0432,375.35815 345.63588,382.23509 C 343.22757,389.11203 328.78068,397.70796 323.62171,412.14924 C 318.46175,426.59052 319.49374,434.84324 319.49374,434.84324 L 319.49374,434.84324 z "
     style="fill:#ffffff;fill-rule:evenodd"
     id="_146120648" />
  <path
     d="M 310.52335,412.58469 C 320.49299,400.28495 323.25059,384.73372 327.03324,380.26515 C 330.81688,375.79459 334.25718,372.69982 334.25718,372.69982 C 334.25718,372.69982 333.51792,372.71867 326.34557,378.20197 C 314.65033,387.1411 310.57396,395.52476 295.73213,408.45833 C 282.31723,420.14903 264.34767,417.57104 264.34767,417.57104 C 264.34767,417.57104 246.11714,419.97742 232.70224,408.28673 C 217.86041,395.35316 213.78305,386.9695 202.0888,378.02938 C 194.91646,372.54707 194.17719,372.52822 194.17719,372.52822 C 194.17719,372.52822 197.6175,375.62299 201.40014,380.09256 C 205.18478,384.56212 207.94138,400.11236 217.91102,412.41309 C 234.07856,432.35552 264.34767,429.94914 264.34767,429.94914 C 264.34767,429.94914 294.3568,432.52712 310.52335,412.58469 L 310.52335,412.58469 z "
     style="fill:#ffffff;fill-rule:evenodd"
     id="_146118632" />
  <path
     d="M 261.56328,596.98152 L 284.95377,589.67409 L 298.25555,581.42236 L 306.51049,586.92351 L 313.39011,589.21186 L 322.56193,578.20955 L 337.69649,580.04657 L 357.87491,578.67178 L 367.04872,571.79484 L 374.38578,563.54211 L 381.2654,565.37517 L 390.89666,562.16732 L 394.10774,550.2455 L 408.32641,548.87071 L 423.46096,546.11914 L 430.79703,525.03303 L 437.67566,525.48931 L 444.55626,525.03303 L 442.72249,514.02973 L 453.73008,511.27915 L 461.52657,504.85948 L 472.53316,499.35833 L 470.69741,481.47808 L 460.60969,473.22635 L 470.24095,462.22305 L 482.62386,445.71859 L 484.91607,424.17322 L 482.16443,408.12802 C 482.16443,408.12802 476.65815,416.38074 470.69741,419.5876 C 464.73766,422.80041 461.52856,421.42165 453.73008,428.29958 C 445.93159,435.17553 437.22019,452.13925 437.22019,452.13925 C 437.22019,452.13925 437.22019,444.34379 431.7159,439.3019 C 426.21261,434.26 420.70932,436.55132 417.49724,435.17553 C 414.28616,433.79975 412.90984,430.13363 412.90984,430.13363 C 412.90984,430.13363 408.32641,436.09206 403.739,438.38537 C 399.1516,440.67768 388.60147,446.17784 384.01705,454.43057 C 379.43163,462.6823 375.30465,481.0218 375.30465,481.0218 C 375.30465,481.0218 376.40412,469.34499 371.17669,463.14156 C 363.83863,454.43057 356.49958,452.59652 354.20637,451.67999 C 351.91515,450.76346 347.78719,446.63809 347.78719,446.63809 C 347.78719,446.63809 344.11667,453.05578 337.23706,455.80635 C 333.31053,457.37755 322.56392,460.39098 316.14175,469.09999 C 309.71959,477.81197 304.67474,494.77568 304.67474,494.77568 C 304.67474,494.77568 306.05304,485.14717 298.25555,476.43618 C 290.45707,467.72519 281.28524,464.97462 274.40562,463.14156 C 267.52601,461.30751 261.56328,453.02899 261.56328,453.02899 L 261.6516,452.98337 C 261.6516,452.98337 255.68887,461.26188 248.80925,463.09692 C 241.93063,464.93097 232.7588,467.68254 224.96032,476.39056 C 217.16084,485.10254 218.54014,494.72906 218.54014,494.72906 C 218.54014,494.72906 213.49628,477.76535 207.07312,469.05733 C 200.64997,460.34833 189.90435,457.33192 185.97782,455.76073 C 179.0992,453.00916 175.42769,446.59246 175.42769,446.59246 C 175.42769,446.59246 171.29972,450.71883 169.0085,451.63436 C 166.71629,452.55288 159.37625,454.38494 152.03819,463.09692 C 146.81076,469.29837 147.91022,480.97617 147.91022,480.97617 C 147.91022,480.97617 143.78226,462.63767 139.19783,454.38494 C 134.61341,446.13321 124.06327,440.63106 119.47686,438.34073 C 114.88946,436.04842 110.30405,430.08801 110.30405,430.08801 C 110.30405,430.08801 108.92872,433.75511 105.71764,435.1299 C 102.50655,436.50569 97.002267,434.21437 91.498972,439.25627 C 85.995677,444.30114 85.995677,452.09362 85.995677,452.09362 C 85.995677,452.09362 77.283285,435.1299 69.484801,428.25296 C 61.686317,421.37702 58.477219,422.75478 52.517467,419.54396 C 46.556722,416.33412 41.051442,408.08239 41.051442,408.08239 L 38.298803,424.12759 L 40.592008,445.67594 L 52.974917,462.18039 L 62.605186,473.1837 L 52.517467,481.43543 L 50.681712,499.31468 L 61.689294,504.81683 L 69.484801,511.23352 L 80.492382,513.98509 L 78.659605,524.9874 L 85.538227,525.44666 L 92.417841,524.9874 L 99.753914,546.07649 L 114.88946,548.82806 L 129.10813,550.20285 L 132.31921,562.12467 L 141.95047,565.33152 L 148.82909,563.49946 L 156.16517,571.75119 L 165.33997,578.62913 L 185.51839,580.00392 L 200.65393,578.1659 L 209.82477,589.1692 L 216.70438,586.88086 L 224.96032,581.3797 L 238.2621,589.63144 L 261.6516,596.93788 L 261.56328,596.98152 L 261.56328,596.98152 z "
     style="fill:#ffffff;fill-rule:evenodd"
     id="_146147032" />
  <path
     d="M 260.95798,599.82831 C 260.95798,599.82831 253.73503,596.04515 250.63905,595.35776 C 247.54308,594.67036 243.4161,593.63976 236.87982,592.60817 C 230.34454,591.57658 219.33795,584.01125 219.33795,584.01125 C 219.33795,584.01125 217.27396,586.41863 214.86565,587.45022 C 212.45833,588.48181 208.67469,589.8566 208.67469,589.8566 C 208.67469,589.8566 205.23439,586.07443 202.82707,583.66706 C 200.41876,581.26067 198.01144,579.19848 198.01144,579.19848 C 198.01144,579.19848 192.50815,580.23007 184.25221,580.57328 C 175.99727,580.91747 159.48639,580.57328 159.48639,580.57328 C 159.48639,580.57328 159.14306,578.16689 158.45539,577.1353 C 157.76674,576.10371 156.04708,575.75952 153.63877,573.35214 C 151.23145,570.94576 146.41582,565.10041 146.41582,565.10041 C 146.41582,565.10041 142.28785,565.4446 139.88053,565.4446 C 137.47222,565.4446 132.65659,564.75721 132.65659,564.75721 C 132.65659,564.75721 131.28126,560.97405 130.24927,558.91086 C 129.21728,556.84768 127.84096,553.06651 127.84096,553.06651 C 127.84096,553.06651 122.33767,554.0981 117.86636,553.40971 C 113.39407,552.72231 110.64242,548.94014 105.82679,548.25275 C 101.01116,547.56436 96.884183,547.56436 96.884183,547.56436 C 96.884183,547.56436 96.539855,544.81378 96.196519,543.43899 C 95.852191,542.0632 93.788208,540.34422 92.411888,537.24944 C 91.03656,534.15467 89.315912,526.59034 89.315912,526.59034 C 89.315912,526.59034 85.876601,526.93453 82.43729,526.93453 C 78.996987,526.93453 75.213348,525.90294 75.213348,525.90294 C 75.213348,525.90294 74.86902,521.77658 74.86902,520.40079 C 74.86902,519.02699 75.901011,514.21224 75.901011,514.21224 C 75.901011,514.21224 70.398709,514.21224 67.646069,513.52484 C 64.894422,512.83745 56.295152,505.6173 53.199176,502.52253 C 50.103201,499.42776 45.631898,500.45935 45.631898,500.45935 C 45.631898,500.45935 45.631898,490.14444 47.695882,483.2665 C 49.759865,476.39056 59.391127,469.85781 59.391127,469.85781 C 59.391127,469.85781 48.383546,469.17041 38.408948,443.03844 C 28.433358,416.90646 40.816267,409.68532 40.816267,409.68532 C 40.816267,409.68532 42.880251,417.25065 47.008218,421.72022 C 51.135193,426.18978 63.86243,425.50239 72.118364,435.8173 C 80.373307,446.13222 79.685643,455.07234 82.092962,460.57349 C 84.501274,466.07564 88.283921,468.48202 88.283921,468.48202 C 88.283921,468.48202 88.628249,466.76304 87.596257,464.69986 C 86.564265,462.63667 85.532273,453.35335 85.532273,453.35335 C 85.532273,453.35335 87.251929,458.51031 90.004568,464.35566 C 92.756216,470.20101 95.507863,473.63998 95.507863,473.63998 C 95.507863,473.63998 85.704933,450.23973 95.507863,440.63106 C 100.07046,436.15852 110.98675,436.5047 110.98675,436.5047 C 110.98675,436.5047 116.14571,444.07003 120.96234,447.16381 C 125.77698,450.25858 129.90494,452.32176 134.72057,460.57349 C 139.53621,468.82622 142.28785,497.36458 145.04049,501.83414 C 147.79115,506.3047 151.57479,507.67949 151.57479,507.67949 C 151.57479,507.67949 148.13548,499.77096 147.44682,497.70778 C 146.76015,495.6446 143.31984,480.86012 144.69616,481.54851 C 146.07248,482.23591 146.76015,490.83183 149.5108,497.02038 C 152.26344,503.20993 159.48639,510.43007 159.48639,510.43007 C 159.48639,510.43007 150.54279,491.17603 151.57479,475.01477 C 152.60678,458.85451 172.21264,455.41653 172.21264,455.41653 C 172.21264,455.41653 184.6531,465.44379 185.97187,467.10723 C 187.12293,468.55741 188.72351,472.60839 188.72351,472.60839 L 188.38018,464.01246 C 188.38018,464.01246 202.13841,475.70316 206.26638,484.64229 C 210.39435,493.58241 209.36236,510.77427 213.146,521.08918 C 216.92964,531.40509 221.74527,530.0293 221.74527,530.0293 C 221.74527,530.0293 218.99362,524.52715 216.5863,515.93222 C 214.17799,507.3353 217.27396,498.05198 217.27396,498.05198 C 217.27396,498.05198 216.5863,505.27311 218.99362,514.55643 C 221.40193,523.83976 230.0012,528.65352 230.0012,528.65352 C 230.0012,528.65352 222.77726,514.55643 222.0886,502.86573 C 221.40193,491.17603 226.90523,480.51692 231.37653,475.35896 C 235.84783,470.20101 249.26273,467.10723 252.35871,466.41884 C 255.45468,465.73145 260.95798,457.82292 260.95798,457.82292 L 261.25368,457.99551 C 261.25368,457.99551 266.75698,465.90305 269.85196,466.59044 C 272.94794,467.27883 286.36284,470.3736 290.83513,475.53156 C 295.30644,480.68852 300.80973,491.34664 300.12207,503.03734 C 299.4344,514.72804 292.21145,528.82512 292.21145,528.82512 C 292.21145,528.82512 300.80973,524.01235 303.21804,514.72804 C 305.62635,505.44471 304.9377,498.22457 304.9377,498.22457 C 304.9377,498.22457 308.03367,507.50789 305.62635,516.10382 C 303.21804,524.69975 300.46639,530.2009 300.46639,530.2009 C 300.46639,530.2009 305.28203,531.57669 309.06566,521.26177 C 312.8493,510.94587 311.81731,493.75401 315.94528,484.81488 C 320.07225,475.87476 333.83148,464.18406 333.83148,464.18406 L 333.48715,472.77999 C 333.48715,472.77999 335.55114,468.99782 336.2388,467.27883 C 336.92746,465.55885 349.99803,455.58813 349.99803,455.58813 C 349.99803,455.58813 369.60389,459.0271 370.63588,475.18736 C 371.66787,491.34664 362.72527,510.60266 362.72527,510.60266 C 362.72527,510.60266 369.94822,503.38153 372.69987,497.19298 C 375.45151,491.00343 376.14017,482.40751 377.5155,481.72011 C 378.89182,481.03172 375.45151,495.81719 374.76385,497.88037 C 374.07619,499.94356 370.63588,507.85109 370.63588,507.85109 C 370.63588,507.85109 374.41952,506.4763 377.17216,502.00574 C 379.92381,497.53618 382.67546,468.99782 387.49109,460.74609 C 392.30672,452.49336 396.43369,450.43117 401.24932,447.3364 C 406.06495,444.24163 411.22491,436.67729 411.22491,436.67729 C 411.22491,436.67729 422.47362,436.7983 426.7038,440.80266 C 434.86745,448.53364 426.7038,473.81158 426.7038,473.81158 C 426.7038,473.81158 429.45545,470.3736 432.20709,464.52726 C 434.95874,458.6829 436.6784,453.52495 436.6784,453.52495 C 436.6784,453.52495 435.6464,462.80927 434.61441,464.87146 C 433.58242,466.93464 433.92675,468.65363 433.92675,468.65363 C 433.92675,468.65363 437.71039,466.24724 440.1187,460.74609 C 442.52701,455.24394 441.83835,446.30481 450.0933,435.98989 C 458.34824,425.67498 471.07548,426.36238 475.20344,421.89182 C 479.33141,417.42225 481.3944,409.85792 481.3944,409.85792 C 481.3944,409.85792 493.77731,417.07806 483.80271,443.21004 C 473.82712,469.34201 462.82053,470.02941 462.82053,470.02941 C 462.82053,470.02941 472.4518,476.56216 474.51578,483.4391 C 476.57976,490.31604 476.57976,500.63095 476.57976,500.63095 C 476.57976,500.63095 472.10747,499.59936 469.01149,502.69413 C 465.91651,505.78891 457.31625,513.00905 454.56559,513.69644 C 451.81394,514.38384 446.30966,514.38384 446.30966,514.38384 C 446.30966,514.38384 447.34165,519.19859 447.34165,520.57339 C 447.34165,521.94917 446.99732,526.07454 446.99732,526.07454 C 446.99732,526.07454 443.21368,527.10613 439.77437,527.10613 C 436.33506,527.10613 432.89476,526.76194 432.89476,526.76194 C 432.89476,526.76194 431.1751,534.32727 429.79977,537.42204 C 428.42345,540.51582 426.35947,542.23481 426.01613,543.61059 C 425.67181,544.98637 425.32748,547.73695 425.32748,547.73695 C 425.32748,547.73695 421.19951,547.73695 416.38487,548.42435 C 411.56924,549.11274 408.8166,552.89391 404.3453,553.58131 C 399.874,554.2697 394.36971,553.23811 394.36971,553.23811 C 394.36971,553.23811 392.99438,557.02028 391.96239,559.08346 C 390.9304,561.14664 389.55507,564.92782 389.55507,564.92782 C 389.55507,564.92782 384.73845,565.6162 382.33113,565.6162 C 379.92381,565.6162 375.79584,565.27201 375.79584,565.27201 C 375.79584,565.27201 370.98021,571.11736 368.57289,573.52474 C 366.16458,575.93112 364.44492,576.27531 363.75726,577.30591 C 363.0686,578.3375 362.72527,580.74488 362.72527,580.74488 C 362.72527,580.74488 346.21439,581.08907 337.95945,580.74488 C 329.70451,580.40068 324.20022,579.36909 324.20022,579.36909 C 324.20022,579.36909 321.79191,581.43227 319.38459,583.83965 C 316.97727,586.24703 313.53697,590.0282 313.53697,590.0282 C 313.53697,590.0282 309.75333,588.65341 307.34502,587.62182 C 304.9377,586.59023 302.87371,584.18384 302.87371,584.18384 C 302.87371,584.18384 291.86712,591.74818 285.33085,592.77878 C 278.79655,593.81037 274.66858,594.84196 271.57261,595.53035 C 268.47763,596.21775 261.25368,599.99991 261.25368,599.99991 L 260.95798,599.82831 M 40.841075,422.71709 C 40.841075,422.71709 36.358857,435.51973 43.401208,446.08163 C 50.445545,456.64155 56.848855,458.87831 59.729501,459.52107 C 62.610148,460.16284 72.83282,460.0825 71.255064,450.23973 C 69.973012,442.24094 64.851753,442.55736 62.290627,443.51852 C 59.729501,444.48068 55.886324,447.99999 55.886324,447.99999 C 55.886324,447.99999 57.487896,438.71567 55.566804,434.55856 C 53.645711,430.39947 51.081609,427.83735 47.241408,427.19757 C 43.401208,426.55778 40.841075,422.71709 40.841075,422.71709 M 474.91568,426.0767 C 471.07548,426.71946 468.51237,429.27662 466.59028,433.4377 C 464.66919,437.59878 466.27076,446.87913 466.27076,446.87913 C 466.27076,446.87913 462.42858,443.35783 459.86745,442.39865 C 457.30632,441.44046 452.18407,441.1171 450.90301,449.11986 C 449.32526,458.96163 459.54793,459.03999 462.42858,458.40021 C 465.30922,457.76142 471.71253,455.52068 478.75588,444.95878 C 485.79922,434.39886 481.317,421.59722 481.317,421.59722 C 481.317,421.59722 478.75588,425.43494 474.91568,426.0767 M 140.45309,502.75067 C 140.45309,502.75067 135.80913,493.46636 134.60448,485.04302 C 133.40082,476.6187 133.05748,465.78799 129.10217,461.49002 C 125.14587,457.19206 123.94221,458.05106 123.08189,458.39525 C 122.22157,458.73944 120.67457,460.80263 120.67457,460.80263 C 120.67457,460.80263 119.98591,458.05106 120.15758,455.81627 C 120.33024,453.58149 120.15758,451.8625 120.15758,451.8625 C 120.15758,451.8625 116.5466,450.83091 114.13829,448.76773 C 111.73097,446.70455 110.01132,443.78237 110.01132,443.78237 C 110.01132,443.78237 104.67969,443.09497 103.30337,445.15816 C 101.92804,447.22134 104.16369,451.8625 104.16369,451.8625 C 104.16369,451.8625 101.41205,449.79932 99.519731,450.14352 C 97.628408,450.48672 94.87676,454.95728 96.252088,463.20901 C 97.628408,471.46074 102.61571,478.68188 105.36735,480.91666 C 108.119,483.15144 112.5913,484.01143 114.31095,482.80725 C 116.03061,481.60406 115.34294,477.82189 115.34294,477.82189 C 115.34294,477.82189 119.73883,485.94864 123.42622,489.85579 C 129.10217,495.87373 140.45309,502.75067 140.45309,502.75067 M 399.20419,488.0515 C 402.89158,484.14336 407.28846,476.0166 407.28846,476.0166 C 407.28846,476.0166 406.5998,479.79976 408.32045,481.00296 C 410.04011,482.20516 414.51141,481.34616 417.26306,479.11138 C 420.01471,476.87659 425.002,469.65546 426.37832,461.40373 C 427.75464,453.151 425.002,448.68243 423.11068,448.33823 C 421.21936,447.99404 418.46771,450.05722 418.46771,450.05722 C 418.46771,450.05722 420.70336,445.41506 419.32704,443.35287 C 417.95072,441.28969 412.61909,441.97709 412.61909,441.97709 C 412.61909,441.97709 410.89944,444.89927 408.49212,446.96245 C 406.0848,449.02563 402.47283,450.05722 402.47283,450.05722 C 402.47283,450.05722 402.30017,451.77621 402.47283,454.01198 C 402.6445,456.24577 401.95683,458.99734 401.95683,458.99734 C 401.95683,458.99734 400.40885,456.93416 399.54852,456.58997 C 398.68919,456.24577 397.48553,455.38677 393.52923,459.68474 C 389.57392,463.9827 389.2296,474.81341 388.02594,483.23675 C 386.82128,491.66107 382.17831,500.9444 382.17831,500.9444 C 382.17831,500.9444 393.52923,494.06845 399.20419,488.0515 M 212.85922,530.25744 C 212.85922,530.25744 207.51073,520.71126 206.32294,513.75298 C 205.11928,506.70444 204.73725,492.97833 201.16298,485.55882 C 198.92733,480.91666 196.17569,479.36927 194.11269,479.36927 C 192.04871,479.36927 192.04871,484.87043 192.04871,484.87043 C 192.04871,484.87043 191.01672,480.74407 189.98473,478.50928 C 189.01426,476.4094 186.2001,472.49233 184.1371,470.42915 C 182.07312,468.36597 173.12952,461.49002 173.12952,461.49002 C 173.12952,461.49002 166.7659,463.20901 165.90657,467.50697 C 165.04625,471.80494 166.2509,477.82189 166.2509,477.82189 C 166.2509,477.82189 163.15493,471.97753 160.05895,474.55551 C 156.96397,477.13449 154.55565,489.68518 162.46627,504.81385 C 170.37788,519.94154 171.7532,517.01936 171.7532,517.01936 C 171.7532,517.01936 175.19351,517.36355 177.25749,514.61297 C 179.32147,511.8614 181.04113,508.76762 181.04113,508.76762 C 181.04113,508.76762 186.71708,520.62992 197.38034,525.61528 C 208.0426,530.60064 212.85922,530.25744 212.85922,530.25744 M 326.16696,524.29901 C 336.83021,519.31365 342.50617,507.45135 342.50617,507.45135 C 342.50617,507.45135 344.22582,510.54513 346.28981,513.2967 C 348.35379,516.04728 351.79409,515.70309 351.79409,515.70309 C 351.79409,515.70309 353.16843,518.62626 361.08103,503.49659 C 368.99164,488.36891 366.58333,475.81822 363.48835,473.23924 C 360.39237,470.66126 357.2964,476.50562 357.2964,476.50562 C 357.2964,476.50562 358.50105,470.48867 357.64072,466.1907 C 356.78139,461.89274 350.41777,460.17375 350.41777,460.17375 C 350.41777,460.17375 341.47418,467.0497 339.41118,469.11288 C 337.3472,471.17606 334.53304,475.09313 333.56257,477.19401 C 332.53058,479.4278 331.49859,483.55416 331.49859,483.55416 C 331.49859,483.55416 331.49859,478.054 329.4346,478.054 C 327.37161,478.054 324.61996,479.60039 322.38332,484.24255 C 318.80906,491.65909 318.42801,505.38817 317.22435,512.43671 C 316.03657,519.39102 310.68807,528.94117 310.68807,528.94117 C 310.68807,528.94117 315.5047,529.28437 326.16696,524.29901 M 261.7022,517.01936 C 261.7022,517.01936 262.39086,524.2395 265.83017,528.02266 C 269.26948,531.80483 274.42944,535.24379 279.93273,532.49222 C 285.43702,529.74165 294.95715,517.36058 295.41162,503.26647 C 295.75595,492.60736 292.65997,484.35563 288.87534,482.63565 C 285.09269,480.91666 282.34105,484.69883 281.30905,488.481 C 280.27706,492.26316 284.74837,480.91666 279.93273,475.75871 C 276.14116,471.69682 271.33346,473.69652 267.54983,470.60174 C 264.71979,468.28563 261.7022,465.78799 261.7022,465.78799 L 261.87387,465.95959 C 261.87387,465.95959 258.85629,468.45822 256.02724,470.77335 C 252.2436,473.86812 247.43492,471.86941 243.64433,475.9313 C 238.8287,481.08826 243.3,492.43576 242.26801,488.65359 C 241.23602,484.87043 238.48437,481.08826 234.70073,482.80725 C 230.91709,484.52723 227.82112,492.77896 228.16545,503.43807 C 228.61893,517.53218 238.14004,529.91325 243.64433,532.66383 C 249.14763,535.4144 254.30758,531.97643 257.7459,528.19426 C 261.18621,524.41209 261.87387,517.19195 261.87387,517.19195 L 261.7022,517.01936 M 112.93463,492.77896 C 112.93463,492.77896 97.321787,483.34784 90.748793,480.74407 C 81.633527,477.13449 69.113681,475.87774 64.090659,478.85348 C 59.447688,481.60406 56.007385,488.99679 60.47968,493.63895 C 62.081252,495.29842 65.811307,496.21693 68.734622,498.62431 C 71.657937,501.03169 74.753913,503.95386 81.117531,502.23488 C 87.48115,500.5149 91.952453,493.81055 97.628408,493.29476 C 103.30337,492.77896 112.93463,492.77896 112.93463,492.77896 M 85.417166,476.96289 L 84.040847,473.52392 C 84.040847,473.52392 79.569544,470.94594 71.486269,471.97753 C 63.402995,473.00912 55.322698,478.29999 54.803725,484.52723 C 54.46039,488.65359 54.975393,490.02838 55.663057,493.29476 C 56.351713,496.56113 56.351713,498.45271 56.351713,498.45271 C 56.351713,498.45271 58.071369,497.24852 62.543664,500.85909 C 67.014967,504.46966 73.377593,509.62662 78.88188,509.28342 C 84.385175,508.93922 93.673101,500.5149 98.144404,498.9685 C 102.61571,497.42112 104.33536,498.9685 104.33536,498.9685 L 104.50703,496.21693 C 104.50703,496.21693 99.692391,494.67054 95.736092,496.38953 C 91.780785,498.10851 84.385175,507.04864 78.021556,506.36025 C 71.657937,505.67285 67.70263,501.20329 64.606655,498.79591 C 61.511672,496.38953 59.791024,496.21693 59.791024,496.21693 C 59.791024,496.21693 58.78384,493.70243 57.72704,491.05997 C 56.007385,486.76201 57.72704,481.43245 60.30702,479.19767 C 63.252166,476.64548 66.351118,475.24886 71.830598,474.72712 C 79.053548,474.03972 85.417166,476.96289 85.417166,476.96289 M 425.26099,493.12216 C 430.93596,493.63895 435.40825,500.3433 441.77187,502.06328 C 448.13549,503.78226 451.23047,500.85909 454.15478,498.45271 C 457.07809,496.04533 460.80815,495.12682 462.40972,493.46636 C 466.88102,488.82519 463.44171,481.43245 458.79775,478.68188 C 453.77572,475.70613 441.25488,476.96289 432.13962,480.57247 C 425.56761,483.17525 409.95378,492.60736 409.95378,492.60736 C 409.95378,492.60736 419.58504,492.60736 425.26099,493.12216 M 451.0588,474.55551 C 456.53729,475.07627 459.63624,476.47388 462.58139,479.02607 C 465.16137,481.26085 466.88102,486.59041 465.16137,490.88738 C 464.10556,493.53083 463.09739,496.04533 463.09739,496.04533 C 463.09739,496.04533 461.37773,496.21693 458.28175,498.62431 C 455.18578,501.03169 451.23047,505.50026 444.86685,506.18865 C 438.50324,506.87604 431.10762,497.93691 427.15232,496.21693 C 423.19701,494.49795 418.38039,496.04533 418.38039,496.04533 L 418.55305,498.79591 C 418.55305,498.79591 420.2727,497.24852 424.74401,498.79591 C 429.2163,500.3433 438.50324,508.76762 444.00752,509.11182 C 449.50982,509.45502 455.87344,504.29806 460.34574,500.68749 C 464.81704,497.07692 466.53769,498.28012 466.53769,498.28012 C 466.53769,498.28012 466.53769,496.38953 467.22436,493.12216 C 467.91302,489.85579 468.42901,488.481 468.08468,484.35563 C 467.5667,478.12839 459.48641,472.83653 451.40214,471.80494 C 443.31887,470.77335 438.84756,473.35232 438.84756,473.35232 L 437.47124,476.7903 C 437.47124,476.7903 443.83486,473.86812 451.0588,474.55551 M 91.780785,511.8614 C 91.780785,511.8614 85.589827,512.034 82.493851,515.47296 C 79.397876,518.90995 80.429868,522.17731 80.429868,522.17731 C 80.429868,522.17731 85.245499,523.03631 87.652818,520.97313 C 90.060137,518.90995 90.232797,518.05095 90.748793,516.33196 C 91.264789,514.61297 91.780785,511.8614 91.780785,511.8614 M 432.82728,516.58986 C 433.34427,518.30885 433.51594,519.16883 435.92326,521.23202 C 438.33157,523.2952 443.1472,522.43521 443.1472,522.43521 C 443.1472,522.43521 444.1782,519.16883 441.08321,515.72987 C 437.98724,512.2909 431.79529,512.1193 431.79529,512.1193 C 431.79529,512.1193 432.31228,514.87087 432.82728,516.58986 M 158.51096,518.90995 C 158.51096,518.90995 140.28043,506.36025 125.31754,507.73603 C 110.35564,509.11182 100.69164,513.54171 100.38006,521.31732 C 100.20739,525.61528 102.61571,528.02266 103.6477,530.25744 C 104.38398,531.84748 104.16369,535.24379 104.16369,535.24379 C 104.16369,535.24379 107.77467,534.55541 110.69898,535.9302 C 113.62329,537.30598 119.64258,543.32293 124.97421,541.60395 C 130.30484,539.88496 139.54911,530.43995 144.4084,526.64688 C 149.91169,522.34891 158.51096,518.90995 158.51096,518.90995 M 101.75538,509.62662 C 98.184096,511.96952 94.87676,516.16036 95.564424,521.83312 C 96.064543,525.95948 98.487739,530.94484 99.864059,533.18061 C 101.23939,535.4144 101.06871,541.08815 101.06871,541.08815 C 101.06871,541.08815 104.85136,539.88496 107.25967,540.74396 C 109.66699,541.60395 115.85795,547.4493 123.59789,546.5903 C 131.33683,545.73031 145.26773,531.97643 148.53636,528.88265 C 151.80401,525.78788 158.3383,522.86471 158.3383,522.86471 C 158.3383,522.86471 151.63135,523.03631 147.84771,526.30268 C 144.06407,529.57005 131.85382,542.46394 123.25356,543.83873 C 118.22359,544.64416 110.18298,539.02497 107.43134,537.82178 C 104.67969,536.6176 102.61571,538.50918 102.61571,538.50918 C 102.61571,538.50918 102.09971,533.18061 101.58371,531.80483 C 101.06871,530.42904 99.404624,528.21906 99.004728,526.13108 C 98.144404,521.66151 97.134242,516.94893 100.38006,513.58138 C 104.85136,508.93922 120.15758,506.18865 120.15758,506.18865 C 120.15758,506.18865 107.25967,506.01705 101.75538,509.62662 M 379.16867,525.78788 C 384.02697,529.57997 393.27123,539.02497 398.60286,540.74396 C 403.93449,542.46394 409.95378,536.44599 412.87808,535.0712 C 415.8014,533.69542 419.41238,534.38281 419.41238,534.38281 C 419.41238,534.38281 419.19308,530.98749 419.92937,529.39745 C 420.96136,527.16267 423.36868,524.75629 423.19701,520.45832 C 422.88444,512.68072 413.22142,508.25183 398.25952,506.87604 C 383.29564,505.50026 365.0661,518.05095 365.0661,518.05095 C 365.0661,518.05095 373.66438,521.48991 379.16867,525.78788 M 403.41849,505.32965 C 403.41849,505.32965 418.72472,508.08023 423.19701,512.72139 C 426.44282,516.08993 425.43266,520.80252 424.57234,525.27109 C 424.17244,527.35907 422.50835,529.57005 421.99335,530.94484 C 421.47636,532.32062 420.96136,537.64919 420.96136,537.64919 C 420.96136,537.64919 418.89738,535.7586 416.14573,536.96179 C 413.39309,538.16597 405.35348,543.78517 400.32252,542.97874 C 391.72325,541.60395 379.513,528.71006 375.72837,525.44368 C 371.94473,522.17731 365.23777,522.00472 365.23777,522.00472 C 365.23777,522.00472 371.77306,524.92789 375.0407,528.02266 C 378.30834,531.11743 392.23924,544.87032 399.97819,545.73031 C 407.71813,546.5903 413.91008,540.74396 416.3174,539.88496 C 418.72472,539.02497 422.50835,540.22915 422.50835,540.22915 C 422.50835,540.22915 422.33669,534.55541 423.71201,532.32062 C 425.08833,530.08584 427.51252,525.09949 428.01264,520.97313 C 428.70031,515.30037 425.39297,511.11052 421.82069,508.76762 C 416.3174,505.15706 403.41849,505.32965 403.41849,505.32965 M 218.38335,537.20382 C 218.38335,537.20382 194.95317,529.0969 182.41646,531.28903 C 169.01247,533.63193 158.3383,540.91655 156.61964,551.57566 C 154.89998,562.23477 159.48342,560.68639 162.46627,564.64115 C 164.78329,567.71113 165.11372,570.10263 165.11372,570.10263 C 165.11372,570.10263 167.56371,568.78537 174.09999,569.12956 C 180.63528,569.47376 183.30357,571.83551 191.01672,568.07913 C 198.22875,564.56874 202.71097,551.57566 207.5266,546.7619 C 212.34223,541.94814 218.38335,537.20382 218.38335,537.20382 M 184.16985,528.43629 C 184.16985,528.43629 171.06852,528.97887 163.27301,533.19648 C 155.48246,537.41311 148.33195,546.18659 149.84719,556.24956 C 151.36343,566.31451 159.37922,569.45194 160.78531,571.83551 C 162.18942,574.21709 163.05768,576.16521 163.05768,576.16521 C 163.05768,576.16521 167.38708,574.86481 172.25928,575.62263 C 177.13147,576.38046 187.85327,578.22046 192.9398,574.86481 C 198.02732,571.51016 207.23387,557.54996 211.56328,552.46243 C 215.89268,547.37391 224.55348,539.69154 224.55348,539.69154 C 224.55348,539.69154 216.97528,542.28936 212.42856,546.61609 C 207.88185,550.94679 195.86113,570.97254 190.44912,572.37808 C 185.03712,573.78164 177.02331,572.26699 173.23471,572.15986 C 169.44511,572.05273 164.35561,572.91768 164.35561,572.91768 C 164.35561,572.91768 163.16782,569.67016 160.0272,566.63986 C 156.88557,563.60956 153.89974,561.92033 152.98881,556.24956 C 151.58074,547.48401 157.75284,539.25906 165.33104,534.82124 C 172.90923,530.38342 184.16985,528.43629 184.16985,528.43629 M 316.0068,547.25587 C 320.82243,552.06963 325.30465,565.05974 332.51768,568.5731 C 340.22983,572.32849 342.89813,569.96575 349.43341,569.62155 C 355.9687,569.27736 358.41968,570.59363 358.41968,570.59363 C 358.41968,570.59363 358.75111,568.20312 361.06714,565.13612 C 364.04999,561.18136 368.63441,562.72874 366.91476,552.06963 C 365.19411,541.41052 354.52093,534.12492 341.11695,531.78301 C 328.58122,529.59088 305.15005,537.69581 305.15005,537.69581 C 305.15005,537.69581 311.19117,542.44212 316.0068,547.25587 M 358.20237,535.31224 C 365.78056,539.75105 371.95266,547.97501 370.54459,556.74353 C 369.63465,562.41133 366.64882,564.10453 363.5072,567.13383 C 360.36558,570.16413 359.1778,573.40868 359.1778,573.40868 C 359.1778,573.40868 354.0873,572.54373 350.2987,572.65185 C 346.5101,572.75898 338.49628,574.27363 333.08428,572.87106 C 327.67228,571.46354 315.65156,551.44175 311.10484,547.11105 C 306.55812,542.78036 298.97993,540.1865 298.97993,540.1865 C 298.97993,540.1865 307.64072,547.86789 311.97112,552.9564 C 316.29953,558.04393 325.50609,572.00116 330.59361,575.35978 C 335.68014,578.71145 346.40293,576.87443 351.27512,576.11661 C 356.14632,575.35978 360.47572,576.65918 360.47572,576.65918 C 360.47572,576.65918 361.34399,574.70908 362.74908,572.32849 C 364.15517,569.94393 372.16998,566.80551 373.6872,556.74353 C 375.20245,546.68156 368.05094,537.90808 360.2604,533.69046 C 352.46489,529.46986 339.36455,528.93026 339.36455,528.93026 C 339.36455,528.93026 350.62417,530.8754 358.20237,535.31224 M 142.7453,545.61723 C 142.7453,545.61723 140.88474,546.85812 138.40697,548.09603 C 135.93019,549.33493 133.86422,549.95487 133.86422,549.95487 C 133.86422,549.95487 134.6918,553.05262 137.16858,555.94306 C 139.64635,558.8335 144.60487,558.41987 144.60487,558.41987 C 144.60487,558.41987 144.39748,554.91147 144.39748,552.22536 C 144.39748,549.54224 144.81127,543.55405 144.81127,543.55405 L 142.7453,545.61723 M 130.97266,551.81174 C 130.97266,551.81174 132.00663,555.3251 132.83223,558.00624 C 133.65584,560.68937 135.30901,561.72393 135.30901,561.72393 C 135.30901,561.72393 136.96218,562.34388 139.85374,562.13756 C 142.7453,561.93025 144.19009,561.51662 144.19009,561.51662 L 144.19009,560.0724 C 144.19009,560.0724 138.61436,559.45146 136.5474,558.00624 C 134.48143,556.56102 132.21105,551.6074 132.21105,551.6074 L 130.97266,551.81174 M 376.88142,542.5175 C 376.88142,542.5175 377.29521,548.50767 377.29521,551.19377 C 377.29521,553.87988 377.08881,557.38828 377.08881,557.38828 C 377.08881,557.38828 382.04634,557.80191 384.52411,554.91147 C 387.00188,552.02103 387.82946,548.9213 387.82946,548.9213 C 387.82946,548.9213 385.76349,548.30334 383.28473,547.06245 C 380.80795,545.82157 378.94838,544.58564 378.94838,544.58564 L 376.88142,542.5175 M 389.48263,550.57085 C 389.48263,550.57085 387.21126,555.52943 385.14529,556.97465 C 383.07833,558.41987 377.5026,559.03783 377.5026,559.03783 L 377.5026,560.48305 C 377.5026,560.48305 378.94838,560.89668 381.83994,561.10597 C 384.7315,561.31031 386.38368,560.69234 386.38368,560.69234 C 386.38368,560.69234 388.03685,559.65579 388.86145,556.97465 C 389.68705,554.28855 390.72102,550.78015 390.72102,550.78015 L 389.48263,550.57085 M 216.69347,558.41987 C 216.69347,558.41987 212.35613,561.72691 210.28917,565.64894 C 208.2232,569.56997 206.77742,571.84245 206.77742,571.84245 C 206.77742,571.84245 206.98381,573.90861 211.52855,576.38542 C 216.07229,578.86223 217.51807,576.79607 217.51807,576.79607 C 217.51807,576.79607 215.86787,572.46041 215.66148,568.95003 C 215.45508,565.43865 216.69347,558.41987 216.69347,558.41987 M 204.09325,575.35085 C 204.09325,575.35085 204.09325,578.86223 205.74542,581.13172 C 207.3976,583.40122 209.87538,585.47036 209.87538,585.47036 C 209.87538,585.47036 212.14874,585.26305 214.42011,584.22848 C 216.69049,583.19491 218.75944,580.92739 218.75944,580.92739 L 217.72546,579.27585 C 217.72546,579.27585 213.59749,580.10311 211.11674,579.06854 C 208.63699,578.03497 205.33164,573.90563 205.33164,573.90563 L 204.09325,575.35085 M 306.75162,568.12476 C 306.54522,571.63613 305.414,575.55717 305.414,575.55717 C 305.414,575.55717 306.85978,577.62332 311.40352,575.14651 C 315.94726,572.66971 316.15465,570.60454 316.15465,570.60454 C 316.15465,570.60454 314.70887,568.33207 312.64291,564.41004 C 310.57495,560.48801 306.2386,557.18394 306.2386,557.18394 C 306.95802,564.40706 306.92825,565.09743 306.75162,568.12476 M 317.60044,572.66772 C 317.60044,572.66772 314.29508,576.79607 311.81533,577.83063 C 309.33458,578.86421 305.20661,578.03695 305.20661,578.03695 L 304.17164,579.68948 C 304.17164,579.68948 306.24059,581.957 308.51196,582.99057 C 310.78334,584.02514 313.0557,584.23146 313.0557,584.23146 C 313.0557,584.23146 315.53447,582.16332 317.18665,579.89382 C 318.83883,577.62332 318.83883,574.11294 318.83883,574.11294 L 317.60044,572.66772 M 234.58463,555.83593 C 232.31127,560.17159 229.19148,568.24577 232.93245,573.17757 C 237.4762,579.16873 241.39975,576.89824 248.83505,579.16873 C 256.27135,581.43823 262.46826,584.53498 262.46826,584.53498 C 262.46826,584.53498 267.96858,581.43823 275.40487,579.16873 C 282.84117,576.89824 286.76373,579.16873 291.30747,573.17757 C 295.04844,568.24577 291.92865,560.17159 289.65529,555.83593 C 283.19045,543.49751 262.05645,538.49132 262.05645,538.49132 C 262.05645,538.49132 241.05046,543.49751 234.58463,555.83593 M 262.10309,588.6911 C 262.10309,588.6911 260.95798,586.64677 257.05824,584.35247 C 253.15949,582.05916 240.32013,582.06115 235.5035,578.62218 C 230.68886,575.1852 226.78913,570.37045 229.54177,559.82739 C 232.29242,549.28434 245.13576,539.4257 245.13576,539.4257 C 245.13576,539.4257 239.40126,541.48789 233.20931,547.44632 C 227.58495,552.86217 221.28583,566.47322 227.93722,576.55999 C 234.58761,586.64677 251.78417,585.50011 256.14235,587.33416 C 260.50152,589.1692 262.10309,592.35722 262.10309,592.35722 L 262.09515,592.52683 C 262.09515,592.52683 263.69673,589.33882 268.05491,587.50378 C 272.41408,585.66874 289.60964,586.81638 296.26103,576.72862 C 302.91142,566.64184 296.61329,553.0308 290.98795,547.61495 C 284.79699,541.65751 279.06249,539.59433 279.06249,539.59433 C 279.06249,539.59433 291.90483,549.45296 294.65648,559.99602 C 297.40813,570.54007 293.50938,575.35383 288.69276,578.7918 C 283.87812,582.23077 271.03776,582.22779 267.13901,584.52209 C 263.23928,586.81638 262.09515,588.86072 262.09515,588.86072 L 262.10309,588.6911 L 262.10309,588.6911 z "
     style="fill:#da251d;fill-rule:evenodd"
     id="_146133560" />
</svg>
