<?xml version="1.0" encoding="UTF-8" standalone="no"?>
<!-- Created with Inkscape (http://www.inkscape.org/) -->

<svg
   xmlns:dc="http://purl.org/dc/elements/1.1/"
   xmlns:cc="http://creativecommons.org/ns#"
   xmlns:rdf="http://www.w3.org/1999/02/22-rdf-syntax-ns#"
   xmlns:svg="http://www.w3.org/2000/svg"
   xmlns="http://www.w3.org/2000/svg"
   xmlns:sodipodi="http://sodipodi.sourceforge.net/DTD/sodipodi-0.dtd"
   xmlns:inkscape="http://www.inkscape.org/namespaces/inkscape"
   version="1.1"
   id="svg887"
   width="180.15308"
   height="204.27728"
   viewBox="0 0 180.15308 204.27728"
   sodipodi:docname="Karachay-Cherkessia.svg"
   inkscape:version="0.92.4 (5da689c313, 2019-01-14)">
  <metadata
     id="metadata893">
    <rdf:RDF>
      <cc:Work
         rdf:about="">
        <dc:format>image/svg+xml</dc:format>
        <dc:type
           rdf:resource="http://purl.org/dc/dcmitype/StillImage" />
        <dc:title></dc:title>
      </cc:Work>
    </rdf:RDF>
  </metadata>
  <defs
     id="defs891" />
  <sodipodi:namedview
     pagecolor="#ffffff"
     bordercolor="#666666"
     borderopacity="1"
     objecttolerance="10"
     gridtolerance="10"
     guidetolerance="10"
     inkscape:pageopacity="0"
     inkscape:pageshadow="2"
     inkscape:window-width="1920"
     inkscape:window-height="1017"
     id="namedview889"
     showgrid="false"
     fit-margin-top="0"
     fit-margin-left="0"
     fit-margin-right="0"
     fit-margin-bottom="0"
     inkscape:zoom="1.5170655"
     inkscape:cx="70.688614"
     inkscape:cy="111.62565"
     inkscape:window-x="-8"
     inkscape:window-y="-8"
     inkscape:window-maximized="1"
     inkscape:current-layer="layer6" />
  <g
     inkscape:groupmode="layer"
     id="layer1"
     inkscape:label="Layer 1"
     style="display:inline"
     transform="translate(-5.5027237,-5.9241562)">
    <ellipse
       style="opacity:1;fill:#1c3481;fill-opacity:1;stroke:none;stroke-width:17.56896591;stroke-miterlimit:4;stroke-dasharray:none;stroke-opacity:1;paint-order:stroke fill markers"
       id="path1442"
       ry="90.898682"
       rx="90.076538"
       cy="104.64571"
       cx="95.579262" />
  </g>
  <g
     inkscape:groupmode="layer"
     id="layer2"
     inkscape:label="Layer 2"
     style="display:inline"
     transform="translate(-5.5027237,-5.9241562)">
    <ellipse
       style="opacity:1;fill:#f1bc00;fill-opacity:1;stroke:#1c3481;stroke-width:2;stroke-miterlimit:4;stroke-dasharray:none;stroke-opacity:1;paint-order:stroke fill markers"
       id="path1459"
       cx="95.908852"
       cy="25.133654"
       rx="17.962311"
       ry="18.209497" />
    <path
       style="fill:#f1bc00;fill-opacity:1;stroke:#1c3481;stroke-width:1;stroke-linecap:butt;stroke-linejoin:miter;stroke-miterlimit:4;stroke-dasharray:none;stroke-opacity:1"
       d="m 71.532045,206.43935 -4.122087,-32.2921 0.0437,-0.67003 0.33501,-0.20392 0.553496,-0.0874 1.019598,0.32045 2.563559,0.67002 2.884004,0.87394 3.4375,0.81568 4.631886,0.81567 5.942796,0.43697 5.933801,0.40626 5.520522,0.1236 5.47933,-0.61797 5.52053,-0.49438 4.0374,-0.78276 4.94375,-1.23594 5.27334,-1.44193 0.87077,-0.19549 0.43697,0.13109 0.37871,0.16023 0.36414,0.39327 -4.12208,32.56885 -3.26272,0.99047 -4.26491,0.68146 -5.10855,0.82396 -3.62542,0.57677 -4.28459,0.32959 h -4.119792 l -4.943755,0.16479 -5.85011,-0.65917 -6.097298,-0.74156 -5.602922,-0.82396 z"
       id="path1464"
       inkscape:connector-curvature="0" />
    <path
       style="fill:#f1bc00;fill-opacity:1;stroke:none;stroke-width:1px;stroke-linecap:butt;stroke-linejoin:miter;stroke-opacity:1"
       d="m 42.997881,41.133474 -7.10805,-0.05826 -3.670551,3.554026 -4.602755,4.544491 -3.67055,5.36017 -3.320975,5.59322 -3.495763,6.933263 -2.388771,5.36017 -1.922669,5.709745 -1.340043,4.369704 -0.990466,5.418432 -0.9322032,5.768008 -0.2913136,5.185382 -0.2330508,6.059315 0.4078389,11.4195 0.9322037,5.59322 1.106991,5.18538 1.631356,6.05932 2.097458,4.8358 2.330508,5.30191 0.932204,1.80615 1.573093,1.45656 1.922669,0.75742 1.573094,0.23305 1.51483,0.40784 0.873941,0.23305 0.466102,0.34958 0.582627,0.99046 0.757415,1.57309 1.398305,2.15572 1.514831,2.44704 2.097457,2.38877 2.447034,2.5053 2.854873,2.73834 3.728813,3.55403 2.913136,2.38877 2.213983,1.57309 1.165254,0.23305 1.165255,-0.0583 1.106991,-0.34957 0.873941,-0.46611 0.815678,-0.81567 0.815678,-1.22352 0.349576,-1.57309 0.174788,-2.56356 -0.233051,-1.107 -0.174788,-1.74788 -0.582627,-1.51483 -0.699152,-1.34004 -0.932204,-1.04873 -1.398305,-1.28178 -2.039195,-1.28178 -1.573093,-1.28178 -1.340042,-1.3983 -0.932204,-1.10699 -0.582627,-2.27225 -0.582627,-2.79661 0.233051,-1.45657 0.116525,-2.03919 0.699153,-1.51483 -5.476695,-12.29344 -3.612288,-13.28389 -0.407839,-13.63348 0.699152,-9.438554 4.020127,-13.51695 6.350636,-9.788135 4.71928,-6.292373 6.933262,-6.583687 3.903602,-3.554025 -0.407839,-3.903602 V 43.40572 l 3.262712,-1.048729 2.913136,-1.51483 1.864406,-1.573094 0.64089,-1.398305 0.349576,-1.573093 -0.174788,-1.864407 -0.64089,-2.330508 -1.048728,-1.631356 -0.990466,-0.757415 -1.340043,-0.524365 -1.922669,-0.116525 -1.28178,0.407839 -2.15572,0.990466 -1.980933,0.990466 -3.961864,2.15572 -1.980932,1.165255 -3.787076,2.330508 -2.447034,1.631356 -1.398305,1.340042 z"
       id="path1466"
       inkscape:connector-curvature="0" />
    <path
       style="fill:#f1bc00;fill-opacity:1;stroke:none;stroke-width:1px;stroke-linecap:butt;stroke-linejoin:miter;stroke-opacity:1"
       d="m 155.73623,161.73729 -2.38877,2.9714 -2.79661,2.91313 -3.26271,2.44704 -1.68962,0.99046 -1.98093,0.17479 -1.45657,-0.4661 -1.34005,-0.93221 -1.10699,-0.99046 -0.52436,-1.04873 -0.34958,-1.16525 -0.0583,-1.74789 0.34958,-2.15572 0.81567,-2.03919 0.99047,-1.74788 1.22352,-1.5731 1.63135,-1.68961 1.63136,-0.87394 1.22352,-0.81568 1.04872,-1.16526 0.99047,-1.22351 0.29131,-1.63136 0.29132,-2.73835 -0.23305,-1.8644 -0.93221,-2.33051 0.17479,-1.92267 3.20445,-5.30191 3.78708,-8.50635 3.14618,-11.94386 1.16526,-17.478814 -3.37924,-14.449153 -6.93326,-12.526483 -8.85593,-10.545551 -8.66207,-6.717526 0.24719,-4.861359 0.0824,-5.355735 -3.29584,-1.565523 -2.80146,-1.483126 -1.64792,-1.235939 -1.1098,-1.590644 -0.0583,-1.281779 0.23305,-1.689619 0.81568,-1.747881 0.99047,-1.340043 1.04873,-1.048729 1.04873,-0.699152 1.45656,-0.08739 2.30138,0.349576 2.18485,0.64089 2.65096,1.136123 4.02012,2.272246 2.9714,1.922669 3.64142,3.058792 2.73835,2.330509 h 8.09852 l 3.55402,3.583157 2.85487,3.757945 2.86926,3.863869 2.88386,4.366983 2.51308,3.790212 2.38948,5.685319 2.47187,5.808912 1.64792,4.119796 1.27714,4.078598 1.02995,4.078598 0.82396,4.119796 0.32958,4.820161 0.1236,4.160994 0.25524,8.277041 -1.19866,16.3714 -2.18763,9.17508 -2.0599,6.67407 -2.76026,6.67407 -1.85391,1.35953 -1.19474,0.94755 -1.60672,0.28839 -1.60672,0.24719 -1.52432,0.49437 -3.29584,5.47933 z"
       id="path1517"
       inkscape:connector-curvature="0"
       sodipodi:nodetypes="cccccccccccccccccccccccccccccccccccccccccccccccccccccccccccccccccccccccccccccccc" />
  </g>
  <g
     inkscape:groupmode="layer"
     id="layer3"
     inkscape:label="Layer 3"
     style="display:inline"
     transform="translate(-5.5027237,-5.9241562)">
    <ellipse
       style="opacity:1;fill:#ffffff;fill-opacity:1;stroke:#1c3481;stroke-width:1.99201334;stroke-miterlimit:4;stroke-dasharray:none;stroke-opacity:1;paint-order:stroke fill markers"
       id="path1462"
       cx="96.073639"
       cy="25.380844"
       rx="13.269736"
       ry="13.269735" />
    <g
       id="g1575"
       style="fill:#009847;fill-opacity:1;stroke:none">
      <path
         inkscape:connector-curvature="0"
         id="path1519"
         d="m 56.980932,37.870762 -2.447034,2.213983 -3.262711,1.165255 -2.680085,1.165254 -2.56356,0.932203 -3.495762,1.514831 -2.79661,2.213983 -1.048729,2.213983 0.116525,1.048729 1.900617,-0.404157 1.936304,-0.782761 2.0187,-0.782761 2.307086,-1.153543 2.0187,-0.823959 2.059898,-1.235939 1.936304,-1.194741 1.318335,-0.988751 1.112345,-1.277136 0.865157,-1.400731 z"
         style="fill:#009847;fill-opacity:1;stroke:none;stroke-width:1px;stroke-linecap:butt;stroke-linejoin:miter;stroke-opacity:1" />
      <path
         inkscape:connector-curvature="0"
         id="path1521"
         d="m 30.9375,67.118644 2.039195,-1.806144 2.388771,-2.039195 2.330509,-1.980932 2.213983,-2.505297 1.806144,-1.980932 1.864407,-1.864407 2.15572,-2.330509 1.689619,-2.505296 -1.864407,0.524364 -2.097458,0.990466 -2.272246,1.223517 -3.320974,1.92267 -2.155721,1.689618 -2.097457,2.796611 -1.456568,2.330508 -0.990466,2.330509 -0.699153,2.15572 z"
         style="fill:#009847;fill-opacity:1;stroke:none;stroke-width:1px;stroke-linecap:butt;stroke-linejoin:miter;stroke-opacity:1" />
      <path
         inkscape:connector-curvature="0"
         id="path1523"
         d="m 25.402542,74.226695 1.28178,-2.330509 1.165254,-2.680085 0.582627,-2.913135 1.165255,-4.194915 0.116525,-1.747882 1.398305,-3.845339 1.165254,-1.747881 0.474835,-1.495088 0.576772,-2.389482 -1.277137,0.659168 -1.771512,1.524324 -1.895106,1.647919 -1.895107,2.595471 -0.988751,2.677867 -0.288385,1.977502 -0.370782,2.966253 -0.123594,3.872608 0.164792,2.719066 z"
         style="fill:#009847;fill-opacity:1;stroke:none;stroke-width:1px;stroke-linecap:butt;stroke-linejoin:miter;stroke-opacity:1" />
      <path
         inkscape:connector-curvature="0"
         id="path1525"
         d="m 41.77473,158.69744 1.483127,2.0599 2.719065,2.80146 0.247188,1.48312 -1.400731,0.41198 -1.318335,-0.90635 -1.565522,-1.89511 -1.235939,-1.48313 0.164792,-1.31833 0.164792,-0.74156 z"
         style="fill:#009847;fill-opacity:1;stroke:none;stroke-width:1px;stroke-linecap:butt;stroke-linejoin:miter;stroke-opacity:1" />
      <path
         inkscape:connector-curvature="0"
         id="path1527"
         d="m 146.93856,164.65042 1.16525,0.46611 1.34005,-0.87395 0.99046,-1.16525 0.93221,-1.10699 0.23305,-1.22352 -0.23305,-1.10699 -0.93221,-0.11653 -0.87394,0.99047 -1.04873,0.9322 -0.99046,1.16526 -0.52437,1.34004 z"
         style="fill:#009847;fill-opacity:1;stroke:none;stroke-width:1px;stroke-linecap:butt;stroke-linejoin:miter;stroke-opacity:1" />
      <path
         inkscape:connector-curvature="0"
         id="path1529"
         d="m 152.06167,156.39035 1.73031,-0.94755 0.86516,-1.07115 0.70036,-0.28838 0.65917,-0.1648 0.28839,-1.11234 1.27713,-1.40073 2.1011,-1.56552 3.29583,-2.1011 3.41944,-1.40073 3.37823,-1.19474 2.10109,-2.63667 0.94756,-1.9363 0.78276,-1.02995 0.98875,-1.85391 0.45318,-1.35953 -1.02995,0.20599 -1.15355,0.82395 -1.8951,1.44193 -2.76026,1.44193 -2.1423,1.56552 -3.13104,2.0187 -1.93631,1.56553 -1.48312,1.56552 -1.77152,1.85391 -1.23593,1.64792 -0.0412,-2.38949 -0.20599,-4.24339 0.0824,-3.17224 0.0824,-3.25464 -1.11235,0.74157 -0.65916,1.11234 -0.98875,2.0187 -0.94756,2.76026 -0.45317,2.67787 v 2.0187 l -0.1648,3.58422 -0.0412,2.0187 z"
         style="fill:#009847;fill-opacity:1;stroke:none;stroke-width:1px;stroke-linecap:butt;stroke-linejoin:miter;stroke-opacity:1" />
      <path
         inkscape:connector-curvature="0"
         id="path1533"
         d="m 40.60911,155.73623 0.291314,-0.99047 0.233051,-1.3983 -0.174788,-1.86441 -0.174789,-2.33051 -0.291313,-2.27224 -0.174788,-1.51483 -0.524365,-1.98094 -0.524364,-1.3983 -0.757415,-1.98093 -0.873941,-1.51483 -0.699153,-1.04873 -0.524364,-0.0583 -0.233051,0.99047 0.349576,1.28178 0.174789,1.04873 0.116525,1.98093 0.407839,1.98093 -0.407839,1.92267 v 2.09746 1.51483 l -1.456568,-1.16525 -0.932203,-1.39831 -1.340043,-1.68962 -1.631356,-1.34004 -1.398305,-1.10699 -2.505296,-1.28178 -1.165254,-0.87394 -1.806145,-1.10699 -1.223516,-0.99047 -1.806145,-1.34004 -1.456567,-1.51483 -1.165255,-1.16526 -0.815678,-0.81567 v 2.09745 l 0.815678,1.51483 0.932204,1.86441 0.524364,1.10699 1.106992,0.99047 0.582627,1.51483 1.456568,0.99047 1.864406,0.4661 1.28178,0.64089 1.398305,0.4661 1.165254,0.58263 1.340043,0.87394 1.340042,1.16525 1.223517,0.99047 1.514831,1.28178 1.165254,1.10699 0.64089,1.3983 0.87394,0.29132 h 0.64089 l 1.048729,0.69915 0.407839,1.10699 0.407839,0.58263 0.582627,0.23305 z"
         style="fill:#009847;fill-opacity:1;stroke:none;stroke-width:1px;stroke-linecap:butt;stroke-linejoin:miter;stroke-opacity:1" />
      <path
         inkscape:connector-curvature="0"
         id="path1535"
         d="m 134.81992,37.987288 2.3305,1.747881 2.91314,1.048729 3.37924,1.165254 2.79661,1.165254 2.44703,0.932204 2.44703,1.747881 2.21399,2.213983 0.69915,1.980933 0.11653,1.281779 -2.33051,-0.932203 -2.33051,-0.815678 -2.56356,-1.165254 -2.68009,-0.815678 -2.44703,-1.28178 -2.09746,-1.398305 -1.3983,-1.165254 -1.74788,-1.631356 -1.51483,-1.980933 -0.39744,-0.984982 -0.26779,-0.865157 0.16479,-0.350183 z"
         style="fill:#009847;fill-opacity:1;stroke:none;stroke-width:1px;stroke-linecap:butt;stroke-linejoin:miter;stroke-opacity:1" />
      <path
         inkscape:connector-curvature="0"
         id="path1537"
         d="m 159.02412,49.770034 0.94755,1.071147 2.1423,1.853909 1.27713,1.071146 2.0187,2.142294 1.11235,1.977502 0.70036,2.513076 0.53558,2.471877 0.20599,2.0187 0.0824,2.513076 -0.12359,3.213441 0.0824,1.565522 -0.37079,1.771512 -0.57677,-1.565522 -0.49437,-1.277137 -0.78276,-0.988751 -0.61797,-1.071147 -0.0412,-1.112345 c 0,0 -0.53557,-1.689116 -0.53557,-1.853908 0,-0.164792 -0.1236,-1.359533 -0.1236,-1.359533 l -0.32958,-1.277136 c 0,0 -0.45318,-0.700366 -0.49438,-0.865157 -0.0412,-0.164792 -0.65917,-1.153543 -0.65917,-1.153543 l -0.28838,-1.071147 -0.0824,-1.153543 -0.24718,-0.782761 -0.32959,-0.782761 -0.41198,-0.741564 -0.24719,-0.865157 -0.32958,-0.782761 -0.37078,-0.700365 -0.45318,-0.782762 -0.12359,-0.617969 -0.49438,-0.906355 -0.32958,-0.700365 -0.45318,-1.029949 z"
         style="fill:#009847;fill-opacity:1;stroke:none;stroke-width:1px;stroke-linecap:butt;stroke-linejoin:miter;stroke-opacity:1" />
      <path
         inkscape:connector-curvature="0"
         id="path1539"
         d="m 144.22934,49.319385 1.5731,0.786547 2.12659,0.786546 1.77701,0.815678 3.17532,1.92267 1.83527,1.019597 1.9518,1.573094 1.42744,1.485699 0.96133,1.136123 1.19439,1.747881 0.81568,1.252648 0.61176,1.543962 0.64089,2.068326 0.23305,1.106992 0.0874,1.194385 -1.3983,-0.407838 -1.34005,-1.194386 -1.45656,-1.048729 -1.95181,-1.806144 -0.9322,-1.07786 -1.57309,-1.340043 -1.80615,-2.068326 -1.3983,-1.573093 -1.39831,-1.485699 -1.25264,-1.543962 -1.39831,-1.369174 -0.87394,-0.815678 -0.78655,-0.786546 -0.61176,-1.048729 z"
         style="fill:#009847;fill-opacity:1;stroke:none;stroke-width:1px;stroke-linecap:butt;stroke-linejoin:miter;stroke-opacity:1" />
      <path
         inkscape:connector-curvature="0"
         id="path1541"
         d="m 179.5407,120.46573 -0.32958,1.15354 -1.15354,1.11235 -0.86516,1.02995 -0.78276,0.98875 -0.78276,0.94755 -0.86516,0.98875 -0.70036,1.11235 -0.49438,1.11234 -0.37078,0.78276 -0.32959,1.27714 -0.45317,1.11235 -0.16479,1.31833 -0.0412,1.27714 0.28838,0.41198 0.37078,-0.1236 0.49438,-0.65916 0.37078,-0.65917 0.74157,-0.78276 0.70036,-0.70037 0.41198,-0.78276 0.57677,-1.15354 0.57677,-0.82396 0.78276,-0.90636 0.53558,-0.98875 0.28838,-0.94755 0.37079,-1.31834 0.53557,-1.35953 0.32958,-0.94755 0.24719,-1.02995 0.0412,-0.86516 z"
         style="fill:#009847;fill-opacity:1;stroke:none;stroke-width:1px;stroke-linecap:butt;stroke-linejoin:miter;stroke-opacity:1" />
      <path
         inkscape:connector-curvature="0"
         id="path1543"
         d="m 159.5185,143.78378 -0.74157,-1.97751 -0.32958,-3.17224 0.41198,-2.0187 0.0412,-1.48313 0.12359,-2.26588 v -1.64792 l -0.0824,-1.64792 0.1648,-0.98875 0.49437,-0.98875 0.65917,-1.40073 1.27714,-1.60672 v 2.80146 l 0.0824,3.62542 v 3.04865 l 0.16479,3.50182 -0.45317,2.80147 -0.94756,1.9775 -0.70036,1.44193 z"
         style="fill:#009847;fill-opacity:1;stroke:none;stroke-width:1px;stroke-linecap:butt;stroke-linejoin:miter;stroke-opacity:1" />
      <path
         inkscape:connector-curvature="0"
         id="path1545"
         d="m 164.17387,139.91117 -0.1236,-4.28459 0.20599,-4.20219 0.57677,-1.23594 0.70037,-1.02995 0.94755,-0.78276 0.82396,-1.07115 0.78276,-0.78276 1.02995,-0.86516 0.86516,-0.74156 0.74156,-0.61797 1.31834,-0.82396 0.98875,-0.94755 0.37078,-0.32958 -0.0412,1.44192 -0.16479,1.52433 -1.02995,2.43068 -0.82396,1.85391 -0.74156,1.60672 -1.31834,1.81271 -1.19474,1.60672 -0.98875,1.52432 -0.98875,1.40073 -0.90636,1.11235 z"
         style="fill:#009847;fill-opacity:1;stroke:none;stroke-width:1px;stroke-linecap:butt;stroke-linejoin:miter;stroke-opacity:1" />
      <path
         inkscape:connector-curvature="0"
         id="path1547"
         d="m 33.823524,143.66018 0.370782,-2.22469 0.0412,-3.29583 -0.164792,-4.44938 0.0824,-2.96626 -0.494376,-3.29583 -0.906355,-1.85391 -1.112345,-1.11235 -0.576771,1.81271 0.0412,1.81271 -0.0824,4.2022 0.123594,3.50182 0.20599,2.18349 0.164791,1.97751 0.947553,1.9363 0.947554,1.60672 0.411979,0.45318 z"
         style="fill:#009847;fill-opacity:1;stroke:none;stroke-width:1px;stroke-linecap:butt;stroke-linejoin:miter;stroke-opacity:1" />
      <path
         inkscape:connector-curvature="0"
         id="path1549"
         d="m 20.712394,134.49947 0.116526,-1.92267 -0.05826,-1.71875 -0.611759,-1.45657 -1.106991,-1.8644 -1.951801,-2.47617 -1.223517,-1.63136 -1.165254,-1.60222 -1.048729,-1.98093 -0.378708,0.87394 0.116526,1.28178 0.524364,1.83527 0.786547,1.83528 0.699152,1.4857 1.543962,2.38877 1.194386,1.60222 1.048729,1.39831 0.932203,1.13612 z"
         style="fill:#009847;fill-opacity:1;stroke:none;stroke-width:1px;stroke-linecap:butt;stroke-linejoin:miter;stroke-opacity:1" />
      <path
         inkscape:connector-curvature="0"
         id="path1551"
         d="m 28.548729,140.03443 0.174788,-2.44704 0.02913,-2.27224 0.20392,-2.68009 -0.407839,-2.12659 -1.747881,-2.18485 -1.660488,-1.74788 -1.631356,-1.42744 -1.922669,-1.34004 -1.048729,-1.16525 -0.64089,1.13612 0.20392,1.63136 1.281779,2.59269 1.28178,2.09746 1.165254,2.24311 1.252649,2.09746 0.582627,1.25265 0.786546,1.22351 0.84481,1.22352 z"
         style="fill:#009847;fill-opacity:1;stroke:none;stroke-width:1px;stroke-linecap:butt;stroke-linejoin:miter;stroke-opacity:1" />
      <path
         inkscape:connector-curvature="0"
         id="path1553"
         d="m 35.51264,66.331614 -1.81271,1.936304 -2.842659,2.22469 -1.441928,1.60672 -1.647919,2.183492 -1.318334,1.524324 -1.400731,2.183492 -1.112345,2.059898 -0.823959,1.771512 -0.906355,1.647919 -0.659168,1.565522 -0.659167,-2.389481 v -3.913807 l -0.123594,-2.389481 0.247188,-3.254639 -0.288386,-3.089847 -1.81271,3.295837 -1.153543,2.925055 -0.988751,3.295837 -1.483126,4.490577 -0.988751,3.501827 -0.20599,3.62542 -0.164792,4.0374 0.0824,3.460629 0.0412,0.659167 h -0.823959 l -0.659168,-0.288386 -0.700365,0.576772 -0.700365,0.947553 -0.370782,1.40073 0.123594,2.55427 0.0824,4.77897 -0.123594,4.86136 0.535574,0.86515 1.235938,0.82396 0.700366,0.65917 0.782761,0.82396 0.782761,1.48313 1.071147,1.56552 0.823959,1.60672 0.61797,1.11234 0.576771,-1.11234 -0.123594,-0.98875 -0.0824,-1.44193 v -1.60672 l -0.329583,-0.90636 -0.41198,-1.07114 v -1.02995 l 0.164792,-0.61797 0.617969,0.28838 0.329584,1.07115 0.865157,2.0599 0.659167,1.31833 0.906355,1.02995 1.400731,1.02995 1.60672,1.52433 0.453178,-2.67787 0.0824,-1.93631 0.0412,-1.23593 -0.0412,-1.56553 0.20599,-0.98875 0.247187,-1.11234 1.112345,0.16479 -0.617969,1.81271 -0.123594,2.84266 -0.123594,1.27713 0.20599,1.89511 0.700365,1.60672 0.906355,2.1011 0.906355,1.52432 0.329584,-2.55427 0.247188,-3.50183 0.164792,-2.71906 0.247187,-3.21344 0.329584,-3.50183 0.20599,-2.63667 0.865157,-3.04865 1.318335,-2.92505 -1.689117,-0.0824 -1.277136,-0.78276 -1.235939,-1.936305 0.535573,-1.606721 0.82396,-1.936304 1.112344,-1.977502 1.689117,-4.078598 0.659167,-2.142293 0.741563,-2.059898 0.41198,-2.43068 -0.453178,-2.925055 -1.441928,1.895106 -0.865157,1.277137 -1.730315,1.771512 -1.60672,1.647918 -1.359533,1.071147 -0.617969,-0.164792 -0.700365,-0.329583 0.288385,-0.700366 0.741564,-0.906355 1.81271,-2.224689 1.60672,-1.771513 1.153543,-1.19474 1.565523,-1.853909 1.689116,-2.389481 1.60672,-3.460629 0.823959,-2.389481 0.659168,-2.966253 0.20599,-1.400731 z"
         style="fill:#009847;fill-opacity:1;stroke:none;stroke-width:1px;stroke-linecap:butt;stroke-linejoin:miter;stroke-opacity:1" />
      <path
         inkscape:connector-curvature="0"
         id="path1555"
         d="m 165.52436,126.45922 1.07787,-2.18486 1.07786,-1.89353 0.4661,-2.15572 -0.0874,-2.9714 -0.26218,-1.51483 -0.32044,-1.34005 0.17478,-1.01959 0.5535,-0.43697 0.52436,-0.11653 0.11653,0.96134 -0.20392,1.45656 0.0874,1.4857 -0.0583,2.21399 0.23305,2.03919 0.4661,1.25265 0.67003,0.58263 0.69915,0.0583 0.4661,-0.9322 0.81568,-1.39831 1.75233,-2.22211 1.31833,-1.40073 0.98876,-2.0599 0.16479,-0.90636 0.65916,-1.07114 0.49438,0.32958 -0.32958,1.40073 -1.15355,2.38948 -0.74156,2.22469 -0.16479,1.48313 v 1.64792 l 1.23594,-0.24719 1.40073,-1.48313 1.07114,-1.40073 1.40074,-1.81271 1.31833,-1.23594 0.74156,-1.40073 0.65917,-1.48312 -0.0955,-6.38521 0.0583,-2.09746 v -1.9518 l -0.4661,-1.07786 -0.20392,-1.68962 -0.49524,-0.640891 -0.9322,-0.582627 -0.84481,0.349576 -0.37871,0.43697 -0.55349,-0.844809 0.23305,-1.631356 0.0583,-1.223517 0.23305,-1.106991 0.23305,-1.106992 -0.4661,-3.320974 -0.34957,-4.544492 -0.99047,-3.379237 -1.9518,-5.185382 -1.86441,-4.165784 -1.04873,-1.51483 -0.58262,-1.194386 v 1.340043 l -0.26219,3.350106 0.32045,3.175317 0.0291,2.330509 -0.0874,2.709216 -0.52437,0.349576 -0.64089,-0.553496 -0.64089,-1.398305 -0.78654,-1.106991 -0.93221,-1.456568 -1.96947,-3.289485 -2.22469,-2.307085 -1.64792,-1.81271 -2.14229,-1.895107 -1.97751,-2.224689 -2.14229,-1.483127 -0.74156,-0.741563 -0.0824,1.40073 -0.0824,2.22469 1.15354,3.048649 1.48313,2.801461 1.31833,2.059898 1.9775,3.048649 2.30709,2.142294 2.55427,2.307086 1.56552,1.565522 0.49438,1.235939 -0.32958,0.988751 -0.65917,0.576771 -0.98875,-0.988751 -2.0599,-2.059898 -1.73032,-1.565522 -1.48312,-2.636669 -0.90636,-1.812711 -0.65916,1.153543 0.0824,2.142294 0.0824,1.647919 0.0824,1.895106 0.57677,1.81271 1.48313,2.554273 1.40073,2.883857 1.15354,1.647919 1.15355,2.719065 0.0824,1.730314 -0.82396,1.400732 -0.90635,0.82396 -1.56552,-0.24719 -0.74157,-0.57677 0.41198,2.22469 0.49438,2.0599 0.82396,0.82396 0.0824,0.98875 -0.0412,5.56172 0.24718,4.53178 -0.12359,3.83141 0.16479,2.84266 0.74156,1.15354 z"
         style="fill:#009847;fill-opacity:1;stroke:none;stroke-width:1px;stroke-linecap:butt;stroke-linejoin:miter;stroke-opacity:1" />
    </g>
  </g>
  <g
     inkscape:groupmode="layer"
     id="layer4"
     inkscape:label="Layer 4"
     style="display:inline"
     transform="translate(-5.5027237,-5.9241562)">
    <path
       style="fill:#fffffe;fill-opacity:1;stroke:none;stroke-width:1px;stroke-linecap:butt;stroke-linejoin:miter;stroke-opacity:1"
       d="m 16.371822,113.991 0.903072,-0.46611 0.699153,-0.84481 0.291313,-3.69968 0.116526,-1.57309 -0.05826,-1.07786 -0.02913,-0.87394 0.23305,-1.04873 0.611759,-0.90307 0.728284,-0.84481 0.203919,-0.5535 0.291314,0.11653 0.378707,0.14565 0.378708,-0.0583 0.553496,-0.26218 0.43697,0.67002 0.08739,0.84481 0.233051,0.52436 0.291314,0.75742 v 0.78655 l 0.05826,1.71875 0.145657,1.54396 0.02913,0.78654 0.05826,1.31092 0.320445,0.67002 0.64089,0.11652 0.02913,0.69915 0.407839,0.58263 0.757416,0.34958 0.640889,-0.49523 0.08739,-0.72829 0.262183,-0.4661 0.349576,-0.0874 0.145657,-0.96134 0.05826,-1.3983 -0.05826,-0.93221 v -1.51483 l 0.203919,-1.16525 0.670021,-0.69915 0.524365,-0.72829 -0.990466,-0.26218 -0.436971,0.37871 v -0.69916 l -0.05826,-0.9322 -0.20392,-0.67002 -0.786546,0.52436 -0.20392,0.78655 -0.320445,0.72828 -0.466102,0.20392 -0.291313,-0.72828 -0.495233,-0.69915 -0.786547,-0.43697 -1.07786,-0.58263 0.43697,-0.52436 0.378708,-0.69916 0.174788,-0.844806 -0.08739,-1.106992 0.116526,-2.184851 0.05826,-0.961335 0.378708,-0.611759 0.728284,-1.310911 1.281779,-0.844809 -0.699152,-0.407839 -1.194386,0.05826 h -0.43697 l 0.116525,-0.757416 0.05826,-1.223517 -0.611758,-1.398305 -0.466102,0.873941 -0.174788,1.019598 -0.116526,0.990466 -0.670021,0.02913 -0.466102,-0.349576 -0.553495,-0.466102 -0.524365,-0.64089 -0.757415,-0.553496 -0.961335,-0.116525 0.378708,0.553496 0.495233,0.961335 0.291314,1.048728 0.05826,1.369174 -0.349576,1.777013 -0.407839,1.631356 -0.116525,1.689618 0.23305,1.456574 0.903072,1.4857 -1.543961,1.34004 -0.64089,-0.17479 -0.64089,-0.49523 -0.320445,-0.67002 -0.407839,-1.04873 -0.262182,-0.67002 -0.378708,1.10699 -0.116525,1.0196 0.02913,1.28178 -0.466102,0.67002 -0.320444,-0.34958 c 0,0 0,-0.26218 -0.116526,-0.37871 -0.116525,-0.11652 -0.466102,-0.49523 -0.466102,-0.49523 l -0.757415,-0.0583 -0.582627,0.26218 -0.291314,0.49523 0.407839,0.11653 0.378708,-0.0874 0.233051,0.23305 0.116525,1.107 0.582627,1.68962 0.320445,3.14618 0.02913,1.60223 0.349576,1.16525 0.728284,0.5535 0.524364,0.34957 z"
       id="path1578"
       inkscape:connector-curvature="0" />
    <path
       style="fill:#fffffe;fill-opacity:1;stroke:none;stroke-width:1px;stroke-linecap:butt;stroke-linejoin:miter;stroke-opacity:1"
       d="m 176.82164,114.20364 1.15354,-0.82396 0.98875,-0.41198 0.0824,-1.31833 0.0824,-1.89511 0.49438,-1.73031 0.32958,-1.89511 1.07115,-1.56552 0.16479,-1.40073 -0.34116,-0.44543 -0.0874,-0.4661 -0.49523,0.61176 -0.23305,0.4661 -0.84481,0.52436 -0.64089,-0.0874 0.11653,-0.81568 -0.17479,-0.78655 -0.5535,-0.75741 -0.67002,-0.78655 -0.0874,1.04873 0.0583,0.69915 -0.26218,0.75742 -0.23305,0.49523 -0.87394,-0.4661 -1.07786,-0.11652 -0.40784,-0.32045 -0.37871,-1.07786 0.43697,-0.32044 0.52436,-0.49524 0.14566,-0.78654 -0.11652,-1.281784 v -1.660487 l -0.17479,-1.747881 -0.17479,-0.990466 -0.14566,-1.252649 0.11653,-0.699152 0.40784,-0.495233 0.20392,-0.699153 v -0.495233 l -0.37871,-0.961335 -0.5535,-0.43697 0.0874,0.873941 -0.23305,0.611758 -0.58263,0.407839 -0.49523,0.466102 -0.43697,0.116525 -0.14566,-0.582627 -0.40784,-0.786547 -0.4661,-0.553495 -0.58263,-0.670021 0.0291,-0.757416 -0.55349,0.611759 -0.29132,0.932203 -0.0583,1.136123 -0.20392,1.07786 -0.34958,0.320445 -0.49523,-0.553496 -0.64089,-0.495233 -0.81568,0.05826 -0.34957,0.233051 0.61176,0.320445 0.49523,0.495233 0.61176,1.747881 0.69915,2.884004 0.23305,1.806144 0.40784,1.689625 0.32044,0.9322 -0.29131,0.72828 -0.40784,0.46611 -0.58262,0.64089 -0.34958,0.40783 -0.37871,0.37871 -0.40784,-0.55349 -0.4661,-0.84481 -0.5535,-0.78655 -0.72828,-0.61176 -0.64089,-0.17479 0.29131,0.90308 0.0291,0.90307 v 0.72828 l -0.11653,0.34958 -0.69915,0.0291 -0.40784,-0.34958 -0.96134,-0.72828 -0.43697,-0.67002 -0.3787,0.29131 -0.0874,0.96134 0.20392,0.78654 0.72829,0.67002 0.55349,0.58263 0.67002,1.22352 0.17479,1.28178 -0.17479,1.45657 0.37871,1.3983 1.29324,2.43748 0.65917,0.53558 0.74156,-0.0824 0.57677,-0.49437 0.45318,-0.78276 0.24719,-1.02995 0.32958,-1.68912 v -1.56552 l 0.20599,-1.31834 v -2.14229 l 0.0824,-1.02995 0.94755,-1.27714 0.53557,-0.37078 0.61797,-0.12359 0.74156,0.45318 0.45318,0.37078 0.57677,0.65916 0.45318,1.60672 -0.0412,1.31834 -0.0412,1.9363 0.20599,2.1835 0.16479,1.40073 0.74156,1.07114 0.70037,0.65917 z"
       id="path1580"
       inkscape:connector-curvature="0" />
    <ellipse
       style="opacity:1;fill:#f1bc00;fill-opacity:1;stroke:#000000;stroke-width:1.52253163;stroke-miterlimit:4;stroke-dasharray:none;stroke-opacity:1;paint-order:stroke fill markers"
       id="path1582"
       cx="96.284737"
       cy="104.75283"
       rx="65.681648"
       ry="65.485641" />
  </g>
  <g
     inkscape:groupmode="layer"
     id="layer5"
     inkscape:label="Layer 5"
     style="display:inline"
     transform="translate(-5.5027237,-5.9241562)">
    <ellipse
       style="opacity:1;fill:#1c3481;fill-opacity:1;stroke:none;stroke-width:4.62500477;stroke-miterlimit:4;stroke-dasharray:none;stroke-opacity:1;paint-order:stroke fill markers"
       id="path1585"
       cx="96.133484"
       cy="104.23199"
       rx="45.245007"
       ry="45.536324" />
  </g>
  <g
     inkscape:groupmode="layer"
     id="layer6"
     inkscape:label="Layer 6"
     transform="translate(-5.5027237,-5.9241562)" />
  <path
     style="fill:#ffffff;fill-opacity:1;stroke:#1c3481;stroke-width:1px;stroke-linecap:butt;stroke-linejoin:miter;stroke-opacity:1"
     d="m 29.927521,114.58277 19.651426,0.12359 4.614171,-4.16099 h 74.691902 l 4.20219,4.20219 h 18.08591 l -46.99628,-41.638348 -1.71875,-1.07786 -1.28178,-0.43697 -1.747894,-0.116526 -1.3983,0.116526 -1.98093,0.233051 -1.718753,0.699152 -1.252648,0.990466 -0.903072,0.990466 2.845583,3.759256 2.0187,2.513075 0.12359,0.762163 -1.09174,0.102995 -5.458732,-7.086049 -1.380132,-1.998101 -1.00935,-1.235939 -1.524324,-0.865157 -1.318335,-0.494376 H 84.22643 l -1.483126,-0.0824 -1.318335,0.329584 -1.153543,0.494376 -1.483126,0.823959 -6.138496,5.685318 -5.561725,4.943755 z"
     id="path1588"
     inkscape:connector-curvature="0" />
</svg>
