<?xml version="1.0" encoding="UTF-8" standalone="no"?>
<!-- Created with Inkscape (http://www.inkscape.org/) -->

<svg
   xmlns:dc="http://purl.org/dc/elements/1.1/"
   xmlns:cc="http://creativecommons.org/ns#"
   xmlns:rdf="http://www.w3.org/1999/02/22-rdf-syntax-ns#"
   xmlns:svg="http://www.w3.org/2000/svg"
   xmlns="http://www.w3.org/2000/svg"
   xmlns:sodipodi="http://sodipodi.sourceforge.net/DTD/sodipodi-0.dtd"
   xmlns:inkscape="http://www.inkscape.org/namespaces/inkscape"
   width="435"
   height="600"
   id="svg2201"
   sodipodi:version="0.32"
   inkscape:version="0.92.4 (5da689c313, 2019-01-14)"
   version="1.0"
   sodipodi:docname="Coat_of_Arms_of_Republic_of_Karelia.svg"
   inkscape:output_extension="org.inkscape.output.svg.inkscape">
  <defs
     id="defs2203" />
  <sodipodi:namedview
     id="base"
     pagecolor="#ffffff"
     bordercolor="#666666"
     borderopacity="1.0"
     gridtolerance="10000"
     guidetolerance="10"
     objecttolerance="10"
     inkscape:pageopacity="0.0"
     inkscape:pageshadow="2"
     inkscape:zoom="0.79135193"
     inkscape:cx="251.46239"
     inkscape:cy="227.24919"
     inkscape:document-units="px"
     inkscape:current-layer="layer1"
     inkscape:window-width="1366"
     inkscape:window-height="705"
     inkscape:window-x="-8"
     inkscape:window-y="-8"
     showgrid="false"
     inkscape:snap-bbox="true"
     inkscape:bbox-nodes="false"
     inkscape:bbox-paths="false"
     inkscape:snap-bbox-midpoints="true"
     showguides="true"
     inkscape:guide-bbox="true"
     inkscape:snap-midpoints="true"
     inkscape:window-maximized="1" />
  <metadata
     id="metadata2206">
    <rdf:RDF>
      <cc:Work
         rdf:about="">
        <dc:format>image/svg+xml</dc:format>
        <dc:type
           rdf:resource="http://purl.org/dc/dcmitype/StillImage" />
      </cc:Work>
    </rdf:RDF>
  </metadata>
  <g
     inkscape:label="Layer 1"
     inkscape:groupmode="layer"
     id="layer1"
     transform="translate(-39.597577,-168.01853)">
    <g
       transform="matrix(8.9491258,0,0,8.9424289,-708.961,-781.24623)"
       style="fill-rule:evenodd"
       id="g11">
      <path
         id="_130156232"
         class="fil0"
         d="m 88.8709,114.454 4.0827,-10e-5 -0.0036,2.9272 5.3095,3.0194 -0.0058,3.2139 23.4373,0.0151 -4.1255,-2.0894 v -4.1139 l 5.3809,2.7247 -0.009,-5.3146 4.2039,0.003 0.009,5.2887 5.1038,-2.82589 v 4.08524 l -5.21086,2.87895 v 1.8821 l 5.21086,-2.8781 v 4.1268 l -5.21106,2.876 v 1.882 l 5.21106,-2.875 v 3.9277 l -5.21146,2.873 v 1.8821 l 5.21146,-2.872 v 4.0487 l -5.21166,2.87 v 1.8821 l 5.21166,-2.869 v 4.1698 l -5.21186,2.8669 v 1.882 l 5.21186,-2.8659 v 4.0487 l -5.2125,2.8639 v 1.8821 l 5.2125,-2.8629 v 3.9563 l -5.7564,3.2669 c -3.7034,7.7842 -9.7664,12.9189 -18.6331,13.017 -8.8667,0.0981 -17.3025,-6.5909 -18.8754,-15.9209 l -5.34364,2.9039 v -4.0811 l 5.25794,-2.9026 v -1.8821 l -5.25794,2.8997 v -4.0531 l 5.25794,-2.8933 v -1.882 l -5.25794,2.8903 v -4.1742 l 5.25794,-2.8838 v -1.8821 l -5.2575,2.8808 v -4.053 l 5.25794,-2.8745 v -1.8821 l -5.25794,2.8715 v -3.9318 l 5.25794,-2.8654 v -1.8821 l -5.25794,2.8625 v -4.1312 l 5.25794,-2.8559 v -1.8821 l -5.25794,2.853 v -4.1794 l 5.22234,-2.878 z m 15.934,-8.3011 3.1287,3.0481 3.1616,-3.0481 v 5.4134 h 5.4134 l -3.0417,3.125 3.0417,3.1653 h -5.4134 v 5.4133 l -3.1586,-3.0349 -3.1317,3.0349 v -5.4133 h -5.4134 l 3.0481,-3.1616 -3.0481,-3.1287 h 5.4134 z m 1.0424,8.5585 2.1027,-2.1027 2.1028,2.1027 -2.1028,2.1028 z m -12.8831,6.8511 -0.0085,2.0863 h 3.8292 z"
         style="fill:#cf9329"
         inkscape:connector-curvature="0"
         sodipodi:nodetypes="cccccccccccccccccccccccccccccccccccccccsccccccccccccccccccccccccccccccccccccccccccccccccccccccc" />
      <polygon
         id="_129680408"
         class="fil3"
         points="122.986,127.659 122.968,140.387 92.9234,140.387 92.9145,127.659 "
         style="fill:#da251d;fill-opacity:1"
         transform="matrix(1,0,0,1.6150103,-0.00225,-79.698101)" />
      <path
         id="_129678200"
         class="fil1"
         d="m 122.95,153.654 -2e-4,0.1387 c -0.0137,9.8654 -7.6966,15.4967 -14.9176,15.462 -7.2194,-0.0346 -15.0887,-5.8254 -15.099,-15.6007 l -0.0051,-6.63715 30.0307,0.023 z"
         style="fill:#00923f"
         inkscape:connector-curvature="0"
         sodipodi:nodetypes="ccccccc" />
      <path
         id="_129677872"
         class="fil2"
         d="M 122.968,140.387 L 122.9496,153.6928 L 92.9333,153.6928 C 92.9333,153.6773 92.9327,153.6622 92.9327,153.6467 L 92.9235,140.387 L 122.968,140.387 L 122.968,140.387 z "
         style="fill:#0093dd" />
      <g
         id="g17">
        <path
           id="_129674264"
           class="fil0"
           d="M 105.317,133.18 C 105.4397,133.7074 105.8142,134.3406 106.0427,134.8378 C 106.4592,134.8243 106.2567,134.8109 106.6733,134.7975 C 106.108,134.9432 105.9503,135.0688 105.5065,135.0359 C 104.6461,134.8414 104.0598,134.3205 103.0979,134.1437 C 103.2016,134.6726 104.3483,135.9589 104.8227,136.3286 C 105.7056,135.8835 106.3968,135.6215 106.6172,135.5534 C 106.7398,136.0034 106.8624,136.1212 106.9699,136.3899 C 107.4516,136.3743 108.1914,136.2896 108.9552,136.2338 C 108.9552,136.3279 108.9552,136.4219 108.9552,136.516 C 107.6786,136.8529 106.402,137.3867 105.1254,137.927 C 104.2731,137.4906 103.4373,137.1037 102.585,136.6674 C 102.6769,136.4659 102.8681,136.0667 103.0922,135.8653 C 102.7431,135.3819 102.3939,135.0467 102.0448,134.5633 C 102.2126,134.4357 102.3805,134.3081 102.5483,134.1806 C 102.1656,133.9388 101.7829,133.6971 101.4002,133.4554 C 101.3223,133.6774 101.2445,133.8994 101.1666,134.1214 C 100.9086,133.9762 100.6506,133.8311 100.3926,133.686 C 100.3362,133.9601 100.2797,134.2342 100.2233,134.5084 C 99.9895,134.3552 99.7556,134.202 99.5218,134.0488 C 99.4251,134.339 99.3283,134.6293 99.2316,134.9196 C 98.9413,134.7664 98.651,134.6132 98.3608,134.46 C 98.3608,134.7422 98.3608,135.0244 98.3608,135.3066 C 98.1834,135.5646 98.006,135.8226 97.8286,136.0806 C 98.2237,136.1854 98.6188,136.2902 99.0139,136.3951 C 99.0784,136.5563 99.1429,136.7176 99.2074,136.8788 C 98.4654,137.6625 98.1847,138.6685 98.5785,139.9991 C 98.9287,139.5719 99.3052,139.2368 99.7395,139.1041 C 99.326,140.613 99.5251,141.5755 99.8705,142.3676 C 100.0591,141.8398 100.3464,141.3753 100.914,141.353 C 101.1256,141.8467 101.3372,142.3404 101.5488,142.8342 C 101.2055,143.1357 100.8166,143.3917 100.4303,143.6503 C 100.2591,143.2775 100.0878,142.9047 99.9165,142.5319 C 99.5433,142.7314 98.4453,142.8342 97.7098,142.9853 C 97.7199,142.7939 97.7299,142.6024 97.74,142.411 C 97.347,142.5823 96.9211,142.7974 96.5282,142.9688 C 96.6592,143.14 96.8231,143.2674 96.9541,143.4387 C 96.7324,143.5697 96.5107,143.7556 96.289,143.8866 C 96.4402,144.0881 96.5913,144.2348 96.7425,144.4363 C 96.551,144.6076 96.3596,144.7789 96.1681,144.9502 C 96.2991,145.1215 96.5069,145.2928 96.6379,145.4641 C 96.517,145.6656 96.181,145.677 96.0601,145.8785 C 96.2912,146.0944 96.5752,146.2437 96.7987,146.3902 C 96.9457,146.6374 97.058,146.9538 97.2261,147.2476 C 97.4982,146.9755 97.7875,146.7034 98.0596,146.4314 C 98.4298,147.9494 98.8145,148.6751 99.2307,149.0406 C 99.4399,148.4037 99.7282,147.9452 100.0708,147.6087 C 100.6069,148.2316 101.2629,148.7945 102.1327,149.2506 C 102.0174,148.2333 102.281,147.5434 103.024,147.465 C 103.2104,147.885 103.3742,148.3151 103.6409,148.7351 C 100.8993,151.7964 98.6333,154.9439 99.6951,159.058 C 100.0353,158.8805 100.3755,158.7747 100.7156,158.7405 C 100.7638,158.9088 100.7941,159.1129 100.8064,159.3528 C 100.4587,159.2201 100.1109,159.1512 99.7632,159.126 C 99.3701,159.2092 98.977,159.2923 98.5839,159.3755 C 98.6595,159.5418 98.7351,159.7081 98.8107,159.8744 C 98.5612,160.0558 98.3118,160.2373 98.0623,160.4187 C 98.2815,160.5925 98.5008,160.7664 98.72,160.9403 C 98.4932,161.1519 98.2664,161.3636 98.0396,161.5753 C 98.2664,161.6887 98.4932,161.8021 98.72,161.9154 C 98.5612,162.1649 98.4025,162.4144 98.2437,162.6638 C 98.5008,162.7621 98.7578,162.8603 99.0148,162.9586 C 98.9165,163.1627 98.8183,163.3668 98.72,163.571 C 99.0828,163.6314 99.4457,163.6919 99.8085,163.7524 C 100.6022,163.3872 101.396,163.0649 102.1897,162.5278 C 103.0792,162.7066 104.0091,162.8776 104.9791,163.1371 C 105.0295,162.7727 105.0095,161.2807 105.1606,160.8722 C 105.5132,160.9872 105.765,161.1928 105.7956,161.5979 C 106.2268,160.9948 106.2569,160.2046 106.2038,159.3755 C 106.6086,159.4433 106.9402,159.63 107.1109,160.0785 C 107.4894,159.2832 107.6724,158.3932 107.5826,157.3344 C 107.7852,157.1666 107.9983,156.9821 108.1768,156.7902 C 109.1053,158.3411 110.2115,159.6253 111.709,160.3228 C 111.8564,159.9174 112.1045,159.5624 112.5742,159.3181 C 112.8997,159.4856 113.1043,159.653 113.1882,159.8205 C 112.7603,159.9228 112.4003,160.0138 111.9723,160.1162 C 111.7956,160.3766 111.5508,160.7391 111.3741,160.9996 C 111.5787,161.0926 111.7834,161.1252 111.9881,161.2182 C 111.8563,161.5153 111.7245,161.7822 111.5927,162.0792 C 111.8277,162.1531 112.0628,162.2269 112.2978,162.3008 C 112.2373,162.5761 112.1769,162.8514 112.1165,163.1267 C 112.4186,163.0931 112.7661,163.0746 113.0682,163.041 C 113.2159,163.3835 113.3184,163.7108 113.4661,164.0533 C 113.7212,163.919 113.9764,163.7847 114.2315,163.6504 C 114.339,163.8921 114.4917,164.1489 114.5991,164.3907 C 114.9751,164.2228 115.3058,164.0398 115.6819,163.872 C 116.1525,162.913 116.6011,161.91 117.0315,160.8706 C 117.6425,160.5563 118.2535,160.218 118.8645,159.8634 C 118.2266,158.9838 117.5888,158.1042 116.9509,157.2246 C 117.4273,157.0235 117.5406,156.9687 118.345,157.0222 C 118.2833,156.229 117.1378,154.7686 116.338,154.3881 C 116.8203,154.0675 117.1295,154.0956 117.6778,153.9976 C 117.0309,152.8318 115.7873,151.6654 114.4128,150.7395 C 115.441,150.1889 115.7518,149.6574 116.1049,149.1068 C 115.3391,149.1746 114.7565,149.0605 114.269,148.7972 C 113.4566,148.3583 113.4621,147.6194 112.2172,146.3875 C 112.552,145.9107 112.7997,145.434 113.0229,144.9573 C 113.5115,145.1242 113.9101,145.4428 114.1386,145.9443 C 114.5964,145.1633 114.8109,143.7303 114.7754,142.4192 C 115.1917,142.4729 115.6214,142.6878 115.984,143.0638 C 116.332,141.8753 116.2143,140.5257 115.9236,139.2567 C 116.313,139.1493 116.783,139.156 117.1725,139.3171 C 117.1691,138.7749 117.0146,137.8852 116.2056,136.5172 C 116.6353,136.3022 117.0986,136.2888 117.6358,136.7186 C 117.6223,135.9263 117.2329,135.322 116.4674,134.9057 C 117.0314,134.6867 117.4009,134.3123 117.6962,133.8784 C 117.1053,133.8986 116.5144,133.7173 115.9236,133.0928 C 116.2056,132.8503 116.4876,132.9111 116.7696,132.9921 C 116.5111,131.8338 115.9471,131.0483 114.9366,130.8569 C 114.8627,130.4675 114.7149,130.0781 114.5337,129.6886 C 113.5869,129.6281 112.7879,130.0108 112.056,130.595 C 111.7337,130.5346 111.4133,130.3642 111.0892,130.4137 C 110.3333,130.5293 109.6365,130.8004 108.8935,131.0785 C 108.5386,131.5481 108.1556,131.9914 107.9266,132.3677 C 107.1004,132.5545 105.66,132.9831 105.317,133.18 L 105.317,133.18 z M 107.4556,134.7099 C 107.8483,134.7663 108.4795,135.0856 108.8101,134.9438 C 108.88,134.7804 108.931,134.6098 108.9149,134.4681 C 108.6865,134.3337 108.0795,134.122 107.9232,134.1617 C 107.7039,134.2174 107.6088,134.5433 107.4556,134.7099 L 107.4556,134.7099 z M 107.2447,135.3146 C 107.3683,135.2824 107.5376,135.2148 107.6652,135.2179 C 107.8247,135.2217 108.0349,135.304 108.2296,135.3308 C 108.1597,135.3737 108.0778,135.4611 107.9958,135.4598 C 107.7492,135.4556 107.4866,135.363 107.2447,135.3146 L 107.2447,135.3146 z "
           style="fill:#cf9329" />
        <path
           id="_129686928"
           class="fil4"
           d="M 103.726,148.941 C 103.9678,149.2936 104.2096,149.6463 104.4515,149.999 C 103.874,151.2207 103.5262,152.4248 103.998,153.5659 C 105.0963,152.6087 105.4389,152.4172 105.8117,152.6288 C 105.1784,153.9591 105.617,154.9767 106.3559,155.9842 C 106.7287,155.3393 107.0007,154.9967 107.2929,154.8355 C 107.5448,155.4199 107.7967,156.0044 108.0487,156.5888 C 107.8068,156.8004 107.565,157.012 107.3232,157.2236 C 107.4566,158.148 107.3508,158.929 107.0813,159.6117 C 106.7387,159.2892 106.3558,159.1279 105.9327,159.128 C 106.0743,159.8941 106.0035,160.5187 105.9024,161.1231 C 105.5901,160.7089 105.2777,160.6489 104.9653,160.6394 C 104.7739,161.3145 104.8243,162.1105 104.7537,162.8461 C 103.8973,162.6849 103.0408,162.433 102.1843,162.2718 C 101.3077,162.7604 100.5419,163.1736 99.8265,163.4205 C 99.6149,162.6748 99.4033,161.9292 99.1917,161.1835 C 99.3831,160.5588 99.5746,159.9341 99.766,159.3094 C 100.1086,159.3497 100.5318,159.4706 101.0356,159.6721 C 101.0356,159.3094 100.8845,158.8862 100.8845,158.5234 C 100.5313,158.4926 100.1788,158.6742 99.8869,158.8559 C 98.8818,155.5043 100.779,152.2119 103.726,148.941 L 103.726,148.941 z M 98.9488,135.6861 C 99.8822,135.3174 100.7637,134.9486 101.6971,134.5799 C 102.1004,134.8507 102.4,135.398 102.7515,135.8071 C 102.5469,136.1542 102.4163,136.4643 102.3194,136.7578 C 103.1433,137.1784 103.9672,137.599 104.7911,138.0196 C 103.0699,138.6596 102.5672,139.2156 102.4058,139.7481 C 103.4653,139.8346 104.0415,140.0016 104.1343,140.2494 C 103.3347,140.354 102.5335,140.4791 101.6798,141.2346 C 102.2711,141.396 102.6744,141.638 102.8898,141.9606 C 102.5268,142.2141 102.1638,142.4676 101.8008,142.7211 C 101.5358,142.2141 101.2707,141.707 101.0057,141.2 C 100.3787,141.1754 100.0763,141.4894 99.8649,141.926 C 99.6959,141.2779 99.6409,140.4442 99.934,138.9184 C 99.5831,138.9096 99.023,139.0885 98.6895,139.6098 C 98.4815,138.7254 98.5158,137.8208 99.4155,136.8442 C 99.2426,136.4582 99.1216,136.0721 98.9488,135.6861 L 98.9488,135.6861 z M 105.5697,133.2516 C 106.1378,133.0135 106.9057,132.8218 108.023,132.5725 C 108.3285,132.1579 108.6917,131.6708 109.0422,131.2562 C 109.6819,131.0339 110.407,130.7483 111.1625,130.6601 C 111.4725,130.624 111.7836,130.7827 112.086,130.8604 C 113.0763,130.1372 113.8992,129.849 114.4064,129.9605 C 114.5937,130.2935 114.7397,130.6539 114.7951,131.0748 C 115.4514,131.1161 116.2424,131.6058 116.4795,132.7074 C 116.2365,132.6649 115.8324,132.7513 115.7021,133.039 C 115.9521,133.507 116.4689,133.8905 117.2829,134.0808 C 117.0155,134.371 116.5414,134.6934 116.1426,134.887 C 116.7736,135.2683 117.2566,135.6552 117.3865,136.2576 C 116.6959,136.1019 116.1978,136.1298 115.9728,136.4755 C 116.4214,137.2961 116.8986,138.1838 116.9719,139.0045 C 116.4544,138.8605 116.0483,138.9209 115.7539,139.1859 C 115.9068,140.3701 116.1294,141.5542 115.8363,142.7384 C 115.5423,142.3496 115.1006,142.1825 114.5917,142.1161 C 114.5403,143.2224 114.4483,144.3286 114.0732,145.4349 C 113.9117,145.0604 113.5487,144.7665 112.9842,144.5533 C 112.7191,145.2908 112.3734,145.9476 111.9471,146.5238 C 112.7185,147.0058 112.9734,147.8543 113.4782,148.5188 C 113.8755,149.0417 114.7449,149.5032 115.7319,149.3284 C 115.3325,149.8405 114.6611,150.3124 114.02,150.7439 C 115.2015,151.607 116.4378,152.5666 117.2563,153.7928 C 116.7404,153.8995 116.2471,153.9989 115.9134,154.4098 C 116.7397,154.9351 117.5108,155.5943 118.0548,156.8053 C 117.6072,156.7733 117.1595,156.8822 116.7119,157.132 C 117.3531,158.0031 118.0014,158.9192 118.6426,159.7903 C 118.0498,160.1532 117.4499,160.4712 116.8571,160.8342 C 116.4094,161.7416 116.0625,162.7094 115.6148,163.6168 C 114.8526,163.278 113.9897,162.8788 113.2275,162.5401 C 112.8766,161.8142 112.5258,161.0077 112.1749,160.2818 C 112.6225,160.1487 113.0702,160.0962 113.5179,159.9631 C 113.4148,159.6425 113.0532,159.3588 112.5742,159.092 C 112.1458,159.332 111.8265,159.6156 111.6668,159.9631 C 109.5307,159.047 108.3864,156.8557 107.3838,154.4824 C 106.7562,154.8816 106.4379,155.2808 106.3313,155.6802 C 105.3831,154.1102 105.7453,153.2683 106.1498,152.4498 C 105.7403,152.1836 105.2376,152.0949 104.0809,153.2483 C 103.7935,151.9371 104.234,150.9898 104.6979,150.0543 C 104.0723,149.0985 103.5773,148.1427 103.1009,147.1869 C 102.4186,147.3066 101.9607,147.8048 101.8306,148.8565 C 101.1603,148.4276 100.6038,147.9134 100.0884,147.3684 C 99.7278,147.55 99.3915,147.913 99.1084,148.675 C 98.5854,147.9127 98.3414,147.0766 98.2373,146.2069 C 97.8359,146.2211 97.4766,146.1193 97.1484,145.9529 C 97.3299,145.0455 97.5114,144.1381 97.6928,143.2307 C 98.3946,142.9768 99.3017,143.0249 99.798,142.8314 C 99.9553,143.1944 100.1851,143.6056 100.3423,143.9686 C 101.3038,143.3459 102.2045,142.6632 103.2098,141.9966 C 103.0199,141.6941 102.6185,141.3587 102.1209,141.1551 C 102.6122,140.7663 103.5046,140.5275 104.4802,140.3996 C 104.3384,139.8887 103.7331,139.6649 102.8106,139.6374 C 102.9437,139.3228 103.2279,139.0594 103.5365,138.9114 C 105.3172,138.0575 107.1903,137.266 109.0172,136.6611 C 109.1207,136.4675 109.1207,136.2739 109.0172,136.0804 C 108.3635,136.1533 107.7373,136.1853 107.1298,136.1893 C 106.9903,135.9715 106.8884,135.7105 106.8412,135.4928 C 107.2525,135.5533 107.6941,135.7254 108.1098,135.7174 C 108.3393,135.713 108.5453,135.5722 108.7631,135.4996 C 109.0293,135.1286 109.071,134.7326 109.126,134.3382 C 108.751,134.2051 108.3451,133.9605 107.9491,133.9993 C 107.6407,134.0295 107.4824,134.4037 107.3181,134.5973 C 106.9551,134.6215 106.5404,134.6112 106.1775,134.6354 C 105.9236,134.2247 105.713,133.745 105.5697,133.2516 L 105.5697,133.2516 z M 108.7086,132.7314 C 108.6498,132.7341 108.5834,132.8034 108.609,132.8564 C 108.6772,132.9985 108.796,133.0493 108.9376,133.0778 C 109.0417,133.0988 109.2017,132.9821 109.3059,133.0031 C 109.4926,133.0407 109.6671,133.2952 109.7918,133.286 C 109.9091,133.2774 109.9417,133.0388 109.8699,132.9157 C 109.8366,132.8586 109.7521,132.9253 109.6894,132.9044 C 109.6112,132.8783 109.5546,132.7844 109.4554,132.7775 C 109.3167,132.7678 109.2012,132.8456 109.0366,132.8452 C 108.9298,132.8449 108.8153,132.7266 108.7086,132.7314 L 108.7086,132.7314 z M 109.2432,133.0521 C 109.3585,133.0521 109.4521,133.1791 109.4521,133.3357 C 109.4521,133.4923 109.3585,133.6193 109.2432,133.6193 C 109.1277,133.6193 109.0342,133.4923 109.0342,133.3357 C 109.0342,133.1791 109.1277,133.0521 109.2432,133.0521 z "
           style="fill:#1f1a17" />
        <path
           id="_129685976"
           class="fil3"
           d="M 103.372,134.404 C 104.1331,134.6738 105.1149,135.1794 105.6432,135.2013 C 106.0466,135.218 106.8135,134.8096 107.376,134.8325 C 107.8087,134.8502 108.0568,135.1068 108.7117,135.0926 C 108.6634,135.161 108.615,135.1998 108.5667,135.2683 C 108.185,135.2931 107.7672,135.1034 107.564,135.1409 C 106.7586,135.2897 105.7479,135.7933 104.8459,136.1315 C 104.2768,135.6066 103.8169,135.0282 103.372,134.404 L 103.372,134.404 z "
           style="fill:#da251d" />
        <path
           id="_129675424"
           class="fil3"
           d="M 112.034,160.201 L 113.1492,162.62 L 115.6528,163.7784 L 114.645,164.2803 L 114.2697,163.5311 L 113.5145,163.9217 L 113.1205,162.9326 L 112.2687,163.0219 L 112.394,162.2287 L 111.7201,162.018 L 112.098,161.1522 L 111.5208,160.9616 L 112.034,160.201 L 112.034,160.201 z M 98.7567,159.4487 L 99.688,159.2394 L 99.1065,161.1732 L 99.8048,163.6306 L 98.8771,163.4829 L 99.1133,162.9161 L 98.4317,162.5915 L 98.8688,161.8659 L 98.2863,161.5357 L 98.8822,160.937 L 98.2997,160.3998 L 98.9225,159.8923 L 98.7567,159.4487 L 98.7567,159.4487 z M 101.4836,133.7103 L 102.3141,134.1971 L 98.8107,135.6386 L 99.0398,136.24 L 98.1043,135.9822 L 98.5148,135.3904 L 98.4766,134.7126 L 99.3167,135.1422 L 99.5839,134.264 L 100.2999,134.7222 L 100.5004,133.9108 L 101.2449,134.3117 L 101.4836,133.7103 z M 97.6094,142.6191 C 97.4854,143.8279 97.2325,144.908 97.0053,146.0138 C 97.2439,146.1578 97.5963,146.3007 97.9959,146.3521 C 97.7825,146.5292 97.4966,146.791 97.2832,146.9682 C 97.1543,146.7427 97.0496,146.4809 96.9208,146.2554 C 96.6083,146.1346 96.4676,146.0138 96.2926,145.893 C 96.4295,145.752 96.6953,145.7198 96.8241,145.4581 C 96.6872,145.2728 96.5141,145.1359 96.3771,144.9507 C 96.5503,144.7896 96.7234,144.6044 96.8966,144.4433 C 96.7718,144.2581 96.5804,144.0849 96.4555,143.8997 C 96.6689,143.7386 96.949,143.5835 97.1624,143.4224 C 97.0375,143.2895 96.8704,143.1265 96.7455,142.9936 C 97.0032,142.8567 97.3516,142.7561 97.6094,142.6191 L 97.6094,142.6191 z "
           style="fill:#da251d" />
      </g>
    </g>
  </g>
</svg>
