<?xml version="1.0" encoding="UTF-8" standalone="no"?>
<!-- Created with Inkscape (http://www.inkscape.org/) -->

<svg
   xmlns:dc="http://purl.org/dc/elements/1.1/"
   xmlns:cc="http://creativecommons.org/ns#"
   xmlns:rdf="http://www.w3.org/1999/02/22-rdf-syntax-ns#"
   xmlns:svg="http://www.w3.org/2000/svg"
   xmlns="http://www.w3.org/2000/svg"
   version="1.1"
   width="400"
   height="636"
   id="svg2"
   style="display:inline">
  <defs
     id="defs144" />
  <path
     d="m 3.0562002,133.05014 0,3.74927 0,404.76731 c 0,27.84485 21.4691988,49.36576 46.9879518,49.36576 l 99.751798,0 c 16.10492,0 26.28155,5.38108 33.25066,12.4976 6.96902,7.11624 10.70967,16.20663 12.64463,23.43285 l 0.62442,2.18721 5.93199,0 0.62445,-2.18721 c 1.93496,-7.22622 5.67546,-16.31661 12.64457,-23.43285 6.96917,-7.11652 17.14552,-12.4976 33.25071,-12.4976 l 99.75176,0 c 25.51867,0 46.98785,-21.52091 46.98785,-49.36576 l 0,-404.76731 0,-3.74927 -3.74647,0 -192.479,0 -192.4787735,0 z"
     id="path4021"
     style="font-size:medium;font-style:normal;font-variant:normal;font-weight:normal;font-stretch:normal;text-indent:0;text-align:start;text-decoration:none;line-height:normal;letter-spacing:normal;word-spacing:normal;text-transform:none;direction:ltr;block-progression:tb;writing-mode:lr-tb;text-anchor:start;color:#000000;fill:#ffffff;fill-opacity:1;stroke:none;stroke-width:1.5;marker:none;visibility:visible;display:inline;overflow:visible;enable-background:accumulate;font-family:Sans;-inkscape-font-specification:Sans" />
  <rect
     width="115.51353"
     height="7.503675"
     x="142.28085"
     y="124.25307"
     id="rect4412"
     style="fill:#b17842;fill-opacity:1;stroke:#b17842;stroke-width:1.27240896;stroke-opacity:1" />
  <path
     d="M 200.01401,0.63597309 C 194.41755,5.9141774 189.3126,11.693956 184.41213,17.66764 c 5.80018,4.444839 10.63978,9.369571 15.60188,14.149403 4.96209,-4.779832 9.8017,-9.704564 15.60188,-14.149403 C 210.71542,11.693956 205.61046,5.9141774 200.01401,0.63597309 z M 151.11064,24.742349 c -3.563,4.711302 -6.04289,9.922565 -8.12872,15.328507 4.78607,3.013461 9.32753,6.423105 13.76637,9.956972 2.51875,-5.388154 4.82125,-10.726422 7.99761,-16.114577 -4.41842,-3.268786 -8.95464,-6.338824 -13.63526,-9.170902 z m 97.80674,0 c -4.68063,2.832078 -9.21686,5.902116 -13.63526,9.170902 3.17634,5.388155 5.47886,10.726423 7.9976,16.114577 4.43884,-3.533867 8.98031,-6.943511 13.76636,-9.956972 -2.08581,-5.405942 -4.56571,-10.617205 -8.1287,-15.328507 z m -69.88069,0.262014 c -7.13417,10.066882 -12.35651,19.222793 -17.30628,29.346889 5.32659,4.916972 9.7482,9.97514 13.50414,15.066493 2.30034,-6.121189 5.61537,-12.132591 9.30868,-18.079778 2.43216,2.559997 4.62462,5.39232 6.81764,8.253799 -5.87332,9.120595 -10.63244,18.3878 -13.89748,27.381702 -5.32089,-8.755943 -11.61917,-16.943791 -19.14179,-24.761438 -4.22303,10.231035 -7.87971,20.42598 -10.35756,30.657015 -7.40298,-14.658684 -16.00288,-28.770871 -25.82832,-42.448168 8.44055,2.34593 13.40367,5.019243 18.09293,9.039882 -1.01237,1.230484 -1.68804,2.169975 -2.35994,3.144306 l 8.65314,12.970285 c 2.06136,-6.175677 4.36727,-12.07455 6.94874,-18.079779 C 140.39598,44.86842 119.36634,30.040511 97.35626,28.41071 c 21.44264,23.554547 35.58378,53.729063 45.10124,83.58622 -0.39647,0.12781 -0.78363,0.26257 -1.17998,0.39304 l 1.04886,13.75635 c 38.50451,-4.09919 77.00187,-4.28478 115.50636,0 l 0.91775,-13.75635 c -0.35074,-0.11289 -0.69813,-0.15119 -1.04887,-0.26203 9.51784,-29.895773 23.63019,-60.131505 45.10124,-83.71723 -22.01008,1.629801 -43.17082,16.45771 -56.24543,29.084861 2.58146,6.005229 5.01848,11.904102 7.07984,18.079779 l 8.52204,-12.970285 c -0.6719,-0.974331 -1.34759,-1.913822 -2.35996,-3.144306 4.68928,-4.020639 9.65238,-6.693952 18.09294,-9.039882 -9.82543,13.677297 -18.42534,27.789484 -25.82832,42.448168 -2.47784,-10.231035 -6.00342,-20.42598 -10.22643,-30.657015 -7.52264,7.817647 -13.95202,16.005495 -19.27291,24.761438 -3.28018,-9.035554 -7.98527,-18.351276 -13.89748,-27.512709 2.18042,-2.841182 4.5324,-5.579442 6.94874,-8.122792 3.69331,5.947187 7.00834,11.958589 9.30868,18.079778 3.75595,-5.091353 8.04643,-10.149521 13.37304,-15.066493 -4.94977,-10.124096 -10.041,-19.280007 -17.17518,-29.346889 -7.90391,6.956848 -14.99353,14.502251 -21.10842,22.272195 -6.11489,-7.769944 -13.07341,-15.315347 -20.97732,-22.272195 z m 20.97732,47.688695 c 5.52945,9.818911 9.67251,20.330275 11.66863,30.526002 -7.74038,-0.5104 -15.51994,-0.47776 -23.20616,0 1.99323,-10.185836 6.01651,-20.715354 11.53753,-30.526002 z"
     id="path4414"
     style="fill:#d1a345;fill-opacity:1;stroke:#b17842;stroke-width:1.27240896;stroke-linecap:butt;stroke-linejoin:round;stroke-miterlimit:4;stroke-opacity:1;stroke-dasharray:none" />
  <path
     d="m 234.15395,119.52311 10.9395,-3.61295 -10.66138,-5.37314 -11.21762,3.42769 z m -45.89023,-6.11424 11.77386,-5.00257 11.77385,5.00257 -11.77385,4.63201 z m -22.34252,6.11424 -10.9395,-3.61295 10.66139,-5.37314 11.21762,3.42769 z"
     id="path4416"
     style="fill:#b17842;fill-opacity:1;stroke:none;display:inline" />
  <path
     d="m 257.79434,126.10588 c 3.65447,1.871 0.79488,6.07078 0,5.65086 -7.29431,-3.85351 -32.05321,-6.31263 -57.75676,-6.11425 -25.70354,-0.19838 -50.46244,2.26074 -57.75675,6.11425 -0.79488,0.41992 -3.65447,-3.77986 0,-5.65086 7.34323,-3.75959 32.05321,-6.31263 57.75675,-6.11425 25.70355,-0.19838 50.41353,2.35466 57.75676,6.11425 z m 1.29795,-18.71862 c 2.26438,1.031 2.22646,6.11442 -0.27816,5.00787 -7.13693,-3.15312 -33.073,-5.75678 -58.77655,-5.55839 -25.70354,-0.19839 -51.63961,2.40527 -58.77654,5.55839 -2.50462,1.10655 -2.54254,-3.97687 -0.27817,-5.00787 7.10103,-3.23313 33.35113,-5.75679 59.05471,-5.5584 25.70359,-0.19839 51.95369,2.32527 59.05471,5.5584 z"
     id="path4418"
     style="fill:#d1a345;fill-opacity:1;stroke:#b17842;stroke-width:2.54481792;stroke-linecap:butt;stroke-linejoin:round;stroke-miterlimit:4;stroke-opacity:1;stroke-dasharray:none;display:inline" />
  <path
     d="m -1.9119996e-7,131.19628 0,3.81584 0,411.95163 C -1.9119996e-7,575.30288 21.882181,597.20563 47.891808,597.20563 l 101.670642,0 c 16.41475,0 26.78703,5.47675 33.89021,12.71946 7.10318,7.24273 10.91574,16.49436 12.88783,23.849 l 0.63644,2.2259 6.04613,0 0.63644,-2.2259 c 1.97209,-7.35464 5.78465,-16.60627 12.88783,-23.849 7.10318,-7.24271 17.47547,-12.71946 33.89022,-12.71946 l 101.67064,0 c 26.00961,0 47.8918,-21.90275 47.8918,-50.24188 l 0,-411.95163 0,-3.81584 -3.81861,0 -196.18138,0 -196.1813846,0 -3.81861559119982,0 z M 7.6372311,138.82796 l 192.3627689,0 192.36276,0 0,408.13579 c 0,24.44666 -18.53149,42.6102 -40.25457,42.6102 l -101.67064,0 c -18.17489,0 -30.88711,6.52626 -39.29993,15.10437 -5.35018,5.45528 -8.64407,11.43174 -11.13762,17.33026 -2.49309,-5.88697 -5.6401,-11.88694 -10.97853,-17.33026 -8.41282,-8.57811 -21.28414,-15.10437 -39.45902,-15.10437 l -101.670643,0 c -21.723082,0 -40.2545759,-18.16354 -40.2545759,-42.6102 l 0,-408.13579 z"
     id="path4185-7"
     style="font-size:medium;font-style:normal;font-variant:normal;font-weight:normal;font-stretch:normal;text-indent:0;text-align:start;text-decoration:none;line-height:normal;letter-spacing:normal;word-spacing:normal;text-transform:none;direction:ltr;block-progression:tb;writing-mode:lr-tb;text-anchor:start;color:#000000;fill:#000000;fill-opacity:1;stroke:none;stroke-width:1.5;marker:none;visibility:visible;display:inline;overflow:visible;enable-background:accumulate;font-family:Sans;-inkscape-font-specification:Sans" />
  <path
     d="m 193.41904,231.63299 c 1.4383,-3.44998 4.26779,-5.79572 8.68343,-5.20768 2.55878,0.34092 3.54241,0.60104 5.35885,2.41613 1.07105,1.07029 1.39028,4.27818 2.02575,4.70197 -1.51069,3.10853 -7.87715,2.99022 -10.45588,1.5021 -2.18664,-1.26148 -4.66895,-0.63398 -5.61214,-3.41253 z"
     id="path4927"
     style="fill:#1f1a17;fill-rule:evenodd;stroke:#1f1a17;stroke-width:0.38052934;display:inline" />
  <path
     d="m 172.56691,365.68869 c -3.61486,0 -6.53228,-1.10872 -9.28335,-3.108 -3.33661,-2.42512 -7.22971,-5.82819 -7.72579,0.13079 -0.19653,2.35976 -5.10655,-6.69875 -5.10655,-2.74759 0,0.89755 -0.70837,3.99608 -0.26221,4.71046 2.04571,3.26976 -9.96486,-3.59325 -11.12979,-4.44888 -3.0024,-2.20399 -4.28577,-5.3844 -6.93995,-8.11252 -0.93073,-2.7935 -5.58714,-9.97254 -7.46403,-12.95425 -3.80568,-6.04581 -7.80768,-5.9445 -8.64192,-8.11251 -2.41392,-6.27046 -11.23421,-24.86321 -20.034599,-19.3655 -3.438994,2.14857 -1.964255,-15.66294 -1.964255,-19.36499 0,-12.77754 0.338591,-24.97401 13.618104,-10.59904 14.28752,15.46622 22.08372,23.80837 41.77108,32.05771 8.66193,3.62969 13.80296,-12.36719 21.18705,-12.22096 13.82644,16.72921 18.91895,48.92166 1.97625,64.1352 z"
     id="path4929"
     style="fill:#1f1a17;fill-rule:evenodd;stroke:#1f1a17;stroke-width:0.38052934;display:inline" />
  <path
     d="m 197.85174,475.12717 c -1.42623,-0.82916 -3.61388,-5.71332 -6.69566,-5.51867 l 0.0255,19.26067 c 0.01,5.23615 -2.805,10.42931 -1.78447,12.20001 -2.84899,-1.17263 -4.07187,-6.07528 -4.86176,-5.97148 -0.47249,0.57558 0.9877,3.93174 1.45378,9.04904 0.9407,10.32896 3.96351,17.95331 1.26386,21.22807 -1.096,1.32928 -6.99341,3.02209 -10.37747,5.84755 -4.94721,4.12939 -9.40978,9.50483 -10.42691,9.96055 -5.88285,2.63527 -10.66768,2.61675 -23.94807,2.61675 -7.06336,0 -16.85633,3.53535 -19.36415,5.9435 -0.0357,-2.00672 0.21537,-2.95967 0.79086,-5.03284 0.86525,-3.11356 2.80806,-3.65318 2.66616,-3.6312 -0.14206,0.0204 -4.02498,0.61405 -7.58239,3.75845 -3.55738,3.14451 -2.45634,2.83343 -2.61571,2.64824 -3.09929,-4.48086 5.93082,-10.97944 5.16949,-11.30939 -2.27151,-0.98442 -9.32037,5.06337 -11.15926,5.51821 -0.95369,-3.90131 9.44276,-11.4527 9.4138,-11.21357 -0.13346,1.07526 -7.99705,3.54476 -9.12109,3.98714 -0.20977,-0.84274 -0.2617,-3.42504 3.6314,-5.52025 6.51029,-3.50435 11.00892,-4.15472 19.46353,-4.64951 5.46821,-0.31952 9.82891,0.21622 12.87673,-0.96496 2.86304,-1.10969 5.24597,-2.79752 6.95793,-4.95856 2.6632,-3.36114 4.88029,-9.29558 2.56024,-17.11414 -1.15347,-3.88823 -3.08075,-5.77871 -3.65176,-7.14451 -1.67703,1.46162 -3.64234,1.09672 -4.11443,3.71301 -2.41092,-3.09104 -2.67216,-9.71243 -4.28825,-10.84263 -1.25591,-0.87809 -4.66697,3.42998 -5.26491,6.29792 -0.55355,-5.93953 0.4669,-18.03462 -0.8852,-18.30372 -0.94922,2.66626 -2.88896,2.94283 -5.11557,4.02209 0.90873,-1.00488 1.75697,-2.90583 2.42838,-5.15626 1.43676,-4.81528 0.66943,-11.53754 0.72788,-13.27025 0.32128,-9.4938 2.91442,-18.2024 6.20261,-24.20179 4.75188,-8.66962 16.60399,-12.36571 23.93314,-18.57576 7.59039,-6.4322 15.29116,-18.86034 17.42729,-26.3773 1.78091,-11.57148 -7.24019,-16.46415 -8.68093,-15.35489 -0.65293,-0.42788 -1.15745,-1.17765 -1.59308,-1.72627 -4.41269,-5.55956 -1.42078,-14.04703 -4.02151,-20.8042 -1.65157,-4.29014 -2.72761,-7.89486 -4.23377,-5.46326 -1.01413,-2.49 -0.86973,-1.238 -1.56564,-5.92104 -0.69539,-4.68351 3.44399,-21.91691 2.67914,-21.6868 -3.8736,1.16662 -4.12736,2.41762 -6.08014,2.89686 1.35331,-2.67323 2.84497,-4.55071 4.21427,-7.54544 1.82194,-3.98312 4.81828,-11.11672 6.25805,-13.96564 1.43926,-2.84944 5.46825,-8.3631 6.0048,-9.4798 -2.94593,1.04233 -6.18713,4.29664 -6.80406,4.30661 -0.32891,-1.76419 3.97503,-7.24691 4.18887,-12.75307 0.12776,-3.27975 -2.65068,-6.04632 -4.77537,-8.17193 -2.12315,-2.12362 -5.11805,-3.1979 -8.29774,-3.1979 -1.99927,0 -3.29965,1.68931 -4.1654,1.78665 -0.72137,0.0814 -1.12852,-1.44718 -1.12852,-4.92112 0,-0.89906 0.0305,-2.01077 0.78779,-2.13858 1.62959,-1.39477 5.86993,-1.32588 9.47874,-0.29805 2.58026,0.73434 5.02758,2.71715 6.24353,3.00718 8.17886,1.95339 9.51868,-5.47022 4.01052,-8.92971 -2.94941,-1.85204 -8.05199,-1.52356 -12.76386,-1.31589 -2.77761,0.12278 -5.2065,1.04881 -7.23424,0.60703 -0.92767,-0.2022 -1.91231,-1.73723 -2.38541,-2.53894 -0.60146,-1.02037 -1.53366,-3.35364 -3.06884,-5.21817 -1.44772,-1.75918 -3.44648,-3.12499 -3.56185,-4.54723 -0.0565,-0.69438 0.93465,-1.77766 1.50117,-2.20248 4.13287,-3.09704 12.60999,-5.02843 19.05841,-6.09027 3.94753,-0.65047 6.05718,-0.0803 9.10806,-1.877 2.81951,-1.65984 8.37468,-6.17164 11.50198,-6.33435 4.10342,-0.21313 8.83123,0.53165 13.13604,1.12418 1.49515,0.20571 2.71161,0.96248 4.14787,0.96248 5.2539,-1.47564 14.02776,-7.15553 17.02563,0.72135 0.54102,1.42122 1.11055,3.40803 1.30088,5.25209 0.0998,0.96546 -0.28768,2.01179 -0.0254,2.67971 0.31515,0.80721 2.7691,1.01787 4.4936,2.66374 5.01165,4.78185 12.22435,13.59525 14.68715,16.11371 1.50174,1.53603 2.40741,2.66973 2.12366,3.01566 -0.27901,0.34047 -2.65266,-0.60603 -3.47443,-0.22163 -0.2281,0.56062 0.19551,1.94141 1.08999,4.06201 1.44674,3.42751 9.36034,6.34534 12.87377,8.49092 0.87823,0.53562 1.95034,2.07717 1.83844,2.55541 -0.92574,-0.025 -4.8638,0.23561 -3.6029,3.77895 0.26476,0.74431 2.38343,1.45666 5.1925,2.41014 5.58114,1.89496 12.77984,7.73661 14.23254,9.73741 1.45276,2.00032 2.33501,3.09705 3.38254,4.50481 1.0881,1.46266 2.50685,2.5 0.13089,2.7431 -0.64794,0.0659 0.24948,3.65366 1.77093,3.65366 -16.25031,22.41362 -29.15158,46.34728 -13.59566,72.25656 4.3073,7.17351 27.16084,19.95907 36.20094,16.5605 1.69948,2.02224 9.33386,10.08987 7.98906,14.27615 -2.10473,-0.81873 -1.33734,-1.49862 -1.12705,0.87456 l 0.65343,7.37921 c 0.3834,4.32656 -2.97287,-0.39187 -5.35884,-0.39187 -3.34159,0 0.41241,1.02884 2.29199,3.72453 2.07121,2.96977 4.49109,14.75888 5.69808,23.33716 0.56302,4.00357 6.283,7.50149 7.90856,9.42741 -4.28672,-1.35783 -1.05257,6.63637 3.19821,13.69259 3.11127,5.16424 7.0763,10.38588 9.42582,15.31503 1.64609,3.45394 7.05284,13.44702 4.45709,17.05023 -1.29736,1.80209 -4.30725,3.425 -6.99687,6.8241 -5.24795,6.10071 -9.72704,16.92085 -10.38943,24.6551 -0.90573,10.86603 -12.48912,11.73412 -20.31483,13.73896 -3.87906,4.61059 -4.66839,3.95514 -5.33584,4.09236 -1.30235,-1.51805 -0.78179,-3.06011 -0.52355,-6.80405 0.0305,-0.44416 -1.32781,1.01485 -3.27363,2.02773 -2.79507,1.45568 -6.57026,2.79258 -7.21123,3.00917 -0.28818,-1.24549 1.58162,-5.11677 1.32084,-4.65303 -0.38899,0.69296 -2.37391,0.86711 -4.33718,1.80164 -1.81191,0.86212 -3.42204,2.0752 -4.17634,2.39421 -0.0657,-1.50513 -0.92217,-0.22438 0.0459,-3.7985 0.51006,-1.8844 0.89223,-2.53188 0.75282,-2.53392 -0.13899,0 -3.45793,0.30832 -4.79729,1.55107 -2.13263,1.97924 -3.78166,2.66915 -4.37318,2.81792 -0.1558,-1.36938 1.02959,-4.82134 2.83905,-7.10107 2.06068,-2.85196 4.08043,-5.23071 7.37808,-5.98853 3.51089,-0.80611 7.47145,-0.46808 10.35248,-3.2402 3.93948,-3.79097 9.5756,-10.82172 11.18274,-16.95043 2.54676,-9.71095 1.04751,-23.02563 -10.56928,-25.93599 -1.80096,-0.45078 -1.17649,2.45409 0.84326,4.20073 -1.59114,1.97436 -7.53744,-5.44724 -8.13794,-4.66851 -0.20009,1.83258 -0.11255,4.22673 1.16097,5.56009 -1.09457,0.19384 -2.36297,-1.86849 -4.65647,-3.6072 -4.84526,-3.67216 -5.88389,-3.74552 -11.35113,-3.74552 6.51885,-8.85533 12.97022,-19.43342 6.03928,-32.40213 -20.42567,-38.21735 -55.11474,-5.92253 -68.81288,12.85294 -3.83516,5.25709 -5.18202,10.71883 -5.13599,11.73674 z"
     id="path4931"
     style="fill:#1f1a17;fill-rule:evenodd;stroke:#1f1a17;stroke-width:0.38052934;display:inline" />
  <path
     d="m 206.97085,237.17147 c 3.3161,1.05433 5.94381,-4.63255 10.35446,-2.11361 2.70613,1.54553 2.70913,4.67801 2.70913,7.52844"
     id="path4933"
     style="fill:none;stroke:#1f1a17;stroke-width:0.38052934;display:inline" />
  <path
     d="m 302.61572,398.17831 c 2.58627,1.73125 0.88424,0.68889 2.87899,3.26777 -0.10591,0.13133 -0.50407,-0.26456 -1.21194,-0.29352 3.31013,3.67961 2.8935,1.36282 4.32873,6.18013 -1.27837,-0.8082 -2.29147,-2.40812 -3.84865,-2.7561 1.35785,1.7572 2.63673,4.67801 2.81157,6.86953 -0.54149,-0.617 -2.12066,-2.26139 -2.34896,-2.61578 -0.0204,2.27935 2.91697,4.92361 2.18013,8.10004 -1.92536,-1.33986 -2.59677,-2.33077 -5.11405,-3.06362 0.29327,0.79222 0.10441,0.94899 0.45977,1.80364 -1.30292,-0.54765 -5.38883,0.11275 -6.64923,-0.54315 l 2.09214,-17.51998 c 1.5247,0.45729 2.89746,-0.4493 4.4216,0.57111 z"
     id="path4935"
     style="fill:#a92211;fill-rule:evenodd;stroke:#1f1a17;stroke-width:0.38052934;display:inline" />
  <path
     d="m 195.72422,240.1753 c -2.52782,0.72134 0.98714,3.2538 -2.5238,3.81988 -2.43388,0.39187 -4.43713,1.55752 -7.12529,1.55752"
     id="path4937"
     style="fill:none;stroke:#1f1a17;stroke-width:0.38052934;display:inline" />
  <path
     d="m 173.34941,278.43037 1.21544,-0.71934 c 0.0692,0.26608 0.12328,0.54563 0.15836,0.83965 l 1.15449,-0.62149 -0.50558,1.48462 1.59308,-1.2505 c 0.0524,0.46477 0.0509,1.04882 0.01,1.70776 l -0.51159,1.67333 0.38492,-0.11926 c -0.26985,2.71316 -0.76236,5.97594 -0.37627,7.59837 l 8.44113,-2.89688 0,0 0.32483,1.04582 -0.73887,1.74671 1.04411,-0.76478 0.31159,1.00391 -1.08209,2.00079 1.33784,-1.17812 0.3951,1.27097 c 0,0 1.96079,-0.85763 2.87252,-1.21854 l -1.70856,2.65524 -0.65593,0.8192 -0.71036,1.25649 -1.09351,-0.43679 -2.78809,1.42021 0.43736,-5.62648 -3.33513,2.6218 -1.6945,3.11402 1.6945,-0.49173 -7.69425,9.17782 c -2.72863,4.30163 -5.89635,8.86083 -8.07245,13.47644 l 6.63124,-3.89476 0.17974,2.97374 5.45726,-8.78644 -0.29989,9.20077 2.75958,-5.10332 1.18093,-2.22944 c 1.20398,2.77756 0.68042,3.5608 1.94682,8.01716 l 1.84689,-5.24161 0.43787,4.09694 1.25739,-3.11352 0.93969,2.90485 0.72186,-2.69419 1.09152,2.36822 1.62017,-2.90685 0.9796,1.59495 36.41325,-5.58258 0.21893,-2.89537 -0.27342,-1.69328 4.26378,-6.88348 0,0.98343 1.64007,-2.07568 -5.74005,-7.97574 -0.98414,4.37001 -7.81721,-6.28246 -0.055,3.27775 -1.14797,4.04254 -1.8584,-1.91193 -1.85885,-3.4415 -0.6015,2.13058 -1.96776,2.34876 -2.13217,-1.2565 -0.3284,-1.47464 2.46041,1.58397 1.25689,-1.52955 0.32839,-2.84046 0.92921,-0.10936 3.44454,4.80731 0.54646,-3.0591 -0.21893,-4.20627 7.48948,5.24411 0.16445,-5.57211 1.96781,1.14718 0.32841,-1.03785 5.75597,6.30093 0.40477,-4.93411 3.6089,0.92604 -2.65368,-4.69552 6.97691,3.1904 -2.60327,-3.90074 9.28891,2.9887 -5.35284,-6.48461 7.56341,3.25679 -4.8303,-6.42522 6.74715,3.29822 -6.41894,-5.70189 1.25743,0.10881 -9.90431,-5.7368 5.20294,1.1187 -2.35445,-4.70944 2.84251,-1.39278 -4.86277,-4.39846 -1.29736,3.52884 -5.48969,0.8821 0.65645,1.80261 -2.62426,-0.3824 0.32789,3.27776 -2.07718,-1.14717 2.93245,3.54483 -0.65594,-0.055 0.0544,1.74819 -3.31511,-1.74171 0.055,3.98763 -3.99102,-2.07568 0.38288,5.08036 -5.24789,-3.11401 -0.98414,7.48402 -4.42817,-5.13477 2.73368,1.25648 1.58508,-5.299 4.3187,2.02126 0.60151,-4.47983 3.88159,2.45858 -1.03911,-5.13529 2.67918,1.42023 -1.695,-2.94979 3.00688,0.49174 -1.20296,-3.66014 2.84298,0.81969 c 0,0 -1.31233,-1.96685 -0.98409,-1.91243 0.32789,0.0548 4.06443,-0.0624 4.06443,-0.0624 l -2.56076,-2.62779 5.20997,0.81319 -3.11879,-2.08765 c 0.24693,-0.0524 0.4954,-0.10636 0.74784,-0.16225 l 3.20973,-0.32047 c -0.63701,-1.33737 -3.86868,-1.08178 -2.913,-3.3102 0.31821,-0.89108 -2.84503,-2.60883 -3.64134,-3.05462 l 0,0 0,-0.89107 1.59262,0 c 0,-0.66844 -1.27389,-2.00529 -2.22956,-2.00529 l -4.2353,-1.65934 c -1.38727,-4.4e-4 -1.7195,-1.64787 -1.58213,-2.99272 l -0.19806,-3.56579 c -0.47809,-4.23372 -1.15551,-5.37489 -3.38554,-6.71174 -4.61848,-2.89738 -13.59864,2.20547 -13.91686,1.98281 -0.83277,0 -8.9187,-1.79262 -11.82574,-2.09114 -2.51978,0 -4.56849,-0.40886 -6.18708,0.0529 -6.49933,1.85353 -7.3546,6.18211 -13.19402,7.33977 -7.50843,1.48812 -10.22656,1.80911 -15.55343,2.97573 -4.14039,1.55951 -5.10655,3.26528 -5.90286,7.05322 -1.115,5.1253 2.41244,8.43948 4.66945,9.52626 1.27389,0.22264 14.4389,-1.53555 16.15895,-1.26048 6.09416,0.22762 13.84589,10.63898 8.64494,14.08444 -3.3446,2.00578 -17.99632,-4.01109 -22.77413,-4.01109 -5.25543,0 -3.82217,3.78844 -2.54778,3.56529 3.82167,-0.66842 2.0702,-0.89106 5.73302,0 3.81363,0.92004 8.92915,1.53656 10.95591,4.73394 l -0.54447,2.27686 z"
     id="path4939"
     style="fill:#a92211;fill-rule:evenodd;display:inline" />
  <path
     d="m 292.57883,424.95362 c -0.19043,0.14825 -2.31954,-0.41537 -3.17624,-0.3994 1.26489,2.20399 -2.42145,-1.05829 -2.75414,-1.13668 -2.25898,-0.5366 7.74472,7.86588 6.17862,7.21593 0.50813,1.06133 2.54983,-16.73573 6.83706,-14.07848 1.64308,1.01788 8.01548,9.0675 8.44362,15.31947 0.0733,1.07528 -3.27514,-1.77809 -2.96589,-0.78423 0.61098,1.96488 3.54144,5.45278 4.05695,7.15905 0.30192,0.9989 -4.49956,-0.95898 -4.21082,-0.0174 3.67977,0.40484 3.71378,3.83235 5.28737,6.44268 l -2.29647,-0.35442 6.02425,6.74221 -6.83655,-4.57017 7.15272,6.83905 -5.31886,-2.11063 6.84255,5.1313 -8.05897,-2.72312 10.26403,7.29682 -8.49514,-0.58106 10.29203,4.74638 c -2.12563,0.19268 -5.52716,0.14577 -7.455,0.0214 0.86082,1.48611 5.41429,-0.30649 9.35438,3.38753 1.3129,1.23104 2.91045,3.97117 4.44909,6.44867 l 5.23248,9.19684 3.08233,5.88657 c 0.41241,0.78824 1.27435,7.55841 0.39969,8.23483 -4.40216,3.4021 -12.74237,14.42341 -14.29155,20.3284 l -1.21743,4.8368 c -0.84478,2.61237 -3.06431,11.96287 -5.20493,13.51779 -2.30054,1.67048 -1.85691,1.77025 -4.39318,2.7327 l -0.52753,1.34186 -0.35437,-1.22896 -1.96827,0.86604 -0.78633,-1.29942 -1.86084,2.55895 -0.49234,-2.42265 -1.64955,1.94292 -0.37931,-1.7537 -1.25587,-0.46502 -4.12792,1.46808 2.72211,-3.96812 c -7.83117,5.73678 -6.1691,3.84535 -7.83565,1.45114 -0.12111,-0.17298 -2.14311,0.0997 -2.23805,-0.11342 -0.16089,-0.36327 6.00979,-4.09043 5.77451,-4.44485 -0.13035,-0.19689 -6.17161,3.0396 -6.41345,3.00469 l -1.73593,0.87867 -2.24403,-0.93499 -0.3391,-0.64152 3.55092,-1.68481 4.45566,-2.70173 c 1.62952,-1.89341 3.83511,-3.12247 6.63669,-6.22301 -2.58576,-0.79817 -7.71125,4.89765 -9.45326,6.24998 l -5.01312,2.37728 -1.689,0.50215 -0.634,0.25694 -1.14797,-0.44772 -0.84876,-2.35387 3.78466,-0.68237 1.82892,-0.76317 3.05285,-1.77819 -1.27639,-0.33833 7.52293,-4.47975 -2.95841,-0.33579 4.99465,-1.93447 -2.42436,-1.17004 6.0742,-8.06262 -1.8999,0.0803 2.88052,-2.0023 -2.09571,-0.082 3.54489,-2.67475 -1.87931,-0.0457 3.22515,-2.07567 -2.31144,-0.11749 3.52444,-2.54796 -2.77609,-0.70684 -2.46285,-2.24941 0.68735,-8.73151 -1.70448,0.24268 0.67243,-2.7531 -1.7165,1.67134 -0.1395,-4.57717 -1.47022,2.8834 -1.06753,-2.94929 1.22888,-3.443 -2.14815,3.14449 0.48827,-5.88808 -1.53417,4.29862 -0.9242,-6.91197 -0.37168,6.83305 -2.49431,-8.9926 0.66137,7.47456 -3.87558,-5.66993 1.10002,6.64781 -4.09539,-5.01845 0.85476,6.53307 -5.83944,-7.34874 c 0.12831,2.45557 -0.14154,4.69349 0.41547,7.5694 l -9.51772,-4.76588 1.59557,-8.48093 8.14491,-4.2866 8.04398,-12.56839 c 4.12895,-9.59216 0.81882,-30.10381 8.06049,-37.182 1.65907,-0.41333 2.66968,-0.62401 3.76572,0.0909 0.72136,0.47124 -6.42938,7.1181 -6.53681,7.202 z"
     id="path4941"
     style="fill:#a92211;fill-rule:evenodd;stroke:#1f1a17;stroke-width:0.38052934;display:inline" />
  <path
     d="m 136.82223,352.21862 0.85374,-4.68598 c 0.58698,1.68978 1.55616,6.23451 2.03424,7.57138 l -0.0204,-6.80562 2.30548,8.93119 0.56097,-5.36592 1.86389,6.90196 -0.11201,-5.34248 5.29887,11.4412 c 0,-0.22316 -0.20264,-8.09852 0.59398,-11.21804 l 1.52372,4.49382 1.18341,-4.0485 0.4781,-0.44533 1.11452,0.44578 0.63699,1.33687 0.95563,-0.44579 1.27389,0.66843 1.11503,-1.33687 1.43321,2.45108 0.95572,-1.33681 0.95562,1.1142 1.11458,-0.44579 1.27389,2.2284 1.59256,-0.66843 2.9994,5.4458 -0.0153,-0.85312 c -6.69164,-16.32389 -6.71363,-38.80193 0.23676,-56.30295 -3.27816,1.46965 -12.2713,9.19527 -15.6134,10.01697 -1.84938,0.0402 -1.50368,-0.26757 -5.42331,-1.33937 -9.04807,-2.47503 -15.68534,-6.2944 -22.50234,-12.7471 -5.38781,-5.11082 -21.17753,-24.4823 -25.616694,-23.32516 l 0,2.67372 c 0,2.00528 -1.433247,2.00528 -0.159357,4.23372 0.796311,1.33685 1.592621,2.22842 2.388971,3.56529 2.22951,3.78844 0,4.2337 -0.15936,8.91323 -3.507425,2.30981 -4.467585,10.1757 -0.85028,13.02315 1.22598,0.96546 3.30167,-0.0468 5.32086,1.87301 2.01929,1.91993 5.77497,7.37519 6.25255,8.26628 1.09156,1.52705 2.29499,8.46095 4.93619,10.71784 1.44528,1.23504 3.70579,-1.87499 4.90372,0.01 4.63147,7.02129 9.1825,13.70657 14.31452,20.39039 z"
     id="path4943"
     style="fill:#a92211;fill-rule:evenodd;display:inline" />
  <polygon
     points="1908.95,945.096 1896.87,928.465 1901.7,920.418 1908.95,915.858 1914.08,912.37 1914.69,907.274 1906.84,909.152 1919.52,892.252 1906.23,898.421 1912.58,891.179 1922.84,887.96 1927.37,885.546 1942.17,885.278 1940.66,879.377 1975.39,891.716 1961.8,888.765 1987.77,902.713 1974.48,899.763 1984.14,906.737 1966.33,903.25 1985.95,911.298 1971.46,908.347 1995.02,919.345 1980.52,915.59 1995.62,923.637 1984.14,922.295 1996.83,928.465 1986.56,927.123 1995.02,932.489 1952.74,946.705 "
     transform="matrix(0.42296423,0,0,0.4226567,-571.17333,-87.7881)"
     id="polygon4945"
     style="fill:#a92211;fill-rule:evenodd;stroke:#1f1a17;stroke-width:0.89999998;display:inline" />
  <path
     d="m 193.67708,439.43382 0.31872,1.56004 c -2.38887,0.66843 -2.54823,-4.23372 -5.09652,4.67951 l -1.4332,0.4458 -0.31822,2.67373 -1.43376,-0.22264 -5.57365,5.57057 0.15936,2.22841 -4.1409,3.56533 0.15936,1.1142 0.47758,-1.1142 c 1.43324,0 2.54828,4.2337 2.54828,5.1248 0,1.78264 -1.27439,1.33731 -0.31873,3.34262 l 0.31873,-0.66844 c 3.50341,0.44569 -0.47808,-1.55998 3.50341,-0.44569 2.22956,-3.34219 0.95567,-8.91327 3.82218,-12.25543 1.27439,-1.1142 3.66282,-8.69059 5.09653,-9.35902 1.27394,0 4.45912,2.0053 5.25543,3.34218 -0.15937,-4.45637 3.18523,6.01684 2.0702,0.22314 -1.11453,-5.57108 -0.79626,-3.56533 1.11503,0.22259 2.0702,3.78843 -0.7963,-5.57057 -0.6374,-5.79374 0.31873,-1.33687 3.3445,8.02216 3.82264,4.23422 0.15885,-1.33733 -3.34461,-8.02215 -2.07072,-7.35373 0.4781,0.4458 4.14092,8.69059 2.70766,3.34268 0,-0.22314 -3.18524,-9.80479 -0.79631,-4.45687 2.54778,5.34795 0.47758,-2.67374 -0.31873,-4.23372 l 0.15937,1.11421 -3.02588,-0.22264 -0.95566,-1.33733 -0.79626,2.22843 -1.11458,-0.4458 0.15885,1.55998 -0.31821,-0.22259 -3.34455,1.55947 z"
     id="path4947"
     style="fill:#1f1a17;fill-rule:evenodd;display:inline" />
  <path
     d="m 176.31862,461.04848 1.11453,10.02745 -0.63695,0.22284 -3.5034,-3.11953 -1.2744,0.22284 c -0.15937,1.33687 2.07066,7.13064 2.07066,9.58169 l 0,1.7827 c 0,0.89153 0,0.66843 -0.47809,1.33682 l -2.22952,-2.00526 -0.31821,0.22235 -0.31873,2.67423 -0.95568,0.44569 1.91131,1.55951 0,2.67425 0.31821,0 0.63695,-0.66844 0.31873,-1.33737 3.18523,-1.11376 0.15936,-1.33733 0.15885,-0.22285 -0.47758,-2.67424 0,-2.22788 c 0,-1.33739 0,-0.66844 0.6369,-1.56003 l 1.27439,2.89688 c 1.91084,-0.66843 1.11454,-8.02216 1.11454,-10.02746 -0.95568,-2.00529 0.31872,-1.56002 0.31872,-3.34266 0,-0.89108 -1.11498,-5.1248 -2.54824,-5.1248 l -0.47758,1.11422 z"
     id="path4949"
     style="fill:#1f1a17;fill-rule:evenodd;display:inline" />
  <path
     d="m 275.28803,545.83346 8.71642,-6.70083 c 0.95566,-7.83096 -9.37985,2.75413 -8.71642,6.70083 z"
     id="path4951"
     style="fill:#d1a345;fill-rule:evenodd;display:inline" />
  <polyline
     transform="matrix(0.42296423,0,0,0.4226567,-571.17333,-87.7881)"
     style="fill:none;stroke:#1f1a17;stroke-width:8;display:inline"
     class="fil0 str4"
     points="1739.98,988.363 1733.11,1024.53 1743.95,1012.55 "
     id="polyline4953" />
  <path
     d="m 283.40045,546.15464 7.85367,-4.81182 c 1.80844,-7.07573 -10.08222,0.78083 -7.85367,4.81182 z"
     id="path4955"
     style="fill:#d1a345;fill-rule:evenodd;display:inline" />
  <path
     d="m 268.1907,543.07342 9.88185,-7.59081 -1.35631,-2.16902 -1.163,0 c -2.71264,-0.54221 -7.55643,8.13348 -7.36254,9.75983 z"
     id="path4957"
     style="fill:#d1a345;fill-rule:evenodd;display:inline" />
  <path
     d="m 207.37267,237.7725 c 0.15936,3.34214 3.98149,4.45637 6.37042,2.45107 l -0.95567,-2.22843 0.47809,-0.44579 2.70715,1.11423 1.27439,-1.11423 c 3.66276,0.44579 2.0702,3.78844 3.02582,5.1253 1.59268,-2.45108 -0.6374,-6.68478 -3.82213,-7.79902 -2.54828,-0.89157 -7.80371,1.33686 -9.07807,2.89687 z"
     id="path4961"
     style="fill:#1f1a17;fill-rule:evenodd;display:inline" />
  <path
     d="m 195.11089,230.64185 10.1926,0.89108 0.63694,0 1.11504,-0.22264 c -0.31873,-1.78264 -3.66276,-3.78794 -5.73347,-3.78794 l -1.75198,0 c -1.5921,0 -4.61848,1.33686 -4.45913,3.11951 z"
     id="path4963"
     style="fill:#a92211;fill-rule:evenodd;display:inline" />
  <path
     d="m 186.5882,245.8689 c 1.57011,0 2.56224,-0.01 3.93409,-0.48221 0.41241,-0.14226 0.72488,-0.6305 1.18743,-0.6305 0.80783,0 4.07345,-0.89756 4.1564,-1.63189 0.0763,-0.67392 -0.74188,-1.13319 -0.74188,-1.96535 0,-0.95398 0.66239,-0.86662 1.09008,-1.19059"
     id="path4965"
     style="fill:none;stroke:#1f1a17;stroke-width:1.69124174;display:inline" />
  <path
     d="m 204.80954,244.53334 c 0.53103,0.0874 1.00712,0.18569 1.55464,0.18569 l 1.05759,0"
     id="path4969"
     style="fill:none;stroke:#1f1a17;stroke-width:1.69124174;stroke-linejoin:round" />
  <path
     d="m 202.88083,246.61027 c 1.20545,0 2.12813,0.43579 3.23419,0.66793 0.51902,0.10881 0.83624,0.13134 1.18193,-0.0744"
     id="path4971"
     style="fill:none;stroke:#1f1a17;stroke-width:1.69124174;stroke-linejoin:round" />
  <path
     d="m 201.51042,248.94713 c 1.00014,0.035 1.81143,0.29653 2.86101,0.29653 0.71587,0 0.85223,-0.0109 1.43076,-0.14826"
     id="path4973"
     style="fill:none;stroke:#1f1a17;stroke-width:1.69124174;stroke-linejoin:round" />
  <path
     d="m 199.20949,251.172 c 0.63847,0 0.6679,0.17422 1.18198,0.33398 0.84926,0.26406 2.14811,0.25957 3.10928,0.25957"
     id="path4975"
     style="fill:none;stroke:#1f1a17;stroke-width:1.69124174;stroke-linejoin:round" />
  <path
     d="m 197.65721,253.10016 c 1.76647,0.58507 3.3476,0.77876 5.34834,0.77876"
     id="path4977"
     style="fill:none;stroke:#1f1a17;stroke-width:1.69124174;stroke-linejoin:round" />
  <path
     d="m 194.17198,254.13863 c 0,0.84564 3.44949,1.1866 4.60249,1.1866"
     id="path4979"
     style="fill:none;stroke:#1f1a17;stroke-width:1.69124174;stroke-linejoin:round" />
  <path
     d="m 190.69099,255.95563 c 0.62996,0 1.19745,0.29603 1.74147,0.48223 1.35683,0.46326 2.62471,0.48223 4.16687,0.48223"
     id="path4981"
     style="fill:none;stroke:#1f1a17;stroke-width:1.69124174;stroke-linejoin:round" />
  <path
     d="m 134.85965,335.13484 c 1.15053,4.26469 2.26359,6.23004 2.26359,6.23004 l 0.89069,-3.56029 1.89287,6.89798 c 0,0 1.18744,-5.60004 1.18744,-5.37739 0,0.2226 1.78145,6.11923 1.78145,6.34138 0,0.22264 1.33586,-3.85683 1.2989,-3.52289 -0.0357,0.33396 2.04117,5.82217 2.04117,5.82217 0,0 0.81632,-4.33856 0.89076,-4.07896 0.0739,0.25957 1.92982,3.70809 1.92982,3.70809 0,0 0.44501,-3.41155 0.48217,-3.18891 0.0357,0.22214 1.15047,3.0781 1.15047,3.0781 0,0 0.11147,-3.48646 0.44551,-3.04115 0.33349,0.44477 1.96678,3.37457 1.96678,3.37457 l 0.29684,-3.37457 1.44771,2.26189 c 0,0 0.37118,-3.59728 0.59352,-3.37462 0.22301,0.22264 1.41025,2.70716 1.41025,2.70716"
     id="path4983"
     style="fill:none;stroke:#1f1a17;stroke-width:0.84562087;stroke-linejoin:round;display:inline" />
  <path
     d="m 121.90426,535.15292 2.86703,-1.11428 0.31821,-0.22336 c -0.15936,-1.11376 -0.79631,-2.22793 -0.79631,-2.22793 l -1.43325,-0.44569 c -3.50346,0 -8.59998,3.78796 -8.91819,6.90799 4.45912,0 3.82217,-2.45155 7.96257,-2.89684 z"
     id="path4985"
     style="fill:#d1a345;fill-rule:evenodd;display:inline" />
  <path
     d="m 126.35387,539.23149 0,-0.66833 0.15936,-0.44569 -3.82212,-1.33682 c -2.54835,1.55946 -5.73353,4.4563 -4.93722,7.79897 1.27435,0.22284 2.86645,-1.11418 3.66281,-2.00576 1.91129,-1.78265 2.23002,-1.11428 4.77785,-2.22788 l 0.15937,-1.11434 z"
     id="path4987"
     style="fill:#d1a345;fill-rule:evenodd;display:inline" />
  <path
     d="m 129.47536,539.96698 c -2.54778,1.56001 -4.93676,4.01101 -4.1404,7.35369 1.27389,0.22284 2.54773,-1.78267 3.34404,-2.6742 3.66338,-1.78266 8.75939,-0.22284 0.79636,-4.67963 z"
     id="path4989"
     style="fill:#d1a345;fill-rule:evenodd;display:inline" />
  <path
     d="m 112.46796,533.37351 c 1.17643,-0.55207 5.09154,-2.84193 8.3732,-3.62768 0.0678,-0.66544 0.45264,-1.2979 0.49745,-1.74171 l -0.36202,-1.1567 c -2.62522,0.62894 -8.89427,2.45505 -8.50854,6.52609 z"
     id="path4997"
     style="fill:#d1a345;fill-rule:evenodd;display:inline" />
  <path
     d="m 155.7753,253.55199 c -0.49555,0.66643 -0.50355,1.26896 -0.27329,2.23941 0.004,0.0149 -0.0122,0.19868 0,0.21865 0.025,0.0399 0.0824,0.0564 0.10943,0.16423"
     id="path5051"
     style="fill:none;stroke:#1f1a17;stroke-width:0.84562087" />
  <path
     d="m 157.52214,254.317 c -0.4601,0.68888 -0.27277,2.29432 0.2188,2.94977"
     id="path5053"
     style="fill:none;stroke:#1f1a17;stroke-width:0.84562087" />
  <path
     d="m 158.88831,254.59003 c -0.25525,0.59455 -0.18484,2.79851 1.0391,2.79851"
     id="path5055"
     style="fill:none;stroke:#1f1a17;stroke-width:0.84562087" />
  <path
     d="m 160.69436,254.42604 c -1.0346,0.9994 0.31422,2.57088 1.06609,2.68071"
     id="path5057"
     style="fill:none;stroke:#1f1a17;stroke-width:0.84562087" />
  <path
     d="m 162.22127,254.21176 c -1.1415,1.20306 0.61896,2.92631 1.67003,2.41562"
     id="path5059"
     style="fill:none;stroke:#1f1a17;stroke-width:0.84562087" />
  <path
     d="m 163.97235,254.37109 c 0.0574,0.8771 0.50104,2.14907 1.66804,1.83207"
     id="path5061"
     style="fill:none;stroke:#1f1a17;stroke-width:0.84562087" />
  <path
     d="m 165.81647,254.37025 c 0.0729,0.46076 0.47959,1.50858 1.52516,1.29243"
     id="path5063"
     style="fill:none;stroke:#1f1a17;stroke-width:0.84562087" />
  <path
     d="m 165.54147,419.09136 -8.90765,5.57109 c -3.8147,2.38516 -8.15342,7.87388 -11.93064,13.40205 -4.30123,6.29542 -5.08706,13.14297 -6.34047,20.39585 l 0.15935,4.96456 1.98329,-4.5567 -3.31415,10.0045 6.1966,-9.72495 -5.02209,12.79655 6.40188,-9.93212 -4.49604,14.52822 7.38205,-12.71816 -8.66144,20.47225 8.48411,-16.68036 -7.35257,19.91715 7.49044,-17.76659 -3.993,14.90411 5.23696,-10.84559 -3.19074,12.36419 3.94407,-8.23829 -2.73963,11.66731 3.90212,-8.742 -2.36195,12.99421 4.03898,-9.11543 -2.44284,9.90266 3.89606,-6.24551 -0.37881,6.45365 2.37941,-2.1795 c -0.15478,1.36429 0.0204,3.59472 -0.0687,5.00847 0.69092,-0.48182 1.82743,-2.14358 2.63174,-2.87837 l -1.26295,6.29344 2.5538,-3.6312 -1.31982,6.13669 c 0.99615,-0.7388 1.4472,-0.63598 2.29448,-1.3034 l -1.67551,3.60572 1.36228,-0.19894 -2.27799,3.11251 1.83936,-0.83368 -2.12315,2.71219 2.34046,-0.44722 -3.11779,2.27938 2.67422,-0.22743 -3.55789,2.17554 3.54037,-0.58652 -4.21331,2.18954 2.7326,-0.0585 -3.46995,1.79018 2.18908,1.14013 c -1.44822,0.68889 -2.19758,0.0596 -3.55838,0.64645 l 2.31698,1.24152 -3.94259,0.36479 5.63509,2.28427 -7.39206,-1.12461 c -4.37268,1.86804 -3.26116,1.89196 -12.30827,2.42205 -6.46436,0.37903 -6.79556,0.65007 -13.15752,2.91637 0.36761,0.86054 0.0667,1.58301 0.3396,2.04376 0.81882,1.38184 1.85834,1.19004 2.0342,1.55697 0.58349,1.22203 1.6666,0.96799 2.10814,2.48212 0.35742,1.22447 -0.0748,3.68605 0.77435,4.5411 0.73241,0.73737 1.68152,1.08177 2.15564,1.65689 0.76983,0.93508 1.84036,1.21404 2.4179,1.60097 1.59658,1.06977 2.24,0.80815 3.91306,0.97391 l 1.01361,-1.07322 0.41699,-0.86013 0.6984,-0.52573 -0.0306,1.07882 -0.66693,1.40574 0.50354,0.49962 c 1.20644,-1.66232 1.32288,-1.65988 2.32952,-2.803 l 0.29225,0.7883 -0.36404,0.80214 -0.63745,1.17609 0.54753,0.0457 1.07502,-1.18612 0.47046,-0.91804 0.48012,-0.52069 0.60798,0.27067 -0.52809,0.8057 -1.04009,1.53647 0.93169,0.0942 1.53065,-1.60443 0.69194,-0.80922 -1.11056,2.18745 0.87874,0.1511 2.09271,-2.26482 c -0.0596,3.90629 5.71,1.4956 9.0046,1.64931 4.66543,0.0255 6.94046,-1.89689 10.29106,-4.86418 2.64813,-2.34618 4.33321,-5.38384 6.35794,-6.92087 6.07573,-4.61366 11.66781,-5.1643 12.03847,-8.48902 0.89676,-8.05056 -2.35944,-16.72116 -2.58923,-23.47637 -0.0789,-2.32832 0.19807,-2.5075 0.74234,-5.315 0.15682,-0.80972 2.62267,2.0517 3.66928,4.64012 0.25916,-2.25644 -0.92563,-8.26181 -1.08856,-9.19933 0.63049,0.65046 1.85641,1.97584 2.19663,2.43063 0.26628,-3.21039 -1.44879,-6.17911 -2.21709,-9.24573 0.61948,1.22204 0.72334,0.66391 2.15115,3.01921 -0.33401,-2.75011 -2.90149,-8.07911 -2.9025,-9.60213 1.08107,0.90155 2.83403,3.97915 3.18925,4.49129 0.1446,-0.35666 -0.38186,-3.4949 -1.67758,-9.03652 l 1.80544,3.81788 -1.135,-6.93338 1.18897,1.31839 0.24082,-3.7355 1.95879,1.84606 0.45977,-3.24734 2.38745,5.22119 -0.58848,-5.81274 2.75455,7.82745 -0.57299,-7.92331 1.86841,1.97634 -1.59617,-7.39864 c 2.15416,4.51228 1.93282,4.25172 2.75164,5.17273 -0.2276,-1.81409 -1.43275,-4.56419 -1.62907,-7.3263 l 1.96129,2.94829 -1.0381,-6.71423 1.82641,3.18589 -0.32535,-3.73802 2.03619,3.87331 0.78033,-2.6842 0.88377,7.98922 3.51696,-10.20318 -5.76601,-32.37917 0.91569,-2.02478 -7.69776,-16.07279 -1.95081,1.1312 -1.54113,0.64445 c 6.49927,9.69001 12.65743,-9.07446 0.77028,-0.32245 l -7.47944,-10.4917 -0.63797,10.54313 -0.72634,-6.05532 -0.65945,6.45567 -1.26341,5.79923 -0.82375,-0.15223 0.61596,-5.33997 c -1.1965,3.38857 -1.0691,6.33084 -2.19763,9.83827 l -0.15682,-7.16352 -1.45922,7.56787 -0.4842,1.40974 -0.19449,-5.85664 -1.21296,5.39488 -1.09502,2.26488 0.17159,-5.95146 -2.62522,8.09704 0.92171,-5.7952 -2.81203,9.43837 0.529,-6.02783 -2.85851,7.84991 0.0545,-5.44779 -3.44348,6.34482 1.44976,-4.99448 z"
     id="path5065"
     style="fill:#a92211;fill-rule:evenodd;stroke:#1f1a17;stroke-width:0.38052934;display:inline" />
  <path
     d="m 166.73003,341.36902 3.15026,5.84665 1.05459,-7.10313 1.34028,4.21276 2.08024,-6.95887 1.28784,3.49642 2.36693,-4.7354 1.37678,4.5532 4.06699,-9.81481 -3.62382,5.15775 -0.87324,-5.59906 -2.99344,5.70939 -1.53463,-2.33377 -1.62108,5.70885 c 0.0805,-6.55151 -0.35589,-9.03504 -0.79681,-10.77524 -1.08057,2.83596 -1.30734,5.86012 -3.47148,11.82055 l -0.78985,-6.00737 -4.74134,8.88528 3.7263,-22.31576 2.36393,-4.92161 1.47822,4.4818 3.52244,-7.43711 -0.39968,10.06988 4.60052,-7.33326 3.17622,6.34834 3.83369,-6.78612 0.41343,4.30661 1.27989,-3.77396 0.86575,1.4981 1.88385,-2.72912 0.76084,0.36539 1.25891,-1.74671 3.5479,86.30483 -3.72421,-3.61225 c 0.45314,-8.75596 -2.12917,-3.16443 -1.9753,-13.28824 l -0.75333,9.79284 -1.62608,-7.28035 -1.84143,3.64517 0.52105,-9.46287 -2.05618,3.10352 0.85124,-5.29255 -2.47335,2.29533 0.40987,-7.42012 -2.74161,4.42691 -0.60951,-7.87791 -1.98975,4.69349 -0.23268,-7.09764 -2.63418,6.62342 -0.58053,-10.42981 -1.9503,3.09455 -0.515,-11.61041 -2.99044,1.42321 -1.67851,-14.12092 z"
     id="path5067"
     style="fill:#a92211;fill-rule:evenodd;stroke:#1f1a17;stroke-width:0.38052934;display:inline" />
  <path
     d="m 327.08423,487.43071 c 1.15497,1.64238 2.98887,2.02428 3.52694,4.22424 0.18277,0.74678 0.3065,1.54206 0.48572,2.29637 0.12573,0.53009 0.0759,1.34134 0.25458,1.91341"
     id="path5079"
     style="fill:none;stroke:#1f1a17;stroke-width:1.26843119;stroke-linejoin:round;display:inline" />
  <path
     d="m 325.94644,490.64288 c 0.91617,1.12324 2.7876,2.66723 3.10031,4.00063 0.139,0.58952 0.08,1.0573 0.5675,1.49555 0.37626,0.33783 0.22912,1.12923 0.29072,1.55809"
     id="path5081"
     style="fill:none;stroke:#1f1a17;stroke-width:1.26843119;stroke-linejoin:round;display:inline" />
  <path
     d="m 325.59538,493.21268 c 1.52368,2.09515 2.51229,4.11942 2.74859,6.57144"
     id="path5083"
     style="fill:none;stroke:#1f1a17;stroke-width:1.26843119;stroke-linejoin:round;display:inline" />
  <path
     d="m 325.48963,495.98954 c -0.058,1.47266 1.33734,2.97523 1.80844,4.31856 0.17924,0.51122 0.59552,1.22107 0.531,1.85205"
     id="path5085"
     style="fill:none;stroke:#1f1a17;stroke-width:1.26843119;stroke-linejoin:round;display:inline" />
  <path
     d="m 324.08118,498.36059 c 0.23828,0.89113 0.46128,1.67933 0.92165,2.43065 0.18177,0.29713 0.41445,0.52963 0.54153,0.86411 0.27596,0.7278 0.23319,1.42971 0.4058,2.19848"
     id="path5087"
     style="fill:none;stroke:#1f1a17;stroke-width:1.26843119;stroke-linejoin:round;display:inline" />
  <path
     d="m 322.52466,501.26002 c 0.3615,0.68294 0.57849,1.7038 0.93969,2.25293 0.55848,0.84864 1.53166,2.38765 1.55264,3.30371"
     id="path5089"
     style="fill:none;stroke:#1f1a17;stroke-width:1.26843119;stroke-linejoin:round;display:inline" />
  <path
     d="m 323.58213,507.05471 -1.33086,0.17071 0,0 -0.01,-0.0749 -0.0156,-0.0728 -0.0148,-0.0729 -0.0186,-0.0719 -0.0202,-0.0723 -0.0242,-0.0684 -0.0254,-0.0723 -0.0276,-0.0738 -0.0322,-0.0729 -0.0318,-0.0693 -0.0326,-0.0734 -0.0368,-0.0758 -0.038,-0.0753 -0.0394,-0.0749 -0.0406,-0.0744 -0.0459,-0.0803 -0.044,-0.0799 -0.0444,-0.0799 -0.0475,-0.0829 -0.0474,-0.0833 -0.05,-0.0868 -0.047,-0.0868 -0.0515,-0.0914 -0.0489,-0.0913 -0.05,-0.0954 -0.05,-0.0943 -0.0479,-0.1004 -0.0474,-0.0993 -0.0479,-0.10582 -0.044,-0.10787 -0.0444,-0.10935 -0.0429,-0.11179 1.26488,-0.45127 0.03,0.0839 0.0314,0.0823 0.036,0.0799 0.0352,0.0788 0.0386,0.0824 0.0402,0.0784 0.0398,0.0824 0.0418,0.0794 0.044,0.0803 0.0425,0.0794 0.0479,0.0818 0.0449,0.0809 0.0475,0.0833 0.0475,0.0829 0.0494,0.0859 0.0479,0.0859 0.0459,0.0853 0.0494,0.0915 0.0475,0.0908 0.047,0.0924 0.0459,0.0928 0.0464,0.0954 0.044,0.1023 0.0402,0.1008 0.0406,0.10081 0.0384,0.10528 0.0352,0.11234 0.0326,0.1103 0.0296,0.11478 0.027,0.11682 0.0202,0.12075 0.0202,0.12278 0,0 z m 0.005,1.86151 -1.33184,-0.13576 0.005,-0.0609 0.005,-0.0564 0.005,-0.0559 0.004,-0.0524 0.004,-0.0539 0.004,-0.0499 0.004,-0.0499 0.004,-0.0539 0.004,-0.0475 0,-0.0479 0,-0.0464 0,-0.0469 0,-0.0454 0,-0.0459 0.004,-0.0449 0,-0.0425 0,-0.0479 0,-0.0454 0,-0.0449 0,-0.0418 -0.004,-0.0429 0,-0.0449 -0.004,-0.044 -0.004,-0.0484 0,-0.0464 -0.005,-0.0475 -0.005,-0.0473 -0.004,-0.0484 -0.005,-0.0494 -0.007,-0.0499 -0.004,-0.0534 -0.008,-0.0514 1.33085,-0.17072 0.007,0.0624 0.01,0.0594 0.005,0.0598 0.005,0.0594 0.008,0.0594 0.004,0.0583 0.004,0.0574 0.005,0.0574 0.004,0.0544 0.004,0.0589 0.004,0.0559 0,0.0589 0,0.0579 0.004,0.0559 0,0.0554 0,0.0529 0,0.0583 0,0.0559 0,0.0559 0,0.0564 -0.004,0.057 -0.004,0.0574 -0.004,0.0579 -0.004,0.0585 -0.004,0.0539 -0.004,0.0598 -0.005,0.0609 -0.004,0.0589 -0.005,0.0624 -0.005,0.0609 -0.005,0.0624 -0.005,0.0609 z"
     id="path5093"
     style="fill:#1f1a17;fill-rule:nonzero" />
  <path
     d="m 319.9615,506.12059 c 0.37677,0.86411 0.95914,1.51407 1.0995,2.4486 0.0698,0.46145 0.4562,0.8202 0.40733,1.29992"
     id="path5095"
     style="fill:none;stroke:#1f1a17;stroke-width:1.26843119;stroke-linejoin:round;display:inline" />
  <path
     d="m 319.46238,510.11471 c -0.24948,0.88059 -0.0591,1.52007 -0.0662,2.42016 -0.004,0.32713 0.15427,0.52261 0.37218,0.75675 0.1558,0.16739 0.1558,0.62004 0.18584,0.82768"
     id="path5097"
     style="fill:none;stroke:#1f1a17;stroke-width:1.26843119;stroke-linejoin:round;display:inline" />
  <path
     d="m 174.38569,484.82714 -0.67589,-7.25936 3.71673,3.20734 -2.53434,-13.1679 6.58925,7.42812 c 0,0 -3.37901,-17.21993 -2.53423,-15.53166 0.84473,1.68779 4.89923,8.27225 4.89923,8.27225"
     id="path5099"
     style="fill:none;stroke:#1f1a17;stroke-width:0.42281044;stroke-linejoin:round;display:inline" />
  <path
     d="m 181.14464,455.95548 c 1.43025,1.81906 2.35894,2.72313 2.87201,4.89568 0.34928,1.47612 0.67589,3.34464 0.67589,4.89617"
     id="path5101"
     style="fill:none;stroke:#1f1a17;stroke-width:0.42281044;stroke-linejoin:round;display:inline" />
  <path
     d="m 183.33983,452.74751 c 0.66892,1.53855 1.85886,2.83747 2.19607,4.38946 0.29836,1.37131 0.53058,3.10102 1.01361,4.38947"
     id="path5103"
     style="fill:none;stroke:#1f1a17;stroke-width:0.42281044;stroke-linejoin:round;display:inline" />
  <path
     d="m 184.0166,450.38487 c 0.55599,1.94439 2.2825,4.13885 3.21019,5.90903 0.93916,1.79261 0.67589,1.15464 0.67589,-0.84412 0,-1.78667 -0.14715,-3.66318 0.16903,-5.40238 l 0,0 c 0,0.8646 0.13089,1.74521 0.33756,2.53245 0.63146,2.39718 0.16956,-2.21946 0.16956,-3.20789 0,-4.83574 1.52016,5.54763 1.52016,0.84417 0,-0.56411 -0.17769,-6.38778 0.84483,-2.53197 0.94514,3.56233 0.84473,-2.11508 0.84473,-2.70114 0,-1.03986 -0.13183,-2.21148 0.16904,-3.20789 0.37983,-1.25601 1.60662,2.61532 2.02727,2.19449 0.76683,-0.76578 1.18296,-2.85441 1.18296,-3.8828"
     id="path5105"
     style="fill:none;stroke:#1f1a17;stroke-width:0.42281044;stroke-linejoin:round;display:inline" />
  <path
     d="m 180.76825,486.93202 c 0.90473,0.64548 1.81393,1.79812 2.19358,2.86591 0.30224,0.85166 0.42166,1.77367 0.42166,2.69718"
     id="path5111"
     style="fill:none;stroke:#1f1a17;stroke-width:1.69124174;stroke-linejoin:round" />
  <path
     d="m 177.98515,485.41469 c 0.75884,1.39078 1.58764,2.81099 2.36195,4.1304 0.52452,0.89455 1.14649,1.98032 1.34981,2.95028 0.15185,0.72435 0.043,1.98331 0.42161,2.61329"
     id="path5115"
     style="fill:none;stroke:#1f1a17;stroke-width:1.69124174;stroke-linejoin:round" />
  <path
     d="m 177.81596,487.94217 c 1.63607,2.40416 4.13338,6.247 4.13338,9.18831"
     id="path5119"
     style="fill:none;stroke:#1f1a17;stroke-width:1.69124174;stroke-linejoin:round" />
  <path
     d="m 178.40388,490.97685 c 0.27278,0.72684 0.57452,1.69328 0.92819,2.36024 0.75136,1.4197 0.9277,2.4965 0.9277,4.13037"
     id="path5123"
     style="fill:none;stroke:#1f1a17;stroke-width:1.69124174;stroke-linejoin:round" />
  <path
     d="m 177.90055,493.50856 c 0,1.56547 1.19995,2.56387 1.26539,4.13037 0.0398,0.96297 0.0845,1.95538 0.0845,2.95032"
     id="path5127"
     style="fill:none;stroke:#1f1a17;stroke-width:1.69124174;stroke-linejoin:round" />
  <path
     d="m 176.63589,497.80698 c 0.16635,1.24599 1.62507,1.95437 1.94031,3.119 0.11744,0.43482 0.0874,2.07071 -0.0845,2.52845"
     id="path5131"
     style="fill:none;stroke:#1f1a17;stroke-width:1.69124174;stroke-linejoin:round" />
  <path
     d="m 175.62077,499.15525 c 0,1.27199 0.16585,2.40315 0.25277,3.6247 0.068,0.95048 0.0755,1.44169 -0.59046,2.10712"
     id="path5135"
     style="fill:none;stroke:#1f1a17;stroke-width:1.69124174;stroke-linejoin:round" />
  <path
     d="m 173.51442,501.68274 0,2.69769 c 0,0.60703 0.26127,1.43019 -0.59051,0.67444 -0.46856,-0.41585 -0.59494,-1.03538 -0.92768,-1.5176 -0.86521,-1.25199 -0.84373,1.94042 -0.84373,2.44461 0,0.22561 -0.22232,0.52266 -0.25331,0.50567 -0.63746,-0.35043 -0.76832,-1.77018 -1.3493,-1.77018 -0.42762,0 -0.30424,0.95148 -0.42216,1.34887 -0.61694,2.07567 -0.48155,-0.34344 -0.50604,-1.09574 -0.0254,-0.78974 -0.59051,-1.26099 -0.59051,-2.10766"
     id="path5139"
     style="fill:none;stroke:#1f1a17;stroke-width:1.69124174;stroke-linejoin:round" />
  <path
     d="m 161.05389,530.47411 c 0.52304,-0.52266 2.28752,-0.78373 2.28752,-0.78373 l 1.63357,-2.02426 1.43774,0.52214 2.22204,-3.13447"
     id="path5143"
     style="fill:none;stroke:#1f1a17;stroke-width:0.84562087" />
  <path
     d="m 170.59596,522.24499 c -0.15937,0.34543 -0.0384,0.31002 -0.13088,0.58758 -0.063,0.19019 -0.1449,0.29899 -0.19583,0.52266 -0.0348,0.14873 -0.18336,0.23263 -0.19634,0.45676 -0.0242,0.42533 -0.32674,0.59755 -0.32674,1.0448 l 0,0.71836"
     id="path5147"
     style="fill:none;stroke:#1f1a17;stroke-width:0.84562087" />
  <path
     d="m 173.07876,520.35148 c -0.12436,0.95296 -0.10441,1.69182 -0.45761,2.48155 -0.028,0.0619 0.025,0.19616 0,0.26108 -0.11038,0.28702 -0.48556,1.19708 -0.71886,1.37178"
     id="path5151"
     style="fill:none;stroke:#1f1a17;stroke-width:0.84562087" />
  <path
     d="m 174.51684,518.32696 c -0.35221,1.76116 0.31172,4.38548 -1.24191,5.42033"
     id="path5155"
     style="fill:none;stroke:#1f1a17;stroke-width:0.84562087" />
  <path
     d="m 176.7374,515.19507 c 0,1.67034 0.28474,4.00108 -0.4576,5.48571 -0.14289,0.28605 -1.17647,1.94388 -1.17647,2.22047"
     id="path5159"
     style="fill:none;stroke:#1f1a17;stroke-width:0.84562087" />
  <path
     d="m 177.91325,517.60845 c 0.14639,0.97692 0.4716,1.95086 0.78429,2.87339 0.1059,0.31251 0.27726,0.56809 0.39218,0.84864 0.40062,0.98095 0.24177,0.17474 0.45761,-0.71834 0.2143,-0.88758 0.13034,-2.26388 0.13034,-3.19989 0,-3.21486 -0.0984,3.51138 1.04556,3.00419 0.75783,-0.33595 0.52304,-5.69537 0.52304,-6.92244 0,-2.22443 0.0554,-0.59551 0.32674,0.45728 0.0919,0.35643 0.63893,4.66204 1.43774,3.52635 1.10702,-1.57347 0.71888,-3.79592 0.71888,-5.55063"
     id="path5163"
     style="fill:none;stroke:#1f1a17;stroke-width:0.84562087" />
  <path
     d="m 106.84253,309.3346 c -0.22199,0.47973 -0.19603,1.57249 -0.19603,2.08967 0,0.33544 -0.0254,0.68341 0.0652,0.97993 0.12831,0.40982 0.2617,0.92703 0.2617,1.37131"
     id="path5165"
     style="fill:none;stroke:#1f1a17;stroke-width:0.42281044;stroke-linejoin:round;display:inline" />
  <path
     d="m 108.47516,310.22768 c -0.17006,0.73832 -0.0646,1.65536 -0.0646,2.41664 0,0.73133 -0.1558,2.48251 0.19602,3.06909"
     id="path5167"
     style="fill:none;stroke:#1f1a17;stroke-width:0.42281044;stroke-linejoin:round;display:inline" />
  <path
     d="m 109.81596,312.24629 c -0.18992,1.01338 -0.12722,2.32877 0.0657,3.33067 0.0641,0.33448 0.13951,2.61481 0.32688,2.67722"
     id="path5169"
     style="fill:none;stroke:#1f1a17;stroke-width:0.42281044;stroke-linejoin:round;display:inline" />
  <path
     d="m 111.85464,314.74209 c -0.53252,1.861 -0.0616,4.52875 0.19602,6.33435"
     id="path5171"
     style="fill:none;stroke:#1f1a17;stroke-width:0.42281044;stroke-linejoin:round;display:inline" />
  <path
     d="m 112.44255,313.43564 c 0.48166,1.2036 0.39205,4.52475 0.39205,5.8776 0,1.17162 0.0855,2.83945 0.32687,4.04902"
     id="path5173"
     style="fill:none;stroke:#1f1a17;stroke-width:0.42281044;stroke-linejoin:round;display:inline" />
  <polygon
     points="1619.07,963.219 1619.14,962.69 1619.21,962.201 1619.27,961.761 1619.33,961.373 1619.38,961.039 1619.42,960.763 1619.45,960.557 1619.47,960.42 1620.44,960.72 1620.42,960.857 1620.39,961.063 1620.35,961.332 1620.3,961.661 1620.25,962.05 1620.19,962.489 1620.12,962.971 1620.05,963.495 1619.97,964.056 1619.89,964.652 1619.81,965.271 1619.73,965.913 1619.65,966.571 1619.56,967.243 1619.48,967.92 1619.4,968.599 1619.33,969.28 1619.26,969.951 1619.19,970.613 1619.13,971.253 1619.08,971.874 1619.04,972.466 1619,973.024 1618.98,973.548 1618.96,974.025 1618.95,974.455 1618.96,974.82 1618.98,975.117 1619.01,975.331 1619.03,975.428 1619.01,975.393 1618.87,975.274 1618.56,976.64 1618.26,976.356 1618.11,976.009 1618.03,975.657 1617.99,975.292 1617.97,974.893 1617.96,974.455 1617.96,973.98 1617.98,973.463 1618.01,972.911 1618.05,972.324 1618.09,971.711 1618.15,971.073 1618.21,970.414 1618.27,969.743 1618.34,969.061 1618.42,968.374 1618.5,967.684 1618.58,966.995 1618.66,966.318 1618.75,965.653 1618.83,965.006 1618.91,964.38 1618.99,963.785 "
     transform="matrix(0.42296423,0,0,0.4226567,-571.17333,-87.7881)"
     id="polygon5177"
     style="fill:#1f1a17;fill-rule:nonzero" />
  <path
     d="m 115.38218,319.96611 c -1.10904,2.40017 -0.92173,5.95946 -0.58502,8.32368"
     id="path5179"
     style="fill:none;stroke:#1f1a17;stroke-width:0.42281044;stroke-linejoin:round;display:inline" />
  <path
     d="m 115.97009,320.61913 c -0.95063,3.67511 -0.35183,9.17629 0.11608,10.28255"
     id="path5181"
     style="fill:none;stroke:#1f1a17;stroke-width:0.42281044;stroke-linejoin:round;display:inline" />
  <polygon
     points="1625.41,972.947 1625.42,972.028 1625.45,971.148 1625.51,970.308 1625.59,969.515 1625.7,968.771 1625.84,968.079 1626.01,967.446 1626.22,966.87 1627.14,967.248 1626.96,967.739 1626.81,968.306 1626.68,968.939 1626.58,969.636 1626.5,970.391 1626.45,971.197 1626.41,972.051 1626.4,972.947 1626.41,973.88 1626.44,974.845 1626.49,975.833 1626.55,976.848 1626.63,977.878 1626.72,978.922 1626.83,979.974 1626.95,981.031 1627.08,982.086 1627.21,983.137 1627.36,984.178 1627.51,985.202 1627.68,986.207 1627.84,987.189 1628.01,988.144 1628.18,989.064 1628.35,989.949 1628.52,990.788 1628.69,991.583 1628.86,992.325 1629.02,993.011 1629.18,993.635 1629.33,994.195 1629.47,994.681 1628.52,994.969 1628.37,994.459 1628.21,993.885 1628.05,993.245 1627.89,992.547 1627.72,991.793 1627.55,990.991 1627.37,990.14 1627.2,989.248 1627.03,988.319 1626.86,987.357 1626.69,986.367 1626.53,985.353 1626.38,984.317 1626.23,983.269 1626.09,982.211 1625.96,981.145 1625.84,980.08 1625.73,979.016 1625.63,977.96 1625.56,976.914 1625.49,975.887 1625.44,974.88 1625.42,973.899 "
     transform="matrix(0.42296423,0,0,0.4226567,-571.17333,-87.7881)"
     id="polygon5185"
     style="fill:#1f1a17;fill-rule:nonzero" />
  <path
     d="m 118.3556,323.88583 c -0.26221,0.79873 -0.34214,2.03176 -0.29276,2.80652 0.0407,0.66543 1.12649,5.24808 1.23886,5.9275"
     id="path5187"
     style="fill:none;stroke:#1f1a17;stroke-width:0.42281044;stroke-linejoin:round;display:inline" />
  <path
     d="m 119.69639,324.73369 c 0.10034,2.1231 0.64795,5.72133 1.79496,7.44056"
     id="path5189"
     style="fill:none;stroke:#1f1a17;stroke-width:0.42281044;stroke-linejoin:round;display:inline" />
  <path
     d="m 122.63601,326.30048 c -0.25915,1.12469 -0.33247,6.41773 0.52305,6.98781"
     id="path5191"
     style="fill:none;stroke:#1f1a17;stroke-width:0.42281044;stroke-linejoin:round;display:inline" />
  <path
     d="m 125.44448,331.52536 c -0.6789,2.03474 0.20773,4.4998 0.58802,6.39973"
     id="path5193"
     style="fill:none;stroke:#1f1a17;stroke-width:0.42281044;stroke-linejoin:round;display:inline" />
  <path
     d="m 128.12606,334.65978 c -0.43328,1.2984 0.606,7.8804 1.50321,9.07748"
     id="path5195"
     style="fill:none;stroke:#1f1a17;stroke-width:0.42281044;stroke-linejoin:round;display:inline" />
  <path
     d="m 129.75874,337.01144 c 0.10088,1.82807 0.97366,3.72056 1.04559,5.61652 0.0458,1.21306 0.76332,2.39717 0.91469,3.46097"
     id="path5197"
     style="fill:none;stroke:#1f1a17;stroke-width:0.42281044;stroke-linejoin:round;display:inline" />
  <path
     d="m 132.63488,338.71053 c -0.96015,2.39915 0.4562,7.73563 1.3074,9.86069"
     id="path5199"
     style="fill:none;stroke:#1f1a17;stroke-width:0.42281044;stroke-linejoin:round;display:inline" />
  <path
     d="m 135.77327,344.52205 c 0,0.66791 -0.0509,1.21403 0.19603,1.82858 0.36251,0.91204 0.33808,1.81658 0.58847,2.74309 0.16089,0.59657 0.33196,2.83546 0.65345,3.26527"
     id="path5201"
     style="fill:none;stroke:#1f1a17;stroke-width:0.42281044;stroke-linejoin:round;display:inline" />
  <path
     d="m 137.79928,350.528 c 0.41394,1.53652 0.604,3.25582 1.43774,4.50577 0.75485,1.13268 1.22893,2.49502 1.96078,3.59175"
     id="path5203"
     style="fill:none;stroke:#1f1a17;stroke-width:0.42281044;stroke-linejoin:round;display:inline" />
  <path
     d="m 145.31111,358.36404 c -0.62096,2.01778 0.0657,-0.65845 0.0657,0.71836 0,0.48374 0.17463,1.08774 0.32686,1.56701 0.20112,0.63448 0.39205,1.49509 0.58797,2.02473 0.24287,0.65448 0.98067,1.36831 1.11107,2.02426"
     id="path5205"
     style="fill:none;stroke:#1f1a17;stroke-width:0.42281044;stroke-linejoin:round;display:inline" />
  <path
     d="m 160.40248,314.43566 c 0,1.83856 -2.19708,3.48143 -2.61371,5.28954 -0.38645,1.67881 -0.52305,3.27127 -0.52305,5.09385"
     id="path5207"
     style="fill:none;stroke:#1f1a17;stroke-width:0.42281044;stroke-linejoin:round;display:inline" />
  <path
     d="m 158.54144,315.68714 c -0.46384,1.20407 -2.49533,3.75848 -2.84503,5.01748 -0.27696,0.9954 -0.19653,2.24891 -0.19653,3.39606"
     id="path5209"
     style="fill:none;stroke:#1f1a17;stroke-width:0.42281044;stroke-linejoin:round;display:inline" />
  <path
     d="m 156.70159,317.06165 -0.30674,-0.28854 0,0 0.0444,-0.0469 0.0435,-0.049 0.0444,-0.0494 0.043,-0.0499 0.0429,-0.0499 0.0425,-0.0509 0.0435,-0.052 0.0418,-0.052 0.0425,-0.0529 0.043,-0.0539 0.0414,-0.0534 0.0414,-0.0539 0.0425,-0.0554 0.0425,-0.0544 0.0406,-0.0554 0.0418,-0.0554 0.0418,-0.0564 0.0418,-0.0564 0.041,-0.0559 0.0418,-0.0568 0.0414,-0.0564 0.0418,-0.0579 0.0418,-0.057 0.0418,-0.0574 0.0418,-0.057 0.043,-0.0579 0.0424,-0.0574 0.0418,-0.057 0.0429,-0.0583 0.044,-0.0564 0.0429,-0.0564 0.044,-0.0585 0.3327,0.2576 -0.0418,0.0544 -0.0429,0.0564 -0.0418,0.0564 -0.0418,0.0554 -0.0418,0.0568 -0.0425,0.0574 -0.041,0.0559 -0.0418,0.0568 -0.0418,0.0574 -0.0418,0.0568 -0.0418,0.0568 -0.0414,0.0574 -0.0418,0.0568 -0.0429,0.0579 -0.0418,0.0564 -0.0418,0.0564 -0.0418,0.0574 -0.0435,0.0564 -0.0425,0.0564 -0.0425,0.0554 -0.0435,0.057 -0.0444,0.0553 -0.043,0.055 -0.0435,0.055 -0.046,0.0549 -0.0435,0.0539 -0.0455,0.0539 -0.046,0.0539 -0.047,0.0529 -0.0455,0.0514 -0.0474,0.052 -0.0475,0.052 0,0 z m -0.30674,-0.28854 0.30674,0.28854 -0.008,0.008 -0.008,0.008 -0.008,0.007 -0.008,0.007 -0.01,0.005 -0.01,0.005 -0.01,0.005 -0.01,0.004 -0.01,0.004 -0.01,0.003 -0.009,0.003 -0.01,0.003 -0.01,0.003 -0.01,0.001 -0.01,8.5e-4 -0.01,4.2e-4 -0.0109,0 -0.01,-4.2e-4 -0.01,-8.5e-4 -0.01,-8.5e-4 -0.01,-0.003 -0.01,-0.003 -0.01,-0.003 -0.01,-0.003 -0.01,-0.004 -0.01,-0.004 -0.01,-0.005 -0.01,-0.005 -0.01,-0.005 -0.008,-0.005 -0.008,-0.007 -0.008,-0.007 -0.008,-0.008 -0.008,-0.008 -0.007,-0.008 -0.007,-0.008 -0.005,-0.009 -0.005,-0.01 -0.005,-0.01 -0.004,-0.01 -0.004,-0.009 -0.004,-0.01 -0.004,-0.01 -0.004,-0.009 0,-0.01 0,-0.01 0,-0.01 0,-0.009 0,-0.0109 0,-0.009 0,-0.01 0,-0.01 0,-0.01 0.004,-0.009 0.004,-0.01 0.004,-0.01 0.004,-0.01 0.004,-0.009 0.005,-0.01 0.005,-0.01 0.005,-0.009 0.005,-0.008 0.007,-0.008 0.007,-0.008 z m -1.7265,5.62999 -0.42262,0 0,-0.23662 0.004,-0.23013 0.007,-0.22214 0.01,-0.21566 0.0122,-0.20916 0.0156,-0.20317 0.0198,-0.19818 0.0224,-0.1922 0.0274,-0.1877 0.0308,-0.18271 0.0338,-0.1792 0.0398,-0.17424 0.044,-0.17271 0.0485,-0.16773 0.053,-0.16524 0.0584,-0.16274 0.0634,-0.16174 0.069,-0.15775 0.0749,-0.15724 0.079,-0.15626 0.0854,-0.15525 0.0919,-0.15425 0.0975,-0.15326 0.10291,-0.15425 0.10889,-0.15476 0.11595,-0.15425 0.12138,-0.15724 0.12885,-0.15826 0.13482,-0.15924 0.14186,-0.16274 0.14839,-0.16524 0.15637,-0.16872 0.30672,0.28854 -0.15137,0.16373 -0.14537,0.16025 -0.13688,0.15774 -0.13088,0.15425 -0.12288,0.15127 -0.11635,0.14925 -0.10889,0.14827 -0.10387,0.14576 -0.0969,0.14428 -0.0904,0.14426 -0.0849,0.14428 -0.0794,0.14326 -0.074,0.14327 -0.068,0.14528 -0.064,0.14676 -0.0584,0.14676 -0.0535,0.15076 -0.05,0.15226 -0.0455,0.15675 -0.041,0.15874 -0.036,0.16324 -0.033,0.16723 -0.0292,0.17273 -0.0254,0.17771 -0.0216,0.18321 -0.0182,0.1892 -0.0156,0.19518 -0.0122,0.20218 -0.01,0.20966 -0.007,0.21716 -0.004,0.22314 0,0.23362 z"
     id="path5213"
     style="fill:#1f1a17;fill-rule:nonzero" />
  <path
     d="m 155.76256,314.63135 c -0.0596,0.90255 -1.01311,2.26237 -1.56814,2.93879 -0.21231,0.25861 -0.38694,0.78224 -0.58846,1.11022 -0.23625,0.3849 -0.25763,0.91055 -0.52254,1.24101"
     id="path5215"
     style="fill:none;stroke:#1f1a17;stroke-width:0.42281044;stroke-linejoin:round;display:inline" />
  <path
     d="m 153.14864,314.56582 c -0.21689,0.27805 -0.94762,1.91344 -1.12701,3.0716"
     id="path5217"
     style="fill:none;stroke:#1f1a17;stroke-width:0.42281044;stroke-linejoin:round;display:inline" />
  <path
     d="m 151.27915,314.56541 c -0.73536,0.0604 -1.40979,1.33836 -1.65805,1.95986"
     id="path5219"
     style="fill:none;stroke:#1f1a17;stroke-width:0.42281044;stroke-linejoin:round;display:inline" />
  <path
     d="m 148.94017,313.9775 c -0.47199,0.5656 -1.41727,1.50608 -1.9368,2.02526"
     id="path5221"
     style="fill:none;stroke:#1f1a17;stroke-width:0.42281044;stroke-linejoin:round;display:inline" />
  <path
     d="m 146.72806,314.05061 c -0.68291,-0.15726 -2.11169,1.04933 -2.27156,1.6908"
     id="path5223"
     style="fill:none;stroke:#1f1a17;stroke-width:0.42281044;stroke-linejoin:round;display:inline" />
  <ellipse
     cx="0"
     cy="0"
     rx="9.7937098"
     ry="10.1587"
     transform="matrix(0.20439027,-0.02805477,0.02807518,0.20424166,186.50788,241.39385)"
     id="ellipse5227"
     style="fill:#1f1a17;fill-rule:evenodd;stroke:#1f1a17;stroke-width:0.89999998" />
  <path
     d="m 181.9018,240.16772 c 0.0326,1.01637 0.59696,2.09863 1.5022,2.8085 0.70389,0.55212 1.66106,0.86611 2.44235,0.83167 1.27588,-0.0568 3.19672,-1.58146 2.65271,-4.34157 -3.40554,-0.5656 -3.61384,-0.17172 -6.59722,0.70137 z"
     id="path5229"
     style="fill:#ffffff;fill-rule:evenodd;stroke:#1f1a17;stroke-width:1.69124174" />
  <path
     d="m 183.14108,239.98429 c -0.0455,0.34145 0.36718,1.64885 0.51657,1.95037 0.69337,1.40025 3.8636,1.36632 3.87659,-0.75629 0,-0.30251 0.0376,-2.0567 -0.53751,-2.11263 -0.65043,-0.0634 -1.50769,-0.0224 -2.11417,0.22814 -0.34769,0.14377 -1.54116,0.44429 -1.74148,0.69041 z"
     id="path5231"
     style="fill:#1f1a17;fill-rule:evenodd;stroke:#1f1a17;stroke-width:0.3805294" />
  <path
     d="m 185.48008,242.22225 c 0.541,-0.2511 0.69789,-0.48672 0.97961,-0.96246 0.027,-0.0449 0.0376,-0.17573 0.0515,-0.12523 0.0938,0.33596 0.16885,0.6799 0.0914,1.02236 -0.0679,0.30301 -0.45711,0.3819 -0.71684,0.29553 -0.0895,-0.0294 -0.32726,-0.22115 -0.40567,-0.23014 z"
     id="path5233"
     style="fill:#ffffff;fill-rule:evenodd;stroke:#1f1a17;stroke-width:0.3805294" />
  <path
     d="m 140.12985,266.29466 c 8.27627,0 12.44813,-4.77437 20.86681,-4.77437 4.18887,0 7.74524,0.38888 11.13978,1.08825 1.90384,0.39237 4.06296,0.35144 6.04022,1.34285 3.08532,1.83456 2.73663,5.43431 0.20532,6.02886 -1.79092,0.42034 -4.71191,0.3784 -6.02974,-0.03 -5.22247,-1.61891 -15.16978,-5.55958 -20.28782,-3.08256 -2.26751,1.09724 -4.81232,1.69179 -7.58088,1.84654 -1.2139,0.0678 -2.27,0.22165 -3.37804,-0.31848 -0.69687,-0.33946 -2.25753,-1.69928 -0.97565,-2.10113 z"
     id="path5237"
     style="fill:none;stroke:#1f1a17;stroke-width:0.84562087;stroke-linejoin:round" />
  <path
     d="m 140.12985,266.29466 c 8.27627,0 12.44813,-4.77437 20.86681,-4.77437 4.18887,0 7.74524,0.38888 11.13978,1.08825 1.90384,0.39237 4.06296,0.35144 6.04022,1.34285 3.08532,1.83456 2.73663,5.43431 0.20532,6.02886 -1.79092,0.42034 -4.71191,0.3784 -6.02974,-0.03 -5.22247,-1.61891 -15.16978,-5.55958 -20.28782,-3.08256 -2.26751,1.09724 -4.81232,1.69179 -7.58088,1.84654 -1.2139,0.0678 -2.27,0.22165 -3.37804,-0.31848 -0.69687,-0.33946 -2.25753,-1.69928 -0.97565,-2.10113 z"
     id="path5239"
     style="fill:#a92211;fill-rule:evenodd" />
  <path
     d="m 165.40191,258.67286 c 0.13747,0.11682 -0.35181,2.27535 -0.38899,2.59336 -0.10481,0.89656 -0.1782,2.07369 -0.4282,2.9288 -0.0544,0.18673 -0.47299,2.01878 -0.7573,1.74172 -1.26941,-1.23602 -2.69819,-4.89018 -2.74512,-6.74771 l 4.31971,-0.51617 z"
     id="path5241"
     style="fill:#ffffff;fill-rule:evenodd;stroke:#1f1a17;stroke-width:1.26843119;display:inline" />
  <path
     d="m 128.39256,533.94412 1.31686,-0.29764 c 0.31363,-0.25134 2.90194,-1.4222 3.23665,-1.44871 0.30549,-0.0254 5.86489,-0.84563 5.86489,-0.84563 l 1.33081,-0.74028 1.43428,-0.32663 1.66806,-0.38005 c 0,0 0,0 -0.49591,0.44721 -0.49539,0.44772 -1.65758,0.80122 -1.65758,0.80122 l 1.13403,0.68395 -0.87772,0.39583 -6.60229,0.59914 -5.74798,3.19533 -0.96464,-2.07856 0.36048,0 z"
     id="path5243"
     style="fill:#1f1a17;fill-rule:evenodd;stroke:#1f1a17;stroke-width:0.38052934;display:inline" />
  <path
     d="m 131.27719,539.50206 1.99825,-2.18403 2.01323,-0.62249 3.23819,0.60595 -3.27068,0.78921 c 0,0 -1.75645,1.02239 -1.9508,1.04992 -0.19449,0.0255 -1.32231,0.85317 -1.32231,0.85317 l -0.70588,-0.49148 z"
     id="path5245"
     style="fill:#1f1a17;fill-rule:evenodd;stroke:#1f1a17;stroke-width:0.38052934;display:inline" />
  <path
     d="m 125.33872,530.53749 c 0.65345,-0.32614 1.44726,-0.84922 2.09119,-0.84922 0.28308,0 0.88876,-0.31798 1.2419,-0.39176 0.72438,-0.15059 1.46422,-0.58768 2.22158,-0.58768 0.37269,0 1.24243,-0.1312 1.43774,-0.39176"
     id="path5247"
     style="fill:none;stroke:#1f1a17;stroke-width:2.53686237;display:inline" />
  <polygon
     points="2060.44,1487.27 2057.35,1487.12 2052.87,1487.43 2047.15,1492.06 2044.68,1497.94 2043.91,1501.8 2043.91,1504.12 2049.01,1500.72 2054.03,1495.62 2060.59,1491.91 2064.15,1490.52 "
     transform="matrix(0.42296423,0,0,0.4226567,-571.17333,-87.7881)"
     id="polygon5249"
     style="fill:#d1a345;fill-rule:evenodd;stroke:#1f1a17;stroke-width:0.89999998;display:inline" />
  <path
     d="m 173.34941,239.59458 5.16247,-0.8801 c 2.93499,-0.84464 5.9713,-3.43001 8.83083,-4.5103 l -0.0204,-0.24212 -1.40025,0.0848 -2.05076,1.27196 -2.80998,1.89398 -2.5488,1.50158"
     id="path5251"
     style="fill:none;stroke:#1f1a17;stroke-width:0.38052934;display:inline" />
  <polygon
     points="1777.09,771.214 1772.94,772.485 1773.09,772.128 1779.81,768.052 1782.31,766.365 1785.29,764.34 1787.52,762.612 1789.21,761.302 1794.39,760.668 1793.47,762.149 1789.14,764.261 1784.56,766.766 1780.26,769.186 "
     transform="matrix(0.42296423,0,0,0.4226567,-571.17333,-87.7881)"
     id="polygon5253"
     style="fill:#1f1a17;fill-rule:evenodd;stroke:#1f1a17;stroke-width:0.89999998;display:inline" />
  <path
     d="m 153.35592,244.5629 c -1.69258,0.38138 -6.8006,1.03534 -6.27405,3.57527 0.21436,1.03585 0.77533,1.86951 1.52165,2.64976 0.58354,0.61002 2.49731,4.32658 3.78522,3.33816 1.35331,-1.03933 1.20942,-0.8686 1.52169,-2.37469 0.18584,-0.89757 -0.32943,-1.55852 -0.8538,-2.23692 -0.47706,-0.61752 1.79297,-1.43222 2.04124,-2.09915 0.61244,-1.64587 -1.46524,-2.14507 -1.74195,-2.85243 z"
     id="path5255"
     style="fill:#1f1a17;fill-rule:evenodd;stroke:#1f1a17;stroke-width:0.38052934;display:inline" />
  <path
     d="m 151.23684,244.45427 c -0.42209,0 -0.66393,0.19817 -0.95216,0.48624 -0.1074,0.10718 -0.6564,0.28808 -0.82075,0.3739 -1.13607,0.59256 0.19653,1.8041 1.10098,0.89707 0.38084,-0.3819 0.81031,-0.73732 1.17599,-1.10275 0.51759,-0.51716 -0.0876,-0.69188 -0.50406,-0.65445 z"
     id="path5257"
     style="fill:#ffffff;fill-rule:evenodd;display:inline" />
  <path
     d="m 170.66361,304.70609 c -2.11664,3.73453 -7.65434,11.3059 -8.63547,15.27456 1.44573,-1.30041 6.9839,-3.78044 7.97255,-4.60911"
     id="path5259"
     style="fill:none;stroke:#1f1a17;stroke-width:3.38248348;display:inline" />
  <path
     d="m 88.941919,179.05327 -3.500391,0.63597 -4.932375,48.65195 -34.844878,1.90792 0,6.20074 43.277644,5.72376 43.118541,-5.72376 0,-6.20074 -34.844874,-1.90792 -4.932375,-48.65195 -3.341292,-0.63597 z"
     id="path3080"
     style="fill:#405a9f;fill-opacity:1;stroke:none;display:inline" />
  <rect
     width="18.901197"
     height="301.29959"
     x="79.421074"
     y="233.67453"
     id="rect3035"
     style="fill:#405a9f;fill-opacity:1;stroke:none;display:inline" />
  <rect
     width="10.260336"
     height="10.260336"
     x="185.44565"
     y="59.807842"
     transform="matrix(0.7073639,0.70684957,-0.7073639,0.70684957,0,0)"
     id="rect3039"
     style="fill:#d1a345;fill-opacity:1;stroke:#405a9f;stroke-width:3.81722784;stroke-opacity:1" />
  <rect
     width="10.260336"
     height="10.260336"
     x="190.05809"
     y="129.9494"
     transform="matrix(0.7073639,0.70684957,-0.7073639,0.70684957,0,0)"
     id="rect3039-2"
     style="fill:#d1a345;fill-opacity:1;stroke:#405a9f;stroke-width:3.81722784;stroke-opacity:1;display:inline" />
  <rect
     width="10.260336"
     height="10.260336"
     x="64.420288"
     y="255.58725"
     transform="matrix(-0.7073639,0.70684957,0.7073639,0.70684957,0,0)"
     id="rect3078"
     style="fill:#d1a345;fill-opacity:1;stroke:#405a9f;stroke-width:3.81722784;stroke-opacity:1;display:inline" />
  <rect
     width="7.1413612"
     height="93.249527"
     x="85.300896"
     y="233.67453"
     id="rect3131"
     style="fill:#d4cac6;fill-opacity:1;stroke:none;display:inline" />
  <rect
     width="41.852634"
     height="18.437738"
     x="67.945297"
     y="225.57991"
     id="rect3037"
     style="fill:#d1a345;fill-opacity:1;stroke:#103e6f;stroke-width:1.27240908;stroke-opacity:1;display:inline" />
  <path
     d="m 88.941919,509.60033 c -2.674959,2.30685 -3.821508,4.45222 -4.614151,6.35973 0.675634,1.58622 1.585693,3.29897 2.545744,5.56477 -1.247469,0.0982 -4.503685,-0.0407 -7.478132,0.63598 l 0,12.87844 c 0,2.27689 2.684693,7.63168 9.546539,7.63168 6.861858,0 9.38744,-5.35479 9.38744,-7.63168 l 0,-12.87844 c -2.974447,-0.67669 -6.071551,-0.53779 -7.31902,-0.63598 0.960051,-2.2658 1.710998,-3.97855 2.386631,-5.56477 -0.792643,-1.90751 -1.780079,-4.05288 -4.455051,-6.35973 z"
     id="path3099"
     style="fill:#d1a345;fill-opacity:1;stroke:#103e6f;stroke-width:1.27240908;stroke-linecap:butt;stroke-miterlimit:4;stroke-opacity:1;stroke-dasharray:none;display:inline" />
  <path
     d="m 88.941919,449.34187 c -5.291522,0 -7.357851,0.57103 -9.546539,1.43094 -1.643886,1.65341 -1.645814,6.32024 0,8.26765 3.053629,0.32292 5.123774,0.79497 9.546539,0.79497 4.422778,0 6.333824,-0.47205 9.38744,-0.79497 1.645827,-1.94741 1.643885,-6.61424 0,-8.26765 -2.188688,-0.85991 -4.095905,-1.43094 -9.38744,-1.43094 z"
     id="path3106"
     style="fill:#d1a345;fill-opacity:1;stroke:#103e6f;stroke-width:1.27240908;stroke-linecap:butt;stroke-miterlimit:4;stroke-opacity:1;stroke-dasharray:none;display:inline" />
  <path
     d="m 88.871615,359.35168 c -5.291535,0 -7.357864,0.57103 -9.546539,1.43093 -1.643898,1.65343 -1.645826,6.32025 0,8.26766 3.053617,0.32293 5.123761,0.79497 9.546539,0.79497 4.422765,0 6.333811,-0.47204 9.387427,-0.79497 1.645827,-1.94741 1.643885,-6.61423 0,-8.26766 -2.188674,-0.8599 -4.095905,-1.43093 -9.387427,-1.43093 z"
     id="path3106-3"
     style="fill:#d1a345;fill-opacity:1;stroke:#103e6f;stroke-width:1.27240908;stroke-linecap:butt;stroke-miterlimit:4;stroke-opacity:1;stroke-dasharray:none;display:inline" />
  <path
     d="m 286.7592,458.20388 c 17.56039,-37.6102 12.10801,-97.38253 15.04292,-146.504 0,0 -14.97234,-2.99245 -54.01842,-2.99245 -39.04609,0 -54.01843,2.99245 -54.01843,2.99245 2.93493,49.12147 -2.51747,108.8938 15.04292,146.504 8.37578,17.93905 18.23959,30.47915 38.97551,40.52403 20.73591,-10.04488 30.59972,-22.58498 38.9755,-40.52403 z"
     id="path3992-6"
     style="fill:#405a9f;fill-opacity:1;stroke:#d1a345;stroke-width:3.90784693;stroke-opacity:1;display:inline" />
  <path
     d="m 240.1651,377.48301 8.52394,-8.5178 8.52402,8.5178 -8.52402,8.51779 -8.52394,-8.51779 m 8.52394,14.19631 -14.20665,-14.19631 14.20665,-14.19632 14.20669,14.19632 -14.20669,14.19631 m 36.93731,2.83927 -8.52398,8.51778 -14.20664,-14.1963 2.8413,-2.83927 11.36534,11.35705 2.84131,-2.83926 -14.20665,-14.19633 -14.20665,14.19633 14.20665,14.19631 2.84137,-2.83926 -11.36534,-11.35705 0,0 2.8413,-2.83927 14.20671,14.19632 -8.52404,8.5178 -17.04799,-17.03559 -17.04801,17.03559 -8.52398,-8.5178 14.20665,-14.19632 2.8414,2.83927 -11.36538,11.35705 2.84131,2.83926 14.20674,-14.19631 -14.20674,-14.19633 -14.20665,14.19633 2.8413,2.83926 11.36535,-11.35705 0,0 2.84136,2.83927 -14.20671,14.1963 -8.52392,-8.51778 17.04796,-17.03558 -17.04796,-17.03559 8.52392,-8.5178 14.20671,14.19632 -2.84136,2.83927 0,0 -11.36535,-11.35706 -2.8413,2.83927 14.20665,14.19632 14.20674,-14.19632 -14.20674,-14.19632 -2.84131,2.83927 11.36538,11.35705 -2.8414,2.83927 -14.20665,-14.19632 8.52398,-8.5178 17.04801,17.03558 17.04799,-17.03558 8.52404,8.5178 -14.20671,14.19632 -2.8413,-2.83927 0,0 11.36534,-11.35705 -2.84137,-2.83927 -14.20665,14.19632 14.20665,14.19632 14.20665,-14.19632 -2.84131,-2.83927 -11.36534,11.35706 -2.8413,-2.83927 14.20664,-14.19632 8.52398,8.5178 -17.04795,17.03559 17.04795,17.03558"
     id="path3150-7"
     style="fill:#d1a345;fill-opacity:1;fill-rule:evenodd;stroke:none;display:inline" />
  <path
     d="m 79.41337,273.67254 c -5.487701,10.18719 -6.140633,17.46255 -1.713483,28.88325 0.533534,1.3763 1.094005,2.34724 2.682196,2.45657 0.319745,0.0218 2.328941,4.38798 3.426517,5.06241 0.429721,0.26359 4.693387,3.72653 4.693387,1.63739 0,-2.15406 -2.608226,-5.33149 -3.650352,-7.22097 -0.118666,-0.21516 1.821435,1.65086 4.46962,2.53144 3.812655,1.26698 -2.889019,-8.86429 -3.799214,-9.97553 -0.200604,-0.24508 2.659223,0.93699 4.171856,1.26547 5.094597,1.10773 0.610015,-3.43949 -0.521517,-5.13629 -1.199908,-1.79913 -5.403236,-3.79642 -1.713496,-3.79642 6.264009,0 2.055698,-2.34126 -0.0744,-5.35992 -2.434383,-3.45099 -4.943726,-7.32279 -7.97107,-10.34746 z"
     id="path5033"
     style="fill:#1f1a17;fill-rule:evenodd;display:inline" />
  <path
     d="m 78.038777,278.10493 c 0,6.03884 -3.324592,11.58996 -1.076097,17.4296 0.316691,0.82268 3.377544,8.51088 4.304751,5.11783 0.872736,-3.19289 -1.254379,-4.69847 -0.704865,-7.45406 0.748353,-3.75299 -1.297406,-7.34425 0.259666,-11.27395 0.767348,-1.9379 -0.285626,-5.16122 -2.783564,-3.81939 z"
     id="path5035"
     style="fill:#a92211;fill-rule:evenodd;display:inline" />
  <path
     d="m 82.306461,280.77485 c -1.932321,0 -1.115551,2.99172 -0.667908,4.00509 1.306829,2.96027 3.692809,3.8194 6.754626,3.8194 1.03907,0 0.134958,-0.39838 -0.371177,-1.03834 -0.463325,-0.58606 -1.393275,-1.04533 -1.929769,-1.55752 -0.841779,-0.80221 -1.620627,-1.77165 -2.412401,-2.70716 -0.645953,-0.76278 -0.921708,-1.97234 -1.37333,-2.52147 z"
     id="path5037"
     style="fill:#bb9858;fill-rule:evenodd;display:inline" />
  <path
     d="m 83.939091,290.60246 c -0.569486,-0.54162 -3.122765,-0.45627 -2.189598,1.63189 1.218957,2.72714 4.417633,4.97903 7.459491,5.19171 1.205977,0.0844 -1.677027,-2.67672 -2.189543,-3.1894 -0.60252,-0.60154 -2.609231,-3.02516 -3.08035,-3.63419 z"
     id="path5039"
     style="fill:#bb9858;fill-rule:evenodd;display:inline" />
  <path
     d="m 84.573545,298.01924 c -0.78781,-0.7433 -1.233417,-1.87398 -2.226555,-0.5566 -2.322941,3.08107 3.602831,6.98331 5.380833,8.64067 0.819268,0.76377 0.818304,0.75129 0.742339,-0.40783 -0.07685,-1.18711 -1.318845,-3.5708 -2.041184,-4.56121 -0.763873,-1.04831 -1.020633,-2.28133 -1.855433,-3.115 z"
     id="path5041"
     style="fill:#bb9858;fill-rule:evenodd;display:inline" />
  <path
     d="m 83.791085,305.10255 c -0.254072,-0.54663 -0.777369,-2.61831 -1.558661,-2.70716 -1.852378,-0.21115 -1.524187,2.19049 -0.670949,3.3716 0.969215,1.34136 1.739496,2.46155 2.674701,3.78544 0.619939,0.87809 4.163873,3.88678 2.746606,0.81619 -0.439388,-0.95248 -0.924207,-1.83257 -1.447761,-2.78156 -0.386451,-0.70137 -1.490692,-1.93839 -1.743936,-2.48451 z"
     id="path5043"
     style="fill:#bb9858;fill-rule:evenodd;display:inline" />
  <path
     d="m 99.846677,276.42614 c -0.988618,-0.28003 -1.988233,-1.20107 -3.273637,-0.79622 -1.582122,0.49768 -4.402657,4.03653 -5.588607,5.71684 -0.264255,0.37492 -2.468869,2.67122 -2.149123,2.67122 1.429282,0 2.453839,0.23013 3.769683,-0.60901 1.266409,-0.80722 2.056716,-1.78066 3.50498,-1.78066 0.535013,0 3.802689,0.57959 3.802689,-0.18769 0,-1.70928 0.171578,-3.33067 -0.06626,-5.01449 z"
     id="path5045"
     style="fill:#1f1a17;fill-rule:evenodd;display:inline" />
  <path
     d="m 98.882335,276.76976 c -0.87822,-0.06 -1.832935,-0.55362 -2.894965,-0.10989 -1.307345,0.54613 -3.36155,3.3192 -4.204809,4.61564 -0.188385,0.28902 -1.842398,2.13807 -1.568178,2.09612 1.227918,-0.18819 2.131663,-0.16723 3.174237,-0.90953 1.004096,-0.71486 1.58162,-1.47964 2.825531,-1.67033 0.459755,-0.0704 2.860493,-0.0503 2.780618,-0.57108 -0.178216,-1.16014 -0.08201,-2.29083 -0.112556,-3.45098 z"
     id="path5047"
     style="fill:#bb9858;fill-rule:evenodd;display:inline" />
  <metadata
     id="metadata4352">
    <rdf:RDF>
      <cc:Work
         rdf:about="">
        <dc:title></dc:title>
        <dc:format>image/svg+xml</dc:format>
        <dc:type
           rdf:resource="http://purl.org/dc/dcmitype/StillImage" />
      </cc:Work>
    </rdf:RDF>
  </metadata>
</svg>
