<?xml version="1.0" encoding="UTF-8"?>
<!DOCTYPE svg PUBLIC "-//W3C//DTD SVG 1.1//EN" "http://www.w3.org/Graphics/SVG/1.1/DTD/svg11.dtd">
<!-- Creator: CorelDRAW 2018 (64-Bit) -->
<svg xmlns="http://www.w3.org/2000/svg" xml:space="preserve" width="190mm" height="190mm" version="1.1" style="shape-rendering:geometricPrecision; text-rendering:geometricPrecision; image-rendering:optimizeQuality; fill-rule:evenodd; clip-rule:evenodd"
viewBox="0 0 19000 19000"
 xmlns:xlink="http://www.w3.org/1999/xlink"
 xmlns:dc="http://purl.org/dc/elements/1.1/"
 xmlns:cc="http://creativecommons.org/ns#"
 xmlns:rdf="http://www.w3.org/1999/02/22-rdf-syntax-ns#"
 xmlns:svg="http://www.w3.org/2000/svg"
 xmlns:sodipodi="http://sodipodi.sourceforge.net/DTD/sodipodi-0.dtd"
 xmlns:inkscape="http://www.inkscape.org/namespaces/inkscape"
 inkscape:output_extension="org.inkscape.output.svg.inkscape"
 sodipodi:docname="Coat_of_Arms_of_Sakha_(Yakutia).svg"
 inkscape:version="0.46"
 sodipodi:version="0.32"
 enable-background="new 1.941 1.593 198.008 197.549">
 <defs>
  <style type="text/css">
   <![CDATA[
    .str0 {stroke:black;stroke-width:20;stroke-miterlimit:22.9256}
    .str1 {stroke:white;stroke-width:20;stroke-miterlimit:22.9256}
    .fil0 {fill:none}
    .fil5 {fill:none;fill-rule:nonzero}
    .fil2 {fill:#234082}
    .fil3 {fill:#C82222}
    .fil1 {fill:white}
    .fil4 {fill:white;fill-rule:nonzero}
   ]]>
  </style>
 </defs>
 <g id="Layer_x0020_1">
  <metadata id="CorelCorpID_0Corel-Layer"/>
  <sodipodi:namedview id="base" inkscape:cx="156.50363" pagecolor="#ffffff" inkscape:cy="129.27254" showgrid="false" inkscape:zoom="2.8284271" objecttolerance="10.0" borderopacity="1.0" gridtolerance="10.0" bordercolor="#666666" guidetolerance="10.0" inkscape:current-layer="g3006" inkscape:window-y="22" inkscape:window-x="0" inkscape:pageopacity="0.0" inkscape:pageshadow="2" inkscape:window-width="1280" inkscape:window-height="968">
   <inkscape:grid type="xygrid" id="grid5828"/>
  </sodipodi:namedview>
  <g id="flowRoot5811">
  </g>
  <circle class="fil0 str0" cx="9500" cy="9500" r="9450.08"/>
  <circle class="fil1" cx="9480" cy="9500" r="8476.02"/>
  <path class="fil2" d="M7505.25 209.52c5130.99,-1090.63 10174.62,2184.73 11265.24,7315.73 1090.63,5130.99 -2184.74,10174.61 -7315.74,11265.23 -5130.99,1090.63 -10174.62,-2184.73 -11265.24,-7315.73 -1090.63,-5130.99 2184.74,-10174.61 7315.74,-11265.23zm1974.75 1565.48c4266.4,0 7725,3458.6 7725,7725 0,4266.39 -3458.59,7725 -7725,7725 -4266.4,0 -7725,-3458.6 -7725,-7725 0,-4266.39 3458.59,-7725 7725,-7725z"/>
  <path class="fil3" d="M9480 2025c4128.32,0 7475,3346.67 7475,7475 0,4128.32 -3346.67,7475 -7475,7475 -4128.32,0 -7475,-3346.67 -7475,-7475 0,-4128.32 3346.67,-7475 7475,-7475zm0 115c4064.82,0 7360,3295.17 7360,7360 0,4064.82 -3295.17,7360 -7360,7360 -4064.82,0 -7360,-3295.17 -7360,-7360 0,-4064.82 3295.17,-7360 7360,-7360z"/>
  <path class="fil3" d="M9480 2352.5c3947.47,0 7147.5,3200.02 7147.5,7147.5 0,3947.47 -3200.02,7147.5 -7147.5,7147.5 -3947.47,0 -7147.5,-3200.02 -7147.5,-7147.5 0,-3947.47 3200.02,-7147.5 7147.5,-7147.5zm0 250c3809.41,0 6897.5,3088.08 6897.5,6897.5 0,3809.41 -3088.08,6897.5 -6897.5,6897.5 -3809.41,0 -6897.5,-3088.08 -6897.5,-6897.5 0,-3809.41 3088.08,-6897.5 6897.5,-6897.5z"/>
  <g id="_2014601707520">
   <path class="fil1" d="M10513.37 911.73l208.48 -135.39 140.8 216.84 -208.47 135.38 -140.81 -216.83zm309.12 -200.74l109.22 -70.93 271.67 418.33 -418.34 271.68 -65.51 -100.87 208.48 -135.39 100.64 -65.35 -65.36 -100.65 -140.8 -216.82zm209.86 -136.29l418.32 -271.66 271.67 418.33 -418.32 271.67 -271.67 -418.34zm755.34 247.31l65.51 100.88 -208.46 135.37 -100.65 65.36 65.37 100.63 140.8 216.83 -109.22 70.93 -271.67 -418.34 418.32 -271.66zm130.87 201.51l140.81 216.82 -208.47 135.38 -140.8 -216.82 208.46 -135.38zm-378.17 553.84l-418.33 271.67 -271.66 -418.32 418.33 -271.67 271.66 418.32z"/>
   <path class="fil1" d="M8705.19 884.55l175.77 -175.77 182.81 182.82 -175.77 175.77 -182.81 -182.82zm260.62 -260.62l92.09 -92.09 352.71 352.71 -352.71 352.72 -85.05 -85.05 175.77 -175.77 84.86 -84.85 -84.86 -84.86 -182.81 -182.81zm176.94 -176.94l352.7 -352.7 352.71 352.71 -352.7 352.7 -352.71 -352.71zm790.26 84.86l85.05 85.05 -175.76 175.76 -84.86 84.85 84.86 84.85 182.8 182.81 -92.08 92.09 -352.71 -352.71 352.7 -352.7zm169.9 169.9l182.81 182.8 -175.76 175.77 -182.81 -182.81 175.76 -175.76zm-254.75 620.36l-352.71 352.71 -352.7 -352.7 352.71 -352.71 352.7 352.7z"/>
   <path class="fil1" d="M12276.4 1314.25l232.06 -89.08 92.65 241.37 -232.07 89.08 -92.64 -241.37zm344.09 -132.08l121.58 -46.68 178.76 465.68 -465.68 178.77 -43.11 -112.29 232.07 -89.08 112.03 -43 -43 -112.04 -92.65 -241.36zm233.61 -89.68l465.66 -178.75 178.76 465.68 -465.67 178.75 -178.75 -465.68zm687.42 398.95l43.1 112.29 -232.05 89.08 -112.03 43 43.01 112.03 92.64 241.36 -121.58 46.67 -178.75 -465.68 465.66 -178.75zm86.11 224.32l92.65 241.35 -232.06 89.09 -92.65 -241.36 232.06 -89.08zm-485.05 463.11l-465.68 178.76 -178.75 -465.67 465.68 -178.75 178.75 465.66z"/>
   <path class="fil1" d="M13917.2 2074.53l245.52 -38.88 40.43 255.35 -245.51 38.89 -40.44 -255.36zm364.03 -57.65l128.64 -20.38 78.03 492.67 -492.68 78.04 -18.81 -118.8 245.51 -38.89 118.53 -18.76 -18.77 -118.54 -40.45 -255.34zm247.15 -39.15l492.66 -78.03 78.03 492.67 -492.65 78.03 -78.04 -492.67zm589.46 533.16l18.81 118.79 -245.5 38.89 -118.52 18.76 18.78 118.53 40.43 255.34 -128.62 20.38 -78.03 -492.66 492.65 -78.03zm37.59 237.31l40.45 255.34 -245.51 38.9 -40.45 -255.35 245.51 -38.89zm-570.74 352.15l-492.67 78.03 -78.02 -492.65 492.66 -78.04 78.03 492.66z"/>
   <path class="fil1" d="M6930.87 1233.91l135.38 -208.47 216.83 140.81 -135.39 208.48 -216.82 -140.82zm200.74 -309.11l70.93 -109.22 418.33 271.67 -271.66 418.34 -100.88 -65.51 135.39 -208.47 65.36 -100.64 -100.65 -65.36 -216.82 -140.81zm136.28 -209.86l271.67 -418.32 418.33 271.67 -271.66 418.32 -418.34 -271.67zm790.64 -81.3l100.87 65.51 -135.37 208.46 -65.37 100.64 100.65 65.35 216.81 140.81 -70.92 109.22 -418.33 -271.67 271.66 -418.32zm201.51 130.86l216.82 140.8 -135.37 208.47 -216.83 -140.81 135.38 -208.46zm-120.2 659.77l-271.67 418.34 -418.33 -271.67 271.67 -418.33 418.33 271.66z"/>
   <path class="fil1" d="M5267.96 1944.54l89.08 -232.07 241.36 92.66 -89.08 232.07 -241.36 -92.66zm132.08 -344.09l46.67 -121.59 465.68 178.76 -178.75 465.68 -112.29 -43.1 89.08 -232.07 43.01 -112.03 -112.04 -43 -241.36 -92.65zm89.68 -233.61l178.75 -465.67 465.67 178.76 -178.75 465.66 -465.67 -178.75zm756.45 -243.91l112.29 43.11 -89.08 232.05 -43.01 112.03 112.04 43 241.35 92.65 -46.66 121.58 -465.68 -178.75 178.75 -465.67zm224.32 86.11l241.35 92.64 -89.07 232.06 -241.36 -92.65 89.08 -232.05zm19.59 670.34l-178.75 465.68 -465.67 -178.75 178.76 -465.68 465.66 178.75z"/>
   <path class="fil1" d="M3789.13 2985.38l38.89 -245.52 255.35 40.45 -38.88 245.52 -255.36 -40.45zm57.66 -364.04l20.37 -128.63 492.67 78.03 -78.03 492.68 -118.79 -18.82 38.88 -245.52 18.78 -118.52 -118.53 -18.77 -255.35 -40.45zm39.14 -247.15l78.03 -492.65 492.67 78.03 -78.03 492.65 -492.67 -78.03zm689.22 -395.85l118.79 18.82 -38.88 245.5 -18.78 118.52 118.53 18.77 255.34 40.45 -20.37 128.62 -492.66 -78.03 78.03 -492.65zm237.31 37.59l255.35 40.43 -38.88 245.51 -255.35 -40.44 38.88 -245.5zm158.54 651.62l-78.03 492.67 -492.65 -78.03 78.03 -492.67 492.65 78.03z"/>
  </g>
  <g id="_2014601702528">
   <path class="fil4 str1" d="M2350.97 4268c-20.39,-14.5 -37.45,-25.04 -51.15,-31.3 -13.87,-6.39 -25.84,-9.84 -36.33,-10.09 -10.38,-0.44 -20.41,2.04 -30.16,7.12 -9.57,5.2 -22.3,14.84 -38.12,29.21l-25.53 -18.16 162.25 -228.17 25.53 18.16c-9.88,25.53 -14.06,44.18 -12.32,56.36 1.57,12.07 7.74,23.67 18.63,34.61 10.77,11.13 29.17,25.81 54.69,43.96l449.43 319.6c23.77,16.9 41.95,28.49 53.9,34.58 12.25,6.05 22.6,9.14 31.71,9.47 8.8,0.39 17.37,-1.53 25.76,-5.44 8.21,-4.04 20.35,-12.49 36.13,-25.29l25.53 18.15 -183.31 257.78c-57.61,81.03 -115.91,130.34 -175.17,147.99 -59.14,17.47 -120.43,3.8 -183.72,-41.21 -36.16,-25.72 -64.01,-54.87 -83.92,-87.7 -19.76,-33.02 -30.86,-67.34 -33.04,-103.32 -1.99,-35.85 3.87,-72.26 18.26,-109.01 14.21,-36.88 33.45,-72.57 57.78,-106.79 27.36,-38.48 49.25,-67.76 65.67,-87.84l-172.5 -122.67zm215.59 153.31l-42.86 60.27c-27.87,39.18 -45.67,75.1 -53.59,107.64 -7.87,32.85 -4.72,64.45 9.45,94.82 13.99,30.24 40.77,59.42 79.77,87.15 29.79,21.19 57.38,34.94 83.09,41.21 25.53,6.14 49.3,6.49 71.49,1.18 22.01,-5.43 42.51,-16.22 61.39,-31.89 18.71,-15.79 36.19,-35.13 52.45,-58 24.46,-34.39 42.03,-60.6 52.97,-78.98l-314.16 -223.4z"/>
   <path class="fil4 str1" d="M2293.88 5662.8l-166.91 -95.96 31.13 -54.13c21.35,4.75 40.45,8.2 57.39,10.17 17.13,2.06 32.03,2.34 44.85,1.43 12.81,-0.9 24.18,-3.65 33.99,-8.06 9.81,-4.39 18.67,-11.08 26.71,-20.27 7.92,-8.99 16.03,-20.89 24.27,-35.23l100.41 -174.63 -289.49 -166.45 -67.99 118.25c-9.32,16.22 -14.32,30.15 -14.92,42.1 -0.79,11.84 2.69,24.13 10.15,36.45 7.66,12.44 21.65,28.26 42.08,47.29l-29.93 52.05 -212.17 -121.99 29.93 -52.05c25,7.59 44.95,11.28 59.85,11.57 14.7,0.17 27.04,-2.52 36.74,-8.49 9.89,-5.85 19.64,-17.57 29.61,-34.91l67.99 -118.25 -318.72 -183.26 -98.78 171.81c-10.41,18.11 -17.36,33.68 -20.55,46.65 -3.49,13.05 -3.55,25.82 -0.67,38.26 2.87,12.45 8.56,25.25 17.05,38.41 8.68,13.28 18.28,25.82 28.8,37.65 10.63,11.62 26.5,28.54 47.17,50.2l-31.45 54.7 -187.8 -122.04 294.19 -511.66 27.16 15.62c-7.38,26.37 -9.75,45.33 -6.84,57.29 2.72,11.85 9.97,22.81 21.87,32.66 11.79,10.03 31.51,22.88 58.67,38.49l478.08 274.89c25.28,14.54 44.49,24.33 56.97,29.24 12.78,4.84 23.38,6.93 32.47,6.38 8.8,-0.46 17.15,-3.19 25.12,-7.89 7.78,-4.81 19.06,-14.39 33.53,-28.65l27.16 15.61 -297.12 516.75z"/>
   <path class="fil4 str1" d="M1950.92 6358.68l-160.76 -72.68 25.99 -57.49c37.91,5.92 70.05,6.12 96.32,0.81 26.48,-5.21 48.28,-15.42 65.4,-30.59 17.13,-15.18 31.6,-36.09 43.7,-62.85 18.02,-39.84 20.77,-81.33 8.28,-124.46 -12.29,-43.04 -41.22,-85.73 -86.28,-127.58 -45.26,-41.95 -105.45,-79.91 -180.97,-114.06 -75.93,-34.32 -144.15,-56.1 -204.31,-65.63 -60.35,-9.62 -110.55,-6.3 -150.9,10.09 -40.07,16.25 -69.7,45.36 -88.61,87.19 -14.34,31.71 -21.52,59.75 -21.55,84.09 0.07,24.14 6.63,47.64 20.28,70.28 13.63,22.64 36.66,48.81 69.47,78.68l-25.99 57.49 -166.12 -75.11c6.78,-40.87 16.3,-81.45 28.75,-121.66 12.34,-40.49 28.88,-83.4 49.58,-129.19 44.45,-98.31 111.35,-157.6 200.64,-177.63 89.36,-20.25 200.07,-0.52 332.08,59.17 82.86,37.46 149.5,83.35 200.2,137.55 50.4,54.3 81.19,114.54 92.35,180.7 11.14,66.15 0.86,134.33 -31.05,204.89 -15.95,35.29 -32.42,66.99 -49.64,95.03 -17.1,28.32 -39.37,59.08 -66.86,92.96z"/>
   <path class="fil4 str1" d="M1663.83 7211.86l-29.68 -10.04c2.11,-24.55 1.01,-42.37 -2.99,-53.6 -4.01,-11.23 -12.49,-20.77 -25.6,-28.87 -12.9,-8.04 -35.9,-17.44 -68.87,-28.6l-522.39 -176.76c-23.28,-7.88 -41.01,-13.18 -52.89,-16.06 -12.17,-2.73 -22.14,-3.81 -30.33,-3.37 -7.91,0.31 -14.86,1.87 -20.59,4.52 -5.86,2.38 -11.72,6.82 -17.94,12.99 -6.02,6.24 -13.84,16.45 -23.12,30.99l-29.68 -10.04 85.84 -253.67 29.68 10.04c-1.91,23.93 -1.02,41.68 2.78,52.85 4.01,11.23 12.29,20.69 25.32,29.01 12.83,8.24 35.97,17.91 69.35,29.21l617.59 208.97 108.29 -320.02 -617.59 -208.98c-26.79,-9.06 -46.92,-14.73 -60.04,-17.34 -12.99,-2.32 -23.94,-2.59 -32.54,-0.9 -8.68,1.88 -16.95,5.98 -24.49,12.61 -7.73,6.57 -17,18.36 -28.01,35.31l-29.68 -10.05 86.05 -254.28 29.67 10.04c-2.12,27.3 -0.76,46.36 4.42,57.53 4.97,11.1 14.22,20.43 27.8,27.79 13.52,7.55 35.36,16.32 65.03,26.36l522.38 176.76c27.63,9.35 48.37,15.21 61.57,17.61 13.47,2.27 24.28,2.25 33.09,-0.05 8.54,-2.16 16.2,-6.46 23.1,-12.63 6.71,-6.23 15.9,-17.81 27.33,-34.61l29.68 10.04 -232.54 687.24z"/>
   <path class="fil4 str1" d="M1429.6 8069.95c-1.72,-22.49 -9.55,-43.72 -23.79,-63.31 -14.23,-19.58 -51.41,-52.94 -111.78,-99.92l-338.1 -263.79c-102.35,-79.88 -168.42,-143.8 -198.1,-191.29 -29.84,-47.74 -38.32,-99.03 -25.6,-154.15 7.72,-33.49 19.58,-63.57 35.82,-90.41l158.35 36.54 -15.46 66.98c-48.79,-7.23 -77.6,7.33 -86.11,44.21 -11.4,49.39 18.36,104.26 89.06,164.56l488.75 -99.75c76.4,-15.64 124.99,-27.87 145.78,-36.69 20.83,-9.03 37.5,-24.16 50.3,-45.76l30.52 7.04 -61.49 266.45 -30.53 -7.05c4.7,-40.66 -7.23,-64.4 -35.84,-71.01 -26.51,-6.12 -69.83,-3.16 -130.15,8.6l-347.16 67.67 258.13 190.41c55.15,40.64 98.32,64.44 129.28,71.59 36.45,8.41 60.91,-4.7 73.16,-39.39l30.52 7.05 -55.03 238.47 -30.53 -7.05z"/>
   <path class="fil4 str1" d="M579.04 8076.62l31.08 3.94c4.27,33.66 12.68,55.57 25.2,65.71 12.74,10.17 43.3,18.22 91.64,24.36l547.08 69.51c52.66,6.69 85.88,5.88 99.88,-2.44 13.75,-8.12 26.19,-26.71 37.07,-55.37l31.08 3.94 -74.17 583.78 -191 -24.27 7.96 -62.58c51.9,-9.86 88.93,-21.61 111.33,-35.65 22.2,-14.28 36.04,-42.12 41.34,-83.77l24.43 -192.29 -319.19 -40.55c-2.68,60.83 -6.9,114.68 -12.76,160.87 -24.33,191.42 -116.32,276.88 -276.02,256.59 -170.71,-21.69 -242.76,-138.09 -215.94,-349.15l40.99 -322.63zm406.76 247.08l-371.84 -47.25c-6.3,30.55 -12,65.14 -16.94,103.99 -9.73,76.61 -0.73,133.45 26.76,170.72 27.53,37.05 74.2,59.86 139.38,68.14 124.73,15.85 195.57,-41.15 212.08,-171.07 6.97,-54.82 10.48,-96.26 10.56,-124.53z"/>
   <path class="fil4 str1" d="M460.32 9694.43l6.82 -270.1 31.32 0.79c7.57,36.31 19.42,58.38 35.74,66.63 16.56,8.03 46.48,12.48 90.19,13.59l654.39 16.54 4.47 -177.02c-108.95,-11.68 -225.29,-31.81 -349.05,-60.4 -123.74,-28.81 -221.37,-57.82 -293.1,-87.28 -71.5,-29.44 -118.41,-58.92 -141.16,-88.65 -22.54,-29.73 -33.45,-62.66 -32.53,-99.19 0.93,-36.54 6.98,-69.46 17.72,-98.57l128.75 3.25 -1.58 62.64c-30.11,2.93 -45.71,17.55 -46.37,43.44 -0.48,19.14 8.62,37.87 27.3,56.61 18.67,18.76 64.89,41.26 138.67,67.27 73.54,26.24 162.35,50.9 265.79,74.18 103.65,23.08 179.07,35.43 226.69,36.63 31.54,0.8 53.19,-3.43 64.95,-12.5 11.98,-9.05 19.8,-25.61 23.24,-49.68l30.66 0.78 -13.22 523.03 -31.32 -0.79c-6.81,-31.72 -16.53,-51.99 -29.35,-61.24 -12.6,-9.24 -44.9,-14.63 -96.66,-15.94l-551.31 -13.94c-50.45,-1.27 -82.53,2.49 -96.46,11.06 -13.71,8.57 -24.87,28.32 -33.27,59.65l-31.32 -0.79z"/>
   <path class="fil4 str1" d="M517.47 10449.49l31.24 -2.37c10.91,31.68 23.53,51.23 37.84,58.65 14.52,7.41 46.07,9.15 94.66,5.45l273.32 -20.78c89.38,-6.8 146.93,-10.3 172.44,-10.5l-0.2 -2.6 -473.06 -327.72c-50.75,3.86 -82.29,10.84 -94.83,20.96 -12.33,10.09 -21.21,31.06 -26.45,62.45l-31.24 2.37 -20.21 -265.73 31.24 -2.38c10.95,32.11 23.58,51.88 37.9,59.52 14.54,7.62 46.11,9.58 94.7,5.89l549.89 -41.82c55.97,-4.26 89.18,-12.24 99.84,-24.18 10.43,-11.92 18.06,-32.13 22.66,-60.63l31.23 -2.37 20.21 265.73 -31.24 2.37c-9.32,-27.87 -20.11,-46.46 -32.62,-55.99 -12.5,-9.52 -46.08,-12.2 -101.18,-8.01l-279.62 21.26c-62.69,4.77 -115.71,7.5 -158.62,8.36l0.28 3.68 473.05 327.73c44.9,-3.42 73.86,-9.98 86.65,-19.68 13,-9.72 22.32,-30.72 28.35,-63.25l31.24 -2.38 20.11 264.43 -31.24 2.37c-9.32,-27.86 -20.12,-46.47 -32.62,-55.98 -12.51,-9.52 -46.09,-12.2 -101.19,-8.01l-549.89 41.82c-50.76,3.86 -82.3,10.84 -94.84,20.95 -12.33,10.1 -21.2,31.07 -26.45,62.44l-31.24 2.38 -20.11 -264.43z"/>
   <path class="fil4 str1" d="M689.03 11499.01l30.53 -7.04c37.84,-26.59 71.24,-49.25 99.92,-68.16l114.77 -75.38c38.52,-25.63 65.77,-46.87 81.44,-64.11 15.5,-16.98 25.81,-35.21 30.53,-54.38 4.73,-19.18 3.8,-43.53 -2.99,-72.98l-17.47 -75.69 -256.7 59.25c-49.6,11.44 -79.73,23.09 -90.61,34.98 -10.67,11.83 -16.34,33.69 -16.76,65.71l-30.53 7.05 -60.51 -262.22 30.53 -7.05c13.07,26.69 26.43,43.91 40.06,51.71 13.42,7.84 47.23,5.39 100.86,-6.98l537.36 -124.02c54.69,-12.62 86.32,-25.5 95.06,-38.9 8.53,-13.36 13.03,-34.48 13.29,-63.35l30.53 -7.04 60.51 262.21 -30.53 7.05c-13.4,-26.16 -26.87,-42.92 -40.66,-50.46 -13.8,-7.53 -47.4,-5.13 -101.25,7.29l-227.45 52.5 17.22 74.62c7.73,33.48 23.98,57.42 48.36,72.11 24.58,14.65 81.77,27.34 171.5,37.89 84.52,9.29 145.1,24.12 181.89,44.2 36.53,19.93 62.01,60.71 76.15,121.97 4.5,19.5 5.76,46.23 3.98,80.13l-142.66 32.92 -14.19 -61.47c39.79,-14.31 56.19,-37.08 49,-68.24 -4.35,-18.86 -17.07,-33.34 -38.01,-42.81 -20.98,-9.67 -64.72,-19.21 -131.13,-29.34 -54.01,-7.63 -94.49,-15.7 -121.03,-24.32 -26.55,-8.61 -50.51,-23.39 -71.44,-44.46l-4.88 1.12c-5.06,72.85 -44.5,137.09 -118.44,193l-113.26 84.86c-41.84,31.54 -70.55,58.04 -85.93,79.44 -15.37,21.42 -21.17,49.54 -17.36,84.39l-30.53 7.04 -49.17 -213.04z"/>
   <path class="fil4 str1" d="M922.03 12331.35l29.67 -10.04c10.75,18.87 20.31,32.17 28.39,40.46 8.08,8.3 17.39,13.41 27.65,15.22 10.34,2.01 22.64,0.38 37.27,-4.57 13.6,-4.6 27.95,-11.07 42.7,-19.74 14.75,-8.66 31.14,-19.25 48.7,-31.86l70.29 -48.82 -95.18 -281.28 -66.11 -0.6c-33.16,-0.26 -58.2,0.4 -74.49,2.47 -16.37,1.87 -30.94,4.96 -43.3,9.14 -24.11,8.16 -39.74,20.34 -46.89,36.54 -7.22,15.99 -8.22,37.46 -3.15,63.99l-29.67 10.05 -87.23 -257.8 29.67 -10.04c11.11,21.27 30.92,36.39 59.03,45.48 28.1,9.09 65.97,14.42 113.1,15.93l753.48 25.69 32.29 95.41 -603.78 433.04c-28.05,20.29 -49.09,36.82 -63.07,49.83 -13.97,12.99 -23.89,26.45 -29.61,40.09 -5.78,13.45 -7.69,30.17 -5.89,49.77l-29.67 10.04 -94.2 -278.4zm247.55 -342.13l85.42 252.43 350.63 -246.56 -436.05 -5.87z"/>
  </g>
  <g id="_2014601689984">
   <path class="fil4 str1" d="M2304.31 13359.08l-157.03 80.42 -28.76 -56.15c28.25,-25.95 48.44,-50.97 60.66,-74.82 12.42,-23.96 18.03,-47.37 16.83,-70.21 -1.19,-22.86 -8.52,-47.21 -21.91,-73.35 -19.94,-38.92 -50.66,-66.93 -92.18,-84.04 -41.32,-17.21 -92.73,-21.19 -153.55,-12.04 -61.01,9.25 -128.21,32.67 -201.98,70.45 -74.16,37.99 -133.71,77.77 -178.65,118.87 -45.13,41.21 -73.82,82.54 -86.16,124.31 -12.26,41.46 -7.96,82.78 12.96,123.63 15.87,30.98 33.32,54.06 52.34,69.26 18.92,14.99 41.39,24.5 67.6,27.94 26.2,3.45 61.01,1.75 104.83,-5.3l28.76 56.16 -162.27 83.1c-27.73,-30.77 -53.53,-63.5 -77.23,-98.3 -23.97,-34.89 -47.22,-74.56 -70.13,-119.29 -49.18,-96.03 -53.85,-185.3 -13.88,-267.61 39.87,-82.5 124.29,-156.78 253.24,-222.83 80.94,-41.45 158.35,-64.97 232.34,-70.84 73.88,-5.57 140.18,7.89 198.87,40.4 58.68,32.51 105.59,83.04 140.89,151.97 17.65,34.47 32.18,67.11 43.37,98.05 11.5,31.02 21.67,67.6 31.04,110.22z"/>
   <path class="fil4 str1" d="M1896.76 14340.23l26.37 -16.91c14.99,15.72 27.47,26.31 37.31,32.4 9.85,6.1 20.12,8.82 30.52,8.1 10.51,-0.54 22.06,-5.1 35.06,-13.43 12.09,-7.75 24.45,-17.49 36.67,-29.46 12.23,-11.97 25.57,-26.21 39.57,-42.68l56.42 -64.35 -160.26 -249.98 -64.3 15.38c-32.25,7.75 -56.39,14.44 -71.7,20.38 -15.43,5.76 -28.82,12.28 -39.81,19.32 -21.42,13.74 -33.65,29.33 -36.68,46.78 -3.15,17.26 1.07,38.33 12.39,62.86l-26.37 16.91 -146.88 -229.11 26.37 -16.91c15.91,17.96 38.79,27.85 68.26,29.89 29.47,2.04 67.5,-1.94 113.6,-11.85l737.4 -156.97 54.36 84.79 -481.37 566c-22.33,26.45 -38.75,47.58 -49.18,63.57 -10.42,15.99 -16.8,31.44 -19.05,46.06 -2.37,14.45 -0.19,31.14 6.29,49.72l-26.37 16.91 -158.62 -247.42zm157.64 -391.79l143.83 224.35 280.73 -323.92 -424.56 99.57z"/>
   <path class="fil4 str1" d="M2993.76 14399.77l-24.63 19.36c-14.86,-14.33 -28.31,-22.29 -40.15,-24.33 -11.84,-2.04 -23.25,1.4 -34.2,10 -9.4,7.39 -18.62,19.61 -27.68,36.96 -9.04,17.35 -18.68,39.58 -28.87,66.42l-64.66 168.39 172.13 -19.33c25.74,-2.8 45.91,-5.64 60.51,-8.54 14.6,-2.9 26.11,-5.86 34.87,-9.15 8.63,-3.45 16.76,-7.91 24.11,-13.68 10.43,-8.2 16.74,-18.14 19.21,-29.77 2.49,-11.63 -0.48,-25.62 -8.94,-41.67l24.63 -19.35 146.12 185.93 -24.64 19.36c-13.61,-9.23 -28.17,-15.78 -43.66,-19.65 -15.36,-3.7 -34.81,-5.56 -58.25,-5.12 -23.59,0.27 -59.35,2.64 -107.44,6.94l-264.3 24.55 -109.53 291.92c-15.48,41.21 -26.13,70.62 -31.75,87.75 -5.79,17.29 -9.93,32.44 -12.76,45.73 -2.84,13.29 -4.07,26.16 -4.04,38.87 0.19,12.58 2.73,26.35 7.59,41.34l-24.64 19.36 -172.86 -219.96 24.64 -19.36c14.66,13.38 27.8,21.3 39.4,24.09 11.59,2.78 23.44,-0.44 35.08,-9.58 9.4,-7.39 17.79,-17.86 25.35,-31.83 7.52,-13.66 15.77,-32.03 24.6,-55.3l80.14 -209.62 -232.12 27.48c-39.15,4.76 -67.2,13.78 -84.13,27.09 -11.12,8.74 -17.59,18.81 -19.9,30.31 -2.48,11.64 0.66,25.49 9.12,41.53l-24.64 19.36 -148.79 -189.35 24.63 -19.36c13.27,9.49 25.64,16.09 37.09,20.09 11.45,4.02 24.18,6.47 37.99,7.51 13.82,1.03 30.36,1.32 49.97,0.57 19.31,-0.79 52.15,-3.36 98.54,-7.71l277.27 -26.71 121.43 -323.96c10.89,-30.15 18.53,-52.47 22.77,-67.14 4.2,-14.38 7.1,-26.88 8.51,-37.4 1.42,-10.53 1.52,-19.19 0.46,-25.83 -1.06,-6.63 -3.14,-13.85 -5.96,-21.31l24.63 -19.36 167.75 213.46z"/>
   <path class="fil4 str1" d="M3004.8 15742.23l22.67 -21.62c17.7,12.58 31.97,20.61 42.8,24.72 10.83,4.11 21.43,4.82 31.49,2.13 10.22,-2.53 20.69,-9.19 31.87,-19.85 10.39,-9.91 20.68,-21.83 30.4,-35.9 9.72,-14.08 20.11,-30.6 30.72,-49.43l43.15 -73.91 -204.91 -214.92 -60.2 27.34c-30.18,13.74 -52.61,24.9 -66.51,33.65 -14.05,8.59 -25.96,17.54 -35.4,26.54 -18.42,17.57 -27.46,35.2 -27.12,52.91 0.2,17.54 8.35,37.43 24.14,59.35l-22.68 21.62 -187.8 -196.97 22.68 -21.62c19.04,14.61 43.38,19.96 72.7,16.35 29.32,-3.61 65.89,-14.74 109.27,-33.25l694.06 -294.42 69.5 72.9 -364.88 647.25c-16.88,30.22 -28.98,54.09 -36.17,71.77 -7.19,17.68 -10.51,34.07 -9.95,48.85 0.43,14.63 5.75,30.6 15.65,47.6l-22.68 21.62 -202.8 -212.71zm80.2 -414.62l183.89 192.87 213.97 -371.41 -397.86 178.54z"/>
  </g>
  <g id="_2014601689024">
   <path class="fil4 str1" d="M3837.12 16862.94c-56.79,-44.63 -96.56,-89.43 -119.04,-134.77 -22.48,-45.32 -30.07,-93.06 -22.69,-143.99 7.4,-50.63 28.49,-107.38 63.24,-170.27 34.93,-62.75 89.86,-142.15 164.87,-237.6 74.6,-94.92 138.46,-167.04 191.58,-216.32 53.12,-49.29 103.51,-83.84 151.35,-103.52 48.01,-19.54 96.89,-24.02 146.97,-13.44 49.93,10.75 103.27,38.27 160.06,82.9l-32.26 41.06c-23.44,-18.42 -45.75,-32.63 -66.8,-42.81 -24.11,-11.21 -48.55,-16.03 -73.4,-13.97 -27.64,2.07 -56.91,12.55 -87.53,31.1 -35.99,21.51 -76.71,55.37 -122.28,101.73 -48.19,49.01 -105.68,116.17 -172.61,201.35 -59.15,75.26 -106.89,140.95 -143.34,197.52 -36.27,56.73 -61.62,106.24 -76.2,148.73 -12.64,35.45 -18.22,66.49 -16.55,93.25 1.55,23.36 8.06,45.36 19.67,65.81 13.35,23.5 35.74,47.46 67.22,72.19l-32.26 41.05z"/>
   <path class="fil4 str1" d="M4509.07 17002.85l16.91 -26.38c31.5,10.13 54.53,11.7 69.06,4.75 14.65,-7.14 35.05,-31.28 61.35,-72.31l125.63 -195.96 -55.12 -35.34c-34.81,-22.32 -67.57,-32.46 -98.19,-30.64 -30.63,1.8 -73.23,22.3 -127.63,61.6 -78.64,60.18 -140.42,104.56 -185.89,132.77l-16.91 26.37 -182.96 -117.3 16.91 -26.37c28.31,14.28 55.66,18.38 82.41,12.53 26.75,-5.86 63.01,-23.7 108.82,-53.25l61.1 -38.87c73.75,-46.51 143.02,-63.87 207.38,-51.81l3.76 -5.86c-96.41,-106.78 -113.92,-208.45 -52.28,-304.59 46.73,-72.89 105.82,-109.44 176.73,-109.2 71.2,0.18 157.36,32.67 258.45,97.48l224.9 144.18 -16.91 26.38c-31.44,-10.6 -54.94,-12.23 -70.13,-4.66 -15.32,7.75 -36.01,31.96 -62.08,72.62l-297.64 464.26c-29.11,45.42 -42.45,75.89 -40.11,91.6 2.45,15.53 13.77,34.15 34.25,55.81l-16.91 26.37 -224.9 -144.18zm498.97 -642.44c-23.62,-17.99 -48,-35.17 -73.1,-51.26 -120.5,-77.26 -213.98,-64.06 -280.44,39.61 -33.1,51.64 -45.07,98.5 -35.91,141.06 9.08,42.26 57.7,91.78 145.61,148.14l46.7 29.94 197.14 -307.49z"/>
   <path class="fil4 str1" d="M5426.65 17542.8l14.28 -27.88c4.05,-46.07 8.24,-86.22 12.26,-120.33l16.31 -136.34c5.21,-45.98 6.52,-80.5 3.44,-103.59 -3,-22.79 -10.3,-42.42 -21.92,-58.39 -11.62,-15.98 -30.84,-30.95 -57.74,-44.73l-69.13 -35.41 -120.1 234.49c-23.2,45.3 -33.71,75.85 -31.63,91.83 2.18,15.78 15.24,34.2 39.46,55.15l-14.28 27.89 -239.53 -122.67 14.29 -27.89c28.83,7.19 50.61,8.08 65.35,2.68 14.64,-5.21 34.56,-32.65 59.65,-81.64l251.4 -490.84c25.58,-49.96 36.11,-82.46 31.5,-97.77 -4.73,-15.13 -17.98,-32.19 -39.89,-50.98l14.28 -27.89 239.52 122.68 -14.28 27.88c-28.64,-6.6 -50.13,-7.1 -64.79,-1.41 -14.65,5.7 -34.46,32.94 -59.65,82.13l-106.41 207.76 68.16 34.91c30.59,15.67 59.37,18.67 86.3,9.49 27.04,-9.36 73.6,-44.92 139.49,-106.74 61.56,-58.66 111.93,-95.43 150.99,-110.62 38.78,-15.1 86.39,-8.31 142.34,20.35 17.81,9.12 39.07,25.38 63.85,48.59l-66.75 130.31 -56.15 -28.76c14.69,-39.65 7.85,-66.86 -20.61,-81.44 -17.23,-8.82 -36.5,-8.43 -57.23,1.49 -20.91,9.81 -56.4,37.11 -106.93,81.37 -40.63,36.38 -72.89,62.14 -96.58,76.89 -23.69,14.76 -50.43,23.56 -80.04,25.99l-2.28 4.45c52.45,50.81 76.17,122.36 71.28,214.93l-8.07 141.29c-2.84,52.32 -1.08,91.35 5.38,116.91 6.47,25.55 24.24,48.1 53.34,67.65l-14.28 27.88 -194.6 -99.67z"/>
   <path class="fil4 str1" d="M6777.37 17202.72c-22.5,-1.63 -44.66,2.97 -66.14,14.15 -21.47,11.17 -59.98,42.99 -115.39,95.74l-310.97 295.27c-94.17,89.38 -167.17,145.25 -218.53,167.57 -51.64,22.43 -103.62,23.22 -156.25,2.47 -31.98,-12.6 -59.97,-28.79 -84.1,-48.83l59.6 -151.18 63.95 25.21c-14.38,47.18 -4.25,77.83 30.96,91.72 47.16,18.59 105.83,-2.71 175.95,-63.7l-26.23 -498.14c-4.14,-77.86 -9.04,-127.73 -14.68,-149.6 -5.84,-21.94 -18.33,-40.66 -37.81,-56.52l11.5 -29.15 254.39 100.3 -11.49 29.15c-39.52,-10.67 -64.77,-2.4 -75.54,24.93 -9.98,25.3 -13.48,68.58 -10.79,129.98l15.48 353.36 226.56 -227.07c48.36,-48.51 78.3,-87.68 89.96,-117.24 13.72,-34.8 4.38,-60.94 -28.11,-78.19l11.49 -29.14 227.68 89.76 -11.49 29.15z"/>
   <path class="fil4 str1" d="M6880.5 17212.41l663.39 188.39 -60.62 213.46 -60.07 -17.06c0.99,-37.71 0.1,-68.04 -2.85,-91.04 -2.97,-23.01 -7.99,-41.17 -14.8,-54.64 -6.65,-13.19 -15.13,-23.97 -24.97,-31.51 -10.06,-7.61 -26.35,-14.72 -48.74,-21.08l-77.85 -22.11 -178.29 627.82c-6.83,24.07 -11.05,43.67 -12.36,58.67 -1.38,15.21 -0.62,27.65 2.45,37.56 3.27,9.98 8.76,18.55 16.81,26.03 8.11,7.28 21.65,16.1 40.29,26.14l-8.56 30.14 -280.22 -79.57 8.56 -30.14c13.12,0.79 24.89,0.74 35.26,0.06 10.31,-0.46 18.97,-2.3 26.41,-5.39 7.16,-2.93 13.71,-7.63 19.76,-13.84 5.85,-6.25 11.84,-15.4 17.76,-27.51 5.87,-11.91 12.21,-30.24 19.16,-54.72l178.28 -627.82 -77.21 -21.92c-19.26,-5.47 -35.7,-8.1 -49.06,-8.06 -13.62,0.21 -27.27,4.47 -41.27,13.16 -14,8.69 -28.32,22.48 -43.18,41.33 -14.9,19.07 -30.73,43.74 -48.01,74.34l-60.69 -17.23 60.62 -213.46z"/>
   <path class="fil4 str1" d="M8014.63 18383.97l5.5 -30.84c33.41,-2.65 55.49,-9.98 66.25,-21.98 10.8,-12.21 20.38,-42.33 28.94,-90.3l48.19 -269.84c15.76,-88.23 26.75,-144.83 32.94,-169.58l-2.57 -0.46 -435.56 376.13c-8.95,50.1 -10.07,82.39 -3.4,97.06 6.69,14.46 24.77,28.3 53.85,41.22l-5.51 30.84 -262.35 -46.85 5.51 -30.84c33.83,-2.58 56.13,-9.87 67.1,-21.83 11.01,-12.17 20.8,-42.25 29.37,-90.22l96.95 -542.89c9.87,-55.25 10.44,-89.41 1.55,-102.71 -8.94,-13.08 -26.59,-25.52 -53.04,-37.09l5.51 -30.84 262.35 46.85 -5.51 30.84c-29.32,2.06 -50.02,7.86 -62.38,17.59 -12.34,9.73 -23.33,41.58 -33.04,95.98l-49.3 276.05c-11.06,61.89 -21.67,113.91 -31.56,155.67l3.64 0.66 435.56 -376.13c7.91,-44.33 8.8,-74.01 2.6,-88.81 -6.15,-15.02 -24.17,-29.29 -54.16,-43.26l5.51 -30.84 261.06 46.62 -5.51 30.84c-29.31,2.06 -50.02,7.86 -62.36,17.59 -12.34,9.73 -23.33,41.58 -33.05,95.98l-96.95 542.89c-8.95,50.11 -10.07,82.39 -3.42,97.06 6.7,14.46 24.78,28.3 53.85,41.22l-5.5 30.84 -261.06 -46.62z"/>
   <path class="fil4 str1" d="M8945.31 18478.6l2.37 -31.24c32.53,-6.03 53.56,-15.56 63.05,-28.58 9.51,-13.23 16.02,-44.16 19.71,-92.75l17.65 -232.11 -65.29 -4.96c-41.22,-3.14 -74.88,3.47 -100.97,19.6 -26.11,16.11 -53.89,54.37 -83.14,114.76 -40.68,90.29 -74.02,158.66 -100.68,205.06l-2.37 31.24 -216.71 -16.48 2.38 -31.24c31.7,-0.86 57.72,-10.23 78.49,-28.06 20.78,-17.85 44.23,-50.75 70.55,-98.5l35.35 -63.2c42.86,-75.93 95.61,-124.06 157.99,-143.97l0.53 -6.94c-135.52,-48.28 -199.15,-129.48 -190.49,-243.36 6.56,-86.33 41.25,-146.53 103.78,-179.95 62.77,-33.62 154.04,-45.89 273.77,-36.78l266.38 20.26 -2.38 31.24c-32.7,5.58 -54.17,15.29 -63.95,29.16 -9.81,14.1 -16.54,45.22 -20.2,93.38l-41.82 549.89c-4.09,53.8 -1.38,86.95 8.14,99.67 9.51,12.5 28.31,23.53 56.61,32.88l-2.37 31.24 -266.38 -20.26zm134.54 -802.24c-29.32,-4.64 -58.94,-8.2 -88.66,-10.46 -142.73,-10.85 -218.76,45.1 -228.1,167.89 -4.65,61.16 7.04,108.1 35.29,141.22 28.04,32.89 94.33,53.43 198.45,61.35l55.32 4.21 27.7 -364.21z"/>
   <path class="fil4 str1" d="M9412.68 17592.76c72.21,-1.83 131.42,7.56 177.64,27.94 46.21,20.59 82.72,52.74 109.28,96.47 26.56,43.72 46.52,100.88 59.83,171.49 13.1,70.61 21.41,166.8 24.48,288.15 3.05,120.7 -0.17,216.98 -9.68,288.81 -9.49,71.83 -26.29,130.59 -50.6,176.25 -24.52,45.66 -59.32,80.49 -104.65,104.04 -45.32,23.79 -103.97,36.36 -176.17,38.19l-1.32 -52.19c29.79,-0.76 56.04,-4.03 78.75,-9.61 25.73,-6.52 47.62,-18.61 65.46,-36.03 19.97,-19.23 35.83,-45.74 47.6,-79.77 14.02,-39.31 23.8,-91.56 29.35,-156.12 5.88,-68.7 7.56,-157.1 4.82,-265.4 -2.41,-95.69 -7.73,-176.72 -15.73,-243.55 -8.21,-66.6 -20.25,-121.13 -36.11,-163.17 -12.87,-35.36 -28.36,-62.82 -46.7,-82.38 -16.09,-17.01 -35.13,-29.8 -57.11,-38.17 -25.27,-9.36 -57.8,-13.76 -97.82,-12.75l-1.32 -52.2z"/>
  </g>
  <path class="fil4" d="M11006.78 18190.34c-37.05,6.62 -71.52,4.16 -103.16,-7.21 -31.64,-11.36 -57.83,-30.55 -78.92,-57.06 -20.91,-26.77 -34.51,-58.37 -41.01,-94.78 -6.12,-34.26 -3.61,-67.2 7.72,-99.06 11.33,-31.84 30.58,-58.93 57.28,-81.39 26.92,-22.48 58.59,-36.97 95,-43.47 37.26,-6.66 71.45,-4.59 103.01,6.35 31.57,10.94 57.64,29.48 78.22,55.64 20.8,26.12 34.36,57.51 40.94,94.34 6.5,36.42 4,70.67 -7.25,102.95 -11.26,32.29 -30.29,59.34 -56.68,81.07 -26.62,21.77 -58.32,36.04 -95.15,42.62z"/>
  <path id="1" class="fil5 str1" d="M11006.78 18190.34c-37.05,6.62 -71.52,4.16 -103.16,-7.21 -31.64,-11.36 -57.83,-30.55 -78.92,-57.06 -20.91,-26.77 -34.51,-58.37 -41.01,-94.78 -6.12,-34.26 -3.61,-67.2 7.72,-99.06 11.33,-31.84 30.58,-58.93 57.28,-81.39 26.92,-22.48 58.59,-36.97 95,-43.47 37.26,-6.66 71.45,-4.59 103.01,6.35 31.57,10.94 57.64,29.48 78.22,55.64 20.8,26.12 34.36,57.51 40.94,94.34 6.5,36.42 4,70.67 -7.25,102.95 -11.26,32.29 -30.29,59.34 -56.68,81.07 -26.62,21.77 -58.32,36.04 -95.15,42.62z"/>
  <g id="_2014601683328">
   <path class="fil4 str1" d="M12526.8 17070.6l56.55 167.13 -59.76 20.22c-21.53,-31.76 -43.32,-55.39 -65.12,-70.97 -21.88,-15.81 -44.22,-24.78 -66.99,-26.94 -22.79,-2.18 -47.94,1.51 -75.76,10.93 -41.43,14.01 -73.64,40.3 -96.64,78.86 -23.09,38.35 -34.56,88.63 -34.41,150.13 0.21,61.71 13.53,131.62 40.09,210.12 26.71,78.93 57.33,143.67 91.41,194.15 34.15,50.68 70.83,85.12 110.34,103.44 39.22,18.2 80.72,20 124.2,5.29 32.97,-11.15 58.36,-25.03 76.18,-41.62 17.6,-16.52 30.3,-37.35 37.55,-62.78 7.24,-25.41 10.66,-60.1 10.11,-104.47l59.76 -20.22 58.44 172.69c-34.5,22.93 -70.67,43.65 -108.56,61.99 -38.02,18.6 -80.67,35.79 -128.27,51.9 -102.21,34.58 -191.2,26.12 -266.76,-25.49 -75.78,-51.52 -136.88,-145.91 -183.32,-283.15 -29.15,-86.14 -41.07,-166.16 -36.04,-240.21 5.32,-73.9 28.35,-137.51 69.1,-190.81 40.76,-53.28 97.63,-92.27 170.98,-117.1 36.69,-12.41 71.1,-22 103.35,-28.54 32.37,-6.82 70.05,-11.53 113.57,-14.55z"/>
   <path class="fil4 str1" d="M13429.82 17593.87l-12.91 -28.55c17.73,-12.54 30.02,-23.36 37.48,-32.22 7.46,-8.86 11.64,-18.63 12.43,-29.01 0.99,-10.48 -1.84,-22.57 -8.2,-36.64 -5.92,-13.08 -13.77,-26.73 -23.84,-40.56 -10.07,-13.83 -22.22,-29.1 -36.49,-45.33l-55.49 -65.16 -270.58 122.33 5.9 65.85c3,33.03 6.11,57.88 9.77,73.9 3.47,16.1 7.97,30.29 13.35,42.18 10.48,23.19 24.14,37.55 40.96,43.08 16.62,5.62 38.09,4.5 64,-3.15l12.9 28.55 -247.98 112.12 -12.91 -28.55c20.09,-13.14 33.19,-34.34 39.47,-63.2 6.29,-28.87 7.87,-67.07 4.75,-114.12l-48.41 -752.37 91.78 -41.5 490.23 558.35c22.94,25.92 41.46,45.23 55.77,57.87 14.31,12.63 28.67,21.18 42.81,25.53 13.95,4.44 30.78,4.7 50.1,0.98l12.91 28.54 -267.8 121.08zm-364.79 -212.77l242.83 -109.79 -279.8 -324.73 36.97 434.52z"/>
   <path class="fil4 str1" d="M13636.4 16491.26l15.62 27.16c-16.32,12.65 -26.13,24.81 -29.85,36.24 -3.72,11.42 -1.96,23.21 4.98,35.28 5.96,10.37 16.73,21.25 32.6,32.7 15.86,11.45 36.49,24.18 61.57,38.12l157.35 88.2 5.62 -173.12c0.93,-25.88 1.01,-46.25 0.24,-61.11 -0.77,-14.87 -2.04,-26.69 -4.04,-35.83 -2.18,-9.04 -5.42,-17.72 -10.08,-25.82 -6.61,-11.51 -15.54,-19.17 -26.69,-23.3 -11.15,-4.13 -25.43,-3.2 -42.52,2.87l-15.62 -27.16 205.01 -117.88 15.62 27.16c-11.1,12.15 -19.67,25.61 -25.73,40.39 -5.87,14.67 -10.5,33.65 -13.44,56.91 -3.12,23.38 -5.91,59.11 -8.57,107.32l-13.69 265.08 273.15 150.36c38.55,21.24 66.12,36 82.27,44.03 16.27,8.21 30.68,14.49 43.42,19.2 12.75,4.72 25.3,7.79 37.88,9.59 12.48,1.61 26.48,1.08 42.01,-1.57l15.62 27.16 -242.53 139.45 -15.62 -27.16c15.35,-12.59 25.08,-24.46 29.51,-35.54 4.42,-11.07 2.93,-23.26 -4.44,-36.09 -5.97,-10.37 -15.12,-20.17 -27.85,-29.65 -12.44,-9.42 -29.44,-20.22 -51.2,-32.3l-195.92 -109.44 -6.17 233.66c-0.92,39.43 3.98,68.48 14.72,87.15 7.05,12.26 16.08,20.11 27.13,24.05 11.16,4.13 25.32,3.01 42.41,-3.05l15.61 27.16 -208.77 120.04 -15.61 -27.16c11.3,-11.77 19.61,-23.07 25.22,-33.83 5.61,-10.75 9.87,-22.99 12.88,-36.51 3.01,-13.53 5.67,-29.86 7.75,-49.37 2,-19.22 4.17,-52.09 6.53,-98.62l13.42 -278.23 -303.14 -166.74c-28.27,-15.11 -49.26,-25.88 -63.17,-32.18 -13.62,-6.22 -25.58,-10.89 -35.79,-13.8 -10.22,-2.91 -18.76,-4.26 -25.49,-4.17 -6.72,0.1 -14.16,1.12 -21.95,2.84l-15.62 -27.16 235.36 -135.33z"/>
   <path class="fil4 str1" d="M14947.93 16660.44l-18.15 -25.53c14.98,-15.73 24.97,-28.7 30.58,-38.83 5.62,-10.13 7.84,-20.52 6.61,-30.87 -1.04,-10.47 -6.14,-21.79 -15.09,-34.37 -8.32,-11.7 -18.65,-23.59 -31.19,-35.22 -12.55,-11.63 -27.41,-24.28 -44.53,-37.47l-66.98 -53.27 -242 172.09 18.45 63.48c9.29,31.84 17.13,55.63 23.8,70.64 6.5,15.14 13.65,28.2 21.21,38.83 14.75,20.75 30.91,32.21 48.49,34.4 17.38,2.31 38.24,-2.91 62.19,-15.4l18.16 25.53 -221.8 157.72 -18.15 -25.53c17.18,-16.76 25.95,-40.08 26.57,-69.62 0.62,-29.53 -5.17,-67.33 -17.28,-112.9l-192.21 -729.01 82.09 -58.37 588.46 453.64c27.49,21.02 49.38,36.42 65.86,46.06 16.46,9.64 32.21,15.27 46.92,16.82 14.54,1.68 31.11,-1.31 49.35,-8.68l18.16 25.54 -239.52 170.32zm-398.9 -138.65l217.18 -154.43 -337.02 -264.86 119.84 419.29z"/>
  </g>
  <g id="_2014601681216">
   <path class="fil4 str1" d="M15917.25 15798.33c-77.91,81.72 -163.52,117.93 -256.07,108.44 -92.86,-9.48 -191.57,-64.21 -296.12,-163.89 -52.27,-49.84 -93.44,-99.02 -123.23,-147.86 -29.94,-48.68 -48.04,-98.41 -54.8,-149.33 -6.6,-51.09 -1.75,-99.06 14.41,-144.37 16.15,-45.32 43.14,-87.81 80.68,-127.18 80.01,-83.92 166.51,-121.37 259.36,-112.2 93,9.01 190.92,62.69 293.88,160.86 53.22,50.74 95.03,100.52 125.29,149.81 30.41,49.13 48.98,99.01 55.89,149.78 7.05,50.61 1.9,98.89 -15.01,145 -16.9,46.1 -44.94,89.69 -84.28,130.94zm-508.92 -190.36l306.54 -321.51c-41.19,-36.25 -80.79,-64.7 -118.68,-85.18 -37.72,-20.65 -73.58,-33.79 -106.94,-39.16 -33.53,-5.5 -64.72,-3.68 -93.27,5.46 -28.72,9 -54.18,25.29 -76.4,48.6 -48.04,50.39 -65.43,108.35 -52.02,174.04 13.42,65.69 60.24,138.28 140.77,217.75zm356.99 -276.71l-308.64 323.73c92.08,86.58 173.92,137.26 245.97,151.85 72.06,14.59 133.3,-4.56 183.59,-57.31 24.77,-25.98 40.7,-54.67 48.25,-86.24 7.57,-31.57 5.83,-65.69 -4.89,-102.37 -10.73,-36.67 -29.76,-73.76 -57.12,-110.96 -27.36,-37.2 -62.44,-76.06 -105.27,-116.89l-1.89 -1.81z"/>
   <path class="fil4 str1" d="M16330.35 15075.55c19.67,15.46 36.21,26.8 49.58,33.71 13.55,7.05 25.35,11.06 35.81,11.82 10.35,0.93 20.49,-1.06 30.47,-5.67 9.81,-4.73 22.98,-13.75 39.48,-27.35l24.63 19.36 -173 220.14 -24.63 -19.36c11.1,-25.03 16.17,-43.46 15.01,-55.71 -0.99,-12.12 -6.59,-24.01 -16.95,-35.46 -10.23,-11.63 -27.9,-27.18 -52.53,-46.53l-433.61 -340.76c-22.92,-18.01 -40.53,-30.46 -52.17,-37.12 -11.95,-6.63 -22.14,-10.21 -31.22,-10.97 -8.77,-0.82 -17.42,0.69 -25.99,4.19 -8.39,3.65 -20.93,11.5 -37.3,23.54l-24.64 -19.36 195.45 -248.71c61.43,-78.17 122.02,-124.63 182.06,-139.42 59.91,-14.62 120.47,1.97 181.53,49.96 34.89,27.42 61.31,57.87 79.62,91.62 18.17,33.92 27.6,68.73 28.06,104.78 0.27,35.9 -7.33,71.99 -23.46,108.01 -15.96,36.15 -36.89,70.89 -62.83,103.9 -29.17,37.12 -52.44,65.32 -69.8,84.6l166.43 130.79zm-208 -163.46l45.7 -58.15c29.71,-37.81 49.21,-72.83 58.68,-104.96 9.43,-32.43 7.8,-64.14 -4.9,-95.15 -12.53,-30.88 -37.88,-61.31 -75.51,-90.88 -28.74,-22.58 -55.63,-37.64 -81.02,-45.14 -25.2,-7.35 -48.93,-8.84 -71.35,-4.6 -22.25,4.37 -43.23,14.16 -62.85,28.91 -19.43,14.88 -37.82,33.36 -55.17,55.43 -26.07,33.18 -44.87,58.51 -56.68,76.35l303.1 238.19z"/>
   <path class="fil4 str1" d="M17054.43 14377.03c-60.94,95.05 -138.1,146.88 -230.76,155.18 -92.97,8.36 -200.29,-26.59 -321.89,-104.55 -60.8,-38.98 -110.59,-79.42 -149.12,-121.71 -38.66,-42.09 -65.89,-87.46 -82.22,-136.17 -16.2,-48.9 -20.56,-96.91 -13.32,-144.47 7.23,-47.56 25.64,-94.42 55,-140.21 62.58,-97.61 140.37,-150.84 233.27,-159.5 93.01,-8.85 199.36,25.21 319.13,102 61.9,39.68 112.42,80.6 151.5,123.22 39.2,42.45 66.93,87.88 83.37,136.41 16.55,48.34 20.68,96.72 12.86,145.21 -7.82,48.47 -27.06,96.6 -57.82,144.59zm-535.85 -90.04l239.75 -373.97c-47.32,-27.76 -91.62,-48.15 -132.71,-61.05 -40.97,-13.08 -78.67,-19.16 -112.44,-18.08 -33.96,0.98 -64.24,8.7 -90.53,23.1 -26.48,14.3 -48.38,35.14 -65.75,62.25 -37.58,58.61 -43.62,118.82 -17.95,180.76 25.67,61.93 85.45,124.3 179.63,186.99zm297.82 -339.59l-241.41 376.54c106.87,67.49 196.86,101.66 270.38,102.27 73.51,0.62 129.99,-29.84 169.33,-91.19 19.37,-30.22 29.55,-61.42 30.96,-93.85 1.42,-32.44 -6.78,-65.6 -24.29,-99.57 -17.51,-33.96 -43.25,-66.75 -77.19,-98.06 -33.94,-31.32 -75.77,-62.79 -125.59,-94.73l-2.19 -1.41z"/>
   <path class="fil4 str1" d="M16889.7 12920.79l157.03 80.43 -28.76 56.15c-37.57,-7.76 -69.66,-9.52 -96.16,-5.5 -26.7,3.92 -48.98,13.05 -66.82,27.37 -17.85,14.33 -33.32,34.51 -46.71,60.65 -19.93,38.92 -24.7,80.22 -14.33,123.91 10.18,43.59 37,87.64 79.97,131.63 43.16,44.11 101.44,84.95 175.2,122.73 74.16,37.99 141.25,63.06 200.87,75.51 59.81,12.54 110.12,11.67 151.22,-2.73 40.81,-14.28 71.82,-41.91 92.75,-82.77 15.86,-30.98 24.4,-58.63 25.61,-82.94 1.11,-24.12 -4.3,-47.91 -16.83,-71.19 -12.51,-23.27 -34.24,-50.53 -65.56,-81.97l28.76 -56.15 162.27 83.11c-8.76,40.49 -20.25,80.55 -34.64,120.12 -14.3,39.84 -32.91,81.89 -55.81,126.61 -49.19,96.04 -118.9,151.99 -209.06,167.66 -90.24,15.87 -199.85,-9.23 -328.8,-75.27 -80.94,-41.46 -145.26,-90.54 -193.27,-147.14 -47.7,-56.7 -75.52,-118.36 -83.44,-184.99 -7.91,-66.62 5.69,-134.21 40.99,-203.14 17.66,-34.47 35.65,-65.33 54.22,-92.49 18.45,-27.46 42.19,-57.09 71.3,-89.6z"/>
   <path class="fil4 str1" d="M17209.09 12077.33l29.15 11.49c-3.32,24.42 -3.1,42.27 0.34,53.69 3.45,11.41 11.46,21.35 24.14,30.09 12.5,8.67 35.01,19.19 67.39,31.95l513.04 202.28c22.87,9.02 40.31,15.18 52.04,18.65 12.02,3.33 21.92,4.9 30.13,4.86 7.91,0.07 14.93,-1.14 20.78,-3.51 5.97,-2.08 12.05,-6.23 18.57,-12.08 6.32,-5.94 14.62,-15.75 24.61,-29.82l29.15 11.49 -98.23 249.14 -29.14 -11.49c3.07,-23.81 3.06,-41.59 -0.19,-52.93 -3.44,-11.41 -11.25,-21.27 -23.85,-30.22 -12.41,-8.86 -35.04,-19.66 -67.83,-32.58l-606.55 -239.15 -123.92 314.31 606.55 239.14c26.31,10.37 46.13,17.03 59.12,20.27 12.86,2.97 23.77,3.77 32.45,2.5 8.76,-1.44 17.22,-5.13 25.08,-11.38 8.04,-6.18 17.88,-17.5 29.71,-33.88l29.15 11.49 -98.46 249.74 -29.15 -11.49c3.46,-27.17 3.04,-46.27 -1.57,-57.68 -4.43,-11.33 -13.2,-21.11 -26.4,-29.12 -13.14,-8.21 -34.52,-18.05 -63.66,-29.54l-513.04 -202.27c-27.13,-10.7 -47.56,-17.58 -60.62,-20.63 -13.35,-2.93 -24.14,-3.44 -33.06,-1.57 -8.64,1.73 -16.49,5.65 -23.7,11.47 -7,5.89 -16.75,17.01 -28.99,33.23l-29.15 -11.5 266.11 -674.95z"/>
   <path class="fil4 str1" d="M17799.12 11807.94l-362.56 79.78c-43.7,9.75 -75.3,17.51 -94.66,23.54 -19.36,6.05 -35.36,13.03 -47.75,20.82 -12.44,8.01 -22.85,18.39 -31.17,30.95l-30.14 -8.55 74.17 -261.18 30.13 8.56c-6.53,39.76 4.53,63.7 33.2,71.84 11.72,3.33 25.94,4.21 42.14,2.92 16.4,-1.21 39.97,-5.38 71.01,-11.94l268.37 -56.31 -178.96 -181.31c-24.45,-24.58 -45.04,-42.87 -61.7,-55.07 -16.52,-11.92 -32.73,-20.14 -48.21,-24.54 -14.86,-4.22 -27.62,-3.09 -38.49,3.31 -10.87,6.42 -19.57,17.97 -25.91,34.72l-30.14 -8.56 65.97 -232.3 30.14 8.56c1.31,18.47 5.52,35.49 12.78,51.35 7.31,15.65 18.28,32.78 33.02,50.98 14.45,18.36 40.23,46.25 76.71,84.21l242.31 252.9 198.6 56.39c23.23,6.6 42.41,10.69 57.36,12.22 15.1,1.8 27.59,0.82 37.77,-2.39 10.19,-3.22 19.29,-9 26.78,-17.05 7.42,-7.84 16.45,-21.34 26.49,-39.96l30.14 8.56 -79.51 280 -30.14 -8.55c1.55,-20.6 1.32,-36.5 -0.82,-47.27 -1.93,-10.73 -6.49,-20.17 -13.68,-28.32 -7.17,-8.14 -17.5,-15.59 -31.17,-22.42 -13.45,-6.76 -32.14,-13.43 -55.79,-20.14l-196.29 -55.75z"/>
   <path class="fil4 str1" d="M17980.8 11014.29l-352.78 115.56c-42.51,14.06 -73.18,24.94 -91.84,32.87 -18.65,7.95 -33.88,16.49 -45.43,25.48 -11.58,9.21 -20.91,20.58 -27.93,33.91l-30.84 -5.51 47.73 -267.27 30.84 5.51c-2.54,40.21 10.86,62.93 40.2,68.17 11.99,2.14 26.23,1.6 42.22,-1.3 16.2,-2.84 39.23,-9.35 69.47,-18.97l261.41 -82.81 -196.16 -162.55c-26.79,-22.01 -49.1,-38.16 -66.9,-48.63 -17.62,-10.22 -34.57,-16.78 -50.41,-19.61 -15.21,-2.71 -27.79,-0.32 -37.97,7.14 -10.17,7.47 -17.68,19.83 -22.31,37.12l-30.85 -5.5 42.46 -237.72 30.84 5.5c3.15,18.25 9.04,34.77 17.84,49.82 8.84,14.84 21.46,30.79 37.94,47.44 16.22,16.82 44.65,42 84.74,76.13l266.34 227.45 203.23 36.29c23.78,4.25 43.27,6.4 58.3,6.43 15.2,0.29 27.53,-1.93 37.34,-6.14 9.82,-4.22 18.29,-10.88 24.94,-19.64 6.61,-8.54 14.25,-22.87 22.38,-42.41l30.84 5.51 -51.17 286.55 -30.85 -5.51c-0.5,-20.65 -2.33,-36.45 -5.53,-46.96 -2.99,-10.48 -8.47,-19.42 -16.43,-26.8 -7.96,-7.39 -18.98,-13.77 -33.25,-19.2 -14.07,-5.38 -33.33,-10.15 -57.53,-14.48l-200.88 -35.87z"/>
   <path class="fil4 str1" d="M18433.69 10455.67l-31.24 -2.37c-5.96,-33.4 -15.47,-54.85 -28.48,-64.35 -13.24,-9.52 -44.17,-16.01 -92.75,-19.71l-549.9 -41.82c-52.92,-4.02 -86.06,-1.53 -99.62,7.48 -13.33,8.8 -24.82,28 -34.24,57.18l-31.24 -2.38 44.63 -586.78 191.98 14.6 -4.79 62.91c-51.34,12.47 -87.73,26.07 -109.39,41.22 -21.46,15.38 -33.87,43.88 -37.06,85.75l-14.7 193.27 320.83 24.4c-0.39,-60.89 1.1,-114.88 4.63,-161.31 14.63,-192.4 102.2,-282.39 262.72,-270.19 171.58,13.05 249.42,125.66 233.28,337.81l-24.66 324.29zm-418.71 -226.24l373.75 28.42c4.75,-30.83 8.71,-65.66 11.68,-104.7 5.85,-77.01 -6.01,-133.32 -35.35,-169.16 -29.36,-35.61 -77.12,-56.04 -142.63,-61.02 -125.38,-9.54 -193.25,50.97 -203.19,181.55 -4.19,55.1 -5.6,96.67 -4.26,124.91z"/>
   <path class="fil4 str1" d="M18116.6 9333.97l-322.42 183.99c-38.83,22.31 -66.69,39.12 -83.38,50.63 -16.68,11.53 -29.89,22.96 -39.4,34.08 -9.49,11.34 -16.35,24.35 -20.55,38.82l-31.32 0.79 -6.87 -271.41 31.32 -0.79c5.58,39.9 23.26,59.47 53.07,58.72 12.17,-0.31 26.01,-3.7 41.09,-9.75 15.3,-6.04 36.56,-17.03 64.25,-32.52l239.48 -133.58 -224.78 -119.88c-30.66,-16.19 -55.75,-27.53 -75.29,-34.22 -19.32,-6.48 -37.24,-9.5 -53.33,-9.1 -15.44,0.39 -27.28,5.27 -35.76,14.61 -8.47,9.36 -13.34,22.98 -14.41,40.85l-31.32 0.79 -6.11 -241.4 31.32 -0.79c6.75,17.24 15.83,32.24 27.48,45.22 11.63,12.77 27.2,25.86 46.68,38.86 19.26,13.23 52.17,32.19 98.29,57.58l306.56 169.39 206.38 -5.22c24.15,-0.61 43.68,-2.41 58.41,-5.4 14.94,-2.77 26.58,-7.41 35.35,-13.51 8.76,-6.1 15.73,-14.33 20.49,-24.24 4.76,-9.69 9.36,-25.27 13.41,-46.03l31.32 -0.8 7.36 290.99 -31.32 0.79c-4.64,-20.13 -9.6,-35.24 -14.84,-44.89 -5.04,-9.66 -12.19,-17.32 -21.48,-22.96 -9.27,-5.64 -21.35,-9.68 -36.43,-12.13 -14.85,-2.46 -34.68,-3.27 -59.25,-2.65l-204 5.16z"/>
   <path class="fil4 str1" d="M18359.59 7969.9l34.06 268.03 -31.08 3.95c-12.96,-34.75 -28.01,-54.78 -45.39,-60.46 -17.59,-5.44 -47.83,-5.32 -91.21,0.19l-649.37 82.51 22.32 175.67c109.46,-4.92 227.51,-2.59 354.17,6.97 126.67,9.78 227.56,23.71 302.92,41.99 75.13,18.31 125.95,40.36 152.94,66.31 26.77,25.99 42.53,56.88 47.13,93.13 4.61,36.26 3.6,69.73 -2.62,100.12l-127.76 16.24 -7.9 -62.16c29.32,-7.45 42.53,-24.26 39.27,-49.94 -2.42,-19 -14.24,-36.14 -35.54,-51.85 -21.29,-15.72 -70.38,-30.97 -147.23,-45.54 -76.67,-14.83 -168.19,-25.79 -273.95,-33.17 -105.95,-7.16 -182.37,-7.97 -229.63,-1.97 -31.3,3.98 -52.05,11.44 -62.31,22.18 -10.48,10.75 -15.71,28.3 -15.47,52.62l-30.43 3.86 -65.95 -519.03 31.08 -3.95c11.53,30.33 24.2,48.91 38.27,56.11 13.85,7.23 46.59,7.68 97.96,1.15l547.08 -69.51c50.07,-6.36 81.21,-14.93 93.68,-25.5 12.26,-10.55 20.31,-31.76 23.88,-64.01l31.08 -3.94z"/>
   <path class="fil4 str1" d="M17900.22 7561.14l-279.07 244.81c-33.58,29.63 -57.51,51.68 -71.55,66.3 -14.04,14.63 -24.69,28.47 -31.79,41.27 -7.03,13.02 -11.14,27.13 -12.36,42.15l-30.53 7.05 -61.05 -264.55 30.52 -7.04c13.46,37.97 34.7,53.61 63.74,46.9 11.87,-2.74 24.75,-8.83 38.32,-17.77 13.78,-8.98 32.41,-24 56.44,-44.72l207.89 -178.81 -244.23 -72.47c-33.28,-9.72 -60.13,-15.81 -80.61,-18.45 -20.23,-2.48 -38.39,-1.86 -54.07,1.76 -15.06,3.47 -25.68,10.62 -32.12,21.47 -6.42,10.86 -8.47,25.18 -5.94,42.91l-30.53 7.04 -54.3 -235.29 30.53 -7.05c10.06,15.55 21.96,28.42 35.97,38.81 13.95,10.18 31.82,19.89 53.52,28.73 21.52,9.1 57.56,21.1 107.82,36.74l334.26 104.6 201.17 -46.43c23.53,-5.43 42.3,-11.11 56.13,-16.98 14.09,-5.7 24.56,-12.58 31.94,-20.31 7.36,-7.73 12.54,-17.19 15.22,-27.86 2.72,-10.45 4.12,-26.62 3.93,-47.78l30.52 -7.05 65.46 283.63 -30.53 7.04c-8.57,-18.79 -16.45,-32.6 -23.52,-41.01 -6.87,-8.46 -15.42,-14.53 -25.64,-18.2 -10.22,-3.67 -22.86,-5.21 -38.12,-4.59 -15.05,0.56 -34.64,3.74 -58.59,9.27l-198.83 45.88z"/>
   <path class="fil4 str1" d="M17920.84 6371.31l-29.68 10.04c-35.01,30.22 -66,56.08 -92.66,77.74l-106.72 86.4c-35.78,29.34 -60.78,53.18 -74.67,71.89 -13.73,18.43 -22.18,37.59 -24.98,57.14 -2.8,19.56 0.54,43.69 10.23,72.33l24.9 73.57 249.55 -84.44c48.21,-16.32 77.04,-30.89 86.68,-43.81 9.45,-12.83 12.92,-35.14 10.15,-67.05l29.68 -10.04 86.26 254.91 -29.68 10.04c-15.66,-25.25 -30.66,-41.06 -45,-47.47 -14.13,-6.47 -47.54,-0.68 -99.67,16.97l-522.39 176.76c-53.17,17.99 -83.36,33.95 -90.73,48.15 -7.16,14.14 -9.54,35.6 -6.93,64.35l-29.68 10.05 -86.25 -254.92 29.68 -10.04c15.93,24.7 30.99,40.04 45.47,46.17 14.48,6.12 47.68,0.4 100.02,-17.31l221.12 -74.82 -24.55 -72.54c-11.01,-32.56 -29.56,-54.76 -55.27,-66.95 -25.92,-12.14 -84.09,-19.09 -174.42,-20.68 -85.03,-0.85 -146.78,-9.59 -185.38,-25.92 -38.33,-16.2 -67.73,-54.25 -87.89,-113.81 -6.41,-18.95 -10.32,-45.42 -11.91,-79.33l138.68 -46.93 20.22 59.76c-38.17,18.2 -52.23,42.47 -41.98,72.77 6.21,18.34 20.29,31.48 42.08,38.82 21.83,7.54 66.3,12.7 133.39,16.18 54.5,2.23 95.58,6.24 122.85,12.17 27.27,5.94 52.58,18.26 75.5,37.15l4.74 -1.6c-2.19,-72.99 30.67,-140.83 98.69,-203.8l104.27 -95.69c38.5,-35.54 64.45,-64.76 77.63,-87.58 13.16,-22.84 16.14,-51.4 8.89,-85.7l29.68 -10.04 70.08 207.11z"/>
   <path class="fil4 str1" d="M17745.33 5988.63l-162.54 73.49 -24.46 -54.11c42.56,-37.87 69.89,-74.58 81.99,-110.13 12.1,-35.55 6.86,-78.31 -15.73,-128.26 -60.05,-132.82 -203.13,-148.82 -429.63,-48.33l144.65 319.94 -63.24 28.59 -144.11 -318.75c-200.29,102.49 -273.47,213.65 -219.33,333.38 18.19,40.24 41.88,69.39 71.27,87.39 29.38,17.99 76.43,24.89 141.14,20.7l23.93 52.93 -153.82 69.54c-60.01,-74.1 -106.59,-147.58 -139.67,-220.73 -90.16,-199.41 -1.03,-359.79 267.17,-481.05 133.6,-60.4 247.73,-78.35 342.59,-53.9 94.84,24.45 166.63,90.83 215.47,198.86 29.4,65.02 50.75,141.8 64.32,230.44z"/>
   <path class="fil4 str1" d="M16653.82 5669.43l-343.75 -597.84 192.37 -110.61 31.13 54.13c-27.03,26.33 -47.55,48.67 -61.48,67.21 -13.93,18.55 -23.01,35.07 -27.53,49.47 -4.44,14.09 -5.89,27.72 -4.1,39.99 1.89,12.47 8.6,28.93 20.2,49.11l40.34 70.16 565.79 -325.32c21.69,-12.47 38.39,-23.57 49.8,-33.39 11.6,-9.94 19.73,-19.38 24.45,-28.62 4.62,-9.43 6.67,-19.4 6.12,-30.38 -0.73,-10.87 -4.28,-26.64 -10.62,-46.84l27.16 -15.61 145.2 252.53 -27.16 15.62c-8.84,-9.73 -17.32,-17.9 -25.21,-24.66 -7.71,-6.86 -15.2,-11.58 -22.68,-14.56 -7.18,-2.9 -15.15,-4.1 -23.81,-3.88 -8.55,0.4 -19.23,2.78 -31.92,7.32 -12.52,4.44 -29.84,13.14 -51.91,25.83l-565.78 325.31 40.01 69.59c9.98,17.35 19.92,30.71 29.52,40 9.9,9.36 22.65,15.82 38.74,19.37 16.1,3.54 35.98,3.66 59.77,0.52 23.98,-3.26 52.54,-9.88 86.27,-19.75l31.45 54.69 -192.37 110.61z"/>
   <path class="fil4 str1" d="M16911.01 4472.63l-145.37 103.38 -34.42 -48.4c34.48,-45.35 54.25,-86.63 59.28,-123.84 5.04,-37.22 -8.33,-78.17 -40.1,-122.84 -84.47,-118.79 -227.97,-106.98 -430.9,35.2l203.48 286.15 -56.56 40.21 -202.72 -285.08c-176.85,139.1 -227.28,262.25 -151.13,369.34 25.59,35.99 54.45,60.04 86.75,72.05 32.29,12.01 79.79,9.73 142.48,-6.83l33.67 47.34 -137.57 97.83c-73.14,-61.18 -132.99,-124.33 -179.52,-189.75 -126.82,-178.36 -70.21,-352.88 169.67,-523.46 119.49,-84.96 228.04,-124.52 325.82,-118.78 97.78,5.75 180.99,57.09 249.7,153.71 41.36,58.15 77.07,129.39 107.44,213.77z"/>
  </g>
  <path class="fil3" d="M8461.91 7546.75c86.43,-28.66 283.19,-16.05 330.63,49.5 59.26,81.89 17.15,576.93 -102.46,662.06 -178.84,127.3 -106.37,122.65 -184.91,204.35 -86.09,89.53 -225.28,-22.86 -274.62,-74.73 -96.2,-101.16 -55.86,-168.76 -44.25,-319.39 14.94,-194.04 69.68,-453.5 275.61,-521.79zm-800.86 904.64c-113.84,9.8 -253.67,-94.75 -255.04,-185.4 -2.58,-171.11 -31.53,-650.75 91.61,-775.73 96.18,-97.62 233.11,-13.86 353.45,2.89 66.91,179.06 -11.46,331.69 -63.7,482 -48.22,138.75 -100.55,49.16 -106.92,196.91 -5.62,130.2 16.45,143.07 -19.4,279.33zm-2435.32 -1158.74c103.71,7.67 191.43,34.85 292.34,54.66 152.66,29.97 135.24,9.96 243.27,93.81 77.13,59.86 234.68,272.75 273.67,395.6 -61.9,146.68 -259.18,231.68 -417.9,98.82l24.14 -183.93c-81.51,-8.4 -103.55,56.1 -129.11,99.84 -188.65,-50.73 -435.41,-283.3 -286.41,-558.8zm6647.31 -1969.32c-64.73,-76.43 -167.98,-142.74 -267.81,-203.5 -595.14,-362.19 -1358.09,-414.15 -1704.26,-649.91 -67.02,-45.64 -88.16,-52.03 -96.28,-154.41 -22.73,-286.64 22.76,-359.03 91.28,-606.11l-134.06 -0.78c-47.73,108.69 -101.8,403.65 -131.57,534.13l-366.61 1580.84c-83.53,356.25 -167.23,702.99 -245.74,1063.71 -45.2,207.68 -51.13,384.96 -186.25,468.46 -164.39,101.59 -362.91,74.95 -485.59,-34.75 340.29,-534.94 -193.62,-694.92 -324.85,-422.02 -45.39,94.39 -36.92,227.61 -7.46,329.58 -162.57,25.52 -171.64,27.68 -312.9,75.85 -247.8,84.49 -309.26,-69.89 -334.68,160.42 -8.32,75.37 -24.08,169.5 -86.98,215.43 -52.35,38.22 -59.05,26.38 -122.12,9.81 -74.28,-105.52 -3.29,-249.3 -9.19,-399.36 -46.12,-27.43 -98.87,-44.23 -167.07,-37.73 -24.15,132.09 19.76,174.7 -48.39,292.04 -71.14,-109.1 -146.62,-194.53 -285.46,-210.47 -18.87,-178.63 98.64,-168.17 -0.31,-353.62l-104.05 15.42 -41.05 242.91c-94.69,-26.61 -90.52,-71.33 -162.28,-128.02 -48.95,-38.67 -105.08,-87.78 -159.31,-124.45 -132.42,-89.57 -248.22,-132.51 -449.52,-122.26l-30.93 -194.5c-80.01,-19.43 -114.08,-25.72 -187.6,3.73 -21.35,113.87 56.65,142.52 45.02,277.95 -60.34,126.95 -459.13,155.9 -472.21,265.5 14.6,95.87 36.64,5.42 28.61,117.98 -2.68,37.54 -12.82,80.87 -14.51,129.49 -8.28,238.26 159.29,440.99 367.81,536.51 8.93,271.93 -238.16,302.57 -224.81,632.02 52.53,45.74 104.77,81.35 189.96,37.82 84.48,-48.56 61.89,-224.64 82.59,-315.31 25.96,-113.72 92.13,-176.43 129.97,-258.97 220.28,4.32 223.3,13.53 428.5,-30.49 12.2,119.86 38.73,280.11 14.31,405.08 -32.14,164.51 -276.29,332.27 -388.69,442.23 -67.69,66.22 -137.86,134.55 -183.74,223.09 -111.83,215.77 -162.95,399.62 -143.7,682.72 22.91,336.93 233.33,362.14 255.99,548.43 -120.67,99.32 -169.08,106.16 -385.77,300.1 -29.71,26.59 -50.71,36.43 -80.83,61.61 -196.73,164.44 -458.01,582.37 -492.42,852.49 -43.92,344.73 -23.52,699.63 0.76,1039.39 20.37,285.09 -123.28,440.53 -117.86,684.98 2.46,110.66 21.44,113.43 84.31,173.72 223.28,15.3 206.1,-137.92 238.09,-312.07 29.9,-162.73 67.68,-299.56 68.44,-481.45 1.53,-363.13 -66.27,-644.37 -0.88,-1008.11 52.7,-293.11 148.93,-532.23 399.71,-698.36 71.46,-47.33 84.07,-83.63 155.74,-127.67 172.33,-105.9 391.19,-102.03 498.89,-297.53 85.99,66.84 110.6,158.03 224.51,199.26 -33.05,110.89 -153.37,225.06 -222.5,280.89 -369.38,298.32 -171.74,793.17 -69.48,1142.73 120.36,411.44 26.65,1142.57 114.54,1371.27 33.24,86.47 200.42,203.98 297.97,111.63 53.75,-61.24 13.09,-221.68 4.66,-302.46 -10.16,-97.21 -23.44,-187.72 -39.18,-286.41 -78.17,-489.94 -289.23,-1265.19 -91.03,-1713.41 71.75,-162.26 191.21,-236.04 337.97,-316.99 553.27,-305.2 354.6,-460.1 848.51,-457.95 100.5,0.44 198.42,-1.56 282.5,-39.16 100.03,-44.74 107.7,-69.08 168.64,-145.88l362.39 -32.21c36.66,440.39 -129.73,951.5 -211.72,1364.47 -37.85,190.64 -223.33,1260.6 -165.34,1383.58 240.72,217.33 319.25,-1225.22 332.57,-1378.93 21.29,-245.82 161.98,-1344.85 261.67,-1484.73 27.25,-32.99 362.55,-173.12 418.66,-204.01 78.02,-42.95 125.61,-74.77 197.81,-120.28 105.67,-66.61 132.74,-23.31 254.8,-44.19 298.71,-51.1 799.74,-433.38 887.53,-151.52 -45.08,82.16 -199.41,137.91 -275.25,212.85l18.76 85.56c127.81,3.2 242.88,-54.63 316.29,38.03 59.15,74.65 109.78,110.96 210.58,161.92 177.49,89.72 340.18,167.25 492.31,268.6 153.76,102.43 285.08,203.6 297.65,471.69 5.09,108.62 -22.22,232.74 -69.54,310.46 -78.21,128.46 -686.28,784.64 -860.09,1034.27 -73.75,105.93 -564.37,864.09 -523.68,970.7 64.8,69.99 177.75,72.14 276.43,20.78 50.22,-105.46 25.14,-271.87 88.44,-353.84 19.96,-25.85 36.34,-30.86 61.8,-61.16 191.56,-227.98 309.3,-466.45 477.69,-726.4 224.1,-345.97 497.75,-591.09 807.9,-837.82 164.45,-130.82 71.58,-518.23 17.28,-695.29 -33.78,-110.15 -22.81,-205.27 24.36,-307.16 51.21,-110.64 92.1,-127.15 186.5,-190.86 179.69,33.01 258.87,186.98 345.78,296.41 103.9,130.83 201.19,193.43 272.39,347.43 63.57,137.48 134.62,289.69 221.88,396.82 186.63,229.12 -40.43,734.67 -73.85,1019.55 -13.06,111.28 -45.73,143.45 -84.73,237.03 -95.13,228.28 -31.14,466.3 -177.48,600.93 -43.86,40.34 -27.37,21.38 -58.2,83.57 -47.27,95.38 -193.14,316.37 -198.76,421.42 51.21,86.92 107.66,140.77 245.42,120.43 71.4,-10.55 90.91,-22.75 114.43,-79.94 150.92,-367.01 164.38,-696.26 260.61,-1030.88 30.26,-105.21 79.23,-155.65 134.15,-237.89 45.14,-67.6 93.02,-154.08 135.72,-236.78 66.54,-128.9 79.45,-127.01 81.34,-287.09 2.28,-194.52 119.62,-497.61 61.76,-661.3 -119.77,-338.84 -479.16,-379.13 -438.18,-659.04 33.59,-229.41 376.55,-215.09 295.61,-768.19 175.68,-180.4 353.34,-140.92 465.41,96.4 108.73,230.24 -43.95,392.69 137.36,623 112.26,142.61 232.62,278.26 365.5,395.96 448.9,397.61 286.57,678.83 308.87,1202.48 7.06,165.91 149.49,383.79 205.06,549.27 86.95,258.91 70.55,394.4 59.26,672 -15.73,386.96 237.13,281.64 313.32,90.72 168.76,-422.89 -473.71,-1402.41 -351.52,-1874.86 27.94,-108.01 50.55,-219.38 44.73,-337.89 -12.31,-250.71 -332.46,-497.88 -504.97,-642.08 -475.17,-397.21 -321.25,-648.95 -517.24,-1004.85 -166.51,-302.38 -422.81,-86.56 -566.16,-118.21 -62.65,-31.9 -116.02,-135.58 -167.73,-192.16 -143.01,-156.46 -270.84,-314.8 -434.36,-450.69 -282.71,-234.92 -594.22,-442.46 -1020.65,-554.84 -433.85,-114.34 -827.31,-56.09 -1248.87,36.92 -264.38,58.32 -576.41,130.1 -813.88,248.19 -88.1,43.8 -189.85,57.63 -268.22,10.36 -69.88,-86.91 257.94,-1406.21 307.53,-1670.42 32.71,-174.24 60.94,-382.57 101.38,-552.69 28.22,-118.68 111.61,-29.63 189.96,12.55 238.79,128.58 579.28,98.29 777.43,214.21 77.5,45.33 121.09,84.63 207.78,128.83 221.83,113.09 495.94,203.58 745.57,248.73l7.81 -152.45c-360.51,-74.22 -418.3,-69.83 -703.37,-269.5 61.96,-700.81 50.83,-355.29 204.96,-611.61 209.99,75.83 521.87,277.7 762.42,271.16l0 -186c-260.57,-102.09 -534.99,-47.29 -738.54,-236.03 -4.57,-178.84 19,-528.09 125.88,-636.58 330.04,-0.69 666.76,283.73 886.36,402.71l115.88 -84.73z"/>
 </g>
</svg>
