<?xml version="1.0" encoding="UTF-8" standalone="no"?>
<svg
   xmlns:dc="http://purl.org/dc/elements/1.1/"
   xmlns:cc="http://creativecommons.org/ns#"
   xmlns:rdf="http://www.w3.org/1999/02/22-rdf-syntax-ns#"
   xmlns:svg="http://www.w3.org/2000/svg"
   xmlns="http://www.w3.org/2000/svg"
   xmlns:sodipodi="http://sodipodi.sourceforge.net/DTD/sodipodi-0.dtd"
   xmlns:inkscape="http://www.inkscape.org/namespaces/inkscape"
   id="svg4753"
   version="1.1"
   viewBox="0 0 600 600"
   height="600mm"
   width="600mm"
   sodipodi:docname="Coat_of_Arms_of_Tatarstan.svg"
   inkscape:version="0.92.4 (5da689c313, 2019-01-14)">
  <sodipodi:namedview
     pagecolor="#ffffff"
     bordercolor="#666666"
     borderopacity="1"
     objecttolerance="10"
     gridtolerance="10"
     guidetolerance="10"
     inkscape:pageopacity="0"
     inkscape:pageshadow="2"
     inkscape:window-width="1366"
     inkscape:window-height="705"
     id="namedview2379"
     showgrid="false"
     inkscape:zoom="0.16471111"
     inkscape:cx="155.63239"
     inkscape:cy="1072.2037"
     inkscape:window-x="-8"
     inkscape:window-y="-8"
     inkscape:window-maximized="1"
     inkscape:current-layer="Layer1008" />
  <defs
     id="defs4747" />
  <metadata
     id="metadata4750">
    <rdf:RDF>
      <cc:Work
         rdf:about="">
        <dc:format>image/svg+xml</dc:format>
        <dc:type
           rdf:resource="http://purl.org/dc/dcmitype/StillImage" />
        <dc:title></dc:title>
      </cc:Work>
    </rdf:RDF>
  </metadata>
  <g
     transform="translate(104.67293,366.74747)"
     id="layer1">
    <g
       id="Layer1007"
       transform="matrix(3.4689241,0,0,3.4689241,-1611.4419,-321.82666)">
      <g
         transform="matrix(4.1169721,0,0,4.1169721,-1353.8946,-498.76167)"
         id="Layer1008">
        <path
           id="path4510"
           style="fill:#000000;fill-rule:evenodd;fill-opacity:1"
           d="m 455.3686,154.5323 c -8.5468,0 -15.5009,-6.955 -15.5009,-15.5459 0,-8.5479 6.9541,-15.5016 15.5009,-15.5016 8.5464,0 15.5005,6.9537 15.5005,15.5016 0,8.2733 -6.591,15.5459 -15.5005,15.5459 z m 0,-0.2663 c -8.4003,0 -15.235,-6.8356 -15.235,-15.2792 0,-8.4014 6.8347,-15.2357 15.235,-15.2357 8.3998,0 15.2346,6.8343 15.2346,15.2357 0,8.1315 -6.4778,15.2792 -15.2346,15.2792 z" />
        <path
           id="path4512"
           style="fill:#008000;fill-rule:evenodd;fill-opacity:1"
           d="m 455.3691,159.7912 c 11.4477,0 20.7819,-9.2908 20.7819,-20.7828 0,-11.4917 -9.3342,-20.7825 -20.7819,-20.7825 -11.4491,0 -20.7833,9.2908 -20.7833,20.7825 0,11.492 9.3342,20.7828 20.7833,20.7828 z m -10e-5,-3.3738 c 9.5894,0 17.4083,-7.7825 17.4083,-17.409 0,-9.6262 -7.8189,-17.4087 -17.4083,-17.4087 -9.5906,0 -17.4095,7.7825 -17.4095,17.4087 0,9.6265 7.8189,17.409 17.4095,17.409 z" />
        <path
           id="path4514"
           style="fill:#ffcb00;fill-rule:evenodd"
           d="m 455.3691,160.0148 c 11.5708,0 21.0055,-9.3907 21.0055,-21.0064 0,-11.6154 -9.4347,-21.0061 -21.0055,-21.0061 -11.5722,0 -21.007,9.3907 -21.007,21.0061 0,11.6157 9.4348,21.0064 21.007,21.0064 z m 0,-0.2236 c 11.4477,0 20.7819,-9.2908 20.7819,-20.7828 0,-11.4917 -9.3342,-20.7825 -20.7819,-20.7825 -11.4491,0 -20.7833,9.2908 -20.7833,20.7825 0,11.492 9.3342,20.7828 20.7833,20.7828 z" />
        <path
           id="path4516"
           style="fill:#ffcb00;fill-rule:evenodd"
           d="m 447.1399,155.3203 -0.2569,0.4377 -0.0418,-0.0251 c 0.033,-0.1162 0.0483,-0.2054 0.0435,-0.2667 -0.005,-0.0628 -0.0274,-0.122 -0.0662,-0.1803 -0.0205,-0.0328 -0.0692,-0.0701 -0.1444,-0.1144 l -0.1182,-0.0708 -0.7304,1.2465 c -0.0485,0.0833 -0.0749,0.1367 -0.0766,0.1627 -0.003,0.0261 0.005,0.054 0.0207,0.0852 0.0172,0.0324 0.0482,0.0613 0.094,0.0877 l 0.0536,0.0314 -0.026,0.0437 -0.8396,-0.4963 0.025,-0.0423 0.0544,0.0304 c 0.0462,0.027 0.0887,0.0414 0.1268,0.0414 0.0272,9e-4 0.0544,-0.008 0.0823,-0.0295 0.0199,-0.0127 0.0527,-0.0605 0.1013,-0.1423 l 0.7303,-1.2459 -0.1161,-0.0679 c -0.1083,-0.0632 -0.2006,-0.0876 -0.2768,-0.0701 -0.1053,0.0237 -0.2034,0.0896 -0.2903,0.1985 l -0.045,-0.0275 0.2568,-0.437 z m -2.2951,-1.4287 c -0.4396,-0.5289 -0.9248,-0.2212 -0.9248,-0.396 0.0452,-0.2202 -0.176,-0.4411 -0.4404,-0.3525 -0.0437,0.0431 -0.0881,-0.3086 -0.2637,-0.5285 -0.2202,-0.2203 -0.6617,-0.3967 -1.1002,-0.3513 -0.2646,0 -0.485,0 -0.485,0 -0.1767,-0.0454 -0.4846,-0.0454 -0.5721,-0.1335 h -0.044 c -0.2639,-0.044 -0.4842,-0.1757 -0.6608,-0.3952 -0.1761,-0.265 -0.264,-0.8373 0.1325,-1.0146 0.2202,-0.0432 0.6152,0.1773 0.4844,0.222 -0.0444,0 -0.1324,0 -0.22,0.0869 -0.1773,0.1771 -0.0442,0.5281 0.22,0.5731 0.3518,0.0434 0.3081,-0.3529 0.3518,-0.2212 0.0446,0.1762 0.2648,0.3538 0.4846,0.4419 0.2194,0.0875 0.4402,0.0427 0.4402,0.0427 0,0 -0.0881,-0.0879 -0.3089,-0.3508 -0.264,-0.2209 -0.219,-0.3528 -0.4844,-0.7501 -0.3954,-0.616 -0.7475,-0.3956 -0.7033,-0.5275 0.0427,-0.2202 -0.1773,-0.4852 -0.3969,-0.4408 -0.044,0 -0.044,-0.3515 -0.1761,-0.5715 -0.1325,-0.3087 -0.4419,-0.5297 -0.7925,-0.6173 -0.3527,-0.0437 -0.6158,-0.1758 -0.6158,-0.1758 -0.1329,-0.0437 -0.2652,-0.0877 -0.3973,-0.1762 l -0.0881,-0.0448 c -0.2182,-0.0877 -0.4834,-0.3082 -0.5723,-0.5267 -0.1315,-0.309 -0.0873,-0.8813 0.3541,-0.9696 0.2625,0 0.5707,0.2642 0.4384,0.2642 -0.0429,0 -0.0875,0.0441 -0.2202,0.0866 -0.2182,0.0892 -0.1752,0.4855 0.0443,0.5292 0.3082,0.0896 0.3963,-0.1754 0.3963,-0.0437 0,0.1764 0.1762,0.4404 0.3519,0.5723 0.2206,0.0877 0.4406,0.1325 0.4406,0.1325 0,0 -0.0871,-0.089 -0.2637,-0.3967 -0.1769,-0.3081 -0.0886,-0.4398 -0.264,-0.8802 -0.1767,-0.4846 -0.5281,-0.7046 -0.4852,-0.7486 0.1773,-0.31 0,-0.5723 -0.264,-0.6164 0,0 0.0438,-0.1321 -0.0875,-0.44 -0.1325,-0.3084 -0.3092,-0.6179 -0.6608,-0.7492 -0.3081,-0.1319 -0.6165,-0.3521 -0.6165,-0.3521 -0.0885,-0.0879 -0.2641,-0.221 -0.3529,-0.3085 l -0.0429,-0.0438 c -0.1763,-0.1766 -0.3083,-0.3964 -0.3527,-0.6602 -0.0436,-0.3083 0.1319,-0.8365 0.5716,-0.7935 0.265,0 0.53,0.3968 0.3528,0.3523 -0.0427,-0.043 -0.0878,-0.043 -0.22,0 -0.2646,0.1329 -0.3088,0.4412 -0.0886,0.6164 0.2659,0.1773 0.4411,-0.1752 0.3963,0 -0.0436,0.1773 0.0448,0.4413 0.2197,0.6163 0.1332,0.1331 0.353,0.221 0.353,0.221 0,0 -0.044,-0.0879 -0.1315,-0.4415 -0.0883,-0.3516 0,-0.4385 -0.0439,-0.9239 -0.0444,-0.704 -0.485,-0.5271 -0.3973,-0.7921 0.2197,-0.4406 -0.1304,-0.4833 -0.0877,-0.5288 0,-0.0426 0.0877,-0.3518 0.1325,-0.616 0,-0.3081 -0.1325,-0.6165 -0.3969,-0.7923 -0.0884,-0.0871 -0.4392,-0.441 -0.4392,-0.441 -0.0889,-0.0877 -0.3085,-0.3529 -0.3973,-0.5282 l -0.0444,-0.0447 c -0.131,-0.2196 -0.2196,-0.4836 -0.1756,-0.7476 0.0446,-0.3081 0.3529,-0.7931 0.7492,-0.6608 0.2189,0.0886 0.3073,0.4842 0.2631,0.4413 -0.0442,0 -0.1314,-0.0886 -0.3077,-0.0452 -0.2208,0 -0.3517,0.3529 -0.1762,0.5733 0.2208,0.2637 0.4839,-0.0446 0.3968,0.0877 -0.0443,0.176 -0.0443,0.4842 0.0871,0.6606 0.0886,0.1759 0.2659,0.3521 0.2659,0.3521 0,0 0,-0.1327 0,-0.4842 -0.0451,-0.3968 0.0868,-0.4406 0.1752,-0.9248 0.0879,-0.6608 -0.2632,-0.7931 -0.1752,-0.836 0.2199,-0.1771 0.2199,-0.4863 0,-0.5737 -0.0451,-0.0434 0.2199,-0.2634 0.307,-0.5713 0.0431,-0.3085 0,-0.5729 -0.2202,-0.88 -0.1748,-0.309 -0.3527,-0.5729 -0.3527,-0.5729 -0.0442,-0.1334 -0.176,-0.3957 -0.2202,-0.5288 v -0.0444 c -0.0875,-0.2641 -0.0875,-0.5281 0,-0.7923 0.1331,-0.3077 0.5288,-0.6606 0.8812,-0.4402 0.2207,0.1325 0.2207,0.5715 0.1765,0.485 -0.0439,-0.0448 -0.0883,-0.0891 -0.2646,-0.1329 -0.2202,-0.0443 -0.4402,0.2642 -0.3521,0.53 0.1755,0.3073 0.4836,0.0863 0.3952,0.1742 -0.1302,0.1331 -0.1749,0.441 -0.1302,0.6608 0.0432,0.2192 0.2186,0.3965 0.2186,0.3965 0,0 0,-0.1327 0.0892,-0.4852 0.0881,-0.3515 0.1754,-0.3515 0.3958,-0.8377 0.2637,-0.6152 -0.0886,-0.8794 0.0435,-0.8359 0.2202,0 0.3084,-0.4385 0.1332,-0.5718 -0.043,0 0.2633,-0.2192 0.4395,-0.4846 0.1332,-0.2634 0.1763,-0.5721 0,-0.8804 -0.1316,-0.3082 -0.22,-0.7917 -0.22,-0.7917 -0.0443,-0.1767 -0.0881,-0.3086 -0.0443,-0.4411 v -0.0439 c -0.0438,-0.2644 0.0443,-0.5281 0.1773,-0.7486 0.1752,-0.2643 0.7035,-0.5279 0.9687,-0.22 0.1763,0.22 0.1317,0.6605 0.0433,0.5284 -0.0433,-0.0438 -0.0433,-0.1323 -0.1762,-0.1765 -0.2646,-0.1319 -0.5277,0.1327 -0.4844,0.3967 0.0436,0.3529 0.4407,0.1754 0.3079,0.2639 -0.175,0.1325 -0.2643,0.3967 -0.2643,0.6167 0,0.2198 0.0893,0.44 0.0893,0.44 0,0 0.0438,-0.1321 0.2192,-0.44 0.1323,-0.3085 0.2652,-0.3085 0.571,-0.7052 0.4419,-0.5721 0,-0.8361 0.2655,-0.8361 0.441,-0.0447 0.2206,-0.4831 0.2645,-0.4831 0.044,-0.0452 0.3076,-0.1777 0.5276,-0.3971 0.2212,-0.2216 0.3081,-0.485 0.2652,-0.8371 -0.0879,-0.3518 -0.1323,-0.8802 -0.1323,-0.8802 0,-0.1327 0,-0.221 0.0444,-0.3523 v -0.0441 c 0.0439,-0.2646 0.2639,-0.5286 0.4833,-0.7065 0.2204,-0.2177 0.8371,-0.3504 1.0575,0 0.0879,0.2229 -0.1323,0.6625 -0.1771,0.53 0,-0.0439 0,-0.1314 -0.1302,-0.2194 -0.2215,-0.1764 -0.5298,0 -0.5735,0.3086 0,0.3071 0.3958,0.2627 0.2645,0.3071 -0.1758,0.0887 -0.3525,0.3087 -0.4412,0.5287 -0.0438,0.2194 0,0.44 0,0.44 0,0 0.0887,-0.0873 0.3091,-0.3512 0.2196,-0.3088 0.3526,-0.2644 0.7484,-0.5736 0.5294,-0.3964 0.3529,-0.7473 0.4406,-0.7473 0.5275,0.0877 0.3521,-0.3523 0.3965,-0.397 0.0429,0 0.3516,-0.0436 0.6166,-0.2209 0.2194,-0.1758 0.3953,-0.395 0.44,-0.7487 0,-0.3517 0.3521,-1.2323 0.3521,-1.2323 v -0.044 c 0.1313,-0.2638 0.3082,-0.4406 0.5282,-0.5731 0.2641,-0.1313 0.8368,-0.1313 0.925,0.266 0.0877,0.2631 -0.1763,0.6158 -0.1763,0.4831 -0.045,-0.0435 0,-0.176 -0.0881,-0.2631 -0.1765,-0.22 -0.5281,-0.1331 -0.6171,0.175 -0.1321,0.3079 0.2646,0.3079 0.1319,0.3527 -0.1754,0.0436 -0.3954,0.2186 -0.5286,0.3963 -0.0875,0.2194 -0.0875,0.4394 -0.0875,0.4394 0,0 0.0875,-0.0878 0.3521,-0.263 0.3083,-0.2208 0.3967,-0.1764 0.8808,-0.3541 0.6169,-0.3073 0.3528,-0.7032 0.6169,-0.6152 0.4394,0.132 0.4394,-0.3078 0.4842,-0.3078 0.0438,0 0.3515,0 0.6162,-0.0881 0.308,-0.0887 0.5284,-0.3079 0.6167,-0.6162 0.1323,-0.353 0.3084,-0.8367 0.3084,-0.8367 0.0881,-0.1327 0.1754,-0.221 0.2633,-0.309 v -0.0437 c 0.2206,-0.1763 0.4406,-0.2206 0.7058,-0.1763 0.2638,0.0442 0.4838,0.1763 0.3515,0.4857 -0.0431,0.1746 -0.2209,0.2187 -0.2209,0.2187 0,0 0,-0.1754 -0.2635,-0.2187 0,0 -0.1756,0 -0.2642,0.1302 -0.1314,0.1777 0.0886,0.2658 0,0.3081 -0.4839,0.2646 -0.4839,0.7054 -0.4395,0.661 0.5281,-0.5279 1.3204,-0.616 1.3204,-0.616 0.1769,0.2196 0.5277,0.176 0.5277,-0.1317 h 0.3083 c 0.3969,-0.0437 0.7494,-0.0437 1.2334,-0.2645 0,0 -1.0577,-0.0871 -1.6292,-0.4842 -0.4402,-0.2652 -0.8367,-0.4852 -1.1454,-0.44 -0.2202,0 -0.4398,0.0883 -0.6152,0.2633 -0.0444,0.0438 -0.1773,-0.1321 -0.3955,-0.0885 -0.266,0.0885 -0.2223,0.3529 -0.3095,0.3529 -0.1761,0.0437 -0.308,0 -0.6609,0.22 -0.3079,0.2196 -0.3079,0.3081 -0.7481,0.3973 -0.3967,0.0881 -0.5723,0.1754 -0.5723,0.1754 0,0 0.1319,0.1317 0.3083,0.1317 0.1309,0.0443 0.3963,0.0879 0.6173,-0.0436 0,0 -0.045,0.2196 0.1748,0.3086 0.1759,0.0443 0.3084,-0.0444 0.3963,-0.1771 0.0439,-0.0436 0.0439,-0.2196 -0.0879,-0.3069 -0.1325,-0.0881 0.2199,-0.1325 0.3525,-0.0881 0.22,0.0881 0.22,0.3071 0.1314,0.4831 -0.0433,0.089 -0.1758,0.2638 -0.396,0.3527 -0.2204,0.0892 -0.5711,0.0892 -0.7921,0 -0.2209,-0.1319 -0.4846,-0.1764 -0.8817,-0.2637 -0.3517,-0.134 -0.7477,-0.0444 -1.0569,0.2193 -0.3071,0.1757 -0.3071,0.2644 -0.4391,0.5286 l -0.0442,0.0435 c -0.0438,0.0448 -0.1761,-0.1752 -0.3967,-0.0435 -0.2196,0.1331 -0.1323,0.3527 -0.2196,0.3962 -0.1758,0.1327 -0.2645,0.0884 -0.5716,0.3517 -0.2654,0.3092 -0.2202,0.3969 -0.6188,0.5734 -0.395,0.2206 -0.5266,0.3077 -0.5266,0.3077 0,0 0.1754,0.0881 0.3518,0.0881 0.1319,0 0.3527,-0.0433 0.5734,-0.2206 0,0 0.0423,0.2641 0.2633,0.2641 0.22,0 0.3527,-0.2187 0.3527,-0.3519 0,-0.1322 -0.0444,-0.1322 -0.221,-0.1752 -0.1317,-0.0447 0.0883,-0.2627 0.3529,-0.1764 0.1312,0.0431 0.2635,0.2642 0.2635,0.396 -0.0435,0.1329 -0.1323,0.3527 -0.3083,0.484 -0.2198,0.1323 -0.5281,0.2208 -0.7919,0.1773 -0.2206,-0.045 -0.4846,-0.045 -0.9256,-0.045 -0.3521,0 -0.7477,0.1329 -0.925,0.3967 -0.2202,0.22 -0.3081,0.3083 -0.3508,0.6602 l -0.0442,0.0439 c 0,0.0892 -0.1761,-0.0439 -0.3527,0.1325 -0.2194,0.1754 -0.044,0.3525 -0.1319,0.4404 -0.1321,0.1321 -0.2654,0.1321 -0.4404,0.4838 -0.2198,0.3083 -0.1752,0.3964 -0.4844,0.7046 -0.3077,0.2644 -0.4408,0.3968 -0.4408,0.3968 0,0 0.2202,0.0436 0.3527,0 0.132,-0.0447 0.3527,-0.1324 0.5268,-0.3529 0,0 0.0457,0.2634 0.3094,0.2205 0.1767,-0.0442 0.3086,-0.1757 0.3086,-0.3953 -0.044,-0.1333 -0.1319,-0.1773 -0.3086,-0.1773 -0.1318,0 0.1325,-0.2645 0.3086,-0.2645 0.2196,0 0.3083,0.1764 0.3527,0.3531 0,0.1319 -0.0444,0.3517 -0.1761,0.5269 -0.1766,0.1771 -0.4852,0.3531 -0.7033,0.3531 -0.2654,0 -0.53,0.0879 -0.9263,0.1769 -0.3525,0.0887 -0.7481,0.4396 -0.835,0.7039 -0.1337,0.3084 -0.1337,0.4842 -0.1337,0.704 v 0.0446 c -0.4402,0 -0.5734,0.2641 -0.3958,0.6154 0,0 -0.2207,0.1779 -0.3078,0.5735 -0.0895,0.3961 -0.0447,0.4403 -0.265,0.7925 -0.265,0.398 -0.3522,0.528 -0.3522,0.528 0,0 0.22,0 0.3522,-0.0869 0.1319,-0.0431 0.3082,-0.2204 0.3952,-0.4844 0,0 0.1332,0.1761 0.353,0.1313 0.1768,-0.088 0.2639,-0.2644 0.2204,-0.4402 -0.0436,-0.1325 -0.2644,-0.2201 -0.3958,-0.1765 -0.0444,0.044 0.1314,-0.2185 0.2643,-0.2638 0.175,-0.0439 0.3952,0.0878 0.4396,0.2638 0.0438,0.1323 0.0881,0.3523 -0.0444,0.5727 -0.13,0.2204 -0.3523,0.3971 -0.6156,0.484 -0.2215,0.0883 -0.4412,0.2212 -0.8375,0.3964 -0.3077,0.1773 -0.6158,0.6157 -0.6158,0.8809 -0.0436,0.3079 0,0.5283 0.0873,0.7489 -0.4392,0.0875 -0.5278,0.4402 -0.2638,0.6594 0,0 -0.1312,0.2646 -0.1754,0.706 0,0.3955 0.0877,0.4392 -0.0446,0.8365 -0.1764,0.3961 -0.1764,0.5721 -0.1764,0.5721 0,0 0.1764,-0.0444 0.3087,-0.176 0.0877,-0.0884 0.2206,-0.2657 0.2642,-0.5288 0,0 0.1764,0.2204 0.3527,0.0433 0.176,-0.1308 0.176,-0.396 0.0871,-0.5285 -0.1317,-0.0865 -0.219,-0.0865 -0.3079,-0.0434 -0.1319,0.0884 0,-0.2654 0.1325,-0.3524 0.1754,-0.043 0.3514,0 0.44,0.1325 0.1322,0.1768 0.1322,0.3525 0.0893,0.572 -0.0452,0.2646 -0.2221,0.5277 -0.441,0.6603 -0.2208,0.1324 -0.3963,0.3083 -0.7046,0.6166 -0.2644,0.2209 -0.4844,0.7036 -0.3967,1.0131 0.044,0.2642 0.044,0.3973 0.1757,0.5723 v 0.0434 c -0.2634,0.265 -0.2634,0.5733 0.0439,0.7492 0,0 -0.1315,0.3081 -0.0439,0.705 0.0889,0.3964 0.1764,0.4393 0.1324,0.8373 -0.0435,0.4387 -0.0435,0.6158 -0.0435,0.6158 0,0 0.1763,-0.0881 0.2631,-0.2646 0.089,-0.0881 0.1773,-0.3086 0.1332,-0.5712 0,0 0.2196,0.175 0.3958,-0.045 0.0875,-0.1759 0.0446,-0.4413 -0.0873,-0.4842 -0.1764,-0.0881 -0.1764,-0.0881 -0.3085,0 -0.1332,0.1304 -0.0888,-0.2209 0.0441,-0.3521 0.088,-0.1329 0.3517,-0.0886 0.4834,0 0.0889,0.0867 0.2202,0.264 0.2202,0.5279 0,0.2642 -0.0884,0.5734 -0.2644,0.7486 -0.1748,0.176 -0.3083,0.3962 -0.5721,0.7477 -0.1754,0.2654 -0.264,0.7935 -0.1312,1.0573 0.1312,0.3072 0.1758,0.4402 0.395,0.5727 v 0.0443 c 0.0446,0.0438 -0.2192,0.1761 -0.175,0.3957 0.0877,0.2643 0.3085,0.2643 0.3521,0.3523 0.0437,0.1766 -0.0436,0.2646 0.1312,0.6156 0.176,0.3975 0.2644,0.3975 0.3529,0.7931 0.0452,0.4413 0.0881,0.6171 0.0881,0.6171 0,0 0.1755,-0.1323 0.2203,-0.3087 0,-0.1317 0.0879,-0.3521 -0.0448,-0.6157 0,0 0.2197,0.0869 0.3529,-0.1323 0.0444,-0.2202 -0.0448,-0.3535 -0.1763,-0.4414 -0.0871,-0.0869 -0.2643,0 -0.307,0.0879 0,0.0894 -0.1773,-0.1306 0,-0.396 0.0868,-0.1303 0.307,-0.1757 0.4385,-0.0871 0.0892,0.0871 0.2646,0.2196 0.3535,0.44 0.0429,0.2633 0,0.5725 -0.0889,0.7925 -0.1315,0.2204 -0.2198,0.485 -0.353,0.8808 -0.1302,0.3086 -0.087,0.8371 0.1332,1.0567 0.1758,0.2644 0.3087,0.3969 0.5283,0.484 l 0.0456,0.0443 c 0.043,0.0444 -0.2223,0.1757 -0.0902,0.3967 0.0902,0.2206 0.3084,0.1762 0.3527,0.264 0.0884,0.1322 0.0438,0.2647 0.3082,0.5718 0.2643,0.3102 0.3529,0.265 0.5283,0.66 0.1762,0.3969 0.2652,0.5736 0.2652,0.5736 0,0 0.0871,-0.1767 0.0871,-0.3519 0.0446,-0.1331 0,-0.3517 -0.1319,-0.5715 0,0 0.2211,0 0.2642,-0.2658 0,-0.176 -0.1323,-0.3079 -0.2642,-0.3515 -0.0881,0 -0.2204,0.0436 -0.2646,0.1755 -0.0441,0.0881 -0.175,-0.1755 -0.1312,-0.3523 0.0431,-0.1313 0.264,-0.2642 0.4406,-0.22 0.1317,0.0443 0.3058,0.1321 0.44,0.3523 0.1313,0.22 0.1752,0.5285 0.0865,0.7483 -0.0431,0.2633 -0.0431,0.5283 -0.1294,0.9673 -0.0456,0.3096 0.1742,0.7944 0.3948,1.014 0.2644,0.1764 0.3962,0.2645 0.6594,0.3087 v 0.0433 c -0.0879,0.1757 0.045,0.4411 0.045,0.4411 0.2198,0.1752 0.3525,0.0439 0.4408,0.1316 0.1317,0.1317 0.0431,0.1765 0.3523,0.4411 0.3515,0.2192 0.4398,0.1748 0.6598,0.5285 0.2631,0.3077 0.3967,0.4394 0.3967,0.4394 0,0 0.0443,-0.1764 0.0443,-0.3516 -0.0443,-0.1332 -0.0887,-0.3519 -0.3087,-0.5284 0,0 0.2644,-0.0439 0.22,-0.2652 0,-0.2202 -0.1321,-0.2638 -0.3077,-0.3085 -0.1327,-0.043 -0.2646,0.0447 -0.2646,0.2212 -0.0435,0.0873 -0.1765,-0.1329 -0.1765,-0.3081 0,-0.1333 0.133,-0.3083 0.3084,-0.3083 0.1327,0 0.3512,0.0429 0.5291,0.2199 0.1755,0.1753 0.3077,0.4838 0.263,0.7051 0,0.2639 0.0883,0.5279 0.1327,0.9677 0,0.1339 0.0883,0.6606 0.5729,0.8802 l 0.22,-0.3077 c -0.3519,-0.1756 -0.5292,-0.7927 -0.1761,-1.0557 0.1761,-0.1325 0.6163,-0.0454 0.484,0 -0.0438,0.0434 -0.0883,0.0878 -0.1321,0.22 -0.1323,0.2632 -0.0439,0.3521 0.0883,0.44 z m 10.5611,-34.5218 c -0.1082,0.358 -0.6125,0.8616 -0.3219,1.2401 0.1477,0.1915 0.4575,0.2279 0.6256,0.0142 0.2887,-0.3665 -0.1882,-0.9093 -0.3037,-1.2543 z m -0.0433,1.8917 c -1.019,0 -0.5778,-1.2878 -1.0578,-1.4082 -0.2645,-0.0443 -0.4398,0.1328 -0.4398,0.1328 0,-0.9366 0.9529,-0.6883 1.0125,-0.5728 0,-0.369 0.2385,-0.6792 0.4851,-0.9245 0.2918,0.2438 0.4257,0.5272 0.5007,0.9005 0.0588,-0.0411 0.9823,-0.3351 1.128,0.5072 -0.0536,-0.022 -0.2642,-0.0875 -0.3964,-0.0432 -0.6389,0.1617 -0.2133,1.4082 -1.2323,1.4082 z m 10.444,32.6301 c 0.4396,-0.5289 0.9248,-0.2212 0.9248,-0.396 -0.0452,-0.2202 0.176,-0.4411 0.4404,-0.3525 0.0436,0.0431 0.0881,-0.3086 0.2636,-0.5285 0.2202,-0.2203 0.6618,-0.3967 1.1002,-0.3513 0.2646,0 0.485,0 0.485,0 0.1767,-0.0454 0.4846,-0.0454 0.5721,-0.1335 h 0.0441 c 0.2638,-0.044 0.4842,-0.1757 0.6607,-0.3952 0.1762,-0.265 0.2641,-0.8373 -0.1325,-1.0146 -0.2202,-0.0432 -0.6152,0.1773 -0.4844,0.222 0.0444,0 0.1325,0 0.22,0.0869 0.1773,0.1771 0.0442,0.5281 -0.22,0.5731 -0.3517,0.0434 -0.3081,-0.3529 -0.3517,-0.2212 -0.0446,0.1762 -0.2648,0.3538 -0.4846,0.4419 -0.2195,0.0875 -0.4402,0.0427 -0.4402,0.0427 0,0 0.0881,-0.0879 0.3088,-0.3508 0.2641,-0.2209 0.2191,-0.3528 0.4844,-0.7501 0.3954,-0.616 0.7475,-0.3956 0.7033,-0.5275 -0.0427,-0.2202 0.1773,-0.4852 0.3969,-0.4408 0.0441,0 0.0441,-0.3515 0.1762,-0.5715 0.1325,-0.3087 0.4419,-0.5297 0.7925,-0.6173 0.3527,-0.0437 0.6158,-0.1758 0.6158,-0.1758 0.1328,-0.0437 0.2651,-0.0877 0.3973,-0.1762 l 0.088,-0.0448 c 0.2183,-0.0877 0.4835,-0.3082 0.5723,-0.5267 0.1316,-0.309 0.0874,-0.8813 -0.354,-0.9696 -0.2625,0 -0.5708,0.2642 -0.4385,0.2642 0.0429,0 0.0875,0.0441 0.2202,0.0866 0.2183,0.0892 0.1752,0.4855 -0.0442,0.5292 -0.3083,0.0896 -0.3963,-0.1754 -0.3963,-0.0437 0,0.1764 -0.1762,0.4404 -0.352,0.5723 -0.2205,0.0877 -0.4405,0.1325 -0.4405,0.1325 0,0 0.0871,-0.089 0.2636,-0.3967 0.1769,-0.3081 0.0887,-0.4398 0.2641,-0.8802 0.1767,-0.4846 0.528,-0.7046 0.4851,-0.7486 -0.1773,-0.31 0,-0.5723 0.2641,-0.6164 0,0 -0.0439,-0.1321 0.0875,-0.44 0.1325,-0.3084 0.3092,-0.6179 0.6607,-0.7492 0.3081,-0.1319 0.6166,-0.3521 0.6166,-0.3521 0.0884,-0.0879 0.264,-0.221 0.3529,-0.3085 l 0.0429,-0.0438 c 0.1763,-0.1766 0.3082,-0.3964 0.3526,-0.6602 0.0437,-0.3083 -0.1319,-0.8365 -0.5715,-0.7935 -0.265,0 -0.53,0.3968 -0.3529,0.3523 0.0427,-0.043 0.0879,-0.043 0.22,0 0.2646,0.1329 0.3089,0.4412 0.0887,0.6164 -0.266,0.1773 -0.4412,-0.1752 -0.3964,0 0.0437,0.1773 -0.0448,0.4413 -0.2196,0.6163 -0.1333,0.1331 -0.3531,0.221 -0.3531,0.221 0,0 0.0441,-0.0879 0.1316,-0.4415 0.0882,-0.3516 0,-0.4385 0.0438,-0.9239 0.0444,-0.704 0.485,-0.5271 0.3973,-0.7921 -0.2196,-0.4406 0.1304,-0.4833 0.0877,-0.5288 0,-0.0426 -0.0877,-0.3518 -0.1325,-0.616 0,-0.3081 0.1325,-0.6165 0.3969,-0.7923 0.0885,-0.0871 0.4393,-0.441 0.4393,-0.441 0.0888,-0.0877 0.3084,-0.3529 0.3973,-0.5282 l 0.0444,-0.0447 c 0.131,-0.2196 0.2196,-0.4836 0.1756,-0.7476 -0.0446,-0.3081 -0.3529,-0.7931 -0.7492,-0.6608 -0.2189,0.0886 -0.3074,0.4842 -0.2631,0.4413 0.0442,0 0.1313,-0.0886 0.3077,-0.0452 0.2207,0 0.3517,0.3529 0.1761,0.5733 -0.2207,0.2637 -0.4838,-0.0446 -0.3967,0.0877 0.0442,0.176 0.0442,0.4842 -0.0871,0.6606 -0.0887,0.1759 -0.266,0.3521 -0.266,0.3521 0,0 0,-0.1327 0,-0.4842 0.0452,-0.3968 -0.0867,-0.4406 -0.1752,-0.9248 -0.0879,-0.6608 0.2633,-0.7931 0.1752,-0.836 -0.2198,-0.1771 -0.2198,-0.4863 0,-0.5737 0.0452,-0.0434 -0.2198,-0.2634 -0.3069,-0.5713 -0.0431,-0.3085 0,-0.5729 0.2202,-0.88 0.1748,-0.309 0.3527,-0.5729 0.3527,-0.5729 0.0442,-0.1334 0.1759,-0.3957 0.2202,-0.5288 v -0.0444 c 0.0875,-0.2641 0.0875,-0.5281 0,-0.7923 -0.1331,-0.3077 -0.5289,-0.6606 -0.8812,-0.4402 -0.2207,0.1325 -0.2207,0.5715 -0.1765,0.485 0.0438,-0.0448 0.0882,-0.0891 0.2646,-0.1329 0.2202,-0.0443 0.4402,0.2642 0.3521,0.53 -0.1756,0.3073 -0.4836,0.0863 -0.3952,0.1742 0.1302,0.1331 0.1748,0.441 0.1302,0.6608 -0.0433,0.2192 -0.2186,0.3965 -0.2186,0.3965 0,0 0,-0.1327 -0.0893,-0.4852 -0.088,-0.3515 -0.1754,-0.3515 -0.3957,-0.8377 -0.2637,-0.6152 0.0886,-0.8794 -0.0435,-0.8359 -0.2202,0 -0.3085,-0.4385 -0.1333,-0.5718 0.0431,0 -0.2632,-0.2192 -0.4394,-0.4846 -0.1333,-0.2634 -0.1763,-0.5721 0,-0.8804 0.1315,-0.3082 0.22,-0.7917 0.22,-0.7917 0.0442,-0.1767 0.0881,-0.3086 0.0442,-0.4411 v -0.0439 c 0.0439,-0.2644 -0.0442,-0.5281 -0.1773,-0.7486 -0.1752,-0.2643 -0.7034,-0.5279 -0.9686,-0.22 -0.1764,0.22 -0.1317,0.6605 -0.0433,0.5284 0.0433,-0.0438 0.0433,-0.1323 0.1762,-0.1765 0.2646,-0.1319 0.5277,0.1327 0.4844,0.3967 -0.0437,0.3529 -0.4408,0.1754 -0.3079,0.2639 0.175,0.1325 0.2642,0.3967 0.2642,0.6167 0,0.2198 -0.0892,0.44 -0.0892,0.44 0,0 -0.0438,-0.1321 -0.2192,-0.44 -0.1323,-0.3085 -0.2652,-0.3085 -0.571,-0.7052 -0.4419,-0.5721 0,-0.8361 -0.2656,-0.8361 -0.4409,-0.0447 -0.2205,-0.4831 -0.2644,-0.4831 -0.044,-0.0452 -0.3077,-0.1777 -0.5277,-0.3971 -0.2211,-0.2216 -0.3081,-0.485 -0.2652,-0.8371 0.0879,-0.3518 0.1323,-0.8802 0.1323,-0.8802 0,-0.1327 0,-0.221 -0.0444,-0.3523 v -0.0441 c -0.0438,-0.2646 -0.2638,-0.5286 -0.4833,-0.7065 -0.2203,-0.2177 -0.8371,-0.3504 -1.0574,0 -0.0879,0.2229 0.1323,0.6625 0.1771,0.53 0,-0.0439 0,-0.1314 0.1302,-0.2194 0.2215,-0.1764 0.5298,0 0.5734,0.3086 0,0.3071 -0.3958,0.2627 -0.2644,0.3071 0.1758,0.0887 0.3525,0.3087 0.4411,0.5287 0.0439,0.2194 0,0.44 0,0.44 0,0 -0.0886,-0.0873 -0.309,-0.3512 -0.2196,-0.3088 -0.3527,-0.2644 -0.7484,-0.5736 -0.5295,-0.3964 -0.3529,-0.7473 -0.4406,-0.7473 -0.5275,0.0877 -0.3521,-0.3523 -0.3966,-0.397 -0.0428,0 -0.3515,-0.0436 -0.6165,-0.2209 -0.2194,-0.1758 -0.3954,-0.395 -0.44,-0.7487 0,-0.3517 -0.3521,-1.2323 -0.3521,-1.2323 v -0.044 c -0.1314,-0.2638 -0.3083,-0.4406 -0.5283,-0.5731 -0.264,-0.1313 -0.8367,-0.1313 -0.925,0.266 -0.0877,0.2631 0.1764,0.6158 0.1764,0.4831 0.045,-0.0435 0,-0.176 0.0881,-0.2631 0.1765,-0.22 0.528,-0.1331 0.6171,0.175 0.1321,0.3079 -0.2646,0.3079 -0.132,0.3527 0.1754,0.0436 0.3954,0.2186 0.5287,0.3963 0.0875,0.2194 0.0875,0.4394 0.0875,0.4394 0,0 -0.0875,-0.0878 -0.3521,-0.263 -0.3083,-0.2208 -0.3967,-0.1764 -0.8808,-0.3541 -0.6169,-0.3073 -0.3529,-0.7032 -0.6169,-0.6152 -0.4394,0.132 -0.4394,-0.3078 -0.4842,-0.3078 -0.0439,0 -0.3516,0 -0.6162,-0.0881 -0.3081,-0.0887 -0.5284,-0.3079 -0.6167,-0.6162 -0.1323,-0.353 -0.3085,-0.8367 -0.3085,-0.8367 -0.088,-0.1327 -0.1754,-0.221 -0.2632,-0.309 v -0.0437 c -0.2206,-0.1763 -0.4406,-0.2206 -0.7058,-0.1763 -0.2639,0.0442 -0.4839,0.1763 -0.3515,0.4857 0.043,0.1746 0.2209,0.2187 0.2209,0.2187 0,0 0,-0.1754 0.2635,-0.2187 0,0 0.1756,0 0.2642,0.1302 0.1314,0.1777 -0.0886,0.2658 0,0.3081 0.4839,0.2646 0.4839,0.7054 0.4394,0.661 -0.528,-0.5279 -1.3204,-0.616 -1.3204,-0.616 -0.1769,0.2196 -0.5276,0.176 -0.5276,-0.1317 h -0.3083 c -0.3969,-0.0437 -0.7494,-0.0437 -1.2335,-0.2645 0,0 1.0577,-0.0871 1.6293,-0.4842 0.4401,-0.2652 0.8367,-0.4852 1.1453,-0.44 0.2202,0 0.4398,0.0883 0.6152,0.2633 0.0445,0.0438 0.1773,-0.1321 0.3956,-0.0885 0.266,0.0885 0.2223,0.3529 0.3094,0.3529 0.1762,0.0437 0.3081,0 0.661,0.22 0.3079,0.2196 0.3079,0.3081 0.7481,0.3973 0.3967,0.0881 0.5723,0.1754 0.5723,0.1754 0,0 -0.132,0.1317 -0.3083,0.1317 -0.131,0.0443 -0.3963,0.0879 -0.6173,-0.0436 0,0 0.045,0.2196 -0.1748,0.3086 -0.176,0.0443 -0.3085,-0.0444 -0.3964,-0.1771 -0.0438,-0.0436 -0.0438,-0.2196 0.0879,-0.3069 0.1325,-0.0881 -0.2198,-0.1325 -0.3525,-0.0881 -0.22,0.0881 -0.22,0.3071 -0.1313,0.4831 0.0432,0.089 0.1757,0.2638 0.3959,0.3527 0.2204,0.0892 0.5712,0.0892 0.7922,0 0.2209,-0.1319 0.4846,-0.1764 0.8817,-0.2637 0.3517,-0.134 0.7477,-0.0444 1.0569,0.2193 0.3071,0.1757 0.3071,0.2644 0.439,0.5286 l 0.0443,0.0435 c 0.0438,0.0448 0.1761,-0.1752 0.3967,-0.0435 0.2196,0.1331 0.1323,0.3527 0.2196,0.3962 0.1758,0.1327 0.2644,0.0884 0.5715,0.3517 0.2654,0.3092 0.2202,0.3969 0.6189,0.5734 0.395,0.2206 0.5265,0.3077 0.5265,0.3077 0,0 -0.1754,0.0881 -0.3517,0.0881 -0.1319,0 -0.3527,-0.0433 -0.5735,-0.2206 0,0 -0.0423,0.2641 -0.2632,0.2641 -0.22,0 -0.3527,-0.2187 -0.3527,-0.3519 0,-0.1322 0.0444,-0.1322 0.2209,-0.1752 0.1318,-0.0447 -0.0882,-0.2627 -0.3528,-0.1764 -0.1312,0.0431 -0.2635,0.2642 -0.2635,0.396 0.0435,0.1329 0.1323,0.3527 0.3083,0.484 0.2198,0.1323 0.528,0.2208 0.7919,0.1773 0.2206,-0.045 0.4846,-0.045 0.9255,-0.045 0.3522,0 0.7477,0.1329 0.925,0.3967 0.2202,0.22 0.3081,0.3083 0.3508,0.6602 l 0.0442,0.0439 c 0,0.0892 0.1762,-0.0439 0.3527,0.1325 0.2195,0.1754 0.0441,0.3525 0.132,0.4404 0.1321,0.1321 0.2653,0.1321 0.4403,0.4838 0.2199,0.3083 0.1752,0.3964 0.4845,0.7046 0.3077,0.2644 0.4407,0.3968 0.4407,0.3968 0,0 -0.2202,0.0436 -0.3527,0 -0.1319,-0.0447 -0.3526,-0.1324 -0.5267,-0.3529 0,0 -0.0458,0.2634 -0.3094,0.2205 -0.1767,-0.0442 -0.3087,-0.1757 -0.3087,-0.3953 0.0441,-0.1333 0.132,-0.1773 0.3087,-0.1773 0.1317,0 -0.1325,-0.2645 -0.3087,-0.2645 -0.2196,0 -0.3082,0.1764 -0.3527,0.3531 0,0.1319 0.0445,0.3517 0.1762,0.5269 0.1765,0.1771 0.4852,0.3531 0.7033,0.3531 0.2654,0 0.53,0.0879 0.9263,0.1769 0.3525,0.0887 0.7481,0.4396 0.835,0.7039 0.1337,0.3084 0.1337,0.4842 0.1337,0.704 v 0.0446 c 0.4401,0 0.5734,0.2641 0.3957,0.6154 0,0 0.2208,0.1779 0.3079,0.5735 0.0894,0.3961 0.0446,0.4403 0.265,0.7925 0.265,0.398 0.3521,0.528 0.3521,0.528 0,0 -0.22,0 -0.3521,-0.0869 -0.1319,-0.0431 -0.3083,-0.2204 -0.3952,-0.4844 0,0 -0.1333,0.1761 -0.3531,0.1313 -0.1767,-0.088 -0.2638,-0.2644 -0.2203,-0.4402 0.0436,-0.1325 0.2644,-0.2201 0.3957,-0.1765 0.0444,0.044 -0.1313,-0.2185 -0.2642,-0.2638 -0.175,-0.0439 -0.3952,0.0878 -0.4396,0.2638 -0.0439,0.1323 -0.0881,0.3523 0.0444,0.5727 0.13,0.2204 0.3523,0.3971 0.6156,0.484 0.2215,0.0883 0.4411,0.2212 0.8375,0.3964 0.3077,0.1773 0.6157,0.6157 0.6157,0.8809 0.0437,0.3079 0,0.5283 -0.0873,0.7489 0.4393,0.0875 0.5279,0.4402 0.2639,0.6594 0,0 0.1311,0.2646 0.1754,0.706 0,0.3955 -0.0877,0.4392 0.0446,0.8365 0.1763,0.3961 0.1763,0.5721 0.1763,0.5721 0,0 -0.1763,-0.0444 -0.3086,-0.176 -0.0877,-0.0884 -0.2206,-0.2657 -0.2643,-0.5288 0,0 -0.1763,0.2204 -0.3526,0.0433 -0.176,-0.1308 -0.176,-0.396 -0.0872,-0.5285 0.1318,-0.0865 0.2191,-0.0865 0.3079,-0.0434 0.1319,0.0884 0,-0.2654 -0.1325,-0.3524 -0.1754,-0.043 -0.3513,0 -0.44,0.1325 -0.1321,0.1768 -0.1321,0.3525 -0.0892,0.572 0.0452,0.2646 0.2221,0.5277 0.441,0.6603 0.2207,0.1324 0.3963,0.3083 0.7046,0.6166 0.2644,0.2209 0.4844,0.7036 0.3967,1.0131 -0.044,0.2642 -0.044,0.3973 -0.1758,0.5723 v 0.0434 c 0.2635,0.265 0.2635,0.5733 -0.0438,0.7492 0,0 0.1315,0.3081 0.0438,0.705 -0.0888,0.3964 -0.1763,0.4393 -0.1323,0.8373 0.0435,0.4387 0.0435,0.6158 0.0435,0.6158 0,0 -0.1764,-0.0881 -0.2631,-0.2646 -0.089,-0.0881 -0.1773,-0.3086 -0.1333,-0.5712 0,0 -0.2196,0.175 -0.3957,-0.045 -0.0875,-0.1759 -0.0446,-0.4413 0.0873,-0.4842 0.1763,-0.0881 0.1763,-0.0881 0.3084,0 0.1333,0.1304 0.0889,-0.2209 -0.044,-0.3521 -0.0881,-0.1329 -0.3517,-0.0886 -0.4835,0 -0.0888,0.0867 -0.2202,0.264 -0.2202,0.5279 0,0.2642 0.0885,0.5734 0.2645,0.7486 0.1748,0.176 0.3082,0.3962 0.5721,0.7477 0.1754,0.2654 0.264,0.7935 0.1311,1.0573 -0.1311,0.3072 -0.1757,0.4402 -0.395,0.5727 v 0.0443 c -0.0446,0.0438 0.2193,0.1761 0.175,0.3957 -0.0877,0.2643 -0.3084,0.2643 -0.3521,0.3523 -0.0436,0.1766 0.0437,0.2646 -0.1311,0.6156 -0.176,0.3975 -0.2645,0.3975 -0.3529,0.7931 -0.0452,0.4413 -0.0881,0.6171 -0.0881,0.6171 0,0 -0.1756,-0.1323 -0.2204,-0.3087 0,-0.1317 -0.0879,-0.3521 0.0448,-0.6157 0,0 -0.2196,0.0869 -0.3529,-0.1323 -0.0444,-0.2202 0.0449,-0.3535 0.1764,-0.4414 0.0871,-0.0869 0.2642,0 0.3069,0.0879 0,0.0894 0.1773,-0.1306 0,-0.396 -0.0867,-0.1303 -0.3069,-0.1757 -0.4384,-0.0871 -0.0893,0.0871 -0.2647,0.2196 -0.3535,0.44 -0.0429,0.2633 0,0.5725 0.0888,0.7925 0.1316,0.2204 0.2198,0.485 0.3531,0.8808 0.1302,0.3086 0.0869,0.8371 -0.1333,1.0567 -0.1757,0.2644 -0.3086,0.3969 -0.5282,0.484 l -0.0456,0.0443 c -0.0431,0.0444 0.2223,0.1757 0.0902,0.3967 -0.0902,0.2206 -0.3085,0.1762 -0.3527,0.264 -0.0885,0.1322 -0.0438,0.2647 -0.3083,0.5718 -0.2642,0.3102 -0.3528,0.265 -0.5282,0.66 -0.1762,0.3969 -0.2652,0.5736 -0.2652,0.5736 0,0 -0.0871,-0.1767 -0.0871,-0.3519 -0.0446,-0.1331 0,-0.3517 0.1319,-0.5715 0,0 -0.2212,0 -0.2642,-0.2658 0,-0.176 0.1323,-0.3079 0.2642,-0.3515 0.0881,0 0.2204,0.0436 0.2646,0.1755 0.044,0.0881 0.175,-0.1755 0.1312,-0.3523 -0.0431,-0.1313 -0.2641,-0.2642 -0.4406,-0.22 -0.1317,0.0443 -0.3058,0.1321 -0.44,0.3523 -0.1314,0.22 -0.1752,0.5285 -0.0866,0.7483 0.0431,0.2633 0.0431,0.5283 0.1295,0.9673 0.0455,0.3096 -0.1743,0.7944 -0.3948,1.014 -0.2645,0.1764 -0.3962,0.2645 -0.6595,0.3087 v 0.0433 c 0.0879,0.1757 -0.045,0.4411 -0.045,0.4411 -0.2198,0.1752 -0.3525,0.0439 -0.4407,0.1316 -0.1318,0.1317 -0.0431,0.1765 -0.3523,0.4411 -0.3516,0.2192 -0.4398,0.1748 -0.6598,0.5285 -0.2631,0.3077 -0.3968,0.4394 -0.3968,0.4394 0,0 -0.0442,-0.1764 -0.0442,-0.3516 0.0442,-0.1332 0.0887,-0.3519 0.3087,-0.5284 0,0 -0.2645,-0.0439 -0.22,-0.2652 0,-0.2202 0.1321,-0.2638 0.3076,-0.3085 0.1327,-0.043 0.2647,0.0447 0.2647,0.2212 0.0434,0.0873 0.1765,-0.1329 0.1765,-0.3081 0,-0.1333 -0.1331,-0.3083 -0.3085,-0.3083 -0.1327,0 -0.3511,0.0429 -0.529,0.2199 -0.1756,0.1753 -0.3077,0.4838 -0.2631,0.7051 0,0.2639 -0.0882,0.5279 -0.1327,0.9677 0,0.1339 -0.0882,0.6606 -0.5728,0.8802 l -0.22,-0.3077 c 0.3519,-0.1756 0.5292,-0.7927 0.1761,-1.0557 -0.1761,-0.1325 -0.6163,-0.0454 -0.484,0 0.0438,0.0434 0.0882,0.0878 0.1321,0.22 0.1323,0.2632 0.0438,0.3521 -0.0883,0.44 z m -17.7486,3.2994 -0.6064,-0.251 -0.1428,0.1382 c -0.0458,0.0465 -0.0772,0.0877 -0.0925,0.1241 -0.0197,0.0492 -0.0151,0.0928 0.0144,0.1317 0.0166,0.0236 0.0691,0.0567 0.1553,0.1013 l -0.019,0.0467 -0.5715,-0.238 0.0193,-0.048 c 0.0655,0.018 0.1264,0.0136 0.184,-0.0133 0.0571,-0.025 0.1419,-0.0924 0.2551,-0.1998 l 1.1848,-1.127 0.0239,0.0101 0.0339,1.6765 c 0.004,0.1601 0.0178,0.2652 0.041,0.3161 0.0174,0.0385 0.0522,0.069 0.102,0.0965 l -0.018,0.0475 -0.8323,-0.3456 0.0184,-0.0477 0.0348,0.0144 c 0.0672,0.0282 0.1187,0.0387 0.1524,0.0301 0.0244,-0.006 0.0424,-0.0203 0.0527,-0.0469 0.006,-0.0161 0.01,-0.0305 0.0115,-0.0498 10e-4,-0.009 0.004,-0.046 10e-4,-0.1118 z m -0.004,-0.112 -0.009,-0.7023 -0.5101,0.4873 z m 3.2812,-0.244 -0.1439,0.4869 -0.0473,-0.0145 c 0.005,-0.1218 -0.002,-0.2104 -0.0211,-0.2694 -0.0197,-0.059 -0.0559,-0.1122 -0.1068,-0.1597 -0.0282,-0.0247 -0.085,-0.0503 -0.1678,-0.0758 l -0.133,-0.0391 -0.4096,1.3865 c -0.0266,0.0919 -0.0383,0.1512 -0.0358,0.1765 0.003,0.0266 0.0172,0.0521 0.0412,0.0779 0.0245,0.0268 0.0624,0.0471 0.1131,0.0617 l 0.0588,0.0184 -0.014,0.0484 -0.9336,-0.2774 0.014,-0.0479 0.0603,0.0168 c 0.0513,0.0152 0.0956,0.0192 0.1319,0.009 0.0263,-0.006 0.0498,-0.0214 0.0732,-0.0475 0.0149,-0.0185 0.0371,-0.0712 0.0632,-0.1629 l 0.4099,-1.3857 -0.1291,-0.0383 c -0.1198,-0.0354 -0.2152,-0.036 -0.2849,-10e-4 -0.0974,0.0488 -0.1746,0.1369 -0.2349,0.2644 l -0.0505,-0.0151 0.1438,-0.4867 z m 1.3455,1.5473 -0.6504,-0.0965 -0.1044,0.1697 c -0.0342,0.0564 -0.0545,0.1033 -0.0607,0.1428 -0.007,0.0513 0.008,0.0942 0.0464,0.1239 0.0208,0.0187 0.0798,0.0377 0.1744,0.0603 l -0.007,0.0496 -0.6129,-0.0906 0.007,-0.049 c 0.0682,-0.002 0.1262,-0.0209 0.1752,-0.0584 0.0503,-0.0396 0.1175,-0.1252 0.2001,-0.2577 l 0.88,-1.3815 0.0251,0.004 0.4355,1.6185 c 0.0426,0.1534 0.0807,0.2516 0.1168,0.2957 0.0261,0.0325 0.0672,0.0549 0.1222,0.0681 l -0.007,0.0508 -0.8905,-0.1329 0.007,-0.0498 0.0373,0.006 c 0.0714,0.009 0.1229,0.006 0.1549,-0.009 0.0222,-0.0109 0.0347,-0.0308 0.0391,-0.0582 0.003,-0.0165 0.003,-0.0343 -10e-4,-0.0513 0,-0.009 -0.009,-0.0448 -0.0249,-0.1091 z m -0.0322,-0.108 -0.1776,-0.6789 -0.3769,0.5958 z m 2.2868,-0.0224 -0.0224,0.5191 c -0.005,0.1022 -0.003,0.1652 0.01,0.1913 0.0108,0.0283 0.0316,0.0496 0.0623,0.0668 0.0316,0.0163 0.0892,0.0262 0.1731,0.0301 l -0.003,0.0509 -0.9438,-0.0391 8e-4,-0.0517 c 0.0865,0.004 0.1446,-0.002 0.1765,-0.0166 0.0307,-0.014 0.0534,-0.0345 0.0674,-0.06 0.0144,-0.0254 0.0222,-0.0884 0.0266,-0.1891 l 0.055,-1.2151 c 0.004,-0.1013 10e-4,-0.1643 -0.01,-0.1922 -0.0128,-0.0265 -0.0329,-0.0485 -0.0626,-0.0648 -0.0306,-0.0187 -0.0884,-0.0277 -0.1731,-0.0315 l 10e-4,-0.0504 0.8118,0.0339 c 0.2654,0.01 0.4555,0.067 0.5685,0.1677 0.1105,0.1 0.1635,0.2215 0.1574,0.3667 -0.007,0.12 -0.0479,0.2223 -0.127,0.3073 -0.0777,0.0821 -0.184,0.1365 -0.3176,0.1641 -0.0887,0.0161 -0.2403,0.0212 -0.4511,0.0126 z m 0.0408,-0.916 -0.0358,0.8086 c 0.0306,0.003 0.0524,0.005 0.0681,0.005 0.1115,0.005 0.1982,-0.0255 0.2619,-0.0891 0.0625,-0.0628 0.099,-0.1665 0.1052,-0.3071 0.006,-0.1388 -0.0192,-0.241 -0.077,-0.3081 -0.058,-0.067 -0.1457,-0.1022 -0.2658,-0.1074 z m 3.2243,-0.3726 0.0831,0.6426 -0.0526,0.006 c -0.0617,-0.1618 -0.1524,-0.2797 -0.2733,-0.3554 -0.12,-0.0744 -0.2498,-0.1026 -0.3881,-0.084 -0.1149,0.0159 -0.2167,0.0636 -0.304,0.1436 -0.087,0.0791 -0.1473,0.1756 -0.1766,0.2891 -0.039,0.1459 -0.0484,0.3029 -0.0264,0.4718 0.0203,0.1662 0.0617,0.315 0.1224,0.4454 0.0582,0.1309 0.1372,0.2261 0.2349,0.2843 0.0986,0.0578 0.2177,0.077 0.359,0.0578 0.117,-0.0166 0.2192,-0.0565 0.3106,-0.1206 0.0896,-0.0626 0.1782,-0.1656 0.2703,-0.3062 l 0.0213,0.1618 c -0.0894,0.1216 -0.1875,0.2156 -0.2928,0.279 -0.1062,0.0643 -0.2351,0.1057 -0.3835,0.126 -0.197,0.027 -0.3774,0.01 -0.5396,-0.0481 -0.1639,-0.0589 -0.2967,-0.1574 -0.399,-0.2941 -0.1013,-0.1392 -0.1643,-0.2927 -0.1865,-0.4591 -0.022,-0.1766 0.002,-0.3514 0.0747,-0.5216 0.0701,-0.1723 0.1788,-0.3136 0.3232,-0.4205 0.1467,-0.1089 0.3065,-0.175 0.4821,-0.1993 0.13,-0.0159 0.2698,-0.007 0.4226,0.0299 0.0877,0.0224 0.1432,0.0314 0.1654,0.0274 0.0276,-0.003 0.0527,-0.0175 0.0713,-0.0418 0.0189,-0.0254 0.0281,-0.0593 0.0281,-0.1076 z m 2.4193,-0.475 0.1074,0.4946 -0.0481,0.0107 c -0.0538,-0.1074 -0.1036,-0.1833 -0.1501,-0.2248 -0.0444,-0.0421 -0.1013,-0.071 -0.1685,-0.0867 -0.0377,-0.009 -0.098,-0.002 -0.1834,0.0157 l -0.135,0.0312 0.3083,1.4088 c 0.0204,0.0936 0.0386,0.1507 0.0534,0.1725 0.0157,0.0209 0.0413,0.0364 0.0741,0.0477 0.035,0.0109 0.0769,0.0107 0.1283,-0.001 l 0.062,-0.0134 0.009,0.0503 -0.9518,0.2133 -0.0109,-0.049 0.0609,-0.0144 c 0.0522,-0.0114 0.0932,-0.0302 0.1221,-0.0574 0.0197,-0.0174 0.0331,-0.0431 0.0393,-0.0772 0.005,-0.0227 -0.002,-0.0804 -0.022,-0.1717 l -0.3097,-1.4112 -0.1305,0.0303 c -0.1228,0.0272 -0.2063,0.0737 -0.2497,0.1375 -0.0619,0.0907 -0.0879,0.206 -0.0793,0.3458 l -0.0517,0.0107 -0.1076,-0.4946 z m 1.9436,0.7098 -0.6125,0.2443 -0.007,0.1982 c -0.001,0.0662 0.005,0.1175 0.0193,0.1543 0.0196,0.0494 0.0525,0.0768 0.1009,0.0838 0.0282,0.005 0.0896,-0.007 0.1815,-0.036 l 0.0194,0.0468 -0.5769,0.2295 -0.0184,-0.0471 c 0.058,-0.0344 0.1001,-0.0808 0.1231,-0.139 0.0236,-0.0578 0.0391,-0.1648 0.045,-0.3222 l 0.0772,-1.6357 0.0251,-0.01 1.1817,1.1793 c 0.113,0.1123 0.1955,0.1774 0.2474,0.1974 0.0392,0.0147 0.0865,0.0139 0.1411,-0.002 l 0.0188,0.0478 -0.8389,0.3338 -0.0182,-0.0481 0.0345,-0.014 c 0.0684,-0.0262 0.1114,-0.0545 0.1304,-0.0842 0.014,-0.0213 0.0153,-0.045 0.006,-0.0714 -0.006,-0.0142 -0.0153,-0.0289 -0.027,-0.0431 -0.005,-0.008 -0.03,-0.0343 -0.0758,-0.0816 z m -0.0812,-0.0772 -0.4923,-0.4972 -0.0321,0.7057 z m 1.9275,-1.1892 0.2824,0.5041 c 0.0464,0.0837 0.0805,0.1335 0.1019,0.1496 0.0207,0.0145 0.0488,0.0227 0.0839,0.0227 0.0358,6e-4 0.0752,-0.0114 0.1212,-0.0377 l 0.0538,-0.03 0.0252,0.0442 -0.8478,0.4835 -0.0247,-0.0454 0.0538,-0.0299 c 0.0464,-0.0268 0.0791,-0.057 0.099,-0.0898 0.0146,-0.0247 0.019,-0.0515 0.0153,-0.0854 -0.002,-0.0233 -0.0262,-0.077 -0.0716,-0.1597 l -0.6012,-1.0699 c -0.0461,-0.0835 -0.0804,-0.1331 -0.1011,-0.1492 -0.0205,-0.0153 -0.0496,-0.0235 -0.0835,-0.0235 -0.0356,0 -0.0766,0.0126 -0.1216,0.0383 l -0.053,0.0302 -0.026,-0.045 0.848,-0.4834 0.0251,0.0452 -0.0542,0.03 c -0.0469,0.0274 -0.0799,0.0571 -0.0996,0.0906 -0.0145,0.0232 -0.0205,0.0509 -0.0165,0.0856 0.001,0.0245 0.0269,0.0785 0.072,0.1585 l 0.2589,0.4609 0.5723,-0.3269 -0.2587,-0.461 c -0.0463,-0.0829 -0.0815,-0.1331 -0.0999,-0.148 -0.0222,-0.0169 -0.0511,-0.024 -0.0846,-0.024 -0.0368,0 -0.0774,0.0119 -0.1224,0.0387 l -0.0519,0.0297 -0.0266,-0.0444 0.8473,-0.4848 0.0258,0.0455 -0.0536,0.0301 c -0.0467,0.0272 -0.081,0.0578 -0.0994,0.09 -0.0145,0.023 -0.0199,0.0511 -0.0164,0.0856 0.002,0.0245 0.0254,0.0771 0.0716,0.1587 l 0.6016,1.0713 c 0.0463,0.0833 0.0796,0.1329 0.1003,0.1488 0.0205,0.0153 0.0498,0.0237 0.0843,0.0239 0.0369,0 0.0771,-0.0126 0.1229,-0.0383 l 0.0526,-0.0301 0.0251,0.0445 -0.8471,0.4827 -0.0247,-0.0443 0.0519,-0.0291 c 0.0479,-0.0274 0.0812,-0.0582 0.0996,-0.0905 0.0144,-0.023 0.0207,-0.0523 0.0172,-0.0862 -0.003,-0.0241 -0.0268,-0.077 -0.0722,-0.1593 l -0.2826,-0.5038 z" />
        <path
           id="path4518"
           style="fill:#ffcb00;fill-rule:evenodd"
           d="m 455.3691,156.4448 c 9.5996,0 17.3932,-7.7936 17.3932,-17.4364 0,-9.6425 -7.7936,-17.4369 -17.3932,-17.4369 -9.5995,0 -17.3935,7.7944 -17.3935,17.4369 0,9.6428 7.794,17.4364 17.3935,17.4364 z m 0,-0.279 c 9.4461,0 17.115,-7.6689 17.115,-17.1574 0,-9.4884 -7.6689,-17.1579 -17.115,-17.1579 -9.446,0 -17.1153,7.6695 -17.1153,17.1579 0,9.4885 7.6693,17.1574 17.1153,17.1574 z" />
        <path
           id="path4520"
           style="fill:#ff0000;fill-rule:evenodd;fill-opacity:1"
           d="m 455.3686,154.3139 c -8.4266,0 -15.2828,-6.8571 -15.2828,-15.3272 0,-8.4277 6.8562,-15.2835 15.2828,-15.2835 8.4262,0 15.2823,6.8558 15.2823,15.2835 0,8.1569 -6.4981,15.3272 -15.2823,15.3272 z" />
        <path
           id="path4522"
           style="fill:#eceded;fill-rule:evenodd"
           d="m 449.0024,128.206 v 0.0214 l 0.0124,-0.0109 z" />
        <path
           id="path4524"
           style="fill:#000000;fill-rule:evenodd;fill-opacity:1"
           d="m 454.7164,138.8102 c 1.2681,0 2.2961,1.0074 2.2961,2.2502 0,1.2426 -1.028,2.2501 -2.2961,2.2501 -1.2681,0 -2.2961,-1.0075 -2.2961,-2.2501 0,-1.2428 1.028,-2.2502 2.2961,-2.2502 z" />
        <path
           id="path4526"
           style="fill:#000000;fill-rule:evenodd;fill-opacity:1"
           d="m 447.2597,149.6841 c -0.0641,0.2007 -0.0218,0.2953 0.0287,0.4958 -0.2731,-0.0793 -0.5083,-0.1569 -0.5743,-0.481 -0.0839,-0.0426 -0.1474,-0.1003 -0.1931,-0.1654 l -0.0605,-0.0304 c -0.2671,-0.1341 -0.3204,-0.4282 -0.2471,-0.6064 l 0.007,-0.0651 c 0.0727,-0.7349 0.9154,-1.0381 1.5547,-0.8866 0.1526,0.004 0.3853,0.1093 0.5072,0.1708 0.1857,0.093 0.429,0.1813 0.6328,0.0938 0.3305,-0.1434 0.504,-0.7872 0.5974,-1.1009 l 0.3859,-1.2836 c 0.1713,-0.5699 0.3676,-1.1597 0.5176,-1.7333 0.0441,-0.1701 0.0279,-0.5186 0.009,-0.7071 -0.0133,-0.0369 -0.0256,-0.075 -0.0372,-0.1141 l -0.0887,-0.0364 c -0.0574,-0.0236 -0.1131,-0.0475 -0.1675,-0.0717 l -0.0413,0.0261 c -0.5302,0.3352 -1.1857,0.2702 -1.7337,0.0181 -0.3672,-0.1691 -0.7304,-0.3626 -1.087,-0.553 -0.3159,-0.1686 -0.6301,-0.3402 -0.9442,-0.5121 -0.1445,-0.0788 -0.3325,-0.1954 -0.4804,-0.2583 -0.1647,-0.0668 -0.3719,-0.1847 -0.5564,-0.1383 -0.1836,0.0461 -0.1756,0.2888 -0.1905,0.4357 -0.2242,-0.1148 -0.3503,-0.1926 -0.3503,-0.4814 0,-0.0714 0.0107,-0.1581 0.0382,-0.2365 -0.2912,-0.007 -0.6505,0.0653 -0.718,0.3781 -0.0387,0.2078 0.0784,0.4591 0.002,0.7143 0.003,-7e-4 0.006,-0.002 0.009,-0.003 l 0.2783,-0.0293 c -0.068,0.1819 -0.1155,0.3586 -0.3089,0.4491 l -0.008,0.0167 c -0.0716,0.1512 -0.1935,0.2391 -0.3197,0.2767 -0.1744,0.307 -0.5752,0.307 -0.6977,0.1455 -0.4904,-0.0303 -0.7324,-0.9121 -0.6801,-1.2958 0.0812,-0.607 0.5924,-1.317 1.1075,-1.63 0.4962,-0.301 1.1141,-0.3366 1.6798,-0.3297 0.8046,0.01 1.5728,0.2352 2.3512,0.4041 0.2559,0.0565 0.5383,0.0671 0.7996,0.059 l 0.005,-2e-4 c -0.011,-0.0961 -0.0202,-0.1952 -0.0278,-0.2977 -0.0402,-0.5437 -0.0412,-1.0277 0.004,-1.5686 0.0549,-0.652 0.004,-1.1286 -0.1145,-1.7795 -0.0793,-0.4437 -0.1462,-0.708 -0.3934,-1.0765 -0.1731,-0.2557 -0.4551,-0.5284 -0.7832,-0.5371 -0.0562,-0.001 -0.162,0.0943 -0.2021,0.1285 -0.1271,0.11 -0.2458,0.1856 -0.4071,0.2352 -0.2266,0.0715 -0.4155,0.1252 -0.6427,0.011 -0.0947,-0.0476 -0.1471,-0.0981 -0.2074,-0.1808 -0.0271,-0.0366 -0.053,-0.0663 -0.0892,-0.0942 -0.0802,-0.062 -0.1776,-0.1514 -0.1747,-0.2601 0,-0.0391 0.0106,-0.0708 0.0287,-0.0974 l -0.0728,-0.2509 c -0.0894,-0.0706 -0.159,-0.1443 -0.1878,-0.2562 -0.0721,-0.0516 -0.1217,-0.1214 -0.1741,-0.1983 -0.0621,-0.0897 -0.0908,-0.2016 -0.1002,-0.3093 l -0.003,-0.0324 c -0.0914,-0.1181 -0.1262,-0.3199 -0.1262,-0.4483 0,-0.2301 0.238,-0.3513 0.4057,-0.4523 0.1798,-0.1136 0.2926,-0.2985 0.5159,-0.3745 l 0.2138,-0.0541 c 0.2323,-0.0507 0.3469,-0.0938 0.4853,-0.2937 0.3397,-0.4852 0.9671,-0.5626 1.5145,-0.5392 0.1308,0.005 0.2607,0.0176 0.3904,0.0336 l 0.003,-0.004 0.01,-7e-4 c 0.0996,-0.1198 0.2099,-0.2489 0.3523,-0.3099 0.2094,-0.0931 0.383,-0.1001 0.5952,7e-4 0.2309,0.1105 0.2686,0.2491 0.3073,0.4826 0.0149,0.0934 0.0356,0.2225 0.0415,0.325 0.2261,0.1575 0.5867,0.4655 0.7527,0.6393 0.7532,0.7932 1.0045,1.6599 1.4744,2.6092 0.2028,0.4604 0.4494,0.8295 0.7849,1.0832 0.1474,-0.8499 0.2345,-1.7146 0.2345,-2.5773 0,-0.3429 -0.0137,-0.6861 -0.0449,-1.0278 -0.1339,-1.5072 -0.6399,-3.6374 -1.8455,-4.6651 -0.3592,-0.2897 -0.9566,-0.6617 -1.4287,-0.4338 -0.2559,0.1236 -0.3149,0.2356 -0.5365,0.5332 l 0.0197,-0.469 c 0.0209,-0.4982 0.3632,-0.8983 0.8537,-0.9991 0.7987,-0.1464 1.5735,0.3379 2.1404,0.8933 -0.0688,-0.4027 -0.0889,-0.8213 -0.0238,-1.2193 0.1251,-0.7562 0.7424,-1.8067 1.6558,-1.5269 0.2122,0.065 0.4905,0.2094 0.7728,0.3042 l -0.4883,0.118 c -0.6976,0.1686 -0.9585,0.9815 -0.9712,1.6172 0.005,0.5893 0.4195,1.3614 0.6828,1.8826 l 0.1637,0.338 c -0.0495,-1.1842 0.4649,-2.6448 1.8087,-2.0909 0.1449,0.0598 0.4008,0.319 0.5989,0.4538 l -0.4261,0.024 c -1.2895,0.0731 -0.9098,1.8095 -0.6099,2.5908 0.0793,0.2048 0.1569,0.4091 0.2261,0.6162 0.1094,-0.5597 0.3676,-1.1283 0.8791,-1.3126 0.2238,-0.0745 0.4416,-0.0785 0.6544,0.0317 0.2928,0.152 0.5936,0.4213 0.8737,0.6068 l -0.6379,-0.0919 c -0.4694,-0.0677 -0.6972,0.4683 -0.7708,0.8491 -0.1428,0.5736 0.0663,1.337 0.2198,1.9155 0.1049,-0.473 0.3458,-0.9208 0.8516,-0.935 0.1795,-0.0112 0.3448,0.0236 0.4996,0.1165 0.1722,0.1031 0.3989,0.337 0.6164,0.4966 l -0.4626,-0.0124 c -0.4704,-0.0129 -0.5765,0.0487 -0.6073,0.5284 -0.0372,0.5614 0.1067,1.2719 0.2009,1.9234 0.1101,-0.2265 0.2905,-0.4242 0.5341,-0.473 0.1478,-0.0361 0.298,-0.0165 0.4299,0.0602 0.1082,0.063 0.2238,0.2449 0.3563,0.37 l -0.2522,0.0662 c -0.3891,0.1022 -0.3199,0.6086 -0.3199,0.9141 0.002,0.1177 0.004,0.2345 0.004,0.3522 0,0.006 0,0.0126 0,0.0188 0.253,-0.0913 0.3785,-0.1754 0.6137,-0.3572 l 0.1247,-0.0961 c 0.585,-0.4477 1.3079,-0.7974 2.0446,-0.8947 0.5797,-0.0741 1.2581,0.0421 1.8131,0.2115 0.5918,0.1825 1.0314,0.4678 1.5362,0.8162 0.3993,0.2753 1.2507,0.6753 1.6411,0.1868 0.4129,-0.5171 -0.1,-1.2012 -0.4209,-1.6208 -0.4586,-0.601 -2.3162,-1.5812 -3.0495,-1.9819 -1.1762,-0.6528 -2.3497,-1.2728 -2.9716,-2.5388 -0.4218,-0.8608 -0.4238,-1.8863 0.066,-2.719 0.2232,-0.3768 0.8223,-1.0905 1.3154,-0.8065 0.4642,0.2683 0.2883,0.8888 0.0809,1.2623 -0.3068,0.5678 -0.2903,1.0026 0.1265,1.5307 0.5711,0.726 2.1053,1.6249 2.9483,2.0291 1.0043,0.4838 2.1098,1.1564 2.8026,2.0485 0.5943,0.7605 0.9379,1.6048 0.8538,2.5774 -0.069,0.8158 -0.5986,1.4379 -1.2907,1.8293 -0.0486,0.0274 -0.241,0.1375 -0.307,0.2008 0.061,0.059 0.1889,0.092 0.2014,0.2203 0.0925,0.6068 0.1591,1.1925 0.1591,1.8076 0,0.6746 -0.1156,1.4308 -0.2023,2.1024 -0.0474,0.377 -0.1275,0.8502 -0.1275,1.2262 0,0.5401 0.5586,0.8113 0.5586,1.3615 0,0.3654 -0.7813,1.5395 -1.0274,1.8904 -0.1395,0.1992 -0.8153,1.126 -0.8153,1.3526 10e-5,0.005 5e-4,0.008 4e-4,0.009 0.0249,0.1514 0.2817,0.0479 0.3898,0.0479 -0.0142,0.3771 -0.4712,0.5749 -0.8077,0.4827 -0.1003,0.1947 -0.2468,0.3813 -0.4079,0.52 -0.4011,0.343 -0.8605,0.3484 -1.3431,0.4752 -0.1632,0.0435 -0.3346,0.0925 -0.5019,0.1092 -0.1817,0.0207 -0.4108,-4e-4 -0.5957,-0.0421 -0.0301,0.0943 0.006,0.2322 0.0147,0.3297 -0.2205,-0.0619 -0.3729,-0.0832 -0.4564,-0.3333 l -0.0608,-0.0305 c -0.1329,-0.0669 -0.2148,-0.1721 -0.2556,-0.2839 l -0.008,-0.004 c -0.3633,-0.1819 -0.3461,-0.6494 -0.1522,-0.7557 -10e-4,-0.0152 -0.002,-0.031 -0.002,-0.048 0,-0.0789 -0.009,-0.0666 0.0388,-0.1267 0.1467,-0.218 0.227,-0.3138 0.4641,-0.4399 0.2514,-0.1369 0.7016,-0.263 0.9863,-0.2504 0.268,0.0148 0.5331,0.1152 0.7962,0.1152 0.2855,0 0.3551,-0.0311 0.532,-0.2609 0.2648,-0.3453 0.6493,-1.1839 0.7963,-1.6051 0.1364,-0.3907 0.1805,-0.6286 0.2125,-1.0328 0.0272,-0.3407 -0.1977,-0.6481 -0.3154,-0.9535 -0.168,-0.4237 -0.4818,-0.9209 -0.7139,-1.3201 l -0.3605,-0.6337 c -0.1992,0.2909 -0.4057,0.8499 -0.4412,1.1841 -0.0333,0.3166 0.1032,0.4317 -0.005,0.7889 -0.1351,0.4486 -0.0885,0.2794 -0.5262,0.525 -0.3978,0.2242 -1.9167,1.1333 -2.073,1.5065 -0.0148,0.0355 -0.0966,0.2468 -0.0225,0.2746 l 0.0879,0.0201 c 0.0547,0.2783 -0.1333,0.3205 -0.3817,0.3012 -0.1211,-0.008 -0.2521,-0.0554 -0.3435,-0.1407 -0.002,0.001 -0.004,0.003 -0.006,0.004 -0.007,0.005 -0.0162,0.0111 -0.021,0.0189 -0.1087,0.1785 -0.1181,0.2325 -0.2821,0.4032 -0.3435,0.3589 -0.6302,0.2357 -1.026,0.3298 -0.2492,0.0624 -0.8842,0.1857 -1.118,0.1232 -0.0883,-0.0246 -0.1805,-0.0567 -0.2682,-0.0948 -0.0148,0.0427 -0.0262,0.0782 -0.015,0.1018 l 0.0621,0.2617 -0.2577,-0.0704 c -0.1305,-0.0653 -0.2076,-0.1704 -0.2423,-0.2804 -0.0262,-0.0149 -0.0504,-0.0315 -0.0724,-0.0495 l -0.0246,0.0147 0.009,-0.028 c -0.0663,-0.0585 -0.1118,-0.129 -0.1393,-0.2023 -0.3041,-0.1624 -0.3203,-0.5352 -0.1855,-0.684 -0.01,-0.1435 0.0199,-0.2825 0.1,-0.4065 0.1916,-0.2972 0.6041,-0.4049 0.9343,-0.4422 0.2352,-0.0265 0.8119,-0.0359 1.0436,0.0843 0.5299,0.1276 0.5347,-0.0386 0.9081,-0.3431 0.4893,-0.4003 0.9218,-0.9723 1.379,-1.4171 0.2552,-0.2517 0.4007,-0.4963 0.4376,-0.8605 0.0431,-0.4389 -0.3124,-1.3014 -0.5049,-1.7089 -0.1379,-0.2894 -0.2369,-0.7043 -0.2935,-1.0398 -1.06,0.7942 -2.0673,2.1496 -3.0767,2.748 -0.6918,0.619 -1.3113,0.9084 -2.3672,0.8622 l -0.24,0.0327 c -0.4775,0.0653 -0.9656,0.0935 -1.4477,0.0804 -0.0405,0.2507 -0.117,0.4707 -0.2335,0.7305 l -0.0281,0.0667 c -0.2256,0.5024 -0.6119,1.1079 -0.8901,1.5944 -0.183,0.3223 -0.3994,0.6707 -0.5629,1.0025 -0.0799,0.153 -0.1775,0.4168 -0.1775,0.5908 0,0.0388 0.005,0.1001 0.0359,0.13 0.1138,0.1148 0.2928,0.0814 0.4396,0.0814 -0.138,0.2297 -0.2056,0.3484 -0.4937,0.4003 -0.106,0.0203 -0.2438,0.0264 -0.3567,-0.0137 -0.0881,0.2164 -0.317,0.4711 -0.3776,0.5373 -0.4149,0.4536 -0.9545,0.4854 -1.5229,0.5474 -0.1232,0.0171 -0.2439,0.0478 -0.3652,0.0809 -0.4283,0.1073 -0.6567,-0.057 -1.0225,-0.1044 z m 5.4594,-8.6499 c 0,-1.1351 0.922,-2.0586 2.0584,-2.0586 1.1348,0 2.0593,0.9235 2.0593,2.0586 0,1.1362 -0.9245,2.0604 -2.0593,2.0604 -1.1364,0 -2.0584,-0.9242 -2.0584,-2.0604 z m -7.2057,-6.1933 0.1091,0.083 c 0.0488,-0.0159 0.0938,-0.0315 0.1538,-0.0327 0.0662,-0.002 0.1771,0.0187 0.2357,-0.0113 0.2483,-0.1259 0.1596,-0.3418 -0.0458,-0.3925 -0.0387,0.098 -0.1313,0.1676 -0.2447,0.1676 -0.0201,0 -0.0393,-0.002 -0.0577,-0.006 -0.0339,0.0377 -0.0793,0.0659 -0.1342,0.081 -0.0129,0.003 -0.0258,0.006 -0.0385,0.007 0.002,0.006 0.003,0.0112 0.004,0.0156 z" />
        <path
           id="path4528"
           style="fill:#ffffff;fill-rule:evenodd"
           d="m 452.8657,141.0342 c 0,1.0614 0.8622,1.8989 1.9118,1.9109 1.0543,-0.012 1.9121,-0.8457 1.9121,-1.9109 0,-1.0523 -0.8604,-1.9111 -1.9121,-1.9111 -1.0529,0 -1.9118,0.8588 -1.9118,1.9111 z m 0.1177,0 c 0,0.9963 0.8091,1.7822 1.7941,1.7932 0.9892,-0.011 1.7942,-0.7937 1.7942,-1.7932 0,-0.9873 -0.8075,-1.7932 -1.7942,-1.7932 -0.988,0 -1.7941,0.8059 -1.7941,1.7932 z" />
        <path
           id="path4530"
           style="fill:#eceded;fill-rule:evenodd"
           d="M 456.6947,136.6335 Z" />
        <path
           id="path4532"
           style="fill:#ffcb00;fill-rule:evenodd"
           d="m 457.5316,141.0341 c 0,1.5184 -1.244,2.7543 -2.7541,2.7543 -1.5113,0 -2.7539,-1.2332 -2.7539,-2.7543 0,-0.9309 0.463,-1.7542 1.171,-2.2521 h 0.002 c 0.134,-0.093 0.2729,-0.1759 0.4232,-0.2464 l -10e-4,0.003 c 0.032,-0.0136 0.0642,-0.0291 0.0961,-0.0427 v -0.003 c 0.4998,-0.2081 1.0556,-0.2644 1.5875,-0.1604 v 6e-4 c 0.601,0.1156 1.1542,0.4338 1.5576,0.8993 l -0.002,0.002 c 0.0193,0.0226 0.0385,0.0454 0.0571,0.0683 l 9e-4,-10e-4 c 0.1139,0.1384 0.2135,0.2897 0.2976,0.45 l -2e-4,0.002 c 0.0599,0.1153 0.0804,0.1451 0.1568,0.3582 l 8e-4,-0.002 c 0.0741,0.207 0.1208,0.422 0.1439,0.6395 l 0.002,-7e-4 c 0.009,0.0936 0.0147,0.1897 0.0147,0.2862 z m -4.7396,0 c 0,-1.0948 0.8893,-1.9855 1.9855,-1.9855 1.0946,0 1.9863,0.8907 1.9863,1.9855 0,1.0962 -0.8917,1.9877 -1.9863,1.9877 -1.0962,0 -1.9855,-0.8915 -1.9855,-1.9877 z" />
        <path
           id="path4534"
           style="fill:#ffffff;fill-rule:evenodd"
           d="m 446.985,149.3983 c -0.1766,-0.0837 -0.2288,0.4083 0.1048,0.5756 -0.121,-0.2569 0.2423,-0.4093 -0.1048,-0.5756 z" />
        <path
           id="path4536"
           style="fill:#ffffff;fill-rule:evenodd"
           d="m 446.4401,148.907 c -0.1428,-0.0696 -0.186,0.3305 0.0854,0.4667 -0.0982,-0.2079 0.1968,-0.3319 -0.0854,-0.4667 z" />
        <path
           id="path4538"
           style="fill:#ffffff;fill-rule:evenodd"
           d="m 446.6897,149.0778 c -0.1509,-0.0718 -0.1945,0.3483 0.0899,0.4921 -0.104,-0.2197 0.2072,-0.3504 -0.0899,-0.4921 z" />
        <path
           id="path4540"
           style="fill:#ffffff;fill-rule:evenodd"
           d="m 443.7116,142.7711 c -0.0608,0.1341 0.3112,0.1656 0.4325,-0.09 -0.1919,0.0967 -0.3135,-0.1764 -0.4325,0.09 z" />
        <path
           id="path4542"
           style="fill:#ffffff;fill-rule:evenodd"
           d="m 443.4197,143.0281 c -0.0681,0.1527 0.3533,0.1868 0.4901,-0.1018 -0.2186,0.11 -0.3551,-0.198 -0.4901,0.1018 z" />
        <path
           id="path4544"
           style="fill:#ffffff;fill-rule:evenodd"
           d="m 443.1419,143.2653 c -0.065,0.1439 0.3355,0.1774 0.4665,-0.0976 -0.2076,0.1045 -0.3375,-0.1877 -0.4665,0.0976 z" />
        <path
           id="path4546"
           style="fill:#ffffff;fill-rule:evenodd"
           d="m 456.5823,147.1162 c -0.1339,-0.0638 -0.1731,0.3079 0.0799,0.4344 -0.0923,-0.1953 0.1822,-0.3092 -0.0799,-0.4344 z" />
        <path
           id="path4548"
           style="fill:#ffffff;fill-rule:evenodd"
           d="m 456.1175,146.5435 c -0.1424,-0.0685 -0.1851,0.3298 0.0863,0.4674 -0.0978,-0.2091 0.196,-0.3328 -0.0863,-0.4674 z" />
        <path
           id="path4550"
           style="fill:#ffffff;fill-rule:evenodd"
           d="m 456.3565,146.7933 c -0.1495,-0.0712 -0.1957,0.348 0.0911,0.4917 -0.1041,-0.2199 0.2067,-0.3496 -0.0911,-0.4917 z" />
        <path
           id="path4552"
           style="fill:#ffffff;fill-rule:evenodd"
           d="m 461.4994,149.4805 c -0.131,-0.0627 -0.1722,0.3086 0.0814,0.4352 -0.0922,-0.1948 0.1825,-0.3093 -0.0814,-0.4352 z" />
        <path
           id="path4554"
           style="fill:#ffffff;fill-rule:evenodd"
           d="m 460.926,148.8336 c -0.1497,-0.0719 -0.196,0.3481 0.0907,0.4917 -0.1038,-0.2197 0.2082,-0.35 -0.0907,-0.4917 z" />
        <path
           id="path4556"
           style="fill:#ffffff;fill-rule:evenodd"
           d="m 461.1911,149.1217 c -0.1507,-0.0723 -0.196,0.3481 0.0898,0.4917 -0.1031,-0.2201 0.2072,-0.3509 -0.0898,-0.4917 z" />
        <path
           id="path4558"
           style="fill:#ffffff;fill-rule:evenodd"
           d="m 456.3144,146.728 c 0.0645,-0.0268 0.1462,0.004 0.2164,0.1171 0.1068,-0.1897 0.4574,-0.4873 0.9336,-0.4202 -0.3646,-0.0224 -0.8456,0.2785 -0.9545,0.6233 0.0491,-0.029 0.1847,-0.007 0.2363,0.1484 0.1208,0.0651 0.2675,0.1173 0.3686,0.1456 0.1714,0.0459 0.7381,-0.0474 1.0448,-0.1242 0.3058,-0.0727 0.6596,0.0204 0.9562,-0.2895 0.297,-0.309 0.2007,-0.3561 0.3261,-0.4415 0.1237,-0.0844 0.1237,-0.0844 0.1237,-0.0844 0,0 0.0575,0.1789 0.317,0.1965 0.259,0.0204 0.2477,-0.0368 0.2477,-0.0368 0,0 -0.2477,-0.0569 -0.0751,-0.4704 0.1724,-0.4117 1.6175,-1.2848 2.1355,-1.5769 0.5169,-0.2901 0.3538,-0.0922 0.4587,-0.4407 0.1055,-0.3476 -0.0389,-0.3926 0,-0.7623 0.0387,-0.3637 0.2691,-0.9832 0.4894,-1.2843 l -10e-4,-0.007 c -0.2468,-0.4481 -0.455,-0.8299 -0.557,-1.2381 -0.116,-0.4479 -0.3131,-1.0503 -1.2694,-1.0384 -0.4603,0.004 -0.8788,0.201 -1.2201,0.4296 l -0.0172,0.0237 c 0,0 0.1051,0.6945 0.2967,1.0967 0.1914,0.4049 0.5652,1.3064 0.5182,1.7853 -0.0485,0.478 -0.2786,0.7507 -0.4801,0.9494 -0.2014,0.1958 -1.0441,1.1438 -1.3888,1.4259 -0.3444,0.2809 -0.4117,0.526 -1.0533,0.3671 -0.2259,-0.1419 -2.0074,-0.2516 -1.8743,0.6729 0.058,-0.0481 0.1732,0.036 0.1884,0.0928 0.1243,-0.3945 0.5049,-0.5396 0.8114,-0.4965 -0.4371,0.022 -0.7199,0.2401 -0.7778,0.6367 z" />
        <path
           id="path4560"
           style="fill:#ffffff;fill-rule:evenodd"
           d="m 457.6103,141.0341 c 0,0.7244 -0.2721,1.3854 -0.7194,1.8867 1.3799,-0.8633 2.8154,-3.3361 4.5182,-3.3547 1.0333,-0.0109 1.2138,0.7063 1.3097,1.0928 0.1066,0.4248 0.3261,0.8304 0.5797,1.3009 l 0.0508,0.0924 0.3714,0.6526 c 0.2833,0.4875 0.6042,1.0396 0.7228,1.3391 0.1316,0.341 0.356,0.6308 0.3251,1.018 -0.0309,0.3914 -0.0513,0.5853 -0.2201,1.0689 -0.1736,0.4973 -0.6091,1.3731 -0.8183,1.6456 -0.214,0.2783 -0.3297,0.3176 -0.6467,0.3176 -0.2751,0 -0.5312,-0.1005 -0.8037,-0.1154 -0.2079,-0.009 -0.635,0.0834 -0.9099,0.2331 -0.2212,0.1176 -0.2834,0.2009 -0.4146,0.3957 -0.008,0.0106 -0.0124,0.0244 -0.0124,0.0436 0,0.0305 -0.002,0.0644 0.0233,0.1155 0.0207,0.004 0.1229,0.1239 0.1442,0.1407 0.2336,-0.4375 0.4624,-0.4612 0.8764,-0.4537 -0.3691,0.0513 -0.7123,0.159 -0.8232,0.5883 0.0902,0.033 0.1902,0.07 0.2115,0.1638 0.162,-0.4003 0.6017,-0.3953 0.9316,-0.4957 -0.1374,0.0858 -0.9297,0.244 -0.8756,0.6865 0.096,-9e-4 0.251,0.0941 0.2368,0.1902 0.011,0.0108 0.033,0.0321 0.0432,0.0398 0.0545,0.0137 0.3434,0.0766 0.587,0.0488 0.1412,-0.0142 0.2979,-0.0565 0.4807,-0.1053 0.458,-0.1204 0.9157,-0.1285 1.2862,-0.4453 0.2907,-0.25 0.4141,-0.5634 0.4159,-0.5664 l 0.0281,-0.0656 c 0.1318,0.1722 0.6208,0.0756 0.704,-0.1159 -0.1735,0 -0.3307,0.0797 -0.3713,-0.172 -8e-4,-0.009 -0.002,-0.0197 -0.002,-0.0292 0,-0.2258 0.325,-0.6987 0.8416,-1.4359 0.4814,-0.6861 1.0012,-1.5724 1.0012,-1.8073 0,-0.4952 -0.5586,-0.759 -0.5586,-1.3615 0,-0.2216 0.0595,-0.6957 0.1287,-1.2445 0.0951,-0.7361 0.201,-1.5694 0.201,-2.0841 0,-0.63 -0.0627,-1.1651 -0.1576,-1.7878 -0.005,-0.0548 -0.2082,-0.1292 -0.2167,-0.2337 -0.004,-0.0658 0.0578,-0.1429 0.3944,-0.3333 0.7264,-0.4106 1.1587,-1.0181 1.2178,-1.7155 0.0744,-0.8616 -0.1954,-1.6721 -0.8238,-2.4761 -0.5629,-0.7248 -1.491,-1.4 -2.7513,-2.007 -0.8527,-0.4089 -2.4195,-1.3331 -2.9992,-2.07 -0.6274,-0.795 -0.2972,-1.3984 -0.1399,-1.6895 0.0741,-0.1335 0.4152,-0.8126 -0.0262,-1.0678 -0.3468,-0.1997 -0.8615,0.3209 -1.1184,0.7549 -0.1702,0.2893 -0.6755,1.3267 -0.0606,2.5816 0.6074,1.2366 1.7781,1.8468 2.9116,2.4759 1.0613,0.5798 2.6641,1.4564 3.0945,2.0206 0.4713,0.6165 0.8491,1.2605 0.4189,1.7991 -0.3941,0.4932 -1.2064,0.2763 -1.8364,-0.1581 -0.6067,-0.4188 -0.9661,-0.6334 -1.4965,-0.797 -0.6305,-0.1923 -1.2688,-0.268 -1.752,-0.2062 -0.3793,0.0501 -1.1418,0.2284 -1.9751,0.866 l -0.1242,0.0958 c -0.2548,0.197 -0.3719,0.2888 -0.7662,0.4176 -0.004,0.2718 -0.0179,0.5586 -0.0577,0.8518 0.3034,-0.5629 0.7984,-0.2529 0.9252,0.2113 -0.5718,-0.1425 -0.5305,0.3267 -0.5874,0.8041 -0.0194,0.1779 -0.041,0.3441 -0.0709,0.47 -0.1453,0.572 -0.4671,1.1831 -0.868,1.6233 0.0146,0.118 0.0224,0.2395 0.0224,0.3619 z" />
        <path
           id="path4562"
           style="fill:#ffcb00;fill-rule:evenodd"
           d="m 449.3116,127.9156 c 0.5372,-0.2591 1.1797,0.1269 1.5833,0.4521 0.9983,0.851 1.7087,2.6327 1.898,4.7643 0.0307,0.3364 0.0454,0.6829 0.0454,1.0407 0,0.8494 -0.0845,1.7539 -0.2541,2.7015 0.0825,0.0545 0.167,0.0992 0.2515,0.1364 0.1745,-0.9555 0.2636,-1.873 0.2636,-2.7425 0,-0.3909 -0.0188,-0.7731 -0.0537,-1.142 -0.22,-2.22 -0.9698,-3.9974 -2.053,-4.8763 -0.4069,-0.3028 -1.1937,-0.697 -1.681,-0.3342 z" />
        <path
           id="path4564"
           style="fill:#ffffff;fill-rule:evenodd"
           d="m 451.9946,128.3654 c -0.5399,-0.6127 -1.3908,-1.2707 -2.2563,-1.1121 -0.4432,0.0911 -0.7188,0.4516 -0.736,0.863 0.5456,-0.7325 1.4489,-0.3727 2.0412,0.0669 1.1012,0.8948 1.8608,2.6927 2.0846,4.9343 0.1291,1.3405 0.0261,2.5954 -0.21,3.9171 0.2016,0.0769 0.4222,0.1149 0.6367,0.1426 0.5204,-2.7088 0.3033,-4.5491 -0.792,-6.9899 -0.2569,-0.6163 -0.5376,-1.1915 -0.7682,-1.8219 z" />
        <path
           id="path4566"
           style="fill:#ffcb00;fill-rule:evenodd"
           d="m 453.3203,138.6062 c 0.1031,-0.0623 0.2117,-0.1186 0.323,-0.1671 0.2818,-1.1632 0.5368,-2.4682 0.5368,-3.8103 0,-1.6227 -0.453,-3.0784 -1.138,-4.5435 -0.3953,-0.8992 -0.9663,-1.7736 -0.9802,-2.7882 0.017,-0.7801 0.4095,-1.9791 1.3795,-1.9005 -0.821,-0.2516 -1.3625,0.7586 -1.4705,1.4121 -0.0792,0.4834 -0.0278,1.0151 0.0977,1.5285 0.198,0.6305 0.5481,1.2842 0.771,1.8181 0.8934,1.9948 1.2385,3.5605 0.997,5.7393 v 0 l -0.008,0.067 v 0 c -0.1073,0.8932 -0.2914,1.7731 -0.5081,2.6446 z" />
        <path
           id="path4568"
           style="fill:#ffffff;fill-rule:evenodd"
           d="m 453.7394,138.3996 c 0.198,-0.0795 0.4086,-0.1355 0.6264,-0.1677 0.2368,-0.9876 0.4372,-1.9756 0.455,-2.9921 v -0.001 c 4e-4,-0.0228 10e-4,-0.0476 10e-4,-0.0713 0,-1.4617 -0.3363,-2.9039 -0.7931,-4.2825 -0.0913,-0.2841 -0.1498,-0.4262 -0.2271,-0.7083 l -0.4517,-0.9326 c -0.3565,-0.7059 -0.6931,-1.3752 -0.6976,-1.9461 0.0144,-0.718 0.3195,-1.5738 1.082,-1.7581 -1.0775,-0.3618 -1.5718,0.8848 -1.5891,1.7574 0.0123,1.003 0.5836,1.8653 0.9726,2.7544 0.3949,0.8425 0.8239,1.8502 1.0056,2.9281 0.3396,1.8938 0.006,3.7933 -0.384,5.42 z" />
        <path
           id="path4570"
           style="fill:#ffcb00;fill-rule:evenodd"
           d="m 454.4547,138.2208 c 0.0937,-0.0109 0.1898,-0.0178 0.2854,-0.0187 0.2164,-0.9187 0.4241,-1.9416 0.4241,-2.9958 0,-0.3773 -0.0257,-0.7596 -0.0885,-1.1418 -0.1852,-1.1152 -0.3919,-2.2164 -0.7824,-3.2788 -0.1732,-0.4749 -0.3516,-0.9618 -0.3516,-1.469 0,-0.7847 0.4469,-2.1052 1.4554,-1.7555 -1.5067,-0.6211 -1.8523,1.6544 -1.4751,2.7189 l 0.1847,0.5774 c 0.4618,1.3987 0.8011,2.8513 0.797,4.3348 v 0.0498 0.002 c -0.0169,1.008 -0.2158,1.9953 -0.449,2.9771 z" />
        <path
           id="path4572"
           style="fill:#ffffff;fill-rule:evenodd"
           d="m 454.8263,138.2021 c 0.1696,0.004 0.3371,0.0209 0.4973,0.0534 0.2345,-0.8168 0.4567,-1.7502 0.4567,-2.6659 0,-0.1091 -9e-4,-0.2172 -0.009,-0.3256 -0.0473,-0.7482 -0.1963,-1.4207 -0.3566,-2.1017 -0.0857,-0.377 -0.1782,-0.8665 -0.1782,-1.3588 0,-0.0712 0.002,-0.1427 0.006,-0.2114 -0.0356,-0.1177 -0.0711,-0.2352 -0.1112,-0.3512 -0.0784,-0.2446 -0.165,-0.4707 -0.251,-0.6929 -0.3226,-0.8404 -0.71,-2.7054 0.7368,-2.7873 -1.0295,-0.7002 -1.5935,0.7438 -1.5935,1.5544 0,0.4934 0.1774,0.9748 0.3484,1.4415 0.3922,1.0672 0.6025,2.1732 0.7856,3.2945 0.0632,0.3866 0.0905,0.7737 0.0905,1.156 0,1.0534 -0.2064,2.0763 -0.4216,2.995 z" />
        <path
           id="path4574"
           style="fill:#ffcb00;fill-rule:evenodd"
           d="m 455.4061,138.2723 c 0.0707,0.0161 0.1423,0.0349 0.2106,0.0558 0.2302,-0.8122 0.449,-1.7426 0.449,-2.6874 0,-0.1292 -0.004,-0.2589 -0.0124,-0.3879 -0.0177,-0.5921 -0.162,-1.1863 -0.302,-1.7588 -0.1512,-0.6072 -0.2945,-1.1914 -0.2945,-1.7676 0,-0.4538 0.1077,-1.1061 0.3837,-1.4763 0.2112,-0.2728 0.5392,-0.3822 0.8676,-0.2903 -0.174,-0.0903 -0.3496,-0.087 -0.5411,-0.0232 -0.6607,0.2381 -0.848,1.247 -0.848,1.8669 0,0.4855 0.0909,0.9691 0.1757,1.3395 0.1634,0.6844 0.3095,1.361 0.3597,2.115 0.007,0.1116 0.0103,0.221 0.0103,0.3316 0,0.9229 -0.225,1.8612 -0.4586,2.6827 z" />
        <path
           id="path4576"
           style="fill:#ffffff;fill-rule:evenodd"
           d="m 455.6949,138.354 c 0.1061,0.0363 0.2099,0.079 0.309,0.1265 0.3442,-0.6796 0.5453,-1.2884 0.6085,-1.8559 0.0682,-0.5841 0.009,-1.1786 -0.058,-1.6842 -0.0534,-0.3803 -0.1163,-0.8312 -0.1009,-1.2789 -0.0366,-0.1433 -0.0733,-0.2837 -0.11,-0.4231 -0.2095,-0.7991 -0.3904,-1.4904 -0.2445,-2.0764 0.0858,-0.4456 0.364,-1.0411 0.9323,-0.9592 -0.1685,-0.1116 -0.4189,-0.2361 -0.6728,-0.1841 -0.2245,0.0398 -0.3694,0.1753 -0.4537,0.2808 -0.6291,0.8499 -0.2916,2.293 -0.0752,3.175 0.143,0.5772 0.2897,1.1747 0.3068,1.7744 0.0728,1.0879 -0.1762,2.1741 -0.4415,3.1051 z" />
        <path
           id="path4578"
           style="fill:#ffcb00;fill-rule:evenodd"
           d="m 456.0777,138.5171 c 0.0626,0.0315 0.1221,0.0664 0.1826,0.1022 0.3559,-0.7054 0.5598,-1.349 0.625,-1.9567 0.0813,-0.5931 -0.009,-1.1933 -0.0956,-1.7799 -0.0628,-0.4202 -0.1249,-0.8245 -0.1249,-1.2225 0,-0.6142 0.2044,-1.5469 1.0716,-1.244 -0.1144,-0.0686 -0.2478,-0.1065 -0.4175,-0.0961 -0.6626,0.0187 -0.7862,0.9781 -0.7862,1.4783 0,0.3898 0.0557,0.7758 0.1043,1.1315 0.0463,0.3482 0.0901,0.7396 0.0901,1.142 0,0.1867 -0.009,0.3753 -0.0325,0.5616 -0.0642,0.5783 -0.2677,1.1952 -0.6169,1.8836 z" />
        <path
           id="path4580"
           style="fill:#ffffff;fill-rule:evenodd"
           d="m 456.3294,138.6647 c 0.1336,0.0875 0.259,0.1869 0.3746,0.2934 0.2251,-0.3517 0.3856,-0.6853 0.4874,-1.0174 0.1673,-0.5117 0.2058,-1.0325 0.2472,-1.5854 0.0116,-0.1719 0.0256,-0.3465 0.0424,-0.5232 -0.0666,-0.9941 -0.3125,-1.8678 -0.2682,-2.5368 0.0362,-0.5618 0.2063,-0.6786 0.7557,-0.6637 -0.8796,-0.6458 -1.2209,0.3701 -1.2209,1.0279 0,0.3922 0.062,0.792 0.1236,1.2113 0.0866,0.5948 0.1773,1.2011 0.0971,1.8014 -0.0673,0.6219 -0.2747,1.2734 -0.6389,1.9925 z" />
        <path
           id="path4582"
           style="fill:#ffcb00;fill-rule:evenodd"
           d="m 456.7638,139.0156 c 0.0492,0.0486 0.0954,0.0971 0.1417,0.1494 0.2532,-0.3898 0.4308,-0.7652 0.5399,-1.1406 0.1775,-0.579 0.1998,-1.1729 0.2189,-1.7504 0.0121,-0.3638 -0.0278,-0.8866 0.234,-1.1878 0.1219,-0.1585 0.3675,-0.2064 0.5511,-0.1458 -0.0924,-0.0537 -0.2047,-0.0735 -0.3237,-0.0442 h -6e-4 c -0.2479,0.0496 -0.4646,0.3297 -0.5316,0.6785 -0.0339,0.2617 -0.0531,0.5296 -0.0722,0.7873 -0.0381,0.5318 -0.0815,1.0834 -0.2499,1.6026 -0.1062,0.3436 -0.274,0.6884 -0.5076,1.051 z" />
        <path
           id="path4584"
           style="fill:#ffffff;fill-rule:evenodd"
           d="m 456.9624,139.2315 c 0.1151,0.14 0.2161,0.2885 0.3025,0.4475 0.4063,-0.5967 0.5074,-1.2589 0.8093,-1.9134 v -0.001 l 10e-4,-0.001 v 0 c 0.0753,-0.4309 0.0908,-0.8592 0.0908,-1.2456 0,-0.1218 -0.002,-0.2384 -0.004,-0.3502 0,-0.3844 -0.0599,-0.9279 0.4279,-1.056 -0.1636,-0.1543 -0.4822,-0.1608 -0.6259,0.0276 -0.2465,0.2808 -0.2044,0.8012 -0.2162,1.1371 -0.0204,0.5821 -0.0413,1.1838 -0.2231,1.7713 -0.1114,0.3899 -0.2969,0.7793 -0.5619,1.1838 z" />
        <path
           id="path4586"
           style="fill:#ffcb00;fill-rule:evenodd"
           d="m 457.3137,139.7736 c 0.0285,0.0544 0.0537,0.1103 0.0777,0.1671 0.0398,-0.0575 0.0772,-0.1157 0.1111,-0.1755 0.2928,-0.4918 0.4611,-1.0542 0.6018,-1.6064 0.0648,-0.2929 0.2818,-0.9376 0.7451,-0.7263 -0.462,-0.3465 -0.7742,0.501 -0.8434,0.7472 -0.1918,0.5481 -0.3639,1.1084 -0.6923,1.5939 z" />
        <path
           id="path4588"
           style="fill:#ffffff;fill-rule:evenodd"
           d="m 457.4283,140.034 c 0.0639,0.1697 0.1121,0.3461 0.1423,0.5302 0.3716,-0.4271 0.6666,-0.9916 0.8035,-1.5341 0.032,-0.121 0.0511,-0.2879 0.0712,-0.4602 0.0411,-0.3477 0.031,-0.9939 0.5252,-0.9109 -0.4001,-0.5823 -0.7109,0.208 -0.7843,0.5201 -0.1452,0.5581 -0.3144,1.1271 -0.613,1.6268 -0.0417,0.0773 -0.0897,0.1534 -0.1449,0.2281 z" />
        <path
           id="path4590"
           style="fill:#ffffff;fill-rule:evenodd"
           d="m 452.8595,143.1191 c -0.5621,-0.5183 -0.9147,-1.26 -0.9147,-2.085 0,-0.9865 0.5052,-1.8555 1.2708,-2.3623 0.1053,-0.4632 0.2269,-0.9281 0.3182,-1.394 -1.0161,-0.0756 -1.5903,-0.6408 -1.9914,-1.5512 -0.4566,-0.9222 -0.6996,-1.7817 -1.4475,-2.5693 -0.2036,-0.213 -0.7695,-0.6467 -0.7762,-0.651 l -0.0136,-0.0117 -10e-4,-0.0183 c 0,-0.002 -0.0106,-0.1666 -0.0414,-0.36 -0.031,-0.1865 -0.0454,-0.2882 -0.2268,-0.375 -0.1896,-0.0902 -0.3222,-0.0664 -0.4745,0.001 -0.1554,0.0665 -0.3351,0.3169 -0.339,0.3172 l -0.0137,0.0209 -0.0243,-0.004 c -10e-4,0 -0.2085,-0.031 -0.4432,-0.041 -0.5042,-0.0215 -1.0855,0.0432 -1.3896,0.4776 -0.1589,0.2294 -0.2995,0.2925 -0.572,0.3518 l -0.2074,0.0526 c -0.174,0.0593 -0.3144,0.2546 -0.4776,0.3576 -0.1066,0.0643 -0.3376,0.1773 -0.3376,0.3296 0,0.1053 0.0409,0.3441 0.1317,0.3923 0.0421,0.023 0.0903,0.0392 0.1093,0.005 0.0476,-0.0859 0.1269,-0.1779 0.1233,-0.2527 0.0559,0.1329 -0.0267,0.2433 -0.0789,0.3225 -0.0362,0.0549 -0.1216,0.0116 -0.1569,7e-4 0.006,0.066 0.023,0.1645 0.0751,0.2399 0.0568,0.0831 0.105,0.1528 0.1864,0.1894 v 6e-4 c 0.0108,0.1398 0.1067,0.2056 0.2062,0.2784 -0.0131,-0.0623 -0.0506,-0.1726 -0.0322,-0.2308 0.003,-0.009 0.004,-0.0191 0.008,-0.0283 0.012,-0.002 0.0247,-0.004 0.0373,-0.006 0.022,0.0564 0.074,0.0867 0.1265,0.0731 0.0604,-0.0167 0.096,-0.063 0.096,-0.1306 v -0.007 c 0,-0.008 0,-0.0178 -0.003,-0.0274 l 0.0211,-0.0115 c 0.0178,0.0612 0.0608,0.0977 0.1142,0.0977 0.0672,0 0.1193,-0.0542 0.1193,-0.126 v -0.006 c 0,-0.0141 0,-0.0294 -0.002,-0.0449 0.005,-4e-4 0.009,-0.001 0.0158,-0.002 0.4295,-0.0233 0.6506,0.4604 0.2226,0.6776 -0.1017,0.0519 -0.2041,0.0246 -0.298,0.0269 -0.0637,10e-4 -0.1215,0.0314 -0.1866,0.0475 l -0.2197,-0.1674 0.0671,0.2315 c -0.0194,0.0111 -0.0482,0.025 -0.0482,0.0515 -4e-4,0.0167 0.0108,0.0614 0.1184,0.1445 0.0549,0.0424 0.0888,0.0845 0.1171,0.1227 0.0388,0.0531 0.0718,0.0952 0.1561,0.1377 0.1829,0.0919 0.3388,0.0418 0.5344,-0.0199 0.1423,-0.0438 0.2426,-0.1085 0.3559,-0.2067 0.0997,-0.0851 0.1957,-0.1657 0.2996,-0.1637 0.3202,0.009 0.647,0.227 0.9002,0.6009 0.1623,0.2418 0.2906,0.4309 0.4158,1.1319 0.1834,1.0097 0.1543,1.3656 0.1163,1.8172 -0.0291,0.3497 -0.0627,0.7462 -0.004,1.5458 0.1076,1.4685 0.5594,2.2185 1.951,2.7908 -0.3558,-1.3949 0.2554,-2.1692 0.6298,-2.5506 -0.743,0.8459 -0.5776,2.3697 -0.4168,2.8021 0.002,0.0212 0.0516,0.5356 -0.0108,0.7763 -0.0385,0.1472 -0.2836,0.9552 -0.5191,1.7387 l -0.3859,1.2834 c -0.1676,0.5634 -0.3348,1.0431 -0.6785,1.1923 -0.2041,0.0876 -0.4509,0.055 -0.7552,-0.0973 -0.3269,-0.1648 -0.4587,-0.1554 -0.4595,-0.1554 -0.5655,-0.1426 -1.3301,0.1149 -1.3935,0.756 0.0832,-0.0443 0.2261,0.0517 0.2196,0.0826 0.1783,-0.6201 0.7276,-0.4708 0.7955,-0.4406 -0.1663,0.0342 -0.5976,-0.0819 -0.7107,0.5006 0.1471,0.0412 0.1915,0.0864 0.2242,0.2205 0.1465,-0.3903 0.6074,-0.3238 0.8487,-0.2495 -0.2552,-0.0133 -0.6698,-0.009 -0.8047,0.3588 0.1053,0.0277 0.2305,0.0767 0.2614,0.214 0.3807,0.0301 0.6353,0.2195 1.0484,0.116 0.1223,-0.0334 0.2504,-0.0658 0.3823,-0.0841 0.5214,-0.0568 1.0498,-0.0806 1.4348,-0.5016 0.4126,-0.4502 0.3722,-0.6028 0.3713,-0.6033 l 0.0759,-0.0351 c 0.003,0.004 0.077,0.126 0.367,0.0702 0.1584,-0.0285 0.2334,-0.0768 0.2698,-0.1133 -0.0771,0 -0.1902,-0.022 -0.2912,-0.1239 -0.0563,-0.0554 -0.0782,-0.1385 -0.0782,-0.2322 0,-0.2628 0.1678,-0.6078 0.1936,-0.6571 0.0519,-0.1054 0.2905,-0.5227 0.5658,-1.0077 0.384,-0.6718 0.8169,-1.4331 0.8835,-1.5814 l 0.0274,-0.0651 c 0.1055,-0.2351 0.2372,-0.5274 0.2551,-1.0296 0.0106,-0.2701 0.0824,-0.4503 0.1561,-0.5649 z m -5.8574,-10.1932 c 0,-0.0204 0.006,-0.0414 0.0133,-0.0604 -9e-4,0.011 -0.007,0.0178 -0.007,0.0264 0,0.0855 0.0751,0.1527 0.1687,0.1527 0.0588,0 0.1076,-0.0288 0.1371,-0.0702 -0.0201,0.0654 -0.0793,0.1137 -0.1501,0.1137 -0.0896,0 -0.1618,-0.0739 -0.1618,-0.1622 z m 0.4267,10e-4 c 0.0221,0.0271 0.0359,0.0556 0.0359,0.086 0,0.1087 -0.1337,0.197 -0.2977,0.197 -0.1649,0 -0.2972,-0.0883 -0.2972,-0.197 0,-0.0289 0.0106,-0.0547 0.0289,-0.0807 0.003,0.1434 0.1199,0.2598 0.2652,0.2598 0.1459,0 0.2649,-0.1186 0.2649,-0.2651 z m -0.6635,0.0675 c 0.0135,-0.1594 0.1857,-0.2815 0.4017,-0.2815 0.147,0 0.2802,0.0596 0.3513,0.1566 0.009,0.005 0.2984,0.1388 0.2984,0.1388 l -0.0204,0.0556 c -0.0576,-0.0142 -0.1559,-0.0288 -0.1845,-0.0125 l -0.0642,0.0565 0.006,-0.01 c -0.0491,0.1275 -0.208,0.2175 -0.3866,0.2175 -0.0611,0 -0.1186,-0.013 -0.1714,-0.0319 -0.009,-0.001 -0.1891,-0.0309 -0.1891,-0.0309 l -0.182,-0.005 -0.0581,-0.1285 0.0342,-0.008 c 0.001,0 0.0712,-0.0188 0.1165,-0.0588 0.0174,-0.0127 0.0329,-0.0347 0.0482,-0.058 z m 1.7649,-1.0546 c 0.1492,-0.2034 0.4623,-0.1397 0.5378,0.0784 0.0546,0.1585 0.0896,0.4745 -0.0159,0.5615 -0.1275,-0.0159 -0.3299,-0.0334 -0.4247,0.0239 0.1388,-0.2166 0.4063,0.0569 0.3421,-0.4371 -0.0261,-0.2046 -0.2444,-0.3564 -0.4393,-0.2267 z m 0.8182,1.842 c 0.1817,0.4431 -0.0486,1.1639 -0.4858,1.3746 -0.1589,0.0747 -0.7864,0.1452 -1.1921,-0.0911 0.2656,0.0608 0.9187,0.1328 1.1632,-0.0102 0.4371,-0.2078 0.5784,-0.8265 0.5147,-1.2733 z" />
        <path
           id="path4592"
           style="fill:#ffffff;fill-rule:evenodd"
           d="m 443.0222,142.2312 c 7e-4,0.1658 0.0608,0.6439 0.3229,0.8218 -0.0142,-0.0896 0.1498,-0.2269 0.2231,-0.1994 0.0233,-0.0337 -0.0157,-0.0528 -0.0133,-0.0829 -0.1638,-0.287 -0.1594,-0.493 -0.0605,-0.7748 -0.044,0.1947 -0.0232,0.4839 0.143,0.7791 0.0296,-0.088 0.1101,-0.2323 0.2551,-0.1712 0.1193,-0.21 0.006,-0.6636 0.0332,-0.7929 0.0977,-0.4526 0.6317,-0.5256 1.0158,-0.4824 l 0.0427,0.082 c 0,0 -0.0923,0.0715 -0.0923,0.2888 0,0.2135 0.083,0.2561 0.083,0.2561 0,0 0.0296,-0.2881 0.2775,-0.3508 0.2457,-0.0618 0.5233,0.0947 0.6466,0.1446 0.1235,0.0514 1.7361,0.9662 2.5174,1.326 0.3319,0.1527 1.0092,0.362 1.596,-0.009 -1.0169,-0.3603 -1.5791,-1.1393 -1.7267,-2.3035 -0.2082,0.006 -0.5392,0.003 -0.8352,-0.0622 -0.4726,-0.1027 -1.4998,-0.3911 -2.3218,-0.4008 -0.8229,-0.0102 -1.2642,0.1032 -1.6029,0.3087 -0.3399,0.2064 -0.9471,0.8365 -1.0393,1.5255 -0.0318,0.2337 0.139,1.1727 0.5895,1.1313 0.0422,-0.1112 0.0814,-0.1779 0.1713,-0.1833 -0.2245,-0.2828 -0.3163,-0.6064 -0.2251,-0.8508 z" />
        <path
           id="path4594"
           style="fill:#ffffff;fill-rule:evenodd"
           d="m 454.2429,143.8162 c -0.498,-0.0948 -0.9511,-0.3209 -1.3197,-0.6395 -0.0644,0.1038 -0.1274,0.2665 -0.1364,0.5098 -0.002,0.0734 -0.008,0.1411 -0.0146,0.2074 0.4455,0.0146 0.9508,-0.006 1.4707,-0.0777 z" />
        <path
           id="path4596"
           style="fill:#ffcb00;fill-rule:evenodd"
           d="m 453.0614,141.1617 c 0.0285,0.391 0.1874,0.7423 0.4329,1.015 -0.0928,-0.1339 -0.1051,-0.3159 0.0545,-0.4767 0.0942,-0.0945 0.7927,-0.5668 0.9625,-0.3986 0.1611,0.1601 -0.2906,0.8527 -0.3998,0.9617 -0.1512,0.153 -0.3616,0.1302 -0.509,0.0234 0.2819,0.2625 0.6523,0.4318 1.0599,0.4626 -0.1549,-0.0406 -0.2845,-0.1654 -0.2845,-0.3746 0,-0.1285 0.1618,-0.9638 0.3996,-0.9638 0.2388,0 0.3982,0.8367 0.3982,0.9638 0,0.2096 -0.1299,0.3344 -0.2846,0.3748 0.3829,-0.0285 0.7321,-0.1773 1.0064,-0.411 -0.1363,0.072 -0.3102,0.0691 -0.4551,-0.0752 -0.0901,-0.0908 -0.5685,-0.7951 -0.3996,-0.9617 0.1705,-0.1682 0.8737,0.3082 0.964,0.3986 0.1461,0.1458 0.1476,0.3211 0.0732,0.4579 0.2341,-0.2687 0.3852,-0.6112 0.4137,-0.992 -0.0456,0.1478 -0.1712,0.269 -0.3766,0.269 -0.13,0 -0.9637,-0.1617 -0.9637,-0.4007 0,-0.2384 0.8375,-0.3982 0.9637,-0.3982 0.2057,0 0.3312,0.1209 0.3766,0.2687 -0.0282,-0.3757 -0.1784,-0.7184 -0.4108,-0.9888 0.0251,0.0512 0.0394,0.1093 0.0394,0.1722 0,0.1061 -0.0411,0.2063 -0.1155,0.2822 -0.1133,0.1137 -0.7967,0.5665 -0.964,0.3983 -0.1675,-0.1679 0.3095,-0.8722 0.3996,-0.963 0.1361,-0.1346 0.3172,-0.1437 0.4582,-0.0725 -0.2717,-0.2346 -0.6172,-0.3862 -0.9954,-0.4141 0.1485,0.045 0.2705,0.1711 0.2705,0.3779 0,0.1249 -0.1594,0.9618 -0.3982,0.9618 -0.2371,0 -0.3996,-0.8016 -0.3996,-0.9618 0,-0.2068 0.1221,-0.3328 0.2708,-0.3778 -0.3853,0.0287 -0.7359,0.1853 -1.0095,0.4272 0.1349,-0.0891 0.3159,-0.0979 0.4723,0.0593 0.0877,0.088 0.5696,0.7939 0.3998,0.963 -0.1686,0.1699 -0.8728,-0.3093 -0.9625,-0.3983 -0.1533,-0.1549 -0.1336,-0.36 -0.0307,-0.5059 -0.2594,0.2787 -0.4278,0.6431 -0.4568,1.0452 0.0442,-0.15 0.1703,-0.2736 0.3782,-0.2736 0.1256,0 0.9612,0.1597 0.9612,0.3982 0,0.239 -0.831,0.4007 -0.9612,0.4007 -0.2077,0 -0.3337,-0.1235 -0.3781,-0.2732 z m 1.4282,-0.1275 c 0,-0.1578 0.1287,-0.2879 0.2879,-0.2879 0.1596,0 0.2877,0.1301 0.2877,0.2879 0,0.1598 -0.1281,0.2896 -0.2877,0.2896 -0.1592,0 -0.2879,-0.1298 -0.2879,-0.2896 z" />
        <path
           id="path4598"
           style="fill:#ffffff;fill-rule:evenodd"
           d="m 455.4988,142.2068 c 0.2981,0.2967 0.749,-0.1537 0.4517,-0.4505 -0.0902,-0.0904 -0.7438,-0.5047 -0.8518,-0.3982 -0.1058,0.1044 0.312,0.7601 0.4001,0.8487 z m -0.2658,-1.1726 c 0,0.1513 0.7569,0.321 0.8841,0.321 0.4228,0 0.4235,-0.6396 0,-0.6396 -0.1261,0 -0.8841,0.1689 -0.8841,0.3186 z m 0.2658,-1.1723 c -0.0888,0.0892 -0.5049,0.7449 -0.3995,0.8505 0.1108,0.1115 0.7583,-0.3052 0.8508,-0.398 0.0597,-0.061 0.0926,-0.1409 0.0926,-0.2263 0,-0.278 -0.341,-0.427 -0.5439,-0.2262 z m -1.0413,-0.165 c 0,0.1313 0.1628,0.8822 0.32,0.8822 0.1498,0 0.3186,-0.7561 0.3186,-0.8822 0,-0.4242 -0.6386,-0.4238 -0.6386,0 z m -0.8526,0.6169 c 0.0895,0.0889 0.744,0.5055 0.8501,0.3985 0.1065,-0.106 -0.3109,-0.7612 -0.3999,-0.8505 -0.3063,-0.3075 -0.7198,0.1796 -0.4502,0.452 z m 0.7162,0.7204 c 0,-0.1497 -0.7556,-0.3186 -0.8816,-0.3186 -0.4236,0 -0.4236,0.6396 0,0.6396 0.1272,0 0.8816,-0.1696 0.8816,-0.321 z m 0.1342,0.3238 c -0.1083,-0.1073 -0.7596,0.3074 -0.8501,0.3982 -0.3106,0.3132 0.1915,0.7123 0.45,0.4506 0.0892,-0.089 0.5039,-0.7458 0.4001,-0.8488 z m 0.6408,1.0165 c 0,-0.1265 -0.1684,-0.8842 -0.3186,-0.8842 -0.1498,0 -0.32,0.7577 -0.32,0.8842 0,0.4137 0.6386,0.4146 0.6386,0 z m -0.5269,-1.3403 c 0,0.1154 0.0925,0.21 0.2083,0.21 0.1161,0 0.2081,-0.0945 0.2081,-0.21 0,-0.1146 -0.0933,-0.2083 -0.2081,-0.2083 -0.1146,0 -0.2083,0.0938 -0.2083,0.2083 z" />
      </g>
    </g>
  </g>
</svg>
