<?xml version="1.0" encoding="UTF-8" standalone="no"?>
<!-- Created with Inkscape (http://www.inkscape.org/) -->

<svg
   xmlns:dc="http://purl.org/dc/elements/1.1/"
   xmlns:cc="http://creativecommons.org/ns#"
   xmlns:rdf="http://www.w3.org/1999/02/22-rdf-syntax-ns#"
   xmlns:svg="http://www.w3.org/2000/svg"
   xmlns="http://www.w3.org/2000/svg"
   version="1.1"
   width="980.29749"
   height="972.0495"
   viewBox="0 0 784.23802 777.63956"
   id="svg2"
   style="fill-rule:evenodd">
  <metadata
     id="metadata104">
    <rdf:RDF>
      <cc:Work
         rdf:about="">
        <dc:format>image/svg+xml</dc:format>
        <dc:type
           rdf:resource="http://purl.org/dc/dcmitype/StillImage" />
        <dc:title></dc:title>
      </cc:Work>
    </rdf:RDF>
  </metadata>
  <defs
     id="defs102" />
  <g
     transform="translate(94.429348,-32.128426)"
     id="g4">
    <g
       id="g6">
      <g
         id="g8">
        <path
           d="M 24.1186,524.949 C 5.81442,692.308 150.955,815.488 299.567,727.57 448.181,815.488 593.274,691.812 573.915,525.445 685.646,401.441 642.442,215.613 469.646,199.324 384.95,53.8157 196.838,39.886 128.97,199.734 -43.5416,216.242 -88.7647,400.945 24.1186,524.949 z"
           id="path10"
           style="fill:#61afe3;stroke:none" />
        <path
           d="M 23.1625,523.99 C 4.8583,691.349 149.564,816.305 298.176,728.387 446.79,816.305 594.871,690.874 575.511,524.507 687.243,400.503 642.442,215.613 469.646,199.324 384.95,53.8163 196.838,39.8863 128.97,199.734 -45.0111,215.718 -91.9398,399.194 23.1625,523.99 z"
           id="path12"
           style="fill:none;stroke:#61afe3;stroke-width:6.3997798" />
        <path
           d="m 191.079,502.289 c 25.789,3.215 43.34,-12.117 58.918,-31.875 l 38.637,0 1.933,30.91 69.547,0 -0.968,-20.285 15.457,-1.934 c 3.632,5.836 9.261,5.699 15.453,3.863 l 44.433,0 -3.863,4.833 -29.945,0.964 -10.625,10.625 c -6.813,5.137 -11.278,9.961 0.965,12.559 13.847,3.875 27.691,2.496 41.535,0 l 33.808,-19.32 14.489,-22.215 c -0.649,-7.793 -13.309,-17.172 -28.977,-15.457 l -40.57,1.933 c 5.133,-9.504 13.039,-18.312 13.523,-28.976 l 0.965,-19.321 c 28.121,2.286 50.426,-4.566 69.547,-16.417 8.004,2.757 15.781,4.839 21.25,0 12.07,-4.223 12.691,-12.532 6.762,-23.184 -6.098,-1.32 -10.321,-5.766 -12.559,-13.524 -0.734,-4.199 -16.398,-0.417 -23.18,-7.726 l -15.457,-7.727 -1.929,-12.558 -11.59,6.761 -2.899,-11.589 -20.285,15.453 c -12.816,0.351 -26.769,-0.602 -30.91,9.66 l -20.285,10.625 -18.352,15.453 c -5.152,1.52 -10.301,5.102 -15.453,-1.93 l -9.66,-7.726 -1.93,-30.91 c 7.887,-2.067 10.239,-6.012 6.762,-20.286 l 3.863,-21.25 c -13.894,5.321 -19.062,-3.07 -24.148,-11.589 0.469,-9.016 -7.531,-6.453 -10.625,-0.969 l 1.93,11.594 c -5.454,1.297 -13.563,1.265 -6.762,8.691 1.289,6.297 3.199,13.078 -6.762,10.625 -7.586,-2.199 -16.062,-8.832 -21.25,0.969 -2.367,3.687 -2.43,6.605 2.899,7.726 3.543,3.219 3.218,5.793 -0.965,7.727 -1.453,9.18 5.133,10.32 12.554,10.625 7.942,-4.285 15.832,-8.481 21.254,-7.727 -8.375,7.996 -16.746,23.024 -25.117,35.739 l 4.832,22.214 c -6.605,0.458 -14.598,-0.671 -12.558,9.661 2.546,7.695 -3.368,6.933 -9.661,5.797 -16.097,-2.637 -32.195,-5.473 -48.293,1.929 -12.558,11.055 -22.218,11.781 -34.773,4.832 l -43.469,-2.898 c -11.264,8.586 -23.504,3.633 -35.254,2.898 l -42.0186,-0.969 c 0.5621,25.2 23.0119,28.508 40.5696,36.708 19.521,1.121 38.109,-1.465 55.059,-10.625 l 25.113,-4.833 c 8.047,0.969 9.017,3.864 2.899,8.696 l -6.761,15.453 c -6.942,10.793 -14.009,20.601 -22.219,21.25 -8.047,-1.93 -13.521,0.644 -16.418,7.726 l -10.626,16.422 c -4.187,5.153 -9.016,5.797 -14.488,1.934 -2.718,2.652 -6.649,0.457 -10.625,-1.934 l -11.593,14.489 c -5.9413,8.125 2.366,9.121 11.593,9.66 13.137,1.105 27.48,5.82 35.739,-7.727 -5.023,6.321 -12.591,13.664 0.964,12.555 34.829,5.836 31.832,-14.121 40.57,-26.078 z"
           id="path14"
           style="fill:#fcc900;stroke:none" />
        <path
           d="m 149.791,714.015 -55.3244,-61.472 0,-67.617 34.8364,0 c 14.719,-4.965 2.375,-7.672 -3.415,-10.926 -51.3785,2.422 -73.3595,-14.055 -73.7657,-44.399 l 38.9302,0.684 c -7.8009,30.492 22.3975,29.687 43.7155,36.199 22.945,-0.375 51.042,14.074 0,36.199 l 0.678,12.297 c 82.489,-48.008 237.84,-50.512 328.528,1.363 l 0,-13.66 c -51.043,-22.125 -22.946,-36.574 0,-36.199 21.316,-6.512 51.515,-5.707 43.711,-36.199 l 38.933,-0.684 c -0.406,30.344 -22.387,46.821 -73.765,44.399 -5.789,3.254 -18.137,5.961 -3.414,10.926 l 34.832,0 0,67.617 -55.325,61.472 c -82.328,-50.394 -205.675,-60.121 -299.155,0 z"
           id="path16"
           style="fill:#ffffff;stroke:none" />
        <path
           d="m 146.709,635.558 50.453,-18.539 3.922,10.672 -18.148,6.668 16.19,44.07 -14.117,5.188 -16.191,-44.07 -18.187,6.683 -3.922,-10.672 m 100.315,20.825 c 3.114,-0.481 5.278,-1.407 6.485,-2.782 1.301,-1.492 1.762,-3.433 1.394,-5.828 -0.363,-2.34 -1.386,-4.015 -3.07,-5.019 -1.543,-0.946 -3.887,-1.176 -7.023,-0.692 l -8.727,1.352 2.215,14.32 8.726,-1.351 m 22.668,-11.372 c 0.95,6.125 -0.246,10.844 -3.582,14.153 -3.675,3.652 -9.156,6.039 -16.441,7.168 l -24.668,3.816 -8.914,-57.637 14.863,-2.296 3.395,21.964 9.808,-1.519 c 7.282,-1.125 13.227,-0.504 17.836,1.867 4.18,2.145 6.746,6.309 7.703,12.484 m 15.586,-40.175 15.039,-0.055 0.211,58.32 -15.039,0.055 -0.211,-58.32 m 57.797,25.777 c 2.352,0.297 4.199,0.008 5.547,-0.871 1.344,-0.879 2.145,-2.324 2.402,-4.34 0.25,-1.988 -0.164,-3.578 -1.246,-4.766 -1.078,-1.214 -2.793,-1.972 -5.144,-2.269 l -8.254,-1.051 -1.559,12.246 8.254,1.051 m -2.715,25.367 c 2.996,0.379 5.325,0.035 6.985,-1.043 1.683,-1.07 2.691,-2.886 3.015,-5.441 0.321,-2.508 -0.191,-4.477 -1.531,-5.906 -1.34,-1.457 -3.519,-2.375 -6.539,-2.762 l -8.758,-1.113 -1.929,15.152 8.757,1.113 m 16.52,-19.043 c 3.086,1.336 5.348,3.367 6.785,6.098 1.438,2.73 1.926,5.914 1.461,9.558 -0.707,5.579 -3.125,9.5 -7.242,11.758 -4.121,2.258 -10.031,2.899 -17.731,1.918 l -24.761,-3.148 7.359,-57.856 22.398,2.852 c 8.036,1.019 13.692,2.973 16.973,5.859 3.309,2.887 4.625,7.008 3.942,12.356 -0.356,2.812 -1.321,5.133 -2.891,6.953 -1.567,1.797 -3.664,3.012 -6.293,3.652 m 55.746,34.352 -22.668,-6.25 -6.402,9.258 -14.575,-4.016 36.325,-50.484 17.285,4.765 5.324,61.965 -14.57,-4.019 -0.719,-11.219 m -16.18,-15.684 15.403,4.246 -1.516,-24.484 -13.887,20.238 z"
           id="path18"
           style="fill:#ffc900;stroke:none" />
        <path
           d="m 536.075,192.539 c 0,31.695 -25.57,57.418 -57.074,57.418 -31.508,0 -57.074,-25.723 -57.074,-57.418 0,-31.696 25.566,-57.418 57.074,-57.418 l 2.047,56.394 55.027,1.024 z"
           id="path20"
           style="fill:#fcc900;stroke:none" />
        <path
           d="m 339.665,121.847 116.113,60.789 m -128.06,-28.893 126.693,33.675 m -112.025,-4.796 107.928,8.893 0.683,0 m -108.887,14.32 110.254,-6.808 m -124.308,38.934 116.109,-32.786 m -99.197,54.191 105.346,-46.679 m -82.645,68.301 90.84,-70.348 m -50.169,69.728 57.001,-64.947 m -38.043,76.892 42.824,-72.11 m -21.855,79.91 25.269,-75.133 m -1.367,80.598 3.418,-73.766 m 95.546,52.089 -60.03,-63.019 m 81.111,50.563 -72.916,-52.609 m 41.645,87.306 -55.305,-79.795 m 31.418,93.574 -37.567,-89.476 m 14.344,88.109 -21.855,-85.375 m -0.684,88.789 -7.512,-88.789"
           id="path22"
           style="fill:none;stroke:#fcc900;stroke-width:8.21735001;stroke-linecap:round" />
        <path
           d="M 110.462,174.753 C 171.42,45.5392 355.021,-5.09387 494.064,175.011 637.423,195.589 730.501,366.773 604.747,534.035 606.661,741.007 443.228,826.312 298.31,760.32 150.509,829.191 -5.54967,744.16 -5.88161,534.035 -146.847,357.859 -23.9165,185.5 110.462,174.753 z"
           id="path24"
           style="fill:none;stroke:#ffc900;stroke-width:51.99990082" />
        <path
           d="M 110.462,174.753 C 171.42,45.5392 355.021,-5.09387 494.064,175.011 637.423,195.589 730.501,366.773 604.747,534.035 606.661,741.007 443.228,826.312 298.31,760.32 150.509,829.191 -5.54967,744.16 -5.88161,534.035 -146.847,357.859 -23.9165,185.5 110.462,174.753 z"
           id="path26"
           style="fill:none;stroke:#ffffff;stroke-width:16.79980087" />
        <path
           d="m 190.735,416.698 c -13.698,-1.054 -27.397,-2.107 -41.096,-3.161 -8.891,4.478 -17.237,4.811 -25.487,2.37 -7.583,-2.243 -13.118,-1.84 -16.399,-1.778 -10.6055,0.202 -21.2057,-0.658 -31.809,-0.988 10.8662,3.952 21.6017,5.804 32.205,5.533 7.375,-0.189 12.57,0.257 15.015,2.173 8.706,6.819 18.089,4.298 28.253,-2.173 13.106,-0.659 26.212,-1.318 39.318,-1.976 z"
           id="path28"
           style="fill:#ffffff;stroke:none" />
        <path
           d="m 114.993,502.775 c -9.535,10.095 -13.021,15.784 -10.456,17.066 3.157,0.362 6.313,0.723 9.47,1.085 2.17,-6.116 5.261,-11.048 9.273,-14.797 -3.288,-0.066 -6.051,-1.184 -8.287,-3.354 z"
           id="path30"
           style="fill:#ffffff;stroke:none" />
        <path
           d="m 155.606,514.252 c -10.8,8.341 -11.186,11.149 -7.961,12.1 2.753,0.811 3.907,0.379 5.058,-0.048 3.551,-3.782 6.089,-6.825 9.641,-10.606 -3.683,-0.129 -6.738,-0.196 -6.738,-1.446 z"
           id="path32"
           style="fill:#ffffff;stroke:none" />
        <path
           d="m 249.412,458.486 c -21.851,29.781 -41.875,47.966 -77.249,36.649 -6.29,-7.359 -14.805,3.134 -17.218,8.923 -6.223,14.926 -16.414,22.082 -33.047,17.361 16.836,2.072 25.315,-3.1 30.085,-17.559 5.009,-15.181 19.034,-22.894 23.188,-14.703 26.943,10.944 50.899,-12.973 74.241,-30.671 z"
           id="path34"
           style="fill:#ffffff;stroke:none" />
        <path
           d="m 172.4,497.444 c 3.725,8.022 1.748,14.123 -9.269,17.413 6.083,-5.393 8.316,-11.494 9.269,-17.413 z"
           id="path36"
           style="fill:#ffffff;stroke:none" />
        <path
           d="m 409.352,459.693 c 36.813,-3.358 52.16,-2.898 49.591,-0.988 -4.281,-0.066 -18.641,2.237 -49.591,0.988 z"
           id="path38"
           style="fill:#ffffff;stroke:none" />
        <path
           d="m 409.154,463.816 c 42.412,-1.514 48.265,1.75 55.428,6.917 -3.952,6.125 0.584,11.757 -3.367,17.882 -10.406,5.664 -20.243,12.021 -30.648,17.685 -16.09,2.307 -20.471,0.54 -28.996,-1.044 l 10.25,-13.875 c -3.556,0.132 -7.113,0.264 -10.669,0.395 -4.808,5.006 -9.615,10.011 -14.423,15.016 10.274,5.4 25.29,6.059 45.047,1.976 10.735,-6.059 21.47,-12.119 32.205,-18.177 4.412,-7.113 8.825,-14.226 13.237,-21.338 -3.359,-8.299 -25.981,-8.73 -68.064,-5.437 z"
           id="path40"
           style="fill:#ffffff;stroke:none" />
        <path
           d="m 377.245,473.402 c 2.652,7.406 8.151,8.196 15.806,3.754 -5.268,-0.27 -10.537,-1.521 -15.806,-3.754 z"
           id="path42"
           style="fill:#ffffff;stroke:none" />
        <path
           d="m 393.447,467.474 c 21.685,-19.55 30.477,-38.925 26.87,-57.691 -3.429,-2.007 -5.996,-1.733 -6.616,0.918 -3.792,16.201 -7.124,39.794 -20.254,56.773 z"
           id="path44"
           style="fill:#ffffff;stroke:none" />
        <path
           d="m 470.062,340.297 c -0.23,-5.59 -0.503,-6.666 -1.128,-9.362 l -10.965,6.955 -3.141,-11.296 c -5.557,4.176 -11.114,8.352 -16.671,12.528 10.883,-0.954 21.218,-0.239 31.905,1.175 z"
           id="path46"
           style="fill:#ffffff;stroke:none" />
        <path
           d="m 397.879,394.585 c 1.037,0.667 0.725,1.585 -0.935,2.757 41.366,11.865 73.045,8.024 94.904,-13.05 0.338,-1.263 0.319,-2.19 -0.057,-2.782 -24.508,16.223 -55.812,20.581 -93.912,13.075 z"
           id="path48"
           style="fill:#ffffff;stroke:none" />
        <path
           d="m 492.085,382.886 c 2.652,-8.931 10.371,-16.202 18.619,-25.167 -2.534,-0.583 -9.815,-3.803 -10.993,-3.344 -6.791,9.891 -8.124,20.434 -10.313,28.667 0.976,0.651 1.872,0.599 2.687,-0.156 z"
           id="path50"
           style="fill:#ffffff;stroke:none" />
        <path
           d="m 497.987,373.988 c 10.406,1.795 16.644,3.988 25.794,6.664 -0.329,0.986 -1.348,4.242 -1.677,5.228 l -25.438,-7.083 1.321,-4.809 z"
           id="path52"
           style="fill:#ffffff;stroke:none" />
        <path
           d="m 429.208,394.372 c 14.291,-6.718 22.392,-11.13 33.785,-13.633 2.371,2.7 10.801,1.91 22.128,2.766 -12.447,-3.424 -22.49,-7.735 -23.609,-9.579 -18.441,5.07 -24.928,14.584 -32.304,20.446 z"
           id="path54"
           style="fill:#ffffff;stroke:none" />
        <path
           d="m 470.698,352.684 c 5.664,-2.635 9.221,-1.581 10.669,3.161 -2.797,2.676 -8.286,2.816 -10.669,-3.161 z"
           id="path56"
           style="fill:#ffffff;stroke:none" />
        <path
           d="m 371.713,374.812 c 0.791,-1.91 5.796,-6.06 15.016,-12.447 6.981,-3.952 13.962,-7.903 20.943,-11.855 2.437,-6.52 11.328,-9.484 26.673,-8.891 -9.418,11.262 -10.574,20.743 -7.61,24.892 -14.752,13.567 -29.995,18.772 -41.586,19.168 21.93,-9.287 32.929,-17.124 32.994,-23.512 -0.394,-6.389 3.689,-12.645 12.25,-18.77 -10.669,0.527 -16.63,5.498 -18.869,12.347 -11.657,1.909 -25.256,7.411 -39.811,19.068 z"
           id="path58"
           style="fill:#ffffff;stroke:none" />
        <path
           d="m 376.996,375.029 c -5.327,3.485 -8.418,7.102 -9.272,10.851 8.713,0.855 16.177,-1.315 22.392,-6.511 -9.963,4.144 -13.555,4.252 -16.811,3.397 0.263,-1.644 -0.518,-3.199 3.691,-7.737 z"
           id="path60"
           style="fill:#ffffff;stroke:none" />
        <path
           d="m 353.992,459.144 2.706,38.559 -62.236,0.198 -10.274,-83.377 7.934,-1.923 5.476,82.266 55.395,-0.224 -5.976,-34.304 6.975,-1.195 z"
           id="path62"
           style="fill:#ffffff;stroke:none" />
        <path
           d="m 283.2,409.387 c -26.08,-6.65 -44.381,-7.765 -54.654,-1.509 -3.945,6.892 -17.79,13.562 -25.759,10.005 8.496,5.137 21.044,6.918 31.019,-2.568 6.179,-5.877 20.416,-10.472 49.394,-5.928 z"
           id="path64"
           style="fill:#ffffff;stroke:none" />
        <path
           d="m 113.778,442.183 c 18.331,1.663 35.256,-2.42 50.776,-12.249 -14.153,5.016 -39.721,4.611 -55.79,7.257 -1.802,0.297 3.815,3.416 5.014,4.992 z"
           id="path66"
           style="fill:#ffffff;stroke:none" />
        <path
           d="m 490.333,370.614 c -17.262,-4.998 -27.719,-5.985 -30.382,-6.511 9.634,3.946 19.268,7.892 28.903,11.838 0.329,-1.184 1.151,-4.144 1.479,-5.327 z"
           id="path68"
           style="fill:#ffffff;stroke:none" />
        <path
           d="m 312.99,307.423 c 16.47,7.927 27.31,4.736 30.269,1.316 0.79,-1.808 1.053,-3.025 0.79,-3.65 -4.406,3.518 -13.238,4.472 -31.059,2.334 z"
           id="path70"
           style="fill:#ffffff;stroke:none" />
        <path
           d="m 317.907,278.531 c 4.376,-4.036 6.106,-3.256 5.19,2.34 1.255,3.271 4.523,7.43 9.805,12.478 -8.787,-3.83 -15.196,-7.774 -14.995,-14.818 z"
           id="path72"
           style="fill:#ffffff;stroke:none" />
        <path
           d="m 308.349,314.805 c -17.296,-8.943 -22.886,-6.806 -23.872,2.269 2.696,-5.393 13.811,-4.768 23.872,-2.269 z"
           id="path74"
           style="fill:#ffffff;stroke:none" />
        <path
           d="m 295.054,392.198 c 1.151,16.131 0.616,31.277 31.414,34.576 0.532,-1.842 1.334,-3.264 -0.162,-4.021 -17.652,-8.935 -25.961,-17.371 -31.252,-30.555 z"
           id="path76"
           style="fill:#ffffff;stroke:none" />
        <path
           d="m 304.34,469.055 c 14.357,-10.875 23.252,-25.507 18.633,-39.087 -0.568,-1.668 -5.128,-0.891 -5.988,-2.601 1.054,16.135 -3.161,30.031 -12.645,41.688 z"
           id="path78"
           style="fill:#ffffff;stroke:none" />
        <path
           d="m 340.496,392.989 c 21.273,16.464 29.742,26.331 29.676,27.516 l -11.431,2.429 -18.245,-29.945 z"
           id="path80"
           style="fill:#ffffff;stroke:none" />
        <path
           d="m 358.741,422.934 c -8.322,13.266 -11.502,26.137 -19.825,39.403 15.037,-13.09 26.839,-27.365 31.256,-41.832 -1.942,-0.996 -10.566,0.407 -11.431,2.429 z"
           id="path82"
           style="fill:#ffffff;stroke:none" />
        <path
           d="m 308.635,471.11 c -1.019,4.833 -3.716,11.476 -6.905,18.743 3.781,0.295 7.562,0.592 11.344,0.887 1.623,0.403 10.003,-0.185 15.991,1.095 8.149,1.742 18.578,-1.847 10.446,-11.551 -3.757,-0.817 -9.289,-1.93 -13.045,-2.748 l 2.391,-6.919 c -5.097,3.584 -9.412,7.033 -8.853,8.908 4.143,1.447 10.333,2.173 14.476,3.62 1.71,2.828 1.841,4.998 0.395,6.51 -5.294,-2.532 -12.364,-2.893 -21.209,-1.085 -2.598,-0.362 -5.195,-0.723 -7.793,-1.085 4.795,-5.989 6.713,-11.57 2.762,-16.375 z"
           id="path84"
           style="fill:#ffffff;stroke:none" />
        <path
           d="m 326.518,364.19 -4.791,-11.111 -1.456,13.321 6.247,-2.21 z"
           id="path86"
           style="fill:#ffffff;stroke:none" />
        <path
           d="m 320.271,366.4 c 6.249,4.553 12.497,9.106 18.746,13.66 l -12.499,-15.87 c -0.466,-1.563 -5.083,0.327 -6.247,2.21 z"
           id="path88"
           style="fill:#ffffff;stroke:none" />
        <path
           d="m 343.555,382.625 c 5.163,1.578 9.996,1.973 14.501,1.183 0.976,0.51 2.872,2.286 1.812,2.782 -4.595,2.15 -13.463,0.351 -16.313,-3.965 z"
           id="path90"
           style="fill:#ffffff;stroke:none" />
        <path
           d="m 360.325,383.217 c 1.123,-0.261 2.043,1.03 2.947,0.718 4.883,-1.689 6.543,-5.681 3.268,-8.413 -0.954,3.486 -3.025,6.051 -6.215,7.695 z"
           id="path92"
           style="fill:#ffffff;stroke:none" />
        <path
           d="m 298.215,390.42 c 13.567,6.191 26.08,6.586 37.54,1.186 -0.619,-1.452 -0.867,-2.21 -2.92,-2.275 -10.46,-0.33 -24.159,1.42 -34.62,1.089 z"
           id="path94"
           style="fill:#ffffff;stroke:none" />
        <path
           d="m 314.381,317.069 c -0.92,2.63 -0.263,5.524 1.973,8.68 -9.634,2.105 -16.178,4.735 -19.63,7.892 -5.656,-0.23 -8.681,-1.71 -9.075,-4.439 5.425,1.25 8.549,1.579 9.371,0.987 7.168,-4.867 12.495,-6.708 15.981,-5.525 -0.855,-1.676 -0.395,-4.208 1.38,-7.595 z"
           id="path96"
           style="fill:#ffffff;stroke:none" />
        <path
           d="m 319.554,330.753 c 3.754,3.095 9.484,4.478 17.189,4.149 -14.818,5.598 -20.548,4.215 -17.189,-4.149 z"
           id="path98"
           style="fill:#ffffff;stroke:none" />
      </g>
    </g>
  </g>
</svg>
