<?xml version="1.0" encoding="UTF-8" standalone="no"?>
<!DOCTYPE svg PUBLIC "-//W3C//DTD SVG 1.0//EN" "http://www.w3.org/TR/2001/REC-SVG-20010904/DTD/svg10.dtd">
<!-- Wikipedia User:Mysid -->
<svg
   xmlns="http://www.w3.org/2000/svg"
   version="1.0"
   width="863.47101"
   height="878.65253"
   id="svg1901">
  <defs
     id="defs1903">
    <clipPath
       id="clipPath17081">
      <path
         d="M 822.8 463.79074 A 378.57144 378.57144 0 1 1  65.714264,463.7 A 378.57144 378.57144 0 1 1  822.85715 463.79074 z"
         transform="matrix(0.9773902,0,0,0.9747218,16.045249,2.142219)"
         style="fill:none;stroke:#0000ff;stroke-width:2;stroke-linecap:round;"
         id="path17083" />
    </clipPath>
    <clipPath
       id="clipPath17085">
      <path
         d="M 822.8 463.79074 A 378.57144 378.57144 0 1 1  65.714264,463.7 A 378.57144 378.57144 0 1 1  822.85715 463.79074 z"
         transform="matrix(0.9773902,0,0,0.9747218,16.045249,2.142219)"
         style="fill:none;stroke:#0000ff;stroke-width:2;stroke-linecap:round;"
         id="path17087" />
    </clipPath>
    <clipPath
       id="clipPath22143">
      <path
         d="M 576.6,813.5 L 614.6,871.5 C 510.5,915.3 402.5203,918.5 289.95871,873.6 L 326.9,816.1 C 413.0,847.5 517.25218,841.0 576.61162,813.5 z "
         style="color:#000000;fill:none;fill-rule:nonzero;stroke:#0000ff;stroke-width:2.05;"
         id="path22145" />
    </clipPath>
    <clipPath
       id="clipPath23131">
      <path
         d="M 295.0,791.4 C 401.3,841.0 519.44026,835.4 609.90238,789.6 L 652.9,839.0 C 617.9,854.0 584.41255,865.4 551.57029,873.1 L 517.5,832.9 L 385.1,835.9 L 357.5,873.6 C 324.7,866.0 291.33554,854.5 256.50751,839.0 L 295.0,791.4 z "
         style="color:#000000;fill:none;fill-rule:nonzero;stroke:#0000ff;stroke-width:2;"
         id="path23133" />
    </clipPath>
    <clipPath
       id="clipPath27070">
      <path
         d="M 397.9,9.9 L 377.3,48.4 L 407.8,79.0 L 486.2,79.0 L 518.1,48.4 L 498.2,9.2 L 905.9,40.7 L 913.3,927.9 L -20.601123,897.9 L -3.68816,52.2 L 397.9,9.9 z "
         style="color:#000000;fill:none;fill-rule:nonzero;stroke:#0000ff;stroke-width:2;"
         id="path27072" />
    </clipPath>
  </defs>
  <g
     transform="translate(-20.693093,-15.675284)"
     style="opacity:1"
     id="layer1">
    <rect
       width="794.84375"
       height="503.56494"
       x="75.201492"
       y="18.824945"
       style="fill:#d21;stroke:#000000;stroke-width:2.07;stroke-linecap:round;stroke-opacity:0.94117647"
       clip-path="url(#clipPath17085)"
       id="rect16106" />
    <rect
       width="794.9093"
       height="443.49548"
       x="75.168724"
       y="466.04611"
       style="fill:#000000;stroke:#000000;stroke-width:2;stroke-linecap:round;stroke-opacity:0.94117647"
       clip-path="url(#clipPath17081)"
       id="rect16108" />
    <g
       clip-path="url(#clipPath27070)"
       id="g22130">
      <path
         d="M 849.7,448.8 C 849.7,668.9 671.43904,847.5 451.75395,847.5 C 232.0,847.5 53.773693,668.9 53.773693,448.8 C 53.7,228.8 232.06884,50.2 451.75395,50.2 C 671.4,50.2 849.73419,228.8 849.73419,448.8 z M 867.2,450.2 C 867.2,680.6 681.41062,867.7 452.42859,867.7 C 223.4,867.7 37.606057,680.6 37.606057,450.2 C 37.6,219.7 223.44656,32.6 452.42859,32.6 C 681.4,32.6 867.25113,219.7 867.25113,450.2 z "
         style="fill:#ffffff;fill-rule:evenodd;stroke:#ffffff;stroke-width:6;stroke-linecap:round;stroke-opacity:0.94117647"
         id="path21151" />
      <path
         d="M 833.1,452.3 C 833.1,664.4 661.93955,836.6 451.00005,836.6 C 240.0,836.6 68.863251,664.4 68.863251,452.3 C 68.8,240.2 240.06053,68.0 451.00005,68.0 C 661.9,68.0 833.13683,240.2 833.13683,452.3 z M 851.6,450.9 C 851.6,671.7 672.17851,850.9 451.00006,850.9 C 229.8,850.9 50.314439,671.7 50.314439,450.9 C 50.3,230.1 229.8216,50.9 451.00006,50.9 C 672.1,50.9 851.68567,230.1 851.68567,450.9 z "
         style="fill:#d21;fill-rule:evenodd;stroke:#000000;stroke-width:2;stroke-linecap:round;"
         id="path12150" />
      <path
         d="M 865.9,448.8 C 865.9,677.8 680.36844,863.7 451.72644,863.7 C 223.0,863.7 37.519909,677.8 37.519909,448.8 C 37.5,219.7 223.08443,33.9 451.72644,33.9 C 680.3,33.9 865.93296,219.7 865.93296,448.8 z M 884.1,450.2 C 884.1,690.0 690.74658,884.7 452.42859,884.7 C 214.1,884.7 20.693093,690.0 20.693093,450.2 C 20.6,210.3 214.1106,15.6 452.42859,15.6 C 690.7,15.6 884.16409,210.3 884.16409,450.2 z "
         style="fill:#000000;fill-rule:evenodd;stroke:none;stroke-width:2;stroke-linecap:round;"
         id="path12154" />
    </g>
    <path
       d="M 611.1,189.3 L 611.1,218.1 L 597.5,203.5 L 583.8,218.1 L 583.8,189.4 L 554.6,189.3 L 569.2,175.7 L 554.6,162.0 L 583.8,161.9 L 583.8,133.7 L 597.5,148.3 L 611.1,133.7 L 611.1,161.9 L 640.3,162.0 L 625.7,175.7 L 640.3,189.3 L 611.1,189.3 z "
       style="color:#000000;fill:#ffffff;fill-rule:nonzero;stroke:#000000;stroke-width:2;stroke-opacity:0.94117647;"
       id="path12185" />
    <path
       d="M 822.8 463.79074 A 378.57144 378.57144 0 1 1  65.714264,463.7 A 378.57144 378.57144 0 1 1  822.85715 463.79074 z"
       transform="matrix(0.9773902,0,0,0.9747218,16.045249,2.142219)"
       style="fill:none;stroke:#00000f;stroke-width:2.02;stroke-linecap:round;stroke-opacity:0.94117647"
       id="path17079" />
    <g
       id="g19143">
      <path
         d="M 447.0,784.1 C 439.6,798.6 429.07739,806.8 414.94009,810.9 L 418.5,788.0 C 412.4,798.4 402.85154,806.8 386.36866,808.0 L 393.8,787.3 C 384.3,797.3 376.38424,799.6 363.15438,799.5 L 369.9,782.3 C 360.7,790.0 350.34888,793.0 339.2258,793.0 L 396.3,639.5 C 389.0,661.0 375.81674,669.8 357.08295,666.6 L 366.3,654.5 C 356.4,661.9 345.3488,663.6 333.51152,661.6 L 340.6,654.5 C 331.8,656.8 323.03533,656.8 314.2258,654.5 L 322.7,645.9 C 313.6,647.5 304.56429,649.0 296.36866,645.9 L 307.0,635.9 C 297.1,639.4 287.5201,640.0 278.51152,635.9 L 289.2,628.0 C 280.6,628.1 271.89853,628.9 264.2258,624.5 L 275.6,617.3 C 266.6,618.7 257.75508,620.1 250.65438,615.9 L 262.0,608.0 C 253.3,607.1 242.23692,609.3 237.79723,602.3 L 249.2,596.6 C 237.9,596.7 228.59883,594.8 222.08295,590.2 L 234.2,584.5 C 224.2,583.2 214.30287,581.8 207.08295,575.9 L 224.2,568.7 C 209.2,569.8 196.60652,566.4 192.08295,554.1 L 207.0,551.6 C 195.8,549.6 185.69464,546.1 179.2258,536.6 L 189.9,534.5 C 178.2,530.0 165.87536,526.5 160.65437,513.7 L 172.7,513.7 C 163.1,507.7 153.48299,501.8 148.51152,490.2 L 165.6,490.9 C 155.3,486.4 145.38724,481.4 140.65437,469.5 L 156.3,470.9 C 146.4,464.5 136.46049,458.1 132.08295,445.2 L 151.3,446.6 C 140.8,439.1 130.35634,431.7 126.36866,415.9 L 142.7,418.0 C 133.6,409.2 125.55576,400.1 122.08295,389.5 L 143.5,391.6 C 134.0,382.9 125.16578,373.8 121.36866,359.5 L 140.6,365.2 C 131.7,354.9 123.93657,343.7 120.65437,328.7 L 142.0,335.9 C 132.5,324.2 126.61638,311.6 125.65437,298.0 L 144.2,308.0 C 136.3,296.0 132.15382,282.7 129.94009,268.7 L 152.0,284.5 C 144.8,270.8 140.30002,256.9 140.65437,242.3 L 161.3,259.5 C 151.2,245.8 150.43505,229.5 150.65437,213.0 L 164.2,223.0 C 158.4,209.8 156.97243,195.3 157.79723,180.2 L 179.2,197.3 C 174.2,181.1 174.01989,162.8 176.01152,146.6 L 286.3,259.5 C 314.1,284.4 338.23258,318.2 333.51152,360.2 C 332.4,388.7 362.8655,479.9 437.08295,454.5 L 437.0,441.6 C 422.0,423.2 430.61892,392.0 447.47005,391.6 C 464.3,392.0 472.85598,423.2 457.85714,441.6 L 457.8,454.5 C 532.0,479.9 562.48338,388.7 561.42857,360.2 C 556.7,318.2 580.76277,284.4 608.57143,259.5 L 718.9,146.6 C 720.9,162.8 720.72831,181.1 715.71429,197.3 L 737.1,180.2 C 737.9,195.3 736.53994,209.8 730.71429,223.0 L 744.2,213.0 C 744.5,229.5 743.66961,245.8 733.57143,259.5 L 754.2,242.3 C 754.6,256.9 750.10738,270.8 742.85714,284.5 L 765,268.7 C 762.7,282.7 758.6288,296.0 750.71429,308.0 L 769.2,298.0 C 768.3,311.6 762.3854,324.2 752.85714,335.9 L 774.2,328.7 C 771.0,343.7 763.23611,354.9 754.28572,365.2 L 773.5,359.5 C 769.7,373.8 760.84675,382.9 751.42857,391.6 L 772.8,389.5 C 769.3,400.1 761.27438,409.2 752.14286,418.0 L 768.5,415.9 C 764.5,431.7 754.06331,439.1 743.57143,446.6 L 762.8,445.2 C 758.4,458.1 748.52661,464.5 738.57143,470.9 L 754.2,469.5 C 749.5,481.4 739.6348,486.4 729.28572,490.9 L 746.4,490.2 C 741.4,501.8 731.7528,507.7 722.14286,513.7 L 734.2,513.7 C 729.0,526.5 716.64314,530.0 705,534.5 L 715.7,536.6 C 709.2,546.1 699.05013,549.6 687.85714,551.6 L 702.8,554.1 C 698.3,566.4 685.69508,569.8 670.71429,568.7 L 687.8,575.9 C 680.6,581.8 670.73377,583.2 660.71429,584.5 L 672.8,590.2 C 666.3,594.8 656.98799,596.7 645.71429,596.6 L 657.1,602.3 C 652.7,609.3 641.63149,607.1 632.85714,608.0 L 644.2,615.9 C 637.1,620.1 628.24798,618.7 619.28571,617.3 L 630.7,624.5 C 623.0,628.9 614.29854,628.1 605.71429,628.0 L 616.4,635.9 C 607.4,640.0 597.81671,639.4 587.85714,635.9 L 598.5,645.9 C 590.3,649.0 581.27011,647.5 572.14286,645.9 L 580.7,654.5 C 571.9,656.8 563.09524,656.8 554.28571,654.5 L 561.4,661.6 C 549.5,663.6 538.50589,661.9 528.57143,654.5 L 537.8,666.6 C 519.1,669.8 505.87706,661.0 498.57143,639.5 L 555.7,793.0 C 544.5,793.0 534.22025,790.0 525,782.3 L 531.7,799.5 C 518.5,799.6 510.61536,797.3 501.07143,787.3 L 508.5,808.0 C 492.0,806.8 482.51038,798.4 476.42857,788.0 L 480.6,810.4 C 466.5,806.4 454.57024,798.6 447.09691,784.1 z "
         style="color:#000000;fill:#ffffff;fill-rule:nonzero;stroke:#000000;stroke-width:2;stroke-opacity:0.94117647;"
         id="path19141" />
      <path
         d="M 631.0,285.9 C 631.7,262.0 702.38095,215.8 715,198.43361"
         style="color:#000000;fill:#ffffff;fill-rule:nonzero;stroke:#000000;stroke-width:2;stroke-opacity:0.94117647;"
         id="path19139" />
      <path
         d="M 730.3,223.4 C 704.2,252.6 635.73918,288.4 640.35714,310.93361"
         style="color:#000000;fill:#ffffff;fill-rule:nonzero;stroke:#000000;stroke-width:2;stroke-opacity:0.94117647;"
         id="path19137" />
      <path
         d="M 642.5,334.1 C 637.5,315.4 710.59524,286.7 732.85714,259.86218"
         style="color:#000000;fill:#ffffff;fill-rule:nonzero;stroke:#000000;stroke-width:2;stroke-opacity:0.94117647;"
         id="path19135" />
      <path
         d="M 742.5,284.5 C 714.4,313.1 655.09915,328.9 645.35714,351.29075"
         style="color:#000000;fill:#ffffff;fill-rule:nonzero;stroke:#000000;stroke-width:2;stroke-opacity:0.94117647;"
         id="path19133" />
      <path
         d="M 750,308.0 C 722.1,332.3 652.76715,359.3 648.92857,370.93361"
         style="color:#000000;fill:#ffffff;fill-rule:nonzero;stroke:#000000;stroke-width:2;stroke-opacity:0.94117647;"
         id="path19131" />
      <path
         d="M 646.4,392.0 C 654.6,370.2 731.90476,357.3 752.14286,336.29075"
         style="color:#000000;fill:#ffffff;fill-rule:nonzero;stroke:#000000;stroke-width:2;stroke-opacity:0.94117647;"
         id="path19129" />
      <path
         d="M 753.5,365.2 C 727.6,381.4 661.87382,395.0 645.71429,411.6479"
         style="color:#000000;fill:#ffffff;fill-rule:nonzero;stroke:#000000;stroke-width:2;stroke-opacity:0.94117647;"
         id="path19127" />
      <path
         d="M 642.1,433.4 C 656.5,410.8 714.5219,406.0 750.71429,392.36218"
         style="color:#000000;fill:#ffffff;fill-rule:nonzero;stroke:#000000;stroke-width:2;stroke-opacity:0.94117647;"
         id="path19125" />
      <path
         d="M 751.7,418.4 C 720.3,431.2 643.76642,439.5 639.28572,452.71932"
         style="color:#000000;fill:#ffffff;fill-rule:nonzero;stroke:#000000;stroke-width:2;stroke-opacity:0.94117647;"
         id="path19123" />
      <path
         d="M 634.2,468.4 C 639.0,457.4 708.66934,455.2 743.21429,447.00504"
         style="color:#000000;fill:#ffffff;fill-rule:nonzero;stroke:#000000;stroke-width:2;stroke-opacity:0.94117647;"
         id="path19121" />
      <path
         d="M 738.5,471.2 C 710,479.5 632.84137,474.4 629.28572,487.36218"
         style="color:#000000;fill:#ffffff;fill-rule:nonzero;stroke:#000000;stroke-width:2;stroke-opacity:0.94117647;"
         id="path19119" />
      <path
         d="M 623.9,499.8 C 637.1,491.2 696.19048,495.9 729.64286,491.29075"
         style="color:#000000;fill:#ffffff;fill-rule:nonzero;stroke:#000000;stroke-width:2;stroke-opacity:0.94117647;"
         id="path19117" />
      <path
         d="M 721.7,513.7 C 686.9,515.2 621.79327,502.9 617.14286,518.07647"
         style="color:#000000;fill:#ffffff;fill-rule:nonzero;stroke:#000000;stroke-width:2;stroke-opacity:0.94117647;"
         id="path19115" />
      <path
         d="M 611.7,528.7 C 626.5,524.2 673.69048,532.6 704.64286,534.5 L 704.6,534.50504"
         style="color:#000000;fill:#ffffff;fill-rule:nonzero;stroke:#000000;stroke-width:2;stroke-opacity:0.94117647;"
         id="path19113" />
      <path
         d="M 688.5,551.2 C 659.6,549.3 611.1604,531.1 599.64286,540.21932"
         style="color:#000000;fill:#ffffff;fill-rule:nonzero;stroke:#000000;stroke-width:2;stroke-opacity:0.94117647;"
         id="path19111" />
      <path
         d="M 592.1,552.0 C 600.6,544.0 644.52381,564.6 670.71429,568.79075"
         style="color:#000000;fill:#ffffff;fill-rule:nonzero;stroke:#000000;stroke-width:2;stroke-opacity:0.94117647;"
         id="path19109" />
      <path
         d="M 660.3,585.2 C 635.5,577.5 593.31976,558.9 586.07143,562.36218"
         style="color:#000000;fill:#ffffff;fill-rule:nonzero;stroke:#000000;stroke-width:2;stroke-opacity:0.94117647;"
         id="path19107" />
      <path
         d="M 575,574.5 C 593.5,569.5 622.57659,589.1 646.42857,596.6479"
         style="color:#000000;fill:#ffffff;fill-rule:nonzero;stroke:#000000;stroke-width:2;stroke-opacity:0.94117647;"
         id="path19105" />
      <path
         d="M 632.5,608.0 C 609.2,602.1 582.14423,584.0 563.92857,585.93361"
         style="color:#000000;fill:#ffffff;fill-rule:nonzero;stroke:#000000;stroke-width:2;stroke-opacity:0.94117647;"
         id="path19103" />
      <path
         d="M 619.2,617.0 C 596.0,609.3 569.92269,597.8 549.64286,594.1 L 549.6,594.1479"
         style="color:#000000;fill:#ffffff;fill-rule:nonzero;stroke:#000000;stroke-width:2;stroke-opacity:0.94117647;"
         id="path19101" />
      <path
         d="M 538.5,603.0 C 560.7,606.2 583.21429,622.3 605,627.71932"
         style="color:#000000;fill:#ffffff;fill-rule:nonzero;stroke:#000000;stroke-width:2;stroke-opacity:0.94117647;"
         id="path19099" />
      <path
         d="M 524.6,612.0 C 534.1,607.6 566.54762,628.1 587.5,636.29075"
         style="color:#000000;fill:#ffffff;fill-rule:nonzero;stroke:#000000;stroke-width:2;stroke-opacity:0.94117647;"
         id="path19097" />
      <path
         d="M 571.7,645.5 C 551.3,635.7 530.25018,622.1 510.71429,616.6479"
         style="color:#000000;fill:#ffffff;fill-rule:nonzero;stroke:#000000;stroke-width:2;stroke-opacity:0.94117647;"
         id="path19095" />
      <path
         d="M 499.6,623.7 C 516.1,621.8 535.68659,645.3 554.28572,653.79075"
         style="color:#000000;fill:#ffffff;fill-rule:nonzero;stroke:#000000;stroke-width:2;stroke-opacity:0.94117647;"
         id="path19093" />
      <path
         d="M 496.7,631.6 C 507.5,635.2 518.21429,646.3 528.92857,654.1479"
         style="color:#000000;fill:#ffffff;fill-rule:nonzero;stroke:#000000;stroke-width:2;stroke-opacity:0.94117647;"
         id="path19091" />
      <path
         d="M 525,781.6 C 514.8,744.4 484.63792,674.8 495.35714,671.6479"
         style="color:#000000;fill:#ffffff;fill-rule:nonzero;stroke:#000000;stroke-width:2;stroke-opacity:0.94117647;"
         id="path19089" />
      <path
         d="M 480.7,677.7 C 469.6,679.1 492.70944,747.4 501.07143,787.00504"
         style="color:#000000;fill:#ffffff;fill-rule:nonzero;stroke:#000000;stroke-width:2;stroke-opacity:0.94117647;"
         id="path19087" />
      <path
         d="M 476.0,787.3 C 471.8,752.0 456.68678,703.2 463.92857,682.00504"
         style="color:#000000;fill:#ffffff;fill-rule:nonzero;stroke:#000000;stroke-width:2;stroke-opacity:0.94117647;"
         id="path19085" />
      <path
         d="M 447.1,784.1 L 446.7,682.00504"
         style="color:#000000;fill:#ffffff;fill-rule:nonzero;stroke:#000000;stroke-width:2;stroke-opacity:0.94117647;"
         id="path19083" />
      <path
         d="M 263.8,285.9 C 263.1,262.0 192.55914,215.8 179.94009,198.43361"
         style="color:#000000;fill:#ffffff;fill-rule:nonzero;stroke:#000000;stroke-width:2;stroke-opacity:0.94117647;"
         id="path19081" />
      <path
         d="M 164.5,223.4 C 190.6,252.6 259.20091,288.4 254.58295,310.93361"
         style="color:#000000;fill:#ffffff;fill-rule:nonzero;stroke:#000000;stroke-width:2;stroke-opacity:0.94117647;"
         id="path19079" />
      <path
         d="M 252.4,334.1 C 257.3,315.4 184.34485,286.7 162.08295,259.86218"
         style="color:#000000;fill:#ffffff;fill-rule:nonzero;stroke:#000000;stroke-width:2;stroke-opacity:0.94117647;"
         id="path19077" />
      <path
         d="M 152.4,284.5 C 180.5,313.1 239.84094,328.9 249.58295,351.29075"
         style="color:#000000;fill:#ffffff;fill-rule:nonzero;stroke:#000000;stroke-width:2;stroke-opacity:0.94117647;"
         id="path19075" />
      <path
         d="M 144.9,308.0 C 172.7,332.3 242.17294,359.3 246.01152,370.93361"
         style="color:#000000;fill:#ffffff;fill-rule:nonzero;stroke:#000000;stroke-width:2;stroke-opacity:0.94117647;"
         id="path19073" />
      <path
         d="M 248.5,392.0 C 240.3,370.2 163.03533,357.3 142.79723,336.29075"
         style="color:#000000;fill:#ffffff;fill-rule:nonzero;stroke:#000000;stroke-width:2;stroke-opacity:0.94117647;"
         id="path19071" />
      <path
         d="M 141.3,365.2 C 167.3,381.4 233.06627,395.0 249.2258,411.6479"
         style="color:#000000;fill:#ffffff;fill-rule:nonzero;stroke:#000000;stroke-width:2;stroke-opacity:0.94117647;"
         id="path19069" />
      <path
         d="M 252.7,433.4 C 238.3,410.8 180.41819,406.0 144.2258,392.36218"
         style="color:#000000;fill:#ffffff;fill-rule:nonzero;stroke:#000000;stroke-width:2;stroke-opacity:0.94117647;"
         id="path19067" />
      <path
         d="M 143.1,418.4 C 174.5,431.2 251.17367,439.5 255.65437,452.71932"
         style="color:#000000;fill:#ffffff;fill-rule:nonzero;stroke:#000000;stroke-width:2;stroke-opacity:0.94117647;"
         id="path19065" />
      <path
         d="M 260.6,468.4 C 255.9,457.4 186.27075,455.2 151.7258,447.00504"
         style="color:#000000;fill:#ffffff;fill-rule:nonzero;stroke:#000000;stroke-width:2;stroke-opacity:0.94117647;"
         id="path19063" />
      <path
         d="M 156.3,471.2 C 184.9,479.5 262.09872,474.4 265.65437,487.36218"
         style="color:#000000;fill:#ffffff;fill-rule:nonzero;stroke:#000000;stroke-width:2;stroke-opacity:0.94117647;"
         id="path19061" />
      <path
         d="M 271.0,499.8 C 257.8,491.2 198.74961,495.9 165.29723,491.29075"
         style="color:#000000;fill:#ffffff;fill-rule:nonzero;stroke:#000000;stroke-width:2;stroke-opacity:0.94117647;"
         id="path19059" />
      <path
         d="M 173.1,513.7 C 208.0,515.2 273.14682,502.9 277.79723,518.07647"
         style="color:#000000;fill:#ffffff;fill-rule:nonzero;stroke:#000000;stroke-width:2;stroke-opacity:0.94117647;"
         id="path19057" />
      <path
         d="M 283.1,528.7 C 268.4,524.2 221.24961,532.6 190.29723,534.5 L 190.2,534.50504"
         style="color:#000000;fill:#ffffff;fill-rule:nonzero;stroke:#000000;stroke-width:2;stroke-opacity:0.94117647;"
         id="path19055" />
      <path
         d="M 206.3,551.2 C 235.2,549.3 283.77969,531.1 295.29723,540.21932"
         style="color:#000000;fill:#ffffff;fill-rule:nonzero;stroke:#000000;stroke-width:2;stroke-opacity:0.94117647;"
         id="path19053" />
      <path
         d="M 302.7,552.0 C 294.2,544.0 250.41628,564.6 224.2258,568.79075"
         style="color:#000000;fill:#ffffff;fill-rule:nonzero;stroke:#000000;stroke-width:2;stroke-opacity:0.94117647;"
         id="path19051" />
      <path
         d="M 234.5,585.2 C 259.3,577.5 301.62033,558.9 308.86866,562.36218"
         style="color:#000000;fill:#ffffff;fill-rule:nonzero;stroke:#000000;stroke-width:2;stroke-opacity:0.94117647;"
         id="path19049" />
      <path
         d="M 319.9,574.5 C 301.4,569.5 272.3635,589.1 248.51152,596.6479"
         style="color:#000000;fill:#ffffff;fill-rule:nonzero;stroke:#000000;stroke-width:2;stroke-opacity:0.94117647;"
         id="path19047" />
      <path
         d="M 262.4,608.0 C 285.6,602.1 312.79586,584.0 331.01152,585.93361"
         style="color:#000000;fill:#ffffff;fill-rule:nonzero;stroke:#000000;stroke-width:2;stroke-opacity:0.94117647;"
         id="path19045" />
      <path
         d="M 275.6,617.0 C 298.8,609.3 325.0174,597.8 345.29723,594.1 L 345.2,594.1479"
         style="color:#000000;fill:#ffffff;fill-rule:nonzero;stroke:#000000;stroke-width:2;stroke-opacity:0.94117647;"
         id="path19043" />
      <path
         d="M 356.3,603.0 C 334.2,606.2 311.7258,622.3 289.94009,627.71932"
         style="color:#000000;fill:#ffffff;fill-rule:nonzero;stroke:#000000;stroke-width:2;stroke-opacity:0.94117647;"
         id="path19041" />
      <path
         d="M 370.2,612.0 C 360.8,607.6 328.39247,628.1 307.44009,636.29075"
         style="color:#000000;fill:#ffffff;fill-rule:nonzero;stroke:#000000;stroke-width:2;stroke-opacity:0.94117647;"
         id="path19039" />
      <path
         d="M 323.1,645.5 C 343.5,635.7 364.68991,622.1 384.2258,616.6479"
         style="color:#000000;fill:#ffffff;fill-rule:nonzero;stroke:#000000;stroke-width:2;stroke-opacity:0.94117647;"
         id="path19037" />
      <path
         d="M 395.2,623.7 C 378.7,621.8 359.2535,645.3 340.65437,653.79075"
         style="color:#000000;fill:#ffffff;fill-rule:nonzero;stroke:#000000;stroke-width:2;stroke-opacity:0.94117647;"
         id="path19035" />
      <path
         d="M 398.1,631.6 C 387.4,635.2 376.7258,646.3 366.01152,654.1479"
         style="color:#000000;fill:#ffffff;fill-rule:nonzero;stroke:#000000;stroke-width:2;stroke-opacity:0.94117647;"
         id="path19033" />
      <path
         d="M 369.9,781.6 C 380.1,744.4 410.30217,674.8 399.58295,671.6479"
         style="color:#000000;fill:#ffffff;fill-rule:nonzero;stroke:#000000;stroke-width:2;stroke-opacity:0.94117647;"
         id="path19031" />
      <path
         d="M 414.2,677.7 C 425.3,679.1 402.23065,747.4 393.86866,787.00504"
         style="color:#000000;fill:#ffffff;fill-rule:nonzero;stroke:#000000;stroke-width:2;stroke-opacity:0.94117647;"
         id="path19029" />
      <path
         d="M 418.8,787.3 C 423.0,752.0 438.25331,703.2 431.01152,682.00504"
         style="color:#000000;fill:#ffffff;fill-rule:nonzero;stroke:#000000;stroke-width:2;stroke-opacity:0.94117647;"
         id="path10124" />
    </g>
    <path
       d="M 311.1,189.3 L 311.1,218.1 L 297.5,203.5 L 283.8,218.1 L 283.8,189.4 L 254.6,189.3 L 269.2,175.7 L 254.6,162.0 L 283.8,161.9 L 283.8,133.7 L 297.5,148.3 L 311.1,133.7 L 311.1,161.9 L 340.3,162.0 L 325.7,175.7 L 340.3,189.3 L 311.1,189.3 z "
       style="color:#000000;fill:#ffffff;fill-rule:nonzero;stroke:#000000;stroke-width:2;stroke-opacity:0.94117647;"
       id="path13161" />
    <path
       d="M 468.9,571.7 L 468.9,617.3 L 447.3,594.1 L 425.7,617.3 L 425.6,571.8 L 379.2,571.6 L 402.5,550.0 L 379.2,528.4 L 425.7,528.2 L 425.7,483.4 L 447.3,506.6 L 468.9,483.4 L 469.0,528.2 L 515.3,528.4 L 492.1,550.0 L 515.3,571.6 L 468.9,571.7 z "
       style="color:#000000;fill:#d21;fill-rule:nonzero;stroke:#000000;stroke-width:2;stroke-"
       id="path12160" />
    <g
       transform="matrix(1.0475703,0,0,1.0475703,-21.522173,-21.417078)"
       clip-path="url(#clipPath23131)"
       id="g23116">
      <path
         d="M 849.7,448.8 C 849.7,668.9 671.43904,847.5 451.75395,847.5 C 232.0,847.5 53.773693,668.9 53.773693,448.8 C 53.7,228.8 232.06884,50.2 451.75395,50.2 C 671.4,50.2 849.73419,228.8 849.73419,448.8 z M 867.2,450.2 C 867.2,680.6 681.41062,867.7 452.42859,867.7 C 223.4,867.7 37.606057,680.6 37.606057,450.2 C 37.6,219.7 223.44656,32.6 452.42859,32.6 C 681.4,32.6 867.25113,219.7 867.25113,450.2 z "
         style="fill:#ffffff;fill-rule:evenodd;stroke:#ffffff;stroke-width:6;stroke-linecap:round;stroke-opacity:0.94117647"
         id="path23118" />
      <path
         d="M 833.1,452.3 C 833.1,664.4 661.93955,836.6 451.00005,836.6 C 240.0,836.6 68.863251,664.4 68.863251,452.3 C 68.8,240.2 240.06053,68.0 451.00005,68.0 C 661.9,68.0 833.13683,240.2 833.13683,452.3 z M 851.6,450.9 C 851.6,671.7 672.17851,850.9 451.00006,850.9 C 229.8,850.9 50.314439,671.7 50.314439,450.9 C 50.3,230.1 229.8216,50.9 451.00006,50.9 C 672.1,50.9 851.68567,230.1 851.68567,450.9 z "
         style="fill:#d21;fill-rule:evenodd;stroke:#000000;stroke-width:2;stroke-linecap:round;"
         id="path23120" />
      <path
         d="M 865.9,448.8 C 865.9,677.8 680.81691,869.1 452.17491,869.1 C 223.5,869.1 37.519909,677.8 37.519909,448.8 C 37.5,219.7 223.08443,33.9 451.72644,33.9 C 680.3,33.9 865.93296,219.7 865.93296,448.8 z M 884.1,450.2 C 884.1,690.0 691.19505,894.6 452.87706,894.6 C 214.5,894.6 20.693093,690.0 20.693093,450.2 C 20.6,210.3 214.1106,15.6 452.42859,15.6 C 690.7,15.6 884.16409,210.3 884.16409,450.2 z "
         style="fill:#000000;fill-rule:evenodd;stroke:none;stroke-width:2;stroke-linecap:round;"
         id="path23122" />
    </g>
    <g
       transform="matrix(0.9567543,0,0,0.9567543,19.565611,19.470071)"
       clip-path="url(#clipPath22143)"
       id="g22135">
      <path
         d="M 849.7,448.8 C 849.7,668.9 671.43904,847.5 451.75395,847.5 C 232.0,847.5 53.773693,668.9 53.773693,448.8 C 53.7,228.8 232.06884,50.2 451.75395,50.2 C 671.4,50.2 849.73419,228.8 849.73419,448.8 z M 867.2,450.2 C 867.2,680.6 681.41062,889.9 452.42859,889.9 C 223.4,889.9 37.606057,680.6 37.606057,450.2 C 37.6,219.7 223.44656,32.6 452.42859,32.6 C 681.4,32.6 867.25113,219.7 867.25113,450.2 z "
         style="fill:#ffffff;fill-rule:evenodd;stroke:#ffffff;stroke-width:6;stroke-linecap:round;stroke-opacity:0.94117647"
         id="path22137" />
      <path
         d="M 833.1,452.3 C 833.1,664.4 661.93955,836.6 451.00005,836.6 C 240.0,836.6 68.863251,664.4 68.863251,452.3 C 68.8,240.2 240.06053,68.0 451.00005,68.0 C 661.9,68.0 833.13683,240.2 833.13683,452.3 z M 851.6,450.9 C 851.6,671.7 672.17851,860.6 451.00006,860.6 C 229.8,860.6 50.314439,671.7 50.314439,450.9 C 50.3,230.1 229.8216,50.9 451.00006,50.9 C 672.1,50.9 851.68567,230.1 851.68567,450.9 z "
         style="fill:#d21;fill-rule:evenodd;stroke:#000000;stroke-width:2;stroke-linecap:round;"
         id="path22139" />
      <path
         d="M 865.9,448.8 C 865.9,677.8 680.36844,884.5 451.72644,884.5 C 223.0,884.5 37.519909,677.8 37.519909,448.8 C 37.5,219.7 223.08443,33.9 451.72644,33.9 C 680.3,33.9 865.93296,219.7 865.93296,448.8 z M 884.1,450.2 C 884.1,690.0 691.72866,908.8 453.41067,908.8 C 215.0,908.8 20.693093,690.0 20.693093,450.2 C 20.6,210.3 214.1106,15.6 452.42859,15.6 C 690.7,15.6 884.16409,210.3 884.16409,450.2 z "
         style="fill:#000000;fill-rule:evenodd;stroke:none;stroke-width:2;stroke-linecap:round;"
         id="path22141" />
    </g>
    <path
       d="M 571.2,797.8 L 607.6,853.3 C 507.9,895.2 404.67864,898.3 296.98485,855.3 L 332.3,800.3 C 414.7,830.3 514.44886,824.1 571.24126,797.8 z "
       style="color:#000000;fill:none;fill-rule:nonzero;stroke:#000000;stroke-width:2;"
       id="path22128" />
    <path
       d="M 333.9,840.0 C 333.7,840.2 333.50373,840.4 333.25433,840.6 C 332.6,840.9 331.63717,840.9 330.24543,840.4 L 329.6,840.2 L 330.0,838.8 L 330.6,839.0 C 331.2,839.2 331.75482,839.3 332.06103,839.2 C 332.2,839.2 332.43188,839.0 332.61124,838.8 L 333.2,838.1 L 332.5,827.3 L 334.3,827.9 L 334.9,836.3 L 340.5,830.1 L 342.3,830.7 L 333.9,840.0 M 342.7,843.0 L 348.2,844.7 L 351.2,835.0 L 347.2,833.8 L 346.6,835.6 C 345.8,838.4 344.76861,840.6 343.56897,842.2 C 343.3,842.6 343.0502,842.8 342.75188,843.0 M 340.2,842.2 C 341.1,842.1 341.7736,841.8 342.19394,841.2 C 343.2,839.6 344.28354,837.3 345.2351,834.2 L 345.9,831.8 L 353.4,834.1 L 349.9,845.2 L 351.4,845.7 L 350.1,849.8 L 348.7,849.4 L 349.5,846.7 L 340.6,843.9 L 339.8,846.6 L 338.4,846.2 L 339.6,842.1 L 340.2,842.2 M 356.9,835.2 L 359.5,835.9 L 360.4,845.4 L 365.9,837.6 L 368.5,838.3 L 365.1,851.0 L 363.4,850.5 L 366.4,839.4 L 360.8,847.2 L 359.1,846.7 L 358.1,837.2 L 355.1,848.3 L 353.5,847.9 L 356.9,835.2 M 372.8,851.2 C 372.6,851.4 372.40561,851.6 372.17231,851.8 C 371.5,852.2 370.59399,852.3 369.16197,852.0 L 368.5,851.8 L 368.8,850.3 L 369.3,850.5 C 370.0,850.6 370.55023,850.7 370.84872,850.6 C 371.0,850.5 371.20176,850.4 371.36053,850.2 L 371.9,849.3 L 370.1,838.7 L 371.9,839.1 L 373.4,847.4 L 378.3,840.6 L 380.2,841.1 L 372.8,851.2 M 383.3,843.2 L 382.3,848.0 L 384.5,848.5 C 385.3,848.6 386.031,848.6 386.55855,848.2 C 387.0,847.9 387.4289,847.3 387.58698,846.6 C 387.7,845.8 387.64403,845.2 387.28744,844.7 C 386.9,844.1 386.34779,843.8 385.53829,843.6 L 383.3,843.2 M 381.9,841.4 L 385.8,842.2 C 387.2,842.5 388.29209,843.1 388.89349,843.9 C 389.5,844.7 389.67771,845.7 389.42129,846.9 C 389.1,848.2 388.59666,849.1 387.72375,849.6 C 386.8,850.1 385.70244,850.2 384.26141,849.9 L 382.0,849.5 L 381.0,854.6 L 379.2,854.3 L 381.9,841.4 M 390.3,843.1 L 401.3,845.0 L 401.0,846.5 L 396.4,845.7 L 394.4,857.2 L 392.7,856.9 L 394.7,845.4 L 390.1,844.6 L 390.3,843.1 M 412.1,847.6 L 411.9,849.5 C 411.4,848.8 410.84654,848.3 410.21164,847.9 C 409.5,847.6 408.89079,847.3 408.13645,847.2 C 406.6,847.0 405.4498,847.3 404.53302,848.1 C 403.6,848.9 403.03877,850.2 402.79818,851.9 C 402.5,853.6 402.76928,855.0 403.43084,856.0 C 404.0,857.0 405.16714,857.6 406.65264,857.8 C 407.4,857.9 408.13692,857.9 408.84245,857.7 C 409.5,857.5 410.24396,857.2 410.91307,856.8 L 410.6,858.6 C 409.9,858.9 409.28549,859.1 408.56572,859.3 C 407.8,859.4 407.11175,859.4 406.3458,859.3 C 404.3,859.0 402.91347,858.2 401.9502,856.8 C 400.9,855.4 400.6524,853.7 400.94421,851.6 C 401.2,849.5 402.03302,848.0 403.33281,846.9 C 404.6,845.9 406.26726,845.5 408.23439,845.8 C 409.0,845.9 409.72845,846.1 410.38393,846.4 C 411.0,846.7 411.64991,847.1 412.1957,847.6 M 414.6,846.9 L 416.3,847.0 L 415.7,853.5 L 422.6,847.7 L 424.9,847.9 L 419.3,852.6 L 423.8,861.0 L 421.9,860.8 L 418.1,853.6 L 415.4,855.8 L 415.0,860.1 L 413.2,859.9 L 414.6,846.9 M 431.1,850.1 L 428.2,856.5 L 433.1,856.8 L 431.1,850.1 M 430.2,848.3 L 432.2,848.4 L 436.3,861.9 L 434.5,861.7 L 433.5,858.3 L 427.6,857.9 L 426.2,861.2 L 424.3,861.1 L 430.2,848.3 M 440.4,852.6 C 440.3,853.4 440.58028,854.0 441.00151,854.4 C 441.4,854.8 442.06992,855.0 442.925,855.1 L 445.6,855.1 L 445.8,850.5 L 443.0,850.4 C 442.2,850.4 441.55903,850.6 441.1078,850.9 C 440.6,851.3 440.42827,851.9 440.40483,852.6 M 437.7,861.9 L 441.4,856.3 C 440.8,856.1 440.22435,855.8 439.48974,855.3 C 438.7,854.7 438.40731,853.8 438.44579,852.6 C 438.4,851.4 438.89178,850.5 439.67319,849.8 C 440.4,849.2 441.6008,848.9 443.11182,848.9 L 447.6,849.1 L 447.2,862.2 L 445.4,862.1 L 445.6,856.6 L 443.2,856.5 L 439.6,862.0 L 437.7,861.9 M 458.0,850.5 L 458.1,855.5 L 460.3,855.4 C 461.2,855.4 461.83979,855.2 462.28169,854.7 C 462.7,854.3 462.93605,853.7 462.91911,852.9 C 462.9,852.1 462.66373,851.5 462.2035,851.1 C 461.7,850.7 461.10015,850.5 460.27418,850.5 L 458.0,850.5 M 456.2,849.1 L 460.2,849.0 C 461.7,849.0 462.83051,849.3 463.59467,850.0 C 464.3,850.6 464.76323,851.6 464.79075,852.8 C 464.8,854.1 464.46163,855.1 463.72014,855.8 C 462.9,856.5 461.8815,856.8 460.41114,856.9 L 458.1,856.9 L 458.2,862.2 L 456.5,862.2 L 456.2,849.1 M 466.6,848.8 L 474.9,848.4 L 475.0,849.9 L 468.5,850.2 L 468.7,854.1 L 474.9,853.8 L 475.0,855.3 L 468.8,855.6 L 469.0,860.3 L 475.7,860.0 L 475.8,861.5 L 467.3,861.9 L 466.6,848.8 M 487.4,848.3 L 487.6,850.2 C 486.9,849.7 486.2809,849.3 485.57897,849.1 C 484.8,848.9 484.15553,848.8 483.39698,848.9 C 481.9,849.0 480.80143,849.6 480.09164,850.6 C 479.3,851.6 479.10513,852.9 479.26307,854.6 C 479.4,856.4 479.93785,857.6 480.81519,858.5 C 481.6,859.3 482.87728,859.7 484.37105,859.5 C 485.1,859.5 485.83185,859.3 486.4778,858.9 C 487.1,858.6 487.72771,858.1 488.2722,857.5 L 488.4,859.4 C 487.8,859.8 487.23335,860.2 486.5582,860.5 C 485.8,860.8 485.1691,860.9 484.39888,861.0 C 482.4,861.2 480.80762,860.7 479.55934,859.6 C 478.3,858.5 477.59034,856.9 477.39878,854.8 C 477.2,852.7 477.62433,851.0 478.65171,849.7 C 479.6,848.4 481.18101,847.6 483.15909,847.4 C 483.9,847.4 484.68579,847.4 485.39354,847.6 C 486.1,847.7 486.78546,847.9 487.4302,848.3 M 499.4,845.7 L 501.1,858.7 L 499.4,859.0 L 497.9,847.5 L 491.5,848.3 L 493.0,859.8 L 491.2,860.1 L 489.5,847.0 L 499.4,845.7 M 508.3,856.0 C 508.2,856.3 508.17095,856.6 508.0232,856.8 C 507.6,857.4 506.74981,857.9 505.2997,858.1 L 504.6,858.2 L 504.3,856.7 L 504.9,856.6 C 505.6,856.5 506.08019,856.4 506.31958,856.2 C 506.4,856.0 506.56879,855.9 506.63175,855.6 L 506.8,854.6 L 501.0,845.5 L 502.9,845.2 L 507.4,852.2 L 509.3,844.1 L 511.2,843.8 L 508.3,856.0 M 522.0,851.0 C 521.8,850.2 521.52327,849.7 520.99095,849.4 C 520.4,849.1 519.7315,849.1 518.7959,849.2 L 516.0,849.8 L 516.9,854.5 L 519.7,854.0 C 520.6,853.8 521.3496,853.4 521.71845,853.0 C 522.0,852.5 522.19732,851.8 522.03488,851.0 M 521.1,841.8 L 521.3,843.2 L 514.9,844.5 L 515.7,848.4 L 518.5,847.8 C 520.0,847.5 521.20442,847.6 522.11337,848.1 C 523.0,848.5 523.60744,849.4 523.86878,850.7 C 524.1,851.9 523.93285,853.0 523.28054,853.7 C 522.6,854.5 521.58171,855.1 520.141,855.4 L 515.5,856.3 L 512.8,843.5 L 521.1,841.8 M 526.6,854.0 L 526.2,852.6 C 527.4,852.0 528.06515,851.2 528.18923,850.2 C 528.3,848.6 527.97362,846.1 527.1367,842.7 L 526.6,840.5 L 534.1,838.7 L 537.3,851.4 L 535.5,851.8 L 532.8,840.5 L 528.6,841.5 L 529.0,843.1 C 529.8,846.3 530.13987,848.8 529.92765,850.4 C 529.7,852.0 528.61521,853.2 526.60475,854.0 M 546.6,835.1 L 550.3,847.7 L 548.6,848.2 L 545.6,837.7 L 543.0,849.8 L 540.7,850.5 L 537.1,837.9 L 538.8,837.4 L 541.8,847.9 L 544.3,835.8 L 546.6,835.1 M 549.6,834.2 L 551.2,833.7 L 553.3,839.8 L 557.3,831.7 L 559.4,831.0 L 556.2,837.5 L 563.8,843.4 L 561.9,844.0 L 555.5,839.0 L 554.0,842.1 L 555.3,846.1 L 553.6,846.7 L 549.6,834.2 M 566.0,830.5 L 566.0,837.4 L 570.5,835.8 L 566.0,830.5 M 564.4,829.2 L 566.3,828.5 L 575.5,839.1 L 573.8,839.7 L 571.5,837.0 L 566.0,839.0 L 566.0,842.6 L 564.3,843.2 L 564.4,829.21759"
       style="fill:#000000;stroke:none;stroke-width:2px;stroke-"
       id="text25080" />
    <path
       d="M 358.5,825.4 C 358.3,825.6 358.12093,825.9 357.88372,826.0 C 357.2,826.4 356.29505,826.5 354.87108,826.1 L 354.2,825.9 L 354.5,824.5 L 355.1,824.6 C 355.8,824.8 356.28849,824.8 356.58902,824.7 C 356.7,824.7 356.94648,824.6 357.11014,824.3 L 357.7,823.5 L 356.1,812.9 L 357.9,813.3 L 359.2,821.6 L 364.3,815.0 L 366.1,815.5 L 358.5,825.4 M 367.5,827.7 L 373.1,829.0 L 375.4,819.1 L 371.2,818.2 L 370.8,820.0 C 370.2,822.8 369.36459,825.1 368.29534,826.9 C 368.0,827.2 367.82375,827.5 367.53943,827.7 M 365.0,827.1 C 365.8,827.0 366.46843,826.5 366.84119,825.9 C 367.7,824.3 368.62842,821.9 369.34174,818.7 L 369.8,816.3 L 377.5,818.1 L 374.9,829.4 L 376.3,829.7 L 375.4,833.9 L 373.9,833.6 L 374.5,830.9 L 365.5,828.8 L 364.9,831.5 L 363.4,831.2 L 364.4,827.0 L 365.0,827.1 M 381.0,818.8 L 383.6,819.3 L 385.3,828.7 L 390.2,820.6 L 392.8,821.1 L 390.4,834.0 L 388.7,833.6 L 390.8,822.3 L 385.8,830.5 L 384.1,830.2 L 382.4,820.7 L 380.3,832.0 L 378.6,831.7 L 381.0,818.8 M 398.1,833.6 C 397.9,833.8 397.76589,834.1 397.54647,834.3 C 397.0,834.7 396.00833,834.8 394.55503,834.6 L 393.8,834.5 L 394.1,833.0 L 394.6,833.1 C 395.3,833.2 395.84142,833.2 396.13203,833.1 C 396.3,833.0 396.46911,832.9 396.61108,832.7 L 397.1,831.8 L 394.5,821.3 L 396.3,821.6 L 398.4,829.7 L 402.8,822.6 L 404.7,822.9 L 398.1,833.6 M 408.0,824.8 L 407.4,829.7 L 409.6,830.0 C 410.4,830.1 411.12196,830.0 411.6233,829.6 C 412.1,829.2 412.42498,828.6 412.52436,827.9 C 412.6,827.1 412.47538,826.5 412.08153,826.0 C 411.6,825.5 411.08091,825.2 410.2613,825.1 L 408.0,824.8 M 406.4,823.1 L 410.4,823.6 C 411.9,823.8 412.96322,824.3 413.62338,825.1 C 414.2,825.8 414.5428,826.8 414.3816,828.1 C 414.2,829.4 413.72105,830.3 412.88801,830.9 C 412.0,831.4 410.91762,831.6 409.45857,831.4 L 407.2,831.2 L 406.5,836.4 L 404.8,836.2 L 406.4,823.1 M 415.0,824.2 L 426.1,825.3 L 425.9,826.8 L 421.3,826.4 L 420.2,837.9 L 418.4,837.8 L 419.5,826.2 L 414.9,825.7 L 415.0,824.2 M 434.6,827.3 L 434.4,832.3 L 436.6,832.4 C 437.4,832.4 438.10953,832.3 438.58275,831.8 C 439.0,831.4 439.31352,830.8 439.35545,830.1 C 439.3,829.3 439.20393,828.7 438.77607,828.2 C 438.3,827.8 437.72176,827.5 436.89675,827.5 L 434.6,827.3 M 432.9,825.8 L 436.9,826.0 C 438.4,826.1 439.5338,826.5 440.24735,827.2 C 440.9,827.9 441.29289,828.9 441.22489,830.2 C 441.1,831.5 440.72699,832.4 439.93711,833.0 C 439.1,833.7 438.02672,833.9 436.55809,833.8 L 434.3,833.7 L 434.0,839.0 L 432.2,838.9 L 432.9,825.8 M 443.4,826.3 L 451.7,826.5 L 451.6,828.0 L 445.1,827.8 L 445.0,831.7 L 451.3,831.9 L 451.2,833.4 L 445.0,833.2 L 444.9,838.0 L 451.6,838.1 L 451.5,839.6 L 443.1,839.4 L 443.4,826.3 M 464.2,827.4 L 464.2,829.3 C 463.6,828.8 462.99444,828.3 462.31206,828.1 C 461.6,827.8 460.91642,827.7 460.15475,827.7 C 458.6,827.7 457.511,828.2 456.7233,829.1 C 455.9,830.0 455.55024,831.3 455.56745,833.1 C 455.5,834.8 455.99614,836.1 456.80211,837.0 C 457.6,837.9 458.76092,838.4 460.26085,838.4 C 461.0,838.4 461.73889,838.2 462.40997,837.9 C 463.0,837.7 463.72139,837.2 464.31351,836.7 L 464.3,838.5 C 463.7,839.0 463.05901,839.3 462.36388,839.5 C 461.6,839.7 460.94325,839.8 460.16986,839.8 C 458.1,839.9 456.61323,839.3 455.45868,838.1 C 454.3,836.9 453.71633,835.2 453.69547,833.1 C 453.6,831.0 454.22933,829.3 455.35982,828.1 C 456.4,826.9 458.04858,826.2 460.03482,826.2 C 460.8,826.2 461.55922,826.3 462.25269,826.5 C 462.9,826.7 463.60831,827.0 464.22179,827.4 M 476.4,825.9 L 477.0,839.0 L 475.3,839.1 L 474.7,827.5 L 468.3,827.8 L 468.8,839.4 L 467.1,839.5 L 466.4,826.4 L 476.4,825.9 M 484.4,836.9 C 484.3,837.2 484.23525,837.4 484.06613,837.7 C 483.6,838.2 482.70629,838.6 481.24029,838.7 L 480.5,838.8 L 480.4,837.3 L 480.9,837.2 C 481.6,837.2 482.16888,837.1 482.42492,836.9 C 482.5,836.8 482.70103,836.6 482.78651,836.3 L 483.1,835.4 L 478.1,825.8 L 480.0,825.6 L 483.8,833.1 L 486.5,825.1 L 488.4,825.0 L 484.4,836.9 M 498.5,833.2 C 498.4,832.4 498.15085,831.8 497.64688,831.4 C 497.1,831.1 496.42413,831.0 495.47508,831.1 L 492.6,831.4 L 493.1,836.2 L 496.0,835.9 C 496.9,835.8 497.6426,835.5 498.05276,835.0 C 498.4,834.6 498.6304,834.0 498.53978,833.2 M 498.4,823.9 L 498.6,825.3 L 492.0,826.0 L 492.4,830.0 L 495.3,829.6 C 496.8,829.5 498.02275,829.7 498.88619,830.2 C 499.7,830.7 500.25424,831.7 500.40005,833.0 C 500.5,834.2 500.25762,835.2 499.53737,836.0 C 498.8,836.7 497.72624,837.1 496.26481,837.3 L 491.5,837.8 L 490.1,824.8 L 498.4,823.9 M 502.8,836.5 L 502.6,835.1 C 503.8,834.6 504.53663,833.9 504.75409,832.9 C 505.0,831.3 504.91614,828.8 504.39718,825.3 L 504.0,823.1 L 511.7,821.9 L 513.7,834.9 L 511.9,835.2 L 510.2,823.7 L 506.0,824.3 L 506.2,825.9 C 506.7,829.2 506.82712,831.6 506.46436,833.3 C 506.1,834.8 504.90151,835.9 502.82312,836.5 M 524.5,819.6 L 527.0,832.5 L 525.3,832.8 L 523.2,822.0 L 519.6,833.9 L 517.2,834.3 L 514.8,821.4 L 516.5,821.1 L 518.5,831.9 L 522.2,820.0 L 524.5,819.6 M 527.5,819.0 L 529.3,818.6 L 530.7,824.9 L 535.5,817.2 L 537.7,816.7 L 533.9,822.9 L 540.8,829.4 L 538.9,829.9 L 533.0,824.3 L 531.2,827.2 L 532.2,831.4 L 530.4,831.8 L 527.5,819.0 M 544.3,816.8 L 543.6,823.7 L 548.3,822.5 L 544.3,816.8 M 542.9,815.4 L 544.8,814.9 L 553.0,826.3 L 551.2,826.8 L 549.2,823.8 L 543.4,825.3 L 543.1,828.8 L 541.3,829.3 L 542.9,815.40779"
       transform="translate(0,-2)"
       style="fill:#000000;stroke:none;stroke-width:2px;stroke-"
       id="text25084" />
    <path
       d="M 379.6,11.6 L 363.6,40.3 L 386.6,63.373345"
       transform="translate(13.224804,8.1584117)"
       style="color:#000000;fill:none;fill-rule:nonzero;stroke:#000000;stroke-width:2;"
       id="path27074" />
    <path
       d="M 481.5,62.9 L 505.0,40.3 L 490.0,10.755236"
       transform="translate(13.224804,8.1584117)"
       style="color:#000000;fill:none;fill-rule:nonzero;stroke:#000000;stroke-width:2;"
       id="path27076" />
    <path
       d="M 311.9,808.9 C 401.2,839.4 486.66954,838.6 568.4635,808.95316"
       transform="translate(13.224804,8.1584117)"
       style="color:#000000;fill:none;fill-rule:nonzero;stroke:none;stroke-width:2;;"
       id="path27078" />
    <path
       d="M 314.7,831.5 C 405.0,863.6 490.03681,860.7 570.34272,827.74534"
       transform="translate(13.224804,8.1584117)"
       style="color:#000000;fill:none;fill-rule:nonzero;stroke:none;stroke-width:2;"
       id="path28052" />
  </g>
</svg>
