<?xml version="1.0" encoding="UTF-8"?>
<!DOCTYPE svg PUBLIC "-//W3C//DTD SVG 1.1//EN" "http://www.w3.org/Graphics/SVG/1.1/DTD/svg11.dtd">
<!-- Creator: CorelDRAW 2020 (64-Bit) -->
<svg xmlns="http://www.w3.org/2000/svg" xml:space="preserve" width="1590px" height="1604px" version="1.1" style="shape-rendering:geometricPrecision; text-rendering:geometricPrecision; image-rendering:optimizeQuality; fill-rule:evenodd; clip-rule:evenodd"
viewBox="0 0 159000000 160400000"
 xmlns:xlink="http://www.w3.org/1999/xlink"
 xmlns:xodm="http://www.corel.com/coreldraw/odm/2003">
 <defs>
  <style type="text/css">
   <![CDATA[
    .str2 {stroke:black;stroke-width:800000;stroke-miterlimit:22.9256}
    .str0 {stroke:black;stroke-width:800000;stroke-linejoin:round;stroke-miterlimit:22.9256}
    .str1 {stroke:black;stroke-width:800000;stroke-linecap:round;stroke-linejoin:round;stroke-miterlimit:22.9256}
    .fil1 {fill:none}
    .fil3 {fill:black}
    .fil2 {fill:#A2260B}
    .fil0 {fill:#FFDF00}
    .fil4 {fill:#FFDF00;fill-rule:nonzero}
   ]]>
  </style>
 </defs>
 <g id="Слой_x0020_1">
  <metadata id="CorelCorpID_0Corel-Layer"/>
  <g>
   <path class="fil0" d="M25241000 68689000c4630000,0 6836000,-1356000 7666000,-2130000 747000,-695000 921000,-1337000 365000,-1846000 -733000,-673000 -1837000,-812000 -3133000,-852000 -1015000,1545000 -3313000,3886000 -4898000,4828000zm108518000 0c-4630000,0 -6836000,-1356000 -7666000,-2130000 -747000,-695000 -921000,-1337000 -365000,-1846000 733000,-673000 1837000,-812000 3133000,-852000 1015000,1545000 3313000,3886000 4898000,4828000zm19830000 -18210000c13000,37000 27000,75000 41000,112000l-41000 -112000zm-148178000 0c-13000,37000 -27000,75000 -41000,112000l41000 -112000zm74089000 84187000c-4783000,0 -9430000,-588000 -13870000,-1695000 -2172000,1744000 -4550000,2162000 -7133000,1252000 -23025000,-8533000 -39436000,-30695000 -39436000,-56690000 0,-1796000 78000,-3574000 232000,-5330000 3947000,0 6676000,445000 8450000,1751000 985000,724000 2429000,2671000 2125000,4437000 -98000,570000 -2646000,-1570000 -4398000,-858000 -513000,208000 226000,1588000 885000,2203000 1153000,1075000 2572000,902000 2576000,1429000 4000,660000 -1227000,326000 -2352000,1890000 -722000,1005000 -1050000,2011000 -805000,2367000 177000,256000 766000,207000 1522000,44000 939000,-202000 1489000,-729000 1697000,-622000 136000,70000 11000,725000 -92000,1327000 -87000,514000 75000,1081000 420000,1142000 358000,63000 835000,-308000 1146000,-783000 470000,-722000 955000,-1165000 1163000,-1065000 142000,69000 461000,2168000 2199000,3450000 504000,372000 978000,457000 1203000,406000 465000,-106000 644000,-1675000 496000,-2696000 -150000,-1038000 -1187000,-1666000 -1069000,-2028000 71000,-219000 2569000,-2000 2339000,-1222000 -60000,-318000 -838000,-415000 -1448000,-1195000 -973000,-1245000 -2306000,-578000 -2337000,-1152000 -26000,-474000 3334000,-142000 4285000,-2629000 294000,-769000 -982000,-281000 -1633000,-781000 -1686000,-1296000 -2901000,474000 -3297000,195000 -397000,-280000 138000,-2566000 -922000,-4078000 -1494000,-2132000 -4518000,-3047000 -5953000,-3047000 6921000,0 8350000,-688000 10632000,-2618000 1186000,-1004000 1737000,-3002000 1421000,-4115000 -283000,-991000 -1143000,-2049000 -2157000,-2242000 -1206000,-229000 -2618000,-293000 -4068000,-307000 278000,-969000 366000,-2034000 279000,-3389000 -92000,-1442000 -583000,-2873000 -1638000,-3888000 -1014000,-976000 -2748000,-1181000 -4127000,-346000 -1922000,1163000 -3873000,3210000 -5577000,5103000 -1077000,-1363000 -1430000,-3174000 -1500000,-5296000 -66000,-1971000 1223000,-4465000 2100000,-4564000 1212000,-138000 1662000,1710000 2969000,2562000 1356000,884000 2280000,672000 3352000,195000 389000,-372000 112000,-848000 179000,-1484000 1363000,-453000 3086000,441000 4141000,-2016000 -174000,-468000 -727000,-564000 -1063000,-1007000 701000,-549000 2263000,-669000 3157000,-3641000 -397000,-816000 -2299000,-302000 -2271000,-1298000 20000,-685000 -2304000,-398000 -3026000,-382000 1294000,-296000 3274000,-735000 2345000,-2644000 1227000,-1052000 1313000,-2898000 1295000,-3356000 -478000,-272000 -710000,-54000 -1406000,-234000 587000,-1131000 1568000,-1839000 -39000,-4453000 -3840000,-402000 -4291000,1270000 -4860000,1586000 -280000,-206000 -479000,-1180000 -640000,-1230000 -2106000,-53000 -2861000,2522000 -3083000,3090000 -440000,126000 -1195000,-891000 -1566000,-548000 -707000,655000 16000,3100000 -20000,4348000 -77000,-1585000 -1206000,-3006000 -2128000,-2567000 -395000,189000 -2217000,-2102000 -3260000,-1843000 -561000,139000 -1018000,1155000 -1217000,1828000 -389000,1320000 54000,2317000 -141000,2587000 -306000,423000 -1400000,-31000 -1734000,296000 -248000,244000 -428000,2055000 -237000,3855000 -602000,62000 -1315000,249000 -1834000,646000 -1277000,976000 -1490000,2542000 -1679000,2608000 -386000,135000 -1209000,-856000 -1586000,-790000 -453000,80000 -1198000,989000 -1375000,1743000 -333000,1427000 487000,3397000 240000,3714000 -376000,483000 -3321000,-1529000 -3732000,-808000 -1807000,3170000 354000,4625000 328000,5016000 -41000,620000 -1408000,355000 -1508000,968000 -361000,2212000 2211000,4213000 3577000,4194000 497000,-7000 1969000,-1168000 2761000,-683000 742000,455000 1565000,6917000 6131000,7396000 3051000,319000 5544000,-1753000 7598000,-4011000 465000,236000 978000,448000 1548000,651000 1745000,620000 3535000,592000 4954000,545000 -590000,830000 -1376000,1617000 -2381000,2315000 -4173000,2895000 -11691000,2515000 -13453000,2515000l-6855000 0 -3514000 3514000c-117000,1761000 -177000,3539000 -177000,5330000 0,38036000 26931000,69782000 62765000,77209000 3573000,806000 5621000,2345000 6143000,4617000 3260000,392000 6579000,594000 9944000,594000 3365000,0 6684000,-202000 9944000,-594000 522000,-2272000 2570000,-3811000 6143000,-4617000 35834000,-7427000 62765000,-39173000 62765000,-77209000 0,-1791000 -60000,-3569000 -177000,-5330000l-3514000 -3514000 -6855000 0c-1762000,0 -9280000,380000 -13453000,-2515000 -1005000,-698000 -1791000,-1485000 -2381000,-2315000 1419000,47000 3209000,75000 4954000,-545000 570000,-203000 1083000,-415000 1548000,-651000 2054000,2258000 4547000,4330000 7598000,4011000 4566000,-479000 5389000,-6941000 6131000,-7396000 792000,-485000 2264000,676000 2761000,683000 1366000,19000 3938000,-1982000 3577000,-4194000 -100000,-613000 -1467000,-348000 -1508000,-968000 -26000,-391000 2135000,-1846000 328000,-5016000 -411000,-721000 -3356000,1291000 -3732000,808000 -247000,-317000 573000,-2287000 240000,-3714000 -177000,-754000 -922000,-1663000 -1375000,-1743000 -377000,-66000 -1200000,925000 -1586000,790000 -189000,-66000 -402000,-1632000 -1679000,-2608000 -519000,-397000 -1232000,-584000 -1834000,-646000 191000,-1800000 11000,-3611000 -237000,-3855000 -334000,-327000 -1428000,127000 -1734000,-296000 -195000,-270000 248000,-1267000 -141000,-2587000 -199000,-673000 -656000,-1689000 -1217000,-1828000 -1043000,-259000 -2865000,2032000 -3260000,1843000 -922000,-439000 -2051000,982000 -2128000,2567000 -36000,-1248000 687000,-3693000 -20000,-4348000 -371000,-343000 -1126000,674000 -1566000,548000 -222000,-568000 -977000,-3143000 -3083000,-3090000 -161000,50000 -360000,1024000 -640000,1230000 -569000,-316000 -1020000,-1988000 -4860000,-1586000 -1607000,2614000 -626000,3322000 -39000,4453000 -696000,180000 -928000,-38000 -1406000,234000 -18000,458000 68000,2304000 1295000,3356000 -929000,1909000 1051000,2348000 2345000,2644000 -722000,-16000 -3046000,-303000 -3026000,382000 28000,996000 -1874000,482000 -2271000,1298000 894000,2972000 2456000,3092000 3157000,3641000 -336000,443000 -889000,539000 -1063000,1007000 1055000,2457000 2778000,1563000 4141000,2016000 67000,636000 -210000,1112000 179000,1484000 1072000,477000 1996000,689000 3352000,-195000 1307000,-852000 1757000,-2700000 2969000,-2562000 877000,99000 2166000,2593000 2100000,4564000 -70000,2122000 -423000,3933000 -1500000,5296000 -1704000,-1893000 -3655000,-3940000 -5577000,-5103000 -1379000,-835000 -3113000,-630000 -4127000,346000 -1055000,1015000 -1546000,2446000 -1638000,3888000 -87000,1355000 1000,2420000 279000,3389000 -1450000,14000 -2862000,78000 -4068000,307000 -1014000,193000 -1874000,1251000 -2157000,2242000 -316000,1113000 235000,3111000 1421000,4115000 2282000,1930000 3711000,2618000 10632000,2618000 -1435000,0 -4459000,915000 -5953000,3047000 -1060000,1512000 -525000,3798000 -922000,4078000 -396000,279000 -1611000,-1491000 -3297000,-195000 -651000,500000 -1927000,12000 -1633000,781000 951000,2487000 4311000,2155000 4285000,2629000 -31000,574000 -1364000,-93000 -2337000,1152000 -610000,780000 -1388000,877000 -1448000,1195000 -230000,1220000 2268000,1003000 2339000,1222000 118000,362000 -919000,990000 -1069000,2028000 -148000,1021000 31000,2590000 496000,2696000 225000,51000 699000,-34000 1203000,-406000 1738000,-1282000 2057000,-3381000 2199000,-3450000 208000,-100000 693000,343000 1163000,1065000 311000,475000 788000,846000 1146000,783000 345000,-61000 507000,-628000 420000,-1142000 -103000,-602000 -228000,-1257000 -92000,-1327000 208000,-107000 758000,420000 1697000,622000 756000,163000 1345000,212000 1522000,-44000 245000,-356000 -83000,-1362000 -805000,-2367000 -1125000,-1564000 -2356000,-1230000 -2352000,-1890000 4000,-527000 1423000,-354000 2576000,-1429000 659000,-615000 1398000,-1995000 885000,-2203000 -1752000,-712000 -4300000,1428000 -4398000,858000 -304000,-1766000 1140000,-3713000 2125000,-4437000 1774000,-1306000 4503000,-1751000 8450000,-1751000 154000,1756000 232000,3534000 232000,5330000 0,25995000 -16411000,48157000 -39436000,56690000 -2583000,910000 -4961000,492000 -7133000,-1252000 -4440000,1107000 -9087000,1695000 -13870000,1695000zm61131000 -73671000c481000,-569000 901000,-1260000 1292000,-2126000 416000,-922000 658000,-2087000 713000,-3503000 605000,501000 1198000,813000 1233000,1011000 97000,563000 -1115000,407000 -946000,953000 304000,979000 1064000,2278000 2547000,2539000 1030000,181000 2466000,-1817000 3195000,-445000 591000,1111000 -497000,3340000 -2124000,4187000 -735000,382000 -2219000,465000 -3852000,-640000 -546000,-370000 -1248000,-1087000 -2058000,-1976000zm3514000 -13843000c-852000,2069000 1421000,4023000 1302000,4553000 -67000,297000 -1899000,-301000 -3056000,-195000 -389000,-2230000 -1142000,-3528000 -687000,-4133000 221000,-292000 1287000,-40000 2441000,-225000zm-13348000 14256000c-308000,-1127000 -319000,-2246000 -85000,-3250000 481000,-2056000 2109000,-1167000 3325000,-359000 760000,505000 1623000,1537000 2608000,2724000 -319000,154000 -666000,293000 -1042000,417000 -1207000,396000 -2936000,462000 -4806000,468000zm-112428000 -413000c-481000,-569000 -901000,-1260000 -1292000,-2126000 -416000,-922000 -658000,-2087000 -713000,-3503000 -605000,501000 -1198000,813000 -1233000,1011000 -97000,563000 1115000,407000 946000,953000 -304000,979000 -1064000,2278000 -2547000,2539000 -1030000,181000 -2466000,-1817000 -3195000,-445000 -591000,1111000 497000,3340000 2124000,4187000 735000,382000 2219000,465000 3852000,-640000 546000,-370000 1248000,-1087000 2058000,-1976000zm-3514000 -13843000c852000,2069000 -1421000,4023000 -1302000,4553000 67000,297000 1899000,-301000 3056000,-195000 389000,-2230000 1142000,-3528000 687000,-4133000 -221000,-292000 -1287000,-40000 -2441000,-225000zm13348000 14256000c308000,-1127000 319000,-2246000 85000,-3250000 -481000,-2056000 -2109000,-1167000 -3325000,-359000 -760000,505000 -1623000,1537000 -2608000,2724000 319000,154000 666000,293000 1042000,417000 1207000,396000 2936000,462000 4806000,468000z"/>
   <path id="1" class="fil1 str0" d="M25241000 68689000c4630000,0 6836000,-1356000 7666000,-2130000 747000,-695000 921000,-1337000 365000,-1846000 -733000,-673000 -1837000,-812000 -3133000,-852000 -1015000,1545000 -3313000,3886000 -4898000,4828000zm108518000 0c-4630000,0 -6836000,-1356000 -7666000,-2130000 -747000,-695000 -921000,-1337000 -365000,-1846000 733000,-673000 1837000,-812000 3133000,-852000 1015000,1545000 3313000,3886000 4898000,4828000zm19830000 -18210000c13000,37000 27000,75000 41000,112000m-148219000 -112000c-13000,37000 -27000,75000 -41000,112000m74130000 84075000c-4783000,0 -9430000,-588000 -13870000,-1695000 -2172000,1744000 -4550000,2162000 -7133000,1252000 -23025000,-8533000 -39436000,-30695000 -39436000,-56690000 0,-1796000 78000,-3574000 232000,-5330000 3947000,0 6676000,445000 8450000,1751000 985000,724000 2429000,2671000 2125000,4437000 -98000,570000 -2646000,-1570000 -4398000,-858000 -513000,208000 226000,1588000 885000,2203000 1153000,1075000 2572000,902000 2576000,1429000 4000,660000 -1227000,326000 -2352000,1890000 -722000,1005000 -1050000,2011000 -805000,2367000 177000,256000 766000,207000 1522000,44000 939000,-202000 1489000,-729000 1697000,-622000 136000,70000 11000,725000 -92000,1327000 -87000,514000 75000,1081000 420000,1142000 358000,63000 835000,-308000 1146000,-783000 470000,-722000 955000,-1165000 1163000,-1065000 142000,69000 461000,2168000 2199000,3450000 504000,372000 978000,457000 1203000,406000 465000,-106000 644000,-1675000 496000,-2696000 -150000,-1038000 -1187000,-1666000 -1069000,-2028000 71000,-219000 2569000,-2000 2339000,-1222000 -60000,-318000 -838000,-415000 -1448000,-1195000 -973000,-1245000 -2306000,-578000 -2337000,-1152000 -26000,-474000 3334000,-142000 4285000,-2629000 294000,-769000 -982000,-281000 -1633000,-781000 -1686000,-1296000 -2901000,474000 -3297000,195000 -397000,-280000 138000,-2566000 -922000,-4078000 -1494000,-2132000 -4518000,-3047000 -5953000,-3047000 6921000,0 8350000,-688000 10632000,-2618000 1186000,-1004000 1737000,-3002000 1421000,-4115000 -283000,-991000 -1143000,-2049000 -2157000,-2242000 -1206000,-229000 -2618000,-293000 -4068000,-307000 278000,-969000 366000,-2034000 279000,-3389000 -92000,-1442000 -583000,-2873000 -1638000,-3888000 -1014000,-976000 -2748000,-1181000 -4127000,-346000 -1922000,1163000 -3873000,3210000 -5577000,5103000 -1077000,-1363000 -1430000,-3174000 -1500000,-5296000 -66000,-1971000 1223000,-4465000 2100000,-4564000 1212000,-138000 1662000,1710000 2969000,2562000 1356000,884000 2280000,672000 3352000,195000 389000,-372000 112000,-848000 179000,-1484000 1363000,-453000 3086000,441000 4141000,-2016000 -174000,-468000 -727000,-564000 -1063000,-1007000 701000,-549000 2263000,-669000 3157000,-3641000 -397000,-816000 -2299000,-302000 -2271000,-1298000 20000,-685000 -2304000,-398000 -3026000,-382000 1294000,-296000 3274000,-735000 2345000,-2644000 1227000,-1052000 1313000,-2898000 1295000,-3356000 -478000,-272000 -710000,-54000 -1406000,-234000 587000,-1131000 1568000,-1839000 -39000,-4453000 -3840000,-402000 -4291000,1270000 -4860000,1586000 -280000,-206000 -479000,-1180000 -640000,-1230000 -2106000,-53000 -2861000,2522000 -3083000,3090000 -440000,126000 -1195000,-891000 -1566000,-548000 -707000,655000 16000,3100000 -20000,4348000 -77000,-1585000 -1206000,-3006000 -2128000,-2567000 -395000,189000 -2217000,-2102000 -3260000,-1843000 -561000,139000 -1018000,1155000 -1217000,1828000 -389000,1320000 54000,2317000 -141000,2587000 -306000,423000 -1400000,-31000 -1734000,296000 -248000,244000 -428000,2055000 -237000,3855000 -602000,62000 -1315000,249000 -1834000,646000 -1277000,976000 -1490000,2542000 -1679000,2608000 -386000,135000 -1209000,-856000 -1586000,-790000 -453000,80000 -1198000,989000 -1375000,1743000 -333000,1427000 487000,3397000 240000,3714000 -376000,483000 -3321000,-1529000 -3732000,-808000 -1807000,3170000 354000,4625000 328000,5016000 -41000,620000 -1408000,355000 -1508000,968000 -361000,2212000 2211000,4213000 3577000,4194000 497000,-7000 1969000,-1168000 2761000,-683000 742000,455000 1565000,6917000 6131000,7396000 3051000,319000 5544000,-1753000 7598000,-4011000 465000,236000 978000,448000 1548000,651000 1745000,620000 3535000,592000 4954000,545000 -590000,830000 -1376000,1617000 -2381000,2315000 -4173000,2895000 -11691000,2515000 -13453000,2515000l-6855000 0 -3514000 3514000c-117000,1761000 -177000,3539000 -177000,5330000 0,38036000 26931000,69782000 62765000,77209000 3573000,806000 5621000,2345000 6143000,4617000 3260000,392000 6579000,594000 9944000,594000 3365000,0 6684000,-202000 9944000,-594000 522000,-2272000 2570000,-3811000 6143000,-4617000 35834000,-7427000 62765000,-39173000 62765000,-77209000 0,-1791000 -60000,-3569000 -177000,-5330000l-3514000 -3514000 -6855000 0c-1762000,0 -9280000,380000 -13453000,-2515000 -1005000,-698000 -1791000,-1485000 -2381000,-2315000 1419000,47000 3209000,75000 4954000,-545000 570000,-203000 1083000,-415000 1548000,-651000 2054000,2258000 4547000,4330000 7598000,4011000 4566000,-479000 5389000,-6941000 6131000,-7396000 792000,-485000 2264000,676000 2761000,683000 1366000,19000 3938000,-1982000 3577000,-4194000 -100000,-613000 -1467000,-348000 -1508000,-968000 -26000,-391000 2135000,-1846000 328000,-5016000 -411000,-721000 -3356000,1291000 -3732000,808000 -247000,-317000 573000,-2287000 240000,-3714000 -177000,-754000 -922000,-1663000 -1375000,-1743000 -377000,-66000 -1200000,925000 -1586000,790000 -189000,-66000 -402000,-1632000 -1679000,-2608000 -519000,-397000 -1232000,-584000 -1834000,-646000 191000,-1800000 11000,-3611000 -237000,-3855000 -334000,-327000 -1428000,127000 -1734000,-296000 -195000,-270000 248000,-1267000 -141000,-2587000 -199000,-673000 -656000,-1689000 -1217000,-1828000 -1043000,-259000 -2865000,2032000 -3260000,1843000 -922000,-439000 -2051000,982000 -2128000,2567000 -36000,-1248000 687000,-3693000 -20000,-4348000 -371000,-343000 -1126000,674000 -1566000,548000 -222000,-568000 -977000,-3143000 -3083000,-3090000 -161000,50000 -360000,1024000 -640000,1230000 -569000,-316000 -1020000,-1988000 -4860000,-1586000 -1607000,2614000 -626000,3322000 -39000,4453000 -696000,180000 -928000,-38000 -1406000,234000 -18000,458000 68000,2304000 1295000,3356000 -929000,1909000 1051000,2348000 2345000,2644000 -722000,-16000 -3046000,-303000 -3026000,382000 28000,996000 -1874000,482000 -2271000,1298000 894000,2972000 2456000,3092000 3157000,3641000 -336000,443000 -889000,539000 -1063000,1007000 1055000,2457000 2778000,1563000 4141000,2016000 67000,636000 -210000,1112000 179000,1484000 1072000,477000 1996000,689000 3352000,-195000 1307000,-852000 1757000,-2700000 2969000,-2562000 877000,99000 2166000,2593000 2100000,4564000 -70000,2122000 -423000,3933000 -1500000,5296000 -1704000,-1893000 -3655000,-3940000 -5577000,-5103000 -1379000,-835000 -3113000,-630000 -4127000,346000 -1055000,1015000 -1546000,2446000 -1638000,3888000 -87000,1355000 1000,2420000 279000,3389000 -1450000,14000 -2862000,78000 -4068000,307000 -1014000,193000 -1874000,1251000 -2157000,2242000 -316000,1113000 235000,3111000 1421000,4115000 2282000,1930000 3711000,2618000 10632000,2618000 -1435000,0 -4459000,915000 -5953000,3047000 -1060000,1512000 -525000,3798000 -922000,4078000 -396000,279000 -1611000,-1491000 -3297000,-195000 -651000,500000 -1927000,12000 -1633000,781000 951000,2487000 4311000,2155000 4285000,2629000 -31000,574000 -1364000,-93000 -2337000,1152000 -610000,780000 -1388000,877000 -1448000,1195000 -230000,1220000 2268000,1003000 2339000,1222000 118000,362000 -919000,990000 -1069000,2028000 -148000,1021000 31000,2590000 496000,2696000 225000,51000 699000,-34000 1203000,-406000 1738000,-1282000 2057000,-3381000 2199000,-3450000 208000,-100000 693000,343000 1163000,1065000 311000,475000 788000,846000 1146000,783000 345000,-61000 507000,-628000 420000,-1142000 -103000,-602000 -228000,-1257000 -92000,-1327000 208000,-107000 758000,420000 1697000,622000 756000,163000 1345000,212000 1522000,-44000 245000,-356000 -83000,-1362000 -805000,-2367000 -1125000,-1564000 -2356000,-1230000 -2352000,-1890000 4000,-527000 1423000,-354000 2576000,-1429000 659000,-615000 1398000,-1995000 885000,-2203000 -1752000,-712000 -4300000,1428000 -4398000,858000 -304000,-1766000 1140000,-3713000 2125000,-4437000 1774000,-1306000 4503000,-1751000 8450000,-1751000 154000,1756000 232000,3534000 232000,5330000 0,25995000 -16411000,48157000 -39436000,56690000 -2583000,910000 -4961000,492000 -7133000,-1252000 -4440000,1107000 -9087000,1695000 -13870000,1695000zm61131000 -73671000c481000,-569000 901000,-1260000 1292000,-2126000 416000,-922000 658000,-2087000 713000,-3503000 605000,501000 1198000,813000 1233000,1011000 97000,563000 -1115000,407000 -946000,953000 304000,979000 1064000,2278000 2547000,2539000 1030000,181000 2466000,-1817000 3195000,-445000 591000,1111000 -497000,3340000 -2124000,4187000 -735000,382000 -2219000,465000 -3852000,-640000 -546000,-370000 -1248000,-1087000 -2058000,-1976000zm3514000 -13843000c-852000,2069000 1421000,4023000 1302000,4553000 -67000,297000 -1899000,-301000 -3056000,-195000 -389000,-2230000 -1142000,-3528000 -687000,-4133000 221000,-292000 1287000,-40000 2441000,-225000zm-13348000 14256000c-308000,-1127000 -319000,-2246000 -85000,-3250000 481000,-2056000 2109000,-1167000 3325000,-359000 760000,505000 1623000,1537000 2608000,2724000 -319000,154000 -666000,293000 -1042000,417000 -1207000,396000 -2936000,462000 -4806000,468000zm-112428000 -413000c-481000,-569000 -901000,-1260000 -1292000,-2126000 -416000,-922000 -658000,-2087000 -713000,-3503000 -605000,501000 -1198000,813000 -1233000,1011000 -97000,563000 1115000,407000 946000,953000 -304000,979000 -1064000,2278000 -2547000,2539000 -1030000,181000 -2466000,-1817000 -3195000,-445000 -591000,1111000 497000,3340000 2124000,4187000 735000,382000 2219000,465000 3852000,-640000 546000,-370000 1248000,-1087000 2058000,-1976000zm-3514000 -13843000c852000,2069000 -1421000,4023000 -1302000,4553000 67000,297000 1899000,-301000 3056000,-195000 389000,-2230000 1142000,-3528000 687000,-4133000 -221000,-292000 -1287000,-40000 -2441000,-225000zm13348000 14256000c308000,-1127000 319000,-2246000 85000,-3250000 -481000,-2056000 -2109000,-1167000 -3325000,-359000 -760000,505000 -1623000,1537000 -2608000,2724000 319000,154000 666000,293000 1042000,417000 1207000,396000 2936000,462000 4806000,468000z"/>
  </g>
  <path class="fil2" d="M154967000 72203000l-12048000 0c146000,1757000 220000,3535000 220000,5330000 0,26641000 -16584000,50494000 -41529000,59692000 -3107000,1146000 -6185000,813000 -8890000,-813000 -4338000,970000 -8772000,1454000 -13220000,1454000 -4448000,0 -8882000,-484000 -13220000,-1454000 -2705000,1626000 -5783000,1959000 -8890000,813000 -24945000,-9198000 -41529000,-33051000 -41529000,-59692000 0,-1795000 74000,-3573000 220000,-5330000l-12048000 0c-123000,1760000 -185000,3538000 -185000,5330000 0,35837000 25210000,66763000 60219000,74077000 3130000,654000 6145000,2088000 7718000,4772000 2564000,248000 5139000,371000 7715000,371000 2576000,0 5151000,-123000 7715000,-371000 1573000,-2684000 4588000,-4118000 7718000,-4772000 35009000,-7314000 60219000,-38240000 60219000,-74077000 0,-1792000 -62000,-3570000 -185000,-5330000z"/>
  <path class="fil0 str1" d="M32907000 92067000c-414000,-197000 -712000,-558000 -926000,-832000 -813000,-1043000 -666000,-1746000 -984000,-1758000 -388000,-14000 -784000,1441000 -1373000,2120000 13000,472000 -38000,947000 97000,1399000 113000,382000 427000,889000 617000,925000 246000,47000 1046000,-181000 1433000,-472000 488000,-367000 725000,-931000 1136000,-1382000z"/>
  <path class="fil0 str1" d="M33829000 88915000c-1738000,-1282000 -2057000,-3381000 -2199000,-3450000 -208000,-100000 -693000,343000 -1163000,1065000 -311000,475000 -788000,846000 -1146000,783000 -345000,-61000 -507000,-628000 -420000,-1142000 103000,-602000 228000,-1257000 92000,-1327000 -208000,-107000 -758000,420000 -1697000,622000 -368000,686000 -912000,1484000 -1034000,2253000 -119000,753000 -33000,1367000 436000,1969000 158000,203000 861000,-159000 1088000,62000 177000,173000 -184000,681000 -119000,1599000 21000,286000 432000,945000 757000,1021000 199000,46000 645000,-133000 1200000,-773000 589000,-679000 985000,-2134000 1373000,-2120000 318000,12000 171000,715000 984000,1758000 214000,274000 512000,635000 926000,832000 132000,63000 352000,159000 494000,57000 267000,-191000 436000,-748000 463000,-1128000 71000,-1003000 -2000,-1456000 -35000,-2081000z"/>
  <path class="fil0 str1" d="M126093000 92067000c414000,-197000 712000,-558000 926000,-832000 813000,-1043000 666000,-1746000 984000,-1758000 388000,-14000 784000,1441000 1373000,2120000 -13000,472000 38000,947000 -97000,1399000 -113000,382000 -427000,889000 -617000,925000 -246000,47000 -1046000,-181000 -1433000,-472000 -488000,-367000 -725000,-931000 -1136000,-1382000z"/>
  <path class="fil0 str1" d="M125171000 88915000c1738000,-1282000 2057000,-3381000 2199000,-3450000 208000,-100000 693000,343000 1163000,1065000 311000,475000 788000,846000 1146000,783000 345000,-61000 507000,-628000 420000,-1142000 -103000,-602000 -228000,-1257000 -92000,-1327000 208000,-107000 758000,420000 1697000,622000 368000,686000 912000,1484000 1034000,2253000 119000,753000 33000,1367000 -436000,1969000 -158000,203000 -861000,-159000 -1088000,62000 -177000,173000 184000,681000 119000,1599000 -21000,286000 -432000,945000 -757000,1021000 -199000,46000 -645000,-133000 -1200000,-773000 -589000,-679000 -985000,-2134000 -1373000,-2120000 -318000,12000 -171000,715000 -984000,1758000 -214000,274000 -512000,635000 -926000,832000 -132000,63000 -352000,159000 -494000,57000 -267000,-191000 -436000,-748000 -463000,-1128000 -71000,-1003000 2000,-1456000 35000,-2081000z"/>
  <g>
   <path class="fil1 str1" d="M22355000 60523000c-568000,685000 -1177000,1422000 -1829000,2140000m-8922000 -19993000c551000,-56000 1009000,-7000 1138000,82000 235000,162000 626000,944000 682000,1740000 75000,1089000 -262000,1781000 -105000,2143000 215000,496000 1200000,-163000 1445000,320000 34000,65000 64000,131000 91000,196000m1754000 4359000c437000,40000 777000,180000 890000,507000 552000,1608000 -302000,2658000 -1135000,3349000m2005000 5629000c579000,-636000 1215000,-1361000 1889000,-2109000"/>
   <path class="fil1 str1" d="M30139000 63861000c-538000,-17000 -1110000,-17000 -1703000,-31000 -404000,-9000 -880000,11000 -1408000,29000m1175000 -2451000c1018000,3000 2078000,-12000 3118000,-2000"/>
  </g>
  <g>
   <path class="fil1 str1" d="M136645000 60523000c568000,685000 1177000,1422000 1829000,2140000m8922000 -19993000c-551000,-56000 -1009000,-7000 -1138000,82000 -235000,162000 -626000,944000 -682000,1740000 -75000,1089000 262000,1781000 105000,2143000 -215000,496000 -1200000,-163000 -1445000,320000 -34000,65000 -64000,131000 -91000,196000m-1754000 4359000c-437000,40000 -777000,180000 -890000,507000 -552000,1608000 302000,2658000 1135000,3349000m-2005000 5629000c-579000,-636000 -1215000,-1361000 -1889000,-2109000"/>
   <path class="fil1 str1" d="M128861000 63861000c538000,-17000 1110000,-17000 1703000,-31000 404000,-9000 880000,11000 1408000,29000m-1175000 -2451000c-1018000,3000 -2078000,-12000 -3118000,-2000"/>
  </g>
  <path class="fil0 str2" d="M79500000 132380000c-800000,0 -1356000,-13000 -2037000,-224000 -2670000,-8174000 -7173000,-9339000 -15685000,-9274000 -13129000,100000 -25550000,-8320000 -24987000,-25358000 4570000,-2717000 5209000,-8984000 5930000,-15434000 400000,-3575000 338000,-9622000 -469000,-14282000 -1355000,-7830000 -3367000,-11708000 -9946000,-11864000 4688000,-22535000 0,0 4688000,-22535000 5489000,0 11846000,-1316000 18566000,-7494000 5292000,-4865000 14340000,-8483000 23940000,-1141000 9600000,-7342000 18648000,-3724000 23940000,1141000 6720000,6178000 13077000,7494000 18566000,7494000 4688000,22535000 0,0 4688000,22535000 -6579000,156000 -8591000,4034000 -9946000,11864000 -807000,4660000 -869000,10707000 -469000,14282000 721000,6450000 1360000,12717000 5930000,15434000 563000,17038000 -11858000,25458000 -24987000,25358000 -8512000,-65000 -13015000,1100000 -15685000,9274000 -681000,211000 -1237000,224000 -2037000,224000z"/>
  <polygon class="fil2" points="76303000,65944000 76303000,62060000 61969000,47761000 56779000,47761000 49010000,55530000 55507000,62026000 60698000,62026000 65235000,57489000 60045000,52298000 56779000,55530000 58738000,57489000 60045000,56182000 61316000,57489000 58738000,60066000 54201000,55530000 60045000,49720000 "/>
  <polygon class="fil2" points="82697000,65944000 82697000,62060000 96996000,47761000 102186000,47761000 109990000,55530000 103493000,62026000 98302000,62026000 93765000,57489000 98955000,52298000 102186000,55530000 100262000,57489000 98955000,56182000 97649000,57489000 100262000,60066000 104799000,55530000 98955000,49720000 "/>
  <g>
   <polygon class="fil0" points="98976000,5217000 98976000,287000 103948000,5217000 108878000,287000 108878000,5217000 113850000,5217000 108878000,10188000 113850000,15118000 108878000,15118000 108878000,20090000 103948000,15118000 98976000,20090000 98976000,15118000 94047000,15118000 98976000,10188000 94047000,5217000 "/>
   <path id="1" class="fil2" d="M98976000 5217000l0 -4930000 4972000 4930000 4930000 -4930000 0 4930000 4972000 0 -4972000 4971000 4972000 4930000 -4972000 0 0 4972000 -4930000 -4972000 -4972000 4972000 0 -4972000 -4929000 0 4929000 -4930000 -4929000 -4971000 4929000 0zm1600000 -1097000l0 1097000 0 1600000 -1600000 0 -1096000 0 2228000 2246000 1123000 1133000 -1123000 1123000 -2199000 2199000 1067000 0 1600000 0 0 1600000 0 1110000 2241000 -2241000 1133000 -1133000 1129000 1139000 2199000 2218000 0 -1093000 0 -1600000 1600000 0 1092000 0 -2217000 -2199000 -1139000 -1129000 1133000 -1133000 2240000 -2240000 -1109000 0 -1600000 0 0 -1600000 0 -1067000 -2199000 2198000 -1123000 1123000 -1133000 -1123000 -2247000 -2228000z"/>
  </g>
  <g>
   <polygon class="fil0" points="74527000,5217000 74527000,245000 79500000,5217000 84429000,245000 84429000,5217000 89402000,5217000 84429000,10146000 89402000,15118000 84429000,15118000 84429000,20048000 79500000,15118000 74527000,20048000 74527000,15118000 69598000,15118000 74527000,10146000 69598000,5217000 "/>
   <path id="1" class="fil2" d="M74527000 5217000l0 -4972000 4973000 4972000 4929000 -4972000 0 4972000 4973000 0 -4973000 4929000 4973000 4972000 -4973000 0 0 4930000 -4929000 -4930000 -4973000 4930000 0 -4930000 -4929000 0 4929000 -4972000 -4929000 -4929000 4929000 0zm1600000 -1110000l0 1110000 0 1600000 -1600000 0 -1066000 0 2198000 2198000 1123000 1123000 -1123000 1133000 -2228000 2247000 1096000 0 1600000 0 0 1600000 0 1097000 2248000 -2228000 1133000 -1123000 1123000 1123000 2198000 2198000 0 -1067000 0 -1600000 1600000 0 1110000 0 -2241000 -2241000 -1133000 -1133000 1139000 -1129000 2217000 -2198000 -1092000 0 -1600000 0 0 -1600000 0 -1092000 -2198000 2217000 -1129000 1139000 -1133000 -1133000 -2242000 -2241000z"/>
  </g>
  <g>
   <polygon class="fil0" points="50123000,5217000 50123000,287000 55053000,5217000 60024000,287000 60024000,5217000 64954000,5217000 60024000,10188000 64954000,15118000 60024000,15118000 60024000,20090000 55053000,15118000 50123000,20090000 50123000,15118000 45151000,15118000 50123000,10188000 45151000,5217000 "/>
   <path id="1" class="fil2" d="M50123000 5217000l0 -4930000 4930000 4930000 4971000 -4930000 0 4930000 4930000 0 -4930000 4971000 4930000 4930000 -4930000 0 0 4972000 -4971000 -4972000 -4930000 4972000 0 -4972000 -4972000 0 4972000 -4930000 -4972000 -4971000 4972000 0zm1600000 -1068000l0 1068000 0 1600000 -1600000 0 -1109000 0 2240000 2240000 1133000 1133000 -1139000 1129000 -2218000 2199000 1093000 0 1600000 0 0 1600000 0 1093000 2198000 -2218000 1130000 -1139000 1133000 1133000 2240000 2241000 0 -1110000 0 -1600000 1600000 0 1067000 0 -2198000 -2199000 -1123000 -1123000 1123000 -1133000 2228000 -2246000 -1097000 0 -1600000 0 0 -1600000 0 -1097000 -2246000 2228000 -1133000 1123000 -1124000 -1123000 -2198000 -2199000z"/>
  </g>
  <g>
   <path class="fil3" d="M79499000 46978000l-4014000 4014000 4021000 4021000 4024000 -4005000 -4031000 -4030000zm0 -1132000l-5145000 5146000 5149000 5149000 5158000 -5133000 -5162000 -5162000z"/>
  </g>
  <g>
   <path class="fil3" d="M45004000 91722000l25749000 0 0 -20496000 -6403000 6403000 -566000 567000 -565000 -570000 -5740000 -5793000 -234000 -237000 0 -326000 0 -6444000 -2566000 0 -331000 0 -235000 -235000 -8497000 -8496000 -565000 -565000 565000 -566000 9769000 -9769000 234000 -234000 332000 0 4524000 0 0 -4528000 0 -329000 238000 -237000 9806000 -9762000 566000 -563000 562000 563000 7870000 7870000 7873000 -7873000 566000 -566000 565000 566000 9769000 9768000 234000 234000 0 332000 0 4525000 4488000 0 327000 0 236000 234000 9809000 9766000 568000 566000 -565000 565000 -8500000 8499000 -235000 235000 -331000 0 -2566000 0 0 6444000 0 326000 -234000 237000 -5740000 5793000 -565000 570000 -566000 -567000 -6403000 -6403000 0 20496000 25749000 0c-783000,-2806000 -1113000,-5787000 -1416000,-8522000l-76000 -689000c-260000,-2320000 -337000,-4968000 -250000,-7619000 88000,-2695000 345000,-5386000 750000,-7730000 596000,-3442000 1398000,-6599000 2862000,-9132000 1397000,-2415000 3374000,-4243000 6303000,-5185000 -471000,-2260000 -947000,-4546000 -1538000,-7402000 -421000,-2038000 -984000,-4737000 -1541000,-7413000l-202000 -965000c-3352000,-313000 -6447000,-1141000 -9356000,-2473000 -3076000,-1408000 -5934000,-3373000 -8663000,-5882000 -2919000,-2684000 -6123000,-4126000 -9378000,-4282000 -3227000,-155000 -6531000,952000 -9684000,3363000l-1823000 1394000 -484000 370000 -484000 -370000 -1823000 -1394000c-3153000,-2411000 -6457000,-3518000 -9684000,-3363000 -3255000,156000 -6459000,1598000 -9378000,4282000 -2729000,2509000 -5587000,4474000 -8663000,5882000 -2909000,1332000 -6004000,2160000 -9356000,2473000l-202000 965000c-557000,2676000 -1120000,5375000 -1541000,7413000 -591000,2856000 -1067000,5142000 -1538000,7402000 2929000,942000 4906000,2770000 6303000,5185000 1464000,2533000 2266000,5690000 2862000,9132000 405000,2344000 662000,5035000 750000,7730000 87000,2651000 10000,5299000 -250000,7619000l-77000 690000c-302000,2735000 -632000,5716000 -1415000,8521000zm-9105000 -38318000c6203000,1603000 8145000,7170000 9309000,13892000 796000,4595000 1010000,10513000 494000,15128000 -359000,3216000 -707000,6844000 -1774000,10098000l27625000 0 0 -22003000 -612000 -612000 -7156000 7157000 -5740000 -5794000 0 -7244000 -3366000 0 -8497000 -8496000 9769000 -9769000 5324000 0 0 -5328000 9807000 -9762000 8435000 8435000 8439000 -8439000 9769000 9769000 0 5325000 5287000 0 9809000 9765000 -8500000 8500000 -3366000 0 0 7244000 -5740000 5794000 -7156000 -7157000 -612000 612000 0 22003000 27625000 0c-1067000,-3254000 -1415000,-6882000 -1774000,-10098000 -516000,-4615000 -302000,-10533000 494000,-15128000 1164000,-6722000 3106000,-12289000 9309000,-13892000 -564000,-2706000 -1129000,-5413000 -1689000,-8120000 -618000,-2989000 -1241000,-5977000 -1864000,-8965000 -6982000,-519000 -12799000,-3287000 -18138000,-8196000 -6095000,-5604000 -13443000,-6047000 -20088000,-966000l-1822000 1393000 -1822000 -1393000c-6645000,-5081000 -13993000,-4638000 -20088000,966000 -5339000,4909000 -11156000,7677000 -18138000,8196000 -623000,2988000 -1246000,5976000 -1864000,8965000 -560000,2707000 -1125000,5414000 -1689000,8120000z"/>
  </g>
  <path class="fil2" d="M82697000 97272000l0 -28715000 9762000 -9762000 6496000 6462000 0 5190000 -3746000 3782000 -5844000 -5844000 3232000 -3231000 1959000 1925000 -1307000 1306000 1307000 1306000 2475000 -2475000 -4572000 -4537000 -7012000 7012000 0 24831000 30402000 0c449000,981000 988000,1906000 1641000,2750000l-34793000 0z"/>
  <path class="fil2" d="M76303000 97272000l0 -28715000 -9762000 -9762000 -6496000 6462000 0 5190000 3746000 3782000 5844000 -5844000 -3232000 -3231000 -1959000 1925000 1307000 1306000 -1307000 1306000 -2475000 -2475000 4572000 -4537000 7012000 7012000 0 24831000 -30402000 0c-449000,981000 -988000,1906000 -1641000,2750000l34793000 0z"/>
  <path class="fil2" d="M119224000 99076000l-38349000 0 0 -37772000 14850000 -14850000 0 -5190000 -7769000 -7768000 -6497000 6497000 0 5156000 4538000 4537000 5190000 -5191000 -3231000 -3230000 -1925000 1958000 1307000 1307000 -1307000 1306000 -2612000 -2578000 4537000 -4537000 5844000 5844000 -14300000 14230000 -14265000 -14265000 5844000 -5844000 4537000 4537000 -2613000 2578000 -1306000 -1306000 1306000 -1307000 -1924000 -1959000 -3231000 3231000 5190000 5190000 4537000 -4537000 0 -5120000 -6496000 -6497000 -7804000 7768000 0 5190000 14850000 14850000 0 37772000 -38349000 0c111000,6743000 2599000,12918000 8360000,16887000 3966000,2733000 8838000,3956000 13619000,3919000 8725000,-66000 14413000,1345000 17745000,9161000 3332000,-7816000 9020000,-9227000 17745000,-9161000 4781000,37000 9653000,-1186000 13619000,-3919000 5761000,-3969000 8249000,-10144000 8360000,-16887000z"/>
  <polygon class="fil0" points="66987000,145345000 67166000,144209000 68132000,145526000 69447000,144570000 69267000,145706000 70412000,145887000 69086000,146851000 70051000,148168000 68906000,147986000 68724000,149131000 67770000,147806000 66444000,148770000 66625000,147625000 65490000,147445000 66805000,146490000 65851000,145165000 "/>
  <path class="fil3" d="M3046000 52712000c-104000,-337000 204000,-220000 375000,-117000 866000,519000 1372000,1251000 2205000,1822000 655000,449000 1648000,902000 2305000,1347000 443000,300000 552000,631000 -25000,604000 -1116000,-52000 -2118000,-611000 -2954000,-1211000 -809000,-581000 -1610000,-1488000 -1906000,-2445000z"/>
  <path class="fil3" d="M8769000 56112000c-345000,-74000 -111000,-327000 81000,-384000 900000,-267000 1934000,-569000 2839000,-1017000 712000,-351000 2464000,-972000 3102000,-1020000 266000,-20000 406000,114000 192000,353000 -712000,791000 -1858000,1321000 -2790000,1757000 -902000,422000 -2445000,520000 -3424000,311000z"/>
  <path class="fil3" d="M10551000 45941000c253000,-517000 611000,-502000 523000,-11000 -227000,1259000 -893000,3124000 -1528000,5976000 -280000,1258000 -785000,5378000 -958000,6152000 -113000,505000 -336000,711000 -583000,-137000 -311000,-1072000 138000,-4763000 371000,-5765000 380000,-1626000 580000,-2953000 2175000,-6215000z"/>
  <g>
   <path class="fil3" d="M16318000 39553000c25000,-389000 297000,-146000 433000,27000 688000,879000 920000,1834000 1554000,2753000 498000,722000 1343000,1582000 1846000,2301000 338000,485000 319000,870000 -266000,614000 -1130000,-496000 -1943000,-1468000 -2568000,-2418000 -605000,-919000 -1072000,-2173000 -999000,-3277000z"/>
   <path class="fil3" d="M20877000 45325000c-327000,-212000 16000,-381000 235000,-364000 1035000,80000 2221000,178000 3333000,75000 873000,-82000 2927000,-29000 3604000,174000 282000,84000 373000,278000 57000,440000 -1047000,535000 -2439000,628000 -3573000,709000 -1098000,79000 -2729000,-430000 -3656000,-1034000z"/>
   <path class="fil3" d="M26740000 35536000c466000,-434000 829000,-277000 544000,196000 -733000,1209000 -2157000,2869000 -3941000,5561000 -787000,1187000 -2938000,5238000 -3423000,5969000 -316000,476000 -628000,601000 -546000,-372000 102000,-1230000 2026000,-4861000 2663000,-5801000 1036000,-1528000 1767000,-2818000 4703000,-5553000z"/>
  </g>
  <path class="fil3" d="M155954000 52712000c104000,-337000 -204000,-220000 -375000,-117000 -866000,519000 -1372000,1251000 -2205000,1822000 -655000,449000 -1648000,902000 -2305000,1347000 -443000,300000 -552000,631000 25000,604000 1116000,-52000 2118000,-611000 2954000,-1211000 809000,-581000 1610000,-1488000 1906000,-2445000z"/>
  <path class="fil3" d="M150231000 56112000c345000,-74000 111000,-327000 -81000,-384000 -900000,-267000 -1934000,-569000 -2839000,-1017000 -712000,-351000 -2464000,-972000 -3102000,-1020000 -266000,-20000 -406000,114000 -192000,353000 712000,791000 1858000,1321000 2790000,1757000 902000,422000 2445000,520000 3424000,311000z"/>
  <path class="fil3" d="M148449000 45941000c-253000,-517000 -611000,-502000 -523000,-11000 227000,1259000 893000,3124000 1528000,5976000 280000,1258000 785000,5378000 958000,6152000 113000,505000 336000,711000 583000,-137000 311000,-1072000 -138000,-4763000 -371000,-5765000 -380000,-1626000 -580000,-2953000 -2175000,-6215000z"/>
  <g>
   <path class="fil3" d="M142682000 39553000c-25000,-389000 -297000,-146000 -433000,27000 -688000,879000 -920000,1834000 -1554000,2753000 -498000,722000 -1343000,1582000 -1846000,2301000 -338000,485000 -319000,870000 266000,614000 1130000,-496000 1943000,-1468000 2568000,-2418000 605000,-919000 1072000,-2173000 999000,-3277000z"/>
   <path class="fil3" d="M138123000 45325000c327000,-212000 -16000,-381000 -235000,-364000 -1035000,80000 -2221000,178000 -3333000,75000 -873000,-82000 -2927000,-29000 -3604000,174000 -282000,84000 -373000,278000 -57000,440000 1047000,535000 2439000,628000 3573000,709000 1098000,79000 2729000,-430000 3656000,-1034000z"/>
   <path class="fil3" d="M132260000 35536000c-466000,-434000 -829000,-277000 -544000,196000 733000,1209000 2157000,2869000 3941000,5561000 787000,1187000 2938000,5238000 3423000,5969000 316000,476000 628000,601000 546000,-372000 -102000,-1230000 -2026000,-4861000 -2663000,-5801000 -1036000,-1528000 -1767000,-2818000 -4703000,-5553000z"/>
  </g>
  <path class="fil4" d="M10825000 77409000c750000,-19000 1470000,-19000 2002000,41000l30000 -10000c0,0 -41000,-418000 -49000,-736000 -8000,-309000 12000,-728000 12000,-728000l-31000 -18000c-568000,87000 -1247000,123000 -1997000,142000l-230000 6000c-990000,25000 -1770000,427000 -1743000,1463000 12000,490000 170000,1282000 613000,1914000l-1004000 26000c-750000,19000 -1461000,0 -2003000,-59000l-29000 10000c0,0 41000,436000 49000,754000 8000,309000 -11000,747000 -11000,747000l30000 17000c568000,-87000 1247000,-141000 1997000,-160000l2449000 -62000c750000,-19000 1470000,0 2002000,59000l30000 -10000c0,0 -41000,-436000 -49000,-754000 -8000,-309000 11000,-747000 11000,-747000l-31000 -17000c-568000,87000 -1246000,141000 -1996000,160000l-910000 23000c-352000,-522000 -396000,-1031000 -402000,-1273000 -17000,-655000 251000,-762000 1070000,-783000l190000 -5000zm3392000 6742000c-23000,-300000 134000,-476000 304000,-489000 49000,-4000 110000,1000 130000,-1000 150000,-11000 285000,-204000 269000,-413000 -18000,-244000 -165000,-324000 -354000,-310000 -519000,39000 -804000,645000 -758000,1244000 45000,598000 418000,1154000 937000,1114000 189000,-14000 322000,-115000 304000,-360000 -16000,-209000 -180000,-379000 -329000,-367000 -20000,1000 -79000,15000 -129000,18000 -170000,13000 -352000,-137000 -374000,-436000zm-4740000 1113000c-24000,-257000 -51000,-542000 -67000,-757000 -20000,-263000 -46000,-663000 -54000,-948000l2240000 683000 4000 53000c-793000,385000 -1506000,701000 -2123000,969000zm-700000 -1874000c34000,344000 83000,879000 108000,1202000 22000,292000 41000,607000 57000,904000 -1224000,519000 -1957000,774000 -2171000,845000 42000,152000 74000,578000 86000,732000 12000,155000 51000,672000 33000,828000 972000,-530000 4228000,-2037000 6352000,-2983000l-62000 -816000c-2280000,-703000 -4471000,-1430000 -6745000,-2179000 39000,106000 61000,406000 69000,506000 7000,99000 23000,299000 1000,410000 603000,99000 1409000,305000 2272000,551000l0 0zm4127000 5877000c325000,-58000 459000,10000 588000,735000 90000,502000 -118000,853000 -978000,1007000 -719000,128000 -1075000,7000 -1208000,-736000l-125000 -699000 1723000 -307000zm-2245000 400000l149000 833000c187000,1048000 -629000,1360000 -1330000,1485000 -679000,122000 -1143000,140000 -1357000,-1060000 -112000,-627000 -2000,-804000 323000,-862000l2215000 -396000zm3071000 -1176000c-54000,-305000 -105000,-758000 -105000,-758000l-32000 -13000c-549000,172000 -1212000,328000 -1950000,459000l-2412000 431000c-738000,132000 -1444000,221000 -1988000,244000l-28000 15000c0,0 110000,442000 166000,756000 115000,644000 122000,856000 264000,1653000 319000,1782000 1431000,2267000 2278000,2116000 945000,-169000 1366000,-937000 1473000,-1760000 328000,412000 933000,785000 1474000,688000 660000,-117000 1446000,-720000 1149000,-2386000 -56000,-313000 -188000,-881000 -289000,-1445000zm-1918000 8498000c-76000,-248000 -159000,-521000 -217000,-728000 -72000,-254000 -177000,-640000 -242000,-919000l2331000 222000 15000 52000c-701000,537000 -1337000,987000 -1887000,1373000zm-1061000 -1697000c103000,330000 257000,844000 346000,1158000 80000,280000 161000,585000 236000,874000 -1096000,752000 -1763000,1148000 -1958000,1261000 71000,140000 188000,552000 230000,700000 42000,149000 184000,648000 197000,805000 848000,-714000 3737000,-2839000 5630000,-4190000l-224000 -788000c-2374000,-234000 -4667000,-509000 -7044000,-790000 59000,97000 141000,386000 169000,482000 27000,97000 82000,289000 83000,402000 609000,-25000 1441000,18000 2335000,86000l0 0zm3954000 11958000l2279000 -899000c698000,-275000 1340000,-499000 1897000,-640000l21000 -28000c0,0 -184000,-387000 -298000,-675000 -117000,-296000 -242000,-696000 -242000,-696000l-32000 2000c-466000,262000 -1129000,543000 -1827000,818000l-2195000 866000c-158000,63000 -1092000,421000 -1339000,450000 -93000,7000 -173000,-30000 -233000,-182000l-397000 -1007000c-60000,-153000 -27000,-234000 46000,-293000 200000,-147000 1127000,-522000 1285000,-584000l2196000 -866000c698000,-275000 1374000,-522000 1894000,-649000l24000 -20000c0,0 -181000,-378000 -298000,-674000 -113000,-288000 -242000,-697000 -242000,-697000l-35000 -6000c-503000,277000 -1126000,552000 -1824000,827000l-2195000 866000c-158000,62000 -1092000,421000 -1339000,449000 -93000,8000 -172000,-29000 -233000,-182000l-390000 -990000c-60000,-152000 -28000,-234000 46000,-292000 200000,-147000 1127000,-523000 1285000,-585000l2196000 -866000c697000,-275000 1374000,-522000 1893000,-649000l25000 -19000c0,0 -181000,-378000 -298000,-675000 -114000,-287000 -243000,-696000 -243000,-696000l-34000 -6000c-504000,277000 -1126000,552000 -1824000,827000l-2279000 898000c-698000,275000 -1365000,519000 -1894000,649000l-25000 20000c0,0 185000,387000 302000,683000l2226000 5645000c113000,288000 239000,688000 239000,688000l34000 6000c504000,-277000 1130000,-542000 1828000,-818000zm5537000 2751000c251000,-144000 417000,-156000 744000,412000 268000,465000 338000,929000 -694000,1522000 -875000,503000 -1465000,320000 -1729000,-139000 -114000,-197000 -274000,-536000 -272000,-673000l1951000 -1122000zm-1641000 -546000l-2124000 1221000c-650000,374000 -1284000,696000 -1788000,902000l-22000 23000c0,0 244000,364000 403000,640000 154000,268000 336000,646000 336000,646000l35000 0c458000,-347000 1030000,-717000 1680000,-1091000l728000 -419000c39000,208000 163000,484000 322000,760000 825000,1435000 2069000,1412000 2962000,899000 315000,-181000 743000,-574000 827000,-1210000 52000,-401000 -113000,-878000 -435000,-1439000 -118000,-205000 -728000,-1125000 -864000,-1361000 -154000,-269000 -346000,-662000 -346000,-662000l-35000 -1000c-458000,347000 -1029000,718000 -1679000,1092000zm1294000 6943000l934000 -599000c236000,368000 800000,1303000 1080000,1869000l40000 7000c66000,-64000 229000,-179000 305000,-228000 76000,-48000 240000,-143000 326000,-177000l11000 -39000c-332000,-425000 -669000,-857000 -1248000,-1761000l614000 -394000c143000,-92000 914000,-575000 1151000,-651000 658000,1026000 1303000,2255000 1303000,2255000l44000 -6000c62000,-51000 259000,-188000 335000,-237000 67000,-43000 180000,-108000 304000,-173000l16000 -32000c-96000,-111000 -217000,-282000 -320000,-443000l-1493000 -2329000c-167000,-260000 -387000,-659000 -387000,-659000l-35000 1000c-441000,369000 -993000,766000 -1625000,1171000l-2062000 1322000c-632000,405000 -1249000,758000 -1743000,988000l-20000 24000c0,0 270000,366000 442000,634000l1542000 2405000c103000,161000 207000,343000 269000,476000l35000 -1000c104000,-82000 209000,-155000 294000,-209000 84000,-54000 400000,-246000 472000,-282000l24000 -37000c0,0 -980000,-1122000 -1638000,-2148000 168000,-183000 887000,-655000 1030000,-747000zm7586000 2637000c-511000,-651000 -1184000,-1100000 -1920000,-1245000 -928000,-183000 -1986000,126000 -2851000,806000 -825000,649000 -1396000,1606000 -1369000,2499000 21000,678000 220000,1218000 697000,1824000 501000,638000 1283000,1179000 2439000,1243000l132000 -382000c-988000,-92000 -1430000,-380000 -1953000,-1045000 -613000,-780000 -218000,-2039000 1120000,-3091000 1596000,-1254000 2772000,-906000 3233000,-319000 506000,644000 474000,1282000 60000,2082000l176000 209000c421000,-290000 682000,-441000 1135000,-660000l12000 -33000c0,0 -225000,-1015000 -911000,-1888000zm5039000 5849000l-2813000 -2950000c-213000,-224000 -493000,-560000 -493000,-560000l-28000 14000c-340000,425000 -842000,928000 -1384000,1446000l-1774000 1690000c-542000,518000 -1053000,967000 -1516000,1308000l-9000 34000c0,0 323000,295000 536000,519000 220000,231000 481000,548000 481000,548000l28000 -15000c333000,-418000 842000,-928000 1384000,-1445000l1774000 -1691000c123000,-117000 752000,-704000 969000,-824000 109000,-16000 163000,-17000 257000,82000l1419000 1488000c94000,99000 91000,153000 70000,261000 -130000,211000 -746000,812000 -870000,929000l-1773000 1690000c-543000,518000 -1076000,1002000 -1510000,1315000l-15000 27000c0,0 379000,355000 599000,585000 213000,224000 418000,482000 418000,482000l34000 -8000c362000,-446000 835000,-935000 1378000,-1452000l1774000 -1691000c542000,-518000 1069000,-994000 1510000,-1314000l15000 -27000c0,0 -247000,-217000 -461000,-441000zm-1353000 6444000c-227000,114000 -590000,185000 -750000,46000 -233000,-201000 -154000,-744000 -65000,-964000l-216000 -163000c-215000,193000 -856000,566000 -1062000,615000l-17000 27000c22000,198000 400000,642000 618000,830000 332000,288000 745000,450000 1276000,405000 452000,-38000 728000,-162000 1285000,-448000l4959000 -2543000c-103000,-49000 -254000,-180000 -329000,-245000 -76000,-66000 -413000,-358000 -476000,-452000 -818000,581000 -2322000,1526000 -3641000,2231000 783000,-2201000 1122000,-2852000 1695000,-3917000 -137000,-78000 -501000,-394000 -618000,-495000 -117000,-101000 -571000,-494000 -668000,-618000 -247000,824000 -1241000,3753000 -1991000,5691000zm5656000 1657000l537000 421000c1037000,816000 635000,1504000 264000,1976000 -383000,487000 -915000,973000 -2002000,118000 -393000,-309000 -362000,-526000 -158000,-785000l1359000 -1730000zm-262000 -1771000l-1514000 1926000c-464000,590000 -917000,1137000 -1308000,1517000l-11000 29000c0,0 376000,257000 620000,448000 207000,163000 1068000,878000 1326000,1081000 865000,680000 2040000,1349000 3128000,-35000 550000,-699000 936000,-1617000 -610000,-2832000l-1022000 -804000 414000 -526000c105000,-134000 630000,-802000 828000,-952000 959000,754000 2142000,2090000 2142000,2090000l39000 -20000c78000,-129000 443000,-593000 630000,-802000l4000 -35000c-127000,-74000 -297000,-195000 -448000,-313000l-2446000 -1923000c-243000,-191000 -575000,-490000 -575000,-490000l-33000 12000c-295000,493000 -701000,1039000 -1164000,1629000zm6530000 3223000l1218000 780000c-59000,176000 -268000,553000 -635000,1126000l-1268000 1978000c-481000,749000 -865000,1299000 -1156000,1635000l-9000 30000c256000,140000 476000,269000 652000,382000 176000,113000 370000,249000 589000,413000l32000 -15000c227000,-472000 557000,-1056000 995000,-1738000l1322000 -2063000c480000,-749000 859000,-1290000 1156000,-1634000l8000 -30000c-263000,-146000 -475000,-270000 -651000,-383000l-2329000 -1492000c-171000,-110000 -313000,-215000 -451000,-325000l-37000 24000c-191000,400000 -360000,696000 -592000,1058000 -701000,1094000 -1434000,2085000 -1965000,2577000 -552000,524000 -1190000,828000 -1606000,752000l-317000 343000c56000,131000 717000,685000 855000,773000 191000,123000 335000,168000 757000,-120000 771000,-527000 1675000,-1836000 3051000,-3983000 81000,-126000 251000,-172000 381000,-88000zm2989000 3127000l-1117000 2181000c-342000,668000 -698000,1283000 -1009000,1730000l-5000 31000c0,0 402000,173000 685000,318000 276000,141000 651000,367000 651000,367000l30000 -19000c112000,-317000 255000,-658000 420000,-1020000l3793000 -2016000c-27000,51000 -53000,102000 -79000,154000l-1117000 2180000c-342000,668000 -698000,1283000 -1009000,1731000l-6000 30000c0,0 403000,173000 686000,318000 275000,141000 650000,367000 650000,367000l30000 -19000c195000,-540000 473000,-1162000 815000,-1829000l1117000 -2181000c342000,-668000 702000,-1292000 1009000,-1730000l5000 -31000c0,0 -402000,-173000 -686000,-318000 -275000,-141000 -650000,-367000 -650000,-367000l-30000 19000c-112000,313000 -253000,655000 -418000,1016000l-3792000 2015000c25000,-49000 51000,-100000 76000,-149000l1117000 -2180000c342000,-668000 703000,-1292000 1009000,-1731000l6000 -31000c0,0 -403000,-172000 -686000,-317000 -276000,-141000 -651000,-367000 -651000,-367000l-30000 19000c-195000,540000 -472000,1162000 -814000,1829000zm5606000 2846000l-899000 2279000c-275000,698000 -569000,1345000 -835000,1821000l-2000 31000c0,0 417000,132000 713000,249000 288000,114000 683000,302000 683000,302000l28000 -22000c141000,-557000 357000,-1203000 632000,-1900000l409000 -1038000c816000,419000 879000,1038000 899000,1887000 14000,586000 29000,1043000 136000,1913000 194000,55000 370000,103000 582000,186000 194000,77000 788000,333000 891000,395000l40000 -28000c-351000,-1094000 -184000,-1964000 -384000,-2795000 -158000,-643000 -301000,-1097000 -841000,-1439000 -48000,-30000 -73000,-63000 -67000,-80000 866000,-508000 2709000,-1265000 3736000,-1687000 -146000,-26000 -654000,-226000 -781000,-276000 -110000,-43000 -601000,-237000 -700000,-308000 -988000,617000 -1948000,1188000 -2858000,1614000 -200000,93000 -346000,150000 -471000,156000l308000 -779000c275000,-698000 573000,-1355000 835000,-1821000l3000 -31000c0,0 -418000,-133000 -714000,-249000 -288000,-114000 -683000,-302000 -683000,-302000l-28000 21000c-141000,557000 -357000,1203000 -632000,1901000zm5460000 2180000l-669000 2357000c-205000,721000 -434000,1394000 -652000,1894000l1000 31000c0,0 428000,91000 735000,177000 297000,85000 709000,233000 709000,233000l26000 -24000c49000,-332000 121000,-695000 213000,-1083000l3325000 -2718000c-16000,56000 -31000,111000 -47000,167000l-669000 2357000c-205000,721000 -434000,1394000 -652000,1894000l1000 31000c0,0 428000,90000 734000,177000 298000,85000 710000,233000 710000,233000l25000 -24000c86000,-568000 237000,-1232000 442000,-1954000l669000 -2356000c205000,-722000 437000,-1405000 652000,-1894000l-1000 -32000c0,0 -428000,-90000 -735000,-177000 -297000,-85000 -709000,-233000 -709000,-233000l-26000 24000c-49000,329000 -120000,692000 -211000,1078000l-3325000 2717000c15000,-53000 30000,-108000 45000,-160000l669000 -2357000c205000,-722000 437000,-1404000 652000,-1894000l-1000 -32000c0,0 -428000,-90000 -734000,-177000 -298000,-85000 -710000,-233000 -710000,-233000l-26000 24000c-85000,568000 -236000,1232000 -441000,1954000zm17962000 3553000c18000,-749000 55000,-1469000 141000,-1997000l-8000 -30000c0,0 -419000,20000 -738000,12000 -309000,-8000 -727000,-49000 -727000,-49000l-19000 30000c59000,571000 60000,1252000 41000,2001000l-6000 230000c-25000,990000 337000,1789000 1374000,1816000 490000,12000 1289000,-106000 1942000,-516000l-25000 1004000c-19000,750000 -73000,1459000 -160000,1997000l8000 30000c0,0 438000,-19000 756000,-11000 309000,8000 745000,49000 745000,49000l19000 -30000c-58000,-571000 -77000,-1252000 -59000,-2002000l62000 -2449000c19000,-750000 74000,-1469000 160000,-1997000l-8000 -30000c0,0 -437000,19000 -756000,11000 -309000,-8000 -745000,-49000 -745000,-49000l-19000 30000c58000,572000 78000,1252000 59000,2002000l-23000 910000c-539000,324000 -1050000,343000 -1292000,337000 -655000,-16000 -748000,-289000 -727000,-1109000l5000 -190000zm6371000 3662000c-91000,237000 -311000,535000 -523000,540000 -307000,8000 -615000,-446000 -698000,-669000l-269000 25000c-29000,287000 -251000,995000 -371000,1170000l7000 31000c149000,131000 727000,205000 1015000,198000 440000,-11000 854000,-170000 1216000,-561000 309000,-333000 429000,-609000 648000,-1197000l1952000 -5219000c-109000,33000 -309000,38000 -409000,40000 -100000,3000 -545000,14000 -655000,-13000 -214000,981000 -689000,2691000 -1189000,4101000 -904000,-2154000 -1092000,-2863000 -1385000,-4036000 -154000,34000 -636000,46000 -791000,50000 -154000,4000 -755000,19000 -910000,-7000 373000,776000 1611000,3610000 2362000,5547000zm4906000 -4903000c-42000,-327000 33000,-458000 764000,-551000 506000,-64000 846000,162000 956000,1028000 92000,724000 -46000,1075000 -796000,1170000l-704000 89000 -220000 -1736000zm287000 2262000l840000 -107000c1056000,-134000 1326000,697000 1416000,1403000 87000,685000 82000,1149000 -1128000,1303000 -631000,80000 -802000,-39000 -844000,-367000l-284000 -2232000zm-1021000 -3126000c-307000,39000 -762000,67000 -762000,67000l-14000 32000c144000,556000 266000,1226000 361000,1970000l309000 2430000c94000,744000 147000,1453000 143000,1998000l13000 29000c0,0 448000,-87000 763000,-128000 650000,-82000 862000,-79000 1665000,-181000 1796000,-228000 2336000,-1315000 2228000,-2168000 -121000,-952000 -867000,-1412000 -1684000,-1560000 429000,-307000 831000,-892000 762000,-1438000 -84000,-665000 -647000,-1480000 -2325000,-1267000 -316000,41000 -890000,144000 -1459000,216000zm8468000 2436000c-254000,51000 -534000,106000 -746000,143000 -260000,47000 -655000,112000 -939000,150000l454000 -2298000 54000 -9000c463000,750000 848000,1428000 1177000,2014000zm-1795000 886000c339000,-69000 866000,-171000 1187000,-229000 287000,-51000 598000,-101000 893000,-147000 640000,1165000 967000,1869000 1059000,2074000 147000,-57000 568000,-132000 720000,-159000 153000,-27000 663000,-118000 821000,-116000 -626000,-914000 -2452000,-4001000 -3608000,-6020000l-806000 144000c-469000,2339000 -972000,4593000 -1489000,6930000 103000,-49000 398000,-101000 497000,-119000 98000,-18000 295000,-53000 408000,-43000 36000,-609000 162000,-1432000 318000,-2315000l0 0zm12124000 -3183000l-785000 -2321000c-240000,-710000 -432000,-1363000 -546000,-1926000l-27000 -23000c0,0 -395000,165000 -688000,265000 -302000,102000 -708000,207000 -708000,207000l1000 32000c239000,478000 487000,1155000 727000,1865000l757000 2236000c54000,161000 366000,1111000 382000,1359000 3000,94000 -38000,171000 -193000,223000l-1025000 347000c-155000,53000 -235000,16000 -290000,-60000 -137000,-207000 -466000,-1151000 -520000,-1313000l-757000 -2235000c-240000,-710000 -454000,-1398000 -555000,-1924000l-18000 -25000c0,0 -387000,162000 -688000,264000 -293000,100000 -708000,208000 -708000,208000l-8000 34000c252000,517000 496000,1152000 736000,1863000l756000 2235000c55000,161000 367000,1112000 383000,1359000 3000,94000 -38000,172000 -193000,224000l-1008000 341000c-155000,53000 -235000,16000 -289000,-60000 -138000,-207000 -467000,-1151000 -521000,-1313000l-757000 -2235000c-240000,-710000 -454000,-1398000 -555000,-1924000l-18000 -25000c0,0 -387000,162000 -688000,264000 -293000,100000 -708000,208000 -708000,208000l-8000 34000c252000,517000 496000,1152000 736000,1863000l786000 2321000c240000,710000 450000,1388000 554000,1923000l19000 26000c0,0 395000,-166000 697000,-268000l5748000 -1945000c293000,-99000 699000,-205000 699000,-205000l8000 -34000c-252000,-516000 -486000,-1155000 -728000,-1865000zm2284000 -5885000c-754000,341000 -1351000,887000 -1668000,1566000 -399000,858000 -352000,1959000 101000,2962000 432000,957000 1226000,1739000 2099000,1926000 663000,143000 1235000,78000 1938000,-240000 739000,-334000 1452000,-963000 1790000,-2071000l-339000 -220000c-326000,938000 -712000,1299000 -1482000,1647000 -904000,409000 -2032000,-276000 -2733000,-1826000 -836000,-1850000 -217000,-2909000 463000,-3216000 746000,-338000 1358000,-154000 2036000,440000l245000 -122000c-181000,-478000 -266000,-767000 -370000,-1259000l-29000 -20000c0,0 -1039000,-24000 -2051000,433000zm3671000 668000l1222000 2124000c373000,650000 696000,1284000 902000,1788000l23000 22000c0,0 363000,-244000 639000,-403000 269000,-154000 662000,-346000 662000,-346000l1000 -35000c-347000,-458000 -718000,-1029000 -1092000,-1679000l-556000 -967000c837000,-377000 1360000,-39000 2036000,474000 466000,354000 833000,628000 1580000,1087000 163000,-117000 311000,-225000 508000,-339000 182000,-104000 752000,-409000 864000,-450000l4000 -49000c-1075000,-408000 -1650000,-1081000 -2425000,-1443000 -601000,-278000 -1045000,-449000 -1649000,-240000 -53000,19000 -95000,18000 -104000,2000 142000,-993000 701000,-2906000 1011000,-3973000 -111000,99000 -584000,371000 -703000,439000 -102000,59000 -560000,322000 -677000,355000 -134000,1157000 -287000,2264000 -521000,3241000 -52000,214000 -98000,364000 -171000,466000l-418000 -727000c-374000,-650000 -701000,-1293000 -902000,-1788000l-23000 -22000c0,0 -364000,244000 -640000,403000 -268000,154000 -662000,345000 -662000,345000l0 35000c347000,458000 717000,1030000 1091000,1680000zm8639000 -3156000c-216000,144000 -453000,302000 -634000,418000 -223000,143000 -562000,354000 -811000,498000l-461000 -2296000 46000 -29000c716000,515000 1331000,994000 1860000,1409000zm-1319000 1506000c287000,-193000 734000,-490000 1009000,-666000 245000,-157000 513000,-323000 768000,-479000 1038000,832000 1610000,1356000 1773000,1510000 114000,-108000 474000,-339000 605000,-423000 130000,-83000 567000,-363000 713000,-421000 -928000,-605000 -3799000,-2756000 -5639000,-4178000l-689000 442000c462000,2341000 861000,4615000 1280000,6972000 76000,-85000 329000,-247000 413000,-301000 84000,-54000 253000,-162000 361000,-195000 -200000,-577000 -400000,-1385000 -594000,-2261000l0 0zm3876000 -7422000c444000,-349000 617000,-231000 796000,-3000l1244000 1582000 -244000 191000c-694000,545000 -1054000,765000 -1827000,-219000 -729000,-928000 -405000,-1208000 31000,-1551000zm991000 2914000c69000,1018000 391000,2930000 383000,3663000l32000 12000c125000,-136000 504000,-433000 647000,-546000 136000,-107000 422000,-332000 577000,-415000 -132000,-329000 -268000,-1150000 -355000,-1997000 -44000,-456000 -145000,-974000 -156000,-1406000 91000,-70000 182000,-139000 267000,-206000l592000 754000c463000,590000 869000,1135000 1164000,1629000l33000 12000c0,0 310000,-282000 554000,-473000 250000,-197000 598000,-432000 598000,-432000l-12000 -29000c-391000,-380000 -858000,-916000 -1322000,-1505000l-1513000 -1927000c-464000,-589000 -855000,-1147000 -1150000,-1640000l-33000 -12000c0,0 -339000,305000 -582000,496000 -215000,168000 -981000,681000 -1160000,822000 -472000,371000 -926000,779000 -1070000,1273000 -133000,435000 -33000,916000 369000,1427000 647000,823000 1415000,809000 2137000,500000l0 0zm4185000 -7091000c-200000,-210000 -251000,-369000 224000,-821000 388000,-370000 821000,-549000 1643000,313000 696000,731000 658000,1348000 275000,1713000 -164000,157000 -455000,392000 -589000,423000l-1553000 -1628000zm-141000 1724000l1691000 1773000c517000,543000 981000,1082000 1301000,1523000l27000 15000c0,0 295000,-323000 526000,-542000 224000,-214000 547000,-481000 547000,-481000l-7000 -34000c-446000,-363000 -942000,-830000 -1459000,-1373000l-580000 -607000c193000,-88000 431000,-273000 662000,-493000 1198000,-1143000 880000,-2346000 170000,-3091000 -251000,-263000 -734000,-586000 -1372000,-516000 -402000,44000 -826000,317000 -1295000,764000 -171000,163000 -920000,974000 -1117000,1162000 -224000,214000 -561000,493000 -561000,493000l8000 35000c446000,362000 941000,829000 1459000,1372000zm6270000 -2955000l-839000 -727000c286000,-330000 1023000,-1136000 1487000,-1565000l-5000 -40000c-79000,-45000 -237000,-169000 -305000,-228000 -68000,-59000 -205000,-190000 -261000,-263000l-41000 1000c-314000,439000 -633000,884000 -1336000,1695000l-552000 -478000c-128000,-111000 -810000,-714000 -950000,-919000 798000,-921000 1794000,-1888000 1794000,-1888000l-18000 -40000c-67000,-45000 -254000,-196000 -322000,-255000 -60000,-52000 -155000,-142000 -252000,-243000l-35000 -5000c-80000,123000 -210000,287000 -335000,432000l-1811000 2090000c-202000,234000 -523000,558000 -523000,558000l11000 34000c479000,318000 1016000,736000 1583000,1227000l1852000 1604000c567000,491000 1080000,983000 1440000,1392000l29000 12000c0,0 275000,-363000 484000,-604000l1870000 -2159000c125000,-144000 270000,-296000 380000,-393000l-11000 -33000c-108000,-76000 -208000,-157000 -284000,-222000 -75000,-66000 -349000,-315000 -403000,-374000l-43000 -13000c0,0 -798000,1258000 -1597000,2180000 -222000,-109000 -879000,-665000 -1007000,-776000zm578000 -7924000c-480000,675000 -720000,1448000 -652000,2194000 87000,942000 683000,1870000 1580000,2507000 855000,609000 1935000,885000 2783000,607000 645000,-211000 1107000,-555000 1554000,-1184000 470000,-661000 768000,-1564000 502000,-2691000l-404000 -19000c192000,974000 40000,1480000 -450000,2169000 -575000,809000 -1894000,786000 -3281000,-200000 -1654000,-1177000 -1653000,-2404000 -1221000,-3012000 475000,-667000 1097000,-817000 1981000,-645000l150000 -229000c-397000,-321000 -615000,-529000 -954000,-901000l-35000 -3000c0,0 -909000,503000 -1553000,1407000zm4194000 -6438000l-2032000 3534000c-154000,268000 -398000,632000 -398000,632000l22000 22000c504000,207000 1129000,545000 1779000,919000l2124000 1221000c650000,374000 1226000,736000 1684000,1083000l35000 0c0,0 191000,-394000 346000,-662000 158000,-276000 388000,-616000 388000,-616000l-21000 -23000c-496000,-201000 -1129000,-544000 -1779000,-918000l-2124000 -1221000c-148000,-85000 -889000,-522000 -1065000,-696000 -46000,-100000 -63000,-152000 5000,-270000l1025000 -1783000c68000,-118000 121000,-130000 231000,-140000 240000,64000 990000,485000 1137000,570000l2124000 1221000c650000,374000 1265000,749000 1688000,1076000l31000 7000c0,0 233000,-464000 391000,-740000 154000,-269000 344000,-538000 344000,-538000l-17000 -30000c-531000,-221000 -1134000,-537000 -1784000,-911000l-2124000 -1221000c-650000,-374000 -1257000,-743000 -1688000,-1076000l-31000 -7000c0,0 -137000,299000 -291000,567000zm6655000 -584000c165000,193000 321000,529000 224000,718000 -140000,273000 -686000,326000 -921000,292000l-107000 249000c239000,163000 754000,696000 850000,885000l31000 9000c187000,-68000 528000,-540000 659000,-797000 201000,-391000 259000,-831000 89000,-1336000 -145000,-430000 -330000,-668000 -741000,-1141000l-3651000 -4211000c-23000,111000 -114000,289000 -159000,378000 -46000,90000 -249000,486000 -326000,570000 760000,656000 2035000,1892000 3034000,3005000 -2325000,-236000 -3037000,-411000 -4207000,-714000 -44000,152000 -264000,581000 -335000,719000 -70000,137000 -344000,672000 -441000,796000 860000,43000 3941000,311000 6001000,578000zm-21000 -5749000l250000 -635000c484000,-1227000 1259000,-1039000 1817000,-819000 577000,227000 1194000,598000 687000,1884000 -184000,466000 -401000,498000 -708000,377000l-2046000 -807000zm-1622000 759000l2279000 898000c698000,276000 1352000,553000 1828000,819000l31000 2000c0,0 139000,-434000 252000,-722000 97000,-245000 535000,-1275000 656000,-1580000 403000,-1024000 708000,-2342000 -929000,-2987000 -828000,-327000 -1818000,-433000 -2539000,1395000l-477000 1210000 -624000 -246000c-158000,-62000 -949000,-374000 -1148000,-521000 447000,-1134000 1388000,-2650000 1388000,-2650000l-30000 -32000c-146000,-38000 -695000,-254000 -949000,-374000l-35000 6000c-34000,142000 -102000,341000 -172000,519000l-1141000 2894000c-114000,288000 -305000,692000 -305000,692000l21000 28000c557000,141000 1196000,374000 1894000,649000zm1375000 -7143000l395000 -1392000c186000,5000 607000,97000 1261000,282000l2261000 642000c856000,243000 1493000,453000 1899000,634000l31000 0c60000,-286000 120000,-534000 178000,-735000 57000,-201000 131000,-426000 225000,-683000l-24000 -26000c-518000,-81000 -1172000,-229000 -1951000,-450000l-2357000 -669000c-856000,-243000 -1484000,-450000 -1899000,-634000l-32000 0c-63000,295000 -120000,534000 -177000,735000l-756000 2661000c-55000,195000 -115000,361000 -180000,525000l33000 29000c439000,67000 771000,143000 1184000,260000 1251000,355000 2412000,770000 3035000,1136000 662000,378000 1138000,900000 1185000,1320000l420000 205000c109000,-92000 449000,-885000 493000,-1042000 62000,-219000 64000,-370000 -334000,-691000 -727000,-585000 -2242000,-1072000 -4695000,-1768000 -145000,-41000 -237000,-191000 -195000,-339000zm2314000 -3677000l2412000 431000c738000,132000 1431000,292000 1950000,459000l31000 -4000c0,0 47000,-435000 103000,-749000 54000,-304000 160000,-729000 160000,-729000l-26000 -23000c-336000,-15000 -703000,-52000 -1099000,-104000l-3036000 -3037000c57000,10000 113000,20000 170000,30000l2412000 431000c739000,132000 1431000,292000 1950000,459000l31000 -4000c0,0 47000,-435000 103000,-748000 55000,-305000 161000,-729000 161000,-729000l-26000 -24000c-574000,-28000 -1250000,-112000 -1988000,-244000l-2412000 -431000c-739000,-131000 -1441000,-294000 -1950000,-459000l-31000 4000c0,0 -47000,435000 -103000,749000 -55000,304000 -161000,729000 -161000,729000l26000 23000c333000,16000 701000,51000 1094000,103000l3035000 3037000c-54000,-9000 -110000,-19000 -164000,-29000l-2412000 -431000c-738000,-132000 -1440000,-294000 -1949000,-459000l-31000 4000c0,0 -48000,435000 -104000,749000 -54000,304000 -160000,729000 -160000,729000l26000 23000c574000,28000 1250000,112000 1988000,244000zm1161000 -6485000l2431000 309000c744000,94000 1444000,220000 1970000,360000l31000 -5000c0,0 25000,-437000 66000,-753000 38000,-307000 123000,-736000 123000,-736000l-27000 -22000c-575000,0 -1254000,-49000 -1998000,-144000l-1106000 -140000c204000,-895000 789000,-1108000 1606000,-1337000 565000,-158000 1004000,-285000 1821000,-603000 5000,-201000 8000,-384000 37000,-610000 26000,-208000 128000,-846000 163000,-961000l-37000 -32000c-974000,610000 -1858000,663000 -2614000,1062000 -584000,311000 -989000,562000 -1187000,1170000 -17000,53000 -43000,86000 -62000,84000 -705000,-714000 -1893000,-2314000 -2556000,-3205000 11000,148000 -57000,690000 -75000,825000 -14000,117000 -81000,641000 -126000,754000 842000,806000 1632000,1596000 2269000,2372000 140000,171000 231000,299000 268000,418000l-831000 -106000c-745000,-94000 -1454000,-221000 -1971000,-360000l-31000 5000c0,0 -25000,437000 -65000,753000 -39000,307000 -124000,736000 -124000,736000l28000 22000c574000,0 1253000,49000 1997000,144000zm2318000 -8712000c-2000,259000 -4000,544000 -9000,760000 -7000,264000 -22000,663000 -43000,950000l-2159000 -906000 1000 -54000c828000,-304000 1570000,-545000 2210000,-750000zm508000 1936000c0,-346000 5000,-882000 14000,-1208000 7000,-291000 20000,-607000 34000,-905000 1270000,-393000 2025000,-572000 2245000,-621000 -26000,-156000 -15000,-583000 -11000,-738000 4000,-154000 17000,-673000 50000,-827000 -1021000,430000 -4411000,1600000 -6620000,2327000l-21000 818000c2197000,929000 4304000,1875000 6490000,2849000 -27000,-110000 -20000,-410000 -17000,-510000 2000,-100000 7000,-300000 40000,-409000 -589000,-157000 -1371000,-445000 -2204000,-776000l0 0z"/>
 </g>
</svg>
