<?xml version="1.0" encoding="UTF-8"?>
<!DOCTYPE svg PUBLIC "-//W3C//DTD SVG 1.1//EN" "http://www.w3.org/Graphics/SVG/1.1/DTD/svg11.dtd">
<!-- Creator: CorelDRAW X7 -->
<svg xmlns="http://www.w3.org/2000/svg" xml:space="preserve" width="600px" height="623px" version="1.1" style="shape-rendering:geometricPrecision; text-rendering:geometricPrecision; image-rendering:optimizeQuality; fill-rule:evenodd; clip-rule:evenodd"
viewBox="0 0 6000 6230"
 xmlns:xlink="http://www.w3.org/1999/xlink">
 <defs>
  <style type="text/css">
   <![CDATA[
    .fil6 {fill:#007436;fill-rule:nonzero}
    .fil1 {fill:#007CC3;fill-rule:nonzero}
    .fil3 {fill:#1F1A17;fill-rule:nonzero}
    .fil0 {fill:#5B4431;fill-rule:nonzero}
    .fil4 {fill:#DE411A;fill-rule:nonzero}
    .fil2 {fill:#FBDD73;fill-rule:nonzero}
    .fil5 {fill:white;fill-rule:nonzero}
   ]]>
  </style>
 </defs>
  <path class="fil0" d="M3561 5038c-250,-11 -406,226 -872,53 -68,-26 -156,-57 -249,-53l-20 -28 -60 41 23 33c0,0 -65,-78 -65,-78l-4 -53 -37 3c0,0 -10,-11 -10,-11 0,0 -13,11 -13,11 -19,-18 -39,-30 -59,-38l-7 -70 -73 7 3 33c-34,36 -11,18 -51,30l-46 -171 -71 19 42 154c0,0 -25,-20 -25,-20l-89 -247 -69 25 47 129c0,0 -9,-8 -9,-8l-112 -240 -66 30 17 37 -90 -158 -49 29c-3,-2 -6,-3 -10,-3l-75 -109 -60 41 39 56c-23,0 -47,1 -74,3 0,0 46,-125 46,-125 0,0 -1,-23 -1,-23 0,0 -39,-84 -39,-84l88 -240 -68 -25 -63 173c0,0 -25,-56 -25,-56l87 -241 -68 -25 -63 173c0,0 -24,-51 -24,-51l46 -259 -71 -12 -28 157c0,0 -13,-29 -13,-29l23 -262 -73 -7 -12 137c0,0 -5,-10 -5,-10l0 -266 -72 0c0,0 0,39 0,39l-16 -179 -63 6 -24 -139c0,0 -13,-1 -13,-1 10,-16 21,-34 31,-52 31,-54 62,-113 89,-171l162 -72 -30 -66 -90 41c0,0 32,-77 32,-77l125 -89 -41 -60 -41 28c0,0 20,-50 20,-50l103 -85 -47 -56c0,0 17,-42 17,-42l70 -68 -52 -52c0,0 -29,28 -29,28l117 -138 -47 -41 79 -114 -58 -42c0,0 3,-6 3,-6 0,0 -1,0 -1,0l58 -159 -68 -25 -66 180 -14 -123c0,0 41,-112 41,-112l103 18 13 -71 -91 -16 18 -49c0,0 201,0 201,0 0,0 0,-72 0,-72l-160 0c0,0 26,-18 26,-18l262 -23 -6 -73 -137 12c0,0 10,-6 10,-6l262 -46 -13 -72 -40 7 175 -47 -16 -60c0,0 17,-6 17,-6l142 66 30 -66 -75 -35c0,0 18,-7 18,-7l-16 -44 213 57 19 -70 -154 -41c0,0 30,-11 30,-11l259 46 13 -71 -136 -25c0,0 11,-3 11,-3l265 23 6 -73 -37 -4c38,0 140,0 178,0l0 -61 140 -12 -6 -72 165 -60 -25 -69 -187 69 91 -97c0,0 153,-55 153,-55 0,0 153,55 153,55l91 97 -186 -69 -25 69 160 57c0,0 -1,0 -1,0 0,0 6,3 6,3l-6 72 140 12 0 61c38,0 140,0 178,0l-38 4 7 73 265 -23c0,0 10,3 10,3l-135 25 13 71 259 -46c0,0 29,11 29,11l-153 41 17 70 215 -57 -16 44c0,0 18,7 18,7l-75 35 30 66 141 -66c0,0 17,6 17,6l-16 60 176 47 -41 -7 -12 72 262 46c0,0 9,6 9,6l-137 -12 -6 73 263 23c0,0 25,18 25,18l-159 0c0,0 0,72 0,72 0,0 201,0 201,0l18 49 -91 16 13 71 103 -18c0,0 41,112 41,112l-14 123 -66 -180 -68 25 59 165 -58 42 80 114 -48 41 117 138c0,0 -28,-28 -28,-28l-52 52 69 68c0,0 18,42 18,42l-47 56 102 85c0,0 21,50 21,50l-41 -28 -41 60 125 89c0,0 32,77 32,77l-90 -41 -31 66 163 72c27,58 58,117 89,171 10,18 20,36 31,52 0,0 -13,1 -13,1l-25 139 -62 -6 -16 179c0,0 0,-39 0,-39l-72 0 0 266c0,0 -5,10 -5,10l-12 -137 -73 7 23 262c0,0 -13,29 -13,29l-28 -157 -71 12 46 259c0,0 -24,51 -24,51l-64 -173 -67 25 87 241c0,0 -26,56 -26,56l-62 -173 -69 25 89 240c0,0 -39,84 -39,84 0,0 -1,23 -1,23 0,0 45,125 45,125 -26,-2 -50,-3 -73,-3l39 -56 -60 -41 -76 109c-3,0 -6,1 -10,3l-48 -29 -91 158 18 -37 -67 -30 -112 240c0,0 -9,8 -9,8l48 -129 -69 -25 -90 247c0,0 -24,20 -24,20l42 -154 -71 -19 -46 171c-40,-12 -16,7 -52,-30l3 -33 -73 -7 -6 70c-21,8 -40,20 -60,38 0,0 -13,-11 -13,-11 0,0 -9,11 -9,11l-37 -3 -4 53c0,0 -66,78 -66,78l24 -33 -61 -41 -19 28zm-148 -5038l-15 0 -41 48 -102 -48 -69 0 -18 39 173 81 -125 3c0,0 -182,-85 -182,-85 0,0 -12,-26 -12,-26 0,0 -22,10 -22,10 0,0 -21,-10 -21,-10 0,0 -12,26 -12,26 0,0 -183,85 -183,85l-125 -3 174 -81 -18 -39 -69 0 -103 48 -40 -48c-20,0 -12,-3 -29,12 0,0 -84,71 -84,71l-44 -44 -128 128 26 -31 -56 -46 -171 202c0,0 -11,5 -11,5l80 -112 -60 -42 -97 139c0,0 -13,7 -13,7 0,0 -12,-13 -12,-13 0,0 -4,3 -4,3l26 -44 -63 -37 -81 142c-32,10 -57,23 -76,38 7,-18 2,-11 23,-27 0,0 -9,-11 -9,-11l24 -64 -68 -24 -26 70c0,0 -103,87 -103,87l-58 -42 -81 115 -53 -32 -82 140c-13,18 -57,57 -76,70 -16,11 -34,21 -52,31 -84,48 -117,97 -123,158l-28 23c12,-28 23,-57 34,-86 47,-127 92,-262 140,-415 0,0 30,-141 30,-141 0,0 -84,116 -84,116 -86,133 -160,255 -227,375 -22,38 -43,76 -63,115l-62 -6 -13 151c-14,28 -27,55 -40,82 -12,26 -23,52 -34,78 0,0 -5,4 -5,4 0,0 -11,20 -11,20 0,0 -1,14 -1,14 -11,26 -23,52 -34,79 -9,12 -19,23 -28,34 -68,81 -85,144 -70,208 2,21 -32,107 -39,129 0,0 -25,-85 -25,-85l46 -258 -72 -13 -45 260 -80 106 35 -197 -72 -13 -30 174 -72 6 12 140 -61 11 32 179 -11 -40 -70 19 64 239c-2,4 -3,9 -4,13l-40 -113 -68 25 89 248c0,0 -4,30 -4,30l-68 -144 -66 31 112 239c0,0 -10,54 -10,54l-106 -150 -59 42 147 210c0,0 -16,90 -16,90 0,0 5,23 5,23 0,0 34,48 34,48l-56 14 39 145 -134 -320c0,0 -30,-60 -30,-60 -2,38 -5,98 -2,135 0,0 65,498 65,498l-31 18 42 74c0,0 8,61 8,61l-31 22 42 61c0,0 10,78 10,78l-30 25 75 89c0,0 109,265 109,265 1,4 1,8 1,12 7,86 29,145 64,186l-141 -82 -37 64 222 128c0,0 16,58 16,58l-159 -91 -36 63 222 128 27 100 151 88c16,22 28,45 38,68 6,13 11,26 16,39l-383 -204c0,0 66,99 66,99 186,171 347,309 508,430l-15 33 165 76 -39 -14 -24 69 249 90 183 183c0,0 1,0 1,0l64 66c-66,-4 -189,-12 -260,-11 0,0 -70,3 -70,3 39,20 80,41 121,56 212,68 394,120 569,159 0,0 0,15 0,15l-343 162 750 349 296 -416c8,0 17,0 25,0 -12,12 -36,68 39,48 168,-43 292,-97 461,-96 118,1 198,25 302,56 12,3 151,45 171,45 33,1 34,-26 14,-53 8,0 16,0 25,0l295 416 751 -349 -343 -162c0,0 0,-15 0,-15 174,-39 357,-91 568,-159 45,-16 80,-35 122,-56l-131 -2c-70,3 -136,6 -199,10l247 -249 250 -90 -24 -69 -39 14 165 -76 -15 -33c161,-121 321,-259 508,-430 0,0 66,-99 66,-99l-382 204c4,-13 9,-26 15,-39 10,-23 22,-46 38,-68l151 -88 27 -100 222 -128 -36 -63 -159 91c0,0 16,-58 16,-58l221 -128 -36 -64 -142 82c36,-41 58,-100 65,-186 0,-4 0,-8 0,-12 0,0 110,-265 110,-265l75 -89 -30 -25c0,0 10,-78 10,-78l42 -61 -31 -22c11,-83 3,-53 50,-135l-31 -18c0,0 65,-498 65,-498l-2 -135 -56 120c0,0 -108,260 -108,260l39 -145 -56 -14c0,0 34,-48 34,-48 0,0 5,-23 5,-23 0,0 -16,-90 -16,-90l147 -210 -59 -42 -106 150c0,0 -10,-54 -10,-54l112 -239 -66 -31 -68 144c0,0 -5,-30 -5,-30l90 -248 -69 -25 -40 113c-1,-4 -2,-9 -3,-13l63 -239 -69 -19 -11 40 32 -179 -62 -11 13 -140 -72 -6 -31 -174 -72 13 35 197 -79 -106 -45 -260 -72 13 46 258c0,0 -25,85 -25,85 -7,-20 -40,-109 -40,-129 15,-64 -1,-127 -69,-208 -10,-11 -19,-22 -29,-34 -11,-27 -22,-53 -34,-79 -1,-5 3,-14 -12,-34 -11,-13 -29,-62 -38,-82 -13,-27 -27,-54 -40,-82l-13 -151 -62 6c-20,-39 -41,-77 -63,-115 -68,-120 -142,-242 -228,-375 0,0 -83,-116 -83,-116 0,0 29,141 29,141 48,153 93,288 141,415 11,29 22,58 33,86l-27 -23c-6,-61 -39,-110 -123,-158 -38,-21 -69,-38 -100,-70 0,0 -28,-31 -28,-31l-82 -140 -53 32 -81 -115 -58 42c0,0 -104,-87 -104,-87l-25 -70 -68 24 23 64c0,0 -8,11 -8,11 21,17 16,10 22,27 -19,-15 -43,-28 -75,-38l-81 -142 -64 37 27 44c0,0 -5,-3 -5,-3 0,0 -11,13 -11,13 0,0 -13,-7 -13,-7l-97 -139 -60 42 79 112c0,0 -10,-5 -10,-5l-171 -202 -56 46 26 31 -128 -128 -44 44 -98 -83zm-413 103c0,0 187,86 187,86l81 104 -180 -84 -30 65 159 76 -12 71 129 21 -22 32c0,0 -6,-2 -6,-2 0,0 1,1 1,1l-161 -58 -25 68 181 66 -124 14c0,0 -88,-32 -88,-32l-20 -58 -70 25 -69 -25 -20 58c0,0 -89,32 -89,32l-123 -14 180 -66 -25 -68 -160 58c0,0 0,-1 0,-1 0,0 -5,2 -5,2l-23 -32 130 -21 -12 -71 159 -76 -30 -65 -181 84 82 -104c0,0 186,-86 186,-86z"/>
  <path class="fil1" d="M2461 5067c107,2 206,52 274,72 193,60 336,60 531,0 68,-20 166,-70 273,-72 0,0 -25,37 -25,37 -146,117 -181,214 -210,375 -10,92 -10,229 162,350 0,0 7,6 7,6 0,0 -10,-1 -10,-1 -511,-131 -415,-131 -925,0 0,0 -11,1 -11,1 0,0 8,-6 8,-6 172,-121 172,-258 162,-350 -29,-161 -65,-258 -210,-375 0,0 -26,-37 -26,-37zm2167 328c40,-44 82,-81 120,-121 -120,-57 -267,-91 -393,-138 0,0 -108,20 -108,20 0,0 -24,20 -24,20l159 -14 6 72 -262 23c0,0 -43,36 -43,36l183 16 -6 72 -197 -17c257,122 392,218 565,31zm-701 -447c-17,-4 -34,-7 -49,-8 0,0 -9,98 -9,98 0,0 43,-36 43,-36 0,0 15,-54 15,-54zm-124 6c-7,3 -45,25 -45,36 0,0 -14,153 -14,153 0,0 46,-39 46,-39 0,0 13,-150 13,-150zm-127 121c-14,14 -30,27 -46,39 13,7 27,14 41,21 0,0 5,-60 5,-60zm1639 -377c19,-54 38,-107 74,-158 -163,-14 -328,15 -491,1 -156,-14 -274,-32 -360,-28 0,0 -64,92 -64,92 0,0 -13,154 -13,154 0,0 153,13 153,13l197 -91 31 65 -127 60 17 47c17,2 34,4 50,6 289,25 447,80 533,-161zm394 -781c4,-56 9,-113 32,-171 -161,27 -315,99 -476,128 -5,0 -10,1 -14,2 0,0 -119,83 -119,83 0,0 -13,28 -13,28l137 -79 37 62 -227 132c0,0 -24,51 -24,51l173 -62 24 68 -194 71c64,-4 128,-8 191,-19 285,-51 453,-38 473,-294zm86 -896c-14,-53 -29,-108 -29,-172 -141,83 -261,202 -403,284 -96,55 -178,98 -242,137 0,0 -16,95 -16,95 0,0 53,145 53,145 0,0 145,-54 145,-54l140 -166 56 46 -91 109 26 24c248,-149 433,-188 361,-448zm-104 -951c-29,-48 -57,-96 -72,-158 -58,57 -108,122 -157,187l-64 237c0,0 2,11 2,11l48 -130 67 25 -89 249c0,0 5,30 5,30l68 -145 65 31 -72 156c193,-191 325,-278 199,-493zm-618 449c-4,6 -8,11 -13,16 0,0 43,44 43,44 -7,-40 0,-24 -30,-60zm-53 79c-3,6 -6,11 -8,17 0,0 97,126 97,126 0,0 26,18 26,18 0,0 -10,-56 -10,-56 0,0 -105,-105 -105,-105zm262 -1286c-31,-36 -62,-72 -83,-120 -55,77 -95,166 -140,250l46 -9 46 260c0,0 27,35 27,35l-43 -158 71 -19 12 48 49 -9 7 40c15,-22 28,-42 39,-62l-14 -80 47 -9c7,-52 -10,-104 -64,-167zm-243 164c-14,25 -29,50 -46,73 -148,211 -246,308 -167,413 29,38 62,72 84,121 8,-11 16,-22 23,-33l-22 -39 53 -32 -59 -127 65 -30 -31 -174 72 -13 33 190 35 -120c0,0 -40,-229 -40,-229zm35 413c1,-1 2,-2 2,-2l-27 -38c5,31 -2,20 25,40zm-333 -1171c-37,-21 -73,-42 -105,-76 -32,117 -32,243 -64,360 -59,221 -111,330 -13,393 35,23 73,42 105,76 32,-117 95,-227 125,-343 56,-208 117,-317 -48,-410zm-655 -356c-35,-10 -70,-19 -106,-40 0,107 28,214 28,320 0,201 -20,307 78,339 35,11 72,18 108,40 0,-108 28,-214 28,-321 0,-190 27,-296 -136,-338zm-2712 5031c-36,-42 -76,-80 -125,-119 120,-57 270,-91 395,-138 0,0 110,20 110,20 0,0 24,20 24,20l-159 -14 -6 72 262 23c0,0 43,36 43,36l-184 16 7 72 197 -17c-257,122 -400,223 -564,29zm700 -445c17,-4 33,-7 49,-8 0,0 8,98 8,98 0,0 -43,-36 -43,-36 0,0 -14,-54 -14,-54zm124 6c15,7 30,18 45,33l13 156c0,0 -45,-39 -45,-39 0,0 -13,-150 -13,-150zm126 121c15,14 30,27 47,39 -13,7 -27,14 -41,21 0,0 -6,-60 -6,-60zm-1638 -377c-19,-54 -38,-107 -75,-158 163,-14 329,15 492,1 156,-14 273,-32 360,-28 0,0 64,92 64,92 0,0 13,154 13,154 0,0 -154,13 -154,13l-196 -91 -31 65 127 60 -18 47c-16,2 -33,4 -50,6 -288,25 -446,80 -532,-161zm-394 -781c-5,-56 -9,-113 -32,-171 161,27 314,99 475,128 5,0 10,1 15,2 0,0 119,83 119,83 0,0 13,28 13,28l-138 -79 -36 62 227 132c0,0 24,51 24,51l-173 -62 -24 68 193 71c-63,-4 -128,-8 -190,-19 -285,-51 -453,-38 -473,-294zm-86 -896c14,-53 29,-108 28,-172 142,83 262,202 404,284 96,55 177,98 241,137 0,0 17,95 17,95 0,0 -53,145 -53,145 0,0 -145,-54 -145,-54l-140 -166 -56 46 91 109 -26 24c-6,-3 -12,-7 -18,-10 -250,-145 -412,-190 -343,-438zm104 -951c29,-48 56,-96 72,-158 58,57 108,122 157,187l63 237c0,0 -2,11 -2,11l-47 -130 -68 25 90 249c0,0 -5,30 -5,30l-68 -145 -65 31 72 156c-194,-191 -325,-278 -199,-493zm618 449c3,6 8,11 12,16 0,0 -42,44 -42,44 6,-40 -1,-24 30,-60zm53 79c3,6 5,11 7,17 0,0 -97,126 -97,126 0,0 -25,18 -25,18 0,0 10,-56 10,-56 0,0 105,-105 105,-105zm-262 -1286c31,-36 62,-72 83,-120 55,77 95,166 140,250l-46 -9 -46 260c0,0 -27,35 -27,35l42 -158 -70 -19 -12 48 -49 -9 -7 40c-15,-22 -28,-42 -39,-62l14 -80 -47 -9c-7,-52 10,-104 64,-167zm242 164c15,25 30,50 47,73 147,211 246,308 166,413 -28,38 -61,72 -83,121 -8,-11 -16,-22 -23,-33l22 -39 -53 -32 59 -127 -65 -30 31 -174 -72 -13 -34 190 -34 -120c0,0 39,-229 39,-229zm-35 413c0,-1 -1,-2 -2,-2l28 -38c-6,31 1,20 -26,40zm334 -1171c36,-21 73,-42 105,-76 32,117 32,243 63,360 60,221 112,330 14,393 -35,23 -73,42 -105,76 -32,-117 -95,-227 -125,-343 -56,-208 -118,-317 48,-410zm654 -356c35,-10 71,-19 107,-40 0,107 -29,214 -29,320 0,201 20,307 -78,339 -35,11 -71,18 -107,40 0,-108 -28,-214 -28,-321 0,-190 -27,-296 135,-338z"/>
  <path class="fil2" d="M2830 605c0,0 -89,95 -89,95 0,0 -143,-17 -143,-17 0,0 99,-104 99,-104 0,0 129,14 129,14 0,0 226,-81 226,-81 0,0 4,11 4,11 0,0 -226,82 -226,82zm-35 -440c0,0 -81,102 -81,102 0,0 -143,-3 -143,-3 0,0 89,-114 89,-114 0,0 129,4 129,4 0,0 160,-74 160,-74 0,0 15,7 15,7 0,0 -169,78 -169,78zm-199 -62c0,0 0,1 0,1 0,0 191,-91 191,-91 0,0 6,11 6,11 0,0 -203,95 -203,95 0,0 -53,145 -53,145 0,0 -110,51 -110,51 0,0 59,-161 59,-161 0,0 110,-51 110,-51zm-145 67c0,0 -59,161 -59,161 0,0 -109,52 -109,52 0,0 59,-161 59,-161 0,0 66,-32 66,-32 0,0 185,-155 185,-155 0,0 8,10 8,10 0,0 -150,125 -150,125zm-145 68c0,0 -59,161 -59,161 0,0 -109,51 -109,51 0,0 59,-161 59,-161 0,0 77,-36 77,-36 0,0 172,-171 172,-171 0,0 8,8 8,8 0,0 -148,148 -148,148zm-144 67c0,0 -59,161 -59,161 0,0 -68,32 -68,32l17 -141c0,0 84,-40 84,-40 0,0 155,-186 155,-186 0,0 10,8 10,8 0,0 -139,166 -139,166zm-110 -2c0,0 81,-118 81,-118 0,0 10,7 10,7 0,0 -91,132 -91,132l0 -21zm-128 25c0,0 50,-88 50,-88 0,0 11,6 11,6 0,0 -46,77 -46,77 -5,2 -11,3 -15,5zm-193 134c18,-49 8,-37 35,-57 0,0 -20,54 -20,54 0,0 -15,3 -15,3zm58 -159c0,0 4,-13 4,-13 0,0 12,5 12,5 0,0 -7,19 -7,19 0,0 -9,-11 -9,-11zm922 47c0,0 192,-89 192,-89 0,0 -5,-11 -5,-11 0,0 -204,94 -204,94 0,0 -144,-53 -144,-53 0,0 -110,52 -110,52 0,0 161,59 161,59 0,0 110,-52 110,-52zm-145 68c0,0 -161,-59 -161,-59 0,0 -110,52 -110,52 0,0 162,58 162,58 0,0 66,-32 66,-32 0,0 238,-41 238,-41 0,0 -2,-12 -2,-12 0,0 -193,34 -193,34zm-145 67c0,0 -161,-58 -161,-58 0,0 -109,51 -109,51 0,0 161,59 161,59 0,0 77,-37 77,-37 0,0 242,-21 242,-21 0,0 -1,-12 -1,-12 0,0 -209,18 -209,18zm-145 68c0,0 -160,-59 -160,-59 0,0 -85,40 -85,40 -1,7 -2,13 -3,20 0,0 139,49 139,49 0,0 84,-38 84,-38 0,0 243,0 243,0 0,0 0,-12 0,-12 0,0 -218,0 -218,0zm-144 67c0,0 -106,-38 -106,-38l-3 89c0,0 87,-41 87,-41 0,0 241,21 241,21 0,0 1,-12 1,-12 0,0 -220,-19 -220,-19zm-109 87c0,0 119,21 119,21l14 -10c0,0 -133,-24 -133,-24 0,4 0,8 0,13zm166 29c0,0 18,3 18,3 0,0 2,-12 2,-12 0,0 -30,-5 -30,-5l10 14zm449 -210c0,0 -1,0 -1,0 0,0 199,-73 199,-73 0,0 4,12 4,12 0,0 -210,77 -210,77 0,0 -65,139 -65,139 0,0 -114,42 -114,42 0,0 59,-128 59,-128 0,0 13,0 13,0 0,0 0,-27 0,-27 0,0 115,-42 115,-42zm-157 69c0,0 -66,141 -66,141 0,0 -114,41 -114,41 0,0 45,-95 45,-95l32 3 6 -67 61 -23c0,0 36,0 36,0zm42 -55c41,-28 26,-23 59,-26 0,0 -59,41 -59,41l0 -15zm-206 139c0,0 -53,111 -53,111 0,0 -113,42 -113,42 17,-36 9,-28 35,-47 28,-20 18,-17 45,-12l13 -71 -31 -5c17,-33 8,-26 104,-18zm33 -71c19,-16 10,-13 34,-13 -19,17 -14,17 -34,13zm-163 82c0,0 -1,2 -1,2 0,0 -15,-3 -15,-3 0,0 21,-21 21,-21 0,0 16,1 16,1 0,0 -21,21 -21,21zm-66 141c-9,19 -1,12 -35,25 0,0 35,-25 35,-25zm-77 -35c0,0 -1,0 -1,0 0,0 24,-51 24,-51 0,0 40,6 40,6 0,0 -63,45 -63,45zm215 -196c0,0 5,-5 5,-5 0,0 18,0 18,0 0,0 -7,7 -7,7 0,0 -16,-2 -16,-2zm-222 145c0,0 -13,26 -13,26 0,-10 0,-20 0,-29 0,0 3,-4 3,-4 0,0 14,3 14,3 0,0 -4,4 -4,4zm64 -77c0,0 -7,8 -7,8 0,0 -7,-1 -7,-1 0,0 14,-7 14,-7zm629 114c0,0 199,-72 199,-72 0,0 -3,-12 -3,-12 0,0 -212,76 -212,76 0,0 -139,-64 -139,-64 0,0 -114,41 -114,41 0,0 156,72 156,72 0,0 113,-41 113,-41zm-150 55c0,0 -155,-73 -155,-73 0,0 -114,42 -114,42 0,0 156,72 156,72 0,0 69,-25 69,-25 0,0 241,-21 241,-21 0,0 -1,-12 -1,-12 0,0 -196,17 -196,17zm-150 55c0,0 -155,-73 -155,-73 0,0 -114,42 -114,42 0,0 156,71 156,71 0,0 80,-29 80,-29 0,0 243,0 243,0 0,0 0,-11 0,-11 0,0 -210,0 -210,0zm-150 54c0,0 -155,-72 -155,-72 0,0 -111,39 -111,39 0,1 0,2 0,3 0,0 53,25 53,25l28 -21 35 51c0,0 37,16 37,16 0,0 86,-31 86,-31 0,0 242,21 242,21 0,0 1,-12 1,-12 0,0 -216,-19 -216,-19zm-150 55c0,0 -13,-6 -13,-6l-32 22c0,0 22,-8 22,-8 0,0 238,42 238,42 0,0 2,-12 2,-12 0,0 -217,-38 -217,-38zm-89 -42c0,0 -37,-17 -37,-17 -10,23 -26,41 -51,55 0,0 -7,13 -7,13 0,0 14,6 14,6 0,0 81,-57 81,-57zm-37 115c0,0 191,51 191,51 0,0 3,-12 3,-12 0,0 -181,-47 -181,-47 0,0 -13,8 -13,8zm-61 102c0,0 87,41 87,41 0,0 6,-11 6,-11 0,0 -77,-36 -77,-36 0,0 -16,6 -16,6zm-196 -569c0,0 -113,28 -113,28 0,0 56,-132 56,-132 0,0 61,-15 61,-15 -5,35 -5,75 -4,119zm-131 -133c0,0 163,-136 163,-136 0,0 7,9 7,9 0,0 -171,144 -171,144 0,0 -14,153 -14,153 0,0 -93,79 -93,79 0,0 15,-171 15,-171 0,0 93,-78 93,-78zm-122 103c0,0 -15,170 -15,170 0,0 -55,46 -55,46 -7,-44 -13,-90 -24,-135 0,-8 49,-42 58,-52 0,0 138,-197 138,-197 0,0 10,7 10,7 0,0 -112,161 -112,161zm-103 44c0,0 75,-129 75,-129 0,0 10,6 10,6 0,0 -81,139 -81,139l-4 -16zm-241 402c0,0 -9,8 -9,8 0,0 3,-30 3,-30 2,7 4,15 6,22zm-26 -111c0,0 -12,144 -12,144 0,0 -93,77 -93,77 0,0 9,-98 9,-98 15,-34 29,-69 43,-104 0,0 51,-42 51,-42 0,8 1,16 2,23zm-130 199c0,0 -5,47 -5,47 0,0 -3,3 -3,3 0,0 -3,0 -3,0 0,0 0,3 0,3 0,0 -23,19 -23,19l34 -72zm-108 -204c0,0 4,-44 4,-44 0,0 12,1 12,1 -2,21 -1,16 -16,43zm863 -228c0,0 -128,-11 -128,-11 0,0 -94,78 -94,78 0,0 171,14 171,14 0,0 51,-41 51,-41l0 -40zm-80 106c0,0 -171,-15 -171,-15 0,0 -70,59 -70,59 1,7 2,15 3,22 0,0 145,13 145,13 17,-16 19,-15 30,-30 0,0 3,2 3,2 0,0 24,-21 24,-21 0,0 118,-55 118,-55 0,-4 0,-9 -1,-13 0,0 -81,38 -81,38zm-123 104c0,0 -111,-10 -111,-10 3,20 6,39 10,58 0,0 15,-26 15,-26l35 20c0,0 24,-21 24,-21 0,0 45,-15 45,-15 0,0 12,-17 12,-17 0,0 -30,11 -30,11zm102 -25c26,-9 17,-3 36,-26 0,0 -47,18 -47,18l11 8zm-146 118c0,0 11,-15 11,-15 0,0 -2,0 -2,0l-9 15zm-345 98c0,0 -26,-2 -26,-2 0,0 -92,79 -92,79 0,0 87,7 87,7l31 -84zm-40 111c0,0 -64,-6 -64,-6l-15 85c0,0 48,4 48,4 0,0 31,-83 31,-83zm-142 19c0,0 -47,39 -47,39 -2,4 -3,7 -5,11 0,0 42,3 42,3 0,0 10,-53 10,-53zm213 -2c0,0 17,-1 17,-1 -2,-4 -3,-8 -4,-12 0,0 -8,0 -8,0 0,0 -5,13 -5,13zm-247 167c0,0 4,1 4,1 0,0 15,-86 15,-86 0,0 -50,-4 -50,-4 -3,5 -5,9 -8,14l39 75zm88 -52c0,0 15,-13 15,-13 0,0 28,3 28,3 0,0 5,-12 5,-12 0,0 -44,-4 -44,-4 0,0 -4,26 -4,26zm748 -290c0,0 -8,1 -8,1 0,0 8,-16 8,-16l0 15zm246 -185c0,0 139,-98 139,-98 0,0 7,10 7,10 0,0 -147,104 -147,104 1,-6 1,-11 1,-16zm-257 39c0,0 -3,2 -3,2 0,0 -27,152 -27,152 0,0 -99,69 -99,69 0,0 29,-169 29,-169 0,0 98,-68 98,-68 1,4 2,9 2,14zm-131 76c0,0 -30,169 -30,169 0,0 -92,65 -92,65 -2,-6 -3,-11 -4,-16 0,0 26,-148 26,-148 0,0 61,-43 61,-43 0,0 155,-185 155,-185 2,2 8,6 6,12 0,0 -122,146 -122,146zm-132 92c0,0 -10,64 -10,64l-14 -50c0,0 135,-192 135,-192 0,0 10,7 10,7 0,0 -121,171 -121,171zm-234 313c0,0 -25,17 -25,17 0,0 9,-55 9,-55 6,12 11,25 16,38zm185 -386c0,0 17,-29 17,-29 0,0 11,6 11,6 0,0 -23,39 -23,39l-5 -16zm-220 301c0,0 -21,124 -21,124 0,0 -100,70 -100,70 0,0 30,-169 30,-169 0,0 78,-56 78,-56 5,10 9,21 13,31zm-123 47c0,0 -30,169 -30,169 0,0 -48,34 -48,34l-35 -54c0,0 14,-80 14,-80 0,0 82,-57 82,-57 0,0 83,-227 83,-227l5 21c0,0 -71,194 -71,194zm-144 95c0,0 41,-229 41,-229 0,0 12,2 12,2 0,0 -43,244 -43,244 -3,-6 -6,-12 -10,-17zm955 -330c0,0 173,-122 173,-122 0,0 -7,-10 -7,-10 0,0 -183,129 -183,129 0,0 -122,-22 -122,-22 0,0 -6,3 -6,3 0,0 0,-4 0,-4 0,0 -24,-3 -24,-3 0,0 -100,69 -100,69 0,0 169,30 169,30 0,0 100,-70 100,-70zm-132 92c0,0 -167,-30 -167,-30 0,0 -100,69 -100,69 0,0 168,30 168,30 0,0 62,-42 62,-42 0,0 226,-83 226,-83 0,0 -4,-12 -4,-12 0,0 -185,68 -185,68zm-130 91c0,0 -136,-24 -136,-24 5,33 5,62 -3,87 0,0 40,7 40,7 0,0 71,-49 71,-49 0,0 233,-64 233,-64 0,0 -3,-11 -3,-11 0,0 -202,54 -202,54zm-131 92c0,0 -18,-3 -18,-3 -7,13 -16,25 -29,36 0,0 24,-16 24,-16 0,0 239,-43 239,-43 0,0 -2,-12 -2,-12 0,0 -214,38 -214,38zm-249 26c0,0 -19,13 -19,13 0,0 26,5 26,5 -2,-6 -4,-12 -7,-18zm118 66c0,0 -3,-1 -3,-1 -11,7 -22,16 -32,25 0,0 15,-10 15,-10 0,0 241,-22 241,-22 0,0 -1,-12 -1,-12 0,0 -220,20 -220,20zm-101 -18c0,0 -68,-12 -68,-12 0,0 -99,70 -99,70 0,0 169,30 169,30 0,0 19,-14 19,-14l-21 -74zm-30 109c0,0 -168,-29 -168,-29 0,0 -48,33 -48,33 13,19 24,36 36,51 0,0 82,15 82,15 0,0 81,-58 81,-58 0,0 5,0 5,0 0,0 4,-13 4,-13l35 13c0,0 199,0 199,0 0,0 0,-12 0,-12 0,0 -226,0 -226,0zm-146 103l95 16c0,0 4,-12 4,-12 0,0 -110,-20 -110,-20 4,6 7,11 11,16zm168 28c0,0 69,13 69,13 0,0 2,-12 2,-12 0,0 -67,-12 -67,-12 0,0 -4,11 -4,11zm-770 -140c0,0 -78,105 -78,105 0,0 42,138 42,138 0,0 85,-115 85,-115 0,0 -37,-126 -37,-126 0,0 41,-236 41,-236 0,0 -12,-2 -12,-2 0,0 -41,236 -41,236zm116 153c0,0 32,-185 32,-185 0,0 -12,-2 -12,-2 0,0 -32,184 -32,184 0,0 12,3 12,3zm-25 38c0,0 -119,85 -119,85 0,0 -22,119 -22,119 0,0 34,-24 34,-24 0,0 0,-52 0,-52l72 0c0,0 35,-128 35,-128zm-107 213c0,0 -28,20 -28,20 9,12 19,24 28,36 0,0 0,-56 0,-56zm91 79c0,0 6,-10 6,-10 0,0 -2,-3 -2,-3 0,0 -4,13 -4,13zm-227 487c0,0 -8,47 -8,47 0,0 2,5 2,5 0,0 17,-12 17,-12 0,0 -11,-40 -11,-40zm15 71c0,0 -11,8 -11,8 0,0 5,14 5,14 0,0 2,-7 2,-7 0,0 -6,-8 -6,-8l10 -7zm-47 118c0,0 -4,22 -4,22 0,0 9,-6 9,-6 0,0 -5,-16 -5,-16zm-11 61c-2,10 -3,6 5,19 0,0 8,-28 8,-28 0,0 -13,9 -13,9zm38 -1090c0,0 37,-209 37,-209 0,0 12,2 12,2 0,0 -39,221 -39,221 0,0 89,126 89,126 0,0 -21,115 -21,115 -5,-7 -11,-13 -17,-19 0,0 -82,-117 -82,-117 0,0 21,-119 21,-119zm-27 157c0,0 26,39 26,39 -10,41 -15,65 -32,103 0,0 -16,-23 -16,-23 0,0 13,-73 13,-73 0,0 -21,-240 -21,-240 0,0 12,-1 12,-1 0,0 18,195 18,195zm-28 158c0,0 8,11 8,11 -5,10 -10,19 -15,27 0,0 1,-4 1,-4 0,0 -43,-238 -43,-238 0,0 12,-3 12,-3 0,0 37,207 37,207zm-51 119c0,0 -44,-168 -44,-168 0,0 10,-3 10,-3 0,0 42,154 42,154 -3,5 -5,11 -8,17zm93 341c0,0 -10,54 -10,54l-17 -46 -54 20c0,0 -38,-55 -38,-55 0,0 17,-95 17,-95 0,0 -82,-227 -82,-227 0,0 11,-4 11,-4 0,0 52,144 52,144 6,75 52,137 121,209zm-126 12c0,0 47,66 47,66 0,0 44,120 44,120 0,0 -13,73 -13,73 -38,-54 -36,-49 -64,-96 0,0 -3,2 -3,2 0,0 -31,-46 -31,-46 0,0 16,-98 16,-98 0,0 -102,-221 -102,-221 0,0 11,-5 11,-5 0,0 95,205 95,205zm2 349c0,0 -50,-73 -50,-73 0,0 10,-59 10,-59l93 162 -53 -30zm-35 -159c0,0 3,-16 3,-16 0,0 -137,-196 -137,-196 0,0 10,-7 10,-7 0,0 145,207 145,207l-21 12zm1049 -2289c-115,370 -207,611 -354,905 -12,-20 -23,-40 -36,-59 0,0 125,-289 125,-289 0,0 -139,267 -139,267l-29 -42c106,-243 257,-505 433,-782zm-361 1343c0,0 -78,105 -78,105 0,0 42,137 42,137 0,0 86,-115 86,-115 0,0 -38,-125 -38,-125 0,0 41,-236 41,-236 0,0 -11,-2 -11,-2 0,0 -42,236 -42,236zm-105 150c0,0 -6,-31 -6,-31 -4,22 -6,14 6,31zm-6 -34l2 -12c0,0 -2,12 -2,12zm7 -26c0,0 54,-204 54,-204 0,0 -12,-3 -12,-3 0,0 -25,96 -25,96 0,0 -20,115 -20,115 0,0 3,-4 3,-4zm-260 999c0,0 -9,32 -9,32 0,0 12,-7 12,-7 4,-20 5,-14 -3,-25zm-4 60c0,0 -14,9 -14,9 0,0 -30,113 -30,113l3 1c0,0 59,-34 59,-34 -27,-40 -26,-33 -18,-89zm57 197c0,0 4,-2 4,-2 0,0 9,-33 9,-33 0,0 -36,-50 -36,-50 0,0 -52,30 -52,30 24,19 49,37 75,55zm25 -1132c0,0 40,-149 40,-149l3 36c0,0 -30,110 -30,110 0,0 -13,3 -13,3zm40 -149c0,0 10,-40 10,-40 0,0 12,3 12,3 0,0 -10,36 -10,36 0,0 -12,1 -12,1zm-66 300c0,0 -10,-18 -10,-18 0,0 30,-112 30,-112l28 159 -10 -39 -38 10zm-33 -28c0,0 0,-149 0,-149 0,0 13,0 13,0 0,0 0,165 0,165 -4,-5 -9,-11 -13,-16zm-5 582c0,0 -11,39 -11,39 0,0 -66,-115 -66,-115l77 76zm-106 -71c0,0 2,3 2,3 0,0 -12,8 -12,8 0,0 -19,-71 -19,-71 24,23 16,11 29,60zm70 209c0,0 -16,57 -16,57 0,0 -86,-150 -86,-150 0,0 10,-37 10,-37 0,0 92,130 92,130zm-112 -55c0,0 86,148 86,148 0,0 -27,101 -27,101 0,-1 0,-1 0,-1l-25 -19c0,0 -64,-112 -64,-112 0,0 25,-97 25,-97 0,0 -83,-228 -83,-228 0,0 12,-4 12,-4 0,0 76,212 76,212zm-45 171c0,0 -120,-207 -120,-207 0,0 10,-7 10,-7 0,0 133,231 133,231 -7,-6 -15,-12 -23,-17zm655 -997c0,0 -1,0 -1,0 0,0 37,-208 37,-208 0,0 -12,-2 -12,-2 0,0 -39,220 -39,220 0,0 -126,89 -126,89 0,0 -21,119 -21,119 0,0 140,-98 140,-98 0,0 22,-120 22,-120zm-28 157c0,0 -141,99 -141,99 0,0 -21,120 -21,120 0,0 141,-98 141,-98 0,0 13,-74 13,-74 0,0 102,-219 102,-219 0,0 -11,-4 -11,-4 0,0 -83,176 -83,176zm-28 158c0,0 -140,99 -140,99 0,0 -21,119 -21,119 0,0 141,-98 141,-98 0,0 14,-85 14,-85 0,0 122,-209 122,-209 0,0 -11,-6 -11,-6 0,0 -105,180 -105,180zm-27 157c0,0 -140,99 -140,99 0,0 -22,119 -22,119 0,0 141,-98 141,-98 0,0 16,-92 16,-92 0,0 139,-198 139,-198 0,0 -10,-6 -10,-6 0,0 -124,176 -124,176zm-28 158c0,0 -140,98 -140,98 0,0 -21,120 -21,120 0,0 140,-98 140,-98 0,0 17,-96 17,-96 0,0 155,-186 155,-186 0,0 -9,-7 -9,-7 0,0 -142,169 -142,169zm-28 157c0,0 -140,99 -140,99 0,0 -21,119 -21,119 0,0 140,-98 140,-98 0,0 17,-99 17,-99 0,0 172,-172 172,-172 0,0 -9,-8 -9,-8 0,0 -159,159 -159,159zm-168 256c0,0 -21,119 -21,119 0,0 140,-98 140,-98 0,0 18,-103 18,-103 0,0 196,-137 196,-137 0,0 -7,-10 -7,-10 0,0 -326,229 -326,229zm38 -1090c0,0 1,1 1,1 0,0 37,-210 37,-210 0,0 12,2 12,2 0,0 -39,222 -39,222 0,0 87,126 87,126 0,0 -21,119 -21,119 0,0 -98,-140 -98,-140 0,0 21,-120 21,-120zm-28 158c0,0 98,140 98,140 0,0 -20,119 -20,119 0,0 -99,-140 -99,-140 0,0 13,-74 13,-74 0,0 -21,-239 -21,-239 0,0 12,-2 12,-2 0,0 17,196 17,196zm-27 157c0,0 98,140 98,140 0,0 -21,120 -21,120 0,0 -99,-141 -99,-141 0,0 15,-85 15,-85 0,0 -41,-238 -41,-238 0,0 12,-2 12,-2 0,0 36,206 36,206zm-27 158c0,0 98,140 98,140 0,0 -22,119 -22,119 0,0 -98,-140 -98,-140 0,0 17,-91 17,-91 0,0 -63,-235 -63,-235 0,0 11,-3 11,-3 0,0 57,210 57,210zm-28 157c0,0 98,140 98,140 0,0 -22,119 -22,119 0,0 -97,-140 -97,-140 0,0 16,-95 16,-95 0,0 -83,-227 -83,-227 0,0 12,-5 12,-5 0,0 76,208 76,208zm-28 158c0,0 98,140 98,140 0,0 -21,119 -21,119 0,0 -98,-141 -98,-141 0,0 17,-98 17,-98 0,0 -102,-220 -102,-220 0,0 11,-5 11,-5 0,0 95,205 95,205zm70 297c0,0 -20,119 -20,119 0,0 -99,-140 -99,-140 0,0 18,-102 18,-102 0,0 -137,-196 -137,-196 0,0 10,-7 10,-7 0,0 228,326 228,326zm560 -1116c0,0 76,-207 76,-207 0,0 -11,-5 -11,-5 0,0 -71,196 -71,196 3,5 5,11 6,16zm62 208c0,0 73,-200 73,-200 0,0 -12,-4 -12,-4 0,0 -77,210 -77,210 0,0 -133,63 -133,63 -9,9 -43,103 -48,116 0,0 155,-72 155,-72 0,0 42,-113 42,-113zm-55 150c0,0 -154,72 -154,72 0,0 -31,82 -31,82l21 17c0,0 123,-58 123,-58 0,0 26,-70 26,-70 0,0 138,-197 138,-197 0,0 -10,-7 -10,-7 0,0 -113,161 -113,161zm-54 150c0,0 -104,48 -104,48l-75 89c0,0 -18,49 -18,49 27,-13 16,-6 41,-31 0,0 8,8 8,8 0,0 102,-48 102,-48 13,-10 26,-70 34,-83 0,0 155,-184 155,-184 0,0 -9,-8 -9,-8 0,0 -134,160 -134,160zm-82 163c0,0 -45,21 -45,21 0,0 16,16 16,16 0,0 29,-37 29,-37zm-79 101c0,0 0,0 0,1 0,0 6,-8 6,-8 0,0 -6,7 -6,7zm192 -67c0,0 36,-29 36,-29 0,0 -8,-10 -8,-10 -24,20 -16,10 -28,39zm-76 184c0,0 73,-50 73,-50 0,0 -7,-10 -7,-10 0,0 -57,39 -57,39 0,0 -9,21 -9,21zm-76 187c0,0 113,-53 113,-53 0,0 -5,-10 -5,-10 0,0 -101,46 -101,46 0,0 -7,17 -7,17zm6 -800c2,1 3,3 4,5 0,0 1,0 1,0l20 30c0,0 -16,46 -16,46l-33 -24c0,0 -4,-8 -4,-8 0,0 28,-49 28,-49zm-45 78c0,0 1,1 1,1l-7 9c0,0 6,-10 6,-10zm16 105c0,0 -20,55 -20,55l-10 13c0,0 -7,-15 -7,-15 0,0 37,-53 37,-53zm-55 79c0,0 5,11 5,11 0,0 -44,53 -44,53 0,0 2,-11 2,-11 0,0 37,-53 37,-53zm-22 362c0,0 299,-388 299,-388 -136,331 -188,600 -414,892 0,0 -62,-36 -62,-36 0,0 126,-238 126,-238 0,0 -157,221 -157,221 -17,-10 -37,-21 -59,-32 0,0 7,-38 7,-38 0,0 131,-77 131,-77 0,0 32,-147 32,-147l211 -147 -42 -59 -72 49zm-874 318c0,0 -40,-308 -40,-308 0,0 138,332 138,332 -9,39 -12,73 -10,103l-38 -140 -50 13zm826 1424c0,0 18,67 18,67l-81 -3c0,0 -54,-32 -54,-32 0,0 -27,-100 -27,-100 0,0 -208,-120 -208,-120 0,0 7,-11 7,-11 0,0 345,199 345,199zm29 -8c0,0 19,76 19,76 12,1 24,1 35,1 0,0 63,-108 63,-108 0,0 -7,-24 -7,-24 0,0 -65,-24 -65,-24 0,0 -45,79 -45,79zm94 -139c0,0 4,-6 4,-6 0,0 -6,-14 -6,-14 0,0 -10,16 -10,16 0,0 12,4 12,4zm-459 -798l112 113 -28 -22c0,0 -12,16 -12,16 0,0 -103,-60 -103,-60l-22 -77 53 30zm-21 85c0,0 75,42 75,42 0,0 -16,19 -16,19l107 91c0,0 7,25 7,25 0,0 -19,-13 -19,-13 0,0 -12,17 -12,17 0,0 -110,-64 -110,-64 0,0 -23,-84 -23,-84 0,0 -139,-198 -139,-198 0,0 11,-6 11,-6 0,0 119,171 119,171zm42 154c0,0 85,49 85,49 0,0 -15,20 -15,20l36 25c-29,-7 -58,-15 -87,-24 0,0 -12,-42 -12,-42 0,0 -156,-186 -156,-186 0,0 10,-8 10,-8 0,0 139,166 139,166zm-95 35c0,0 -28,-28 -28,-28 0,0 9,-8 9,-8 0,0 44,44 44,44l-25 -8zm375 544c0,0 24,87 24,87 0,0 -149,-86 -149,-86 0,0 -23,-86 -23,-86 81,14 49,2 126,46 0,0 -9,28 -9,28l31 11zm-115 -547c0,0 3,8 3,8 0,0 2,-5 2,-5 0,0 -5,-3 -5,-3zm27 21c0,0 -5,8 -5,8 0,0 38,27 38,27 -8,-17 -11,-16 -33,-35zm123 539c0,0 18,66 18,66 0,0 28,-49 28,-49 0,0 -46,-17 -46,-17zm83 -47c0,0 13,-23 13,-23 -30,-1 -59,-3 -87,-5 0,0 74,28 74,28zm-396 30c0,0 16,60 16,60 0,0 22,-38 22,-38 0,0 -38,-22 -38,-22zm74 -41c0,0 21,-37 21,-37l-26 -13c-20,-3 -40,-6 -59,-9 0,0 -10,17 -10,17 0,0 74,42 74,42zm-103 -66l5 10c0,0 5,-8 5,-8 -3,-1 -7,-1 -10,-2zm-58 -503c0,0 -7,13 -7,13 0,0 62,62 62,62 0,0 3,-6 3,-6 0,0 -58,-69 -58,-69zm-77 -92c0,0 -17,27 -17,27 0,0 25,95 25,95l40 -39c0,0 2,2 2,2 0,0 9,-16 9,-16 0,0 -59,-69 -59,-69zm-32 -171c0,0 -27,44 -27,44 0,0 32,118 32,118 0,0 8,-14 8,-14 0,0 -10,-12 -10,-12 38,-31 28,-19 51,-59 0,0 -54,-77 -54,-77zm-56 -70c0,0 20,78 20,78 0,0 18,-33 18,-33 0,0 -2,-3 -2,-3l12 -13c-17,-10 -33,-20 -48,-29zm215 921c0,0 24,90 24,90 0,0 -149,-86 -149,-86 0,0 -27,-100 -27,-100 0,0 -206,-119 -206,-119 0,0 6,-11 6,-11 0,0 319,185 319,185 0,0 -10,17 -10,17l43 24zm-25 -91l6 26c0,0 -77,-45 -77,-45 22,7 46,13 71,19zm-274 -489c0,0 -129,-154 -129,-154 0,0 9,-8 9,-8 0,0 139,166 139,166l-19 -4zm-23 -150c0,0 149,85 149,85 0,0 27,101 27,101 -16,-4 -32,-9 -47,-13 0,0 -97,-56 -97,-56 0,0 -23,-83 -23,-83 0,0 -138,-198 -138,-198 0,0 10,-7 10,-7 0,0 119,171 119,171zm-40 -154c0,0 148,85 148,85 0,0 31,117 31,117 0,0 -149,-85 -149,-85 0,0 -18,-73 -18,-73 0,0 -121,-208 -121,-208 0,0 10,-6 10,-6 0,0 99,170 99,170zm-42 -155c0,0 0,1 0,1 0,0 -55,-206 -55,-206 0,0 12,-3 12,-3 0,0 58,217 58,217 0,0 95,55 95,55 13,10 26,20 40,29 0,0 30,109 30,109 0,0 -148,-85 -148,-85 0,0 -32,-117 -32,-117zm51 -307c0,0 -29,-107 -29,-107 0,0 12,-4 12,-4 0,0 22,84 22,84l-5 27zm417 1469c0,0 25,93 25,93 6,-1 14,-1 21,-2 0,0 65,-112 65,-112 0,0 -75,-43 -75,-43 0,0 -36,64 -36,64zm82 -143c0,0 -9,16 -9,16 0,0 16,9 16,9 0,0 -7,-25 -7,-25zm-111 151c0,0 23,87 23,87 0,0 -39,3 -39,3 0,0 -101,-59 -101,-59 0,0 -27,-100 -27,-100 0,0 -207,-119 -207,-119 0,0 6,-11 6,-11 0,0 345,199 345,199zm665 -10c0,0 37,79 37,79l-56 6c0,0 -90,-33 -90,-33 0,0 -45,-94 -45,-94 0,0 -223,-82 -223,-82 0,0 4,-12 4,-12 0,0 373,136 373,136zm28 -12c0,0 41,88 41,88 7,-1 13,-1 19,-2 0,0 49,-137 49,-137 0,0 -43,-95 -43,-95 0,0 81,-224 81,-224 0,0 -11,-4 -11,-4 0,0 -136,374 -136,374zm-595 -919c0,0 161,59 161,59 0,0 51,110 51,110 0,0 -161,-58 -161,-58 0,0 -31,-68 -31,-68 0,0 -155,-185 -155,-185 0,0 9,-8 9,-8 0,0 126,150 126,150zm68 145c0,0 161,59 161,59 0,0 50,110 50,110 0,0 -161,-58 -161,-58 0,0 -35,-79 -35,-79 0,0 -172,-171 -172,-171 0,0 9,-9 9,-9 0,0 148,148 148,148zm67 145c0,0 161,59 161,59 0,0 51,109 51,109 0,0 -161,-58 -161,-58 0,0 -39,-84 -39,-84 0,0 -186,-156 -186,-156 0,0 8,-9 8,-9 0,0 166,139 166,139zm68 145c0,0 161,58 161,58 0,0 50,111 50,111 0,0 -161,-59 -161,-59 0,0 -40,-88 -40,-88 0,0 -198,-139 -198,-139 0,0 7,-10 7,-10 0,0 181,127 181,127zm67 145c0,0 161,58 161,58 0,0 51,111 51,111 0,0 -161,-59 -161,-59 0,0 -42,-91 -42,-91 0,0 -210,-122 -210,-122 0,0 6,-10 6,-10 0,0 195,113 195,113zm229 203c0,0 50,110 50,110 0,0 -160,-59 -160,-59 0,0 -44,-93 -44,-93 0,0 -225,-83 -225,-83 0,0 4,-11 4,-11 0,0 375,136 375,136zm-251 -898c0,0 -59,161 -59,161 0,0 51,110 51,110 0,0 58,-161 58,-161 0,0 -32,-67 -32,-67 0,0 -41,-238 -41,-238 0,0 -12,2 -12,2 0,0 35,193 35,193zm66 145c0,0 -59,161 -59,161 0,0 52,110 52,110 0,0 59,-161 59,-161 0,0 -36,-78 -36,-78 0,0 -22,-242 -22,-242 0,0 -12,1 -12,1 0,0 18,209 18,209zm68 145c0,0 -59,161 -59,161 0,0 52,110 52,110 0,0 58,-161 58,-161 0,0 -39,-84 -39,-84 0,0 0,-242 0,-242 0,0 -12,0 -12,0 0,0 0,216 0,216zm67 145c0,0 -59,161 -59,161 0,0 52,110 52,110 0,0 59,-161 59,-161 0,0 -41,-88 -41,-88 0,0 21,-240 21,-240 0,0 -12,-1 -12,-1 0,0 -20,219 -20,219zm68 145c0,0 -59,160 -59,160 0,0 52,111 52,111 0,0 58,-161 58,-161 0,0 -42,-92 -42,-92 0,0 42,-238 42,-238 0,0 -12,-2 -12,-2 0,0 -39,222 -39,222zm9 305c0,0 51,111 51,111 0,0 59,-162 59,-162 0,0 -44,-94 -44,-94 0,0 82,-224 82,-224 0,0 -12,-5 -12,-5 0,0 -136,374 -136,374zm-859 289c113,58 216,114 311,169 25,69 55,117 92,148l-13 21c-122,-98 -248,-208 -390,-338zm543 370c29,3 60,2 95,0 17,12 34,23 51,35 0,0 -86,0 -86,0 0,0 -60,-35 -60,-35zm1637 325c0,0 44,165 44,165 0,0 93,54 93,54 -15,-62 -32,-119 -57,-173 0,0 -55,-32 -55,-32 0,0 -139,-199 -139,-199 0,0 -10,7 -10,7 0,0 124,178 124,178zm-139 -80c0,0 45,166 45,166 0,0 105,60 105,60 0,0 -44,-166 -44,-166 0,0 -75,-42 -75,-42 0,0 -29,-35 -29,-35l-12 5c0,0 10,12 10,12zm-2 95c0,0 -27,-97 -27,-97 -8,4 -17,9 -27,14 0,0 4,41 4,41 0,0 50,42 50,42zm46 210c0,0 124,-33 124,-33 0,0 105,61 105,61 0,0 -165,43 -165,43 0,0 -62,-42 -62,-42 0,0 -2,-29 -2,-29zm-10 -110c0,0 101,57 101,57 0,0 -94,26 -94,26 0,0 -7,-83 -7,-83zm-951 -223c0,0 107,0 107,0 -28,9 -56,18 -84,27 0,0 -198,-114 -198,-114 0,0 6,-11 6,-11 0,0 169,98 169,98zm-50 50c0,0 -32,-14 -32,-14 0,0 5,-11 5,-11 0,0 44,20 44,20 -6,2 -12,3 -17,5zm389 289c0,0 54,0 54,0 0,0 2,20 2,20l124 -11c0,0 77,76 77,76 0,0 -112,0 -112,0 -24,-4 -46,-7 -70,-10 0,0 -58,-58 -58,-58 0,0 -42,-11 -42,-11 18,-9 13,-9 25,-6zm373 311c0,0 -62,0 -62,0 0,0 -10,-10 -10,-10 24,4 47,7 72,10zm-234 -386c0,0 13,13 13,13 0,0 13,-1 13,-1 0,0 0,-24 0,-24l-26 12zm54 -25c0,0 0,34 0,34 0,0 40,-3 40,-3 0,0 -39,-33 -39,-33 0,2 -1,2 -1,2zm27 106c0,0 58,58 58,58 0,0 0,-63 0,-63 0,0 -58,5 -58,5zm85 -8c0,0 0,93 0,93 0,0 28,28 28,28 20,4 39,8 58,12 0,0 0,-72 0,-72 0,0 -9,-2 -9,-2 0,0 -71,-59 -71,-59 0,0 -6,0 -6,0zm199 159c0,0 0,-39 0,-39 0,0 -59,-59 -59,-59 0,0 -27,3 -27,3 0,0 0,75 0,75 28,6 57,13 86,20zm-25 -217c0,0 92,78 92,78 0,0 -170,15 -170,15 0,0 -80,-67 -80,-67 0,0 -237,21 -237,21 0,0 -1,-12 -1,-12 0,0 396,-35 396,-35zm19 -23c0,0 93,78 93,78 0,0 -15,-171 -15,-171 0,0 -79,-67 -79,-67 0,0 -21,-238 -21,-238 0,0 -12,1 -12,1 0,0 34,397 34,397zm-927 -581c0,0 171,-15 171,-15 0,0 92,79 92,79 0,0 -170,15 -170,15 0,0 -57,-48 -57,-48 0,0 -218,-103 -218,-103 0,0 5,-10 5,-10 0,0 177,82 177,82zm122 103c0,0 171,-15 171,-15 0,0 93,78 93,78 0,0 -170,15 -170,15 0,0 -67,-55 -67,-55 0,0 -227,-83 -227,-83 0,0 4,-11 4,-11 0,0 196,71 196,71zm124 103c0,0 169,-15 169,-15 0,0 94,77 94,77 0,0 -171,15 -171,15 0,0 -72,-59 -72,-59 0,0 -233,-63 -233,-63 0,0 3,-11 3,-11 0,0 210,56 210,56zm122 102c0,0 170,-15 170,-15 0,0 93,79 93,79 0,0 -171,15 -171,15 0,0 -74,-63 -74,-63 0,0 -238,-42 -238,-42 0,0 2,-12 2,-12 0,0 218,38 218,38zm122 103c0,0 170,-14 170,-14 0,0 93,77 93,77 0,0 -171,15 -171,15 0,0 -76,-65 -76,-65 0,0 -242,-20 -242,-20 0,0 1,-12 1,-12 0,0 225,19 225,19zm293 88c0,0 92,77 92,77 0,0 -171,16 -171,16 0,0 -79,-67 -79,-67 0,0 -237,21 -237,21 0,0 -1,-12 -1,-12 0,0 396,-35 396,-35zm-608 -708c0,0 15,171 15,171 0,0 93,78 93,78 0,0 -15,-171 -15,-171 0,0 -57,-48 -57,-48 0,0 -138,-197 -138,-197 0,0 -10,7 -10,7 0,0 112,160 112,160zm123 103c0,0 15,171 15,171 0,0 92,78 92,78 0,0 -14,-171 -14,-171 0,0 -66,-55 -66,-55 0,0 -121,-210 -121,-210 0,0 -11,6 -11,6 0,0 105,181 105,181zm122 103c0,0 15,171 15,171 0,0 93,77 93,77 0,0 -15,-170 -15,-170 0,0 -71,-60 -71,-60 0,0 -102,-220 -102,-220 0,0 -11,5 -11,5 0,0 91,197 91,197zm123 102c0,0 14,171 14,171 0,0 93,78 93,78 0,0 -15,-170 -15,-170 0,0 -74,-63 -74,-63 0,0 -83,-226 -83,-226 0,0 -11,4 -11,4 0,0 76,206 76,206zm122 104c0,0 15,170 15,170 0,0 93,78 93,78 0,0 -15,-171 -15,-171 0,0 -77,-64 -77,-64 0,0 -63,-235 -63,-235 0,0 -12,4 -12,4 0,0 59,218 59,218zm137 273c0,0 93,78 93,78 0,0 -15,-171 -15,-171 0,0 -80,-67 -80,-67 0,0 -20,-238 -20,-238 0,0 -13,1 -13,1 0,0 35,397 35,397zm360 506c-474,-35 -811,-105 -1325,-268 556,23 901,74 1382,214 0,0 -22,23 -22,23 0,0 -481,-95 -481,-95l-288 -48 312 62c0,0 443,95 443,95 -7,8 -12,10 -21,17zm-367 407c0,0 -66,-31 -66,-31 0,0 99,-139 99,-139 0,0 -113,133 -113,133 0,0 -67,-31 -67,-31 0,0 133,-157 133,-157 0,0 -150,149 -150,149 0,0 -72,-33 -72,-33 0,0 174,-173 174,-173 0,0 -194,163 -194,163 0,0 -74,-35 -74,-35 0,0 221,-185 221,-185 0,0 -248,173 -248,173 0,0 -76,-35 -76,-35 0,0 277,-194 277,-194 0,0 -310,179 -310,179 0,0 -80,-38 -80,-38 0,0 337,-194 337,-194l93 16c0,0 48,49 48,49 155,0 236,-10 341,-1 0,0 -273,384 -273,384zm-210 -449c0,0 -375,177 -375,177 0,0 -84,-39 -84,-39 0,0 310,-146 310,-146 0,0 105,0 105,0 14,3 29,6 44,8zm350 -199c0,0 90,-27 90,-27l118 66c0,0 47,-24 47,-24 0,0 85,52 85,52 0,0 -53,-57 -53,-57l47 -31c0,0 -15,28 -15,28 0,0 36,41 36,41 0,0 -9,35 -9,35 0,0 -68,-28 -68,-28 0,0 -26,19 -26,19 0,0 72,63 72,63 0,0 -255,-141 -255,-141 0,0 244,156 244,156 0,0 -14,20 -14,20 0,0 -181,-70 -181,-70 0,0 -79,-56 -79,-56 0,0 -39,-46 -39,-46zm-1375 -567c0,0 172,0 172,0 0,0 86,85 86,85 0,0 -171,0 -171,0 0,0 -53,-52 -53,-52 0,0 -208,-121 -208,-121 0,0 6,-10 6,-10 0,0 168,98 168,98zm114 112c0,0 171,0 171,0 0,0 86,86 86,86 0,0 -172,0 -172,0 0,0 -61,-61 -61,-61 0,0 -219,-102 -219,-102 0,0 5,-11 5,-11 0,0 190,88 190,88zm113 113c0,0 171,0 171,0 0,0 3,3 3,3l-121 51c0,0 -33,-34 -33,-34 0,0 -228,-82 -228,-82 0,0 4,-12 4,-12 0,0 204,74 204,74zm-33 -305c0,0 0,58 0,58 0,0 85,86 85,86 0,0 0,-153 0,-153 -1,0 -1,0 -1,1l-42 3c0,0 0,1 0,1l-42 4zm112 -1c0,0 0,172 0,172 0,0 87,86 87,86 0,0 0,-57 0,-57l-80 -46 37 -62 43 24c0,0 0,-31 0,-31 0,0 -62,-61 -62,-61 0,0 -17,-36 -17,-36 -4,0 -8,2 -12,2 0,0 4,9 4,9zm113 114c0,0 0,19 0,19 0,0 46,26 46,26 0,0 -26,-25 -26,-25 0,0 -51,-143 -51,-143 0,0 -15,-5 -15,-5 0,0 46,128 46,128zm0 103c0,0 0,41 0,41l15 -32c0,0 -15,-9 -15,-9zm4 73c10,8 9,9 15,6l-15 -6zm115 -89c0,0 -24,-90 -24,-90 0,0 -14,-4 -14,-4 0,0 24,86 24,86 0,0 14,8 14,8zm306 427c0,0 0,-20 0,-20 -60,-17 -29,-16 -86,5 0,0 0,1 0,1l86 14z"/>
  <path class="fil2" d="M3171 605c0,0 89,95 89,95 0,0 142,-17 142,-17 0,0 -98,-104 -98,-104 0,0 -129,14 -129,14 0,0 -112,-40 -112,-40 0,0 -18,7 -18,7 0,0 126,45 126,45zm-216 -91c0,0 -6,-2 -6,-2 0,0 -2,5 -2,5 0,0 8,-3 8,-3zm251 -349c0,0 80,102 80,102 0,0 144,-3 144,-3 0,0 -89,-114 -89,-114 0,0 -130,4 -130,4 0,0 -218,-101 -218,-101 0,0 -5,11 -5,11 0,0 218,101 218,101zm199 -62c0,0 0,1 0,1 0,0 -192,-91 -192,-91 0,0 -5,11 -5,11 0,0 203,95 203,95 0,0 53,145 53,145 0,0 109,51 109,51 0,0 -59,-161 -59,-161 0,0 -109,-51 -109,-51zm145 67c0,0 59,161 59,161 0,0 109,52 109,52 0,0 -59,-161 -59,-161 0,0 -67,-32 -67,-32 0,0 -185,-155 -185,-155 0,0 -7,10 -7,10 0,0 150,125 150,125zm144 68c0,0 59,161 59,161 0,0 110,51 110,51 0,0 -59,-161 -59,-161 0,0 -77,-36 -77,-36 0,0 -172,-171 -172,-171 0,0 -9,8 -9,8 0,0 148,148 148,148zm145 67c0,0 59,161 59,161 0,0 67,32 67,32l-16 -141c0,0 -84,-40 -84,-40 0,0 -156,-186 -156,-186 0,0 -9,8 -9,8 0,0 139,166 139,166zm110 -2c0,0 -82,-118 -82,-118 0,0 -10,7 -10,7 0,0 92,132 92,132l0 -21zm128 25c0,0 -50,-88 -50,-88 0,0 -11,6 -11,6 0,0 45,77 45,77 6,2 10,3 16,5zm192 134c-17,-49 -8,-37 -34,-57 0,0 20,54 20,54 0,0 14,3 14,3zm-57 -159c0,0 -4,-13 -4,-13 0,0 -12,5 -12,5 0,0 7,19 7,19 0,0 9,-11 9,-11zm-922 47c0,0 -193,-89 -193,-89 0,0 6,-11 6,-11 0,0 203,94 203,94 0,0 145,-53 145,-53 0,0 109,52 109,52 0,0 -161,59 -161,59 0,0 -109,-52 -109,-52zm145 68c0,0 161,-59 161,-59 0,0 109,52 109,52 0,0 -161,58 -161,58 0,0 -67,-32 -67,-32 0,0 -238,-41 -238,-41 0,0 2,-12 2,-12 0,0 194,34 194,34zm144 67c0,0 161,-58 161,-58 0,0 110,51 110,51 0,0 -161,59 -161,59 0,0 -77,-37 -77,-37 0,0 -242,-21 -242,-21 0,0 1,-12 1,-12 0,0 208,18 208,18zm145 68c0,0 161,-59 161,-59 0,0 85,40 85,40 1,7 2,13 2,20 0,0 -138,49 -138,49 0,0 -84,-38 -84,-38 0,0 -243,0 -243,0 0,0 0,-12 0,-12 0,0 217,0 217,0zm145 67c0,0 106,-38 106,-38l3 89c0,0 -87,-41 -87,-41 0,0 -241,21 -241,21 0,0 -1,-12 -1,-12 0,0 220,-19 220,-19zm108 87c0,0 -119,21 -119,21l-14 -10c0,0 133,-24 133,-24 0,4 0,8 0,13zm-165 29c0,0 -19,3 -19,3 0,0 -2,-12 -2,-12 0,0 31,-5 31,-5l-10 14zm-449 -210c0,0 -199,-73 -199,-73 0,0 -4,12 -4,12 0,0 211,77 211,77 0,0 65,139 65,139 0,0 114,42 114,42 0,0 -59,-128 -59,-128 0,0 -13,0 -13,0 0,0 0,-27 0,-27 0,0 -115,-42 -115,-42zm157 69c0,0 66,141 66,141 0,0 114,41 114,41 0,0 -45,-95 -45,-95l-32 3 -6 -67 -62 -23c0,0 -35,0 -35,0zm-42 -55c-41,-28 -26,-23 -60,-26 0,0 60,41 60,41l0 -15zm206 139c0,0 52,111 52,111 0,0 114,42 114,42 -20,-43 -8,-27 -58,-63 0,0 -22,4 -22,4l-13 -71c0,0 30,-5 30,-5 -15,-33 -8,-26 -103,-18zm-33 -71c-21,-16 -11,-13 -35,-13 19,16 14,18 35,13zm163 82c0,0 0,2 0,2 0,0 16,-3 16,-3 0,0 -21,-21 -21,-21 0,0 -16,1 -16,1 0,0 21,21 21,21zm66 141c0,0 6,14 6,14 0,0 29,11 29,11 0,0 -35,-25 -35,-25zm77 -35c0,0 -24,-51 -24,-51 0,0 -39,6 -39,6 0,0 63,45 63,45zm-215 -196c-8,-6 -3,-5 -23,-5 0,0 7,7 7,7 0,0 16,-2 16,-2zm222 145c0,0 12,26 12,26 0,-18 4,-26 -2,-33 0,0 -14,3 -14,3 0,0 4,4 4,4zm-64 -77c0,0 7,8 7,8 0,0 7,-1 7,-1 0,0 -14,-7 -14,-7zm-630 114c0,0 1,0 1,0 0,0 -200,-72 -200,-72 0,0 4,-12 4,-12 0,0 211,76 211,76 0,0 140,-64 140,-64 0,0 113,41 113,41 0,0 -155,72 -155,72 0,0 -114,-41 -114,-41zm150 55c0,0 156,-73 156,-73 0,0 113,42 113,42 0,0 -155,72 -155,72 0,0 -69,-25 -69,-25 0,0 -241,-21 -241,-21 0,0 1,-12 1,-12 0,0 195,17 195,17zm150 55c0,0 156,-73 156,-73 0,0 113,42 113,42 0,0 -155,71 -155,71 0,0 -80,-29 -80,-29 0,0 -243,0 -243,0 0,0 0,-11 0,-11 0,0 209,0 209,0zm151 54c0,0 155,-72 155,-72 0,0 110,39 110,39 1,1 1,2 1,3 0,0 -54,25 -54,25l-28 -21 -35 51c0,0 -36,16 -36,16 0,0 -87,-31 -87,-31 0,0 -241,21 -241,21 0,0 -2,-12 -2,-12 0,0 217,-19 217,-19zm150 55c0,0 13,-6 13,-6l32 22c0,0 -22,-8 -22,-8 0,0 -239,42 -239,42 0,0 -2,-12 -2,-12 0,0 218,-38 218,-38zm88 -42c0,0 37,-17 37,-17 11,23 27,41 52,55 0,0 7,13 7,13 0,0 -14,6 -14,6 0,0 -82,-57 -82,-57zm38 115c0,0 -191,51 -191,51 0,0 -3,-12 -3,-12 0,0 181,-47 181,-47 0,0 13,8 13,8zm61 102c0,0 -88,41 -88,41 0,0 -5,-11 -5,-11 0,0 77,-36 77,-36 0,0 16,6 16,6zm195 -569c0,0 114,28 114,28 0,0 -56,-132 -56,-132 0,0 -62,-15 -62,-15 5,35 5,75 4,119zm131 -133c0,0 -162,-136 -162,-136 0,0 -8,9 -8,9 0,0 172,144 172,144 0,0 13,153 13,153 0,0 94,79 94,79 0,0 -15,-171 -15,-171 0,0 -94,-78 -94,-78zm123 103c0,0 15,170 15,170 0,0 55,46 55,46 6,-44 13,-90 23,-135 0,0 0,-4 0,-4 0,0 -57,-48 -57,-48 0,0 -139,-197 -139,-197 0,0 -10,7 -10,7 0,0 113,161 113,161zm103 44c0,0 -75,-129 -75,-129 0,0 -11,6 -11,6 0,0 81,139 81,139l5 -16zm241 402c0,0 8,8 8,8 0,0 -2,-30 -2,-30 -2,7 -4,15 -6,22zm26 -111c0,0 12,144 12,144 0,0 93,77 93,77 0,0 -9,-98 -9,-98 -15,-34 -30,-69 -43,-104 0,0 -51,-42 -51,-42 0,8 -1,16 -2,23zm130 199c0,0 4,47 4,47 11,6 20,16 30,25l-34 -72zm108 -204c0,0 -4,-44 -4,-44 0,0 -12,1 -12,1 2,21 1,16 16,43zm-863 -228c0,0 128,-11 128,-11 0,0 93,78 93,78 0,0 -171,14 -171,14 0,0 -50,-41 -50,-41l0 -40zm80 106c0,0 170,-15 170,-15 0,0 70,59 70,59 0,7 -1,15 -2,22 0,0 -145,13 -145,13 -18,-16 -20,-15 -31,-30 0,0 -2,2 -2,2 0,0 -25,-21 -25,-21 0,0 -118,-55 -118,-55 1,-4 1,-9 1,-13 0,0 82,38 82,38zm122 104c0,0 112,-10 112,-10 -3,20 -6,39 -10,58 0,0 -15,-26 -15,-26l-35 20c0,0 -24,-21 -24,-21 0,0 -45,-15 -45,-15 0,0 -13,-17 -13,-17 0,0 30,11 30,11zm-101 -25c-27,-9 -18,-2 -36,-26 0,0 47,18 47,18l-11 8zm145 118c0,0 -10,-15 -10,-15 0,0 2,0 2,0l8 15zm346 98c0,0 25,-2 25,-2 0,0 93,79 93,79 0,0 -88,7 -88,7l-30 -84zm40 111c0,0 63,-6 63,-6l15 85c0,0 -48,4 -48,4 0,0 -30,-83 -30,-83zm142 19c0,0 47,39 47,39 1,4 3,7 5,11 0,0 -42,3 -42,3 0,0 -10,-53 -10,-53zm-214 -2c0,0 -16,-1 -16,-1 1,-4 3,-8 4,-12 0,0 8,0 8,0 0,0 4,13 4,13zm248 167c0,0 -5,1 -5,1 0,0 -15,-86 -15,-86 0,0 51,-4 51,-4 2,5 5,9 7,14l-38 75zm-88 -52c0,0 -16,-13 -16,-13 0,0 -28,3 -28,3 0,0 -4,-12 -4,-12 0,0 43,-4 43,-4 0,0 5,26 5,26zm-749 -290c0,0 9,1 9,1 0,0 -9,-16 -9,-16l0 15zm-246 -185c0,0 -138,-98 -138,-98 0,0 -7,10 -7,10 0,0 146,104 146,104 0,-6 0,-11 -1,-16zm257 39c0,0 4,2 4,2 0,0 27,152 27,152 0,0 99,69 99,69 0,0 -29,-169 -29,-169 0,0 -99,-68 -99,-68 0,4 -1,9 -2,14zm132 76c0,0 30,169 30,169 0,0 92,65 92,65 1,-6 2,-11 4,-16 0,0 -26,-148 -26,-148 0,0 -62,-43 -62,-43 0,0 -155,-185 -155,-185 0,0 -5,4 -5,4 0,3 0,6 -1,8 0,0 123,146 123,146zm131 92c0,0 11,64 11,64l14 -50c0,0 -135,-192 -135,-192 0,0 -10,7 -10,7 0,0 120,171 120,171zm235 313c0,0 25,17 25,17 0,0 -10,-55 -10,-55 -5,12 -10,25 -15,38zm-186 -386c0,0 -16,-29 -16,-29 0,0 -11,6 -11,6 0,0 23,39 23,39l4 -16zm221 301c0,0 21,124 21,124 0,0 100,70 100,70 0,0 -30,-169 -30,-169 0,0 -79,-56 -79,-56 -4,10 -8,21 -12,31zm123 47c0,0 29,169 29,169 0,0 48,34 48,34l36 -54c0,0 -15,-80 -15,-80 0,0 -81,-57 -81,-57 0,0 -83,-227 -83,-227l-6 21c0,0 72,194 72,194zm143 95c0,0 -40,-229 -40,-229 0,0 -12,2 -12,2 0,0 43,244 43,244 3,-6 6,-12 9,-17zm-954 -330c0,0 -173,-122 -173,-122 0,0 7,-10 7,-10 0,0 183,129 183,129 0,0 122,-22 122,-22 0,0 5,3 5,3 0,0 0,-4 0,-4 0,0 24,-3 24,-3 0,0 100,69 100,69 0,0 -169,30 -169,30 0,0 -99,-70 -99,-70zm131 92c0,0 168,-30 168,-30 0,0 100,69 100,69 0,0 -169,30 -169,30 0,0 -61,-42 -61,-42 0,0 -226,-83 -226,-83 0,0 4,-12 4,-12 0,0 184,68 184,68zm131 91c0,0 135,-24 135,-24 -4,33 -4,62 3,87 0,0 -39,7 -39,7 0,0 -71,-49 -71,-49 0,0 -233,-64 -233,-64 0,0 3,-11 3,-11 0,0 202,54 202,54zm131 92c0,0 18,-3 18,-3 7,13 16,25 29,36 0,0 -24,-16 -24,-16 0,0 -239,-43 -239,-43 0,0 2,-12 2,-12 0,0 214,38 214,38zm248 26c0,0 19,13 19,13 0,0 -25,5 -25,5 2,-6 4,-12 6,-18zm-118 66c0,0 4,-1 4,-1 11,7 21,16 31,25 0,0 -15,-10 -15,-10 0,0 -241,-22 -241,-22 0,0 1,-12 1,-12 0,0 220,20 220,20zm102 -18c0,0 67,-12 67,-12 0,0 99,70 99,70 0,0 -169,30 -169,30 0,0 -18,-14 -18,-14l21 -74zm30 109c0,0 168,-29 168,-29 0,0 48,33 48,33 -14,19 -25,36 -36,51 0,0 -82,15 -82,15 0,0 -82,-58 -82,-58 0,0 -4,0 -4,0 0,0 -5,-13 -5,-13l-34 13c0,0 -199,0 -199,0 0,0 0,-12 0,-12 0,0 226,0 226,0zm145 103c0,0 -1,-1 -1,-1 0,0 -93,17 -93,17 0,0 -5,-12 -5,-12 0,0 111,-20 111,-20 -4,6 -8,11 -12,16zm-167 28c0,0 -70,13 -70,13 0,0 -1,-12 -1,-12 0,0 66,-12 66,-12 0,0 5,11 5,11zm770 -140c0,0 77,105 77,105 0,0 -41,138 -41,138 0,0 -85,-115 -85,-115 0,0 37,-126 37,-126 0,0 -42,-236 -42,-236 0,0 12,-2 12,-2 0,0 42,236 42,236zm-116 153c0,0 -32,-185 -32,-185 0,0 12,-2 12,-2 0,0 32,184 32,184 0,0 -12,3 -12,3zm25 38c0,0 119,85 119,85 0,0 21,119 21,119 0,0 -33,-24 -33,-24 0,0 0,-52 0,-52l-73 0c0,0 -34,-128 -34,-128zm107 213c0,0 28,20 28,20 -10,12 -19,24 -28,36 0,0 0,-56 0,-56zm-91 79c0,0 -6,-10 -6,-10 0,0 2,-3 2,-3 0,0 4,13 4,13zm226 487c0,0 9,47 9,47 0,0 -2,5 -2,5 0,0 -17,-12 -17,-12 0,0 10,-40 10,-40zm-14 71c0,0 11,8 11,8 0,0 -5,14 -5,14 0,0 -2,-7 -2,-7 0,0 5,-8 5,-8 0,0 -9,-6 -9,-6 0,0 0,-1 0,-1zm47 118c0,0 4,22 4,22 0,0 -10,-6 -10,-6 0,0 6,-16 6,-16zm11 61c2,10 2,6 -5,19 0,0 -8,-28 -8,-28 0,0 13,9 13,9zm-38 -1090c0,0 -37,-209 -37,-209 0,0 -12,2 -12,2 0,0 39,221 39,221 0,0 -89,126 -89,126 0,0 21,115 21,115 5,-7 11,-13 17,-19 0,0 81,-117 81,-117 0,0 -20,-119 -20,-119zm27 157c0,0 -26,39 -26,39 10,46 12,59 32,103 0,0 15,-23 15,-23 0,0 -13,-73 -13,-73 0,0 21,-240 21,-240 0,0 -12,-1 -12,-1 0,0 -17,195 -17,195zm28 158c0,0 -8,11 -8,11 5,10 10,19 15,27 0,0 -1,-4 -1,-4 0,0 42,-238 42,-238 0,0 -12,-3 -12,-3 0,0 -36,207 -36,207zm51 119c0,0 44,-168 44,-168 0,0 -11,-3 -11,-3 0,0 -41,154 -41,154 2,5 5,11 8,17zm-93 341c0,0 10,54 10,54l17 -46 54 20c0,0 38,-55 38,-55 0,0 -17,-95 -17,-95 0,0 82,-227 82,-227 0,0 -11,-4 -11,-4 0,0 -52,144 -52,144 -6,75 -52,137 -121,209zm125 12c0,0 -46,66 -46,66 0,0 -44,120 -44,120 0,0 13,73 13,73 38,-54 37,-49 64,-96 0,0 3,2 3,2 0,0 31,-46 31,-46 0,0 -17,-98 -17,-98 0,0 102,-221 102,-221 0,0 -11,-5 -11,-5 0,0 -95,205 -95,205zm-1 349c0,0 50,-73 50,-73 0,0 -11,-59 -11,-59l-93 162 54 -30zm35 -159c0,0 -3,-16 -3,-16 0,0 137,-196 137,-196 0,0 -10,-7 -10,-7 0,0 -145,207 -145,207l21 12zm-1050 -2289c107,340 216,639 355,905 11,-20 23,-40 36,-59 0,0 -126,-289 -126,-289 0,0 140,267 140,267l29 -42c-106,-242 -257,-506 -434,-782zm361 1343c0,0 78,105 78,105 0,0 -41,137 -41,137 0,0 -86,-115 -86,-115 0,0 37,-125 37,-125 0,0 -41,-236 -41,-236 0,0 11,-2 11,-2 0,0 42,236 42,236zm106 150c0,0 6,-31 6,-31 4,22 6,14 -6,31zm5 -34l-2 -12c0,0 2,12 2,12zm-7 -26c0,0 -53,-204 -53,-204 0,0 11,-3 11,-3 0,0 26,96 26,96 0,0 19,115 19,115 0,0 -3,-4 -3,-4zm261 999c0,0 9,32 9,32 0,0 -12,-7 -12,-7 -4,-20 -5,-14 3,-25zm3 60c0,0 15,9 15,9 0,0 30,113 30,113 -1,0 -2,1 -3,1 0,0 -60,-34 -60,-34 0,0 20,-28 20,-28 0,0 5,-23 5,-23 0,0 -7,-38 -7,-38zm-56 197c0,0 -4,-2 -4,-2 0,0 -9,-33 -9,-33 0,0 36,-50 36,-50 0,0 52,30 52,30l-75 55zm-25 -1132c0,0 -40,-149 -40,-149l-3 36c0,0 30,110 30,110 0,0 13,3 13,3zm-40 -149c0,0 -11,-40 -11,-40 0,0 -11,3 -11,3 0,0 9,36 9,36 0,0 13,1 13,1zm66 300c0,0 10,-18 10,-18 0,0 -30,-112 -30,-112l-29 159 11 -39 38 10zm32 -28c0,0 0,-149 0,-149 0,0 -12,0 -12,0 0,0 0,165 0,165 4,-5 8,-11 12,-16zm6 582c0,0 11,39 11,39 0,0 66,-115 66,-115l-77 76zm106 -71c0,0 -2,3 -2,3 0,0 11,8 11,8 0,0 20,-71 20,-71 -24,23 -15,9 -29,60zm-70 209c0,0 15,57 15,57 0,0 86,-150 86,-150 0,0 -10,-37 -10,-37 0,0 -91,130 -91,130zm111 -55c0,0 -86,148 -86,148 0,0 27,101 27,101 0,0 1,0 1,0 0,-1 0,-1 0,-1 1,0 1,0 1,0 0,0 0,0 0,-1 8,-6 16,-12 24,-18 0,0 64,-112 64,-112 0,0 -25,-97 -25,-97 0,0 82,-228 82,-228 0,0 -11,-4 -11,-4 0,0 -77,212 -77,212zm46 171c0,0 119,-207 119,-207 0,0 -10,-7 -10,-7 0,0 -133,231 -133,231 8,-6 16,-12 24,-17zm-655 -997c0,0 -37,-208 -37,-208 0,0 12,-2 12,-2 0,0 39,220 39,220 0,0 126,89 126,89 0,0 21,119 21,119 0,0 -140,-98 -140,-98 0,0 -21,-120 -21,-120zm28 157c0,0 140,99 140,99 0,0 21,120 21,120 0,0 -140,-98 -140,-98 0,0 -13,-74 -13,-74 0,0 -102,-219 -102,-219 0,0 11,-4 11,-4 0,0 83,176 83,176zm28 158c0,0 140,99 140,99 0,0 20,119 20,119 0,0 -140,-98 -140,-98 0,0 -15,-85 -15,-85 0,0 -121,-209 -121,-209 0,0 11,-6 11,-6 0,0 105,180 105,180zm27 157c0,0 140,99 140,99 0,0 21,119 21,119 0,0 -140,-98 -140,-98 0,0 -16,-92 -16,-92 0,0 -139,-198 -139,-198 0,0 10,-6 10,-6 0,0 124,176 124,176zm28 158c0,0 140,98 140,98 0,0 21,120 21,120 0,0 -140,-98 -140,-98 0,0 -17,-96 -17,-96 0,0 -155,-186 -155,-186 0,0 9,-7 9,-7 0,0 142,169 142,169zm28 157c0,0 140,99 140,99 0,0 21,119 21,119 0,0 -140,-98 -140,-98 0,0 -18,-99 -18,-99 0,0 -171,-172 -171,-172 0,0 8,-8 8,-8 0,0 160,159 160,159zm168 256c0,0 21,119 21,119 0,0 -140,-98 -140,-98 0,0 -18,-103 -18,-103 0,0 -196,-137 -196,-137 0,0 7,-10 7,-10 0,0 326,229 326,229zm-39 -1090c0,0 0,1 0,1 0,0 -37,-210 -37,-210 0,0 -12,2 -12,2 0,0 39,222 39,222 0,0 -88,126 -88,126 0,0 22,119 22,119 0,0 97,-140 97,-140 0,0 -21,-120 -21,-120zm28 158c0,0 -98,140 -98,140 0,0 20,119 20,119 0,0 99,-140 99,-140 0,0 -13,-74 -13,-74 0,0 22,-239 22,-239 0,0 -13,-2 -13,-2 0,0 -17,196 -17,196zm28 157c0,0 -99,140 -99,140 0,0 21,120 21,120 0,0 99,-141 99,-141 0,0 -15,-85 -15,-85 0,0 42,-238 42,-238 0,0 -12,-2 -12,-2 0,0 -36,206 -36,206zm27 158c0,0 -98,140 -98,140 0,0 21,119 21,119 0,0 98,-140 98,-140 0,0 -16,-91 -16,-91 0,0 63,-235 63,-235 0,0 -12,-3 -12,-3 0,0 -56,210 -56,210zm28 157c0,0 -98,140 -98,140 0,0 21,119 21,119 0,0 98,-140 98,-140 0,0 -17,-95 -17,-95 0,0 83,-227 83,-227 0,0 -11,-5 -11,-5 0,0 -76,208 -76,208zm28 158c0,0 -98,140 -98,140 0,0 21,119 21,119 0,0 98,-141 98,-141 0,0 -17,-98 -17,-98 0,0 102,-220 102,-220 0,0 -11,-5 -11,-5 0,0 -95,205 -95,205zm-70 297c0,0 20,119 20,119 0,0 99,-140 99,-140 0,0 -18,-102 -18,-102 0,0 137,-196 137,-196 0,0 -10,-7 -10,-7 0,0 -228,326 -228,326zm-562 -1116c0,0 -74,-207 -74,-207 0,0 11,-5 11,-5 0,0 71,196 71,196 -3,5 -5,11 -8,16zm-60 208c0,0 -73,-200 -73,-200 0,0 11,-4 11,-4 0,0 78,210 78,210 0,0 133,63 133,63 7,7 43,105 48,116 0,0 -156,-72 -156,-72 0,0 -41,-113 -41,-113zm55 150c0,0 154,72 154,72 0,0 30,82 30,82l-20 17c0,0 -124,-58 -124,-58 0,0 -25,-70 -25,-70 0,0 -138,-197 -138,-197 0,0 10,-7 10,-7 0,0 113,161 113,161zm54 150c0,0 104,48 104,48l75 89c0,0 18,49 18,49 -27,-13 -17,-6 -42,-31 0,0 -7,8 -7,8 0,0 -102,-48 -102,-48 -13,-10 -26,-70 -34,-83 0,0 -156,-184 -156,-184 0,0 10,-8 10,-8 0,0 134,160 134,160zm82 163c0,0 45,21 45,21 0,0 -17,16 -17,16 0,0 -28,-37 -28,-37zm79 101c0,0 0,0 0,1 0,0 -6,-8 -6,-8 0,0 6,7 6,7zm-193 -67c0,0 -35,-29 -35,-29 0,0 8,-10 8,-10 22,20 15,10 27,39zm76 184c0,0 -72,-50 -72,-50 0,0 7,-10 7,-10 0,0 57,39 57,39 0,0 8,21 8,21zm77 187c0,0 -113,-53 -113,-53 0,0 5,-10 5,-10 0,0 101,46 101,46 0,0 7,17 7,17zm-7 -800l-24 35c0,0 16,46 16,46l33 -24c0,0 4,-8 4,-8 0,0 -29,-49 -29,-49zm46 78c0,0 -1,1 -1,1l7 9c0,0 -6,-10 -6,-10zm-17 105c11,31 12,46 31,68 0,0 7,-15 7,-15 0,0 -38,-53 -38,-53zm56 79c0,0 -6,11 -6,11 0,0 44,53 44,53 0,0 -1,-11 -1,-11 0,0 -37,-53 -37,-53zm22 362c0,0 -300,-388 -300,-388 137,331 189,600 414,892 0,0 63,-36 63,-36 0,0 -126,-238 -126,-238 0,0 156,221 156,221 18,-10 37,-21 60,-32 0,0 -6,-31 -6,-31 0,0 -134,-81 -134,-81l-30 -150 -211 -147 42 -59 72 49zm873 318c0,0 41,-308 41,-308 0,0 -138,332 -138,332 9,39 12,73 9,103l38 -140 50 13zm-825 1424c0,0 -18,67 -18,67l81 -3c0,0 54,-32 54,-32 0,0 27,-100 27,-100 0,0 207,-120 207,-120 0,0 -6,-11 -6,-11 0,0 -345,199 -345,199zm-29 -8c0,0 -20,76 -20,76 -11,1 -23,1 -35,1 0,0 -62,-108 -62,-108 0,0 6,-24 6,-24 0,0 65,-24 65,-24 0,0 46,79 46,79zm-94 -139c0,0 -4,-6 -4,-6 0,0 6,-14 6,-14 0,0 9,16 9,16 0,0 -11,4 -11,4zm459 -798l-113 113 29 -22c0,0 12,16 12,16 0,0 103,-60 103,-60l22 -77 -53 30zm21 85c0,0 -75,42 -75,42 0,0 16,19 16,19l-108 91c0,0 -6,25 -6,25 0,0 18,-13 18,-13 0,0 12,17 12,17 0,0 111,-64 111,-64 0,0 22,-84 22,-84 0,0 139,-198 139,-198 0,0 -10,-6 -10,-6 0,0 -119,171 -119,171zm-42 154c0,0 -85,49 -85,49 0,0 14,20 14,20l-36 25c30,-7 58,-15 88,-24 0,0 11,-42 11,-42 0,0 156,-186 156,-186 0,0 -9,-8 -9,-8 0,0 -139,166 -139,166zm94 35c0,0 29,-28 29,-28 0,0 -9,-8 -9,-8 0,0 -44,44 -44,44l24 -8zm-375 544c0,0 -23,87 -23,87 0,0 148,-86 148,-86 0,0 24,-86 24,-86 -81,14 -49,3 -127,46 0,0 10,28 10,28l-32 11zm116 -547c0,0 -3,8 -3,8 0,0 -3,-5 -3,-5 0,0 6,-3 6,-3zm-27 21c0,0 5,8 5,8 0,0 -38,27 -38,27 8,-17 11,-16 33,-35zm-124 539c0,0 -17,66 -17,66 0,0 -28,-49 -28,-49 0,0 45,-17 45,-17zm-82 -47c0,0 -13,-23 -13,-23 29,-1 59,-3 87,-5 0,0 -74,28 -74,28zm396 30c0,0 -16,60 -16,60 0,0 -23,-38 -23,-38 0,0 39,-22 39,-22zm-74 -41c0,0 -22,-37 -22,-37l27 -13c20,-3 40,-6 59,-9 0,0 10,17 10,17 0,0 -74,42 -74,42zm103 -66c0,0 -2,8 -2,8 0,0 -4,2 -4,2 0,0 -4,-8 -4,-8 3,-1 6,-1 10,-2zm57 -503c0,0 8,13 8,13 0,0 -62,62 -62,62 0,0 -4,-6 -4,-6 0,0 58,-69 58,-69zm78 -92c0,0 17,27 17,27 0,0 -26,95 -26,95l-39 -39c0,0 -2,2 -2,2 0,0 -9,-16 -9,-16 0,0 59,-69 59,-69zm32 -171c0,0 26,44 26,44 0,0 -31,118 -31,118 0,0 -8,-14 -8,-14 0,0 10,-12 10,-12 -39,-32 -28,-18 -51,-59 0,0 54,-77 54,-77zm56 -70c0,0 -21,78 -21,78 0,0 -17,-33 -17,-33 0,0 2,-3 2,-3l-12 -13c17,-10 33,-20 48,-29zm-215 921c0,0 -24,90 -24,90 0,0 148,-86 148,-86 0,0 27,-100 27,-100 0,0 207,-119 207,-119 0,0 -6,-11 -6,-11 0,0 -319,185 -319,185 0,0 10,17 10,17l-43 24zm25 -91c0,0 -7,25 -7,25 0,0 1,1 1,1 0,0 77,-45 77,-45 -23,7 -46,13 -71,19zm274 -489c0,0 129,-154 129,-154 0,0 -9,-8 -9,-8 0,0 -139,166 -139,166l19 -4zm22 -150c0,0 -148,85 -148,85 0,0 -27,101 -27,101 16,-4 31,-9 46,-13 0,0 98,-56 98,-56 0,0 22,-83 22,-83 0,0 139,-198 139,-198 0,0 -10,-7 -10,-7 0,0 -120,171 -120,171zm41 -154c0,0 -148,85 -148,85 0,0 -31,117 -31,117 0,0 148,-85 148,-85 0,0 19,-73 19,-73 0,0 121,-208 121,-208 0,0 -10,-6 -10,-6 0,0 -99,170 -99,170zm42 -155c0,0 -1,1 -1,1 0,0 56,-206 56,-206 0,0 -12,-3 -12,-3 0,0 -59,217 -59,217 0,0 -94,55 -94,55 -13,10 -26,20 -41,29 0,0 -29,109 -29,109 0,0 148,-85 148,-85 0,0 32,-117 32,-117zm-51 -307c0,0 28,-107 28,-107 0,0 -11,-4 -11,-4 0,0 -23,84 -23,84l6 27zm-418 1469c0,0 -24,93 -24,93 -7,-1 -14,-1 -21,-2 0,0 -65,-112 -65,-112 0,0 74,-43 74,-43 0,0 36,64 36,64zm-81 -143c0,0 9,16 9,16 0,0 -16,9 -16,9 0,0 7,-25 7,-25zm111 151c0,0 -23,87 -23,87 0,0 38,3 38,3 0,0 102,-59 102,-59 0,0 27,-100 27,-100 0,0 207,-119 207,-119 0,0 -6,-11 -6,-11 0,0 -345,199 -345,199zm-666 -10c0,0 -36,79 -36,79l56 6c0,0 90,-33 90,-33 0,0 44,-94 44,-94 0,0 224,-82 224,-82 0,0 -4,-12 -4,-12 0,0 -374,136 -374,136zm-27 -12c0,0 -42,88 -42,88 -6,-1 -12,-1 -18,-2 0,0 -50,-137 -50,-137 0,0 43,-95 43,-95 0,0 -81,-224 -81,-224 0,0 12,-4 12,-4 0,0 136,374 136,374zm595 -919c0,0 -161,59 -161,59 0,0 -52,110 -52,110 0,0 161,-58 161,-58 0,0 32,-68 32,-68 0,0 155,-185 155,-185 0,0 -9,-8 -9,-8 0,0 -126,150 -126,150zm-68 145c0,0 -161,59 -161,59 0,0 -51,110 -51,110 0,0 161,-58 161,-58 0,0 36,-79 36,-79 0,0 171,-171 171,-171 0,0 -8,-9 -8,-9 0,0 -148,148 -148,148zm-67 145c0,0 -161,59 -161,59 0,0 -52,109 -52,109 0,0 161,-58 161,-58 0,0 40,-84 40,-84 0,0 185,-156 185,-156 0,0 -7,-9 -7,-9 0,0 -166,139 -166,139zm-68 145c0,0 -161,58 -161,58 0,0 -51,111 -51,111 0,0 161,-59 161,-59 0,0 41,-88 41,-88 0,0 198,-139 198,-139 0,0 -7,-10 -7,-10 0,0 -181,127 -181,127zm-67 145c0,0 -161,58 -161,58 0,0 -52,111 -52,111 0,0 162,-59 162,-59 0,0 42,-91 42,-91 0,0 209,-122 209,-122 0,0 -6,-10 -6,-10 0,0 -194,113 -194,113zm-229 203c0,0 -51,110 -51,110 0,0 161,-59 161,-59 0,0 44,-93 44,-93 0,0 225,-83 225,-83 0,0 -4,-11 -4,-11 0,0 -375,136 -375,136zm251 -898c0,0 59,161 59,161 0,0 -51,110 -51,110 0,0 -58,-161 -58,-161 0,0 31,-67 31,-67 0,0 41,-238 41,-238 0,0 12,2 12,2 0,0 -34,193 -34,193zm-67 145c0,0 59,161 59,161 0,0 -51,110 -51,110 0,0 -59,-161 -59,-161 0,0 36,-78 36,-78 0,0 21,-242 21,-242 0,0 13,1 13,1 0,0 -19,209 -19,209zm-68 145c0,0 59,161 59,161 0,0 -51,110 -51,110 0,0 -58,-161 -58,-161 0,0 39,-84 39,-84 0,0 0,-242 0,-242 0,0 11,0 11,0 0,0 0,216 0,216zm-67 145c0,0 59,161 59,161 0,0 -51,110 -51,110 0,0 -59,-161 -59,-161 0,0 41,-88 41,-88 0,0 -21,-240 -21,-240 0,0 12,-1 12,-1 0,0 19,219 19,219zm-68 145c0,0 59,160 59,160 0,0 -51,111 -51,111 0,0 -58,-161 -58,-161 0,0 41,-92 41,-92 0,0 -41,-238 -41,-238 0,0 12,-2 12,-2 0,0 38,222 38,222zm-9 305c0,0 -50,111 -50,111 0,0 -59,-162 -59,-162 0,0 44,-94 44,-94 0,0 -82,-224 -82,-224 0,0 11,-5 11,-5 0,0 136,374 136,374zm859 289c-113,58 -215,114 -310,169 -25,69 -55,117 -92,148l12 21c123,-98 249,-208 390,-338zm-542 370c-30,3 -61,2 -95,0 -17,12 -34,23 -51,35 0,0 86,0 86,0 0,0 60,-35 60,-35zm-1637 325c0,0 -45,165 -45,165 0,0 -92,54 -92,54 15,-62 32,-119 57,-173 0,0 55,-32 55,-32 0,0 139,-199 139,-199 0,0 10,7 10,7 0,0 -124,178 -124,178zm138 -80c0,0 -44,166 -44,166 0,0 -105,60 -105,60 0,0 44,-166 44,-166 0,0 74,-42 74,-42 0,0 30,-35 30,-35l11 5c0,0 -10,12 -10,12zm3 95c0,0 26,-97 26,-97 9,4 18,9 27,14 0,0 -3,41 -3,41 0,0 -50,42 -50,42zm-46 210c0,0 -124,-33 -124,-33 0,0 -105,61 -105,61 0,0 165,43 165,43 0,0 41,-22 41,-22 0,0 -3,-1 -3,-1 0,0 24,-19 24,-19 0,0 2,-29 2,-29zm10 -110c0,0 -101,57 -101,57 0,0 94,26 94,26 0,0 7,-83 7,-83zm950 -223c0,0 -106,0 -106,0 28,9 56,18 84,27 0,0 198,-114 198,-114 0,0 -6,-11 -6,-11 0,0 -170,98 -170,98zm51 50c0,0 31,-14 31,-14 0,0 -5,-11 -5,-11 0,0 -43,20 -43,20 6,2 11,3 17,5zm-389 289c0,0 -54,0 -54,0 0,0 -2,20 -2,20l-125 -11c0,0 -77,76 -77,76 0,0 113,0 113,0 23,-4 46,-7 69,-10 0,0 59,-58 59,-58 0,0 42,-11 42,-11 -18,-10 -14,-9 -25,-6zm-373 311c0,0 62,0 62,0 0,0 10,-10 10,-10 -24,4 -48,7 -72,10zm233 -386c0,0 -13,13 -13,13 0,0 -12,-1 -12,-1 0,0 0,-24 0,-24l25 12zm-53 -25c0,0 0,34 0,34 0,0 -40,-3 -40,-3 0,0 39,-33 39,-33 0,2 1,2 1,2zm-27 106c0,0 -58,58 -58,58 0,0 0,-63 0,-63 0,0 58,5 58,5zm-86 -8c0,0 0,93 0,93 0,0 -27,28 -27,28 -20,4 -39,8 -59,12 0,0 0,-72 0,-72 0,0 10,-2 10,-2 0,0 70,-59 70,-59 0,0 6,0 6,0zm-198 159c0,0 0,-39 0,-39 0,0 59,-59 59,-59 0,0 27,3 27,3 0,0 0,75 0,75 -29,6 -58,13 -86,20zm25 -217c0,0 -93,78 -93,78 0,0 170,15 170,15 0,0 80,-67 80,-67 0,0 238,21 238,21 0,0 1,-12 1,-12 0,0 -396,-35 -396,-35zm-20 -23c0,0 -92,78 -92,78 0,0 15,-171 15,-171 0,0 79,-67 79,-67 0,0 21,-238 21,-238 0,0 12,1 12,1 0,0 -35,397 -35,397zm928 -581c0,0 -171,-15 -171,-15 0,0 -94,79 -94,79 0,0 171,15 171,15 0,0 58,-48 58,-48 0,0 217,-103 217,-103 0,0 -5,-10 -5,-10 0,0 -176,82 -176,82zm-122 103c0,0 -171,-15 -171,-15 0,0 -94,78 -94,78 0,0 171,15 171,15 0,0 66,-55 66,-55 0,0 227,-83 227,-83 0,0 -4,-11 -4,-11 0,0 -195,71 -195,71zm-124 103c0,0 -169,-15 -169,-15 0,0 -94,77 -94,77 0,0 171,15 171,15 0,0 71,-59 71,-59 0,0 234,-63 234,-63 0,0 -3,-11 -3,-11 0,0 -210,56 -210,56zm-122 102c0,0 -171,-15 -171,-15 0,0 -92,79 -92,79 0,0 171,15 171,15 0,0 74,-63 74,-63 0,0 238,-42 238,-42 0,0 -2,-12 -2,-12 0,0 -218,38 -218,38zm-122 103c0,0 -171,-14 -171,-14 0,0 -92,77 -92,77 0,0 171,15 171,15 0,0 76,-65 76,-65 0,0 241,-20 241,-20 0,0 0,-12 0,-12 0,0 -225,19 -225,19zm-293 88c0,0 -92,77 -92,77 0,0 170,16 170,16 0,0 80,-67 80,-67 0,0 237,21 237,21 0,0 1,-12 1,-12 0,0 -396,-35 -396,-35zm607 -708c0,0 -15,171 -15,171 0,0 -92,78 -92,78 0,0 15,-171 15,-171 0,0 56,-48 56,-48 0,0 138,-197 138,-197 0,0 10,7 10,7 0,0 -112,160 -112,160zm-122 103c0,0 -15,171 -15,171 0,0 -93,78 -93,78 0,0 15,-171 15,-171 0,0 66,-55 66,-55 0,0 121,-210 121,-210 0,0 10,6 10,6 0,0 -104,181 -104,181zm-122 103c0,0 -15,171 -15,171 0,0 -94,77 -94,77 0,0 16,-170 16,-170 0,0 71,-60 71,-60 0,0 102,-220 102,-220 0,0 11,5 11,5 0,0 -91,197 -91,197zm-123 102c0,0 -14,171 -14,171 0,0 -94,78 -94,78 0,0 15,-170 15,-170 0,0 75,-63 75,-63 0,0 82,-226 82,-226 0,0 12,4 12,4 0,0 -76,206 -76,206zm-122 104c0,0 -15,170 -15,170 0,0 -93,78 -93,78 0,0 15,-171 15,-171 0,0 76,-64 76,-64 0,0 64,-235 64,-235 0,0 11,4 11,4 0,0 -58,218 -58,218zm-138 273c0,0 -92,78 -92,78 0,0 15,-171 15,-171 0,0 79,-67 79,-67 0,0 21,-238 21,-238 0,0 12,1 12,1 0,0 -35,397 -35,397zm-360 506c474,-35 812,-105 1325,-268 -555,23 -900,74 -1381,214 0,0 21,23 21,23 0,0 482,-95 482,-95l288 -48 -312 62c0,0 -444,95 -444,95 8,8 12,10 21,17zm368 407c0,0 66,-31 66,-31 0,0 -100,-139 -100,-139 0,0 113,133 113,133 0,0 68,-31 68,-31 0,0 -133,-157 -133,-157 0,0 150,149 150,149 0,0 71,-33 71,-33 0,0 -173,-173 -173,-173 0,0 194,163 194,163 0,0 74,-35 74,-35 0,0 -222,-185 -222,-185 0,0 249,173 249,173 0,0 76,-35 76,-35 0,0 -277,-194 -277,-194 0,0 309,179 309,179 0,0 80,-38 80,-38 0,0 -336,-194 -336,-194l-94 16c0,0 -48,49 -48,49 -154,0 -236,-10 -340,-1 0,0 273,384 273,384zm210 -449c0,0 374,177 374,177 0,0 85,-39 85,-39 0,0 -310,-146 -310,-146 0,0 -106,0 -106,0 -14,3 -28,6 -43,8zm-351 -192c0,0 -89,-34 -89,-34 0,0 -104,60 -104,60 0,0 -60,-19 -60,-19 0,0 -83,43 -83,43 0,0 59,-56 59,-56 0,0 -57,-22 -57,-22 0,0 21,23 21,23 0,0 -39,50 -39,50 0,0 11,26 11,26 0,0 71,-28 71,-28 0,0 23,19 23,19 0,0 -67,62 -67,62 0,0 223,-118 223,-118 0,0 -214,135 -214,135 0,0 14,20 14,20 0,0 194,-74 194,-74 0,0 72,-54 72,-54 0,0 25,-33 25,-33zm1375 -574c0,0 -171,0 -171,0 0,0 -87,85 -87,85 0,0 172,0 172,0 0,0 53,-52 53,-52 0,0 208,-121 208,-121 0,0 -6,-10 -6,-10 0,0 -169,98 -169,98zm-114 112c0,0 -170,0 -170,0 0,0 -86,86 -86,86 0,0 171,0 171,0 0,0 61,-61 61,-61 0,0 219,-102 219,-102 0,0 -5,-11 -5,-11 0,0 -190,88 -190,88zm-112 113c0,0 -172,0 -172,0 0,0 -2,3 -2,3l120 51c0,0 34,-34 34,-34 0,0 228,-82 228,-82 0,0 -4,-12 -4,-12 0,0 -204,74 -204,74zm33 -305c0,0 0,58 0,58 0,0 -85,86 -85,86 0,0 0,-153 0,-153 0,0 1,0 1,1l84 8zm-113 -1c0,0 0,172 0,172 0,0 -86,86 -86,86 0,0 0,-57 0,-57l80 -46 -37 -62 -43 24c0,0 0,-31 0,-31 0,0 61,-61 61,-61 0,0 17,-36 17,-36 4,0 9,2 13,2 0,0 -5,9 -5,9zm-112 114c0,0 0,19 0,19 0,0 -46,26 -46,26 0,0 25,-25 25,-25 0,0 52,-143 52,-143 0,0 15,-5 15,-5 0,0 -46,128 -46,128zm0 103c0,0 0,41 0,41l-15 -32c0,0 15,-9 15,-9zm-4 73c-10,8 -9,9 -15,6l15 -6zm-116 -89c0,0 25,-90 25,-90 0,0 13,-4 13,-4 0,0 -23,86 -23,86 0,0 -15,8 -15,8zm-306 427c0,0 0,-20 0,-20 61,-17 30,-16 87,5 0,0 0,1 0,1l-87 14z"/>
  <path class="fil3" d="M1451 1176c0,0 3085,0 3085,0 0,0 0,3021 0,3021 0,623 -664,530 -982,530 -244,0 -348,5 -560,191 -212,-186 -317,-191 -561,-191 -318,0 -982,93 -982,-530 0,0 0,-3021 0,-3021z"/>
  <path class="fil4" d="M4447 4379c-18,49 -33,81 -68,123 -113,134 -337,162 -498,165 -172,3 -448,-19 -602,16 -107,24 -202,83 -285,153 -206,-167 -327,-176 -593,-173 -239,2 -656,44 -813,-188 -58,-86 -72,-177 -74,-279 0,0 0,-1170 0,-1170 0,0 2960,0 2960,0 0,69 2,1159 -2,1222 -4,54 -11,81 -25,131z"/>
  <path class="fil5" d="M2054 2762c-187,-9 -357,-13 -544,4 0,0 0,-293 0,-293 71,0 151,13 233,41 158,56 275,154 311,248zm93 -167c0,0 0,1 0,1 93,44 160,86 190,188 -83,-7 -164,-14 -247,-19 0,-14 -26,-59 -35,-74 -41,-61 -118,-120 -182,-155 0,-1 -1,-1 -1,-1 97,4 190,22 275,60zm-208 -89c-35,-5 -72,-5 -107,-5 -47,0 -6,9 -77,-18 -56,-20 -128,-35 -187,-41 -20,-2 -39,-2 -58,-3 0,0 0,-98 0,-98 29,1 59,3 90,7 151,22 277,84 339,158zm39 -101c0,1 1,2 1,3 44,19 71,32 105,69 24,24 39,45 51,76 -34,-11 -71,-26 -107,-33 -14,-2 -28,-5 -42,-8 -35,-58 -117,-114 -179,-140 -5,-2 -11,-4 -16,-7 70,5 134,19 187,40zm-268 -73l-21 1c-44,-15 -131,-24 -179,-24 0,0 0,-104 0,-104 75,19 160,59 200,127zm89 -67c61,23 105,41 151,90 2,2 3,4 5,6 -67,-20 -137,-30 -207,-30 -28,-51 -38,-58 -84,-95 49,5 95,15 135,29zm-95 -84c18,12 39,22 54,37 -49,-11 -79,-14 -129,-18 -60,-4 -12,5 -63,-14l-56 -16c0,0 0,-26 0,-26 72,-3 130,9 194,37z"/>
  <path class="fil1" d="M1508 2964c0,0 0,-170 0,-170 287,-30 569,-10 855,19 -34,-139 -70,-177 -193,-242 -15,-85 -101,-164 -162,-187 -18,-41 -31,-54 -68,-84 -36,-31 -63,-42 -105,-56 -64,-93 -194,-135 -327,-122 0,0 0,-883 0,-883 0,0 2960,0 2960,0 0,0 0,1725 0,1725 0,0 -2960,0 -2960,0z"/>
  <path class="fil5" d="M3222 1500c22,-26 49,-22 68,-1 21,24 25,78 66,113 51,46 108,40 147,33 14,-1 52,-14 74,-34 17,-15 26,-47 0,-56 -9,-4 -20,-7 -16,-16 10,-25 67,16 22,72 -5,6 -10,26 6,39 36,29 160,-82 110,-111 13,-33 37,-36 65,-39 -10,3 -27,9 -34,24 -28,58 37,90 75,68 65,31 178,-26 215,-79 26,-39 12,-91 -22,-102 -64,-21 -50,-73 -35,-85 17,-14 38,-17 53,-18 -10,3 -26,4 -41,23 -14,20 -7,58 18,73 29,18 138,-16 162,-56 23,-39 32,-90 -12,-81 -24,5 -28,-25 3,-23 56,4 29,72 13,100 24,-28 39,-64 36,-105 0,0 -483,0 -483,0 -24,8 -36,18 -36,18 88,-32 106,59 93,69 -32,22 11,-88 -98,-64 -18,4 -45,36 -50,45 -5,9 -34,72 8,97 40,26 90,-24 90,-24 0,0 -6,27 -42,40 -36,13 -82,-28 -103,-52 -21,-25 18,1 -38,-54 -55,-56 -139,-49 -139,-49 42,9 72,42 70,79 -8,-21 -16,-39 -29,-49 -41,-31 -99,-42 -157,-33 -85,14 -124,102 -180,114 -23,5 -56,8 -47,-13 9,-21 25,8 49,3 16,-3 38,-13 53,-30 -54,-16 -119,-31 -155,-32 -108,-3 -182,36 -213,126l340 0c0,0 94,70 94,70z"/>
  <path class="fil3" d="M2707 1430c0,0 0,85 0,85 0,0 44,0 44,0 0,0 0,192 0,192 -118,69 -189,199 -195,336 0,0 -80,0 -80,0 0,0 0,100 0,100 0,0 -73,0 -73,0 0,0 0,680 0,680 0,0 1210,0 1210,0 0,0 0,-680 0,-680 0,0 -74,0 -74,0 0,0 0,-100 0,-100 0,0 -84,0 -84,0 -7,-171 -112,-315 -255,-364 0,0 0,-95 0,-95 0,0 23,0 23,0 0,0 0,-84 0,-84 0,0 -95,-70 -95,-70l-421 0z"/>
  <path class="fil5" d="M2732 1454c0,0 372,0 372,0 0,0 0,37 0,37 0,0 -372,0 -372,0 0,0 0,-37 0,-37zm318 227c-10,-4 -20,-8 -30,-11 0,0 0,-149 0,-149 0,0 41,0 41,0 0,0 0,165 0,165 0,0 -11,-5 -11,-5zm-67 -20c-47,-10 -90,-7 -137,2 0,0 0,-142 0,-142 0,0 144,0 144,0 0,0 0,141 0,141 0,0 -7,-1 -7,-1zm-170 12l-37 15c0,0 0,-167 0,-167 0,0 39,0 39,0 0,0 0,151 0,151 0,0 -2,1 -2,1zm-236 380c5,-47 4,-71 21,-119 36,-104 106,-187 209,-229l61 -15c0,0 0,36 0,36 -81,14 -154,70 -197,138 -50,81 -56,143 -60,240 0,0 -77,0 -77,0 0,0 0,99 0,99 0,0 -73,0 -73,0 0,0 0,597 0,597 0,0 -36,0 -36,0 0,0 0,-633 0,-633 0,0 73,0 73,0 0,0 0,-99 0,-99 0,0 78,0 78,0 0,0 1,-15 1,-15zm418 -358c54,17 87,32 132,70 33,28 69,76 88,115 34,67 39,115 44,188 0,0 79,0 79,0 0,0 0,99 0,99 0,0 73,0 73,0 0,0 0,633 0,633 0,0 -37,0 -37,0 0,0 0,-597 0,-597 0,0 -72,0 -72,0 0,0 0,-99 0,-99 0,0 -77,0 -77,0 -7,-101 -6,-142 -54,-230 -20,-35 -63,-81 -99,-104 -41,-26 -54,-33 -104,-44 0,0 0,-36 0,-36 9,1 18,3 27,5zm-97 -9l39 0c0,0 0,1114 0,1114 0,0 -39,0 -39,0 0,0 0,-1114 0,-1114zm299 449c0,0 74,0 74,0 0,0 0,99 0,99 0,0 74,0 74,0 0,0 0,566 0,566 0,0 -115,0 -115,0l0 -532c-8,-92 -128,-144 -201,-61 -17,20 -26,47 -26,73 0,0 0,520 0,520 0,0 -35,0 -35,0 0,0 0,-1043 0,-1043 81,16 151,80 187,152 38,76 37,141 42,226zm-329 -378c0,0 0,1043 0,1043 0,0 -35,0 -35,0l-1 -532c-6,-43 -30,-76 -69,-93 -55,-25 -125,3 -149,60l-9 45c0,0 0,520 0,520 0,0 -113,0 -113,0 0,0 0,-566 0,-566 0,0 72,0 72,0 0,0 0,-99 0,-99 0,0 75,0 75,0 8,-90 3,-161 52,-246 36,-61 105,-119 177,-132z"/>
  <path class="fil5" d="M3613 2785c285,-1 570,-220 855,-226 0,0 0,101 0,101 -285,4 -570,162 -855,163 0,0 0,-38 0,-38 0,0 0,0 0,0zm855 -653c0,0 0,101 0,101 -285,12 -570,426 -855,428 0,0 0,-37 0,-37 285,-3 570,-478 855,-492 0,0 0,0 0,0zm0 146c0,0 0,102 0,102 -285,9 -570,334 -855,336 0,0 0,-39 0,-39 285,-2 570,-387 855,-399 0,0 0,0 0,0l0 0zm0 145c0,0 0,101 0,101 -285,7 -570,245 -855,246 0,0 0,-39 0,-39 285,-1 570,-299 855,-308 0,0 0,0 0,0l0 0z"/>
  <path class="fil3" d="M3474 4448c0,0 0,-154 0,-154 0,0 -65,0 -65,0 -71,-87 -178,-58 -240,-95 -65,-38 -77,-102 17,-115 18,-3 36,-5 54,-7 -5,-28 -17,-59 -40,-78 158,-8 264,-30 415,-90 56,-24 109,-50 162,-81 35,-22 69,-46 104,-70 9,-8 42,-34 69,-54 41,-29 44,-33 26,-67 -20,-37 -47,-48 -85,-56 0,0 0,-39 0,-39 0,0 115,0 115,0 -26,-59 -46,-102 -110,-126 0,0 0,-49 0,-49 -565,0 -1240,0 -1805,0 0,0 0,49 0,49 -66,26 -84,69 -109,126 0,0 115,0 115,0 0,0 0,39 0,39 -36,8 -69,20 -86,56 -15,32 -16,37 26,67 77,55 95,76 175,124 108,66 257,124 381,149 67,14 133,19 195,22 -25,19 -34,52 -41,78 30,3 80,6 104,22 45,30 6,103 -90,119 -65,10 -140,19 -182,76 0,0 -66,0 -66,0 0,0 0,154 0,154 0,0 961,0 961,0z"/>
  <path class="fil6" d="M2832 4219c57,-31 87,-101 33,-139 86,0 172,0 257,0 -6,5 -12,9 -17,15 -32,47 9,101 51,124 -108,0 -217,0 -324,0zm1034 -678c0,0 0,41 0,41 0,0 -1745,0 -1745,0 0,0 0,-41 0,-41 0,0 1745,0 1745,0zm6 -103c45,3 78,39 96,79 0,0 -1948,0 -1948,0 15,-37 52,-78 96,-79 0,0 1756,0 1756,0zm0 -46c0,0 0,22 0,22 0,0 -1757,0 -1757,0 0,0 0,-22 0,-22 0,0 1757,0 1757,0zm-719 586c149,-1 237,-19 338,-46 111,-37 211,-84 309,-148 56,-38 108,-79 160,-122 -12,-26 -19,-43 -57,-53 -42,-12 -49,-11 -93,4 -98,36 -160,168 -295,250 -99,62 -205,89 -362,115zm-30 -16c0,1 9,0 13,-1 89,-10 114,-5 210,-35 177,-61 209,-98 269,-158 35,-37 66,-72 100,-113 53,-61 -86,-73 -125,-28 -45,52 -49,65 -92,114 -48,51 -102,129 -191,167 -47,20 -114,35 -172,50 -4,1 -14,3 -12,4zm-38 -7c1,0 7,-1 11,-2 71,-13 104,-15 173,-42 130,-52 144,-93 197,-148 29,-34 57,-71 84,-110 41,-59 -83,-66 -110,-25 -54,83 -62,121 -129,193 -85,90 -236,129 -226,134zm-43 -8c2,1 8,-1 11,-1 55,-10 85,-21 131,-45 87,-46 134,-93 166,-143 21,-36 40,-64 63,-106 33,-58 -93,-69 -118,-18 -33,71 -38,102 -89,171 -91,123 -177,133 -164,142zm-32 0c11,6 70,-38 82,-46 66,-46 101,-93 133,-143 19,-30 32,-64 49,-106 24,-58 -106,-76 -131,-3 -23,69 -23,92 -53,156 -25,58 -34,83 -74,133 -2,2 -9,6 -6,9zm-12 -1c3,0 5,-3 6,-5 55,-83 82,-148 121,-282 21,-72 -112,-86 -116,-3 0,0 -13,282 -13,282 0,2 0,8 2,8zm-220 110c0,0 432,0 432,0 -3,-10 -9,-20 -16,-27 -58,-61 -124,-74 -202,-74 -72,0 -148,16 -199,74 -6,7 -11,17 -15,27zm488 192c51,10 73,16 110,46 0,0 -764,0 -764,0 29,-29 71,-38 110,-46 11,-2 22,-3 33,-4 159,0 318,0 478,0 11,1 22,2 33,4zm184 70c0,0 0,26 0,26 0,0 -912,0 -912,0 0,0 0,-26 0,-26 0,0 912,0 912,0zm0 50c0,0 0,56 0,56 -317,0 -595,0 -912,0 0,0 0,-56 0,-56 0,0 912,0 912,0zm-616 -390c-149,-1 -236,-19 -336,-46 -112,-37 -212,-84 -311,-148l-160 -123c13,-26 22,-43 57,-52 43,-12 50,-11 94,4 95,36 165,171 294,250 100,62 205,89 362,115zm31 -16c-1,1 -10,0 -14,-1 -88,-10 -113,-5 -210,-35 -177,-61 -209,-98 -268,-158 -35,-37 -67,-72 -101,-113 -52,-61 86,-73 126,-28 44,52 48,65 93,114 46,51 101,129 190,167 46,20 114,35 171,50 4,1 14,3 13,4zm38 -7c-1,0 -8,-1 -11,-2 -71,-13 -105,-15 -174,-42 -129,-52 -143,-93 -196,-148 -29,-34 -58,-71 -84,-110 -42,-59 83,-66 110,-25 53,83 61,121 129,193 85,90 234,128 226,134zm43 -8c-3,1 -9,-1 -11,-1 -55,-10 -86,-21 -132,-45 -86,-46 -133,-93 -165,-143 -22,-36 -41,-64 -64,-106 -32,-58 94,-69 118,-18 34,71 38,102 90,171 90,122 176,134 164,142zm31 0c-6,7 -72,-39 -82,-46 -65,-46 -100,-93 -133,-143 -18,-30 -31,-64 -48,-106 -24,-58 105,-76 130,-3 24,69 23,92 53,156 26,58 35,83 75,133 1,2 8,6 5,9zm13 -1c-3,0 -6,-3 -6,-5 -55,-83 -82,-148 -121,-282 -21,-72 112,-86 116,-3 0,0 13,282 13,282 0,2 0,8 -2,8z"/>
</svg>
