<?xml version="1.0" encoding="UTF-8" standalone="no"?>
<!-- Creator: CorelDRAW -->
<svg
   xmlns:dc="http://purl.org/dc/elements/1.1/"
   xmlns:cc="http://web.resource.org/cc/"
   xmlns:rdf="http://www.w3.org/1999/02/22-rdf-syntax-ns#"
   xmlns:svg="http://www.w3.org/2000/svg"
   xmlns="http://www.w3.org/2000/svg"
   xmlns:sodipodi="http://sodipodi.sourceforge.net/DTD/sodipodi-0.dtd"
   xmlns:inkscape="http://www.inkscape.org/namespaces/inkscape"
   xml:space="preserve"
   width="325.20001"
   height="398.29999"
   style="shape-rendering:geometricPrecision; text-rendering:geometricPrecision; image-rendering:optimizeQuality; fill-rule:evenodd; clip-rule:evenodd"
   viewBox="0 0 94 116"
   id="svg2"
   sodipodi:version="0.32"
   inkscape:version="0.44"
   sodipodi:docname="prim.svg"
   sodipodi:docbase="D:\i"
   version="1.0"><metadata
   id="metadata31"><rdf:RDF><cc:Work
       rdf:about=""><dc:format>image/svg+xml</dc:format><dc:type
         rdf:resource="http://purl.org/dc/dcmitype/StillImage" /></cc:Work></rdf:RDF></metadata><sodipodi:namedview
   inkscape:window-height="749"
   inkscape:window-width="1024"
   inkscape:pageshadow="2"
   inkscape:pageopacity="0.0"
   guidetolerance="10.0"
   gridtolerance="10.0"
   objecttolerance="10.0"
   borderopacity="1.0"
   bordercolor="#666666"
   pagecolor="#ffffff"
   id="base"
   width="325.2px"
   height="398.29999px"
   inkscape:zoom="0.95858238"
   inkscape:cx="41.34358"
   inkscape:cy="205.51181"
   inkscape:window-x="-4"
   inkscape:window-y="-4"
   inkscape:current-layer="svg2" />
 <defs
   id="defs4">
  <style
   type="text/css"
   id="style6">

    .fil0 {fill:#00923F}
    .fil2 {fill:#28166F}
    .fil3 {fill:#71625B}
    .fil5 {fill:#E77817}
    .fil4 {fill:#FFF500}
    .fil1 {fill:#71625B;fill-rule:nonzero}

  </style>
 </defs>

<g
   style="fill-rule:evenodd"
   id="Layer_x0020_1"
   transform="matrix(1.031945,0,0,1.031945,-1.500309,-0.759073)">
  <metadata
   id="CorelCorpID_0Corel-Layer" />
  <g
   id="g10">
   <path
   class="fil0"
   d="M 1.5456,85.8432 C 1.5456,90.8071 9.3719,100.0324 15.2203,100.0323 L 32.4036,100.0328 C 40.1238,100.0327 45.9506,106.829 45.9511,112.5603 C 46.9928,112.5605 47.0352,112.5605 48.1414,112.5607 C 48.1412,106.7653 51.8416,100.0112 61.7097,100.011 L 78.6383,100.0113 C 84.784,100.0111 92.4401,90.8074 92.4403,85.8431 C 92.44,57.5495 92.4397,29.3838 92.4401,1.1964 L 1.5452,1.1751 L 1.5456,85.8432 L 1.5456,85.8432 z "
   id="path12"
   style="fill:#00923f" />
   <path
   class="fil1"
   d="M 15.2203,99.5972 L 15.2203,100.4674 L 15.2203,100.4674 L 14.6273,100.4391 L 14.0263,100.3557 L 13.4224,100.2216 L 12.8157,100.0391 L 12.2079,99.8107 L 11.5993,99.5424 L 10.9949,99.2331 L 10.3915,98.8869 L 9.7944,98.5066 L 9.2017,98.0944 L 8.6188,97.6528 L 8.0441,97.1844 L 7.4794,96.6932 L 6.9281,96.1783 L 6.3903,95.644 L 5.8696,95.0945 L 5.366,94.5285 L 4.8814,93.9506 L 4.4175,93.363 L 3.9778,92.7683 L 3.5607,92.1673 L 3.1697,91.564 L 2.8083,90.9594 L 2.4749,90.3574 L 2.1748,89.759 L 1.9062,89.1665 L 1.6727,88.5808 L 1.4778,88.0061 L 1.3216,87.4429 L 1.2057,86.894 L 1.1356,86.3598 L 1.1096,85.8432 L 1.9816,85.8432 L 2.0008,86.2814 L 2.0641,86.7472 L 2.1662,87.2381 L 2.3088,87.7501 L 2.4901,88.2806 L 2.7066,88.8253 L 2.9582,89.3836 L 3.2447,89.9514 L 3.5611,90.526 L 3.9089,91.1034 L 4.2827,91.6827 L 4.6828,92.2599 L 5.1089,92.8342 L 5.5558,93.4012 L 6.0234,93.9587 L 6.51,94.5041 L 7.0137,95.0366 L 7.5309,95.5505 L 8.0618,96.0448 L 8.6027,96.519 L 9.1536,96.967 L 9.7127,97.388 L 10.2746,97.7798 L 10.8411,98.1397 L 11.4071,98.4653 L 11.9739,98.7542 L 12.5349,99.0055 L 13.0915,99.2133 L 13.6404,99.3788 L 14.1795,99.4993 L 14.7057,99.5723 L 15.2203,99.5972 L 15.2203,99.5972 L 15.2203,99.5972 z M 15.2203,99.5972 L 15.2203,99.5972 L 15.2203,99.5972 L 15.2203,99.5972 z M 32.4036,100.4679 L 32.4036,100.4679 L 15.2203,100.4674 L 15.2203,99.5972 L 32.4036,99.5977 L 32.4036,100.4679 z M 32.4036,100.4679 L 32.4036,100.4679 L 32.4036,100.4679 L 32.4036,100.4679 z M 45.9511,112.1252 L 45.9511,112.9954 L 45.5168,112.5603 L 45.4998,112.0457 L 45.4511,111.528 L 45.3731,111.0036 L 45.2615,110.4772 L 45.1219,109.9485 L 44.9519,109.4192 L 44.7519,108.8923 L 44.5246,108.3676 L 44.269,107.848 L 43.9873,107.3335 L 43.6789,106.8271 L 43.3441,106.3287 L 42.9855,105.8413 L 42.6021,105.3662 L 42.1947,104.9035 L 41.7657,104.4561 L 41.3141,104.0255 L 40.8405,103.6114 L 40.3474,103.2169 L 39.8357,102.8437 L 39.3025,102.4911 L 38.7537,102.1627 L 38.1849,101.8596 L 37.6019,101.5817 L 37.0003,101.3322 L 36.3844,101.1123 L 35.7547,100.9202 L 35.1102,100.7625 L 34.4519,100.6354 L 33.782,100.5439 L 33.0996,100.4876 L 32.4036,100.4679 L 32.4036,99.5977 L 33.1438,99.6174 L 33.874,99.6771 L 34.5915,99.7756 L 35.2942,99.9095 L 35.9829,100.0808 L 36.6568,100.2831 L 37.3137,100.52 L 37.9527,100.7867 L 38.5765,101.0816 L 39.1795,101.4051 L 39.7657,101.7541 L 40.3295,102.1271 L 40.8754,102.5243 L 41.3991,102.9426 L 41.8999,103.3805 L 42.3787,103.8385 L 42.8351,104.3131 L 43.2663,104.8032 L 43.6735,105.3089 L 44.0559,105.8271 L 44.4111,106.3563 L 44.7401,106.8967 L 45.0422,107.4454 L 45.3148,108.0024 L 45.5591,108.5647 L 45.7727,109.1326 L 45.9563,109.7029 L 46.1095,110.2758 L 46.2281,110.85 L 46.3163,111.4222 L 46.3684,111.9945 L 46.3854,112.5603 L 45.9511,112.1252 L 45.9511,112.1252 z M 45.9511,112.9954 L 45.5169,112.9954 L 45.5168,112.5603 L 45.9511,112.9954 z M 47.7071,112.5607 L 48.5757,112.5607 L 48.1414,112.9958 L 48.0407,112.9975 L 47.946,112.9958 L 47.8566,112.9957 L 47.7724,112.9957 L 47.6929,112.9974 L 47.6178,112.9957 L 47.5466,112.9957 L 47.479,112.9974 L 47.4146,112.9974 L 47.353,112.9957 L 47.2939,112.9956 L 47.2369,112.9956 L 47.1816,112.9973 L 47.1276,112.9973 L 47.0745,112.9973 L 47.0221,112.9973 L 46.9698,112.9973 L 46.9173,112.9973 L 46.8642,112.9973 L 46.8102,112.9973 L 46.7549,112.9956 L 46.6979,112.9955 L 46.6388,112.9972 L 46.5772,112.9972 L 46.5129,112.9972 L 46.4453,112.9955 L 46.3741,112.9972 L 46.2989,112.9972 L 46.2194,112.9955 L 46.1352,112.9954 L 46.0459,112.9971 L 45.9511,112.9954 L 45.9511,112.1252 L 46.0459,112.1235 L 46.1352,112.1252 L 46.2194,112.1253 L 46.2989,112.1236 L 46.3741,112.1236 L 46.4453,112.1253 L 46.5129,112.1236 L 46.5772,112.1236 L 46.6388,112.1236 L 46.6979,112.1253 L 46.7549,112.1254 L 46.8102,112.1237 L 46.8642,112.1237 L 46.9173,112.1237 L 46.9698,112.1237 L 47.0221,112.1237 L 47.0745,112.1237 L 47.1276,112.1237 L 47.1816,112.1237 L 47.2369,112.1254 L 47.2939,112.1254 L 47.353,112.1255 L 47.4146,112.1238 L 47.479,112.1238 L 47.5466,112.1255 L 47.6178,112.1255 L 47.6929,112.1238 L 47.7724,112.1255 L 47.8566,112.1255 L 47.946,112.1256 L 48.0407,112.1239 L 48.1414,112.1256 L 47.7071,112.5607 L 47.7071,112.5607 z M 48.5757,112.5607 L 48.5757,112.9958 L 48.1414,112.9958 L 48.5757,112.5607 z M 61.7097,99.5759 L 61.7097,100.4461 L 61.7097,100.4461 L 60.8213,100.4657 L 59.9686,100.5217 L 59.1528,100.6144 L 58.3735,100.7408 L 57.6269,100.8994 L 56.9157,101.0906 L 56.2381,101.3112 L 55.5934,101.5596 L 54.9812,101.8347 L 54.3995,102.1367 L 53.851,102.4606 L 53.332,102.8087 L 52.8421,103.1793 L 52.3823,103.5678 L 51.9507,103.9777 L 51.5485,104.4027 L 51.1735,104.8463 L 50.8252,105.3038 L 50.5049,105.7754 L 50.2089,106.2598 L 49.9398,106.7555 L 49.6975,107.2611 L 49.4779,107.7753 L 49.2841,108.2965 L 49.1155,108.8251 L 48.9701,109.3563 L 48.8476,109.8903 L 48.7488,110.4275 L 48.6736,110.963 L 48.6196,111.4988 L 48.5866,112.0319 L 48.5757,112.5607 L 47.7071,112.5607 L 47.718,111.9977 L 47.751,111.4306 L 47.8084,110.8606 L 47.8904,110.2875 L 47.996,109.7163 L 48.1255,109.1447 L 48.2811,108.5761 L 48.4633,108.0133 L 48.6707,107.4545 L 48.9039,106.9029 L 49.1666,106.3597 L 49.4561,105.8264 L 49.7727,105.3046 L 50.1202,104.7954 L 50.4957,104.3003 L 50.9013,103.8227 L 51.3377,103.3601 L 51.8033,102.9194 L 52.3005,102.4969 L 52.828,102.0989 L 53.3878,101.7236 L 53.9805,101.3723 L 54.6032,101.0499 L 55.2596,100.7544 L 55.9485,100.4888 L 56.6705,100.2546 L 57.4259,100.0532 L 58.2135,99.8844 L 59.037,99.7512 L 59.8936,99.6549 L 60.7839,99.5955 L 61.7097,99.5759 L 61.7097,99.5759 L 61.7097,99.5759 z M 61.7097,99.5759 L 61.7097,99.5759 L 61.7097,99.5759 L 61.7097,99.5759 z M 78.6383,100.4464 L 78.6383,100.4464 L 61.7097,100.4461 L 61.7097,99.5759 L 78.6383,99.5762 L 78.6383,100.4464 z M 78.6383,100.4464 L 78.6383,100.4464 L 78.6383,100.4464 L 78.6383,100.4464 z M 92.006,85.8431 L 92.8746,85.8431 L 92.8746,85.8431 L 92.8507,86.358 L 92.782,86.892 L 92.6682,87.4407 L 92.5148,88.0035 L 92.3231,88.5777 L 92.0951,89.1629 L 91.8305,89.7548 L 91.5328,90.3525 L 91.2054,90.9537 L 90.8465,91.5575 L 90.4612,92.1599 L 90.0478,92.76 L 89.6098,93.3554 L 89.1487,93.9421 L 88.6662,94.519 L 88.1641,95.0839 L 87.6421,95.6342 L 87.1056,96.1658 L 86.5511,96.6798 L 85.9853,97.1717 L 85.4049,97.6392 L 84.8147,98.0799 L 84.2166,98.4913 L 83.609,98.8708 L 82.995,99.2163 L 82.3763,99.5249 L 81.7549,99.7927 L 81.1303,100.0207 L 80.5047,100.2027 L 79.8793,100.3366 L 79.2561,100.4181 L 78.6383,100.4464 L 78.6383,99.5762 L 79.1811,99.5513 L 79.7329,99.4768 L 80.2935,99.3565 L 80.8613,99.1915 L 81.4347,98.9841 L 82.0119,98.7333 L 82.5896,98.4451 L 83.1662,98.1202 L 83.7398,97.7611 L 84.3107,97.3701 L 84.8735,96.95 L 85.4267,96.5029 L 85.9721,96.0314 L 86.5028,95.538 L 87.0223,95.0234 L 87.5237,94.4935 L 88.0088,93.9492 L 88.4743,93.3927 L 88.9184,92.8266 L 89.3394,92.255 L 89.7358,91.6787 L 90.1073,91.1003 L 90.4492,90.5237 L 90.763,89.9499 L 91.0437,89.3828 L 91.2913,88.8251 L 91.5057,88.2809 L 91.6838,87.7509 L 91.8236,87.2393 L 91.9236,86.7486 L 91.9855,86.283 L 92.006,85.8431 L 92.006,85.8431 L 92.006,85.8431 z M 92.8746,85.8431 L 92.8746,85.8431 L 92.8746,85.8431 L 92.8746,85.8431 z M 92.4401,1.6315 L 92.4401,0.7613 L 92.8744,1.1964 L 92.8744,3.8389 L 92.8743,6.4813 L 92.8743,9.1237 L 92.876,11.7659 L 92.8743,14.4082 L 92.8742,17.0505 L 92.8759,19.6928 L 92.8759,22.3352 L 92.8742,24.9777 L 92.8759,27.6203 L 92.8759,30.263 L 92.8742,32.906 L 92.8759,35.5491 L 92.8759,38.1924 L 92.8742,40.836 L 92.8742,43.4799 L 92.8743,46.1241 L 92.876,48.7687 L 92.876,51.4136 L 92.8743,54.0589 L 92.8743,56.7046 L 92.8743,59.3508 L 92.8744,61.9974 L 92.8761,64.6445 L 92.8761,67.2922 L 92.8744,69.9405 L 92.8745,72.5893 L 92.8762,75.2387 L 92.8762,77.8888 L 92.8745,80.5395 L 92.8746,83.1909 L 92.8746,85.8431 L 92.006,85.8431 L 92.006,83.1909 L 92.0059,80.5395 L 92.0042,77.8888 L 92.0042,75.2387 L 92.0059,72.5893 L 92.0058,69.9405 L 92.0041,67.2922 L 92.0041,64.6445 L 92.0058,61.9974 L 92.0057,59.3508 L 92.0057,56.7046 L 92.0057,54.0589 L 92.004,51.4136 L 92.004,48.7687 L 92.0057,46.1241 L 92.0056,43.4799 L 92.0056,40.836 L 92.0039,38.1924 L 92.0039,35.5491 L 92.0056,32.906 L 92.0039,30.263 L 92.0039,27.6203 L 92.0056,24.9777 L 92.0039,22.3352 L 92.0039,19.6928 L 92.0056,17.0505 L 92.0057,14.4082 L 92.004,11.7659 L 92.0057,9.1237 L 92.0057,6.4813 L 92.0058,3.8389 L 92.0058,1.1964 L 92.4401,1.6315 L 92.4401,1.6315 z M 92.4401,0.7613 L 92.8744,0.7614 L 92.8744,1.1964 L 92.4401,0.7613 z M 1.1109,1.1751 L 1.5452,0.74 L 92.4401,0.7613 L 92.4401,1.6315 L 1.5452,1.6102 L 1.1109,1.1751 L 1.1109,1.1751 z M 1.1109,1.1751 L 1.1109,0.7399 L 1.5452,0.74 L 1.1109,1.1751 z M 1.9816,85.8432 L 1.1113,85.8432 L 1.1109,1.1751 L 1.9795,1.1751 L 1.9799,85.8432 L 1.9816,85.8432 z "
   id="path14"
   style="fill:#71625b;fill-rule:nonzero" />
  </g>
  <g
   id="g16">
   <path
   class="fil2"
   d="M 81.8218,99.2884 C 86.1763,97.6908 92.4545,90.437 92.4549,85.4663 L 92.4545,82.0421 L 60.1262,47.7021 L 92.4548,13.1588 L 92.455,1.1631 L 77.468,1.1631 L 46.962,33.6262 L 16.456,1.1628 L 1.5451,1.1628 L 1.545,13.1588 L 33.5444,47.7017 L 1.5449,82.0421 L 1.5453,85.7451 C 1.5451,90.6652 8.0003,97.386 12.1017,99.2877 L 46.9617,61.9555 L 81.8218,99.2884 L 81.8218,99.2884 z "
   id="path18"
   style="fill:#28166f" />
   <path
   class="fil1"
   d="M 92.0262,85.4663 L 92.8836,85.4663 L 92.8836,85.4663 L 92.8654,85.9707 L 92.8086,86.4837 L 92.7163,87.0056 L 92.5917,87.5313 L 92.4347,88.0646 L 92.2484,88.6007 L 92.0344,89.1397 L 91.794,89.6803 L 91.5289,90.2209 L 91.2405,90.7617 L 90.9304,91.2998 L 90.5999,91.8335 L 90.2508,92.3649 L 89.8843,92.8874 L 89.5022,93.4046 L 89.1056,93.9118 L 88.6965,94.4089 L 88.276,94.8948 L 87.8441,95.3662 L 87.4057,95.8251 L 86.9588,96.2682 L 86.5066,96.6924 L 86.0508,97.0998 L 85.5909,97.4872 L 85.1303,97.853 L 84.6705,98.1958 L 84.2096,98.5142 L 83.7525,98.8069 L 83.299,99.0721 L 82.8488,99.3102 L 82.4052,99.5164 L 81.9697,99.6926 L 81.6739,98.8842 L 82.0656,98.7282 L 82.4688,98.5388 L 82.882,98.3209 L 83.3053,98.0725 L 83.7356,97.7968 L 84.1695,97.4952 L 84.6091,97.1692 L 85.0495,96.8202 L 85.4892,96.4498 L 85.9282,96.0592 L 86.3636,95.6484 L 86.7937,95.2221 L 87.2187,94.7802 L 87.6338,94.3222 L 88.0409,93.8531 L 88.4366,93.3728 L 88.8196,92.8826 L 89.1883,92.3856 L 89.5414,91.8799 L 89.8771,91.3721 L 90.194,90.8586 L 90.4907,90.3441 L 90.7657,89.8301 L 91.0174,89.3165 L 91.2442,88.8063 L 91.4448,88.3009 L 91.6177,87.8018 L 91.7613,87.3123 L 91.8757,86.8304 L 91.958,86.3625 L 92.008,85.9067 L 92.0262,85.4663 L 92.0262,85.4663 L 92.0262,85.4663 z M 92.8836,85.4663 L 92.8836,85.4663 L 92.8836,85.4663 L 92.8836,85.4663 z M 92.7672,81.7474 L 92.8832,82.0421 L 92.8836,85.4663 L 92.0262,85.4663 L 92.0258,82.0421 L 92.7672,81.7474 z M 92.7672,81.7474 L 92.8831,81.8705 L 92.8832,82.0421 L 92.7672,81.7474 L 92.7672,81.7474 z M 59.8135,47.4074 L 60.4389,47.4074 L 92.7672,81.7474 L 92.1418,82.3368 L 59.8135,47.9968 L 59.8135,47.4074 z M 59.8135,47.9968 L 59.5369,47.703 L 59.8135,47.4074 L 59.8135,47.9968 z M 92.8835,13.1588 L 92.7675,13.4535 L 60.4389,47.9968 L 59.8135,47.4074 L 92.1421,12.8641 L 92.8835,13.1588 L 92.8835,13.1588 z M 92.8835,13.1588 L 92.8835,13.3295 L 92.7675,13.4535 L 92.8835,13.1588 z M 92.455,0.7319 L 92.8837,1.1631 L 92.8835,13.1588 L 92.0261,13.1588 L 92.0263,1.1631 L 92.455,0.7319 L 92.455,0.7319 z M 92.455,0.7319 L 92.8837,0.7319 L 92.8837,1.1631 L 92.455,0.7319 z M 77.1553,0.8684 L 77.468,0.7319 L 92.455,0.7319 L 92.455,1.5943 L 77.468,1.5943 L 77.1553,0.8684 z M 77.1553,0.8684 L 77.2835,0.7319 L 77.468,0.7319 L 77.1553,0.8684 z M 46.6493,33.9209 L 46.6493,33.3315 L 77.1553,0.8684 L 77.7807,1.4578 L 47.2747,33.9209 L 46.6493,33.9209 z M 47.2747,33.9209 L 46.962,34.2536 L 46.6493,33.9209 L 47.2747,33.9209 z M 16.456,0.7316 L 16.7687,0.8681 L 47.2747,33.3315 L 46.6493,33.9209 L 16.1433,1.4575 L 16.456,0.7316 L 16.456,0.7316 z M 16.456,0.7316 L 16.6404,0.7316 L 16.7687,0.8681 L 16.456,0.7316 z M 1.1164,1.1628 L 1.5451,0.7316 L 16.456,0.7316 L 16.456,1.594 L 1.5451,1.594 L 1.1164,1.1628 L 1.1164,1.1628 z M 1.1164,1.1628 L 1.1164,0.7317 L 1.5451,0.7316 L 1.1164,1.1628 z M 1.2306,13.4518 L 1.1163,13.1588 L 1.1164,1.1628 L 1.9738,1.1628 L 1.9737,13.1588 L 1.2306,13.4518 z M 1.2306,13.4518 L 1.1163,13.3285 L 1.1163,13.1588 L 1.2306,13.4518 L 1.2306,13.4518 z M 33.8588,47.9947 L 33.23,47.9947 L 1.2306,13.4518 L 1.8594,12.8658 L 33.8588,47.4087 L 33.8588,47.9947 z M 33.8588,47.4087 L 34.131,47.7025 L 33.8588,47.9947 L 33.8588,47.4087 z M 1.1162,82.0421 L 1.2305,81.7491 L 33.23,47.4087 L 33.8588,47.9947 L 1.8593,82.3351 L 1.1162,82.0421 L 1.1162,82.0421 z M 1.1162,82.0421 L 1.1162,81.8718 L 1.2305,81.7491 L 1.1162,82.0421 L 1.1162,82.0421 z M 1.974,85.7451 L 1.1166,85.7451 L 1.1162,82.0421 L 1.9736,82.0421 L 1.974,85.7451 L 1.974,85.7451 z M 1.974,85.7451 L 1.974,85.7451 L 1.974,85.7451 L 1.974,85.7451 z M 11.789,98.9947 L 12.4144,99.5807 L 11.9218,99.6784 L 11.5139,99.4778 L 11.0955,99.2502 L 10.6698,98.9984 L 10.2351,98.7203 L 9.795,98.4206 L 9.349,98.0987 L 8.9006,97.7557 L 8.4497,97.3931 L 7.9978,97.0118 L 7.5484,96.6133 L 7.1013,96.1987 L 6.6566,95.7708 L 6.219,95.3259 L 5.7886,94.8702 L 5.3687,94.4032 L 4.9576,93.9245 L 4.5585,93.437 L 4.1729,92.9418 L 3.8026,92.4401 L 3.4475,91.9316 L 3.1126,91.4175 L 2.7976,90.9005 L 2.5044,90.382 L 2.2329,89.8597 L 1.988,89.3383 L 1.7679,88.8155 L 1.5776,88.2961 L 1.417,87.7778 L 1.2879,87.2618 L 1.1935,86.7511 L 1.1352,86.2434 L 1.1166,85.7451 L 1.974,85.7451 L 1.9926,86.1794 L 2.0441,86.6231 L 2.1285,87.08 L 2.2442,87.5454 L 2.3912,88.0199 L 2.5681,88.5023 L 2.7714,88.9879 L 3.0029,89.4791 L 3.2576,89.971 L 3.5374,90.4659 L 3.8388,90.9593 L 4.1603,91.45 L 4.4986,91.9383 L 4.8555,92.423 L 5.2275,92.9014 L 5.6132,93.3721 L 6.0109,93.834 L 6.4208,94.2874 L 6.8376,94.7297 L 7.2618,95.1578 L 7.6897,95.5755 L 8.1234,95.9767 L 8.5594,96.3618 L 8.9943,96.7295 L 9.4284,97.0787 L 9.86,97.4081 L 10.2858,97.7166 L 10.7059,98.0029 L 11.117,98.264 L 11.5191,98.5024 L 11.9073,98.7132 L 12.2816,98.897 L 11.789,98.9947 L 11.789,98.9947 z M 12.4144,99.5807 L 12.2019,99.8082 L 11.9218,99.6784 L 12.4144,99.5807 L 12.4144,99.5807 z M 47.2744,61.6625 L 47.2744,62.2485 L 12.4144,99.5807 L 11.789,98.9947 L 46.649,61.6625 L 47.2744,61.6625 z M 46.649,61.6625 L 46.9617,61.3277 L 47.2744,61.6625 L 46.649,61.6625 z M 81.9697,99.6926 L 81.5091,99.5814 L 46.649,62.2485 L 47.2744,61.6625 L 82.1345,98.9954 L 81.9697,99.6926 z M 81.9697,99.6926 L 81.704,99.79 L 81.5091,99.5814 L 81.9697,99.6926 L 81.9697,99.6926 z "
   id="path20"
   style="fill:#71625b;fill-rule:nonzero" />
  </g>
  <path
   class="fil3"
   d="M 25.5879,46.2987 C 26.1697,46.8047 26.701,47.513 27.0299,48.1707 C 26.9034,48.2466 27.0805,48.3478 27.1058,48.4743 C 28.6742,48.7273 29.9391,49.7392 31.0775,50.8776 C 32.646,50.9282 34.3156,50.6752 35.454,51.7124 C 36.9719,52.4966 38.3632,53.6097 40.1088,53.8374 C 42.6638,54.0651 45.396,53.9892 47.9005,53.7868 C 48.963,53.7362 49.8484,54.0145 50.8603,54.0651 C 51.3156,54.141 51.7204,54.394 52.1505,54.5204 C 54.149,55.2035 56.6029,55.2035 58.8291,55.0011 C 61.1058,55.2035 63.3573,55.4818 65.4823,55.9877 C 66.0389,56.4684 66.7219,56.519 67.3038,56.9237 C 67.6579,57.1767 68.0374,57.4803 68.2145,57.9103 C 68.7204,58.3151 69.1758,58.8211 69.7577,59.074 C 70.2636,59.2764 70.1877,59.9341 70.719,60.1365 C 71.655,61.1231 72.6669,62.0845 73.9824,62.2362 C 74.6148,62.5145 75.3484,62.5145 76.0821,62.5651 C 76.8663,62.5145 77.7517,62.7422 78.3336,62.135 C 78.6624,61.9833 78.8901,61.6797 79.0925,61.4267 C 79.649,60.7437 79.3455,59.6053 79.3961,58.6946 C 78.5865,57.0755 76.7904,55.8612 75.1714,55.0264 C 74.2353,54.824 73.6788,54.2169 72.6163,54.2169 C 70.4154,53.9892 68.1386,53.635 65.8365,53.9133 C 64.3439,53.9639 62.902,54.3181 61.3335,54.2169 L 54.4526,54.1663 C 53.5418,53.9386 52.5046,53.888 51.6192,53.4579 C 50.1014,52.8002 48.7353,52.1678 47.0656,51.7124 C 46.3067,51.4847 45.5731,51.1306 45.1177,50.3969 C 44.8394,49.7392 44.89,48.8285 45.4466,48.2972 C 46.1802,47.943 46.7621,47.1841 47.6475,47.1841 C 48.5329,46.83 49.7978,47.007 50.835,47.007 C 52.2517,47.3359 53.6177,47.766 54.9079,48.4743 C 56.2234,48.6767 57.5136,49.4356 58.9049,48.9297 C 60.9035,48.9297 62.7249,48.4237 64.7487,48.5502 C 67.1267,48.0948 69.4035,48.6767 71.7815,48.702 C 77.3976,49.8657 84.6327,52.1425 85.7458,58.8969 C 86.5806,64.7154 80.1803,69.9267 74.4883,68.0294 C 74.8425,69.6232 75.5255,71.0651 76.1074,72.6336 C 76.5374,72.9119 76.7145,73.4684 76.9675,73.9238 C 77.5493,74.7586 78.2324,75.644 79.1684,75.9982 C 80.2309,76.6559 81.6729,76.2512 82.6342,77.1366 C 83.4184,79.211 84.0255,81.3866 85.1892,83.3851 C 85.3157,84.4223 82.5077,88.1158 82.0017,89.6336 L 70.0612,89.6336 C 68.9734,88.1411 71.0478,84.4476 70.7949,84.903 C 71.655,83.7646 72.844,82.9044 74.1341,82.5503 C 73.7041,82.1961 73.4511,81.4119 72.7934,81.4878 C 71.0984,80.1723 68.9987,79.6663 67.4556,78.0473 C 67.2785,78.275 66.9749,78.5026 66.9749,78.6797 C 65.5076,80.4253 66.1654,83.208 64.2428,84.7259 C 61.7889,85.6113 61.3082,88.1411 59.841,89.4565 L 37.8067,89.4565 C 37.6549,88.0905 37.5284,86.1425 39.1475,84.4729 C 39.6028,83.8911 40.3364,83.7646 40.8677,83.2839 C 41.1966,82.9803 41.6266,82.955 42.0314,82.8538 C 42.082,82.7274 42.2338,82.5503 42.0567,82.4238 C 41.0701,81.6143 40.4629,80.4 39.5775,79.4387 C 38.8945,79.0845 38.6162,78.2244 37.9079,77.9461 C 37.1995,78.9833 36.5418,80.0205 36.4153,81.2854 L 35.5805,82.2973 C 34.3156,82.4744 33.076,83.3598 31.9376,84.0681 C 29.5596,85.4342 29.2814,87.9134 28.5983,89.6336 C 28.2948,89.8613 27.9406,89.7095 27.5105,89.7095 L 14.7099,89.7095 C 14.7605,88.0905 15.4435,86.3955 15.823,85.9655 C 15.8989,85.1812 16.7084,84.8271 17.2144,84.3211 C 18.4793,83.7646 19.6176,82.9803 21.0343,82.8033 C 21.8438,80.7541 24.1965,79.5652 25.0819,77.5413 C 25.5626,75.4416 25.9168,73.3672 26.7516,71.4193 C 25.6385,70.9386 24.7278,70.0026 23.7159,69.2943 C 22.6787,68.08 20.8825,67.1946 20.3513,65.6514 L 19.7441,64.4371 C 18.9346,63.9059 17.9227,63.6529 17.2903,62.8181 C 16.0254,62.8687 14.9629,62.2362 13.8245,62.0339 C 13.5715,62.1603 13.3438,62.0086 13.0655,62.135 C 12.2054,62.2109 11.1682,62.2868 10.4093,61.9074 C 10.0045,62.0592 9.8274,61.6038 9.5239,61.452 C 8.3855,60.3642 8.8914,58.9728 8.7649,57.4803 C 8.8661,57.0249 9.1444,56.5949 9.5492,56.3166 C 10.4346,55.7853 11.6995,56.519 12.4584,55.8612 C 11.4971,55.6082 10.6623,56.1648 9.6504,56.0383 C 8.8155,56.0383 8.0819,55.6841 7.5507,55.0011 C 6.9182,54.2169 7.9554,53.3568 7.2724,52.6231 C 6.6905,52.5472 6.5387,51.9148 6.2605,51.4341 C 6.2352,50.5487 6.387,49.7139 7.1965,49.1826 C 7.8542,49.0056 8.4614,48.7273 9.1697,48.7779 C 9.7263,48.4237 10.2575,48.0442 10.9405,47.9683 C 13.3185,48.0948 14.5834,45.3121 17.1891,46.0204 C 18.4287,46.1722 19.7947,46.2228 21.0849,46.1469 C 21.515,45.8686 21.9703,45.5145 22.5016,45.4892 C 22.8305,45.2868 23.3111,45.388 23.7159,45.4133 C 24.3483,45.641 25.1578,45.6157 25.5879,46.2987 L 25.5879,46.2987 z M 55.4645,72.2541 C 55.1356,73.4684 55.3633,74.8345 55.6921,75.9982 C 55.5151,77.3137 56.2234,78.5026 56.5776,79.6663 C 55.6162,80.6782 54.6043,81.8166 53.2383,82.525 C 52.4034,82.6262 51.4168,82.8791 50.6326,83.1827 C 50.5061,81.5637 51.0374,79.7675 49.5954,78.9074 C 48.8618,77.7437 48.1028,76.5547 47.6475,75.2392 C 47.4451,74.8092 47.2174,74.3791 47.0909,73.9238 C 50.2531,73.772 52.8335,72.5324 55.4645,72.2541 z "
   id="path22"
   style="fill:#71625b" />
  <path
   class="fil4"
   d="M 27.7469,81.0459 C 27.7469,81.1218 27.7469,81.1724 27.671,81.2483 C 27.2409,81.1724 26.6085,81.4254 26.3049,81.0459 L 26.3049,80.4894 C 26.4061,80.5399 26.4061,80.3882 26.4314,80.3123 L 27.7469,81.0459 z M 27.2662,79.0727 C 27.9746,79.7304 28.86,79.9328 29.6948,80.3629 C 29.9225,80.3629 30.1502,80.3882 30.3779,80.4894 C 30.3526,80.5905 30.2008,80.6411 30.0996,80.6664 C 28.9612,80.717 27.8481,80.5905 27.0386,79.8316 C 27.0133,79.6292 26.8615,79.098 27.1651,78.9715 C 27.2409,78.9462 27.2662,78.9715 27.2662,79.0727 L 27.2662,79.0727 z M 60.6086,78.592 L 61.5699,78.6679 C 60.9122,79.098 60.0014,78.9968 59.1666,79.0727 L 59.1666,78.5414 C 59.3184,78.6173 59.3437,78.4149 59.4449,78.3643 C 59.8497,78.4402 60.3809,78.162 60.6086,78.592 z M 44.1904,77.656 L 42.8243,78.9968 C 42.6472,78.9715 42.3943,79.0727 42.3184,78.845 L 42.3184,78.4655 C 42.546,78.3896 42.6725,78.2632 42.9255,78.2379 L 42.9255,78.1114 C 43.4315,78.0861 43.7097,77.5548 44.1904,77.5042 L 44.1904,77.656 L 44.1904,77.656 z M 27.9493,77.3271 C 28.4552,77.5042 29.0624,77.4789 29.5683,77.656 C 30.6308,78.2126 32.0475,78.8197 33.1353,79.6292 C 31.7186,79.1739 29.9225,78.4149 28.3034,78.6426 C 28.0252,78.5667 27.7469,78.3643 27.5698,78.1114 C 27.5445,77.8584 27.4939,77.4283 27.5698,77.0995 C 27.7469,77.0995 27.8481,77.226 27.9493,77.3271 L 27.9493,77.3271 z M 62.9613,77.5801 C 61.7723,77.656 60.4315,77.403 59.1666,77.4283 C 58.9136,77.3271 58.7366,77.1501 58.5342,76.9477 L 58.5595,76.6188 C 60.2544,76.467 61.494,77.3271 62.9613,77.5801 L 62.9613,77.5801 z M 73.3586,75.8852 C 73.1562,76.2393 72.9286,76.3405 72.5744,76.5935 C 71.8155,76.8465 71.4613,77.5042 70.5253,77.2512 C 70.4241,77.2765 70.3735,77.2512 70.2976,77.1754 C 70.8036,76.7706 71.5119,76.3405 72.0937,76.2393 C 72.625,76.3911 72.7515,75.8599 73.3586,75.8852 z M 44.5446,75.6322 C 44.5952,75.784 44.4181,75.9105 44.3422,76.0117 C 43.8615,76.2646 43.3556,76.7959 42.9002,77.1248 C 42.3943,77.1248 42.2425,77.4283 41.7871,77.5042 L 41.2053,77.5042 C 41.0282,77.3271 41.0282,77.0742 40.7752,76.973 C 41.0788,76.6947 41.5341,76.9983 41.9136,76.8465 C 42.8749,76.7453 43.7856,76.2646 44.5446,75.6322 L 44.5446,75.6322 z M 30.3526,76.214 C 30.985,76.1887 31.3139,76.973 31.9969,76.973 C 32.5029,77.5548 33.0847,77.8078 33.6919,78.1873 L 33.6919,78.3138 C 31.8957,77.1501 29.8466,76.9224 27.9746,76.0623 C 28.0252,75.8599 28.0252,75.6575 28.1264,75.5057 C 29.0118,75.4298 29.796,75.5563 30.3526,76.214 L 30.3526,76.214 z M 42.6978,74.9239 C 42.0401,75.4804 40.8511,74.9492 40.2945,75.5563 C 40.0669,75.5057 40.0922,75.7587 39.9404,75.8093 C 39.5103,75.8093 39.1056,75.8093 38.802,75.5563 C 38.5996,75.6069 38.4478,75.4298 38.3719,75.278 C 38.8273,75.278 39.2573,75.1768 39.7127,74.9998 C 40.6993,74.9239 41.7112,74.8733 42.6978,74.7468 L 42.6978,74.9239 z M 72.9792,74.089 C 72.9792,74.1143 73.0045,74.1396 73.0297,74.1649 C 72.5491,74.342 71.9672,74.4432 71.5119,74.7468 C 70.9047,74.8986 70.4747,75.3792 69.9434,75.6322 C 69.4122,75.8852 68.8303,75.5816 68.2738,75.531 L 68.2738,75.4045 C 69.1592,75.0756 70.1458,74.7215 71.0312,74.2914 C 71.7143,74.2661 72.3214,74.1396 72.9792,74.089 L 72.9792,74.089 z M 60.5327,74.3167 C 61.2663,74.4179 62.0759,74.5444 62.7589,74.7974 C 62.9866,75.1768 63.7202,75.0251 64.125,75.4298 C 62.1264,74.595 60.052,75.7334 58.18,74.7468 C 58.0788,74.5697 58.0788,74.1649 58.4077,74.0384 C 59.1413,74.089 59.8497,74.1143 60.5327,74.3167 L 60.5327,74.3167 z M 31.238,73.8361 C 32.1487,74.4179 33.0088,75.3033 33.8689,75.8599 C 32.174,75.2527 30.2261,74.342 28.4299,74.0384 C 28.4046,73.5578 28.7841,73.5325 28.8347,73.0771 C 28.9612,72.8747 29.2395,73.0771 29.3912,73.1277 C 30.049,73.3301 30.6055,73.659 31.238,73.8361 z M 59.7485,72.5206 C 60.8363,72.7736 61.9494,73.406 63.0878,73.7096 C 61.6458,73.7602 60.4315,73.0771 58.9136,73.2795 C 58.6607,73.1024 58.2812,73.1783 58.1041,72.7989 C 58.1547,72.5965 58.0535,72.47 58.18,72.3688 C 58.7619,72.3182 59.1919,72.5965 59.7485,72.5206 L 59.7485,72.5206 z M 31.6933,72.7483 C 32.3258,73.0518 32.8823,73.406 33.5654,73.6337 L 33.5148,73.659 C 34.6279,74.5444 35.8169,75.4804 36.9806,76.2393 C 36.8288,76.9224 36.3481,77.656 35.8422,78.2632 C 35.5133,78.8703 35.4121,79.5533 35.2603,80.2364 C 35.0832,80.3123 35.0579,80.5146 34.982,80.6664 C 32.9835,81.1724 30.6055,83.1962 29.2142,84.5876 C 28.9865,85.1694 28.5058,85.6501 28.2023,86.1813 C 28.177,86.8138 27.8228,87.2691 27.7722,87.8763 L 16.9954,87.9269 C 16.8942,87.2438 17.2737,86.8897 17.6784,86.3078 C 18.4627,85.3971 19.4746,85.0935 20.4359,84.6129 C 20.9671,84.3852 21.5996,84.4358 22.1308,84.2587 C 23.421,82.412 24.9136,80.8435 26.4314,79.0727 C 26.5326,78.6679 26.8109,78.3643 26.9627,78.0102 C 27.3421,76.214 27.8228,74.2661 28.4299,72.5206 C 28.2782,71.7869 29.1889,72.217 29.543,72.1664 C 30.2261,72.4194 30.985,72.5459 31.6933,72.7483 L 31.6933,72.7483 z M 72.1443,72.1158 C 71.7902,72.4953 71.1071,72.0905 70.7024,72.6218 C 69.8422,73.1024 68.9821,73.5578 68.1726,74.2155 C 67.5149,74.3926 67.0848,73.9878 66.5282,73.7855 C 67.0595,73.4819 67.9196,73.4566 68.2738,72.9506 C 69.5134,72.4953 70.8036,72.1411 72.1443,71.9893 L 72.1443,72.1158 L 72.1443,72.1158 z M 42.6978,71.7111 C 42.1413,72.2676 40.9523,72.1917 40.3704,72.723 C 39.3585,73.0012 39.0044,74.2155 37.9925,74.595 C 37.4865,74.6203 36.8288,74.7721 36.4746,74.2914 C 36.2975,74.2408 35.9939,74.2155 35.9939,74.0384 C 36.5505,74.089 37.107,73.8614 37.6383,73.659 C 37.8913,73.3807 38.296,73.2289 38.6502,73.0771 L 38.6502,72.9506 C 39.2573,72.6471 39.7633,72.3941 40.4969,72.2676 C 41.2306,72.0905 41.9389,71.8375 42.6978,71.7111 L 42.6978,71.7111 z M 71.1071,70.6991 C 70.4494,71.028 69.5893,70.9774 68.9568,71.4581 C 67.7678,71.6605 67.1101,72.8242 65.9464,73.0265 C 65.8452,72.7989 65.4657,72.9759 65.2887,72.8495 C 65.0863,72.7483 64.7827,72.6471 64.7574,72.3941 C 66.0223,72.6471 66.5788,71.3063 67.6666,71.1292 C 68.8556,71.0533 69.9434,70.6991 71.1071,70.5474 L 71.1071,70.6991 L 71.1071,70.6991 z M 41.5088,70.0414 C 41.1294,70.2185 40.8258,70.345 40.3451,70.3956 C 39.0297,71.1292 37.7142,72.1411 36.4999,73.1024 C 35.8422,73.406 35.0832,73.2795 34.6026,72.7736 C 34.5014,72.7483 34.5014,72.6471 34.5014,72.5712 C 34.7797,72.6471 34.9567,72.47 35.1591,72.3941 C 36.3734,71.7617 37.3094,70.9268 38.6502,70.3956 C 39.5356,70.3197 40.5728,70.092 41.5088,70.0414 L 41.5088,70.0414 z M 69.4122,69.1307 C 67.0595,68.9789 66.1994,71.964 63.7455,71.3316 C 63.4419,71.1798 62.9866,71.281 62.7336,71.0786 C 63.2395,70.7497 64.125,71.0027 64.555,70.3197 C 66.0982,69.6619 67.6413,69.0801 69.4122,69.0548 L 69.4122,69.1307 L 69.4122,69.1307 z M 38.2707,68.65 C 37.9672,68.8271 37.5371,68.8777 37.36,69.2066 C 37.2588,69.2319 37.107,69.1813 37.0311,69.2319 C 36.1963,69.839 35.7663,71.0027 34.7797,71.534 C 34.0713,71.8375 33.3124,71.534 32.6294,71.3316 C 32.6294,71.2304 32.6799,71.1545 32.7558,71.1545 C 33.1859,70.9521 33.9448,70.6991 34.4255,70.345 C 34.805,70.1173 35.2856,69.6619 35.6651,69.4343 C 36.4493,68.9789 37.3094,68.5488 38.296,68.3718 C 38.4984,68.4477 38.2707,68.5488 38.2707,68.65 z M 32.5029,66.1456 C 32.0981,67.031 31.7692,67.9164 31.4151,68.8271 C 31.2633,69.3331 31.0609,69.7884 30.6308,70.1679 C 30.5296,70.2185 30.3779,70.1679 30.3273,70.3197 C 29.9225,70.5221 29.8213,69.9655 29.4165,70.1173 C 30.2261,69.3331 30.7067,68.473 31.6174,67.6128 C 31.5668,67.1828 31.9716,66.9298 32.0475,66.5503 C 32.2499,66.4997 32.3005,66.2215 32.4017,66.095 L 32.5029,66.1456 L 32.5029,66.1456 z M 30.3526,64.7036 C 30.1755,65.4372 29.9478,66.2468 29.7454,66.9804 C 29.5177,66.9551 29.4165,67.2081 29.1889,67.1069 C 28.6323,67.6634 28.5058,68.4477 27.9493,69.0548 C 27.8228,69.0042 27.7469,69.1054 27.6963,69.156 C 27.1651,69.2066 26.5326,69.2066 26.3049,68.65 C 26.8109,68.5741 26.9627,68.1694 27.418,67.9164 C 28.3034,66.9804 29.1636,65.9179 30.0743,64.7289 C 30.2767,64.4506 30.4032,64.1218 30.6308,63.8688 C 30.479,64.1218 30.6055,64.5518 30.3526,64.7036 z M 63.619,66.4491 C 65.4657,66.5756 67.4137,66.4491 68.9315,67.4105 C 69.1086,67.6381 69.4122,67.5622 69.6146,67.7646 C 67.7425,67.5622 65.7946,67.8658 63.9732,68.0176 C 63.1637,67.6634 62.43,67.1322 61.6458,66.778 C 61.3928,66.6515 59.6726,63.3122 59.8244,63.5905 C 61.3169,65.2348 61.5952,65.8167 63.619,66.4491 L 63.619,66.4491 z M 27.7975,62.6545 C 27.6204,63.6664 26.8109,64.4506 26.4061,65.3866 C 26.1026,65.842 25.9508,66.3479 25.5207,66.7527 C 25.3183,66.778 25.1412,66.8792 24.9136,66.8286 C 24.8124,66.7021 24.5341,66.778 24.3823,66.6768 C 24.2558,66.4997 24.104,66.2974 23.9522,66.1456 C 24.7112,65.842 25.293,65.3866 26.0267,64.9566 C 26.8362,64.2735 27.1904,63.4134 27.671,62.6545 L 27.7975,62.6545 L 27.7975,62.6545 z M 39.9404,62.5027 C 40.6234,63.034 40.9776,63.8941 41.7112,64.2988 C 42.1413,64.653 42.2425,65.336 42.116,65.8673 C 41.9642,66.2974 41.5847,66.6515 41.6353,67.1575 C 41.4329,67.1322 41.4329,66.8792 41.2559,66.778 L 41.1294,65.6649 L 41.1547,65.6649 C 41.18,64.4253 40.0669,63.5652 39.8139,62.5027 L 39.9404,62.5027 L 39.9404,62.5027 z M 67.8184,61.5161 C 67.9955,62.3509 68.1726,63.3628 68.5268,64.1976 C 68.1726,63.8688 67.869,63.464 67.4643,63.211 C 66.2753,62.4268 66.4776,61.0354 65.9464,59.9476 L 65.8958,59.6441 C 66.5282,60.2006 67.5402,60.4536 67.8184,61.5161 z M 51.4255,59.4417 C 51.805,60.0994 52.1845,60.8836 52.5892,61.6679 C 52.6398,62.1991 52.7663,62.781 52.9687,63.2616 C 52.9687,64.6024 53.9806,65.4878 54.2589,66.778 C 54.3348,67.3599 54.2336,67.8658 54.0312,68.3212 C 53.9553,67.7393 53.7276,67.1322 53.4493,66.6009 C 53.3735,65.8926 52.6145,65.4372 52.2098,64.8807 C 51.7544,64.2735 51.805,63.464 51.7038,62.7304 C 51.552,61.6173 51.6279,60.5801 51.3496,59.4417 L 51.4255,59.4417 L 51.4255,59.4417 z M 44.5446,59.467 C 44.6205,60.2259 45.0252,60.7066 45.43,61.4402 C 46.1383,63.0845 46.4925,64.9313 46.0118,66.778 C 45.8347,67.4105 45.6324,67.9923 45.5565,68.5994 C 45.4047,67.5116 45.6577,66.2215 45.3288,65.1843 C 45.0252,63.0087 44.3169,61.0101 44.2663,58.8598 C 44.5446,58.8851 44.4181,59.2899 44.5446,59.467 L 44.5446,59.467 z M 64.4285,59.6441 C 64.9598,61.0607 65.491,62.5533 66.4776,63.7676 C 65.5922,63.211 64.9092,62.7051 63.9985,62.1232 C 63.5178,60.9089 62.7083,59.897 61.9747,58.708 C 61.8988,58.6069 61.6964,58.6575 61.6458,58.4804 C 62.7589,58.4551 63.6696,58.8851 64.4285,59.6441 z M 59.6726,58.5057 C 60.0773,58.7586 61.1145,59.1381 61.0386,59.8464 C 61.0639,60.7319 61.5193,61.4655 61.6458,62.2497 C 61.747,62.6039 62.0506,62.9328 62.2023,63.2363 C 62.43,63.3122 62.5818,63.6664 62.8348,63.6664 C 62.8348,63.97 63.189,63.7929 63.1637,64.0965 C 63.4166,64.2482 63.619,64.5518 63.8973,64.5771 C 63.872,64.9566 64.2768,65.0325 64.4032,65.336 C 63.2395,64.7036 62.1264,63.8688 60.9881,63.0845 C 60.7098,62.5533 60.0014,62.022 59.9508,61.3137 C 59.5461,60.6813 59.3184,59.9982 59.0907,59.2899 C 59.0907,59.2646 58.0535,58.3792 58.0788,58.2274 C 58.7366,58.0503 59.1413,58.4804 59.6726,58.5057 L 59.6726,58.5057 z M 55.9791,58.3033 C 56.4092,58.5057 56.8139,58.8092 57.244,59.0622 C 57.8258,59.2899 57.3199,60.0488 57.6994,60.3777 C 57.4211,61.6679 58.18,62.9834 58.18,64.2482 C 58.18,64.6024 58.2053,65.1337 58.0788,65.5384 C 57.6488,64.5518 57.3452,63.3881 56.6116,62.528 C 56.2827,61.3643 56.1562,60.1247 55.7514,59.0369 C 55.4985,58.5816 54.9419,58.5057 54.7648,58.025 C 55.2455,57.9491 55.4985,58.3539 55.9791,58.3033 L 55.9791,58.3033 z M 53.3735,58.0503 C 54.2842,58.531 54.3095,59.72 54.6636,60.5295 L 55.1696,62.4774 C 55.4985,63.2363 56.0044,63.7676 56.3333,64.5518 C 56.3839,65.3866 56.1815,66.2215 56.5357,67.0563 L 56.3586,67.031 C 56.1815,66.4491 55.8779,65.8926 55.7514,65.2601 C 55.5996,64.9819 55.2455,64.6277 55.0178,64.3494 C 54.2083,63.1604 53.424,62.022 53.3987,60.5295 C 53.0193,59.467 52.4627,58.5816 51.7291,57.7214 L 51.3496,57.5697 C 52.1592,57.4432 52.6904,57.8985 53.3735,58.0503 L 53.3735,58.0503 z M 19.0445,60.15 C 18.5132,60.2765 17.982,60.7319 17.3496,60.5801 C 18.2856,59.7453 19.0445,58.8092 19.7022,57.7467 L 20.0817,57.1396 C 20.0564,58.278 19.6769,59.2899 19.0445,60.15 z M 40.3198,56.7095 C 41.5341,56.9372 42.8749,56.9372 44.1398,56.836 C 44.8987,56.583 45.86,56.7095 46.6696,56.7348 C 47.4791,56.8107 48.3139,56.836 49.0222,57.1649 C 49.427,57.1649 49.6547,57.6708 50.0595,57.6455 C 50.7425,58.3792 50.7678,59.4417 50.6666,60.4536 C 49.7559,62.3003 51.805,63.464 51.0967,65.336 C 50.7172,64.8048 50.869,63.8182 50.2365,63.3881 C 50.2365,63.1351 50.0089,62.8822 49.7812,62.7051 C 49.0222,61.5414 49.8318,60.2006 49.7053,58.8598 C 49.2499,58.3792 49.2499,57.4685 48.2886,57.6455 C 47.1755,58.6575 47.5044,60.6054 47.8333,61.8703 C 48.0103,62.3003 48.0103,62.9328 48.2127,63.464 C 48.1115,63.8941 48.1115,64.3747 47.8839,64.7795 C 47.9092,65.5131 47.5044,66.2215 47.6815,66.9045 C 47.5297,65.842 47.6309,64.5771 47.6056,63.3881 C 46.5684,61.5161 45.9106,59.9982 44.8734,58.2274 C 44.3928,57.595 44.3169,57.8479 43.8615,57.772 C 41.9642,60.2259 44.9493,62.6292 44.0133,65.336 C 43.8109,64.4 43.558,63.4134 43.1279,62.5533 C 42.546,62.0473 42.6725,61.2631 42.2931,60.6307 C 42.1413,59.9982 42.3437,59.1381 41.9642,58.6069 C 41.9389,58.2274 41.5847,58.0503 41.2812,57.8226 L 40.8258,57.6961 C 40.4463,57.8985 40.3957,58.2527 40.1681,58.531 C 40.0163,59.5935 39.8645,60.7825 40.4463,61.7185 L 40.3198,61.7185 C 40.0163,61.5161 40.0922,61.1872 39.8139,60.9089 C 39.4344,59.72 39.5103,58.3033 39.055,57.0131 C 39.0044,56.5071 38.3719,56.7095 38.2454,56.2542 C 38.9285,56.4566 39.5862,56.6842 40.3198,56.7095 L 40.3198,56.7095 z M 26.2796,56.2036 C 26.1026,56.7854 25.8749,57.2661 25.6472,57.8226 C 25.1412,58.961 24.0534,59.9223 23.3198,60.9848 L 21.9031,62.3509 C 21.4984,62.5533 20.9165,62.528 20.5371,62.4015 C 20.2335,62.1738 19.854,62.0473 19.6769,61.7944 C 20.5118,61.592 21.3213,61.4149 22.0549,60.9342 C 22.9909,60.15 23.9017,59.1634 24.6606,58.2527 C 24.9895,57.4685 25.6219,56.9878 26.0773,56.2795 C 26.1531,56.2542 26.2037,56.1783 26.2796,56.2036 L 26.2796,56.2036 z M 36.1457,55.4952 C 36.6264,55.8494 37.2588,56.2542 37.4359,56.8866 C 37.6383,57.8732 37.0059,58.708 36.7276,59.5935 C 36.7276,60.5295 37.36,61.2125 37.4359,62.1232 C 37.2841,63.5905 36.6264,64.8301 35.9686,66.0697 C 35.8169,67.5875 34.1978,68.1694 33.5654,69.4596 L 33.4389,69.4596 C 33.8183,68.1188 35.2856,67.3852 35.5133,65.9938 C 35.741,64.8807 35.9939,63.7676 36.171,62.6039 C 36.171,62.2497 35.8675,61.9967 35.8169,61.6679 C 35.6145,61.5414 35.3615,61.4149 35.0832,61.5161 C 34.552,61.7438 34.1472,62.1485 33.7677,62.6039 C 33.7172,62.1232 34.1725,61.8197 34.2484,61.3643 C 34.7544,60.9342 34.8303,60.3271 35.3615,59.9223 C 35.6145,59.3405 35.5892,58.6575 35.8928,58.1009 C 35.9433,57.2408 36.0192,56.2542 35.9686,55.4952 L 36.1457,55.4952 L 36.1457,55.4952 z M 34.9314,54.6351 C 35.0073,54.9134 35.4121,54.9893 35.3362,55.3688 C 35.5386,55.5964 35.2856,55.9506 35.2603,56.1783 C 34.2737,57.3926 33.6413,59.0369 32.9582,60.4283 C 32.9329,61.1872 32.3258,61.8703 32.0475,62.6039 C 31.8957,62.8822 31.5921,63.1098 31.3139,63.1351 C 32.0222,61.3137 32.5535,59.3405 33.4136,57.4685 C 33.5907,56.836 33.9448,56.0518 33.5907,55.3941 C 33.2618,55.2929 33.1353,55.0399 32.857,54.8628 C 32.6799,55.7229 32.1487,56.4313 32.0475,57.4432 C 31.7186,58.6322 31.0862,59.6694 30.5549,60.7319 C 30.302,61.4655 29.8466,62.022 29.3407,62.6292 L 29.1889,62.6292 C 29.6442,61.7438 29.8719,60.7572 30.2767,59.8464 C 30.4032,59.2646 30.6055,58.8345 30.7573,58.2021 C 30.7826,57.9491 30.732,57.6961 30.6308,57.4685 C 29.9984,57.3167 30.0237,58.3033 29.4165,58.1515 C 29.2395,57.6961 29.6442,57.4685 29.6442,57.0384 C 30.0743,56.0265 30.4032,54.964 30.985,54.0533 C 31.8198,53.3955 33.11,53.7497 33.9701,54.0533 L 34.9314,54.6351 L 34.9314,54.6351 z M 15.0981,54.2304 C 15.3257,54.4327 15.4522,54.6351 15.6799,54.9893 C 16.0341,55.3435 16.0088,55.9253 16.1859,56.3554 C 16.11,57.0384 15.9076,57.7214 15.3257,58.1515 C 15.3257,58.3792 15.1234,58.6069 14.9463,58.6828 C 14.3644,58.8345 13.8079,59.0369 13.2007,59.0622 C 12.7201,59.1381 12.0876,58.8345 11.5564,58.8345 L 11.5564,58.708 L 13.1248,58.6069 C 13.7826,58.0503 14.8451,58.0503 15.1234,57.0384 C 15.2245,56.2542 15.5534,55.0905 14.6174,54.5845 C 14.1367,54.1545 13.6308,53.8003 12.9984,53.7244 C 12.9225,53.6485 12.9225,53.5726 12.9478,53.522 C 13.7067,53.6991 14.4403,53.8509 15.0981,54.2304 L 15.0981,54.2304 z M 17.5013,53.2943 C 17.6025,53.4967 17.7543,53.6738 17.9314,53.8509 C 18.0579,54.6604 18.1338,55.4699 17.7796,56.2542 C 17.476,56.6589 17.0713,57.2914 16.6665,57.6961 L 16.5906,57.6202 C 16.7424,56.7348 17.2737,55.9253 17.0713,54.964 C 16.7171,54.5339 16.6665,53.9268 16.1859,53.6485 C 15.6293,53.1679 14.8704,52.9908 14.162,52.7378 C 14.0862,52.9402 13.7573,52.7884 13.5802,52.839 L 13.5802,52.6619 C 13.732,52.6872 13.985,52.6872 14.0609,52.5354 C 14.8704,52.6366 15.5787,52.0801 16.3123,52.5354 C 16.5147,52.586 16.6918,52.7125 16.9195,52.7378 L 17.5013,53.2943 L 17.5013,53.2943 z M 29.4165,52.8896 C 29.7454,53.3955 29.7707,54.2557 29.5683,54.8122 C 29.6442,55.217 29.2901,55.4446 29.3407,55.8494 C 29.0118,56.153 28.9865,56.7095 28.6829,57.089 C 28.3034,57.0384 28.5817,56.583 28.4552,56.3554 C 27.8734,57.5191 26.9374,58.5057 26.3808,59.6694 C 26.2037,59.8211 26.1278,60.0994 25.8749,60.0994 C 25.7484,59.3405 26.5832,58.8345 26.5579,58.0503 C 26.8109,57.9744 26.735,57.4685 26.988,57.2408 C 27.0133,56.4566 27.6204,55.9506 27.671,55.1411 C 28.1011,54.3568 27.924,53.2943 27.9746,52.3836 C 27.7469,52.1812 27.8734,51.8524 27.6457,51.65 L 27.8228,51.65 L 29.4165,52.8896 z M 20.4106,51.4982 C 20.6635,51.903 20.8153,52.4089 21.2201,52.7884 C 21.2454,53.1932 21.4225,53.7497 21.549,54.0533 L 21.7261,54.0533 C 21.5237,55.0652 21.9537,56.1783 21.5237,57.089 C 21.3466,57.4685 21.3972,57.9997 21.043,58.2527 L 20.9165,58.0756 C 21.296,57.0384 21.0683,55.7482 20.79,54.711 C 20.79,54.5339 20.613,54.4833 20.4612,54.4327 C 19.9046,54.964 19.5505,55.6217 19.2216,56.2542 C 19.0951,56.3554 18.8927,56.2542 18.7915,56.406 C 18.8674,56.0771 19.0192,55.9759 19.1204,55.6976 C 19.1457,55.2676 19.1963,54.8375 19.424,54.4833 C 19.4999,53.5473 19.601,52.4342 19.5505,51.5994 L 19.854,51.1693 C 19.9552,51.3717 20.2335,51.3717 20.4106,51.4982 L 20.4106,51.4982 z M 26.8109,51.3717 C 26.8109,52.3583 26.052,53.0161 26.0014,53.9774 L 25.4448,55.1411 C 24.0281,56.1783 23.4716,57.9997 22.2067,59.2393 C 21.9031,59.6947 21.3213,60.2006 20.79,60.3018 C 21.5996,59.6694 22.1561,58.708 22.6368,57.8479 C 22.9656,56.6083 23.0668,55.2423 23.4716,54.0533 C 24.0028,53.6232 24.4582,53.0667 24.7871,52.4848 C 24.8883,52.4342 24.9642,52.5354 24.9895,52.6113 L 24.9136,53.7497 C 25.0653,53.7244 25.1412,53.9521 25.2677,53.8256 C 25.5207,53.5726 25.4701,53.2437 25.6472,53.0161 C 25.5966,52.333 25.6219,51.5488 26.0773,51.0176 C 26.4314,50.8911 26.8109,50.9417 26.8109,51.3717 L 26.8109,51.3717 z M 13.6814,51.1693 L 13.7573,51.2958 C 12.5177,52.0042 11.2528,52.586 10.0132,53.4714 C 10.0132,53.3196 9.8614,52.9655 10.1397,52.8896 C 11.3793,52.4342 11.9864,50.4863 13.5802,50.9417 L 13.6814,51.1693 L 13.6814,51.1693 z M 23.5222,49.1455 C 23.4969,49.4238 23.3957,49.6768 23.421,49.9803 C 23.2439,50.3851 22.915,50.5369 22.7886,50.9164 C 22.5609,51.1946 22.3079,51.3211 22.0043,51.4982 C 21.9284,50.714 22.7886,50.1574 22.3585,49.4238 C 22.1561,49.1455 22.0549,48.8673 21.8272,48.6649 C 21.9031,48.336 22.3585,48.4878 22.6621,48.4119 C 23.0415,48.5131 23.4716,48.7155 23.5222,49.1455 L 23.5222,49.1455 z M 24.8883,49.272 C 24.863,49.6262 24.9389,49.9045 25.0906,50.1827 C 24.7365,50.9164 24.8883,52.1054 24.0028,52.6113 L 23.421,52.6113 C 23.2186,52.4342 23.0668,52.2824 23.0162,51.9789 C 23.421,51.0681 24.0281,50.208 24.104,49.1202 C 24.0281,48.7914 23.9775,48.4878 23.8511,48.1589 C 24.5847,48.1336 24.5341,48.8673 24.8883,49.272 L 24.8883,49.272 z M 24.4582,47.1217 C 25.04,47.7794 25.799,48.3613 25.8243,49.2467 C 25.7737,49.272 25.6978,49.2214 25.6472,49.2973 C 25.8496,49.3226 25.799,49.5503 25.8496,49.6515 C 26.8615,50.0562 28.0505,49.9298 28.8094,50.8658 C 29.5683,51.1187 30.0996,52.0042 30.8332,52.3836 C 31.9716,52.4848 33.2112,52.3583 34.299,52.6366 C 35.3868,53.4461 36.6011,54.0027 37.7901,54.6857 L 40.244,55.3941 C 42.9255,55.6723 45.683,55.4193 48.3645,55.3182 C 50.0848,55.2676 51.805,55.8494 53.3987,56.3301 C 55.1443,56.7095 57.1934,56.6083 59.0401,56.5071 C 60.1785,56.6083 61.4181,56.7095 62.4806,56.8866 C 63.3154,57.0384 64.1756,57.1396 64.9598,57.3167 L 64.9598,57.4432 C 67.0342,57.6202 67.3631,59.5682 69.1339,60.3524 C 69.311,60.5295 69.311,60.9342 69.6146,60.9342 C 70.3482,61.7691 71.2336,62.3509 72.0431,63.0845 L 74.4717,63.9194 C 75.7366,64.1976 77.2545,64.0965 78.5446,64.0206 C 78.9494,63.6917 79.4301,63.4387 79.8854,63.3628 C 80.0372,62.7304 80.8214,62.7051 80.8973,62.022 C 81.7574,61.3896 81.6057,58.7839 81.3021,58.0503 C 81.2262,57.5444 80.6444,57.2408 80.6444,56.7095 C 79.4301,55.3688 78.1399,54.3821 76.5714,53.4967 C 75.8378,53.1679 75.3571,52.9655 74.4717,52.6113 C 72.625,52.333 70.7277,52.1307 68.8303,51.9789 C 66.3259,51.8777 64.1756,52.333 61.747,52.3836 L 55.119,52.3836 L 52.8675,51.9536 C 52.3868,51.7512 52.3109,51.6753 51.8556,51.4223 C 50.4136,50.9164 49.0728,50.1827 47.5297,49.9045 C 47.3526,49.7527 47.1502,49.6009 46.9478,49.4997 C 47.0743,49.0696 47.6309,49.1961 47.8333,48.7661 C 48.2127,48.8167 48.4404,48.5384 48.7693,48.5384 L 50.9449,48.5637 C 52.2857,48.8673 53.5505,49.3479 54.7648,49.9803 C 56.3333,50.208 57.8511,50.9164 59.5208,50.461 C 62.2782,50.1068 65.061,50.0815 67.8437,49.9803 C 69.5893,50.1321 71.3854,50.1574 73.0803,50.4357 C 77.3809,51.4982 82.6682,53.3955 84.1354,58.0503 C 85.5521,63.0087 80.2649,67.6128 75.2812,66.3479 C 74.067,66.2468 73.0297,65.8167 71.9167,65.4372 C 71.9925,66.5756 72.8274,67.5622 73.2574,68.7006 C 73.6369,70.4968 74.3705,71.9134 75.0536,73.659 C 75.7872,74.4685 76.3437,75.5816 77.2292,76.3152 C 77.4062,77.2007 78.4435,76.8971 78.9241,77.5295 C 79.7842,77.909 80.8214,78.0355 81.7827,78.2379 C 81.7827,78.8703 82.0863,79.351 82.1369,79.9581 C 82.4911,81.2483 83.2247,82.3867 83.7813,83.7275 C 83.25,85.0935 81.808,86.2825 81.4539,87.8257 L 71.9167,87.8763 C 71.9419,86.6367 72.3973,85.4983 73.4598,84.7647 C 74.6488,84.1575 75.8125,83.4998 77.2545,83.4745 C 77.3557,83.4239 77.2798,83.3227 77.3051,83.2468 C 77.0268,82.9179 76.6979,82.5891 76.5714,82.1843 C 76.0402,81.5772 75.3318,80.9447 74.9018,80.2617 C 72.8021,79.351 71.0312,78.0102 69.0833,76.8465 C 68.6027,76.5176 68.4509,76.0117 68.0461,75.6322 C 66.933,74.7721 65.8452,73.9373 64.8333,72.7989 C 63.189,71.7617 61.1398,70.8762 59.3184,70.3956 C 55.5996,70.1932 53.0699,70.8003 49.9836,71.8628 C 48.6175,72.217 47.1755,72.217 46.0118,72.0146 C 45.6324,71.5087 45.5565,70.8762 45.3035,70.3197 C 45.3794,69.8643 44.8228,69.7631 44.5699,69.4343 C 43.3303,69.0801 42.0654,68.0176 41.0282,67.0563 C 41.3571,67.2587 41.2559,67.9923 41.7112,68.1188 C 42.2678,68.903 43.1026,69.3837 43.8109,69.8643 C 44.1145,69.8896 44.3675,69.9908 44.5446,70.2438 C 44.5699,71.7111 45.3541,72.7736 45.5818,74.2155 C 46.4672,75.5563 46.6696,77.2765 47.808,78.6932 C 48.1368,78.9715 48.2633,79.7304 48.6681,80.0593 L 49.174,80.5399 L 49.2246,85.8525 C 49.3511,86.2825 49.3258,86.7379 49.6294,87.1173 C 49.9583,87.0667 50.1353,86.662 50.3377,86.409 C 50.6666,85.6754 50.9196,85.6754 51.4002,85.0176 C 52.2098,84.5117 53.2217,83.9298 54.0312,84.0563 C 54.5371,84.1322 54.7648,83.601 55.2455,83.5504 C 55.8526,82.9179 56.6116,81.8554 57.5223,81.6024 C 58.0282,81.1218 58.3571,80.9953 58.9642,80.3882 C 58.7366,79.0727 57.9017,77.8078 57.6994,76.3658 C 57.7752,74.7721 56.8139,73.153 57.6994,71.7364 C 57.5729,71.4075 58.0029,71.534 58.1547,71.4328 C 59.116,71.534 60.0773,71.5593 60.9628,71.8881 C 62.2276,72.0399 63.1637,72.7483 64.302,73.153 C 65.0104,73.7349 65.6934,74.5444 66.5282,75.1768 C 66.5788,75.5057 67.0595,75.6322 67.0342,75.8599 C 66.5282,76.2646 66.6294,76.973 65.997,77.2512 C 65.2128,78.4908 64.7574,79.8822 64.3526,81.2736 C 64.3526,81.7795 64.125,82.2096 64.0744,82.665 C 63.5431,83.5504 62.5818,83.7275 62.4047,83.8792 C 60.9122,84.9923 60.7098,86.6873 59.2678,87.7498 L 39.8139,87.7498 C 40.7499,84.1828 42.5966,84.5876 43.8109,83.9551 C 43.988,83.4745 44.0639,82.7408 44.3422,82.3108 C 44.5446,81.8554 44.2157,81.6783 43.8615,81.5519 C 42.7737,80.3629 41.8124,78.845 40.5728,77.7319 C 40.1175,76.8971 39.2067,76.5176 38.4984,75.9864 C 36.8288,75.1768 35.1085,74.2408 33.793,72.6977 C 33.5654,72.6471 33.5148,72.3435 33.363,72.1664 C 31.4404,70.9521 29.2648,70.4715 27.2409,69.5608 C 25.4195,68.3465 24.104,66.8792 22.4597,65.4372 L 21.296,63.034 C 20.3853,62.4268 19.1963,62.1991 18.6144,61.1872 C 17.6278,60.7319 16.4388,61.1113 15.5534,60.4536 C 15.5281,60.403 15.5028,60.3524 15.4522,60.3018 C 15.7305,60.15 15.9835,60.0235 16.3123,59.9982 C 16.5906,59.5176 16.9954,59.2646 17.4254,59.0369 C 17.5266,58.961 17.5013,58.8092 17.5013,58.708 C 17.299,58.5816 17.1472,58.2527 16.8183,58.3539 C 15.0981,60.4789 15.8823,59.0875 13.6814,60.2512 C 12.8719,60.2259 11.9611,60.5295 11.2528,60.1247 C 10.848,60.1247 10.8986,59.7453 10.7216,59.4923 C 10.9492,58.9357 10.6204,58.3033 10.7216,57.6455 C 10.848,57.6455 10.9492,57.6708 11.0504,57.6202 C 10.9492,57.5444 10.8228,57.5697 10.7216,57.5191 C 10.6457,57.2155 10.8228,57.0131 11.0504,56.8107 C 11.3793,57.0384 10.9492,57.9238 11.6829,57.6708 C 11.9358,57.9744 12.2394,57.6455 12.5177,57.6455 C 12.8972,57.6455 13.4284,57.7214 13.479,57.2408 C 13.8332,57.1396 14.3391,56.836 14.415,56.406 C 14.5415,55.9759 14.668,55.5458 14.6174,55.0146 C 14.4403,54.6604 14.1367,54.5592 13.9597,54.1292 C 13.6814,54.1798 13.4031,54.0786 13.1501,54.0027 C 11.9611,53.8762 10.9492,54.2304 9.8108,54.2051 L 9.3808,54.028 C 9.6591,53.1679 9.5326,53.0667 9.4061,52.4342 C 9.8614,52.1812 10.2156,51.7512 10.5192,51.3464 C 10.5192,51.3211 10.6457,50.2333 10.6204,49.9803 C 11.1516,49.6515 11.3034,49.6009 11.7841,49.3732 C 13.1248,49.1202 14.0103,49.8286 15.2245,49.8539 C 15.9582,50.0309 16.6159,50.3345 17.4254,50.3345 C 17.5772,50.4863 17.8555,50.3851 18.0073,50.5875 L 18.5132,50.5875 C 18.4121,50.2586 18.3615,49.8033 18.3868,49.3732 C 18.1591,49.0696 17.6531,48.9684 17.4001,48.8673 C 16.3376,49.0696 15.1993,49.0696 14.0609,49.0696 C 14.2632,48.9684 14.2126,48.5131 14.5668,48.4878 C 14.8704,48.3107 15.0222,47.8806 15.4016,47.9059 C 15.9076,47.4506 16.7424,47.6783 17.4001,47.5518 C 18.7915,47.7794 20.2588,47.653 21.7513,47.7289 C 22.2067,47.4506 22.6368,47.1723 23.1933,47.1217 C 23.5475,46.7422 24.0028,47.2229 24.4582,47.1217 L 24.4582,47.1217 z M 9.4314,50.0309 C 9.4314,50.5369 9.3555,50.967 8.9507,51.2958 C 8.6219,51.397 8.1665,51.7006 7.8376,51.3464 L 7.8629,51.3464 C 7.8376,51.0934 7.7364,50.8152 7.7364,50.461 C 7.9388,50.0309 8.5713,50.0562 8.8495,49.8539 C 9.1025,49.8033 9.2543,49.9045 9.4314,50.0309 L 9.4314,50.0309 z M 12.1635,54.9893 C 11.8347,55.0905 11.8853,54.7363 11.6829,54.6098 C 11.5058,54.9134 11.7335,55.3941 11.4805,55.7229 C 11.1516,55.5458 10.9998,55.1158 10.8228,54.8122 C 10.4686,54.964 10.6204,55.3941 10.4433,55.7229 C 10.2662,55.647 10.0638,55.4952 10.0385,55.2929 C 9.9373,55.0652 9.735,54.8375 9.735,54.5339 L 12.2647,54.4327 C 12.29,54.6098 12.2647,54.8375 12.1635,54.9893 L 12.1635,54.9893 z M 13.732,56.0265 C 13.4031,56.7095 12.8213,57.5191 11.9106,57.5191 L 11.9106,56.836 C 12.3659,56.2542 12.9984,56.0265 13.732,56.0265 z "
   id="path24"
   style="fill:#fff500" />
  <polygon
   class="fil5"
   points="29.7279,114.838 29.4832,114.725 29.3363,114.784 29.7279,114.838 "
   id="polygon26"
   style="fill:#e77817" />
  <polygon
   class="fil5"
   points="65.5327,114.838 65.7774,114.725 65.9243,114.784 65.5327,114.838 "
   id="polygon28"
   style="fill:#e77817" />
 </g></svg>
