<?xml version="1.0" encoding="UTF-8" standalone="no"?>
<svg
   xmlns:dc="http://purl.org/dc/elements/1.1/"
   xmlns:cc="http://creativecommons.org/ns#"
   xmlns:rdf="http://www.w3.org/1999/02/22-rdf-syntax-ns#"
   xmlns:svg="http://www.w3.org/2000/svg"
   xmlns="http://www.w3.org/2000/svg"
   xmlns:sodipodi="http://sodipodi.sourceforge.net/DTD/sodipodi-0.dtd"
   xmlns:inkscape="http://www.inkscape.org/namespaces/inkscape"
   width="500.00003"
   height="620"
   viewBox="0 0 132.29167 164.04167"
   version="1.1"
   id="svg847"
   sodipodi:docname="Khabarovsk Krai.svg"
   inkscape:version="1.0.2 (e86c870879, 2021-01-15, custom)">
  <defs
     id="defs841" />
  <sodipodi:namedview
     id="base"
     pagecolor="#ffffff"
     bordercolor="#666666"
     borderopacity="1.0"
     inkscape:pageopacity="0.0"
     inkscape:pageshadow="2"
     inkscape:zoom="0.7"
     inkscape:cx="307.37871"
     inkscape:cy="289.95861"
     inkscape:document-units="px"
     inkscape:current-layer="layer1"
     inkscape:document-rotation="0"
     showgrid="false"
     inkscape:snap-smooth-nodes="true"
     inkscape:showpageshadow="false"
     borderlayer="true"
     units="px"
     inkscape:window-width="1920"
     inkscape:window-height="1017"
     inkscape:window-x="-8"
     inkscape:window-y="-4"
     inkscape:window-maximized="1"
     inkscape:snap-global="false" />
  <metadata
     id="metadata844">
    <rdf:RDF>
      <cc:Work
         rdf:about="">
        <dc:format>image/svg+xml</dc:format>
        <dc:type
           rdf:resource="http://purl.org/dc/dcmitype/StillImage" />
        <dc:title></dc:title>
      </cc:Work>
    </rdf:RDF>
  </metadata>
  <g
     inkscape:label="Layer 1"
     inkscape:groupmode="layer"
     id="layer1"
     transform="translate(-18.3885,-82.607502)">
    <g
       id="g1437"
       transform="matrix(1.5665805,0,0,1.5693337,-10.418284,-47.026407)">
      <path
         style="font-variation-settings:normal;opacity:1;vector-effect:none;fill:#d6d6d6;fill-opacity:1;stroke:#000000;stroke-width:0.253141;stroke-linecap:butt;stroke-linejoin:miter;stroke-miterlimit:4;stroke-dasharray:none;stroke-dashoffset:0;stroke-opacity:1;stop-color:#000000;stop-opacity:1"
         d="m 102.70789,82.730996 v 84.720214 c 0,6.91277 -3.248706,11.47194 -12.327268,11.47194 H 71.414174 c -4.57447,0 -9.32488,1.80647 -10.802786,8.18219 -1.477905,-6.37572 -6.228316,-8.18219 -10.802785,-8.18219 H 30.842154 c -9.078561,0 -12.327263,-4.55917 -12.327263,-11.47194 V 82.730996 Z"
         id="path857"
         sodipodi:nodetypes="cssscssscc" />
      <path
         style="font-variation-settings:normal;opacity:1;vector-effect:none;fill:#000000;fill-opacity:1;stroke:none;stroke-width:0.0661458;stroke-linecap:butt;stroke-linejoin:miter;stroke-miterlimit:4;stroke-dasharray:none;stroke-dashoffset:0;stroke-opacity:1;stop-color:#000000;stop-opacity:1"
         d="m 45.487071,98.604537 c -0.486231,0.658476 -0.582472,2.404743 1.771762,2.374163 2.354235,-0.0306 4.516818,-0.0121 6.803572,0.4961 2.286757,0.50816 2.763953,0.85044 2.763953,0.85044 l -1.204801,1.59459 c 0,0 -2.090679,-1.06306 -4.819195,-0.99219 -2.728516,0.0709 -4.977473,0.62287 -6.52009,0.10631 -1.49822,-0.5017 -2.123777,-1.98852 -1.346539,-3.366354 0.779576,-1.381976 2.551338,-1.063059 2.551338,-1.063059 z"
         id="path1371"
         sodipodi:nodetypes="czscccssc" />
      <path
         style="font-variation-settings:normal;opacity:1;vector-effect:none;fill:#d3230e;fill-opacity:1;stroke:none;stroke-width:0.0661458;stroke-linecap:butt;stroke-linejoin:miter;stroke-miterlimit:4;stroke-dasharray:none;stroke-dashoffset:0;stroke-opacity:1;stop-color:#000000;stop-opacity:1"
         d="m 47.258833,101.40392 c 2.089652,-0.0272 4.247091,-0.10878 6.282421,0.19186 2.238491,0.33065 3.107928,0.80033 3.107928,0.80033 l -0.496096,1.16937 c 0,0 -2.32219,-0.99478 -5.365402,-1.01725 -3.043212,-0.0225 -4.368774,0.42724 -5.725363,-0.0269 -1.35659,-0.45416 -1.741416,-1.50346 -1.38292,-2.30566 0.358496,-0.802195 1.028094,-0.689811 1.028094,-0.689811 -0.239965,0.854621 0.461687,1.905211 2.551338,1.878061 z"
         id="path1373"
         sodipodi:nodetypes="zscczzzcz" />
      <path
         style="font-variation-settings:normal;opacity:1;vector-effect:none;fill:#000000;fill-opacity:1;stroke:none;stroke-width:0.0661458;stroke-linecap:butt;stroke-linejoin:miter;stroke-miterlimit:4;stroke-dasharray:none;stroke-dashoffset:0;stroke-opacity:1;stop-color:#000000;stop-opacity:1"
         d="m 48.710248,103.75017 c -0.204012,-1.31541 0.37941,-1.90921 0.37941,-1.90921 0.566964,0.63784 0.708705,1.48828 0.708705,1.48828 0,0 1.169364,0.85042 2.976563,0.92132 1.807199,0.0709 3.36635,-0.46066 3.543527,-1.91351 0.177176,-1.45284 -0.779576,-2.445029 -2.515904,-2.799382 -1.736328,-0.354353 -4.075056,0.177176 -4.075056,0.177176 -0.496094,0.708706 -1.240235,2.338726 -1.240235,2.338726 -0.531528,-0.81501 -0.460658,-2.338726 -0.460658,-2.338726 -0.637835,0.106306 -1.311104,0 -1.240234,-0.531529 0.07087,-0.531529 0.425217,-0.602399 0.425217,-0.602399 -0.106306,-0.815011 0.141741,-1.098494 0.141741,-1.098494 0,0 -0.6024,-0.03544 -0.744141,-0.425223 -0.141736,-0.389788 0.141746,-0.531529 -0.03543,-0.885881 -0.177175,-0.354353 -0.07087,-0.673271 -0.07087,-0.673271 0,0 -0.389787,-0.07087 -0.602399,-0.425223 -0.212612,-0.354352 -0.425223,-1.984375 -0.425223,-1.984375 l 9.177734,-0.460658 c 0.531529,-0.389788 1.098493,-0.637835 3.29548,-0.885882 2.196987,-0.248047 4.204986,-0.354352 4.204986,-0.354352 0.07087,-0.779576 -1.125664,-0.869346 -1.169364,-2.267858 -0.0437,-1.398512 1.594586,-2.657645 3.685267,-2.657645 2.090681,0 3.862444,1.488281 3.862444,1.488281 0,0 0.03544,0.212612 -0.74414,0.318918 -0.779576,0.106306 -0.885882,0.354352 -0.885882,0.354352 0.850447,-0.141741 1.098493,0.212612 1.098493,0.212612 l -1.204799,0.921322 c 0.425224,-0.106311 0.885882,0.03543 0.885882,0.03543 -0.389788,0.921317 -1.700893,2.019811 -1.700893,2.019811 1.169364,-0.07087 1.878069,0.318917 1.878069,0.318917 0,0 0.248047,-2.303292 1.027623,-3.649833 0.779576,-1.34654 2.374163,-1.984375 4.075056,-1.523716 1.700893,0.460658 3.827009,1.913504 4.925502,2.763951 1.098494,0.850446 1.523717,1.700893 1.523717,1.700893 -1.559152,0.03544 -2.941128,0.531529 -2.941128,0.531529 0.921317,0.248046 1.417411,1.098493 1.417411,1.098493 -0.921317,-0.283482 -3.011998,-0.177176 -3.011998,-0.177176 0.815012,0.177176 1.594587,0.921317 1.594587,0.921317 0,0 -0.602399,-0.106306 -1.700892,0.106305 -1.098494,0.212612 -0.956753,0.708706 -0.956753,0.708706 0,0 0.425224,0.212611 0.992188,0.992187 0.566964,0.779576 2.055245,2.799386 3.260045,3.118304 1.204799,0.318917 1.381975,0.531529 1.381975,0.531529 -0.531529,0.07087 -0.885882,0.248047 -0.885882,0.248047 0.779576,0.850447 1.913505,1.240237 1.913505,1.240237 -0.637835,0.53153 -2.126116,0.74414 -2.126116,0.74414 0.921317,0.81501 3.649832,2.05524 3.649832,2.05524 -0.637835,0.6024 -1.771763,0.74414 -1.771763,0.74414 1.452846,1.2048 3.933315,2.01981 3.933315,2.01981 -1.098494,0.49607 -3.189174,0.56697 -3.189174,0.56697 0.850446,1.24023 2.232421,2.05524 3.614397,2.76395 1.381975,0.7087 2.905692,0.92132 2.905692,0.92132 -0.708706,0.53153 -2.905692,0.81501 -2.905692,0.81501 0.815011,0.67327 2.941127,0.85044 2.941127,0.85044 -0.637835,0.95676 -2.291481,1.26386 -2.291481,1.26386 1.169364,0.77958 2.905692,1.02762 2.905692,1.02762 -0.602399,0.63784 -1.594587,0.81502 -1.594587,0.81502 0.744141,0.31895 1.94894,0.35435 1.94894,0.35435 -0.566964,0.6024 -1.381975,0.77957 -1.381975,0.77957 0.531529,0.21262 1.275669,0.21262 1.275669,0.21262 -0.354352,0.46065 -0.885881,0.67327 -0.885881,0.67327 0.531529,0.95675 2.515904,4.9255 3.401785,7.68945 0.885882,2.76395 2.55134,7.90206 3.118304,9.78013 0.566964,1.87807 1.488281,3.64984 1.488281,3.64984 -1.133928,-0.14175 -2.480469,-1.0985 -2.480469,-1.0985 0,0 -0.141741,1.02763 0.496094,2.09068 0.637835,1.06306 1.133929,1.91351 1.133929,1.91351 -1.204799,-0.24805 -2.799386,-1.63002 -2.799386,-1.63002 0.141741,1.48828 1.34654,3.26004 1.34654,3.26004 -0.815011,-0.24805 -2.267857,-1.2048 -2.267857,-1.2048 0.496093,1.48828 1.386208,3.16018 1.386208,3.16018 -0.5763,-0.25056 -2.179917,-1.32799 -2.179917,-1.32799 0.125282,1.02731 1.277991,2.3728 1.277991,2.3728 -0.992188,-0.10631 -1.665458,-0.85045 -1.665458,-0.85045 0,0 -0.647476,2.80208 -1.403777,5.78872 -0.540794,2.13561 -1.46648,4.2749 -1.46648,4.2749 0.389788,0.56696 1.204799,0.92131 1.204799,0.92131 -0.602399,0.17715 -1.878069,0.24805 -1.878069,0.24805 0.779576,0.56699 2.303293,0.49609 2.303293,0.49609 -0.496094,0.6024 -2.161552,1.31111 -2.161552,1.31111 0.850447,0.31895 2.267857,0.35435 2.267857,0.35435 -0.602399,0.74414 -2.586774,1.24024 -2.586774,1.24024 0.992187,0.21264 1.913504,0.14174 1.913504,0.14174 -0.602399,0.74414 -2.196986,1.2048 -2.196986,1.2048 0.74414,0.21258 1.807194,0.28348 1.842634,0.28348 -1.027623,0.7087 -3.082869,0.31892 -3.082869,0.31892 -1.275669,1.06305 -3.472656,2.62221 -6.945312,4.50027 -3.472656,1.87807 -6.094862,2.44507 -6.130302,2.48047 -0.708705,0.38979 -1.700892,0.70871 -1.700892,0.70871 0.885881,1.63002 0.637834,3.36635 0.637834,3.36635 -0.460658,-0.81501 -0.885877,-1.48828 -0.885877,-1.48828 0.318913,1.55915 -0.03544,3.54352 -0.03544,3.54352 -0.460658,-1.3111 -1.523716,-1.9135 -1.523716,-1.9135 0.531529,1.3111 0.212611,2.48047 0.212611,2.48047 -0.815011,-1.38198 -2.267857,-2.30329 -2.267857,-2.30329 0.637835,1.24023 0.460659,3.04743 0.460659,3.04743 -1.098493,-1.70089 -2.941127,-2.87026 -2.941127,-2.87026 0.602399,0.92132 0.602399,2.48047 0.602399,2.48047 -0.992187,-1.55915 -2.69308,-2.45684 -2.69308,-2.45684 -1.098494,0.67327 -1.630023,0.17717 -1.630023,0.17717 -1.588536,1.10425 -2.857052,-0.0423 -4.063244,2.58678 -0.248047,-1.63003 1.027623,-2.97657 1.027623,-2.97657 -1.452846,0.4961 -2.976562,2.16156 -2.976562,2.16156 0.03543,-1.8072 1.34654,-3.33092 1.34654,-3.33092 -1.594587,0.14174 -2.870257,1.77179 -2.870257,1.70089 0,-2.19698 1.559152,-3.40178 1.559152,-3.40178 -1.34654,0.28348 -2.409598,1.94894 -2.409598,1.94894 0.177176,-1.63002 0.906083,-3.1654 0.906083,-3.1654 -0.476074,0.27562 -1.22777,1.07741 -1.22777,1.07741 0.225509,-1.10249 1.202713,-2.17992 1.202713,-2.17992 0,0 -0.751695,-0.55124 -1.603617,-1.02732 -0.851922,-0.47607 -2.17129,-1.44931 -4.120229,-3.04389 -1.94894,-1.59459 -3.951033,-3.27776 -3.951033,-3.27776 0,0 -0.248047,0.0177 -1.187081,-0.0177 -0.939035,-0.0354 -1.984375,-0.3012 -1.984375,-0.3012 1.116211,-0.12403 1.594587,-0.4961 1.594587,-0.4961 0,0 -0.230329,-0.37207 -1.630022,-0.79729 -1.399694,-0.42522 -1.931223,-1.09853 -1.931223,-1.09853 0.779576,0.1595 1.523717,0.1063 1.523717,0.1063 0,0 -0.354353,-0.19489 -0.956752,-0.76185 -0.6024,-0.56697 -1.364258,-1.63003 -1.364258,-1.63003 0,0 0.584682,0.42523 1.222517,0.58468 0.637834,0.15948 1.240234,0.17718 1.240234,0.17718 0,0 -0.496094,-0.28348 -1.133929,-0.9036 -0.637834,-0.62012 -1.399693,-1.84263 -1.399693,-1.84263 0,0 0.425224,0.47837 1.063058,0.58468 0.637835,0.10635 1.098494,-0.0354 1.098494,-0.0354 -1.098494,-0.63783 -2.445034,-2.26785 -2.445034,-2.26785 0.248047,0.14174 1.240235,0.24806 1.240235,0.24806 -0.708706,-0.7087 -1.063058,-1.34654 -1.488282,-3.22461 -0.425223,-1.87806 -0.425223,-3.79157 -0.425223,-3.79157 0,0 -1.277501,-1.64704 -2.229649,-2.6493 -0.952148,-1.00226 -1.65373,-2.3052 -1.65373,-2.3052 0,0 -0.05011,-0.10024 -0.65147,0.0501 -0.601356,0.15033 -0.952148,0.0501 -0.952148,0.0501 l 1.027318,-1.57856 c 0,0 -0.250565,0.0501 -1.002261,0.50113 -0.751696,0.45102 -1.503391,0.30068 -1.503391,0.30068 0,0 1.102487,-0.80181 1.678787,-1.47833 0.5763,-0.67653 1.00226,-1.20272 1.00226,-1.20272 0,0 -0.325734,-0.10022 -1.152599,0.15034 -0.826866,0.25057 -1.653731,-0.10022 -1.653731,-0.10022 0,0 1.302939,-0.45102 1.929352,-1.20272 0.626413,-0.75169 0.902035,-1.6788 0.902035,-1.6788 -1.002261,0.55126 -1.703843,-0.0501 -1.703843,-0.0501 0.651469,-0.37584 1.277882,-0.9772 2.079691,-1.87923 0.801808,-0.90204 1.302939,-1.92936 1.302939,-1.92936 -0.676526,0.20051 -1.653731,0.22551 -1.653731,0.22551 2.355313,-1.07743 3.482856,-2.7061 4.53523,-4.0341 1.052374,-1.32799 2.706104,-3.55802 3.808591,-4.86096 1.102487,-1.30294 4.209495,-4.25961 6.038621,-5.81311 1.829126,-1.55351 4.184439,-3.10701 6.514695,-4.28467 2.330256,-1.17766 4.46006,-1.87924 4.46006,-1.87924 -0.275622,-0.75169 -0.801809,-1.37811 -1.779013,-1.97946 -0.977204,-0.60136 -2.167389,-0.7517 -2.167389,-0.7517 -0.137809,0.25057 -0.100229,0.60136 -0.100229,0.60136 -0.313206,-0.0877 -0.488602,-0.40091 -0.488602,-0.40091 l -0.05011,0.55125 c -0.112754,-0.20045 -0.325735,-0.56377 -0.325735,-0.56377 -0.02505,0.12528 -0.112754,0.25055 -0.112754,0.25055 -0.125283,-0.20045 -0.275622,-0.41343 -0.275622,-0.41343 l -0.238037,-0.0501 c -0.01252,0.20045 -0.112135,0.35928 -0.112135,0.35928 -0.354352,-0.60239 -0.885881,-0.95675 -0.885881,-0.95675 l -0.614212,0.35436 c -0.212611,-0.46066 -0.141741,-1.16937 -0.141741,-1.16937 -0.283483,-0.38979 -0.902341,-1.31111 -0.902341,-1.31111 z"
         id="path1213"
         sodipodi:nodetypes="cccccccccccccscssssccsccscscscsccscscscccccscscsccsccccsscccccscccccccccccccccccscccccccccccsccccccccsccssccccccccccsccccccccsscscccccsssccccccscsscsssscscccccccccccccc" />
      <path
         id="path1347"
         style="font-variation-settings:normal;opacity:1;vector-effect:none;fill:#fefefe;fill-opacity:1;stroke:none;stroke-width:0.25;stroke-linecap:butt;stroke-linejoin:miter;stroke-miterlimit:4;stroke-dasharray:none;stroke-dashoffset:0;stroke-opacity:1;stop-color:#000000;stop-opacity:1"
         d="m 271.64453,341.02539 c -1.35986,0.0192 -2.71443,0.27945 -3.92187,0.84766 -4.8298,2.27284 -4.54688,7.67187 -4.54688,7.67187 4.07218,1.79934 8.71289,2.36719 8.71289,2.36719 0,0 0.5691,-1.04176 3.41016,-3.88281 2.84105,-2.84106 4.82812,-2.46289 4.82812,-2.46289 -0.2841,-2.48593 -4.40284,-4.59873 -8.48242,-4.54102 z m -85.86133,10.10742 -0.78711,0.0391 c 0.80152,2.75461 0.14649,6.70703 0.14649,6.70703 0,0 0.85256,-1.98903 0.94726,-4.83008 0.0331,-0.99332 -0.10984,-1.57085 -0.30664,-1.91602 z m -8.50195,1.15821 c 0,0 -1.60887,-0.0956 -3.4082,0.47265 0,0 0.7572,1.42193 2.17773,1.61133 1.42053,0.18939 1.98828,0.0937 1.98828,0.0937 z m 2.16211,8.30664 c -1.12384,-0.0906 -2.06641,1.06836 -2.06641,1.06836 1.98874,0.2841 3.88247,-0.37906 2.55664,-0.94727 -0.16572,-0.071 -0.32968,-0.10815 -0.49023,-0.12109 z M 211.25,375.75977 c 0,0 7.49944,4.68581 8.03516,10.98046 0.53571,6.29466 -4.55274,9.64454 -4.55274,9.64454 0,0 5.49051,-0.40344 7.09766,-6.83204 1.60714,-6.42856 -6.42829,-12.98939 -10.58008,-13.79296 z m -26.45703,0.54296 c -0.46463,-0.009 -1.08004,0.0496 -1.86133,0.16797 0,0 -0.47336,5.02009 0.56836,7.10352 0,0 0.56966,-3.12453 1.80078,-5.11328 0.92334,-1.49156 0.88608,-2.13157 -0.50781,-2.15821 z m 0.79101,9.82813 c 0,0 -0.84007,1.63983 -0.75781,3.76562 0.0822,2.1258 0.34074,2.39636 0.66406,2.58008 0.32334,0.18369 1.32527,0.0947 1.60938,-0.56836 0.28411,-0.663 -1.13682,-3.22041 -1.51563,-5.77734 z m 106.5586,17.08398 c 2.00893,3.75001 4.41992,4.82032 4.41992,4.82032 -8.03571,-0.53571 -16.74023,-3.75 -16.74023,-3.75 1.74107,3.08035 6.42773,5.75976 6.42773,5.75976 -4.28572,0.26797 -13.66016,-1.47265 -13.66016,-1.47265 2.67858,4.28572 8.30274,6.5625 8.30274,6.5625 -4.82143,0 -16.20508,-1.33985 -16.20508,-1.33985 2.14286,2.8125 6.42773,4.82031 6.42773,4.82031 -3.74999,1.60714 -9.24023,-0.53515 -9.24023,-0.53515 0,0 3.34905,4.41906 13.25977,1.47265 -2.14286,-0.40176 -6.83204,-4.6875 -6.83204,-4.6875 0,0 3.61775,1.07281 9.64454,1.47461 6.02678,0.40177 10.71289,-1.07226 10.71289,-1.07226 -6.42857,-0.66962 -12.05274,-4.55274 -12.05274,-4.55274 5.75893,2.4107 17.54379,2.41016 17.67774,2.41016 -3.75001,-0.80357 -7.09766,-4.82227 -7.09766,-4.82227 7.63393,2.00894 13.39258,0.80469 13.39258,0.80469 -2.67857,-0.93747 -5.22266,-3.61719 -5.22266,-3.61719 l 2.67774,-0.80273 c 0,0 -5.62473,-1.47266 -5.89258,-1.47266 z m -73.66016,14.19532 c 0,0 7.36552,6.16128 10.84766,9.77734 3.48214,3.6161 4.95508,4.01758 4.95508,4.01758 0,0 1.20563,-2.5452 -0.26758,-5.08985 0,0 7.90151,2.27735 10.58008,5.08985 0,0 0.93722,-1.60712 -0.66993,-3.75 -1.60714,-2.14284 -1.74023,-4.01758 -1.74023,-4.01758 l 9.64258,4.28516 c 0,0 -0.53544,-2.14202 -3.08008,-3.61524 -2.54465,-1.47322 -4.41992,-4.82226 -4.41992,-4.82226 0,0 0.26813,2.81333 2.54492,4.82226 0,0 -5.22349,-2.54575 -7.23242,-4.55469 0.21736,2.81957 2.31641,4.22223 1.74219,7.63477 -3.44269,-3.96049 -7.76536,-4.63899 -11.78711,-7.36523 0.50274,3.31468 3.32283,4.25768 3.61718,8.4375 0,0 -9.37527,-8.57283 -14.73242,-10.84961 z m 90.6875,2.37109 c -7.00793,-0.18939 -26.82036,2.9191 -46.97265,8.71289 -20.15229,5.79375 -32.38672,11.74219 -32.38672,11.74219 0,0 -8.71317,-0.75714 -17.23633,-5.68164 C 204.05106,429.63019 196.69727,422.5 196.69727,422.5 c 0,0 3.94449,11.10772 8.30078,19.63086 4.35628,8.52317 5.30323,7.57733 7.19726,12.12305 l 42.43555,0.13281 c 2.84105,-6.62914 15.97983,-15.07411 28.48047,-22.08203 12.50064,-7.00793 26.05859,-12.52344 26.05859,-12.52344 z m -18.625,57.51563 c 0,0 -0.19009,14.20612 -2.65234,25.75976 -2.46225,11.5536 -8.33357,29.7358 -14.20508,35.22852 -5.87151,5.49271 -4.35547,6.81836 -4.35547,6.81836 0.37881,-0.18936 8.14352,-1.70547 11.74219,-10.60743 3.59867,-8.90196 8.71319,-24.62066 9.84961,-37.8789 1.13642,-13.25824 -0.37891,-19.32031 -0.37891,-19.32031 z M 168.75,480.66992 c 0,0 -3.61635,9.10771 -1.60742,20.08985 2.00893,10.98213 8.70647,26.65152 12.05469,32.14257 3.34821,5.49109 6.96289,9.91016 6.96289,9.91016 l -2.94532,-7.5 c 0,0 -2.54575,-2.41043 -6.42968,-8.70508 -3.88393,-6.29461 -7.09738,-22.36691 -8.30274,-28.25976 -1.20535,-5.89285 -0.66992,-13.39202 0.26758,-17.67774 z m -34.46484,67.72266 c 0,0 0.0288,1.26994 0.11914,2.97851 2.53543,2.66116 14.19725,14.83789 20.41797,20.10157 6.96428,5.89285 19.28515,14.59961 19.28515,14.59961 0,0 1.20452,-10e-4 8.30274,1.33789 7.09821,1.33927 19.95507,0.66992 19.95507,0.66992 0,0 0.26898,-2.94642 3.61719,-1.875 3.34822,1.07142 7.36663,4.95536 13.52735,10.3125 6.16071,5.35714 13.25781,12.32226 13.25781,12.32226 -11.11607,1.74108 -21.8298,10.98075 -27.72266,16.33789 -5.77333,5.24848 -6.02734,7.36719 -6.02734,7.36719 7.36607,-7.76783 16.20619,-13.39288 21.69726,-16.875 5.49108,-3.48215 7.90039,-2.54492 7.90039,-2.54492 3.08036,-3.6161 6.42969,-3.21484 6.42969,-3.21484 0,0 2.14174,-3.34765 5.75781,-9.91016 3.61607,-6.56251 8.83985,-13.66016 8.83985,-13.66016 0,0 9.84766,4.56168 23.03515,2.67774 13.18751,-1.88391 19.15179,-6.02707 29.0625,-11.91992 9.91072,-5.89285 21.96457,-13.92803 27.85743,-18.34766 4.8061,-3.6046 7.67258,-5.69709 8.78906,-6.50977 0.31723,-1.35151 0.85351,-3.625 0.85351,-3.625 0,0 -1.33845,1.02707 -4.55273,4.10743 -3.21429,3.08035 -18.61551,13.39369 -30.53516,20.75976 -11.31288,6.99115 -20.62377,10.6942 -31.20507,13.125 -10.58131,2.43081 -20.08985,-0.66992 -20.08985,-0.66992 0,0 0,-1.47321 -1.875,-0.9375 -1.875,0.53571 -4.42076,2.9467 -9.24219,10.04492 -4.82143,7.09822 -8.70507,13.125 -8.70507,13.125 0,0 -4.41965,-6.16044 -10.3125,-11.51758 -5.89286,-5.35714 -12.85659,-10.31225 -16.47266,-11.51757 -3.61607,-1.20537 -5.08984,0.9375 -5.08984,0.9375 0,0 -3.48159,0.53513 -9.91016,-0.40235 -6.42857,-0.93751 -17.56641,-2.24414 -17.56641,-2.24414 0,0 -6.06117,-4.35567 -15.91015,-12.68945 -9.84899,-8.33375 -23.48828,-22.34375 -23.48828,-22.34375 z m 112.3164,7.32226 c 0,0 -4.41825,0.93779 -7.90039,2.54493 -3.48214,1.60713 -7.5,3.08007 -7.5,3.08007 3.298,0.98042 6.85505,0.89077 8.89063,0.72266 2.04089,-3.62043 6.50976,-6.34766 6.50976,-6.34766 z M 211.5625,556.25 c 0,0 2.84829,2.13883 4.04492,5.10742 1.61451,0.42263 5.06359,1.05684 8.67774,-0.0176 0,0 -4.01786,-1.47294 -7.5,-3.08007 -3.48215,-1.60714 -5.22266,-2.00977 -5.22266,-2.00977 z m 4.20898,5.5625 c 0.17919,0.53603 0.30534,1.09373 0.34375,1.66992 0.0579,0.86887 -0.0231,1.9846 -0.21875,3.24414 1.71915,0.56087 6.03915,1.68004 10.9336,0.63867 0,0 -7.12951,-3.07971 -11.0586,-5.55273 z m 23.79688,1.32812 c -4.36752,2.16292 -11.44727,4.22461 -11.44727,4.22461 5.46283,1.1622 9.89809,0.15314 11.03321,-0.14648 -0.076,-0.73682 -0.098,-1.44941 -0.0527,-2.12891 0.0443,-0.66456 0.21537,-1.31642 0.4668,-1.94922 z m -23.72656,3.94727 c -0.28391,1.671 -0.78204,3.58145 -1.45313,5.55273 3.16757,0.0429 8.42198,0.004 11.77149,-0.7207 0,0 -6.32172,-1.75731 -10.31836,-4.83203 z m 23.3457,0.38477 c -3.90979,3.19952 -9.86133,4.44726 -9.86133,4.44726 3.19457,0.69071 8.08312,0.75607 11.29492,0.72461 -0.75721,-1.79431 -1.23683,-3.54099 -1.43359,-5.17187 z m -25.05664,5.86914 c -0.52803,1.46582 -1.13221,2.94435 -1.84961,4.37304 1.30331,0.21786 4.06012,0.49391 7.85352,-0.16992 5.35714,-0.93751 5.625,-1.875 5.625,-1.875 0,0 -7.06932,-1.10914 -11.62891,-2.32812 z m 26.8418,0.0996 c -4.56332,1.17882 -11.2461,2.22851 -11.2461,2.22851 0,0 0.26786,0.93749 5.625,1.875 3.84072,0.67211 6.85895,0.58444 8.29688,0.48242 -1.07673,-1.52498 -1.97159,-3.06684 -2.67578,-4.58593 z m -29.26172,5.36914 c -0.69342,1.26659 -1.45815,2.46943 -2.29102,3.55468 0,0 7.2327,0.8047 11.65235,-2.94531 0,0 -5.18686,0.21655 -9.36133,-0.60937 z m 32.77734,0.35547 c -4.25899,0.83026 -10.07422,0.2539 -10.07422,0.2539 4.41965,3.75001 13.125,3.21485 13.125,3.21485 -1.12433,-1.12434 -2.14024,-2.28804 -3.05078,-3.46875 z M 197.54492,635.625 c -1.60714,1.40625 -2.67969,3.61523 -2.67969,3.61523 l 3.55079,-2.34375 z m 2.34375,3.28125 c 0,0 -3.0798,1.87557 -3.8164,7.43359 0,0 2.94531,-4.3535 5.75781,-5.29101 0,0 -1.2048,-0.93721 -1.94141,-2.14258 z m 63.6836,1.45117 c 0,0 -4.37424,2.13124 -8.91993,3.64649 -4.54568,1.51521 -10.89062,3.78711 -10.89062,3.78711 0,0 4.26155,-0.47225 11.08008,-2.6504 4.78317,-1.52794 7.87961,-2.83297 9.36328,-3.49804 -0.1928,-0.42902 -0.40049,-0.85768 -0.63281,-1.28516 z m 0.75781,3.79492 -1.47266,1.27149 2.34375,3.61719 c -0.067,-2.61158 -0.87109,-4.88868 -0.87109,-4.88868 z m -60.35742,0.17774 c 0,0 -4.01786,3.61551 -4.6875,7.5664 2.8125,-3.81694 7.29882,-5.35546 7.29882,-5.35546 z m 56.54101,3.63867 c -0.40178,1.20537 -2.07617,2.94727 -2.07617,2.94727 0,0 8.4e-4,0.53572 1.07227,1.875 1.07142,1.33931 1.9414,3.54882 1.9414,3.54882 0,0 0.40124,-2.00975 0.0664,-4.35351 -0.33482,-2.34376 -1.00391,-4.01758 -1.00391,-4.01758 z m -49.91015,2.92383 c -2.54465,1.13839 -4.6211,5.625 -4.6211,5.625 2.07589,-2.41074 6.29492,-3.95117 6.29492,-3.95117 z m 44.61914,1.96484 c -1.1384,0.4687 -3.34766,0.80274 -3.34766,0.80274 0.80357,0.66962 3.88477,4.88867 3.88477,4.88867 0.26785,-3.34821 -0.53711,-5.69141 -0.53711,-5.69141 z m -8.03516,1.33985 c -1.00446,0.46866 -3.61523,0.73632 -3.61523,0.73632 1.875,1.47323 5.625,6.36133 5.625,6.36133 -0.067,-2.8125 -2.00977,-7.09765 -2.00977,-7.09765 z m -10.24609,0.19921 c 0,0 -2.14287,0.13428 -2.34375,0.20118 l 3.75,3.21484 c 0,0 0,-2.3446 -1.40625,-3.41602 z m -21.18164,0.71485 c 0,0 -3.41658,2.54492 -3.81836,5.35742 0,0 3.14843,-3.41599 6.42968,-3.88477 z"
         transform="scale(0.26458333)" />
      <g
         id="g1102">
        <path
           style="font-variation-settings:normal;opacity:1;vector-effect:none;fill:#f2e847;fill-opacity:1;stroke:none;stroke-width:0.264583;stroke-linecap:butt;stroke-linejoin:miter;stroke-miterlimit:4;stroke-dasharray:none;stroke-dashoffset:0;stroke-opacity:1;stop-color:#000000;stop-opacity:1"
           d="m 72.760232,119.84285 v 21.13335 c 0,2.04047 -1.25749,3.85309 -3.357135,4.01998 -2.099645,0.1669 -3.885544,0.20632 -5.07272,0.30068 -1.187175,0.0944 -2.991792,0.58108 -3.718985,2.32826 -0.727193,-1.74718 -2.53181,-2.23386 -3.718985,-2.32826 -1.187176,-0.0944 -2.973075,-0.13378 -5.07272,-0.30068 -2.099645,-0.16689 -3.357135,-1.97951 -3.357135,-4.01998 l -2e-6,-21.13335 z"
           id="path861"
           sodipodi:nodetypes="cszzczzscc" />
        <path
           id="path865"
           style="font-variation-settings:normal;opacity:1;vector-effect:none;fill:#2e48a5;fill-opacity:1;stroke:#000000;stroke-width:0.637773;stroke-linecap:butt;stroke-linejoin:miter;stroke-miterlimit:4;stroke-dasharray:none;stroke-dashoffset:0;stroke-opacity:1;stop-color:#000000;stop-opacity:1"
           d="m 219.36523,452.94922 v 46.27539 l -36.18359,34.03125 c 0.17495,7.53324 4.88553,14.14282 12.67188,14.76172 l 33.22851,-31.25391 33.22852,31.25391 c 7.78635,-0.6189 12.49692,-7.22848 12.67187,-14.76172 l -36.18359,-34.03125 v -46.27539 z"
           transform="scale(0.26458333)"
           sodipodi:nodetypes="cccccccccc" />
        <g
           id="g1067"
           transform="matrix(1.0521745,0.01823382,-0.01823382,1.0521745,-0.9060497,-8.5444108)"
           style="stroke-width:0.0801762;stroke-miterlimit:4;stroke-dasharray:none">
          <path
             style="font-variation-settings:normal;opacity:1;vector-effect:none;fill:#d3230e;fill-opacity:1;stroke:#000000;stroke-width:0.0801762;stroke-linecap:butt;stroke-linejoin:miter;stroke-miterlimit:4;stroke-dasharray:none;stroke-dashoffset:0;stroke-opacity:1;stop-color:#000000;stop-opacity:1"
             d="m 59.709682,141.79066 c 0,0 0.375848,-0.27562 0.538715,-0.61388 0.162867,-0.33827 0.451017,-0.46355 0.451017,-0.46355 0,0 0.100227,0.52619 0.576302,0.76422 0,0 -0.275622,0.1754 -0.375848,0.45102 -0.100226,0.27562 -1.190186,-0.13781 -1.190186,-0.13781 z m 3.019312,0.36332 c 0,0 0.21298,-0.31321 0.513658,-0.31321 0.300679,0 0.225509,0.1754 -0.01253,0.27563 -0.238037,0.10022 -0.50113,0.0376 -0.50113,0.0376 z m 2.668519,-0.66399 c 0,0 -0.250565,0.61388 -0.263094,1.22776 -0.01253,0.61389 0.28815,1.07743 0.28815,1.07743 0,0 -0.300678,0.0501 -0.651469,-0.11275 -0.350791,-0.16286 -0.78928,-0.56377 -0.939619,-0.82687 -0.15034,-0.26309 0.01253,-0.6264 0.01253,-0.6264 0,0 0.801807,-0.67653 1.553502,-0.73917 z m -2.455539,1.51591 c 0,0 0.36332,0.0877 0.513659,0.22551 -0.164317,0.32653 -0.457665,0.46772 -0.551244,0.97721 0,0 -0.238037,-0.0125 -0.551243,-0.32574 -0.313207,-0.31321 -0.50113,-0.42596 -0.50113,-0.42596 z m -1.841654,0.70158 c 0,0 -0.05011,0.52619 -0.200452,0.87698 0,0 -0.551244,-0.3132 -0.739167,-0.82686 z"
             id="path969"
             sodipodi:nodetypes="csccsccsscccsczscccccscccccc" />
          <path
             style="font-variation-settings:normal;opacity:1;vector-effect:none;fill:#d3230e;fill-opacity:1;stroke:#000000;stroke-width:0.0801762;stroke-linecap:butt;stroke-linejoin:miter;stroke-miterlimit:4;stroke-dasharray:none;stroke-dashoffset:0;stroke-opacity:1;stop-color:#000000;stop-opacity:1"
             d="m 55.922759,142.54427 c 0.326013,-0.032 0.779576,-0.46066 1.718609,-0.62012 0.939035,-0.15947 2.01981,-0.31892 3.047433,-0.17717 1.027623,0.14174 1.027623,0.24804 2.374165,0.37207 1.346538,0.12402 1.470562,0.17717 1.470562,0.54924 0,0.37211 -0.690989,0.12403 -1.364258,0.40751 -0.673269,0.28348 -0.868164,0.49609 -2.214703,0.72642 -1.346541,0.23034 -2.533623,0.28348 -3.189176,0.14174 -0.65555,-0.14174 -0.803532,-0.28879 -1.217327,-0.41269 -0.413796,-0.12391 -0.626092,-0.17041 -0.876656,-0.22051 -0.250564,-0.0501 -0.284714,-0.2067 -0.187924,-0.2631 0.120267,-0.0701 0.109484,0.16776 0.442157,0.13047 l -0.105072,-0.14439 c 0.172857,-0.0417 0.204313,-0.0316 0.33109,-0.0195 -0.239973,-0.2945 -0.44851,-0.21507 -0.740561,-0.13639 -0.03758,-0.2571 0.185648,-0.30155 0.511661,-0.33358 z"
             id="path951"
             sodipodi:nodetypes="zzsssssssscccccz" />
          <path
             id="path1106"
             style="font-variation-settings:normal;opacity:1;vector-effect:none;fill:none;fill-opacity:1;stroke:#000000;stroke-width:0.0801762;stroke-linecap:butt;stroke-linejoin:miter;stroke-miterlimit:4;stroke-dasharray:none;stroke-dashoffset:0;stroke-opacity:1;stop-color:#000000;stop-opacity:1"
             d="m 56.151658,143.01428 c 0.08388,0.10785 0.138562,0.18317 0.300033,0.23685 -0.2476,-0.0977 -0.526052,-0.073 -0.526052,-0.073 m 1.716881,0.18276 c 0.443473,-0.31502 0.581587,0.0134 1.102487,-0.17541 -0.02994,0.3933 -0.258952,0.35132 -0.551243,0.63895 0,0 -0.238037,-0.18793 -0.551244,-0.23804 0,0 0.05011,-0.11275 0,-0.2255 z m 0.02838,0.0722 c 0,0 0.531529,-0.15946 1.018764,-0.009 m -1.027624,0.0799 c 0,0 0.4518,0 0.779576,0.11516 m 1.940081,0.26576 c 0,0 0.239188,0.35435 0.575823,0.54924 m -0.327776,-0.59354 c 0,0 0.177176,0.24805 0.398646,0.3455 m -0.141741,-0.38093 c 0,0 0.07973,0.11516 0.177177,0.1506 m 1.089635,-0.44294 c 0.323758,0.17255 0.409743,0.4141 0.788434,0.56696 m 0.04429,-0.14174 c -0.265824,-0.13502 -0.377081,-0.31023 -0.620117,-0.50495 m 0.221474,-0.0797 c 0.183585,0.17158 0.251993,0.31913 0.487235,0.43408 m 0.07087,-0.15063 c -0.155816,-0.12055 -0.206596,-0.24532 -0.372071,-0.38093 m 0.194895,-0.0886 c 0.116063,0.11768 0.182854,0.20943 0.3012,0.32778 m 0.07973,-0.13287 c 0,0 -0.121074,-0.12108 -0.251002,-0.25986 m 0.924271,-0.86521 c 0,0 0.761859,-0.56697 1.328823,-0.54925 m -1.142787,0.58468 c 0,0 0.575823,-0.31892 1.036481,-0.31006 m -0.815011,0.40751 c 0,0 0.4518,-0.17718 0.744141,-0.1506 m -0.655553,0.31006 c 0,0 0.380929,-0.0354 0.628976,-3e-5 m -0.614212,0.13881 c 0,0 0.392742,0.0738 0.614213,0.25986 m -0.673271,-0.11516 c 0,0 0.389788,0.22147 0.717564,0.38979 m -0.912458,-0.31892 c 0,0 0.434083,0.35436 0.983329,0.57583 m -1.19594,-0.55811 c 0,0 0.434081,0.59354 1.275669,0.753 M 60.05421,141.6967 c 0.38367,-0.19823 0.362634,-0.49834 0.687745,-0.78836 m -0.292341,0.80616 c 0.18769,-0.20232 0.258816,-0.39772 0.398647,-0.62898 m -0.15946,0.66146 c 0,0 0.168319,-0.22738 0.363213,-0.42227"
             sodipodi:nodetypes="cccccccccccccccccccccccccccccccccccccccccccccccccccc" />
          <path
             id="path1183"
             style="color:#000000;font-style:normal;font-variant:normal;font-weight:normal;font-stretch:normal;font-size:medium;line-height:normal;font-family:sans-serif;font-variant-ligatures:normal;font-variant-position:normal;font-variant-caps:normal;font-variant-numeric:normal;font-variant-alternates:normal;font-variant-east-asian:normal;font-feature-settings:normal;font-variation-settings:normal;text-indent:0;text-align:start;text-decoration:none;text-decoration-line:none;text-decoration-style:solid;text-decoration-color:#000000;letter-spacing:normal;word-spacing:normal;text-transform:none;writing-mode:lr-tb;direction:ltr;text-orientation:mixed;dominant-baseline:auto;baseline-shift:baseline;text-anchor:start;white-space:normal;shape-padding:0;shape-margin:0;inline-size:0;clip-rule:nonzero;display:inline;overflow:visible;visibility:visible;opacity:1;isolation:auto;mix-blend-mode:normal;color-interpolation:sRGB;color-interpolation-filters:linearRGB;solid-color:#000000;solid-opacity:1;vector-effect:none;fill:#000000;fill-opacity:1;fill-rule:nonzero;stroke:none;stroke-width:0.318892;stroke-linecap:butt;stroke-linejoin:miter;stroke-miterlimit:4;stroke-dasharray:none;stroke-dashoffset:0;stroke-opacity:1;color-rendering:auto;image-rendering:auto;shape-rendering:auto;text-rendering:auto;enable-background:accumulate;stop-color:#000000;stop-opacity:1"
             d="m 215.35742,541.24023 c -0.14475,0.6862 -0.83917,1.26291 -1.58594,1.46094 0.36922,-0.28216 0.63362,-0.7005 0.70118,-1.21094 0.10853,-0.82002 -0.24629,-1.82295 -1.34082,-2.60254 0.88256,0.92222 1.18864,1.84693 1.09277,2.57129 -0.0957,0.72277 -0.58482,1.24519 -1.25586,1.33399 -0.4121,-0.005 -0.8548,-0.0836 -1.30859,-0.25391 l -0.0859,0.23242 c 0.48311,0.18129 0.95921,0.26735 1.40625,0.27149 1.211,0.0124 2.3008,-0.66564 2.61133,-1.72461 0.31053,-1.05897 0.0112,-1.47904 -0.71583,-2.03516 0.6407,0.61256 0.6262,1.27083 0.48145,1.95703 z m 24.12119,-1.95703 c -1.02077,0.047 -3.66211,0.31543 -3.66211,0.31543 0,0 2.30779,0.27414 3.66211,-0.31543 z m -27.618,1.59013 c 0.10198,0.20687 0.002,0.444 -0.1067,0.52315 -0.1083,0.0792 -0.25989,0.11569 -0.47461,0.0312 l -0.0937,0.23243 c 0.27767,0.10922 0.53728,0.0673 0.71484,-0.0625 0.17756,-0.12975 0.35739,-0.5027 0.11552,-0.90591 -0.24187,-0.40321 -0.56047,-0.48014 -0.98076,-0.28257 0.67391,-0.0247 0.72349,0.25729 0.82546,0.46415 z"
             transform="matrix(0.25142087,0,0,0.25142087,3.3428045,7.0964761)"
             sodipodi:nodetypes="ccscscccczczccccsccszczss" />
          <path
             id="path955"
             style="opacity:1;fill:#000000;stroke:none;stroke-width:0.0801762;stroke-linejoin:round;stroke-miterlimit:4;stroke-dasharray:none"
             d="m 56.445026,142.70626 a 0.10335774,0.10335774 0 0 1 -0.10336,0.10336 0.10335774,0.10335774 0 0 1 -0.10336,-0.10336 0.10335774,0.10335774 0 0 1 0.10336,-0.10336 0.10335774,0.10335774 0 0 1 0.10336,0.10336 z" />
          <g
             id="g985"
             transform="translate(-0.03758478,0.02505652)"
             style="stroke-width:0.0801762;stroke-miterlimit:4;stroke-dasharray:none">
            <path
               id="path982"
               style="opacity:1;fill:#000000;stroke:none;stroke-width:0.0801762;stroke-linejoin:round;stroke-miterlimit:4;stroke-dasharray:none"
               d="m 57.397171,142.24898 a 0.11588572,0.05950979 0 0 1 -0.115888,0.0595 0.11588572,0.05950979 0 0 1 -0.115888,-0.0595 0.11588572,0.05950979 0 0 1 0.115888,-0.0595 0.11588572,0.05950979 0 0 1 0.115888,0.0595 z" />
            <path
               id="path987"
               style="opacity:1;fill:#000000;stroke:none;stroke-width:0.0801762;stroke-linejoin:round;stroke-miterlimit:4;stroke-dasharray:none"
               d="m 57.697849,142.06106 a 0.11588572,0.05950979 0 0 1 -0.115888,0.0595 0.11588572,0.05950979 0 0 1 -0.115888,-0.0595 0.11588572,0.05950979 0 0 1 0.115888,-0.0595 0.11588572,0.05950979 0 0 1 0.115888,0.0595 z" />
            <path
               id="path989"
               style="opacity:1;fill:#000000;stroke:none;stroke-width:0.0801762;stroke-linejoin:round;stroke-miterlimit:4;stroke-dasharray:none"
               d="m 58.036112,142.16129 a 0.11588572,0.05950979 0 0 1 -0.115888,0.0595 0.11588572,0.05950979 0 0 1 -0.115888,-0.0595 0.11588572,0.05950979 0 0 1 0.115888,-0.0595 0.11588572,0.05950979 0 0 1 0.115888,0.0595 z" />
            <path
               id="path991"
               style="opacity:1;fill:#000000;stroke:none;stroke-width:0.0801762;stroke-linejoin:round;stroke-miterlimit:4;stroke-dasharray:none"
               d="m 58.386903,142.11117 a 0.11588572,0.05950979 0 0 1 -0.115888,0.0595 0.11588572,0.05950979 0 0 1 -0.115888,-0.0595 0.11588572,0.05950979 0 0 1 0.115888,-0.0595 0.11588572,0.05950979 0 0 1 0.115888,0.0595 z" />
            <path
               id="path993"
               style="opacity:1;fill:#000000;stroke:none;stroke-width:0.0801762;stroke-linejoin:round;stroke-miterlimit:4;stroke-dasharray:none"
               d="m 58.512186,141.94831 a 0.11588572,0.05950979 0 0 1 -0.115888,0.0595 0.11588572,0.05950979 0 0 1 -0.115888,-0.0595 0.11588572,0.05950979 0 0 1 0.115888,-0.0595 0.11588572,0.05950979 0 0 1 0.115888,0.0595 z" />
            <path
               id="path995"
               style="opacity:1;fill:#000000;stroke:none;stroke-width:0.0801762;stroke-linejoin:round;stroke-miterlimit:4;stroke-dasharray:none"
               d="m 58.83792,142.03601 a 0.11588572,0.05950979 0 0 1 -0.115888,0.0595 0.11588572,0.05950979 0 0 1 -0.115888,-0.0595 0.11588572,0.05950979 0 0 1 0.115888,-0.0595 0.11588572,0.05950979 0 0 1 0.115888,0.0595 z" />
            <path
               id="path997"
               style="opacity:1;fill:#000000;stroke:none;stroke-width:0.0801762;stroke-linejoin:round;stroke-miterlimit:4;stroke-dasharray:none"
               d="m 59.113542,141.88567 a 0.11588572,0.05950979 0 0 1 -0.115888,0.0595 0.11588572,0.05950979 0 0 1 -0.115888,-0.0595 0.11588572,0.05950979 0 0 1 0.115888,-0.0595 0.11588572,0.05950979 0 0 1 0.115888,0.0595 z" />
            <path
               id="path999"
               style="opacity:1;fill:#000000;stroke:none;stroke-width:0.0801762;stroke-linejoin:round;stroke-miterlimit:4;stroke-dasharray:none"
               d="m 59.339051,142.14876 a 0.11588572,0.05950979 0 0 1 -0.115888,0.0595 0.11588572,0.05950979 0 0 1 -0.115888,-0.0595 0.11588572,0.05950979 0 0 1 0.115888,-0.0595 0.11588572,0.05950979 0 0 1 0.115888,0.0595 z" />
            <path
               id="path1001"
               style="opacity:1;fill:#000000;stroke:none;stroke-width:0.0801762;stroke-linejoin:round;stroke-miterlimit:4;stroke-dasharray:none"
               d="m 59.790068,142.03601 a 0.11588572,0.05950979 0 0 1 -0.115888,0.0595 0.11588572,0.05950979 0 0 1 -0.115888,-0.0595 0.11588572,0.05950979 0 0 1 0.115888,-0.0595 0.11588572,0.05950979 0 0 1 0.115888,0.0595 z" />
            <path
               id="path1003"
               style="opacity:1;fill:#000000;stroke:none;stroke-width:0.0801762;stroke-linejoin:round;stroke-miterlimit:4;stroke-dasharray:none"
               d="m 59.602144,141.83556 a 0.11588572,0.05950979 0 0 1 -0.115888,0.0595 0.11588572,0.05950979 0 0 1 -0.115888,-0.0595 0.11588572,0.05950979 0 0 1 0.115888,-0.0595 0.11588572,0.05950979 0 0 1 0.115888,0.0595 z" />
            <path
               id="path1005"
               style="opacity:1;fill:#000000;stroke:none;stroke-width:0.0801762;stroke-linejoin:round;stroke-miterlimit:4;stroke-dasharray:none"
               d="m 60.103274,142.01096 a 0.11588572,0.05950979 0 0 1 -0.115888,0.0595 0.11588572,0.05950979 0 0 1 -0.115888,-0.0595 0.11588572,0.05950979 0 0 1 0.115888,-0.0595 0.11588572,0.05950979 0 0 1 0.115888,0.0595 z" />
            <path
               id="path1007"
               style="opacity:1;fill:#000000;stroke:none;stroke-width:0.0801762;stroke-linejoin:round;stroke-miterlimit:4;stroke-dasharray:none"
               d="m 60.516707,142.03602 a 0.11588572,0.05950979 0 0 1 -0.115888,0.0595 0.11588572,0.05950979 0 0 1 -0.115888,-0.0595 0.11588572,0.05950979 0 0 1 0.115888,-0.0595 0.11588572,0.05950979 0 0 1 0.115888,0.0595 z" />
            <path
               id="path1009"
               style="opacity:1;fill:#000000;stroke:none;stroke-width:0.0801762;stroke-linejoin:round;stroke-miterlimit:4;stroke-dasharray:none"
               d="m 60.291198,141.81051 a 0.11588572,0.05950979 0 0 1 -0.115888,0.0595 0.11588572,0.05950979 0 0 1 -0.115888,-0.0595 0.11588572,0.05950979 0 0 1 0.115888,-0.0595 0.11588572,0.05950979 0 0 1 0.115888,0.0595 z" />
            <path
               id="path1011"
               style="opacity:1;fill:#000000;stroke:none;stroke-width:0.0801762;stroke-linejoin:round;stroke-miterlimit:4;stroke-dasharray:none"
               d="m 60.905083,141.99843 a 0.11588572,0.05950979 0 0 1 -0.115888,0.0595 0.11588572,0.05950979 0 0 1 -0.115888,-0.0595 0.11588572,0.05950979 0 0 1 0.115888,-0.0595 0.11588572,0.05950979 0 0 1 0.115888,0.0595 z" />
            <path
               id="path1013"
               style="opacity:1;fill:#000000;stroke:none;stroke-width:0.0801762;stroke-linejoin:round;stroke-miterlimit:4;stroke-dasharray:none"
               d="m 61.268403,141.93579 a 0.11588572,0.05950979 0 0 1 -0.115888,0.0595 0.11588572,0.05950979 0 0 1 -0.115888,-0.0595 0.11588572,0.05950979 0 0 1 0.115888,-0.0595 0.11588572,0.05950979 0 0 1 0.115888,0.0595 z" />
            <path
               id="path1015"
               style="opacity:1;fill:#000000;stroke:none;stroke-width:0.0801762;stroke-linejoin:round;stroke-miterlimit:4;stroke-dasharray:none"
               d="m 61.731949,142.1613 a 0.11588572,0.05950979 0 0 1 -0.115888,0.0595 0.11588572,0.05950979 0 0 1 -0.115888,-0.0595 0.11588572,0.05950979 0 0 1 0.115888,-0.0595 0.11588572,0.05950979 0 0 1 0.115888,0.0595 z" />
            <path
               id="path1017"
               style="opacity:1;fill:#000000;stroke:none;stroke-width:0.0801762;stroke-linejoin:round;stroke-miterlimit:4;stroke-dasharray:none"
               d="m 62.233079,142.14877 a 0.11588572,0.05950979 0 0 1 -0.115888,0.0595 0.11588572,0.05950979 0 0 1 -0.115888,-0.0595 0.11588572,0.05950979 0 0 1 0.115888,-0.0595 0.11588572,0.05950979 0 0 1 0.115888,0.0595 z" />
            <path
               id="path1019"
               style="opacity:1;fill:#000000;stroke:none;stroke-width:0.0801762;stroke-linejoin:round;stroke-miterlimit:4;stroke-dasharray:none"
               d="m 63.147642,142.27405 a 0.11588572,0.05950979 0 0 1 -0.115888,0.0595 0.11588572,0.05950979 0 0 1 -0.115888,-0.0595 0.11588572,0.05950979 0 0 1 0.115888,-0.0595 0.11588572,0.05950979 0 0 1 0.115888,0.0595 z" />
            <path
               id="path1021"
               style="opacity:1;fill:#000000;stroke:none;stroke-width:0.0801762;stroke-linejoin:round;stroke-miterlimit:4;stroke-dasharray:none"
               d="m 63.573603,142.31163 a 0.11588572,0.05950979 0 0 1 -0.115888,0.0595 0.11588572,0.05950979 0 0 1 -0.115888,-0.0595 0.11588572,0.05950979 0 0 1 0.115888,-0.0595 0.11588572,0.05950979 0 0 1 0.115888,0.0595 z" />
            <path
               id="path1023"
               style="opacity:1;fill:#000000;stroke:none;stroke-width:0.0801762;stroke-linejoin:round;stroke-miterlimit:4;stroke-dasharray:none"
               d="m 62.65904,142.14876 a 0.11588572,0.05950979 0 0 1 -0.115888,0.0595 0.11588572,0.05950979 0 0 1 -0.115888,-0.0595 0.11588572,0.05950979 0 0 1 0.115888,-0.0595 0.11588572,0.05950979 0 0 1 0.115888,0.0595 z" />
            <path
               id="path1025"
               style="opacity:1;fill:#000000;stroke:none;stroke-width:0.0801762;stroke-linejoin:round;stroke-miterlimit:4;stroke-dasharray:none"
               d="m 61.656779,141.93578 a 0.11588572,0.05950979 0 0 1 -0.115888,0.0595 0.11588572,0.05950979 0 0 1 -0.115888,-0.0595 0.11588572,0.05950979 0 0 1 0.115888,-0.0595 0.11588572,0.05950979 0 0 1 0.115888,0.0595 z" />
            <path
               id="path1027"
               style="opacity:1;fill:#000000;stroke:none;stroke-width:0.0801762;stroke-linejoin:round;stroke-miterlimit:4;stroke-dasharray:none"
               d="m 60.692103,141.77291 a 0.11588572,0.05950979 0 0 1 -0.115888,0.0595 0.11588572,0.05950979 0 0 1 -0.115888,-0.0595 0.11588572,0.05950979 0 0 1 0.115888,-0.0595 0.11588572,0.05950979 0 0 1 0.115888,0.0595 z" />
          </g>
        </g>
        <path
           style="font-variation-settings:normal;opacity:1;vector-effect:none;fill:none;fill-opacity:1;stroke:#000000;stroke-width:0.253116;stroke-linecap:butt;stroke-linejoin:miter;stroke-miterlimit:4;stroke-dasharray:none;stroke-dashoffset:0;stroke-opacity:1;stop-color:#000000;stop-opacity:1"
           d="m 48.46255,119.84285 v 21.13335 c 0,2.04047 1.25749,3.85309 3.357135,4.01998 2.099645,0.1669 3.885544,0.20632 5.07272,0.30068 1.187175,0.0944 2.991792,0.58108 3.718985,2.32826 0.727193,-1.74718 2.53181,-2.23386 3.718985,-2.32826 1.187176,-0.0944 2.973075,-0.13378 5.07272,-0.30068 2.099645,-0.16689 3.357135,-1.97951 3.357135,-4.01998 l 2e-6,-21.13335 z"
           id="path1069"
           sodipodi:nodetypes="cszzczzscc" />
      </g>
      <path
         id="path1243"
         style="opacity:1;fill:#d3230e;fill-opacity:1;stroke:none;stroke-width:0.25;stroke-linejoin:round;stroke-miterlimit:4;stroke-dasharray:none"
         d="m 223.08008,358.25781 a 3.0019017,3.1251632 0 0 0 -2.90235,3.125 3.0019017,3.1251632 0 0 0 3.00196,3.125 3.0019017,3.1251632 0 0 0 3.00195,-3.125 3.0019017,3.1251632 0 0 0 -3.00195,-3.125 3.0019017,3.1251632 0 0 0 -0.0996,0 z m -0.87305,2.27149 a 1.3919711,1.4494286 0 0 1 0.0273,0 1.3919711,1.4494286 0 0 1 1.39062,1.44922 1.3919711,1.4494286 0 0 1 -1.39062,1.44921 1.3919711,1.4494286 0 0 1 -1.39258,-1.44921 1.3919711,1.4494286 0 0 1 1.36523,-1.44922 z"
         transform="scale(0.26458333)" />
      <path
         style="font-variation-settings:normal;opacity:1;vector-effect:none;fill:#ffffff;fill-opacity:1;stroke:none;stroke-width:0.0661458;stroke-linecap:butt;stroke-linejoin:miter;stroke-miterlimit:4;stroke-dasharray:none;stroke-dashoffset:0;stroke-opacity:1;stop-color:#000000;stop-opacity:1"
         d="m 58.298164,94.688582 c 0,0 -0.991205,0.713914 -0.375846,1.703843 0.576299,0.927092 2.104747,0.476072 2.405425,-0.350793 l 1.077431,-0.02505 -0.701582,-0.225508 0.676526,-0.300679 L 60.327744,95.315 c 0,0 0.50113,-0.325735 0.451017,-0.325735 h -0.726639 c 0,0 -0.175395,-0.200452 -0.375847,-0.225509 0,0 0.626412,0.776748 0.300678,1.353048 -0.325735,0.5763 -1.302939,0.676526 -1.678787,0.175396 -0.397192,-0.529588 -0.150339,-1.127543 -0.150339,-1.127543 l 0.100226,0.250565 0.526187,-0.02506 c 0,0 -0.175396,-0.150339 -0.350791,-0.225508 -0.175396,-0.07517 -0.225513,-0.150341 -0.125285,-0.476075 z"
         id="path1241"
         sodipodi:nodetypes="cscccccsccsscccssc" />
    </g>
  </g>
</svg>
