<?xml version="1.0" encoding="utf-8"?>
<!-- Generator: Adobe Illustrator 26.4.1, SVG Export Plug-In . SVG Version: 6.00 Build 0)  -->
<svg version="1.1" id="Layer_1" xmlns="http://www.w3.org/2000/svg" xmlns:xlink="http://www.w3.org/1999/xlink" x="0px" y="0px"
	 viewBox="0 0 595.3 841.9" style="enable-background:new 0 0 595.3 841.9;" xml:space="preserve">
<style type="text/css">
	.st0{fill-rule:evenodd;clip-rule:evenodd;fill:#2B2A29;}
	.st1{fill-rule:evenodd;clip-rule:evenodd;fill:#FECC00;}
	.st2{fill-rule:evenodd;clip-rule:evenodd;fill:#B0CB1F;}
	.st3{fill-rule:evenodd;clip-rule:evenodd;fill:#FEFEFE;}
	.st4{fill-rule:evenodd;clip-rule:evenodd;fill:#CC292C;}
	.st5{fill-rule:evenodd;clip-rule:evenodd;fill:#FFED00;}
	.st6{fill-rule:evenodd;clip-rule:evenodd;fill:#D32C2E;}
	.st7{fill-rule:evenodd;clip-rule:evenodd;fill:#FFF383;}
	.st8{fill-rule:evenodd;clip-rule:evenodd;fill:#E31E24;}
	.st9{fill-rule:evenodd;clip-rule:evenodd;fill:#009846;}
	.st10{fill-rule:evenodd;clip-rule:evenodd;fill:#C5C6C6;}
	.st11{fill-rule:evenodd;clip-rule:evenodd;fill:#DBE285;}
	.st12{fill-rule:evenodd;clip-rule:evenodd;fill:#8A4137;}
	.st13{fill-rule:evenodd;clip-rule:evenodd;fill:#FBD9CA;}
	.st14{fill-rule:evenodd;clip-rule:evenodd;fill:#E2E69A;}
	.st15{fill-rule:evenodd;clip-rule:evenodd;fill:#FFF7B2;}
</style>
<g id="Layer_x0020_1">
	<g id="_666825264">
		<path class="st0" d="M298.7,61.3c1.3,4,3.2,9.1,7.9,10.5c5.4,0.7,11.2,4.3,13,9.8c0.5,1.2,0.8,2.4,1.2,3.6c3.3-0.3,6.7,0,9.3,1.8
			c1.5,1.3,0.7,3.8,0.1,5.3c-0.4,0.8-1.1,1.6-1.9,2.1c-3.1,0.7-7.4-2.2-9.2,1.8c-1.6,3.7-0.1,7.9,2,10.9c2.2,2.7,5.1,4.8,8.6,4.4
			c1.1-0.2,2.4-0.8,2.9-2c1-1.6,0.6-4,2.5-5.1c2.4-0.5,5.1-0.2,6.7,1.8c0.9,4-1.1,7.5-3.6,10.4c4,3.6,6.6,8,8.2,12.8
			c-1.2,6-5.1,12.6-11.4,14.8c-0.1,2,0.3,4.4-1.9,5.5c-2,0.7-4.4,0.5-6.3-0.5c-1.9-1.5,0.2-4.8-2.1-6c-2.8-1.2-6.7-1.1-9.2,0.7
			c-2.7,2.5-4.4,6-2.9,9.6c2.7,5.3,8.5,7.3,13.4,9.3c8.5,2.4,18.3,1.1,24.5-5.3c3.5-3.5,6.3-7.7,4.9-12.8c-0.5-2.8-4.5-4.7-2.7-7.9
			c1.1-1.4,2.6-2.1,4.1-2.7c-4.1-5.7-5.5-14.2-2.8-21c3.3-7.9,11.4-13.9,20.1-13.7l1.5,0.1c1.1-3.3,2.2-6.7,3-10.2
			c-4-1.6-8.6-2.3-12.7-3.7l2.9-11l12.6,3.5l0.3-0.3c1.1-4.1,2.3-8.3,3.5-12.4c3.7,0.8,7.2,2.1,10.9,2.9c-0.9,4.3-2.4,8.7-3.3,13
			l12.6,3.5c-0.6,3.8-2,7.3-2.9,11l-12.8-3.3l-3.1,10.7c3.6,2.8,6.7,6.6,8.1,10.7c2.9,8.5,0.6,18.2-6.6,24c-2.7,2.2-5.6,3.8-9,4.6
			c2,0.4,4.7,0,5.5,2.2c0.3,2.4,0.4,5.1-1.8,6.5c-3.4,0.7-8.2-0.8-9.6,3.3c-1.5,2.6-2.2,6.3-1.1,9.3c4.5,8.3,13.5,11,22.5,11
			c6-0.1,12-2.2,15-7.8c1-3.3-0.9-6-3.5-8c-1.5-1.5-4.4-0.5-5.5-2.6c-0.7-2-0.3-4.4,0.7-6.1c0.6-0.7,1.3-1.1,2.1-1.1
			c-3.8-3.8-6.1-8.5-6.6-13.9c4.8-4.4,11.2-6.9,17.9-5.2c-0.8-1.7-1.5-3.6-1.6-5.6c0.1-2-0.3-4.7,1.9-5.6c1.7-0.7,4-0.4,5.7,0.4
			c2.7,1.7-0.1,5.9,2.9,7.3c3.7,1.1,7-0.7,9.5-3.5c1.3-2,2.8-4.4,1.6-6.9c-1.6-3.1-6.3,0-7.5-3.5c-0.4-1.9-0.6-4.3,0.6-5.9
			c3.7-2.2,8.3-0.6,11.5,1.5c3.6-2.7,7.6-4.3,11.5-6.3c5.7-1.8,11.2,0.8,15.4,4.8c-4,1.3-8.5,4.1-10.2,8.4
			c-1.6,5.2-0.1,11.8-2.7,16.5l-2,4c4.7,1.3,9.6-0.3,13.2-2.7c1.5,2.4,2,5.5,1.1,8.4c-1.3,3.3-4,6.3-6.9,8.7
			c1.1,1.8,2.2,3.5,2.8,5.5h0.4c13.1-7.1,27.7-14.3,43.8-10c0.7,0.3,1.7,0.9,1.9,1.8c0.4,1.2,0,2.6-0.3,3.7l22.4,16
			c3.5,0.5,7.1,3.3,8.2,6.9c5,18.7-9.8,27.6-22.6,34.5c-3.6,2.2-7.9,6-9.8,10c-1.3,2.4-2.1,4.9-2.5,7.6l0.3,0.3
			c6.1,0.4,13.3,1.2,18.3-2.1c7.9-4.7,14.3-13,24.3-12.7c16.1,0.4,33,4.3,40.5,19.9c7.1,17.1,0,35.9-6.7,51.1l-5.6,11.2L564.1,312
			c-4.5,8.9-8.3,19.4-5.5,30.1c3.6,0.3,7.4,0.1,11.1,0.1c1.4-1.2,2.8-2.6,4.8-2.2c2.1,0.7,3,2.9,4.4,4.5
			c13.2,17.5,16.7,40.4,13.6,63.4c-2.6,17.7-8.5,34-10.9,51.8c-6.4,38-4.7,81.3,1.1,119c4.5,25.7,7.7,57.6-2.9,81.5
			c-0.6,0.8-1.4,1.5-2.3,1.4c-2.1-0.1-3.9-0.9-5.3-2.4l-13.5,1.6c-6.4,22.4-19.9,42.2-38.8,59c0.6,0.8,0.7,1.9,0.4,2.9
			c-1.5,2.5-4,4.1-6.2,6.1c-19.8,15.5-42.5,23.9-65.8,30.7l-19.5,5c-11.8,2.7-23.8,4.8-35.7,6.9l-25,3.6l-25.7,2.9l-26.2,2.4
			l-19.4,1.2l-27.3-2l-27.5-2.7l-22.9-2.8l-24.2-3.8l-21.8-4.2c-31.3-7.2-62.1-15.5-88.6-34.5c-3.2-2.4-6.3-5-9.2-8
			c-0.5-0.8-0.8-2.1-0.4-3.1l0.4-0.7c-19-16.7-32.3-36.6-38.7-58.9L23,659c-1.5,1.6-3.3,2.6-5.5,2.3c-1,0-1.9-0.9-2.3-1.8
			c-8.5-19.1-7.7-43.8-5.1-65.4l4.2-28.6c5.6-42,4.5-89.3-5.2-129l-4.7-19c-1.8-9.4-2.9-19.1-2.8-29.4c0.9-17.8,6.2-33.8,17.6-47.3
			c0.7-0.9,1.9-1.1,2.9-0.9c1.4,0.3,2.5,1.5,3.7,2.2h10.7c3.1-11.2-1.1-22.1-5.9-31.4l-11.8-21.1c-7.2-14.9-14.4-30.1-13.1-48.2
			c0.8-10.4,7.7-20.7,17.6-25c8.2-3.9,17.6-5.3,27.4-5.2c11.2,0.5,17.8,12.4,28.3,14.7c4.1,0.6,8.9,0.5,13-0.3
			c-1.1-5.5-3.2-11.1-8.7-14.4l-6.5-4.1c-2.2-1.3-4.4-2.6-6.5-4c-1.2-0.8-2-1.6-3-2.5c-7.5-6.6-12.3-15.1-10.5-25.5
			c0.6-2.9,2.5-5.9,5.3-7.3l3.4-1.2L87.6,151l0.1-0.1c-0.3-1.3-0.7-3.1,0-4.3c1.1-1.5,2.9-1.5,4.4-2c15.5-2.7,28.8,4,41.2,10.8
			c0.7-1.9,1.7-3.7,2.9-5.3c-3.9-3.9-8-7.7-7.3-13.4c0.5-1.4,0.9-2.7,1.7-4c3.7,2.6,8.6,4.1,13.2,2.7c-3.7-5.5-4.2-12.3-4.3-19.2
			c-1.2-4.7-6.1-8.3-10.6-9.6c4-4.3,9.9-6.6,15.8-4.7c3.7,2,7.6,3.5,11,6.2c2.9-2,6.5-2.9,10.3-2.3c0.8,0.2,1.6,1.1,2,1.8
			c0.4,1.9,0.6,4.4-0.7,5.9c-2.4,1.7-8.1,0-7.2,4.9c0.4,3.7,3.9,6.9,7.2,8c1.8,0.4,4,0.5,5.3-1c1.5-2-0.7-5.5,2.1-6.6
			c1.8-0.5,4.1-1,5.9,0c2.5,2.9,1.3,7.7-0.3,10.7c0,0-0.1,0.1-0.1,0.3c6.6-1.8,13.1,0.7,18,5.1c-0.3,5.5-2.5,10-6.6,14
			c1,0.2,2.1,0.7,2.6,1.6c0.6,1.7,1.2,4,0.3,5.7c-2.1,2.4-6.1,1.2-7.6,4.7c-1.1,1.7-2.4,4.1-1.1,6.2c4.8,7.7,14.3,8.4,22.7,6.7
			c5.9-1.5,12.5-4.7,14.9-11c0.8-4.1-0.4-8.1-3.3-11c-2.7-1.9-7.4,0.9-9.2-2.5c-0.5-1.8-1.1-4.5,0.4-6c1.2-1.1,2.8-1.1,4.4-1.2
			c-1.1-0.6-2.8-1-4.1-1.7c-7.9-3.7-12.8-11.8-12.3-20.6c0.2-6.8,3.8-12.6,9.4-16.8c-1.1-3.6-2.1-7.2-3-10.8
			c-4.2,0.9-8.5,2.3-12.8,3.4c-1.2-3.4-2.1-7.1-3.1-10.7l0.2-0.4l12.5-3.5c-0.9-4.4-2.5-8.6-3.4-13l10.9-2.9
			c1.2,4.3,2.4,8.5,3.6,12.8c4.3-0.8,8.5-2.3,12.7-3.4l0.3,0.3l2.9,10.7l-12.7,3.6c0.8,3.3,1.6,6.9,2.7,10.2c8.7-0.5,16.9,4,20.9,12
			c3.5,6.7,2.8,16.7-2,22.6c1.8,0.7,4,1.9,4.8,4c-0.3,2.9-3.3,4.8-3.5,7.8c-1.1,6.4,4.6,11.3,9.4,14.4c8,4.9,19.6,3.3,27.2-1.1
			c3.3-2.2,7.8-5.5,6.7-10c-0.5-2.4-2.2-4.8-4.5-6.2c-2.5-0.8-6-1.1-8.3,0.3c-1.9,1.6,0.2,5.1-2.5,6.1c-1.9,0.5-4.6,0.9-6.3-0.3
			c-1.2-1.2-1.1-2.9-1.1-4.6c-6.2-2.2-10-8.8-11.4-14.7c1.5-4.8,3.8-9.4,8.1-13c-2.1-2.8-4-5.7-3.9-9.4c0-0.8,0.5-1.6,1.1-2.1
			c1.8-0.9,4.3-1.8,6.3-0.7c2.1,2.2,1.7,7.8,6.5,6.8c3.6-0.2,6.8-3.3,8.5-6.5c1.3-2.4,2-5.7,0.9-8.5c-0.8-1.6-2.4-2.7-4.2-2.6
			c-1.9,0-3.6,1.5-5.5,0.4c-1.9-1.6-2.7-4.1-1.9-6.6c2.5-2.7,6.1-2.6,9.8-2.4c1.1-4.5,3.5-9.2,8.1-11.6c3.8-1.9,9.1-1.5,11.3-6
			c1.2-2.2,2.3-4.5,2.9-7.1c0.5,0.5,1.7-0.4,1.7,0.7L298.7,61.3z"/>
		<path class="st1" d="M306.5,73.3c4.4,0.4,8.7,2.7,11,6.9l1.9,5.1c-2.2,1.1-4.8,2.4-6.5,4.7c-2.7,3.1-3.4,6.9-3.3,11.2
			c-2.5-3.7-6.3-7.2-11-7.3l-0.1-13.4c-0.4,0-0.7-0.3-1.1-0.1c-0.4,4.4-0.1,9.2-0.3,13.6c-5.2,0.7-9.6,5.6-11.5,10.3
			c1.3-5.7,0.3-12.4-4.7-16.3c-1.1-2.1-6.2-1.1-4.1-4.4c1.2-4,4.4-8.3,8.6-9.5c4.7-0.5,9.9-3.4,11.4-8.3l1.2-2.9
			C299.1,67,301.9,72,306.5,73.3L306.5,73.3z"/>
		<path class="st1" d="M212.9,79.9c4.2-1.3,8.6-2.3,12.8-3.5c0.7,2.8,1.5,5.5,2.3,8.4l-12.7,3.6c0.7,3.7,2,7.5,2.9,11.2
			c-2.9,0.4-5.6,1.5-8.1,2.8c-1.2-3.7-2.2-7.7-3.4-11.5c-4.3,0.8-8.6,2.4-12.9,3.3l-2.3-8.2l0.2-0.2c4.2-1.2,8.4-2.2,12.5-3.6
			c-0.9-4.4-2.3-8.6-3.3-12.9l8.2-2.2c1.4,4.2,2.3,8.6,3.7,12.8L212.9,79.9z"/>
		<path class="st1" d="M391.1,82.1l12.7,3.7l-2.2,8.3l-12.7-3.4c-1.3,3.9-2.3,7.8-3.5,11.7c-2.5-1.4-5.2-2.5-8.1-2.8l3-11
			c-4.2-1.5-8.6-2.5-12.8-3.7l2.2-8.3c4.2,1,8.5,2.3,12.8,3.4l3.7-12.8l8.3,2.2L391.1,82.1L391.1,82.1z"/>
		<path class="st1" d="M282.2,91.5c3.6,5.3,2.5,13.5-0.8,18.6c-4,6-10.2,10-17.5,8.9c-3.6-0.8-7.4-3.7-8.5-7.5
			c-0.4-1.5-1.1-3.1-0.5-4.7c1.1-1.2,3-1.3,4.7-1.1c1.8,1.7,1.2,4.8,3.6,6.3c1.8,1.2,4.8,1.3,6.7,0.3c4.9-2.3,8.5-7.5,8.4-13.1
			c-0.1-2.5-1.2-4.9-3.5-6.1c-2.2-0.8-4.7-0.2-6.8,0.3c-1.8-0.8-1.9-2.7-2.1-4.4c0.5-2.3,3.3-1.9,5.1-2.5
			C275.6,86.2,279.7,87.7,282.2,91.5L282.2,91.5z"/>
		<path class="st1" d="M328.6,87.6c0.9,0.4,1,1.4,0.9,2.3c-0.4,1.1-0.5,2.5-1.6,3.3c-2.2,0.4-4.3-1.2-6.5-0.4
			c-2.2,0.7-4,2.9-4.1,5.3c-0.4,5.2,1.7,9.8,6.1,13c2.1,1.5,4.6,2.4,7.3,1.7c2.9-0.8,4-4,4.7-6.6c0.6-1,1.8-0.7,2.8-0.6
			c1.1,0.1,2.2,0.6,2.8,1.6c0,4-1.9,7.5-5.1,9.9c-3.3,2.5-8.5,2.4-12.2,1c-7.5-3.3-13-11-12.5-19.5c0-4.7,2.7-9,6.9-11.2
			C320.9,85.9,325.5,86.2,328.6,87.6L328.6,87.6z"/>
		<path class="st1" d="M307.9,101.2c6.7,10.1,6.4,26.1,0.8,36.5c-2.1,3.5-5.7,6.9-9.9,7.1c-4.5,0.4-8.2-2.9-10.6-6.5
			c-6.6-11-6.4-28.3,1.6-38.6c2.7-3,6-4.9,10.2-4.3C303.2,96.2,305.9,98.4,307.9,101.2z"/>
		<path class="st0" d="M304.6,103.1c6.3,9.6,6.3,25.3-0.5,34.7c-1.6,1.9-3.5,3.5-6,3.3c-6.3-1.1-8.7-7.9-9.9-13.2
			c-1.5-9.6-1-20.2,5.9-27.1c1.6-1.3,3.7-2.1,5.9-1.6C301.8,99.7,303.4,101.4,304.6,103.1L304.6,103.1z"/>
		<path class="st2" d="M305.6,107.7c3.6,9.6,3.3,22.4-3.6,30.3c-1.4,1.3-3.5,2.3-5.4,1.5c-4.6-2.5-6.1-7.5-7.3-12
			c-1.5-8.6-0.7-17.9,4.5-24.6c1.4-1.8,3.5-2.9,5.7-2.3C302.7,101.7,304.3,105,305.6,107.7L305.6,107.7z"/>
		<path class="st3" d="M239.7,112.8c3,7,2,16.2-3.5,21.9c-5.5,6-14,8.4-21.9,5.6c-6.1-2.1-11.9-8.3-13.1-14.7
			c-1.7-8.7,1.5-17.1,9.2-21.8c5.9-3.9,15.4-4.1,21.3,0C235.2,105.8,238.2,109.3,239.7,112.8z"/>
		<path class="st3" d="M392.9,112.7c3.3,7,1.8,16.3-3.3,21.9c-5.5,6.2-13.9,8.3-21.7,5.9c-6.1-2.1-12-8.2-13.2-14.5
			c-1.9-8.6,1.3-16.9,8.6-21.8c6-4.1,15.9-4.6,21.9-0.3C388.4,106,391.5,109.2,392.9,112.7L392.9,112.7z"/>
		<path class="st1" d="M154.3,108.6c0.2,0.3,0.5,0.4,0.7,0.7c-3.2,2.9-3.9,7.1-3.5,11.3c0.8,4.3,3.2,8.2,6.8,11.1
			c-3.4-1.4-7.7-0.6-10.3,2c-0.8,0.7-1.2,1.6-1.9,2.4c-4.2-5.1-4.7-12.3-4.8-19.3c-0.9-4.6-5.2-8.7-9.5-10.3
			c3.2-2.6,6.9-4.1,11.2-3.4C147,104,150.6,106.5,154.3,108.6L154.3,108.6z"/>
		<path class="st1" d="M463.7,106.2c-4.6,1.9-9.4,6.6-9.5,11.8c0,6.7-1.1,12.9-4.7,18.1c-2-3.3-5.3-5.6-9.4-5.2l-3,0.7
			c5.1-4.3,7.8-9.9,6.7-16.4c-0.7-2.2-1.5-4.3-3.3-5.9c3.3-2.6,7.3-4.2,11-6C455.9,102.1,460.3,103.5,463.7,106.2L463.7,106.2z"/>
		<path class="st1" d="M166.7,107.8c0.4,1.5,0.9,3.6-0.1,4.9c-1.8,1-4.4,0.1-6,1.6c-1.5,1.4-1.8,3.5-1.4,5.5
			c1.1,3.7,4.8,7.3,8.6,8.2c2,0.2,4.5,0.4,5.9-1.4c2.5-1.5-0.3-5.5,2.3-6.6c1.3-0.2,2.9-0.7,4.1,0.1c1.8,2.6,0.8,6.5-0.4,9.1
			c-2.3,3.5-5.9,5.5-10.2,5.2c-6.5,0-12.6-4.7-15.4-10.6c-1.7-3.6-1.7-8.7,0.4-12c2.7-3.7,7.1-5.5,11.6-4.6L166.7,107.8L166.7,107.8
			z"/>
		<path class="st1" d="M441,111.8c2,3.3,2.3,8.2,0.6,11.7c-2.4,5.9-8.4,10.4-14.6,10.9c-4.3,0.4-8.1-1.1-10.7-4.6
			c-1.5-2.7-2.5-6.2-1.3-9.3c1.3-1,3.6-0.9,4.9-0.1c1.7,2.2-0.4,6.3,3.2,7.4c3.7,1.2,7.2-0.3,9.9-2.7c2.7-2.4,4-5.7,3.1-9.1
			c-0.9-2.9-4-2.6-6.5-2.8c-0.7-0.1-1.1-0.8-1.3-1.5c0-1.5-0.7-3.7,1.1-4.5C434.1,106.7,438.3,108,441,111.8L441,111.8z"/>
		<path class="st1" d="M282.4,124.6c-5.7,1.1-11.4,2.1-17.1,3.2c-0.4,0.3,0,0.7,0,1.1l0.3,0.3l16.9-3.1c0.7,4.3,1.9,8.4,4,12
			c-5-4.3-13.1-5.4-19.3-2.9c-3,1.3-6.2,4.4-6.7,7.7c-5.6-2-8.9-7.9-10.2-13.2c1.4-4.4,4-8.6,7.8-12c4.2,3.5,11.4,3.7,16.1,1
			c3.9-2,7.7-6,9.5-9.9C282.5,113.7,281.9,119.1,282.4,124.6L282.4,124.6z"/>
		<path class="st1" d="M333.8,119.7c1.2-0.4,2.3-1.1,3.3-2c4,3.3,6.6,7.6,7.9,12.2c-1.3,5.2-4.7,10.9-10,13
			c-0.8-3.6-4.4-6.9-7.8-8.1c-5.2-1.9-11.5-0.8-16.2,1.6c1.2-3,2.5-6.7,2.9-10.3c5.3,0.9,10.7,2,16,2.9c0.2-0.4,0.3-0.9,0.3-1.2
			c-5.3-1.3-10.7-2-16.1-3.2c0.4-4.2,0.4-8.7-0.5-12.7C318.5,118.3,325.8,122.5,333.8,119.7L333.8,119.7z"/>
		<path class="st1" d="M197,135.8c-0.4,5.5-3.2,10.3-7.8,13.6c-5.5,1.2-10.5,6.5-12.1,11.8c-0.4,1.7-0.8,3.6-0.5,5.5
			c-2.9-2.3-6.4-3.9-10.4-3.9c4-4.1,4.8-10.2,3.6-15.8l16.8-6c-0.2-0.4-0.1-1.8-1.1-1.1l-16,5.6c-1.1-4.1-3.3-7.9-6.6-11.1
			c4.6,2.2,11.5,2.2,15.4-1.7c2.5-1.9,5.9-1.9,9.2-1.7C191,131.6,194.2,133.4,197,135.8z"/>
		<path class="st1" d="M416.3,132c3.7,4.1,9.9,4.5,15,2.9l1.2-0.5c-3.2,3.3-5.5,6.9-6.6,11.1c-5.5-1.7-11-3.8-16.4-5.7
			c-0.4,0.2-0.4,0.7-0.6,1.1l16.6,6c-1.1,5.6-0.2,11.9,3.7,15.9c-4,0.1-7.4,1.5-10.3,4c0.7-6.5-3.2-12.5-8.8-16
			c-1.3-0.7-2.7-1.2-4.1-1.5c-4.4-3.5-7.2-8.1-7.4-13.6C403.2,131.6,410.2,129.5,416.3,132L416.3,132z"/>
		<path class="st1" d="M167.4,143.4c2.1,5.5,2.6,13.2-1.6,17.9c-1.8,1.9-4,2.8-6.5,2.7c-6-0.6-10.7-6.5-12.5-11.8
			c-2-5.5-2.2-13.2,2.2-17.6c2-2,5.1-2.6,7.8-2C161.7,133.8,165.6,138.9,167.4,143.4L167.4,143.4z"/>
		<path class="st1" d="M447.8,136.2c3.6,5.7,2.4,14.3-1,19.8c-2.4,4-6.4,7.8-11.2,7.9c-2.6,0.1-4.8-1.1-6.4-3
			c-4-4.8-2.9-12.7-1-18.1c2-4.5,6.4-9.8,11.7-10.4C443.2,131.9,445.9,133.6,447.8,136.2L447.8,136.2z"/>
		<path class="st1" d="M145.6,136.7c-3.6,7.8-1.1,17.6,4.7,23.8c2.3,2.4,4.9,4,7.9,4.6c-5.2,2.5-7,8-7.3,13.3
			c-2.8-0.4-5.9-0.9-7.4-3.6c-1-2.5,0.1-5,0.8-7.2c-3.8-1.4-9.1-2.8-9.9-7.6c-0.5-4,2-7.1,3.9-10.3c-4.3-3.8-9.5-8.3-7.3-14.3
			l0.3-0.6C135.4,137.2,140.9,138.5,145.6,136.7L145.6,136.7z"/>
		<path class="st1" d="M464.2,141.9c-1.6,2.9-4.3,5.6-7,7.8c2.3,3.7,5.3,7.9,3.2,12.5c-2.2,3.3-5.9,4.2-9.2,5.3
			c0.7,2.3,2.1,5.5,0.5,7.9c-1.8,2.1-4.4,2.7-7,3c-0.4-5.2-2.4-10.7-7.5-13.3c7.8-1.7,13-9.9,14-17.3c0.5-3.9,0.2-7.9-1.5-11.1
			c4.7,1.5,10.3,0.7,14.2-1.9C465.3,136.5,465.1,139.8,464.2,141.9L464.2,141.9z"/>
		<path class="st1" d="M332.3,140.3c1.2,2.1,1.7,5,1.1,7.6c-1.1,1.4-3.7,0.9-5.1,0.4c-1.8-1.1-0.3-3.9-1.6-5.3
			c-2.7-2.7-7.5-2.2-10.7-1c-3.2,2.3-5.3,5.5-5.1,9.5c1.1,7.3,9.2,10.4,15.1,12.6c8.9,2.6,19,0.9,25.6-5.8c3.6-3.7,6.5-8.3,5.1-13.6
			c-0.7-2.1-1.9-4-3.2-5.8c-0.1-2.1,2.3-2.7,3.7-3.5c1.6,0.2,2.5,2.2,3.7,3.3c2.9,4.6,3.5,11.8,0.7,16.7
			c-3.6,6.6-10.6,12.5-17.7,14.2c-9.4-1.8-19.2-2.9-29-3.7c-4.8-2.5-9.6-7.5-10.3-12.8c-0.7-6.6,2.6-12.8,8.4-15.8
			C319,134.4,328,134.3,332.3,140.3L332.3,140.3z"/>
		<path class="st1" d="M287.2,140.9c3.7,3.9,4.8,10.4,2.5,15.3c-2.1,4-6.3,7.4-10.2,9.5c-9.5,0.8-19.1,1.6-28.3,3.2
			c-8.3-2.4-17.2-10.2-19.1-18.9c-0.8-5.7,1-10.9,5.3-14.5c1.8,0,3.2,1.1,4.3,2.5c-0.4,2.8-3.2,4.7-3.3,7.6
			c-1.3,6.4,3.7,11,8.3,14.7c7.5,5.9,19.7,5.3,27.9,1.4c3.8-1.9,9-5.1,9.9-9.8c0.7-4-1.5-7.2-4.5-9.6c-2.8-1.6-7.2-1.7-10-0.2
			c-3.5,0.9-0.1,5.8-3.5,6.4c-1.6,0.3-3.5,0.4-4.4-1c-0.9-3.8,0.5-7.5,3.7-9.7C272.1,133.8,282.2,134.5,287.2,140.9L287.2,140.9z"/>
		<path class="st0" d="M163.2,142.5c2.5,4.6,3.9,11.9,0.1,16.4c-1.2,1.3-3.1,1.8-4.9,1.3c-6.3-2.3-9.4-8.8-9.8-15.1
			c-0.1-3.7,0.7-7.4,4.3-9.1C157.5,134.8,161.2,138.9,163.2,142.5L163.2,142.5z"/>
		<path class="st0" d="M444.1,136.9c3.9,4.1,2.9,11,0.8,15.6c-1.6,3.3-4.6,7-8.4,7.8c-1.3,0.3-2.6-0.1-3.7-0.8
			c-3.5-2.6-3.1-7.3-2.7-11.3c0.9-5.1,4.5-11,10-12.3C441.7,135.7,443,136.1,444.1,136.9L444.1,136.9z"/>
		<path class="st4" d="M162.6,144.1c1.6,3.9,2.8,9.2,0.4,13.1c-0.6,0.9-1.5,1.6-2.6,1.9c-4,0.1-7.1-3.6-8.6-6.8
			c-1.8-3.7-2.8-9.2-0.6-13.1c0.5-1,1.6-1.9,2.7-2C157.9,136.9,161.1,140.9,162.6,144.1z"/>
		<path class="st4" d="M443.2,138c3,3.3,2.4,8.9,1,12.8c-1.5,3.3-4,7.5-7.9,8.2c-1.1,0.1-2-0.1-2.8-0.7c-3.3-3.2-2.7-8.8-1.3-12.7
			c1.3-3.5,4-7.6,8-8.5C441.4,136.9,442.3,137.4,443.2,138z"/>
		<path class="st5" d="M374.1,142.8c-4.4,1-8.2,5.2-9.9,9.3c1.1-3.6,0.6-8.9-1.3-12.5C366.4,141.7,370.1,142.7,374.1,142.8z"/>
		<path class="st5" d="M234,157.8c3.7,5.1,8.8,9.5,14.3,11.5c-7,1.4-14.3,2.7-21.2,4.4c4.7-4.7,6.7-11,5.3-17.6
			c-1.1-5.5-5.2-11.7-11-13.2c4-0.1,7.5-1.2,10.7-3.2C229.7,145,230,153.1,234,157.8z"/>
		<path class="st3" d="M301.1,145.9c1.1-0.4,2.3-0.8,3.3-1.6c-2.3,4.8-1.6,11.7,1.9,15.9c1.6,2.1,3.7,3.8,5.8,5.4
			c-9.9-0.4-19.9-0.7-29.7,0c5.9-3.6,10.7-9.6,9.8-16.8c-0.2-2.1-0.9-4-1.8-5.9C293.2,145.8,297.2,146.8,301.1,145.9L301.1,145.9z"
			/>
		<path class="st1" d="M229.3,151.6c2.9,5.5,3.2,14-1.1,19c-1.1,1.5-2.6,3.1-4.1,4.1c-8.8,2.1-17.3,5.1-25.9,7.5
			c-8.1-0.8-17.5-5.4-19.6-14.1c-1.4-6,1.6-11.4,6.3-15c2.1-1.6,4.6-2.4,7.4-2.5c1.7,0.5,1.6,2.4,1.7,3.9c0,0.8-0.3,1.8-1.2,2
			c-2.9,0-5.2,2-7,4.3c-1,2-2.2,4.4-1.1,6.7c4,7.6,12.6,8.9,20.6,8.4c7.9-1.1,16.6-4.6,19.7-12.8c0.7-4.8-0.5-10.3-5.1-12.7
			c-2.2-0.9-4.8,0-7.1-0.7c-0.8-1.4-1.2-3.3-0.6-4.9c0.7-1,2.1-0.8,3.2-1.1C221.3,143.3,227,146.1,229.3,151.6L229.3,151.6z"/>
		<path class="st1" d="M383.5,145.5c0,1.3,0,2.7-0.6,3.8c-2.3,1.3-5.5-0.1-7.8,1.3c-3.8,2.4-4.9,6.5-4.8,10.7
			c0.1,6.4,7.2,10.7,12.2,12.9c7.5,2.9,18,2.6,24.6-2c2.7-2.3,4.9-5.3,3.7-8.9c-1.1-3.4-4.6-6.8-8.4-6.9c-1.3-0.7-0.9-2.5-0.7-3.7
			c0.1-0.7,0.6-1.4,1.2-1.9c4.7-0.4,8.5,2.1,11.4,5.9c3.3,3.5,3.7,9.5,1.9,13.8c-4,8.2-12.7,11.6-21.3,11.8l-4-0.1
			c-5.8-2-11.6-4.1-17.5-5.8c-5.7-4-9.7-9.8-9.2-16.8c0.7-5.9,3-12.4,9.2-14.8c2.8-0.9,6.6-1.5,9.6-0.4c0.4,0.3,0.5,0.8,0.7,1.2
			L383.5,145.5z"/>
		<path class="st5" d="M133.1,156.7c-0.7,2.6-0.3,5.6,1.7,7.5c2.2,2.2,4.9,3.5,7.7,4.3l-0.2,0.7c-15.8-8.7-31.4-21-51.4-16.7
			c-1.8-0.5-1.8-2.6-2.1-4.1c0.4-2.8,3.9-2,5.9-2.8C109.3,144.1,121.4,150.5,133.1,156.7L133.1,156.7z"/>
		<path class="st5" d="M506.1,146.9c1.3,1.1,0.5,3.1,0.1,4.4c-1.7,2.8-4.8,0-7.3,0.4c-14-0.8-25.1,5.9-36.3,12.1l-9.4,5.6l-0.3-0.8
			c3.7-1.3,8.6-3.3,9.5-7.8c0.3-1.3,0.1-2.8-0.1-4c12.7-6.9,26.5-14,42.3-10.5L506.1,146.9L506.1,146.9z"/>
		<path class="st6" d="M90.5,153.8c3.5-0.3,6.8-1.3,10.4-0.9c15.1,1.3,27.3,9.8,40,17.1c1.9,0.4,0.1,2.1,0.7,3.3
			c0.1,2.2,2.1,4.2,4,5.1c1.9,1,4.2,1.1,6.4,1.6c0.4-1,0-2.4,0.4-3.4c10,4.8,20.7,8.2,31.7,10.8c-1.2,0.8-1.9,2.4-1.7,4
			c0.3,2.4,1.3,4.6,3.3,6.2c-1.4,0.9-2.9,2.2-3.3,4c-3.1,2.4-3.3,6.3-3.1,9.9c0.7,4,3.1,8.6,7.3,10.1c1.1,0.3,2.2,0.4,3.3,0.4l0,0.4
			c-17.6-3.7-34.5-10-49.3-20.7l-20.3-14.2l-16.8-10.4c-10.8-5.6-22.1-10.8-35-11l19.8-14.1C88.9,152.9,89.7,153.6,90.5,153.8
			L90.5,153.8z M526.9,166.4c-10.6,0-19.9,3.7-29,7.9l-9,4.8l-17,10.8l-21.5,15.1c-13.6,9-28.8,14.3-44.8,17.8v-0.3
			c4.8-2.9,6.9-8.3,6.1-14c-0.3-3.2-3-5.5-4.6-8.1c-1.1-1.5-2.8-1.9-4.4-2.3c2.6-1.6,3.7-4.5,3.9-7.5c-0.1-0.5-0.2-1.1-0.5-1.6
			l0.3-0.3c12.7-2.8,25.1-6.3,36.6-11.9c0.3,0.9,0.2,2.1,0.3,3.2c3.8-0.4,8-1.1,10.2-4.9c0.5-1.3,0.5-3.2,0.3-4.5
			c13.2-7.7,25.9-16.7,41.9-17.8c3.1,0,5.9,0.5,8.8,1c1.2,0.1,2.1-0.7,2.7-1.6L526.9,166.4L526.9,166.4z"/>
		<path class="st5" d="M369.7,175.2l-19.3-4.6l-3.2-0.6c6.6-2.6,13.6-9.1,16.4-15.9C360.7,161.7,363.7,170,369.7,175.2L369.7,175.2z
			"/>
		<path class="st1" d="M177.4,169.6c1,3.9,4.1,7,7.4,9.7c1.5,0.3,2.5,1.3,3.9,1.8c0.4,1.1,0.4,2.9-0.3,3.9c-1.3,1.3-3.5,0.4-5.1,0.4
			c-6.5-2.8-7.7-10.2-13.2-14.1c-2.6-1.7-6.3-0.8-8.7,0.7c-1.2,1.1-2.5,2.5-4.1,2.2c-1.4-1-3-2.5-2.6-4.3c3.7-4.4,9.2-6.4,14.8-5.3
			C172.6,165.3,175.2,167,177.4,169.6L177.4,169.6z"/>
		<path class="st1" d="M440.5,169.5c0.5,0.7,0.4,1.5,0.1,2.1c-0.7,1-1.5,2.2-2.6,2.7c-3.1-0.4-4.9-3.9-8.2-3.9
			c-7-0.4-9.3,7.5-13.2,11.7c-1.8,2.2-4,3.7-6.9,3.6c-1.1-0.3-2.8,0.1-3-1.5c-0.1-1.1-0.5-2.5,0.3-3.3c1.3-0.5,2.4-1.5,3.9-1.7
			c3.3-2.9,6-6,7.2-9.8c3.4-3.9,8.1-5.6,13.2-5C434.8,165.1,437.7,166.9,440.5,169.5L440.5,169.5z"/>
		<path class="st1" d="M404.3,189c0.7,0.5,1.1,1.2,0.9,2.1c-0.3,2.1-1.1,4.2-2.9,5.5l-2,0c-45.6-19.8-102.5-27-154.7-16.4
			c-20.2,3.5-39.3,9.9-58.1,16.7c-2.3-0.1-2.8-2.6-3.6-4.3c-0.1-1-0.3-2.1,0.1-3.1l2.7-1.6c48.4-19.2,107.6-27.5,162.3-16.2
			C368.2,175.7,386.7,181.3,404.3,189z"/>
		<path class="st5" d="M94.1,174.1l9.5,4.7l17.4,11l23,16c14.1,9.6,30.1,14.8,46.5,18.7l0.7,0.7c-1.2,1.6-2.4,3.2-3.2,4.9
			c-17.1-3.7-33.4-9.6-48-19.5l-24.6-17.1c-12.2-8-24.6-15.5-38.8-18.8c-3.4-0.7-7.7-1.4-11,0.2c-2.5,1.5-1.2,5.1-1.5,7.6
			c2,11,13.9,17.1,22.5,22.3c8.1,5.4,13.8,13.6,12.8,23.5c-0.7,2.1-2.5,4.3-4.7,5c-6.6,1.4-14.5,1.3-20.9-0.5
			c-7.4-2.7-13-9.5-20.1-12.8c-2.7-1.2-6-0.8-9.1-0.7c-12,0.9-25.7,4.7-30.1,17.3c-3.3,9.9-0.7,21.1,2.4,30.2
			c2.4,7.3,5.9,14.1,9.3,21L38.1,309c5.1,9.9,9,21.3,6.3,33.3c-2,0.1-4.1,0-6.2,0.1c1.5-7.3,0.7-15.4-1.9-22.1
			C29.2,303,17.4,287.7,11.6,270c-5.1-13.5-8.4-33.8,3.2-45.3c9.9-9.9,23.2-11.9,37.1-11.7c11.8,1.8,18.5,15.8,31.4,15
			c3.2,0.1,6.4,0.1,9.4-0.5c0.8-0.3,0.7-1.2,0.7-1.9c-2.2-11.8-9.6-15.4-19.5-21.3c-8.5-5-16.2-13.6-16-23.9
			c-0.4-4.4,0.9-8.8,4.9-11c7.1-3.2,15.6-0.7,22.4,1.5l8.8,3.5L94.1,174.1z"/>
		<path class="st5" d="M536,172.3c2.6,4.1,1.9,10.4,0.5,14.9c-6.2,16.6-21.3,15.8-29.5,27c-2.5,3.3-4.3,7.3-4.8,11.5
			c-0.3,0.9,0.4,1.6,1.1,1.7c6.7,0.6,14.6,1.2,20-2.6c7.7-4.7,14-12.7,23.8-12.1c15.8,0.6,33.3,4.8,39.4,21.2
			c5.7,17.6-1.7,34.8-8.4,49.8l-5.5,10.6l-9.4,16.8c-4.8,9.2-8.7,19.9-5.9,31.1c-2,0.1-4.1,0-6.2,0.1c-3.1-14,2.4-26.7,8.7-38
			l10.4-18.6c6.6-13.9,13.6-28.2,11.7-45.2c-0.8-8.7-8.8-16.4-16.9-18.7c-6.7-2.2-14.3-3.3-21.7-2.5c-8.7,3-15,11.9-24.1,14
			c-5.9,1.1-13.1,1.2-18.9-0.3c-2.1-0.8-3.7-3.1-4.4-5.1c-0.8-10,5.2-18.4,13.5-23.7c8.4-5,19.9-11.1,21.8-21.8
			c-0.3-2.7,1.1-6.7-2-7.9c-6.1-1.6-12,0.6-17.5,2.2c-20.7,7.3-38.4,21.8-56.9,34.3c-14.7,9.8-31.1,15.6-48.5,19.1
			c-0.9,0.1-1.5-0.8-1.8-1.5c-0.4-1.1-0.7-2.4-0.4-3.6l0.8-0.7c18.8-4.3,36.5-10.9,52.3-22.5l19.3-13.5
			c14.6-9.7,29.4-18.5,47.1-20.7c4.8,0,9.5,0.4,12.2,4.5L536,172.3z"/>
		<path class="st3" d="M171.9,175l-7.8-2.8C167,171.2,170.1,172.3,171.9,175z"/>
		<path class="st3" d="M431.3,172.3l-8,2.9C425.1,172.6,428.2,171.2,431.3,172.3z"/>
		<path class="st5" d="M158.3,175.7c1.7-0.4,2.9-1.7,4.3-2.7c3.6,1.3,7.1,2.8,10.8,3.9c1.9,2.8,3.5,5.8,6.3,8.2
			c-9.4-2.3-18.4-5.6-27-9.6c0-1.1,0.4-2.2,0.9-3.2C154.6,173.9,156.2,175.9,158.3,175.7L158.3,175.7z"/>
		<path class="st5" d="M442.8,175.5c-8.7,4.1-17.8,7.3-27.1,9.7c2.6-2.3,4.4-5.2,6.2-8.1c3.6-1.2,7.3-2.4,10.8-4
			c1.9,1.1,3.7,3.4,6.1,2.3c1.2-0.7,2.3-1.9,3-3.1L442.8,175.5L442.8,175.5z"/>
		<path class="st5" d="M293,176.8c-4.2,1.5-8.3,5.5-9.3,9.8c-1.2,5.7,0.8,11.1,5.5,14.6l2.1,1.3c-15.8,0.3-31.8,1.3-47,3.5
			c4.8-2.4,9.5-7.3,9.2-13c-0.3-3.1-2-5.7-4.6-7.6c-2.6-1.5-5.4-2.5-8.6-2.6C257.4,179.3,274.7,177,293,176.8L293,176.8z"/>
		<path class="st5" d="M352.1,182.8c-4.6,0.4-9.4,1.9-11.9,6.3c-2,3.3-1.1,8.1,1.1,11c2.1,2.9,5.1,4.9,8.1,6.4
			c-14-2.3-29.1-3.5-44.2-4c4.2-2,7.6-6.3,8.2-10.8c0.6-5.3-1.5-9.8-5.8-13c-1.1-0.9-2.4-1.2-3.6-1.9
			C320.6,177.2,336.5,179.7,352.1,182.8z"/>
		<path class="st1" d="M309.7,182.9c2.4,3.2,2.9,8.4,1.2,12c-2.7,5.3-8.3,8.3-14.3,7.6c-4.8-0.4-9.9-4.2-11.4-8.9
			c-1.3-4.3-0.3-9,2.9-12.1c3.3-3.3,7.7-4.8,12.5-4C304.1,178.3,307.4,179.9,309.7,182.9L309.7,182.9z"/>
		<path class="st0" d="M307,185.7c1.4,2,1.5,5.5,0.4,7.7c-1.3,2.8-4.3,4.8-7.2,5.4c-4.1,0.5-8.2-0.8-10.6-4.4
			c-1.8-2.6-1.6-6.5,0.1-9.1c2.6-3.4,6.5-4.9,10.7-4C303.1,181.8,305.5,183.4,307,185.7L307,185.7z"/>
		<path class="st5" d="M195.6,183.1l-5.6,2.2c0.1-1,0.5-2.3,0.3-3.5C192,182.3,193.8,182.7,195.6,183.1L195.6,183.1z"/>
		<path class="st5" d="M405.1,181.8c0,1.9,0.1,4.1,2,5c0.4,0,0.7,0.2,1,0.1l-3.3,0.8c-2.9-1.7-6.2-2.7-9.3-4.1
			C398.9,183.6,402,182.8,405.1,181.8L405.1,181.8z"/>
		<path class="st4" d="M306.4,187.3c0.9,2.1,0.4,4.8-0.7,6.7c-2.3,2.9-5.9,4.1-9.5,3.3c-2.7-0.7-5.6-3.1-6.1-6
			c-0.5-2.5,0.3-4.7,1.9-6.4c2.3-2,5.3-3,8.5-2.4C302.8,183.1,305.3,184.9,306.4,187.3z"/>
		<path class="st1" d="M251.9,191.3c1.3,4.7-1.8,8.3-5.1,11.3c-5.2,4.4-13,5.5-19.7,3.7c-2.7-0.9-5.6-3.2-6.5-6
			c-1.1-4.3,0.8-8.1,4-10.8c5.7-4.7,13.9-7,21.1-4.1C248.3,186.2,251.2,188.5,251.9,191.3L251.9,191.3z"/>
		<path class="st1" d="M371.7,194.6c0.8,2.3,0.9,5.3-0.4,7.4c-3.7,5.2-10,5.9-16,4.9c-5.6-1.1-11.8-4.4-14.2-10.2
			c-1.1-2.2-0.7-5.4,0.5-7.4c3.3-4.7,8.9-5.6,14.5-5.1C362.4,185.2,368.8,188.4,371.7,194.6L371.7,194.6z"/>
		<path class="st0" d="M274,187.4c1.2,1.7,1.5,4.4,0.6,6.3c-0.9,2.1-3.1,3.5-5.2,3.9c-2.9,0.4-5.5-1-7.1-3.5
			c-1.1-1.6-0.9-4.1-0.1-5.9c1.1-2.1,3.3-3.5,5.5-3.8C270.2,184.3,272.5,185.3,274,187.4L274,187.4z"/>
		<path class="st0" d="M331.9,188c1.4,1.8,1.5,4.4,0.7,6.5c-1.1,2.2-3.3,3.7-5.7,4c-2.7,0.1-5.2-1.2-6.6-3.6
			c-1.1-1.8-0.7-4.7,0.3-6.5c1.7-2.5,4.5-3.7,7.5-3C329.6,185.8,330.9,186.7,331.9,188L331.9,188z"/>
		<path class="st5" d="M218.9,199.4c0.6,3.7,4.3,7.1,7.8,8.2l3.6,0.8c-10.7,2.3-21.1,5.1-30.5,10.4c2.7-5.1,1.2-12.6-2.5-17.2
			c-1.7-2.1-3.8-3.7-6.2-4.4c11.8-4.5,23.9-8.3,36.3-11.6C222.8,188.5,218,193.5,218.9,199.4L218.9,199.4z"/>
		<path class="st1" d="M273.2,188.6c1,1.6,0.7,4-0.3,5.5c-1.1,1.5-2.6,2.3-4.4,2.2c-2.1,0.1-4.1-0.9-5.1-2.9
			c-0.6-1.2-0.8-3.2-0.1-4.4c0.9-2,2.9-3,4.9-3.2C270.2,185.8,272.1,186.9,273.2,188.6L273.2,188.6z"/>
		<path class="st5" d="M400.5,198.1c-5.7,1.4-9.5,7.6-10.3,12.9c-0.4,3.2,0,6.6,1.5,9.2c-9.4-5.9-20.1-9-30.9-11.4
			c4.1-0.4,8.6-1.7,11.4-5.5c1.7-2.3,2.1-5.8,1.1-8.6c-1.2-3.5-4.5-6.7-7.7-8.7C377.5,189.3,389.4,193.7,400.5,198.1L400.5,198.1z"
			/>
		<path class="st1" d="M330.3,188.1c1.6,1.5,2.1,4,1.1,5.9c-1,2-3,3.2-5.2,3.1c-2.1-0.1-4.1-1.5-4.9-3.4c-0.7-1.9-0.3-4,1.1-5.5
			C324.4,186.2,328.3,186,330.3,188.1L330.3,188.1z"/>
		<path class="st0" d="M248.3,191.6c0.9,2.3-0.1,4.5-1.5,6.3c-4.6,5.1-11,7-17.7,5.6c-2.1-0.4-4.4-2-5.2-4.1
			c-0.7-3.5,1.5-6.3,4.2-8.4c4.7-3.1,11.2-4.8,16.7-2.4C246.2,189.1,247.6,190.2,248.3,191.6L248.3,191.6z"/>
		<path class="st0" d="M368.2,195.5c0.5,1.1,0.7,2.6,0.4,3.9c-1.5,3.7-5.5,4.6-9.1,4.7c-6.2-0.2-12.3-2.7-15.4-8.5
			c-0.6-1.9-0.4-4.1,1.3-5.5c3.7-3.6,10.1-2.7,14.6-1.4C363.3,190,366.4,192.4,368.2,195.5L368.2,195.5z"/>
		<path class="st2" d="M247.3,192.4c0.4,2.5-1.2,4.6-2.9,6.2c-4.5,3.8-11.5,5.1-17,2.6c-1.2-0.8-2.1-2.1-2.1-3.6
			c0.7-3.9,4.8-7,8.4-8C237.9,188.2,244.6,187.8,247.3,192.4L247.3,192.4z"/>
		<path class="st2" d="M367.2,196.3c0.3,1.1,0.5,2.6-0.3,3.5c-2.8,3.2-7.4,3.3-11.4,2.5c-4-1.1-9-3.3-10.3-8c-0.1-1-0.1-2,0.5-2.8
			c3.6-3.6,9.9-3.1,14.1-1.4C362.7,191.4,365.9,193.3,367.2,196.3L367.2,196.3z"/>
		<path class="st0" d="M214.9,199.1c1.5,1.9,1.9,5.1,0.6,7.2c-1.1,2-3.2,3.1-5.3,3.5c-2.8,0.3-5.2-1.1-6.7-3.5
			c-1.2-1.8-1.1-4.7,0-6.5c1.7-2.4,4.5-3.9,7.6-3.1C212.4,197.1,213.8,197.9,214.9,199.1L214.9,199.1z"/>
		<path class="st0" d="M388.8,200.1c1.1,1.9,1.1,4.9-0.3,6.7c-1.5,1.9-3.5,3.1-5.9,3c-2.4,0-4.3-1.3-5.7-3.2c-1.1-1.7-1.2-4-0.4-5.9
			c0.9-2.1,3.1-3.7,5.3-4.1C384.7,196.3,387.3,197.5,388.8,200.1L388.8,200.1z"/>
		<path class="st1" d="M214.3,200.6c0.9,1.6,0.7,3.8-0.3,5.3c-1.2,1.9-3.4,2.6-5.6,2.3c-1.9-0.2-3.7-1.9-4.3-3.9
			c-0.5-1.9,0.1-3.7,1.4-5.1c1.3-1.4,3.2-1.7,5.2-1.5C212.1,198.3,213.6,199.1,214.3,200.6L214.3,200.6z"/>
		<path class="st1" d="M387.7,200.7c0.9,1.5,0.6,3.9-0.3,5.3c-1.5,2-3.9,2.9-6.2,2.2c-1.9-0.4-3.6-2.6-3.9-4.4
			c-0.1-2.2,0.8-4.3,2.8-5.3C382.7,197.2,386.2,198.1,387.7,200.7L387.7,200.7z"/>
		<path class="st1" d="M198,205.4c1.8,3.9,2.4,9.5,0,13.3c-1.4,1.9-3.5,3-5.9,2.7c3.5-1.9,3.7-6,3.3-9.6c-0.9-4.4-3.1-9-7.6-11.1
			c-1.1-0.2-2.2-0.6-3.3-0.2c1.6-2,4.1-2.4,6.4-1.8C194,199.7,196.7,202.6,198,205.4L198,205.4z"/>
		<path class="st1" d="M406.5,201.6c-2.3-0.6-4.6,0.5-6.3,2.2c-4,4.3-6.1,10.5-3.7,16.2c0.4,1,1.4,2.2,2.5,2.6
			c-2.5,0.5-4.7-0.9-6-2.9c-2.7-5.1-1.3-11.9,2-16.2c2.2-2.5,4.9-4.7,8.5-3.9C404.5,200,405.5,200.6,406.5,201.6L406.5,201.6z"/>
		<path class="st4" d="M193.6,209.7c0.7,3.1,1.2,7.1-0.9,9.6c-1.5,1.3-3.5,1.5-5.4,1.3c-4-1.3-6.1-5.5-6.6-9.3c-0.3-3.5,0.3-7,3.4-9
			c1.2-0.8,2.8-0.8,4-0.1C190.9,203.9,192.7,206.9,193.6,209.7z"/>
		<path class="st4" d="M409.5,206c2.2,4.7,0.7,10.3-2.7,13.9c-1.8,1.5-4.2,2.4-6.6,1.6c-1-0.3-2-1.1-2.6-2.1
			c-1.9-5.2-0.1-10.9,3.7-14.7c1.3-1.2,3-2.2,4.9-1.7C407.5,203.6,408.9,204.8,409.5,206L409.5,206z"/>
		<path class="st1" d="M373.6,213.7c8.8,3.3,18,6.2,24.6,14.3c1.6,2.4,2.7,5,2.4,8.2h-8.8c0.5-2.2-0.9-4.2-2.6-5.8
			c-9-6.4-19.8-8.7-30.2-11.5c-28.3-6.4-60.2-7-90.8-5.3c-21,1.6-41.3,4.7-59.9,12c-3.9,1.9-8.4,3.7-10.7,8
			c-0.3,0.7-0.4,1.7-0.3,2.6h-8.8c-0.4-10.1,11-15.8,18.4-19.3c19.8-7.8,41.8-10.5,64.2-12.2c31.6-2,63.5-0.1,92.6,6.3L373.6,213.7
			L373.6,213.7z"/>
		<path class="st7" d="M375.4,224.9c5.1,2.2,10.9,3.7,14.6,8.7c0.5,0.7,0.4,1.6,0.4,2.5H198.7c-0.4-2.5,1.7-4.4,3.6-5.7
			c15.2-8.7,32.8-11.5,50.6-13.9c33.1-4.1,69.6-3,101.6,2.8C361.6,220.7,368.6,222.5,375.4,224.9z"/>
		<path class="st0" d="M503,216.4l-0.1,0.1L503,216.4z"/>
		<path class="st6" d="M579.7,237.4c3.7,14-1.7,27.6-6.8,39.6l-5.1,10.3l-11.8,21.4c-5.2,9.9-8.8,21.5-6.3,33.6
			c-2.1,0.1-4.3,0-6.3,0.1c-4.2-4.7-11.2-4.5-17.1-3.6c-2.9,0.8-6,1.6-7.8,4.6c-4.2,7-2.2,16.9,0,24.2c1.8,6.1,4.8,11.9,4.1,18.9
			c-0.4,2.6-2.4,5.1-4.8,6.5c-2.9-2.9-3.5-7.2-4.5-11.2c-5.7-28.2-8.7-63.8,5.8-88.9l13.6-22.6c5.5-10.1,12.6-24.2,4.4-35.3
			c-1.5-2.3-3.9-4.4-5.9-6.2c4.6-3.2,8.6-7.7,14.3-8.4C559,220.8,574.5,223.2,579.7,237.4L579.7,237.4z M64.4,228.7
			c-7.2,5.4-11,13.4-9.3,22.3c4.5,20.8,21.7,36.4,27.6,56.6c7.6,23.9,4,53.2-1.1,77.1c-0.8,2.9-1.5,5.9-3.7,8.2
			c-3.3-1.6-5.2-5-5.1-8.6c0.7-10.8,6.9-19.4,6.7-30.5c0-5.1-0.9-10.2-5.2-13.2c-5.5-2.7-13.5-3.2-19.2-0.6
			c-1.1,0.7-2.1,1.3-2.9,2.4H46c2.7-13.9-2.3-26.6-8.6-37.7L26,284c-6.3-13.1-12.7-26.5-11.1-42.5c0.7-7.3,6.3-14.3,13-17.1
			c7-3.1,15.1-4.3,23.3-4C56.3,221.7,60.2,225.6,64.4,228.7z"/>
		<path class="st8" d="M193.6,223c-0.4,0.3-0.8,0.8-1.2,1.1c-0.3-0.5-1.5-0.7-1.1-1.5L193.6,223z"/>
		<path class="st5" d="M71.3,232.9c-5.9,3.8-9.6,10.6-8.1,17.9c1.2,6.3,4.1,11.9,7.2,17.5l13.2,21.9c15.1,27.1,12,65.4,5.5,95.4
			c-1.6,5.5-3.2,12.3-9.5,14.6c-5.4,1.1-9.6-3.3-12.4-7.5c-5.6-11.4,2-22.4,4-33.1c0.7-4,1.5-9.5-1.1-12.8c-2.9-2-7.6-2.9-10.9-1
			c-3.3,4.1-4.9,9.1-6.5,13.9c-5.3,21.1-0.8,44.1,3.6,64.3l5.9,26.3c5.7,28.5,6.5,60.6,4.3,91l-1.9,20.9L62,584.3l-2.8,20.4
			c-1.8,15.3-3.3,32-1.2,47.7c0.5,2.9,1.5,5.6,2,8.5c0.1,0.9-0.9,1.5-1.6,1.8c-1.1,0.4-2.4,0.9-3.6,0.4c-1.3-1.6-1.5-3.5-2.1-5.3
			c-4-17.7-1.5-37.7,0.4-55.5l5.3-40l1.9-19.9l1.1-19l0.2-20.1c-0.4-19.5-2.3-38.4-6.2-56.4L49,418.3c-4.4-20.7-7.8-46.8,0.5-66.9
			l3.6-7.9c3.8-4.7,10.8-4.4,16.4-3.3c2.9,0.6,6.3,2.2,7.3,5.4c2.6,6.4,1,14.2-0.7,20.6c-1.9,6.6-5.2,12.8-4.5,20.3
			c0.4,3.3,2.9,6.4,6,7.8c1.3,0.1,2-1.2,2.6-2.1c3.3-6.5,3.9-14.2,5.3-21.5c4.8-27.7,4.5-60-10.6-82.9l-10-16.4
			c-5.6-10.4-13.9-24.5-5.1-36.1c1.6-2,3.6-4,5.6-5.6C67.4,230.8,69.3,231.9,71.3,232.9L71.3,232.9z"/>
		<path class="st5" d="M539.2,250.5c-4.5,21.1-22.3,36.8-27.7,57.4c-7.2,23.9-3.9,52.9,1.2,76.8c0.8,3.3,1.8,6.7,4.3,9.3
			c1.8,0.7,3.2-1.2,4.5-2.4c5.1-5.7,1.7-14.2-0.2-20.3c-2.7-7.7-5.5-16.9-2.6-25.4c2.2-6,8.8-6.3,14.6-6.4c3.2,0.4,6.4,0.8,8.8,3.3
			c11.4,19.1,10.7,46.2,6.1,68.1l-4.1,19.5l-4.5,19.9c-6.1,29.8-6.8,63.8-4,95.4l2,19.3l3.2,23.5l2.6,19.7c1.6,16.1,3.3,34.4-0.4,50
			c-0.7,1.7-0.7,3.7-2.3,4.9c-1.8,0.1-3.8-0.3-4.8-2c0.1-2.3,1.2-4.3,1.6-6.5c3.3-19.1,0.4-39.2-1.7-57.9l-4.3-31.5
			c-1.5-12.3-2.5-24.7-3.1-37.4l-0.4-19c0-24.9,2.7-48.7,8.2-71.3l4.4-19.1c4.4-22.1,9.3-50.7-2.7-70.7c-0.9-2.1-3.1-2.9-5.3-2.9
			c-3.1,0.3-6.9,0.6-8.1,3.9c-1.7,6.5,0.4,12.9,2.2,18.6c2.9,8.2,7.2,20.2,0.3,28c-2.9,3-6.3,5.9-10.7,4.9
			c-4.8-1.5-7.1-6.6-8.5-10.8c-5.1-21.3-8.3-44.6-5.3-67.8c1.6-11.7,5.1-22.5,10.5-32.7l12.7-21c4.4-8.4,10.5-18.6,5.5-28.5
			c-1.6-2.6-4-4.9-6.5-6.5c1.9-1,3.9-2.2,5.7-3.5C536.8,234.7,540.8,242,539.2,250.5L539.2,250.5z"/>
		<path class="st9" d="M494.2,416.8c-13.6-2.9-27.4,0.3-39.2,4.9c-13.5,4.8-27.1,11.5-43,8.7c-21-3.6-38.5-18.3-61.8-13.8
			c-20.9,3.7-38.2,17.8-61.4,13.8c-25.5-3.7-48.2-20.1-75.9-12.7l-8.1,2.5l-19.3,7.1c-10.3,4-23.5,5-34.5,1.8l-10.4-3.1l-18-6.2
			c-6.7-2.1-13.7-3.8-21.3-4V238.7h392.7L494.2,416.8L494.2,416.8z"/>
		<path class="st5" d="M25.3,344c0.4,0.7,0,1.5-0.4,2c-15.6,18-18.2,44.1-13.4,67.8c3.1,14.3,7.1,28.3,9.5,42.9
			c2.6,15.6,3.9,31.7,4.4,48.1L25.2,526l-0.9,17.7l-2,19.9l-2.9,20.5c-3.9,23.3-6.3,51.6,2.9,73.2c0.3,1-0.4,1.7-1.1,2.1
			c-1.1,0.5-2.3,1.2-3.6,0.9c-2-1.8-2.2-4.6-3.3-6.9C8.7,636,9.1,614.7,11.4,596l4.2-28.7c5.8-42.7,4.9-90.6-5.1-131
			C4.1,414.4-0.7,386.5,7.8,364c2.9-7.9,7-15.4,12.8-22.1c0.4-0.7,1.5-0.7,2-0.3C23.7,342.1,24.8,342.9,25.3,344L25.3,344z"/>
		<path class="st5" d="M576.7,343.8c16.5,19.9,18.7,49.5,12.8,74.9l-6,24.7c-9.2,41-8.7,89.7-2.4,131.9l3.3,22.1
			c2.4,20.6,2.5,43.8-5.3,62c-0.5,0.8-1.5,1.2-2.5,0.9c-1.1-0.4-2.6-0.8-3.2-2.1l0-1.2c7.9-18,7-41.4,4.5-61.7l-4.1-28
			c-5.5-41.6-4.9-88.6,4.4-128.3l5.5-22.7c5.3-23.8,3.2-51.1-12.5-69.5c-0.5-0.7-1.1-1.2-1.1-2.1c0.4-1.6,2.2-2.6,3.6-3.2
			C575.2,341.3,576,342.9,576.7,343.8L576.7,343.8z"/>
		<path class="st6" d="M568.9,343.6c-0.6,1.9,0.8,3.4,1.9,4.8c14.8,17.9,16.6,44.4,11.6,67.3c-4.9,19-9.4,38.1-11.4,58.3
			c-3.2,26.7-2.4,56.1,0.3,82.8l2.6,20.3l3.2,21.7c2.1,18.8,2.3,40-4.5,56.7c-0.4,0.7-0.5,1.5-0.5,2.3l-28.8,3.4
			c4.8-16.2,2.9-35.7,1.4-52.7l-2.9-22.3l-2.8-20.3l-2.2-21.7c-3-35.9-1.5-73.5,6.9-106.4l4.4-19.7c5.2-23.1,7.9-52.7-3.4-73.9
			l-0.4-0.9H568.9z M51.3,343.6c-8.7,16.6-9.9,38.5-6.8,58.1l2.3,13l4.8,21.9c8.6,32.3,10.3,68.8,7.6,104.4l-2,20.7l-2.9,22
			l-2.9,21.8c-1.7,18-4.3,38.6,1,55.9L23.7,658c-0.4-3-2-5.5-2.8-8.4c-5.5-18.4-3.9-41-1.1-60.2l3.2-21.1c5.9-43,5.1-91.4-4.8-132.2
			l-4.9-20c-4.9-21.5-3.7-47.1,9.1-64.6c1.3-2.7,5-4.6,4.3-7.9H51.3L51.3,343.6z"/>
		<path class="st6" d="M69.2,347.7c1.8,2.2,1.6,5.4,1.4,8.2c-1.5,13.7-14.2,31,0,42.8l-17.7-2.6c-2-16.7-2-35.3,7-48.8
			C62.6,345.2,66.6,346.2,69.2,347.7L69.2,347.7z"/>
		<path class="st6" d="M538.4,352c6.1,12.7,6.1,29.2,4.4,43.9l-17.8,2.8c6.1-4.8,7.6-12.2,6.3-19.5c-1.7-9.2-6.4-17.1-6.4-27
			c0.3-1.6,0.3-3.3,1.3-4.5c2.7-1.5,6.7-2.8,9.5-0.6L538.4,352z"/>
		<path class="st3" d="M125.9,422.9l19.1,6.6c10.3,3.1,22.7,4.9,33.6,1.9l8.5-2.5l21.2-7.8c10.7-4.2,24.9-4.3,36.1-1.1l10.4,2.9
			l20.7,6.6c11.7,3.3,26.5,5.2,38.4,1.1c17.6-4.8,33.8-15.6,54-12.1c20.1,3.9,36.9,17,59.2,14c6.2-0.9,12-2.8,17.8-4.8l18.1-6.6
			c9.4-3.3,21.1-4.4,31.4-2.2v65.6c-13.7-2.8-27.6,0.4-39.4,5.1c-13.5,4.8-27.1,11.4-42.9,8.5c-20.6-3.7-37.7-17.7-60.5-14
			c-21.3,3.4-38.8,18-62.4,14c-6.5-0.9-12.7-2.7-18.9-4.6l-20.3-6.5c-11-3.2-24.2-5.1-35.8-1.9l-9.4,2.9l-18.8,6.9
			c-10.2,4-23.5,5.1-34.5,1.9l-9.8-2.8l-18.7-6.4c-6.8-2.2-13.8-3.7-21.4-4.1l0-65.7C110.2,418,118.1,420.4,125.9,422.9L125.9,422.9
			z"/>
		<path class="st9" d="M250.6,489.5l24.9,7.8c11.5,3.4,26.2,5.1,38,1.1c17.6-4.8,33.5-15.5,53.6-12.3c21.1,3.6,38.5,18.4,61.9,13.8
			c19.2-3.5,35.2-15.4,56-14.3c3.2,0,6.1,0.5,9.2,1l-0.1,156.3c-0.5,11.2-6.6,23.1-17.9,26.8c-5.6,2.1-11.8,2.9-18.2,2.9l-127.6,0
			c-11.6,3.2-23.7,12.1-29.1,23.6c-1.3,2.7-2.4,5.5-3.5,8.2c-3.5-11.5-13.4-24.1-25.3-29c-2.7-1.2-5.4-2.3-8.3-2.9l-130.8-0.1
			c-12.3-0.4-25.4-5.9-29.7-18.4c-3.2-7.9-2.3-17.4-2.5-26.5v-142c7.1,0,13.6,1.8,20.2,3.7l23.3,7.9c11,3.7,25.2,4.9,36.6,1.2
			c17.2-4.7,32.5-15.1,52.3-12.6C239.6,486.5,245.2,487.7,250.6,489.5L250.6,489.5z"/>
		<path class="st5" d="M84.4,629.2c2.9,7.9,3.3,16.8,4.7,25.3c0.9,7.3,7.3,13.6,13.8,16.9c11.3,5.7,23.7,9,36.1,12
			c3.9,1.2,8.7,3.6,9.8,8.1c0.7,2.7-0.2,5.3-2,7.3c-2.9,2.9-7.5,3.5-11.6,2.5c-5.1-1.3-8.3-7.1-13.3-8.6c-4.3-1.1-9-2.5-13.6-1.4
			c-0.5,0.4-1.3,0.8-1.5,1.5c-0.4,2.5,1.9,4,2.7,6.1c-3.5-1.5-6.8-3.9-10.3-5.6c-0.3-2.4,1.1-4.5,2.9-6c4-3,9.5-3.4,14.5-2.2
			c5,2,10.8,2,14.7,6.6c2.8,2.5,6.3,5,10.3,3.3c0.4-0.3,1.1-0.6,1.1-1.1c0.1-1.7-1.6-2.9-2.9-3.6c-4.8-2.1-10.3-2.6-15.3-4.2
			c-11.1-3.3-22.2-6.7-31.9-13.6c-2.6-2.1-5.2-4.7-6.5-7.6l-4.4-17.9c-0.8-8.3-2.7-16.2-6.5-23.2c-0.4-0.7-1.1-1.1-1.8-1.4
			c-2.4,1.7-2.3,4.9-2.1,7.7c1.4,7,5.9,12.6,9.5,18.6l4.3,17.7c-0.7,2.4-2.6,5.1-5.1,5.6c-5.9,1.2-10.6-3.3-13.9-7.8
			c-4.5-6.7-6.9-14.3-7.9-22.5c-0.2-7.2,0-14.5,0.7-21.5c0.4-1.1,1.6-1,2.7-1c1.1,0.3,2.6,0.3,3.2,1.6l-0.4,4.8l-0.1,0
			c-1.2,13,0.3,25.8,7.5,35.8c1.7,2.1,3.9,4.5,6.6,4.5c1.5-1.2,0.9-3.9,0.8-5.7c-2.7-10.2-11.6-17.6-13.8-27.9
			c0-3.3,0.4-6.7,0.6-10.1c1.1-2.9,3.8-5.7,7-6c7,0,9.4,7.9,11.4,13.1L84.4,629.2z"/>
		<path class="st5" d="M528.3,619.7l1.3,2.6c-0.2,4.5,1.8,9.8-0.6,13.8c-3,9.1-11.5,15.8-12.8,25.7c0,1.5-0.3,3.1,0.8,4.2
			c2.3,0.1,4.1-1.6,5.7-3.3c8.2-10.1,9.6-23.5,8.4-37l-0.4-4.8c0.8-1.5,2.5-1.6,4.1-1.6c0.7,0.1,1.5,0.4,1.7,1.1
			c0.4,9.5,1.8,20.3-0.7,29.2c-2.6,8.7-6.7,19.1-16.4,22.5c-2.2,0.5-4.5,0.1-6.2-1.1c-1.6-1.2-2.4-2.8-2.9-4.5l4.5-18.2
			c4.3-6.9,10-13.3,9.3-22.1c-0.4-1.3-0.7-2.8-2-3.7c-1.1,0.1-1.9,1.3-2.5,2.2c-3.5,7.1-5.3,14.9-6,23.1c-1.7,6-3,12.1-4.7,18.1
			c-6.7,9.9-17.6,13.2-27.5,17.1c-7.6,2.4-15.3,4.7-23.2,6.5c-2.1,0.8-4.7,1.5-5.6,3.8c-0.1,0.8,0.5,1.6,1.1,1.8
			c7.4,2.9,11.1-6.4,17.4-7.6c6.6-2.3,15.8-5.2,22.1-0.1c1.9,1.5,3.3,3.5,3.1,6c-3.5,1.7-6.8,3.9-10.3,5.7c0.6-2.2,3.6-4.1,2.3-6.8
			c-1.7-1.8-4.5-1.4-6.8-1.2c-5.2,0.7-10.3,1.6-14.2,5.6c-3.6,3.6-7.8,5.9-13.1,4.9c-3.2-0.5-6.9-2.8-7.6-6.3c-1-3.7,0.9-7.1,4-9.2
			c5.6-3.5,12.4-4,18.6-5.9c10.4-3.2,20.8-6.2,29.7-13c9.1-7,7.4-18.5,9.6-28.3c1.1-6,2.9-11.7,5.5-17c1.5-2.8,4.3-5.4,7.5-5.7
			C524.5,616,526.7,617.6,528.3,619.7L528.3,619.7z"/>
		<path class="st6" d="M79,637.6l1.2,7.1c-3.6-5.8-8.8-12-7.1-19.8l0.6-1.1C76.5,628,77.8,632.9,79,637.6L79,637.6z"/>
		<path class="st6" d="M520.7,636.2c-1.6,2.9-3.4,5.8-5.2,8.7c0.6-6.4,2.4-12.8,4.9-18.6l1.6-2.4
			C524.3,627.8,522.4,632.5,520.7,636.2z"/>
		<path class="st6" d="M77.5,659c0.4,1.7,0.8,3.9,0.3,5.6c-4.8-2.3-7.1-7.3-9.2-11.7c-2-5-2.9-10.5-3.2-16.2
			C68.3,644.6,74.7,651,77.5,659L77.5,659z"/>
		<path class="st6" d="M520.7,662.7c-0.9,0.8-1.8,1.5-2.9,1.9c-1.1-4.5,1.2-8.4,3.3-12.1c3.2-5.2,6.9-10.2,9-15.8
			C529.7,646.3,527.4,655.6,520.7,662.7L520.7,662.7z"/>
		<path class="st6" d="M535.2,662.9c1.7,1.2,3.9,2,6,1.4l1.5-1.5l6.4-0.8c-6.4,20.2-19.7,38.4-37.4,53.3L500.2,701
			c0.8-0.6,1.2-1.5,1.3-2.4c-0.3-2.2-1.5-4.6-3.7-5.5c0.3-3.7-2.6-7-5.8-8.5c-2.2-0.9-4.4-1.7-6.9-1.7c8.5-3.5,17.9-7,24.3-15.4
			c0.9,2.4,3.2,5,5.9,5.6c6.5,1.5,11.7-3.4,15.4-8.4c2.2-3.3,4.1-6.9,5.2-10.7C535.9,656.9,532.8,660.1,535.2,662.9L535.2,662.9z
			 M77.5,673.5c3.6,0.4,6.9-1.9,8.4-5.1c0-0.3,0.2-0.4,0.3-0.7c6.4,8.3,15.5,12,24.3,15.4c-4.2,0.4-9,1.8-11.7,5.9
			c-0.7,1.3-1.2,2.7-1.1,4.3c-2.4,1-3.8,3.6-3.7,6c0.3,0.7,0.5,1.4,1.3,1.8l-11.5,14.3c-17.7-14.8-30.9-33-37.5-53.2l6.5,0.7
			c0.5,0.7,1.2,1.5,2,1.6c2.5,0.2,5.2-0.5,6.3-2.9c0.3-2.7-1.3-4.8-1.6-7.4C62.4,661.9,68.1,672.2,77.5,673.5z"/>
		<path class="st5" d="M44.8,661.8c6.7,20.7,20.1,39.3,38.2,54.6l-1.1,1.3c-0.7-0.6-1.6-1.1-2.5-0.9c-1.2,0-2.2,1-3.1,1.9
			c-18.6-16.4-31.7-35.8-37.9-57.7C40.4,661.5,42.6,661.6,44.8,661.8L44.8,661.8z"/>
		<path class="st5" d="M519.3,718.7c-1-1.1-2-2-3.4-2c-0.9,0-1.6,0.5-2.3,1l-1.1-1.3c18-15.3,31.5-33.8,38-54.4
			c2.1-0.5,4.5-0.5,6.6-0.9C551,682.9,537.9,702.3,519.3,718.7L519.3,718.7z"/>
		<path class="st6" d="M140.3,692l1.2,1.3c-0.9,1.2-3.2,0.9-4.5,0.5c-2.4-1.2-4.6-3.3-6.8-5C133.6,689.6,137.1,690.3,140.3,692
			L140.3,692z"/>
		<path class="st6" d="M454.2,693.4c1.3-2.2,4-2.4,6.1-3.3l5.2-1.3C462.1,691.2,458.7,696,454.2,693.4L454.2,693.4z"/>
		<path class="st6" d="M125.6,696.4c4.9,5.1,12,8.8,18.9,5.5c-0.9,3.5-2,7.2-2.9,10.8c-10.4-3.4-20.7-7.7-30.5-12.9
			c0-2.7-3.2-4.3-2.9-6.8c1.5-1.1,3.9-0.7,5.7-0.6C118,693.1,122.4,693.4,125.6,696.4L125.6,696.4z"/>
		<path class="st6" d="M487.6,693.2c-0.3,2.5-2.9,4-3,6.5c-9.9,5.2-20.2,9.5-30.7,13.1l-3.1-11.1c5.2,2.5,12.1,1.3,16.2-2.8
			c2.5-2,4.8-4.4,7.7-5.2c3.7-0.9,7.6-1.9,11.7-1.5C486.7,692.4,487.4,692.6,487.6,693.2L487.6,693.2z"/>
		<path class="st5" d="M99.7,694.9c31.5,19.1,67.1,28.2,104.5,33l19.7,2l21,1.3l24.7,0.8l62.5-0.1l23.6-0.9l19.7-1.5
			c43.5-4,84.9-13.2,121.1-35c0.6-0.1,1.2-0.3,1.7,0.2c1.1,1.3,2.6,3,1.6,4.7c-10.8,7.1-22.4,12.4-34.2,17
			c-30.6,11.8-63.9,17.4-98.4,19.9l-22.8,1.3l-23.5,0.5h-35.8l-22.9-0.1l-22.9-0.9l-19.5-1.5c-44.4-4.3-86.9-13.3-123.7-36
			c-0.9-0.5-0.9-1.6-0.5-2.4C96.3,696.1,97.7,693.2,99.7,694.9L99.7,694.9z"/>
		<path class="st6" d="M207,735.9l18.9,1.8l21.8,1.3l23.3,0.6l60.3,0l23.8-0.9l20.6-1.5c44-4.1,86-13.2,122.7-35.3l13.2,16.5
			l0.3,0.3c-16.3,15-35.8,22.6-55.6,29.3c-10.3,3.3-20.9,6.1-31.5,8.5l-20.2,4.1l-25.3,4.1l-28.6,3.6l-29,2.8l-25.1,1.8l-29.3-2.2
			l-26.9-2.7l-25.7-3.3l-24.3-4l-20.7-4.2c-29.9-7.2-59.5-15.4-84.4-35l-3.1-2.8l13.5-16.8C129.2,722,167.2,731.2,207,735.9
			L207,735.9z"/>
		<path class="st5" d="M80.5,718.3c21.8,19.8,48.3,28.4,75.3,36l17.3,4.1l18.9,3.7l23.2,3.7l26.5,3.4l29.9,2.9l26.7,2l30.9-2.4
			l28.6-2.9l24.6-3.3l22.7-3.7l20.3-4.1c29-6.9,57.5-14.9,81.9-32.7l8.1-6.8c1.6-0.5,2.9,1.1,3.7,2.3c0.5,0.7,0.6,1.5,0.1,2.2
			c-16,15.4-35.1,23.4-54.6,30.5c-20.6,6.9-42.1,12-64,15.8l-22.1,3.5l-27.8,3.5l-29.3,2.8l-24.2,1.7l-27.6-2.1l-28.1-2.8l-25.8-3.3
			l-22.1-3.6l-20.1-3.9l-19-4.5c-26.5-7.4-52.5-15.9-74.5-34.2c-1.4-1.5-4-2.8-3.7-4.9c0.8-1.4,2.4-3.6,4.3-2.8L80.5,718.3z"/>
		<g>
			<polygon class="st0" points="211.8,298.3 208.3,321.1 227.1,336.8 209.1,350.5 211.7,375.3 189.9,371.7 189.7,371.7 174.7,391.1
				174.6,391.3 161.4,372.6 137.3,375.3 140.8,352.6 139.6,351.4 122.1,336.9 122,336.8 140.1,323.2 137.4,298.3 159.2,301.9
				159.5,301.9 174.6,282.3 187.8,301.1 			"/>
			<path class="st5" d="M209.4,300.5l-3.2,21.4l17.8,14.8l-17,12.8l2.5,23.5l-20.7-3.4l-14.2,18.4l-0.7-0.6l-11.8-16.8l-22.6,2.6
				l3.2-21.4L125,336.8l17-12.8l-2.5-23.4c6.7,0.8,13.7,2.3,20.7,3.3l14.3-18.4l12.3,17.5L209.4,300.5L209.4,300.5z"/>
			<path class="st0" d="M335,298.3c-1.2,7.6-2.3,15.2-3.5,22.8c6.3,5.2,12.6,10.5,18.9,15.7c-6,4.5-12,9.1-18,13.6
				c0.9,8.3,1.8,16.6,2.6,24.9c-7.3-1.2-14.6-2.4-21.8-3.6c-0.1,0-0.1,0-0.2,0c-5,6.5-10,12.9-15,19.4c0,0-0.1,0.1-0.1,0.1
				c-4.4-6.3-8.8-12.5-13.2-18.7c-8,0.9-16,1.8-24.1,2.7c1.1-7.6,2.3-15.1,3.5-22.7c-0.4-0.4-0.8-0.8-1.2-1.2
				c-5.9-4.8-11.7-9.7-17.5-14.5l0,0c6-4.5,12-9.1,18-13.6c-0.9-8.3-1.8-16.6-2.6-24.9c7.3,1.2,14.5,2.4,21.8,3.6c0.1,0,0.2,0,0.3,0
				c5.1-6.5,10.1-13,15.1-19.5c4.4,6.3,8.8,12.5,13.2,18.8C319,300.2,327.1,299.2,335,298.3z"/>
			<path class="st5" d="M332.7,300.5c-1.1,7.1-2.2,14.3-3.2,21.4c5.9,4.9,11.8,9.9,17.8,14.8c-5.7,4.3-11.3,8.5-17,12.8
				c0.8,7.8,1.7,15.6,2.5,23.5c-6.9-1.1-13.8-2.3-20.7-3.4c-4.7,6.1-9.4,12.2-14.2,18.4c-0.2-0.2-0.4-0.4-0.7-0.6
				c-3.9-5.6-7.8-11.2-11.8-16.8c-7.5,0.9-15.1,1.7-22.6,2.6c1.1-7.1,2.2-14.3,3.2-21.4c-5.9-4.9-11.9-9.9-17.8-14.8
				c5.7-4.3,11.3-8.5,17-12.8c-0.8-7.8-1.6-15.6-2.5-23.4c6.7,0.8,13.7,2.3,20.7,3.3c4.8-6.1,9.5-12.3,14.3-18.4
				c4.1,5.8,8.2,11.7,12.3,17.5C317.5,302.2,325.1,301.3,332.7,300.5L332.7,300.5z"/>
			<polygon class="st0" points="458.2,298.3 454.7,321.1 473.6,336.8 455.6,350.5 458.2,375.3 436.3,371.7 436.2,371.7 421.2,391.1
				421,391.3 407.8,372.6 383.8,375.3 387.2,352.6 386.1,351.4 368.5,336.9 368.5,336.8 386.5,323.2 383.9,298.3 405.7,301.9
				405.9,301.9 421.1,282.3 434.3,301.1 			"/>
			<path class="st5" d="M455.9,300.5l-3.2,21.4l17.8,14.8l-17,12.8L456,373l-20.7-3.4l-14.2,18.4l-0.7-0.6l-11.8-16.8l-22.6,2.6
				l3.2-21.4l-17.8-14.8l17-12.8l-2.5-23.4c6.7,0.8,13.7,2.3,20.7,3.3l14.3-18.4l12.3,17.5L455.9,300.5L455.9,300.5z"/>
		</g>
		<path class="st10" d="M230.3,134.1c-4,3.3-10.1,4.4-14.8,1.8c-4.9-2.5-8.1-7.5-7.7-13.1c0-0.4,0-0.7,0.1-1.1
			c0.4,4.4,3.1,8.4,7.1,10.3c4.3,2.3,10,1.3,13.7-1.7c1.8-1.5,3.4-3.9,4-6.3c1-3,0.4-6.9-1.3-9.8c3.1,3.3,4.7,8.8,3.3,13.1
			C234,129.9,232.3,132.5,230.3,134.1z"/>
		<path class="st10" d="M383.8,134.1c-4,3.3-10.1,4.4-14.8,1.8c-4.9-2.5-8.1-7.5-7.7-13.1c0-0.4,0-0.7,0.1-1.1
			c0.4,4.4,3.1,8.4,7.1,10.3c4.3,2.3,10,1.3,13.7-1.7c1.8-1.5,3.4-3.9,4-6.3c1-3,0.4-6.9-1.3-9.8c3.1,3.3,4.7,8.8,3.3,13.1
			C387.6,129.9,385.9,132.5,383.8,134.1z"/>
		<g>
			<path class="st9" d="M305,113.8c2.6,6.8,2.3,15.9-2.6,21.7c-1,1-2.5,1.7-3.8,1c-2.4-1.3-3.6-3.5-4.4-5.9c0.7,0.9,1.5,1.7,2.6,2.3
				c1.4,0.6,2.9-0.1,3.8-1c4.7-5.5,5.1-14.1,2.8-20.9C304.1,111.9,304.6,113,305,113.8L305,113.8z"/>
			<path class="st11" d="M291.8,124.8c-0.3-0.9-0.5-1.8-0.7-2.6c-1.1-6.3-0.5-13.2,3.3-18c1-1.4,2.6-2.1,4.2-1.7
				c1.1,0.4,1.9,1.1,2.6,2.1c-1.2,0.4-2.3,1-3.2,1.8C292.3,111.4,290.8,118.2,291.8,124.8z"/>
		</g>
		<g>
			<path class="st12" d="M159.9,143.8c2.6,3.6,4,9,2.1,13.2c-0.4,0.7-1.2,1.4-2.1,1.2c-1.6-0.4-2.7-1.5-3.6-2.7
				c0.6,0.4,1.2,0.7,1.9,0.9c0.9,0.1,1.7-0.5,2.1-1.2c1.8-4,0.6-9.2-1.8-12.7C159,142.8,159.5,143.4,159.9,143.8z"/>
			<path class="st13" d="M153.9,152.5c-0.3-0.5-0.6-1-0.9-1.5c-1.7-3.5-2.5-7.7-1-11.2c0.4-1,1.1-1.7,2.2-1.7c0.7,0,1.3,0.4,1.9,0.8
				c-0.7,0.4-1.2,1-1.5,1.6C152,144.5,152.3,148.7,153.9,152.5L153.9,152.5z"/>
		</g>
		<path class="st12" d="M435.7,143.9c-2.6,3.6-4,9-2.1,13.2c0.4,0.7,1.2,1.4,2.1,1.2c1.6-0.4,2.7-1.5,3.6-2.7
			c-0.6,0.4-1.2,0.7-1.9,0.9c-0.9,0.1-1.7-0.5-2.1-1.2c-1.8-4-0.6-9.2,1.8-12.7C436.6,142.9,436.1,143.4,435.7,143.9z"/>
		<path class="st13" d="M441.7,152.5c0.3-0.5,0.6-1,0.9-1.5c1.7-3.5,2.5-7.7,1-11.2c-0.4-1-1.1-1.7-2.2-1.7c-0.7,0-1.3,0.4-1.9,0.8
			c0.7,0.4,1.2,1,1.5,1.6C443.6,144.5,443.3,148.8,441.7,152.5L441.7,152.5z"/>
		<path class="st12" d="M402.7,208.9c-2.2,2.9-3.3,7.4-1.7,10.8c0.4,0.6,1,1.1,1.7,1c1.3-0.3,2.2-1.2,2.9-2.2
			c-0.4,0.4-1,0.6-1.6,0.7c-0.7,0.1-1.4-0.4-1.7-1c-1.5-3.3-0.5-7.5,1.5-10.5C403.5,208.1,403.1,208.5,402.7,208.9L402.7,208.9z"/>
		<path class="st13" d="M407,216.7c0.3-0.4,0.5-0.8,0.7-1.2c1.4-2.9,2.1-6.3,0.8-9.2c-0.3-0.8-1-1.4-1.8-1.4c-0.6,0-1.1,0.3-1.5,0.7
			c0.5,0.4,1,0.8,1.3,1.3C408.6,210,408.4,213.6,407,216.7L407,216.7z"/>
		<g>
			<path class="st12" d="M189.5,208.1c2.2,2.9,3.3,7.4,1.7,10.8c-0.4,0.6-1,1.1-1.7,1c-1.3-0.3-2.2-1.2-2.9-2.2
				c0.4,0.4,1,0.6,1.6,0.7c0.7,0.1,1.4-0.4,1.7-1c1.5-3.3,0.5-7.5-1.5-10.5C188.8,207.2,189.2,207.6,189.5,208.1L189.5,208.1z"/>
			<path class="st13" d="M185.3,215.8c-0.3-0.4-0.5-0.8-0.7-1.2c-1.4-2.9-2.1-6.3-0.8-9.2c0.3-0.8,1-1.4,1.8-1.4
				c0.6,0,1.1,0.3,1.5,0.7c-0.5,0.4-1,0.8-1.3,1.3C183.7,209.2,183.9,212.7,185.3,215.8L185.3,215.8z"/>
		</g>
		<path class="st12" d="M303.1,194.8c-2.1,1.5-5.4,2.1-7.8,0.9c-2.6-1.1-4.3-3.6-4.1-6.2c0-0.2,0-0.4,0-0.5c0.2,2.1,1.6,4,3.7,4.9
			c2.3,1.1,5.3,0.6,7.3-0.8c1-0.7,1.8-1.8,2.2-3c0.5-1.5,0.2-3.3-0.7-4.7c1.6,1.5,2.5,4.2,1.7,6.2
			C305,192.8,304.1,194.1,303.1,194.8L303.1,194.8z"/>
		<path class="st13" d="M297.3,183.6c1.6,0,2.9,1,2.9,2.2s-1.3,2.2-2.9,2.2c-1.6,0-2.9-1-2.9-2.2S295.7,183.6,297.3,183.6z"/>
		<path class="st14" d="M352.7,190.1c1.3,0,2.3,0.8,2.3,1.8s-1.1,1.8-2.3,1.8c-1.3,0-2.3-0.8-2.3-1.8S351.4,190.1,352.7,190.1z"/>
		<path class="st14" d="M232.2,191.5c1.4,0,2.5,0.8,2.5,1.9s-1.1,1.9-2.5,1.9c-1.4,0-2.5-0.8-2.5-1.9S230.8,191.5,232.2,191.5z"/>
		<path class="st9" d="M350.4,197.4c3.2,3.1,8.4,5.1,12.8,3.7c0.8-0.3,1.5-1,1.5-1.9c-0.2-1.6-1.1-2.9-2.2-3.9
			c0.4,0.6,0.6,1.3,0.7,2c0,0.9-0.7,1.6-1.5,1.9c-4.2,1.3-9.2-0.5-12.4-3.4C349.5,196.4,349.9,196.9,350.4,197.4L350.4,197.4z"/>
		<path class="st9" d="M233.6,200.6c4.4,0.4,9.8-1.3,12.3-5.1c0.4-0.7,0.6-1.7,0-2.4c-1.1-1.2-2.7-1.5-4.2-1.6
			c0.7,0.3,1.3,0.6,1.8,1.2c0.6,0.7,0.4,1.7,0,2.4c-2.4,3.7-7.5,5.3-11.8,5.1C232.4,200.4,233,200.5,233.6,200.6L233.6,200.6z"/>
		<polygon class="st8" points="248.7,739.3 248.7,768.5 267.5,770.4 267.5,770.4 296.7,772.6 321.8,770.7 321.8,770.7 345.5,768.5
			345.5,739.3 331.4,739.9 331.4,739.9 271.1,739.9 271.1,739.9 		"/>
		<path class="st8" d="M535.5,689l-15.2-15.5c-0.7,0.2-1.5,0.3-2.4,0.4c-0.9,0-1.8,0-2.7-0.3c-1.3-0.3-2.5-1.1-3.5-2
			c-1-1-1.8-2.1-2.3-3.3c-2.3,2.9-5,5.3-7.9,7.2c-2.9,1.9-6,3.5-9.1,4.9l27.1,27.6c3-2.9,5.9-6,8.6-9.2
			C530.7,695.6,533.1,692.3,535.5,689L535.5,689z M104.4,680.9c-3.4-1.4-6.7-3-9.8-5.1s-6-4.5-8.5-7.6c0,0,0,0.1,0,0.2l0,0.1
			c-0.7,1.7-2,3.2-3.6,4.1c-1.5,0.9-3.3,1.4-5.1,1.2l0,0c-0.1,0-0.3,0-0.4,0c-0.1,0-0.2,0-0.2,0L60.9,690c2.3,3.3,4.8,6.6,7.6,9.7
			c2.7,3.1,5.6,6.2,8.7,9.1L104.4,680.9L104.4,680.9z"/>
		<path class="st8" d="M574.2,450h-33.1c-2.9,14.3-4.6,29.4-5.2,44.7c-0.7,16.5-0.3,33.3,1.1,49.6l0,0l0.4,3.7h32.7
			c-1.1-12.7-1.6-25.8-1.5-38.9c0.1-11.9,0.7-23.8,2.1-35.2l0,0c0.4-4.1,1-8.2,1.6-12.3C572.8,457.8,573.5,453.8,574.2,450
			L574.2,450z M21.5,450c2.8,15.2,4.5,31.2,5.2,47.3c0.7,16.9,0.3,34.1-1.1,50.8h32.7l0.7-7.1l0,0c1.2-16,1.5-32.1,0.7-48
			c-0.7-14.7-2.4-29.1-5.2-43H21.5L21.5,450z"/>
		<path class="st8" d="M578.3,361.2h-27.5c0.6,2.8,1.1,5.6,1.4,8.5c0.4,3.1,0.5,6.2,0.6,9.3h30.8c-0.5-3.1-1.2-6.2-2.1-9.2
			C580.6,366.8,579.6,363.9,578.3,361.2z M577.2,604.1h-33l0.6,4.6l0,0c0.2,2.4,0.4,4.9,0.6,6.6c0.2,2.2,0.4,4.3,0.5,6.5h32
			c0-3,0-6-0.2-8.9C577.7,609.9,577.5,607,577.2,604.1z M17.6,621.8h32c0.3-4.3,0.7-8.6,1.1-12.8c0.1-1.2,0.2-2.5,0.4-3.6l0,0
			l0.2-1.5h-33c-0.3,2.9-0.5,5.9-0.6,8.9C17.6,616,17.5,618.9,17.6,621.8L17.6,621.8z M12,378.9h30.7c0.1-3.1,0.3-6.2,0.7-9.2
			c0.4-2.9,0.8-5.8,1.5-8.6H17.2c-1.2,2.7-2.3,5.6-3.2,8.5C13.1,372.7,12.5,375.8,12,378.9L12,378.9z"/>
		<path class="st8" d="M566,290h-44.9l-1.8,2.9l0,0l0,0l0,0c-2,3.4-3.6,7-5,10.7c-1.3,3.7-2.4,7.4-3.2,11.3h41.5
			c0.4-1.1,0.9-2.2,1.4-3.2c0.5-1.1,1.1-2.2,1.6-3.3l0,0L566,290z M29.7,290l8,14.4l0,0c1,1.7,1.9,3.5,2.8,5.3
			c0.8,1.7,1.6,3.5,2.4,5.3h41.5c-0.3-1.2-0.5-2.3-0.8-3.5c-0.4-1.3-0.7-2.6-1.1-3.8l0,0c-0.9-3.1-2.1-6.2-3.5-9.2
			c-1.4-2.9-2.9-5.7-4.5-8.5H29.7L29.7,290z"/>
		<path class="st8" d="M103.4,153.5l-15.8,16.2c2.7,1,5.4,2.1,8,3.3c2.8,1.3,5.5,2.6,8.2,4l0,0l7,4.3l17.8-18.2
			c-3.9-2.2-7.9-4.3-12-6C112.3,155.5,108,154.2,103.4,153.5z M468.2,162.6l17.7,18.1l2.9-1.8h0l9-4.8l0,0c2-0.9,4-1.8,5.9-2.6
			c1.8-0.7,3.7-1.5,5.6-2.2l-15.6-15.9c-4.8,0.5-9.2,1.7-13.5,3.3C476.2,158.4,472.1,160.4,468.2,162.6L468.2,162.6z"/>
		<path class="st6" d="M474.2,199.2l4.9-3.4l17-10.7c9.2-4.8,18.5-9.2,29.4-9.9c1.6,0,3.4,0,4.4,1.5c1.1,6-1.2,11.2-5.5,15.4
			c-7.5,8.1-17.9,9.9-24.7,19.1c-2.7,3.7-4.5,7.9-5,12.5L474.2,199.2L474.2,199.2z"/>
		<path class="st3" d="M122.9,200.2l17,11.8c14.5,9.8,30.7,15.4,47.6,19.3c-0.4,1.5-0.7,3.1-0.5,4.8H98.9L99,643.3
			c0.4,12.3,7.7,25,19.9,29c6.9,2.6,14.7,3.1,22.8,3l123.3,0.1c11.8,3.2,23.9,13.2,28.5,25c1.9,4.2,3.2,8.7,4.4,13.1
			c2.6-9.2,5.8-18.3,12.7-25.8c5.9-6.3,13-10,20.6-12.4l130,0c12.7-0.6,25.8-4.8,31.8-17.1c2.5-5.1,3.6-10.7,3.8-16.7V236.2h-94.6
			c0.1-4.9-2.2-8.8-5.7-12.3c1.6,0.3,3.3,0.2,4.8-0.5c1.1,0.1,2.3-0.1,3.3-0.3c-0.1,0.4-0.6,0.7-0.9,0.9c-1.3,1.7-0.6,4.4,0.3,6.1
			c1.8,3.1,5.3,0.5,7.8,0.4c17.4-4.1,33.8-10.8,48.6-21.4l13-9.1l21.4,25.7c0,0.8,0,1.6,0.1,2.5c0.6,3,3.5,6.1,6.5,6.7
			c6.8,1,15.1,1.2,21.4-1.1c4.5,2.5,8.4,7.3,8.7,12.5c0,9.6-5.1,17.2-9.5,25.1l-11,18c-15.4,27.5-12.5,66.5-5.6,96.9
			c1.6,5.9,3.6,13.1,10.3,15.2c2.5,0.7,5.1,0,7.2-1.1l19.8-3c-0.6,5.9-1.7,11.6-2.8,17.4l-4.8,21.2c-8.3,32.9-10.3,70-7.4,106.1
			l1.9,20l2.7,21.1l2.9,21.4l1.3,13.4c-2.1-0.5-4.9-0.2-6.5,1.5c-1.8-2.7-4.9-5.2-8.7-4.7c-6.9,1.1-9.5,8.7-11.4,14.2
			c-2.7,7.8-3.4,16.5-4.6,25c-3,15.5-20.2,19.3-32.3,23.7c-8.6,3.5-19.5,2.4-26,10.3c-1.6,2.2-2.2,5.4-1.2,8.1
			c0.6,1.8,1.9,3.3,3.4,4.7l3.5,12.4c-23.2,7.8-47.9,12.1-73.3,14.7l-22.6,1.7l-20.2,0.8l-20.2,0.3h-31.3l-22.9-0.1l-22.8-0.9
			l-19.5-1.5c-26.7-2.5-52.6-7-77.1-15.1l3.3-12.3c3.3-2.3,4.7-6.1,3.8-9.9c-2-6.8-9.4-8.6-15.2-10.1c-11.8-2.8-23.2-6.1-33.6-12
			c-8.1-4.3-11.4-12.7-11.8-21.1c-0.9-9.5-2.9-18.6-7-26.7c-1.8-3-4.8-6-8.5-6.2c-3.5-0.3-6.4,1.8-8.2,4.8c-1.5-1.8-4.3-2.1-6.6-1.5
			l1.6-15.5l4.9-36l2.2-22c2.7-32.2,1.8-66.4-4.4-96.6L56,415.4c-1.1-5.9-2.3-11.9-3-18l20.5,3.2c2.8,1.7,7.1,1.4,9.6-0.6
			c4.9-4.1,6.3-10,7.6-15.7c6.2-29.6,9-66.8-5.3-93.6c-6.4-12.1-15.3-23.2-19.9-36.1c-2-5.6-1.9-13.1,2.8-17.4
			c1.4-1.5,2.9-2.4,4.4-3.6c6.3,2.4,14.6,2.1,21.5,1.1c3-0.6,5.7-3.5,6.6-6.3c0-0.7,0.1-1.3,0.1-1.9L122.9,200.2L122.9,200.2z"/>
		<path class="st6" d="M95.4,183.1c7.6,3.7,14.7,8.6,21.8,13.2l4.6,3.2l-20.9,25c-0.6-9-6.3-16.5-14.1-21.4
			c-8.9-5.1-22.6-12.5-21.4-25c0.1-0.8,0.3-1.9,1.2-2.3c4-1.2,8.2,0,12,0.8C84.4,178.2,90,180.4,95.4,183.1L95.4,183.1z"/>
		<path class="st15" d="M367.9,235.7H223.7c12.1-7.6,39.9-12.9,72.1-12.9S355.8,228.1,367.9,235.7L367.9,235.7z"/>
	</g>
</g>
</svg>
