<?xml version="1.0" encoding="UTF-8" standalone="no"?>
<!-- Created with sK1/UniConvertor (http://sk1project.org/) -->

<svg
   xmlns:dc="http://purl.org/dc/elements/1.1/"
   xmlns:cc="http://creativecommons.org/ns#"
   xmlns:rdf="http://www.w3.org/1999/02/22-rdf-syntax-ns#"
   xmlns:svg="http://www.w3.org/2000/svg"
   xmlns="http://www.w3.org/2000/svg"
   xmlns:sodipodi="http://sodipodi.sourceforge.net/DTD/sodipodi-0.dtd"
   xmlns:inkscape="http://www.inkscape.org/namespaces/inkscape"
   width="483.41257"
   height="600"
   viewBox="0 0 386.73007 479.99998"
   id="svg2"
   version="1.1"
   inkscape:version="0.48.0 r9654"
   sodipodi:docname="Coat of arms of Irkutsk Oblast.svg"
   style="fill-rule:evenodd">
  <metadata
     id="metadata74">
    <rdf:RDF>
      <cc:Work
         rdf:about="">
        <dc:format>image/svg+xml</dc:format>
        <dc:type
           rdf:resource="http://purl.org/dc/dcmitype/StillImage" />
        <dc:title />
      </cc:Work>
    </rdf:RDF>
  </metadata>
  <defs
     id="defs72" />
  <sodipodi:namedview
     pagecolor="#ffffff"
     bordercolor="#666666"
     borderopacity="1"
     objecttolerance="10"
     gridtolerance="10"
     guidetolerance="10"
     inkscape:pageopacity="0"
     inkscape:pageshadow="2"
     inkscape:window-width="1920"
     inkscape:window-height="1058"
     id="namedview70"
     showgrid="false"
     inkscape:zoom="0.55304135"
     inkscape:cx="191.83935"
     inkscape:cy="85.336093"
     inkscape:window-x="-8"
     inkscape:window-y="-8"
     inkscape:window-maximized="1"
     inkscape:current-layer="layer1"
     fit-margin-top="0"
     fit-margin-left="0"
     fit-margin-right="0"
     fit-margin-bottom="0" />
  <g
     inkscape:groupmode="layer"
     id="layer1"
     inkscape:label="Default"
     transform="translate(-270.24646,-267.69368)">
    <g
       id="g14"
       transform="matrix(1.4199798,0,0,1.4199798,61.097631,-285.25927)">
      <path
         style="fill:#efefef;stroke:#000000;stroke-width:0.01388980000000000;fill-opacity:1"
         d="M 412.248,692.953 C 407.17,699.264 399.223,699.793 391.627,699.973 L 316.27,700.172 C 301.877,700.209 293.077,715.539 284.626,724.946 275.936,715.788 270.375,701.332 256.238,700.116 230.322,697.887 203.591,701.177 177.521,699.835 163.285,698.599 151.576,693.381 150.398,677.807 L 150.35,391.291 419.151,391.291 419.134,658.884 C 418.93,669.634 418.649,683.79 412.248,692.953 z"
         id="path16"
         inkscape:connector-curvature="0" />
      <path
         style="fill:#000000;stroke:none"
         d="M 412.341,693.953 C 409.53,697.447 405.955,699.333 402.047,700.365 398.278,701.361 394.28,701.546 390.383,701.638 L 390.341,701.638 314.984,701.837 C 304.286,701.865 296.621,711.381 289.82,719.828 288.051,722.024 286.337,724.153 284.658,726.022 L 283.382,727.442 282.059,726.057 282.034,726.03 C 279.554,723.412 277.359,720.431 275.156,717.438 269.722,710.054 264.227,702.591 254.807,701.781 L 254.738,701.775 C 240.722,700.575 226.488,700.991 212.251,701.408 200.174,701.762 188.094,702.115 176.146,701.5 L 176.083,701.5 C 168.692,700.858 161.914,699.155 156.759,695.537 151.477,691.832 147.972,686.211 147.339,677.83 L 147.339,677.699 147.29,391.182 147.29,389.409 149.064,389.409 417.866,389.409 419.639,389.409 419.639,391.182 419.622,658.775 419.622,658.803 C 419.52,664.225 419.397,670.508 418.483,676.662 417.55,682.936 415.796,689.027 412.417,693.863 L 412.341,693.953 z M 401.146,696.942 C 404.344,696.097 407.254,694.585 409.509,691.827 L 409.507,691.826 C 412.53,687.5 414.118,681.929 414.977,676.148 415.854,670.247 415.974,664.075 416.075,658.747 L 416.092,392.956 150.838,392.956 150.886,677.567 C 151.43,684.759 154.371,689.536 158.796,692.641 163.348,695.835 169.545,697.359 176.388,697.952 L 176.388,697.956 C 188.215,698.561 200.187,698.211 212.154,697.861 226.535,697.44 240.914,697.019 255.029,698.227 L 255.098,698.233 C 266.112,699.18 272.094,707.306 278.011,715.345 279.749,717.707 281.482,720.062 283.315,722.176 284.551,720.729 285.793,719.187 287.062,717.611 294.366,708.54 302.597,698.321 314.984,698.289 L 390.3,698.091 C 393.998,698.003 397.773,697.833 401.146,696.942 z"
         id="path18"
         inkscape:connector-curvature="0" />
      <g
         id="g20">
        <path
           style="fill:#2c2c2b;stroke:none"
           d="M 182.338,498.16 C 186.084,498.008 189.801,497.968 193.325,498.718 193.383,496.236 192.186,491.567 193.5,491.27 200.2,490.561 204.703,489.208 206.654,486.618 209.715,482.553 217.792,481.795 227.415,481.781 232.707,477.066 236.395,478.488 238.563,484.536 246.518,483.708 248.783,486.468 245.358,492.817 250.129,498.637 254.872,506.372 260.761,518.025 268.154,520.042 276.385,523.634 284.45,527.453 289.296,530.168 294.148,530.509 298.989,529.168 315.388,524.629 330.97,522.889 345.224,525.449 352.784,526.806 356.112,525.382 356.747,522.79 364.614,490.68 367.307,491.076 371.138,480.068 374.525,470.336 376.853,467.03 382.33,464.877 389.254,462.153 395.09,461.462 400.594,462.095 395.209,476.241 392.217,490.177 392.884,504.368 393.438,516.158 382.752,532.614 375.559,536.037 370.411,538.487 369.581,540.546 371.538,543.357 374.662,547.848 375.687,554.281 375.705,563.542 375.74,581.731 383.222,587.635 394.072,592.788 394.737,596.127 395.011,600.168 394.56,603.732 389.269,607.833 387.613,616.338 385.904,625.612 382.315,623.182 378.662,620.023 375.742,615.801 368.475,617.544 363.163,619.849 362.148,623.388 360.592,620.228 362.551,616.564 362.252,610.883 358.785,610.389 355.318,610.484 351.853,612.685 350.782,609.31 353.066,606.752 360.256,605.394 362.797,602.889 365.43,601.055 368.281,600.423 370.24,599.989 372.051,598.456 373.832,596.318 366.579,595.549 358.925,593.41 350.557,588.831 349.277,595.525 344.349,597.951 335.672,596.811 332.624,596.411 332.099,597.714 334.162,600.016 340.884,607.677 342.887,611.617 337.78,611.988 327.969,612.701 320.462,616.167 316.087,622.56 308.689,622.628 303.087,623.493 301.933,626.685 300.951,623.913 306.213,618.246 299.312,618.047 295.454,617.936 291.829,619.114 288.213,623.02 288.341,619.803 289.468,616.627 291.064,613.373 293.807,607.783 291.102,607.717 285.509,610.833 285.878,606.702 287.923,604.7 291.643,604.83 294.16,603.961 295.84,601.411 299.194,602.224 306.185,604.409 310.808,604.836 311.893,602.824 313.793,599.303 309.643,594.978 307.318,592.203 304.205,588.487 305.678,584.912 308.878,578.956 303.732,581.153 297.376,583.295 291.119,584.391 277.676,586.746 266.004,587.456 257.477,584.675 256.005,586.348 254.757,587.346 253.735,587.674 L 201.192,590.316 C 196.672,594.162 191,597.065 185.366,596.651 L 181.725,600.315 C 180.633,599.129 180.586,596.709 181.506,593.06 178.981,593.48 176.546,595.177 174.245,598.739 173.675,594.292 174.563,590.909 176.449,588.256 175.545,585.744 173.636,585.81 170.723,588.455 171.111,580.192 176.58,577.594 182.527,578.112 195.049,579.204 204.102,577.965 210.336,576.78 227.269,573.56 223.752,570.452 218.549,567.254 210.459,567.687 199.711,569.051 190.601,570.977 186.487,572.926 182.428,574.002 178.926,574.159 176.224,575.153 174.169,576.215 173.074,577.315 L 173.018,573.409 171.479,574.223 169.941,575.038 C 169.479,570.702 171.231,569.266 171.251,565.39 171.098,562.287 172.79,560.164 175.726,558.105 179.373,555.548 199.208,555.063 211.184,553.465 L 219.999,539.276 211.023,518.433 197.927,512.072 C 196.778,509.336 196.466,504.583 194.48,503.865 L 189.14,507.549 192.195,503.122 184.399,506.039 190.258,501.49 182.171,502.995 188.607,499.889 182.338,498.16 z M 204.025,500.152 C 208.161,498.636 210.762,498.95 213.932,499.208 L 208.648,501.406 C 212.63,501.613 215.892,502.015 218.104,502.705 216.608,503.339 213.301,503.369 210.9,503.701 L 219.546,506.815 210.308,506.378 216.286,511.282 C 212.053,509.547 207.863,507.599 203.792,505.06 203.343,503.657 203.668,501.715 204.025,500.152 z M 212.649,489.088 C 213.357,489.183 213.792,490.31 213.617,491.595 213.444,492.88 212.724,493.85 212.015,493.753 211.307,493.658 210.871,492.531 211.046,491.246 211.22,489.961 211.939,488.991 212.649,489.088 z M 246.086,536.702 C 250.413,534.597 254.092,533.47 257.343,533.686 L 255.265,536.702 C 252.388,536.885 249.405,538.025 246.375,539.601 L 249.134,536.94 246.086,536.702 z M 245.335,542.21 C 248.588,540.547 251.993,539.194 255.553,538.152 256.207,538.21 256.111,538.673 255.727,539.427 251.897,540.408 248.836,541.964 245.624,543.718 245.239,543.274 245.085,542.945 245.335,542.21 z M 245.451,545.806 C 247.855,543.905 250.261,542.833 252.667,542.326 253.205,542.926 252.974,543.525 251.974,544.124 L 246.202,546.792 C 245.258,546.927 245.066,546.192 245.451,545.806 z M 246.721,549.227 249.723,548.357 248.222,549.865 245.912,550.386 246.721,549.227 z M 339.348,549.103 344.034,554.468 343.966,556.438 338.601,550.325 339.348,549.103 z M 337.174,551.208 343.355,558.747 343.151,560.581 336.699,552.634 337.174,551.208 z M 335.205,554.061 342.608,561.803 342.608,563.705 334.933,555.487 335.205,554.061 z M 334.254,556.845 341.861,566.014 341.453,567.576 333.643,558.203 334.254,556.845 z"
           id="path22"
           inkscape:connector-curvature="0" />
        <g
           id="g24">
          <path
             style="fill:#e21c2a;stroke:none"
             d="M 184.159,521.613 C 186.357,514.961 190.24,509.14 199.528,507.158 201.793,506.675 203.011,509.059 204.11,508.547 204.839,508.212 205.278,507.032 206.296,507.542 210.753,509.777 213.519,512.97 215.777,516.246 220.62,523.273 224.357,530.458 224.27,538.386 L 230.365,547.98 C 230.683,555.836 232.003,561.787 234.501,568.401 235.31,573.569 234.096,575.005 230.862,572.708 234.992,591.903 234.826,605.79 228.378,611.919 218.596,604.613 216.893,586.307 220.763,559.086 221.729,552.292 220.464,546.848 218.594,542.54 219.054,545.734 218.232,549.142 216.826,552.648 219.673,558.182 218.607,566.609 214.299,577.433 214.172,571.751 213.306,566.622 211.936,561.874 209.775,554.715 210.201,548.683 211.466,542.146 205.256,534.791 203.207,527.669 206.021,521.249 206.1,516.36 204.002,516.139 199.726,520.586 L 199.758,529.281 C 202.591,536.388 203.766,542.333 202.133,546.11 199.36,552.525 198.095,556.019 198.452,562.168 198.778,567.803 197.292,571.86 195.009,570.266 192.829,568.744 192.307,565.83 193.29,561.747 194.369,552.459 194.165,546.809 193.378,542.813 192.111,545.269 191.773,550.928 189.576,555.083 187.433,559.133 186,560.042 184.913,557.623 184.158,554.718 182.468,552.437 179.846,550.778 179.797,548.827 178.659,547.498 176.433,546.794 181.692,537.583 181.404,529.949 184.159,521.613 z"
             id="path26"
             inkscape:connector-curvature="0" />
          <path
             style="fill:#e21c2a;stroke:none"
             d="M 184.246,557.145 C 185.058,559.066 186.137,559.958 187.286,558.911 187.514,561.525 186.876,564.695 184.504,566.244 182.477,567.566 181.307,566.088 182.05,563.449 182.607,561.472 183.521,559.947 184.246,557.145 z"
             id="path28"
             inkscape:connector-curvature="0" />
        </g>
        <g
           id="g30">
          <path
             style="fill:none;stroke:#ffffff;stroke-width:1.16094005"
             d="M 364.667,509.589 372.252,505.329"
             id="path32"
             inkscape:connector-curvature="0" />
          <path
             style="fill:none;stroke:#ffffff;stroke-width:1.16094005"
             d="M 365.29,505.329 C 368.857,503.182 372.424,501.45 375.992,500.133"
             id="path34"
             inkscape:connector-curvature="0" />
          <path
             style="fill:none;stroke:#ffffff;stroke-width:1.16094005"
             d="M 367.68,498.367 C 371.247,496.22 374.814,494.489 378.382,493.172"
             id="path36"
             inkscape:connector-curvature="0" />
          <path
             style="fill:none;stroke:#ffffff;stroke-width:1.16094005"
             d="M 368.719,491.821 C 372.286,489.674 375.853,487.943 379.421,486.626"
             id="path38"
             inkscape:connector-curvature="0" />
          <path
             style="fill:none;stroke:#ffffff;stroke-width:1.16094005"
             d="M 372.148,485.171 C 375.715,483.025 379.282,481.293 382.85,479.976"
             id="path40"
             inkscape:connector-curvature="0" />
          <path
             style="fill:none;stroke:#ffffff;stroke-width:1.16094005"
             d="M 374.33,480.184 C 377.897,478.037 381.464,476.306 385.032,474.989"
             id="path42"
             inkscape:connector-curvature="0" />
          <path
             style="fill:none;stroke:#ffffff;stroke-width:1.16094005"
             d="M 375.265,475.508 C 378.832,473.362 381.775,471.63 385.343,470.313"
             id="path44"
             inkscape:connector-curvature="0" />
          <path
             style="fill:none;stroke:#ffffff;stroke-width:1.10936999"
             d="M 381.653,486.229 C 379.916,483.127 377.614,479.358 374.592,477.047"
             id="path46"
             inkscape:connector-curvature="0" />
          <path
             style="fill:none;stroke:#ffffff;stroke-width:1.10936999"
             d="M 383.627,483.216 C 381.89,480.114 379.588,476.76 376.567,474.45"
             id="path48"
             inkscape:connector-curvature="0" />
          <path
             style="fill:none;stroke:#ffffff;stroke-width:1.10936999"
             d="M 384.355,479.371 C 382.618,476.269 380.627,474.059 377.606,471.748"
             id="path50"
             inkscape:connector-curvature="0" />
          <path
             style="fill:none;stroke:#ffffff;stroke-width:1.10936999"
             d="M 385.81,476.774 C 384.073,473.671 382.705,471.981 379.684,469.67"
             id="path52"
             inkscape:connector-curvature="0" />
          <path
             style="fill:none;stroke:#ffffff;stroke-width:1.10936999"
             d="M 379.991,487.891 C 378.254,484.789 376.886,483.098 373.865,480.788"
             id="path54"
             inkscape:connector-curvature="0" />
          <path
             style="fill:none;stroke:#ffffff;stroke-width:1.10936999"
             d="M 378.537,490.801 C 376.799,487.698 375.432,486.008 372.41,483.697"
             id="path56"
             inkscape:connector-curvature="0" />
          <path
             style="fill:none;stroke:#ffffff;stroke-width:1.10936999"
             d="M 377.394,494.022 C 375.657,490.919 374.289,489.229 371.267,486.918"
             id="path58"
             inkscape:connector-curvature="0" />
          <path
             style="fill:none;stroke:#ffffff;stroke-width:1.10936999"
             d="M 376.874,497.554 C 375.137,494.452 373.042,491.618 370.021,489.308"
             id="path60"
             inkscape:connector-curvature="0" />
          <path
             style="fill:none;stroke:#ffffff;stroke-width:1.10936999"
             d="M 375.939,500.879 C 373.76,497.924 372.341,496.009 369.709,493.568"
             id="path62"
             inkscape:connector-curvature="0" />
          <path
             style="fill:none;stroke:#ffffff;stroke-width:1.10936999"
             d="M 374.38,503.996 C 372.202,501.041 370.782,499.126 368.15,496.685"
             id="path64"
             inkscape:connector-curvature="0" />
          <path
             style="fill:none;stroke:#ffffff;stroke-width:1.10936999"
             d="M 373.134,506.698 C 370.955,503.743 368.912,501.516 366.28,499.075"
             id="path66"
             inkscape:connector-curvature="0" />
        </g>
        <path
           style="fill:#e21c2a;stroke:#2c2c2b;stroke-width:0.21600001"
           d="M 212.732,489.125 C 214.463,489.125 215.869,490.354 215.869,491.869 215.869,493.384 214.463,494.614 212.732,494.614 211,494.614 209.595,493.384 209.595,491.869 209.595,490.354 211,489.125 212.732,489.125 z"
           id="path68"
           inkscape:connector-curvature="0" />
      </g>
    </g>
  </g>
</svg>
