<?xml version="1.0" encoding="UTF-8" standalone="no"?>
<svg
   xmlns:dc="http://purl.org/dc/elements/1.1/"
   xmlns:cc="http://creativecommons.org/ns#"
   xmlns:rdf="http://www.w3.org/1999/02/22-rdf-syntax-ns#"
   xmlns:svg="http://www.w3.org/2000/svg"
   xmlns="http://www.w3.org/2000/svg"
   xmlns:sodipodi="http://sodipodi.sourceforge.net/DTD/sodipodi-0.dtd"
   xmlns:inkscape="http://www.inkscape.org/namespaces/inkscape"
   width="384.17612"
   height="480"
   id="svg3164"
   version="1.1"
   inkscape:version="0.47 r22583"
   sodipodi:docname="Coat_of_Arms_of_Kamchatka_Krai.svg">
  <metadata
     id="metadata3252">
    <rdf:RDF>
      <cc:Work
         rdf:about="">
        <dc:format>image/svg+xml</dc:format>
        <dc:type
           rdf:resource="http://purl.org/dc/dcmitype/StillImage" />
        <dc:title />
      </cc:Work>
    </rdf:RDF>
  </metadata>
  <sodipodi:namedview
     pagecolor="#ffffff"
     bordercolor="#666666"
     borderopacity="1"
     objecttolerance="10"
     gridtolerance="10"
     guidetolerance="10"
     inkscape:pageopacity="0"
     inkscape:pageshadow="2"
     inkscape:window-width="1280"
     inkscape:window-height="972"
     id="namedview3250"
     showgrid="false"
     inkscape:zoom="1"
     inkscape:cx="480.05383"
     inkscape:cy="338.50243"
     inkscape:window-x="-8"
     inkscape:window-y="-8"
     inkscape:window-maximized="1"
     inkscape:current-layer="g4190" />
  <defs
     id="defs3166" />
  <g
     id="g3174"
     transform="translate(-0.819453,-81.824232)">
    <g
       id="g3176">
      <g
         transform="translate(-13.224013,49.632622)"
         id="g3182">
        <g
           id="g4190"
           transform="translate(-70.940077,129.99342)">
          <path
             id="path3184"
             d="m 468.38573,-97.80181 0.76243,419.64362 c 0.005,0.24648 0.0115,0.50445 0.0115,0.75256 0,16.64025 -13.49523,30.13549 -30.13382,30.13549 -0.0822,0 -0.16104,0.2974 -0.24319,0.2974 l -127.9032,-0.10024 c -16.08321,0 -32.8516,13.21918 -33.63868,29.26952 l -0.0115,0 C 276.44054,366.1462 259.3468,352.92702 243.26525,352.92702 l -127.90485,0.10024 c -0.0822,0 -0.16103,-0.2974 -0.24319,-0.2974 -16.638597,0 -30.133667,-13.49524 -30.133667,-30.13549 0,-0.24811 0.0067,-0.50608 0.01134,-0.75256 l 0.783291,-419.643127 382.607556,-4.93e-4 z"
             style="fill:#ffffff;stroke:none" />
          <path
             id="path3186"
             d="m 469.14816,321.84181 c 0.005,0.24648 0.0115,0.50281 0.0115,0.75421 0,16.6386 -13.49523,30.13384 -30.13382,30.13384 -0.0822,0 -0.16104,0.2974 -0.24319,0.2974 l -127.9032,-0.10024 c -16.08321,0 -32.8516,13.21918 -33.63868,29.27117 l -0.01,0 C 276.4404,366.1462 259.34666,352.92702 243.26511,352.92702 l -127.90486,0.10024 c -0.0822,0 -0.16102,-0.2974 -0.24318,-0.2974 -16.176379,0 -29.379624,-12.75746 -30.100641,-28.75687 l 0,-13.34571 0.145255,-76.05344 1.933665,1.14198 c 35.887491,-1.70393 54.865951,-27.36838 91.777781,-27.605 11.70748,-0.0756 25.80247,2.99876 40.4742,9.10308 23.65487,9.84251 49.44748,23.58257 74.05701,15.79894 38.66673,-12.23001 57.23275,-27.81534 87.24826,-24.04429 29.71319,3.73489 58.20057,21.98213 88.18651,27.46534 l 0.30891,85.40792 z"
             style="color:#000000;fill:#0051ba;fill-opacity:1;fill-rule:nonzero;stroke:none;stroke-width:0.66666669;marker:none;visibility:visible;display:inline;overflow:visible;enable-background:accumulate" />
          <path
             id="path3188"
             d="m 85.185158,191.57903 c 25.837302,-12.91684 66.094602,-50.3627 90.699212,-81.70425 l 16.91629,-21.471109 -3.42433,15.207399 11.7732,-19.740865 -6.13719,24.234895 19.09018,-17.895601 1.71546,26.477801 13.87972,-27.907346 13.26356,19.509186 0.0887,-18.18316 44.61166,33.53352 -20.99131,-26.308566 19.28079,12.796896 6.97027,-16.579439 24.76892,23.406749 -1.46734,-17.023099 45.89333,26.490959 -28.04374,-21.20821 17.18249,5.86936 5.00834,-9.57302 12.27271,9.36598 -0.56031,-10.5622 20.21245,22.64761 c 19.60943,21.4218 61.51645,55.77853 80.7693,68.70853 l 0,22.2319 c -29.98594,-5.48321 -58.42239,-24.14617 -88.1372,-27.88106 -30.01552,-3.7727 -48.57989,11.81428 -87.24662,24.04264 -24.61118,7.78363 -50.40215,-5.95479 -74.05701,-15.7973 -14.67174,-6.10431 -28.76672,-9.17866 -40.47421,-9.10307 -36.91347,0.23661 -55.89192,25.90106 -91.778268,27.60337 l -2.079084,-1.22745 0,-19.96105 z"
             style="fill:#000000;stroke:#000000;stroke-width:0.35496593" />
          <path
             id="path3190"
             d="m 224.67294,9.7622582 c -1.57085,1.0006818 -4.55647,6.2292018 -5.56536,11.5365928 -1.53964,-1.482126 -3.08093,-2.964251 -4.62057,-4.448021 -3.18443,6.868389 3.72998,22.951593 6.29986,30.613626 l 7.80664,0 c 2.5699,-7.662033 9.48429,-23.745237 6.29985,-30.613626 -1.53963,1.48377 -3.0809,2.965895 -4.62054,4.448021 -1.0089,-5.307391 -4.02902,-10.535911 -5.59988,-11.5365928 z"
             style="color:#000000;fill:#d81e05;fill-opacity:1;fill-rule:nonzero;stroke:none;stroke-width:0.66666669;marker:none;visibility:visible;display:inline;overflow:visible;enable-background:accumulate" />
          <path
             id="path3192"
             d="m 288.86609,26.97431 c -1.57086,1.000681 -4.55647,6.229202 -5.56537,11.536593 -1.54128,-1.482125 -3.08092,-2.964252 -4.62055,-4.446378 -3.18443,6.866746 3.72831,22.951593 6.29821,30.611984 l 7.80828,0 c 2.56989,-7.660391 9.48429,-23.745238 6.29821,-30.611984 -1.53963,1.482126 -3.07928,2.964253 -4.62055,4.446378 -1.00725,-5.307391 -4.02738,-10.535912 -5.59823,-11.536593 z"
             style="color:#000000;fill:#d81e05;fill-opacity:1;fill-rule:nonzero;stroke:none;stroke-width:0.66666669;marker:none;visibility:visible;display:inline;overflow:visible;enable-background:accumulate" />
          <path
             id="path3194"
             d="m 352.37898,41.008499 c -1.57086,0.999039 -4.55648,6.227559 -5.56537,11.536594 -1.53964,-1.483769 -3.08092,-2.965895 -4.62056,-4.448022 -3.18443,6.866746 3.72996,22.951593 6.29986,30.611983 l 7.80662,0 c 2.56991,-7.66039 9.48431,-23.745237 6.29986,-30.611983 -1.53963,1.482127 -3.08091,2.964253 -4.62055,4.448022 -1.0089,-5.309035 -4.02901,-10.537555 -5.59986,-11.536594 z"
             style="color:#000000;fill:#d81e05;fill-opacity:1;fill-rule:nonzero;stroke:none;stroke-width:0.66666669;marker:none;visibility:visible;display:inline;overflow:visible;enable-background:accumulate" />
          <path
             id="path3196"
             d="m 277.06166,-40.784486 c 74.14739,0 134.32137,60.193709 134.32137,134.321375 0,13.991461 -2.14595,27.481771 -6.1224,40.166941 -16.53506,-14.80319 -33.65346,-38.722608 -45.16869,-52.416664 l 7.54537,-20.202595 c 1.00397,-2.941249 1.5495,-6.059957 1.36382,-9.078433 -0.23003,-3.780901 -2.20183,-7.548655 -4.50882,-11.265473 l -4.34615,3.818693 c -1.44105,-4.09803 -3.79075,-7.252887 -7.62423,-9.576309 -3.64288,2.321778 -6.12405,5.468421 -7.60124,9.566451 l -4.40859,-3.955076 c -2.16731,3.669166 -4.1046,7.354763 -4.36257,11.032145 -0.56361,8.085967 6.16347,21.834248 8.79416,29.039484 -5.27617,6.756654 -11.05351,13.385143 -17.47495,18.59394 C 315.94036,89.971241 307.35488,80.567464 297.026,67.936528 l 7.36133,-20.884503 c 1.00398,-2.941249 1.5495,-6.059957 1.36382,-9.080077 -0.23004,-3.779256 -2.20183,-7.547011 -4.50881,-11.263829 l -4.34614,3.817049 c -1.44106,-4.098028 -3.79077,-7.251243 -7.62425,-9.574665 -3.64288,2.320135 -6.12405,5.468421 -7.60124,9.566451 l -4.40859,-3.955077 c -2.16731,3.669167 -4.10459,7.354764 -4.36257,11.032146 -0.21854,3.143356 0.26291,6.39516 1.35067,9.423495 l 7.53386,20.950231 c -5.6886,8.383378 -14.15741,16.142357 -22.51614,22.838215 -11.7765,-13.799218 -19.18385,-26.747282 -26.65856,-40.83241 l 7.58481,-20.335689 c 1.00396,-2.942891 1.54949,-6.059957 1.36381,-9.080076 -0.23004,-3.779258 -2.20182,-7.547013 -4.50882,-11.2638311 l -4.34449,3.8170511 C 231.262,9.0129788 228.91228,5.8597643 225.0788,3.5363426 c -3.64287,2.3201353 -6.1224,5.4667776 -7.60123,9.5664494 l -4.4086,-3.9550741 c -2.16567,3.6691661 -4.1046,7.3547631 -4.36257,11.0321451 -0.21854,3.143355 0.2629,6.395161 1.35068,9.423496 l 5.74939,19.675141 c -4.52525,6.518398 -19.70964,27.468628 -35.00249,47.273578 -13.49523,17.476602 -26.84916,32.851602 -31.16408,37.850082 -4.45131,-13.48373 -6.87989,-26.49095 -6.87989,-40.865271 0,-74.127666 60.1937,-134.321375 134.30165,-134.321375 z"
             style="color:#000000;fill:#d81e05;fill-opacity:1;fill-rule:nonzero;stroke:none;stroke-width:0.66666669;marker:none;visibility:visible;display:inline;overflow:visible;enable-background:accumulate" />
          <path
             id="path3198"
             d="m 236.03865,-65.155766 29.71483,-4.733929 -12.77555,15.000365 -16.93928,-10.266436 z"
             style="color:#000000;fill:#0051ba;fill-opacity:1;fill-rule:nonzero;stroke:none;stroke-width:0.66666669;marker:none;visibility:visible;display:inline;overflow:visible;enable-background:accumulate" />
          <path
             id="path3200"
             d="m 288.16939,-69.938991 29.70825,4.77501 -16.81934,10.264791 -12.88891,-15.039801 z"
             style="color:#000000;fill:#0051ba;fill-opacity:1;fill-rule:nonzero;stroke:none;stroke-width:0.66666669;marker:none;visibility:visible;display:inline;overflow:visible;enable-background:accumulate" />
          <path
             id="path3202"
             d="m 339.77597,-57.978463 26.67992,13.909311 -19.19863,4.429946 -7.48129,-18.339257 z"
             style="color:#000000;fill:#0051ba;fill-opacity:1;fill-rule:nonzero;stroke:none;stroke-width:0.66666669;marker:none;visibility:visible;display:inline;overflow:visible;enable-background:accumulate" />
          <path
             id="path3204"
             d="m 384.89866,-30.394815 20.93872,21.6107791 -19.61763,-1.8469061 -1.32109,-19.763873 z"
             style="color:#000000;fill:#0051ba;fill-opacity:1;fill-rule:nonzero;stroke:none;stroke-width:0.66666669;marker:none;visibility:visible;display:inline;overflow:visible;enable-background:accumulate" />
          <path
             id="path3206"
             d="m 419.2406,10.357081 12.99243,27.139996 -18.01391,-7.979163 5.02148,-19.160833 z"
             style="color:#000000;fill:#0051ba;fill-opacity:1;fill-rule:nonzero;stroke:none;stroke-width:0.66666669;marker:none;visibility:visible;display:inline;overflow:visible;enable-background:accumulate" />
          <path
             id="path3208"
             d="m 438.71035,59.203158 3.83184,29.844629 -14.60601,-13.224112 10.77417,-16.620517 z"
             style="color:#000000;fill:#0051ba;fill-opacity:1;fill-rule:nonzero;stroke:none;stroke-width:0.66666669;marker:none;visibility:visible;display:inline;overflow:visible;enable-background:accumulate" />
          <path
             id="path3210"
             d="m 441.92436,111.33391 -5.65081,29.55379 -9.76362,-17.11512 15.41443,-12.43867 z"
             style="color:#000000;fill:#0051ba;fill-opacity:1;fill-rule:nonzero;stroke:none;stroke-width:0.66666669;marker:none;visibility:visible;display:inline;overflow:visible;enable-background:accumulate" />
          <path
             id="path3212"
             d="m 187.64937,-44.115161 26.71769,-13.838653 -7.41062,18.257097 -19.30707,-4.418444 z"
             style="color:#000000;fill:#0051ba;fill-opacity:1;fill-rule:nonzero;stroke:none;stroke-width:0.66666669;marker:none;visibility:visible;display:inline;overflow:visible;enable-background:accumulate" />
          <path
             id="path3214"
             d="m 148.1972,-8.7593885 20.9831,-21.5647705 -1.26852,19.661997 -19.71458,1.9027735 z"
             style="color:#000000;fill:#0051ba;fill-opacity:1;fill-rule:nonzero;stroke:none;stroke-width:0.66666669;marker:none;visibility:visible;display:inline;overflow:visible;enable-background:accumulate" />
          <path
             id="path3216"
             d="m 122.04803,36.917043 13.1584,-27.0594813 4.96397,19.0688163 -18.12237,7.990665 z"
             style="color:#000000;fill:#0051ba;fill-opacity:1;fill-rule:nonzero;stroke:none;stroke-width:0.66666669;marker:none;visibility:visible;display:inline;overflow:visible;enable-background:accumulate" />
          <path
             id="path3218"
             d="m 111.57127,87.902509 4.11282,-29.806838 10.63615,16.58601 -14.74897,13.220828 z"
             style="color:#000000;fill:#0051ba;fill-opacity:1;fill-rule:nonzero;stroke:none;stroke-width:0.66666669;marker:none;visibility:visible;display:inline;overflow:visible;enable-background:accumulate" />
          <path
             id="path3220"
             d="m 117.38147,139.43186 -5.3041,-29.61788 15.2419,12.4847 -9.9378,17.13318 z"
             style="color:#000000;fill:#0051ba;fill-opacity:1;fill-rule:nonzero;stroke:none;stroke-width:0.66666669;marker:none;visibility:visible;display:inline;overflow:visible;enable-background:accumulate" />
          <path
             id="path3222"
             d="m 212.68611,-32.17928 12.2826,-30.329362 27.92214,17.001728 c -14.23629,2.440085 -27.74962,6.989982 -40.20474,13.327634 z"
             style="color:#000000;fill:#d81e05;fill-opacity:1;fill-rule:nonzero;stroke:none;stroke-width:0.66666669;marker:none;visibility:visible;display:inline;overflow:visible;enable-background:accumulate" />
          <path
             id="path3224"
             d="m 175.35035,-4.6991518 1.97836,-32.9255462 31.97251,7.221668 c -12.58657,6.840455 -24.02293,15.53439 -33.95087,25.7038782 z"
             style="color:#000000;fill:#d81e05;fill-opacity:1;fill-rule:nonzero;stroke:none;stroke-width:0.66666669;marker:none;visibility:visible;display:inline;overflow:visible;enable-background:accumulate" />
          <path
             id="path3226"
             d="M 149.36384,32.079594 140.95747,-0.04902224 173.84522,-3.1430837 C 164.01094,7.2383715 155.72943,19.105239 149.36384,32.079594 z"
             style="color:#000000;fill:#d81e05;fill-opacity:1;fill-rule:nonzero;stroke:none;stroke-width:0.66666669;marker:none;visibility:visible;display:inline;overflow:visible;enable-background:accumulate" />
          <path
             id="path3228"
             d="M 136.1118,76.010994 117.78404,47.890034 148.22678,34.460526 C 142.18819,47.37244 138.02772,61.33926 136.1118,76.010994 z"
             style="color:#000000;fill:#d81e05;fill-opacity:1;fill-rule:nonzero;stroke:none;stroke-width:0.66666669;marker:none;visibility:visible;display:inline;overflow:visible;enable-background:accumulate" />
          <path
             id="path3230"
             d="m 137.27186,120.52571 -26.3562,-21.334722 25.09098,-22.371561 c -0.72628,5.823341 -1.10421,11.755133 -1.10421,17.77401 0,8.858253 0.8183,17.522613 2.36943,25.932273 z"
             style="color:#000000;fill:#d81e05;fill-opacity:1;fill-rule:nonzero;stroke:none;stroke-width:0.66666669;marker:none;visibility:visible;display:inline;overflow:visible;enable-background:accumulate" />
          <path
             id="path3232"
             d="m 418.2465,77.999212 24.98089,22.604878 -26.63226,21.23779 c 1.71381,-8.82046 2.62247,-17.92682 2.62247,-27.248443 0,-5.613018 -0.33684,-11.150452 -0.9711,-16.594225 z"
             style="color:#000000;fill:#d81e05;fill-opacity:1;fill-rule:nonzero;stroke:none;stroke-width:0.66666669;marker:none;visibility:visible;display:inline;overflow:visible;enable-background:accumulate" />
          <path
             id="path3234"
             d="m 406.12986,34.966618 30.44768,13.52974 -18.48057,28.191616 C 416.24184,61.962015 412.1356,47.936043 406.12986,34.966618 z"
             style="color:#000000;fill:#d81e05;fill-opacity:1;fill-rule:nonzero;stroke:none;stroke-width:0.66666669;marker:none;visibility:visible;display:inline;overflow:visible;enable-background:accumulate" />
          <path
             id="path3236"
             d="m 380.77927,-2.5975562 32.9124,3.21894133 -8.5592,32.21898887 C 398.82604,19.792078 390.58233,7.857841 380.77927,-2.5975562 z"
             style="color:#000000;fill:#d81e05;fill-opacity:1;fill-rule:nonzero;stroke:none;stroke-width:0.66666669;marker:none;visibility:visible;display:inline;overflow:visible;enable-background:accumulate" />
          <path
             id="path3238"
             d="m 344.50497,-30.567346 31.94788,-7.356406 2.12295,33.0274216 C 368.61005,-15.064175 357.13426,-23.746608 344.50497,-30.567346 z"
             style="color:#000000;fill:#d81e05;fill-opacity:1;fill-rule:nonzero;stroke:none;stroke-width:0.66666669;marker:none;visibility:visible;display:inline;overflow:visible;enable-background:accumulate" />
          <path
             id="path3240"
             d="m 300.71324,-45.592358 27.80711,-17.143039 12.4847,30.344149 c -12.48798,-6.301501 -26.02922,-10.810318 -40.29181,-13.20111 z"
             style="color:#000000;fill:#d81e05;fill-opacity:1;fill-rule:nonzero;stroke:none;stroke-width:0.66666669;marker:none;visibility:visible;display:inline;overflow:visible;enable-background:accumulate" />
          <path
             id="path3242"
             d="m 256.04898,-46.014649 21.1392,-24.877372 21.17371,24.91845 c -6.95055,-1.045046 -14.06213,-1.590573 -21.30352,-1.590573 -7.13786,0 -14.1525,0.534025 -21.00939,1.549495 z"
             style="color:#000000;fill:#d81e05;fill-opacity:1;fill-rule:nonzero;stroke:none;stroke-width:0.66666669;marker:none;visibility:visible;display:inline;overflow:visible;enable-background:accumulate" />
          <path
             id="path3244"
             d="m 128.5007,152.82851 -7.80335,-2.91003 16.67804,-29.18901 c 1.16335,5.75103 2.68985,11.49715 4.59919,17.20218 0.16596,0.4946 0.3352,0.98755 0.50609,1.47884 -0.45351,0.45352 -0.90702,0.90374 -1.36054,1.35561 -4.1161,4.09146 -8.32094,8.12376 -12.61943,12.06241 z"
             style="color:#000000;fill:#d81e05;fill-opacity:1;fill-rule:nonzero;stroke:none;stroke-width:0.66666669;marker:none;visibility:visible;display:inline;overflow:visible;enable-background:accumulate" />
          <path
             id="path3246"
             d="m 416.53598,120.64237 16.50713,29.61953 -8.4261,3.04148 c -4.66656,-3.99616 -9.28547,-8.05147 -13.83537,-12.18236 2.45816,-6.7698 4.36751,-13.6119 5.75434,-20.47865 z"
             style="color:#000000;fill:#d81e05;fill-opacity:1;fill-rule:nonzero;stroke:none;stroke-width:0.66666669;marker:none;visibility:visible;display:inline;overflow:visible;enable-background:accumulate" />
        </g>
      </g>
    </g>
  </g>
  <g
     id="g3248"
     transform="translate(-0.819453,-81.824232)" />
</svg>
