<?xml version="1.0" encoding="utf-8"?><svg xmlns="http://www.w3.org/2000/svg" width="795.3" height="907.87" viewBox="0 0 795.3 907.87"><title>Coat_of_arms_of_Leningrad_Oblast</title><path d="M791.37,3.94V682.79c0,82.86-55.43,143.14-131.71,143.14h-172c-56.29,0-84.86,43.43-90,78-5.14-34.57-33.71-78-90.29-78H135.65c-76.29,0-131.71-60.29-131.71-143.14V3.94H791.37Z" fill="#157dc1" fill-rule="evenodd"/><polygon points="791.37 167.08 3.94 167.08 3.94 3.94 791.37 3.94 791.37 167.08 791.37 167.08" fill="#e42913" fill-rule="evenodd"/><polygon points="266.51 216.22 135.08 216.22 135.08 167.08 266.51 167.08 266.51 216.22 266.51 216.22" fill="#fff" stroke="#000" stroke-linecap="round" stroke-miterlimit="22.93" stroke-width="4.5" fill-rule="evenodd"/><polygon points="397.65 216.22 266.51 216.22 266.51 167.08 397.65 167.08 397.65 216.22 397.65 216.22" fill="#fff" stroke="#000" stroke-linecap="round" stroke-miterlimit="22.93" stroke-width="4.5" fill-rule="evenodd"/><polygon points="528.79 216.22 397.65 216.22 397.65 167.08 528.79 167.08 528.79 216.22 528.79 216.22" fill="#fff" stroke="#000" stroke-linecap="round" stroke-miterlimit="22.93" stroke-width="4.5" fill-rule="evenodd"/><polygon points="659.94 216.22 528.79 216.22 528.79 167.08 659.94 167.08 659.94 216.22 659.94 216.22" fill="#fff" stroke="#000" stroke-linecap="round" stroke-miterlimit="22.93" stroke-width="4.5" fill-rule="evenodd"/><polygon points="791.37 216.22 659.94 216.22 659.94 167.08 791.37 167.08 791.37 216.22 791.37 216.22" fill="#fff" stroke="#000" stroke-linecap="round" stroke-miterlimit="22.93" stroke-width="4.5" fill-rule="evenodd"/><polygon points="135.08 216.22 3.94 216.22 3.94 167.08 135.08 167.08 135.08 216.22 135.08 216.22" fill="#fff" stroke="#000" stroke-linecap="round" stroke-miterlimit="22.93" stroke-width="4.5" fill-rule="evenodd"/><polygon points="331.94 167.08 200.79 167.08 200.79 117.65 331.94 117.65 331.94 167.08 331.94 167.08" fill="#fff" stroke="#000" stroke-linecap="round" stroke-miterlimit="22.93" stroke-width="4.5" fill-rule="evenodd"/><polygon points="463.37 167.08 331.94 167.08 331.94 117.65 463.37 117.65 463.37 167.08 463.37 167.08" fill="#fff" stroke="#000" stroke-linecap="round" stroke-miterlimit="22.93" stroke-width="4.5" fill-rule="evenodd"/><polygon points="594.51 167.08 463.37 167.08 463.37 117.65 594.51 117.65 594.51 167.08 594.51 167.08" fill="#fff" stroke="#000" stroke-linecap="round" stroke-miterlimit="22.93" stroke-width="4.5" fill-rule="evenodd"/><polygon points="725.65 167.08 594.51 167.08 594.51 117.65 725.65 117.65 725.65 167.08 725.65 167.08" fill="#fff" stroke="#000" stroke-linecap="round" stroke-miterlimit="22.93" stroke-width="4.5" fill-rule="evenodd"/><polygon points="791.37 167.08 725.65 167.08 725.65 117.65 791.37 117.65 791.37 167.08 791.37 167.08" fill="#fff" stroke="#000" stroke-linecap="round" stroke-miterlimit="22.93" stroke-width="4.5" fill-rule="evenodd"/><polygon points="69.65 167.08 3.94 167.08 3.94 117.65 69.65 117.65 69.65 167.08 69.65 167.08" fill="#fff" stroke="#000" stroke-linecap="round" stroke-miterlimit="22.93" stroke-width="4.5" fill-rule="evenodd"/><polygon points="102.22 117.65 36.79 117.65 36.79 68.51 102.22 68.51 102.22 117.65 102.22 117.65" fill="#fff" stroke="#000" stroke-linecap="round" stroke-miterlimit="22.93" stroke-width="4.5" fill-rule="evenodd"/><polygon points="200.79 167.08 69.65 167.08 69.65 117.65 200.79 117.65 200.79 167.08 200.79 167.08" fill="#fff" stroke="#000" stroke-linecap="round" stroke-miterlimit="22.93" stroke-width="4.5" fill-rule="evenodd"/><polygon points="233.65 117.65 167.94 117.65 167.94 68.51 233.65 68.51 233.65 117.65 233.65 117.65" fill="#fff" stroke="#000" stroke-linecap="round" stroke-miterlimit="22.93" stroke-width="4.5" fill-rule="evenodd"/><polygon points="364.79 117.65 299.08 117.65 299.08 68.51 364.79 68.51 364.79 117.65 364.79 117.65" fill="#fff" stroke="#000" stroke-linecap="round" stroke-miterlimit="22.93" stroke-width="4.5" fill-rule="evenodd"/><polygon points="495.94 117.65 430.51 117.65 430.51 68.51 495.94 68.51 495.94 117.65 495.94 117.65" fill="#fff" stroke="#000" stroke-linecap="round" stroke-miterlimit="22.93" stroke-width="4.5" fill-rule="evenodd"/><polygon points="627.37 117.65 561.65 117.65 561.65 68.51 627.37 68.51 627.37 117.65 627.37 117.65" fill="#fff" stroke="#000" stroke-linecap="round" stroke-miterlimit="22.93" stroke-width="4.5" fill-rule="evenodd"/><polygon points="758.51 117.65 692.79 117.65 692.79 68.51 758.51 68.51 758.51 117.65 758.51 117.65" fill="#fff" stroke="#000" stroke-linecap="round" stroke-miterlimit="22.93" stroke-width="4.5" fill-rule="evenodd"/><path d="M791.37,3.94V682.79c0,82.86-55.43,143.14-131.71,143.14h-172c-56.29,0-84.86,43.43-90,78-5.14-34.57-33.71-78-90.29-78H135.65c-76.29,0-131.71-60.29-131.71-143.14V3.94H791.37Z" fill="none" stroke="#000" stroke-linecap="round" stroke-linejoin="round" stroke-width="7.87"/><path d="M103.37,287.65a42.55,42.55,0,0,1,67.14,52.29c-14.57,18.57-41.43,22-59.71,7.43a42.41,42.41,0,0,1-7.43-59.71h0Zm-9.43,81.14a69.61,69.61,0,1,0-12-97.71,69.59,69.59,0,0,0,12,97.71h0Z" fill="#fff" stroke="#000" stroke-linecap="round" stroke-miterlimit="22.93" stroke-width="4.5" fill-rule="evenodd"/><path d="M497.08,785.94c-5.43-4.29-9.43-8.86-10.86-18,16,1.14,35.43,9.14,68,6.86,43.43-3.43,52-17.14,74-33.43,15.71-11.43,32.29-11.14,47.43-6.57-8.29-13.14-12.57-29.43-5.14-47.14,10.29-25.43,21.71-37.14,14.29-80-5.43-32.29-18-49.14-22.86-64.57,9.14-.57,14.57,2.29,20,6.29-2.86-8.29-26-42-45.43-54.86,5.43,13.71-3.14,56.29,1.71,68.86,6-8,10-14.86,15.14-16.86,2.86,6.57,18.29,56.57,3.14,80.29-15.43,24.57-43.71,27.71-76,6.29-24.86-16.57-304-222.86-358.86-264.86,10-19.14,4.57-42.57-13.14-56.29-19.71-15.71-48.57-12-64,7.71a45.82,45.82,0,0,0,7.71,64.29c17.71,13.71,41.71,13.43,57.71-.86,54.29,42.86,321.71,264,343.71,284.29,28.86,26.29,32.29,54.29,12.29,75.14-19.43,20.57-71.71,17.71-78.57,16.29,0.57-5.43,6.29-10.86,12.57-18.57-13.43-1.71-52.57,16.86-67.14,14.86,16.86,15.71,55.43,30,64.29,30.86h0ZM202.79,365.37a28.29,28.29,0,0,1-44.57-34.86c9.43-12.57,27.43-14.57,39.71-4.86a28.21,28.21,0,0,1,4.86,39.71h0Z" fill="#fff" stroke="#000" stroke-linecap="round" stroke-miterlimit="22.93" stroke-width="4.5" fill-rule="evenodd"/><path d="M135.65,356.22a42.47,42.47,0,1,1,34.86-16.29,43.35,43.35,0,0,1-18,13.43,28.14,28.14,0,0,0,10.57,16.86,23,23,0,0,0,7.71,4.29,65.14,65.14,0,0,0,20.86-17.71,69.66,69.66,0,1,0-41.43,25.43,45.18,45.18,0,0,1-14.57-26h0Z" fill="#fff" stroke="#000" stroke-linecap="round" stroke-miterlimit="22.93" stroke-width="4.5" fill-rule="evenodd"/><path d="M288.79,435.08c-35.14,39.43-103.14,87.14-103.14,87.14l-14.86-21.14,85.43-95.14,85.43-95.43,22.57,12.29s-40,72.86-75.43,112.29h0Z" fill="#fff" stroke="#000" stroke-linecap="round" stroke-miterlimit="22.93" stroke-width="4.5" fill-rule="evenodd"/><polygon points="323.65 330.51 351.37 345.37 323.65 330.51 323.65 330.51" fill="#fff" fill-rule="evenodd"/><line x1="323.65" y1="330.51" x2="351.37" y2="345.37" fill="none" stroke="#000" stroke-linecap="round" stroke-miterlimit="22.93" stroke-width="4.5"/><polygon points="316.79 338.22 345.94 353.94 316.79 338.22 316.79 338.22" fill="#fff" fill-rule="evenodd"/><line x1="316.79" y1="338.22" x2="345.94" y2="353.94" fill="none" stroke="#000" stroke-linecap="round" stroke-miterlimit="22.93" stroke-width="4.5"/><polygon points="309.94 345.65 340.79 362.51 309.94 345.65 309.94 345.65" fill="#fff" fill-rule="evenodd"/><line x1="309.94" y1="345.65" x2="340.79" y2="362.51" fill="none" stroke="#000" stroke-linecap="round" stroke-miterlimit="22.93" stroke-width="4.5"/><polygon points="188.79 481.08 206.51 506.79 188.79 481.08 188.79 481.08" fill="#fff" fill-rule="evenodd"/><line x1="188.79" y1="481.08" x2="206.51" y2="506.79" fill="none" stroke="#000" stroke-linecap="round" stroke-miterlimit="22.93" stroke-width="4.5"/><polygon points="195.65 473.37 214.51 500.79 195.65 473.37 195.65 473.37" fill="#fff" fill-rule="evenodd"/><line x1="195.65" y1="473.37" x2="214.51" y2="500.79" fill="none" stroke="#000" stroke-linecap="round" stroke-miterlimit="22.93" stroke-width="4.5"/><polygon points="202.51 465.94 222.51 494.79 202.51 465.94 202.51 465.94" fill="#fff" fill-rule="evenodd"/><line x1="202.51" y1="465.94" x2="222.51" y2="494.79" fill="none" stroke="#000" stroke-linecap="round" stroke-miterlimit="22.93" stroke-width="4.5"/><path d="M135.08,735.94l10.86-8.86-7.71-10-11.14,8.57a19,19,0,0,0-21.71,1.43,18.92,18.92,0,0,0,23.43,29.71,19,19,0,0,0,6.29-20.86h0Z" fill="#ea9b00" stroke="#000" stroke-linecap="round" stroke-linejoin="round" stroke-width="4.5" fill-rule="evenodd"/><path d="M698.22,389.94a59,59,0,0,0-13.43-22.29,52.72,52.72,0,0,0,18-9.71c26-20.29,30.29-57.71,10-83.71a59.81,59.81,0,0,0-83.71-10,61,61,0,0,0-13.43,15.14,63,63,0,0,0-18.57-18.29c-27.71-17.43-64.57-8.86-82.29,18.86-17.43,27.71-8.86,64.57,18.86,82.29a59.54,59.54,0,0,0,34,8.86l-10.86,8.57-15.71,2.86-0.57,9.71-6,4.86c-4.86-2.29-9.43-2.57-12.57-.29-2.86,2.29-3.71,6.86-2.57,12l-389.71,306,16.57,21.43,390-306c4.57,2.29,9.43,2.86,12.29.29,3.14-2.29,4-6.86,2.57-12l6.29-4.86,9.71,2,6.57-14.86,10.57-8.29a59.66,59.66,0,1,0,114-2.57h0Zm-43.71,57.71a40.69,40.69,0,0,1-31.14-2.29,41,41,0,0,1-18.29-55.14c0.86-1.71,1.71-3.14,2.57-4.57l-9.43-12.57,13.43-10.57a19.82,19.82,0,0,0,22.57-1.14c8.57-6.86,10.29-19.43,3.43-28a20.23,20.23,0,0,0-28-3.43,20.48,20.48,0,0,0-6.57,21.71l-13.43,10.57-9.71-12.29c-1.71.57-3.43,1.14-5.43,1.71a40.49,40.49,0,0,1-30.86-5.43,41.55,41.55,0,0,1-18.29-25.43c-2.29-10.86-.57-21.71,5.43-30.86a40.74,40.74,0,0,1,56.29-13.14,41.07,41.07,0,0,1,18.29,25.71,72.44,72.44,0,0,1,1.14,8.29l18.57-.57a41,41,0,1,1,32,40.86l-4.86,18c2.57,0.86,5.14,1.71,7.71,2.86a41.11,41.11,0,0,1-5.43,75.71h0Z" fill="#ea9b00" fill-rule="evenodd"/><path d="M698.22,389.94a59,59,0,0,0-13.43-22.29,52.72,52.72,0,0,0,18-9.71c26-20.29,30.29-57.71,10-83.71a59.81,59.81,0,0,0-83.71-10,61,61,0,0,0-13.43,15.14,63,63,0,0,0-18.57-18.29c-27.71-17.43-64.57-8.86-82.29,18.86-17.43,27.71-8.86,64.57,18.86,82.29a59.54,59.54,0,0,0,34,8.86l-10.86,8.57-15.71,2.86-0.57,9.71-6,4.86c-4.86-2.29-9.43-2.57-12.57-.29-2.86,2.29-3.71,6.86-2.57,12l-389.71,306,16.57,21.43,390-306c4.57,2.29,9.43,2.86,12.29.29,3.14-2.29,4-6.86,2.57-12l6.29-4.86,9.71,2,6.57-14.86,10.57-8.29a59.66,59.66,0,1,0,114-2.57h0Zm-43.71,57.71a40.69,40.69,0,0,1-31.14-2.29,41,41,0,0,1-18.29-55.14c0.86-1.71,1.71-3.14,2.57-4.57l-9.43-12.57,13.43-10.57a19.82,19.82,0,0,0,22.57-1.14c8.57-6.86,10.29-19.43,3.43-28a20.23,20.23,0,0,0-28-3.43,20.48,20.48,0,0,0-6.57,21.71l-13.43,10.57-9.71-12.29c-1.71.57-3.43,1.14-5.43,1.71a40.49,40.49,0,0,1-30.86-5.43,41.55,41.55,0,0,1-18.29-25.43c-2.29-10.86-.57-21.71,5.43-30.86a40.74,40.74,0,0,1,56.29-13.14,41.07,41.07,0,0,1,18.29,25.71,38.64,38.64,0,0,1,1.14,8.29l18.57-.57a41,41,0,1,1,32,40.86l-4.86,18c2.57,0.86,5.14,1.71,7.71,2.86a41.11,41.11,0,0,1-5.43,75.71h0Z" fill="none" stroke="#000" stroke-linecap="round" stroke-linejoin="round" stroke-width="4.5"/><polygon points="139.94 682.22 151.94 697.37 180.79 674.51 169.08 659.37 139.94 682.22 139.94 682.22" fill="#ea9b00" stroke="#000" stroke-linecap="round" stroke-linejoin="round" stroke-width="4.5" fill-rule="evenodd"/><polygon points="191.94 636.22 181.08 634.79 179.94 620.51 157.65 592.22 141.37 605.08 162.22 631.65 146.51 643.94 125.65 617.37 109.37 629.94 130.22 656.79 114.51 668.79 93.65 642.22 77.37 655.08 99.65 683.37 113.08 687.94 111.94 698.79 115.94 701.08 193.08 640.51 191.94 636.22 191.94 636.22" fill="#ea9b00" stroke="#000" stroke-linecap="round" stroke-linejoin="round" stroke-width="4.5" fill-rule="evenodd"/></svg>
