<?xml version="1.0" encoding="UTF-8" standalone="no"?>
<!-- Created with Inkscape (http://www.inkscape.org/) -->

<svg
   xmlns:dc="http://purl.org/dc/elements/1.1/"
   xmlns:cc="http://creativecommons.org/ns#"
   xmlns:rdf="http://www.w3.org/1999/02/22-rdf-syntax-ns#"
   xmlns:svg="http://www.w3.org/2000/svg"
   xmlns="http://www.w3.org/2000/svg"
   xmlns:sodipodi="http://sodipodi.sourceforge.net/DTD/sodipodi-0.dtd"
   xmlns:inkscape="http://www.inkscape.org/namespaces/inkscape"
   width="743.8537"
   height="1000.3977"
   id="svg2"
   version="1.1"
   inkscape:version="0.48.2 r9819"
   sodipodi:docname="герб Мурманской области.svg">
  <defs
     id="defs4" />
  <sodipodi:namedview
     id="base"
     pagecolor="#ffffff"
     bordercolor="#666666"
     borderopacity="1.0"
     inkscape:pageopacity="0.0"
     inkscape:pageshadow="2"
     inkscape:zoom="0.37081674"
     inkscape:cx="264.99916"
     inkscape:cy="454.30204"
     inkscape:document-units="px"
     inkscape:current-layer="layer1"
     showgrid="false"
     showguides="true"
     inkscape:guide-bbox="true"
     inkscape:window-width="1366"
     inkscape:window-height="706"
     inkscape:window-x="-8"
     inkscape:window-y="-8"
     inkscape:window-maximized="1"
     fit-margin-top="0"
     fit-margin-left="0"
     fit-margin-right="0"
     fit-margin-bottom="0" />
  <metadata
     id="metadata7">
    <rdf:RDF>
      <cc:Work
         rdf:about="">
        <dc:format>image/svg+xml</dc:format>
        <dc:type
           rdf:resource="http://purl.org/dc/dcmitype/StillImage" />
        <dc:title />
      </cc:Work>
    </rdf:RDF>
  </metadata>
  <g
     inkscape:label="Layer 1"
     inkscape:groupmode="layer"
     id="layer1"
     transform="translate(3.4655056e-4,-1.0329573e-4)">
    <g
       id="g3891"
       transform="matrix(1.2464548,0,0,1.2464548,944.58363,-22.335282)">
      <g
         transform="translate(-801.85009,-0.04608402)"
         id="g3855">
        <g
           id="g3845"
           transform="translate(773.75,26.75)">
          <g
             id="g3851"
             transform="matrix(1,0,0,0.99295171,-291.32799,16.828963)">
            <path
               style="fill:#d5312b;fill-opacity:1;stroke:none"
               d="m -438.38839,-18.05928 305.81647,-2 -7.43522,802.55526 c -10.74352,-26.62646 -36.80491,-48.35329 -55.19062,-48.35329 l -169.33529,0 c -73.46833,0 -73.85529,-68.10322 -73.85529,-68.10322 z"
               id="rect2996"
               inkscape:connector-curvature="0"
               sodipodi:nodetypes="cccsscc" />
            <path
               sodipodi:nodetypes="cccsscc"
               inkscape:connector-curvature="0"
               id="path3849"
               d="m 158.38711,-18.089926 -305.81646,-2 7.43522,802.555266 c 10.74352,-26.62646 36.80491,-48.35329 55.190616,-48.35329 l 169.335284,0 c 73.46833,0 73.85529,-68.10322 73.85529,-68.10322 z"
               style="fill:#d5312b;fill-opacity:1;stroke:none" />
          </g>
        </g>
        <rect
           style="fill:#395c98;fill-opacity:1;stroke:none"
           id="rect3769"
           width="596.77234"
           height="258.39258"
           x="44.033642"
           y="17.965214" />
      </g>
      <path
         sodipodi:nodetypes="ccccccccccccccccccccccccccccc"
         inkscape:connector-curvature="0"
         id="path3771"
         d="m -611.70204,265.24938 -45.28864,-92.62038 49.71535,72.52993 -33.37058,-92.62038 48.69379,81.04283 -33.37057,-92.62037 46.6507,85.81005 -26.90076,-97.3876 41.88347,94.66347 -20.09045,-97.38759 36.77574,91.59881 -21.112,-99.43068 28.26283,83.08591 -16.34477,-98.74966 27.5818,88.19366 -13.62064,-101.473784 23.83613,91.258304 -7.83187,-104.538432 21.11199,92.960882 -3.40516,-103.857397 17.36632,95.685017 2.72413,-103.516886 11.91807,102.154816 6.12929,-108.284105 11.23703,105.219465 L -452,49.362183 l 0,120.542687 c -40.20248,0.59475 -66.37902,19.84738 -89.21522,61.63341 -56.75447,-6.00767 -70.48682,33.7111 -70.48682,33.7111 z"
         style="fill:#edbb32;fill-opacity:1;stroke:none" />
      <g
         transform="matrix(-1,0,0,1,-112.91252,0.67922049)"
         id="g3812">
        <path
           sodipodi:nodetypes="cccccccc"
           inkscape:connector-curvature="0"
           id="path3814"
           d="m 167.30519,604.53977 30.09765,0.48156 -3.13016,-11.07593 32.74625,14.20609 -16.13234,-24.19852 -37.08031,-7.82539 c -2.92637,4.96922 -5.4994,12.17635 -7.46422,23.23539 z"
           style="fill:#e5b100;fill-opacity:1;stroke:none" />
        <path
           sodipodi:nodetypes="cccccccccc"
           inkscape:connector-curvature="0"
           id="path3816"
           d="m 205.40129,586.96181 c 10.14319,84.95974 84.01378,135.20594 117.22267,48.86406 l 6.72519,-228.91195 2.89439,1.70258 5.4633,277.83104 1.95797,7.53391 0.0468,6.90579 C 273.13499,758.28488 192.57744,697.38382 184.97033,590.4521 l -2.55388,-9.70471 z"
           style="fill:#ead566;fill-opacity:1;stroke:none" />
        <g
           id="g3830">
          <g
             id="g3805"
             transform="matrix(-1,0,0,1,678.97841,-0.01032787)">
            <path
               sodipodi:nodetypes="cccccccc"
               inkscape:connector-curvature="0"
               id="path3781"
               d="m 167.30519,604.53977 30.09765,0.48156 -3.13016,-11.07593 32.74625,14.20609 -16.13234,-24.19852 -37.08031,-7.82539 c -2.92637,4.96922 -5.4994,12.17635 -7.46422,23.23539 z"
               style="fill:#e5b100;fill-opacity:1;stroke:none" />
            <path
               sodipodi:nodetypes="cccccccccc"
               inkscape:connector-curvature="0"
               id="path3783"
               d="m 205.40129,586.96181 c 10.14319,84.95974 84.01378,135.20594 117.22267,48.86406 l 6.72519,-228.91195 2.89439,1.70258 5.4633,277.83104 1.95797,7.53391 0.0468,6.90579 C 273.13499,758.28488 192.57744,697.38382 184.97033,590.4521 l -2.55388,-9.70471 z"
               style="fill:#ead566;fill-opacity:1;stroke:none" />
            <path
               sodipodi:nodetypes="ccccczzzcccccscccccscccc"
               inkscape:connector-curvature="0"
               id="path3775"
               d="m 329.17613,384.49111 0.12039,7.705 -38.04343,-0.24079 -17.42932,3.34596 c 0,0 -14.38621,0.48655 -22.72944,0.5959 -2.52628,-5.05876 -8.1085,-9.37452 -13.26803,-9.37452 -5.15953,0 -13.86143,4.5472 -13.86143,13.89241 0,9.34521 8.04157,13.43215 13.54364,13.43215 5.50207,0 10.17169,-3.23893 13.16017,-8.07507 8.51518,0.41516 24.00638,0.68103 24.00638,0.68103 l 17.45145,4.85236 36.946,-0.0851 -3.02653,227.05412 c -5.047,26.14016 -24.18162,48.21739 -50.28995,46.98737 -26.10833,-1.23003 -70.02552,-34.917 -74.79591,-91.89307 l -5.17679,-4.33406 -4.09328,3.97289 c 1.02403,91.55853 78.94746,161.22655 147.77948,100.88734 l 0.4995,-339.20026 c -17.42806,0.71864 -23.22521,-10.87554 -23.37404,-19.85426 -0.13903,-8.38798 6.17399,-20.2377 23.35614,-22.10218 l -0.0602,-20.04504 c -12.77292,0.86223 -36.00176,4.56383 -43.7018,38.34441 -3.09305,23.24511 14.12269,36.84617 32.987,53.45341 z"
               style="fill:#edbb32;fill-opacity:1;stroke:none" />
            <path
               sodipodi:nodetypes="cccc"
               inkscape:connector-curvature="0"
               id="path3777"
               d="m 164.68535,609.93019 c 1.88465,-32.89064 15.43508,-59.05101 33.95015,-82.34718 12.50143,25.51683 21.83164,51.93972 29.85688,78.73546 -24.94919,-21.72042 -35.33334,-28.61548 -63.80703,3.61172 z"
               style="fill:#edbb32;fill-opacity:1;stroke:#757575;stroke-width:1px;stroke-linecap:butt;stroke-linejoin:miter;stroke-opacity:1" />
            <path
               sodipodi:nodetypes="cc"
               inkscape:connector-curvature="0"
               id="path3779"
               d="m 198.33322,528.82114 c -2.27634,19.77565 -3.48459,39.3733 -1.92625,58.50984"
               style="fill:none;stroke:#757575;stroke-width:1px;stroke-linecap:butt;stroke-linejoin:miter;stroke-opacity:1" />
          </g>
          <path
             style="fill:#edbb32;fill-opacity:1;stroke:none"
             d="m 329.17613,384.49111 0.12039,7.705 -38.04343,-0.24079 -17.42932,3.34596 c 0,0 -14.38621,0.48655 -22.72944,0.5959 -2.52628,-5.05876 -8.1085,-9.37452 -13.26803,-9.37452 -5.15953,0 -13.86143,4.5472 -13.86143,13.89241 0,9.34521 8.04157,13.43215 13.54364,13.43215 5.50207,0 10.17169,-3.23893 13.16017,-8.07507 8.51518,0.41516 24.00638,0.68103 24.00638,0.68103 l 17.45145,4.85236 36.946,-0.0851 -3.02653,227.05412 c -5.047,26.14016 -24.18162,48.21739 -50.28995,46.98737 -26.10833,-1.23003 -70.02552,-34.917 -74.79591,-91.89307 l -5.17679,-4.33406 -4.09328,3.97289 c 1.02403,91.55853 78.94746,161.22655 147.77948,100.88734 l 0.4995,-339.20026 c -17.42806,0.71864 -23.22521,-10.87554 -23.37404,-19.85426 -0.13903,-8.38798 6.17399,-20.2377 23.35614,-22.10218 l -0.0602,-20.04504 c -12.77292,0.86223 -36.00176,4.56383 -43.7018,38.34441 -3.09305,23.24511 14.12269,36.84617 32.987,53.45341 z"
             id="path3818"
             inkscape:connector-curvature="0"
             sodipodi:nodetypes="ccccczzzcccccscccccscccc" />
        </g>
        <path
           sodipodi:nodetypes="cccc"
           inkscape:connector-curvature="0"
           id="path3820"
           d="m 164.68535,609.93019 c 1.88465,-32.89064 15.43508,-59.05101 33.95015,-82.34718 12.50143,25.51683 21.83164,51.93972 29.85688,78.73546 -24.94919,-21.72042 -35.33334,-28.61548 -63.80703,3.61172 z"
           style="fill:#edbb32;fill-opacity:1;stroke:#757575;stroke-width:1px;stroke-linecap:butt;stroke-linejoin:miter;stroke-opacity:1" />
        <path
           sodipodi:nodetypes="cc"
           inkscape:connector-curvature="0"
           id="path3822"
           d="m 198.50348,528.82114 c -2.27634,19.77565 -3.48459,39.3733 -1.92625,58.50984"
           style="fill:none;stroke:#757575;stroke-width:1px;stroke-linecap:butt;stroke-linejoin:miter;stroke-opacity:1" />
      </g>
      <path
         style="fill:#edbb32;fill-opacity:1;stroke:none"
         d="m -292.43054,265.23375 45.28864,-92.62038 -49.71535,72.52993 33.37058,-92.62038 -48.69379,81.04283 33.37057,-92.62037 -46.6507,85.81005 26.90076,-97.3876 -41.88347,94.66347 20.09045,-97.38759 -36.77574,91.59881 21.112,-99.43068 -28.26283,83.08591 16.34477,-98.74966 -27.5818,88.19366 13.62064,-101.473775 -23.83613,91.258295 7.83187,-104.538427 -21.11199,92.960877 3.40516,-103.857392 -17.36632,95.685012 -2.72413,-103.516881 -11.91807,102.154811 -6.12929,-108.2841 -11.23703,105.21946 -7.15084,-107.603072 0,120.542682 c 40.20248,0.59475 66.37902,19.84738 89.21522,61.63341 56.75447,-6.00767 70.48682,33.7111 70.48682,33.7111 z"
         id="path3881"
         inkscape:connector-curvature="0"
         sodipodi:nodetypes="ccccccccccccccccccccccccccccc" />
      <g
         transform="translate(-7.6957587,-8.5)"
         id="g3883">
        <path
           sodipodi:type="arc"
           style="fill:#edbb32;fill-opacity:1;fill-rule:evenodd;stroke:#757575;stroke-width:1px;stroke-linecap:butt;stroke-linejoin:miter;stroke-opacity:1"
           id="path3773"
           sodipodi:cx="339.06891"
           sodipodi:cy="361.3699"
           sodipodi:rx="23.240223"
           sodipodi:ry="23.240223"
           d="m 362.30913,361.3699 c 0,12.83522 -10.405,23.24023 -23.24022,23.24023 -12.83522,0 -23.24022,-10.40501 -23.24022,-23.24023 0,-12.83522 10.405,-23.24022 23.24022,-23.24022 12.83522,0 23.24022,10.405 23.24022,23.24022 z"
           transform="translate(-783.37315,9.5846028)" />
        <path
           sodipodi:type="arc"
           style="fill:#f6f986;fill-opacity:1;fill-rule:evenodd;stroke:none"
           id="path3803"
           sodipodi:cx="327.87442"
           sodipodi:cy="354.43188"
           sodipodi:rx="6.001596"
           sodipodi:ry="6.001596"
           d="m 333.87602,354.43188 c 0,3.31459 -2.68701,6.0016 -6.0016,6.0016 -3.31459,0 -6.0016,-2.68701 -6.0016,-6.0016 0,-3.31459 2.68701,-6.00159 6.0016,-6.00159 3.31459,0 6.0016,2.687 6.0016,6.00159 z"
           transform="translate(-779.87442,7.9287019)" />
      </g>
      <g
         transform="translate(-728.07524,-30.112698)"
         id="g3874">
        <path
           style="fill:#807373;fill-opacity:1;stroke:#757575;stroke-width:1px;stroke-linecap:butt;stroke-linejoin:miter;stroke-opacity:1"
           d="M 63.86379,601.95862 C 88.81096,530.57266 124.21949,463.07235 171.63714,400.03257 73.38776,447.84056 54.14088,519.92879 63.86379,601.95862 z"
           id="path3789"
           inkscape:connector-curvature="0"
           sodipodi:nodetypes="ccc" />
        <path
           style="fill:#cfc7c5;fill-opacity:1;stroke:#757575;stroke-width:1px;stroke-linecap:butt;stroke-linejoin:miter;stroke-opacity:1"
           d="m 98.28656,493.30064 c -2.68609,-6.90152 1.21658,-21.94828 14.20609,-18.78093 l 359.24561,196.71827 -13.24297,18.05859 z"
           id="path3785"
           inkscape:connector-curvature="0"
           sodipodi:nodetypes="ccccc" />
        <path
           sodipodi:type="arc"
           style="fill:#bdc6c7;fill-opacity:1;fill-rule:evenodd;stroke:#757575;stroke-width:1px;stroke-linecap:butt;stroke-linejoin:miter;stroke-opacity:1"
           id="path3787"
           sodipodi:cx="530.14099"
           sodipodi:cy="654.08606"
           sodipodi:rx="6.2569833"
           sodipodi:ry="10.598563"
           d="m 536.39797,654.08606 c 0,5.85342 -2.80134,10.59856 -6.25698,10.59856 -3.45564,0 -6.25698,-4.74514 -6.25698,-10.59856 0,-5.85343 2.80134,-10.59856 6.25698,-10.59856 3.45564,0 6.25698,4.74513 6.25698,10.59856 z"
           transform="matrix(0.95002092,0.56356411,-0.62349608,0.85870257,370.48631,-179.56058)" />
        <path
           style="fill:#cfc7c5;fill-opacity:1;stroke:#757575;stroke-width:1px;stroke-linecap:butt;stroke-linejoin:miter;stroke-opacity:1"
           d="m 80.58913,484.51213 -8.42734,-4.93602 c -1.1343,-12.08138 4.39109,-18.61303 14.80805,-21.06836 l 7.58461,4.93602 -9.51086,25.04125 z"
           id="path3791"
           inkscape:connector-curvature="0"
           sodipodi:nodetypes="cccccc" />
        <path
           style="fill:#cfc7c5;fill-opacity:1;stroke:#757575;stroke-width:1px;stroke-linecap:butt;stroke-linejoin:miter;stroke-opacity:1"
           d="M 63.61406,601.53181 C 63.10545,532.87878 77.76355,464.84061 171.24327,399.99791 71.47448,449.02893 55.67648,521.90964 63.61406,601.53181 z"
           id="path3793"
           inkscape:connector-curvature="0"
           sodipodi:nodetypes="ccc" />
      </g>
      <g
         transform="translate(-288.49956,-23.839246)"
         id="g3868">
        <path
           style="fill:#cfc7c5;fill-opacity:1;stroke:#757575;stroke-width:1px;stroke-linecap:butt;stroke-linejoin:miter;stroke-opacity:1"
           d="m -12.019848,470.02394 c 2.1712801,-3.39534 4.5112401,-4.98237 9.1788901,-4.29275 1.31614,-3.38622 2.57867004,-6.82407 9.87203,-4.45445 0.68252,-4.01271 2.82323,-6.56724 9.1496899,-4.93602 1.80832,-5.79721 5.19096,-5.07226 8.54773,-4.45445 1.08569,-4.06724 4.4028,-3.87451 7.94578,-3.25055 -1.04941,-7.20864 -2.20255,-14.49857 4.93602,-15.2896 5.5266,-0.51381 11.6395,6.48391 16.13234,14.56726 4.49284,8.08335 9.36608,17.97002 3.49133,23.35578 -4.2669,2.89872 -8.09543,-0.55897 -11.91867,-4.09328 -1.54421,3.87788 -4.02835,5.79047 -8.06617,4.45445 -0.0889,3.97879 -1.45214,6.99084 -8.06617,6.01953 -0.90727,2.85066 -1.07346,6.14596 -8.54774,5.05641 -0.94232,6.2355 -4.72422,6.61438 -9.27008,5.41758 -1.10017,5.26431 -4.0580699,7.39981 -9.4695399,5.40297 z"
           id="path3797"
           inkscape:connector-curvature="0"
           sodipodi:nodetypes="ccccccczcccccccc" />
        <path
           style="fill:#cfc7c5;fill-opacity:1;stroke:#757575;stroke-width:1px;stroke-linecap:butt;stroke-linejoin:miter;stroke-opacity:1"
           d="m -20.721468,472.22198 -338.473002,200.64911 -10.47087,21.53765 20.77149,1.61745 344.3072321,-195.92348 z"
           id="path3799"
           inkscape:connector-curvature="0" />
        <path
           style="fill:#000000;fill-opacity:1;stroke:#000000;stroke-width:1px;stroke-linecap:butt;stroke-linejoin:miter;stroke-opacity:1"
           d="M -21.441308,489.32775 -367.08278,692.7879 -19.936428,494.41426 z"
           id="path3801"
           inkscape:connector-curvature="0" />
        <path
           style="fill:#cfc7c5;fill-opacity:1;stroke:#757575;stroke-width:1px;stroke-linecap:butt;stroke-linejoin:miter;stroke-opacity:1"
           d="m -34.682628,430.33851 59.2498,101.81431 -19.0688999,13.96116 -9.87497,-44.94813 -17.8471501,-7.38364 1.44469,-21.42953 -31.90351,-30.45883 z"
           id="path3795"
           inkscape:connector-curvature="0"
           sodipodi:nodetypes="cccccccc" />
      </g>
      <path
         sodipodi:nodetypes="cccccc"
         inkscape:connector-curvature="0"
         id="path3889"
         d="m -462.875,411.86218 -6.4375,224.75 33.78125,-0.0625 -6.4375,-224.625 -15.15625,5.625 z"
         style="fill:#ead566;fill-opacity:1;stroke:none" />
      <path
         inkscape:connector-curvature="0"
         id="path3887"
         d="m -462.875,411.98718 -3.5,262.75 13.98134,19.87317 0.11049,0 13.33005,-55.70129 -3.03281,-226.98675 z"
         style="fill:#edbb32;fill-opacity:1;stroke:none" />
    </g>
    <path
       style="fill:#eebb32;fill-opacity:1;stroke:none"
       d="m 372.24753,173.30374 8.81497,-134.843533 8.875,134.906253 c -8.27889,29.00646 -13.24719,12.33886 -17.68997,-0.0627 z"
       id="path3930"
       inkscape:connector-curvature="0"
       transform="translate(-3.4655056e-4,1.0329573e-4)"
       sodipodi:nodetypes="cccc" />
    <path
       style="fill:#000000;stroke:#747574;stroke-width:1px;stroke-linecap:butt;stroke-linejoin:miter;stroke-opacity:1;fill-opacity:1"
       d="m 581.36313,528.32322 17.51955,27.88826"
       id="path3021"
       inkscape:connector-curvature="0"
       transform="translate(-3.4655056e-4,1.0329573e-4)" />
    <path
       style="fill:#000000;stroke:#747574;stroke-width:1px;stroke-linecap:butt;stroke-linejoin:miter;stroke-opacity:1;fill-opacity:1"
       d="m 593.75792,523.07927 16.68528,26.21974"
       id="path3023"
       inkscape:connector-curvature="0"
       transform="translate(-3.4655056e-4,1.0329573e-4)" />
    <path
       style="fill:#000000;stroke:#747574;stroke-width:1px;stroke-linecap:butt;stroke-linejoin:miter;stroke-opacity:1;fill-opacity:1"
       d="m 605.19926,516.64351 15.85102,26.57729"
       id="path3025"
       inkscape:connector-curvature="0"
       transform="translate(-3.4655056e-4,1.0329573e-4)" />
    <path
       style="fill:#000000;stroke:#747574;stroke-width:1px;stroke-linecap:butt;stroke-linejoin:miter;stroke-opacity:1;fill-opacity:1"
       d="m 615.80633,511.51875 15.3743,23.9553"
       id="path3027"
       inkscape:connector-curvature="0"
       transform="translate(-3.4655056e-4,1.0329573e-4)" />
    <path
       style="fill:#000000;stroke:#747574;stroke-width:1px;stroke-linecap:butt;stroke-linejoin:miter;stroke-opacity:1;fill-opacity:1"
       d="m 625.69833,507.10906 15.73184,22.88269"
       id="path3029"
       inkscape:connector-curvature="0"
       transform="translate(-3.4655056e-4,1.0329573e-4)" />
  </g>
</svg>
