<?xml version="1.0" encoding="utf-8"?><svg xmlns="http://www.w3.org/2000/svg" width="96.13mm" height="117.07mm" viewBox="0 0 272.49 331.84"><title>Coat of arms of Novosibirsk oblast</title><path d="M108.94,0.55H0.5v260.6C0.37,274.38,4.94,300.23,32,299.28l77,0.62V0.55Z" fill="#fff" fill-rule="evenodd"/><path d="M108.94,0.55H0.5v260.6C0.37,274.38,4.94,300.23,32,299.28l77,0.62V0.55Z" fill="none" stroke="#000" stroke-miterlimit="22.93"/><path d="M162.74,0.55H272v260.6c0.13,13.23-4.22,38.65-31.23,37.69l-78,1.06V0.55Z" fill="#fff" fill-rule="evenodd"/><path d="M162.74,0.55H272v260.6c0.13,13.23-4.22,38.65-31.23,37.69l-78,1.06V0.55Z" fill="none" stroke="#000" stroke-miterlimit="22.93"/><path d="M101.83,0.5h68l0.45,299.56c-18.41,0-34.4,16.44-34.4,31.77,0-14.05-14.72-31.94-34.08-31.74V0.5Z" fill="#0039a6" fill-rule="evenodd"/><rect x="0.19" y="246.33" width="101.64" height="4.32"/><rect x="0.19" y="246.33" width="101.64" height="4.32" fill="none" stroke="#000" stroke-miterlimit="22.93" stroke-width="0.22"/><rect x="170.31" y="246.33" width="101.64" height="4.32"/><rect x="170.31" y="246.33" width="101.64" height="4.32" fill="none" stroke="#000" stroke-miterlimit="22.93" stroke-width="0.22"/><rect x="101.83" y="245.41" width="68.48" height="6.17" fill="#fff"/><polygon points="39.94 238.92 36.78 238.03 40.88 234.59 44.28 235.43 39.94 238.92" fill="#d81200" fill-rule="evenodd"/><polygon points="39.94 238.92 36.78 238.03 40.88 234.59 44.28 235.43 39.94 238.92" fill="none" stroke="#000" stroke-miterlimit="22.93" stroke-width="0.22"/><polygon points="34.72 237.57 31.56 236.67 35.66 233.24 39.06 234.08 34.72 237.57" fill="#d81200" fill-rule="evenodd"/><polygon points="34.72 237.57 31.56 236.67 35.66 233.24 39.06 234.08 34.72 237.57" fill="none" stroke="#000" stroke-miterlimit="22.93" stroke-width="0.22"/><path d="M18.1,87.78c1.17-2.14,3.8-3.5,6.09-2,2.56,2.29,2.26,2.9,4.21,6.07,0.76,1.22,2.48,2.71,4.21,4.76,3.77,4.43,8.06,13.21,9.06,19.12C44,126,40.39,135.36,36.52,142.91c-2.67,4.49-5.61,8.75-8,13.46-1.71,3.73-3.47,6.76-3.34,11.68,0.14,3,1,5.73,4.83,5,1.58-.26,2.89-1.65,4.3-3.49,0.33-.42,1-0.88,1.27-1.34-0.44,4.38.33,8.86-1.33,12.27a9.54,9.54,0,0,1-7.57,3.43c-4.2.52-8.32-1.71-10.16-6.7-6.25-17,2.71-47,2.72-59.19,0-15.12-5.67-23.92-1.15-30.18" fill-rule="evenodd"/><path d="M34.28,55.87a7.19,7.19,0,0,0,.45,4.47c-0.29-4-.38-7.39,2.38-9.52,2.54-1.47,5.74.64,6.65,3.91,0.06-1.37,1-4.17,2.12-3.8,1.4,0,.91,3,2,4.39,4.77,1.45,8.51,3.95,12.27,6.62,1.6,1.23,2.89,1.5,3.11,3.19,0.41,4.34-3.47,4.56-8.53,3.69-1.08,1,1.63,1.81,2.77,2a1.52,1.52,0,0,1-.93,1.82,31.91,31.91,0,0,1-7.72.26c-2,.16-2.57,3.71,1.12,5.41C62.85,83.43,70.08,89.93,77.2,97.37L54.28,111.29C50.8,100.85,44.38,91.4,34.45,82c-3.81-4.44-6.3-8.91-6.53-14.77-0.06-3.86,1.94-9,6.36-11.41" fill-rule="evenodd"/><path d="M51.53,59.66c1.43,0.6,2.1,1.4,2,2.57s-2.13,1-3.57.37S48,60.9,48.32,60s1.77-.92,3.2-0.32" fill="#fff" fill-rule="evenodd"/><path d="M51.24,60.07a1,1,0,1,1-1.07,1.06,1.06,1.06,0,0,1,1.07-1.06" fill-rule="evenodd"/><path d="M61.06,62.52c1,0.33,2.14.25,3,1.32,0.89,2.13-1.11,3.72-1.3,3.24,0-.75,0-1.83-0.4-2s-0.67.52-.8,0.92C61,65.15,61,64.32,61.06,62.52Z" fill="#fff" fill-rule="evenodd"/><path d="M61.06,62.52c1,0.33,2.14.25,3,1.32,0.89,2.13-1.11,3.72-1.3,3.24,0-.75,0-1.83-0.4-2s-0.67.52-.8,0.92C61,65.15,61,64.32,61.06,62.52Z" fill="none" stroke="#000" stroke-miterlimit="22.93" stroke-width="0.5"/><path d="M57.68,69.86c1.84-.14,3.57.59,5.68-0.56,2-1.4,3.75-2,6.4.14,1.28,0.73,3.34-.23,4.76-0.39-0.16,1.77-1.34,4-4.24,3.5-1.9-.16-2.15-1.44-4.16-1.55-1.74.11-1.91,1.66-3.37,1.77-2.78-.24-2.88-1.95-5.08-2.91" fill="#d20000" fill-rule="evenodd"/><path d="M47.25,74.33c0.34-1.43,1.31-1.6,3.49-1.39-1.28.12-1.4,1.65-.62,2.57,2.35,2.76,9.14,6.47,14.32,10.61a74.72,74.72,0,0,0-15.29-8.28C47.77,77,47,76,47.25,74.33Z" fill="#fff" fill-rule="evenodd"/><path d="M47.25,74.33c0.34-1.43,1.31-1.6,3.49-1.39-1.28.12-1.4,1.65-.62,2.57,2.35,2.76,9.14,6.47,14.32,10.61a74.72,74.72,0,0,0-15.29-8.28C47.77,77,47,76,47.25,74.33Z" fill="none" stroke="#000" stroke-miterlimit="22.93" stroke-width="0.5"/><path d="M38.7,54.16c1-.66,2.41.47,2.42,2.17-1.76-.3-2.26.55-2.53,3.07-1.28-1.21-1.35-4.34.11-5.24" fill="#fff" fill-rule="evenodd"/><path d="M99.73,75.56c-1.63-2.35-9.23,1.72-5.64,9.51C94.21,100.71,83,100,75.67,96.07c3.65,5.84,7.71,8.68,9.85,15.77,0.07,0.24,8.89-4.31,12.09-12.26,1.81-6.85,7.41-23.56,2.12-24" fill-rule="evenodd"/><path d="M102.31,75.59c-1.69-.9-1.95-0.33-3,0.46A0.87,0.87,0,0,1,99,74.38,3,3,0,0,1,102.31,75.59Z" fill="#fff" fill-rule="evenodd"/><path d="M102.31,75.59c-1.69-.9-1.95-0.33-3,0.46A0.87,0.87,0,0,1,99,74.38,3,3,0,0,1,102.31,75.59Z" fill="none" stroke="#000" stroke-miterlimit="22.93" stroke-width="0.22"/><path d="M104,77.31c-1.69-.9-1.95-0.33-3,0.46a0.87,0.87,0,0,1-.37-1.67A3,3,0,0,1,104,77.31Z" fill="#fff" fill-rule="evenodd"/><path d="M104,77.31c-1.69-.9-1.95-0.33-3,0.46a0.87,0.87,0,0,1-.37-1.67A3,3,0,0,1,104,77.31Z" fill="none" stroke="#000" stroke-miterlimit="22.93" stroke-width="0.22"/><path d="M103.39,79.38c-1.46-.77-1.68-0.28-2.54.4a0.75,0.75,0,0,1-.32-1.43A2.62,2.62,0,0,1,103.39,79.38Z" fill="#fff" fill-rule="evenodd"/><path d="M103.39,79.38c-1.46-.77-1.68-0.28-2.54.4a0.75,0.75,0,0,1-.32-1.43A2.62,2.62,0,0,1,103.39,79.38Z" fill="none" stroke="#000" stroke-miterlimit="22.93" stroke-width="0.22"/><path d="M60.46,186.79c-1.88-15.45,1.66-21.58,6.94-29.38-1.27,6.16-1.6,10.06,4.28,11.59,15.21,7.76,16.93,15.35,11.87,38.2-1.61,3.54,2.13,9.56,6.42,13,4.93,0.53,10.85-1.33,12.56,4,0.11,4.56-3.75,8.1-10.47,7.49-10.53-2.86-10.74-13.11-17.84-20.11,0.31-4.65,2.67-7.16-.64-11.12-3.08-4.51-11-4.51-13.12-13.67" fill-rule="evenodd"/><path d="M53.94,110.57L76.65,96.45c5.66,7.27,7.71,13.62,10.49,21.09,2,4.21,3.53,3.64,6.15-1.44,2.78-5,3.53-5.53,6.4-7.1h10.11a5.44,5.44,0,0,1,.08,1.81c0,3.06.09,7.94-7.45,10.21-2.84.23-4.09-.58-5.59,1-2.68,3.16-1.83,11.47-7.11,11.52-4.8-.42-7.91-4.87-12.9-11.39,1.17,2.72,1.69,5,4.4,7.09-3.67,15.68-7.9,17.92-13.22,26.14-4.06,6.84-9,12.23-9.14,23.73-0.43,5.8,1.68,10.18.92,16.93-0.34,3.38-1.05,10.43-6.86,14.35-5,4.46-13.08,2-18.7,5.22-1.94,1.62-3.33,7-2.3,12a2.56,2.56,0,0,0,2.46,2.58c5.53-.77,9.82.35,10.73,4.07,0.3,3.45-9.27,7.22-12.87,6.41-3.88-.74-6.49-6.81-7.22-11q-0.05-7-.1-14.06c0.49-8.77,12-4.14,9.83-18.89-1.7-6.4-1.05-9.5,1.09-15.29,0-8.21-.71-15.61,4.31-23.11,7.44-15.31,17.91-29.48,13.78-47.75" fill-rule="evenodd"/><path d="M94.28,230.25c0.46-.7,1-0.69,1.81-0.16,0.7,1.88,0,3.24-.65,4.65C95.2,232.89,94,231.32,94.28,230.25Z" fill="#fff" fill-rule="evenodd"/><path d="M94.28,230.25c0.46-.7,1-0.69,1.81-0.16,0.7,1.88,0,3.24-.65,4.65C95.2,232.89,94,231.32,94.28,230.25Z" fill="none" stroke="#000" stroke-miterlimit="22.93" stroke-width="0.22"/><path d="M96.89,230.12a1.12,1.12,0,0,1,2.08-.38c0.61,2-.53,3.06-1.15,4.47C98,231.72,97.18,232,96.89,230.12Z" fill="#fff" fill-rule="evenodd"/><path d="M96.89,230.12a1.12,1.12,0,0,1,2.08-.38c0.61,2-.53,3.06-1.15,4.47C98,231.72,97.18,232,96.89,230.12Z" fill="none" stroke="#000" stroke-miterlimit="22.93" stroke-width="0.22"/><path d="M99.42,228.41c0.07-.7,1.58-1.25,1.89-0.33,0.58,2-.68,2.88-1.27,4.3C100.65,230,99.52,230.15,99.42,228.41Z" fill="#fff" fill-rule="evenodd"/><path d="M99.42,228.41c0.07-.7,1.58-1.25,1.89-0.33,0.58,2-.68,2.88-1.27,4.3C100.65,230,99.52,230.15,99.42,228.41Z" fill="none" stroke="#000" stroke-miterlimit="22.93" stroke-width="0.22"/><path d="M101.37,226.4c0.07-.64.9-1.59,1.52-0.26,0.72,1.78-.63,2.65-1.18,4C102.54,227.4,101,227.51,101.37,226.4Z" fill="#fff" fill-rule="evenodd"/><path d="M101.37,226.4c0.07-.64.9-1.59,1.52-0.26,0.72,1.78-.63,2.65-1.18,4C102.54,227.4,101,227.51,101.37,226.4Z" fill="none" stroke="#000" stroke-miterlimit="22.93" stroke-width="0.22"/><path d="M36.8,239a1.27,1.27,0,0,1,1.8-.13c0.69,1.48,0,2.56-.66,3.67C37.7,241.09,36.54,239.86,36.8,239Z" fill="#fff" fill-rule="evenodd"/><path d="M36.8,239a1.27,1.27,0,0,1,1.8-.13c0.69,1.48,0,2.56-.66,3.67C37.7,241.09,36.54,239.86,36.8,239Z" fill="none" stroke="#000" stroke-miterlimit="22.93" stroke-width="0.22"/><path d="M39.38,238.9a1.21,1.21,0,0,1,2.07-.31c0.6,1.56-.54,2.42-1.16,3.53C40.5,240.16,39.66,240.42,39.38,238.9Z" fill="#fff" fill-rule="evenodd"/><path d="M39.38,238.9a1.21,1.21,0,0,1,2.07-.31c0.6,1.56-.54,2.42-1.16,3.53C40.5,240.16,39.66,240.42,39.38,238.9Z" fill="none" stroke="#000" stroke-miterlimit="22.93" stroke-width="0.22"/><path d="M41.9,237.54c0.07-.55,1.57-1,1.87-0.26,0.57,1.57-.69,2.28-1.27,3.4C43.12,238.76,42,238.92,41.9,237.54Z" fill="#fff" fill-rule="evenodd"/><path d="M41.9,237.54c0.07-.55,1.57-1,1.87-0.26,0.57,1.57-.69,2.28-1.27,3.4C43.12,238.76,42,238.92,41.9,237.54Z" fill="none" stroke="#000" stroke-miterlimit="22.93" stroke-width="0.22"/><path d="M43.84,235.95a0.78,0.78,0,0,1,1.5-.21c0.71,1.4-.64,2.09-1.19,3.13C45,236.74,43.5,236.83,43.84,235.95Z" fill="#fff" fill-rule="evenodd"/><path d="M43.84,235.95a0.78,0.78,0,0,1,1.5-.21c0.71,1.4-.64,2.09-1.19,3.13C45,236.74,43.5,236.83,43.84,235.95Z" fill="none" stroke="#000" stroke-miterlimit="22.93" stroke-width="0.22"/><path d="M110.11,107.83c0.27,2.7-.4,2.85-1.55,4-0.22,1.41.88,2.25,1.52,1.15A5.74,5.74,0,0,0,110.11,107.83Z" fill="#fff" fill-rule="evenodd"/><path d="M110.11,107.83c0.27,2.7-.4,2.85-1.55,4-0.22,1.41.88,2.25,1.52,1.15A5.74,5.74,0,0,0,110.11,107.83Z" fill="none" stroke="#000" stroke-miterlimit="22.93" stroke-width="0.22"/><path d="M108.81,108.36c0.43,2.48-.3,2.6-1.54,3.6-0.18,1.29,1.1,2.08,1.76,1.08A4.42,4.42,0,0,0,108.81,108.36Z" fill="#fff" fill-rule="evenodd"/><path d="M108.81,108.36c0.43,2.48-.3,2.6-1.54,3.6-0.18,1.29,1.1,2.08,1.76,1.08A4.42,4.42,0,0,0,108.81,108.36Z" fill="none" stroke="#000" stroke-miterlimit="22.93" stroke-width="0.22"/><polygon points="231.93 238.8 235.09 237.9 231 234.47 227.59 235.31 231.93 238.8" fill="#d81200" fill-rule="evenodd"/><polygon points="231.93 238.8 235.09 237.9 231 234.47 227.59 235.31 231.93 238.8" fill="none" stroke="#000" stroke-miterlimit="22.93" stroke-width="0.22"/><polygon points="237.15 237.44 240.31 236.55 236.22 233.12 232.82 233.95 237.15 237.44" fill="#d81200" fill-rule="evenodd"/><polygon points="237.15 237.44 240.31 236.55 236.22 233.12 232.82 233.95 237.15 237.44" fill="none" stroke="#000" stroke-miterlimit="22.93" stroke-width="0.22"/><path d="M253.78,87.66c-1.17-2.14-3.8-3.5-6.09-2-2.56,2.29-2.26,2.9-4.21,6.07-0.76,1.22-2.48,2.72-4.21,4.76-3.77,4.44-8.06,13.21-9.06,19.12-2.34,10.32,1.28,19.64,5.14,27.18,2.67,4.49,5.61,8.75,8,13.46,1.71,3.73,3.47,6.76,3.34,11.68-0.14,3-1,5.73-4.82,5-1.58-.26-2.89-1.65-4.3-3.49-0.33-.42-1-0.88-1.27-1.34,0.44,4.38-.33,8.87,1.33,12.27a9.54,9.54,0,0,0,7.57,3.43c4.2,0.52,8.32-1.71,10.16-6.7,6.25-17-2.71-47-2.72-59.19,0-15.12,5.67-23.92,1.15-30.18" fill-rule="evenodd"/><path d="M237.59,55.75a7.19,7.19,0,0,1-.45,4.47c0.29-4,.38-7.39-2.38-9.53-2.54-1.47-5.74.64-6.65,3.91-0.06-1.37-1-4.17-2.12-3.8-1.41,0-.91,3-2,4.39-4.77,1.45-8.51,3.95-12.27,6.62-1.6,1.23-2.89,1.5-3.11,3.19-0.41,4.34,3.47,4.56,8.53,3.69,1.08,1-1.63,1.81-2.77,2a1.52,1.52,0,0,0,.93,1.82,31.92,31.92,0,0,0,7.72.26c2,0.16,2.57,3.71-1.12,5.41C209,83.3,201.79,89.8,194.68,97.24l22.92,13.92c3.48-10.44,9.9-19.89,19.83-29.24,3.81-4.44,6.3-8.91,6.53-14.77,0.06-3.86-1.94-9-6.36-11.41" fill-rule="evenodd"/><path d="M220.35,59.54c-1.43.6-2.1,1.4-2,2.57s2.13,1,3.57.37,2-1.7,1.63-2.62-1.77-.92-3.2-0.32" fill="#fff" fill-rule="evenodd"/><ellipse cx="220.61" cy="60.99" rx="1.04" ry="1.09" transform="translate(155.97 280.56) rotate(-89.05)"/><ellipse cx="220.61" cy="60.99" rx="1.04" ry="1.09" transform="translate(155.97 280.56) rotate(-89.05)" fill="none" stroke="#000" stroke-miterlimit="22.93" stroke-width="0.22"/><path d="M210.81,62.56c-1,.33-2.14.25-3,1.32C207,66,209,67.61,209.15,67.12c0-.75,0-1.83.4-2s0.67,0.52.8,0.92C210.84,65.18,210.9,64.35,210.81,62.56Z" fill="#fff" fill-rule="evenodd"/><path d="M210.81,62.56c-1,.33-2.14.25-3,1.32C207,66,209,67.61,209.15,67.12c0-.75,0-1.83.4-2s0.67,0.52.8,0.92C210.84,65.18,210.9,64.35,210.81,62.56Z" fill="none" stroke="#000" stroke-miterlimit="22.93" stroke-width="0.5"/><path d="M214.2,69.74c-1.84-.14-3.58.59-5.68-0.56-2-1.4-3.75-2-6.4.14-1.28.73-3.34-.23-4.76-0.39,0.16,1.77,1.34,4,4.24,3.5,1.9-.16,2.14-1.44,4.16-1.55,1.74,0.11,1.91,1.66,3.37,1.77,2.78-.24,2.88-1.95,5.08-2.91" fill="#d20000" fill-rule="evenodd"/><path d="M224.62,74.2c-0.34-1.43-1.31-1.6-3.49-1.39,1.28,0.12,1.4,1.65.62,2.57-2.35,2.76-8.48,6.2-13.67,10.34a68.73,68.73,0,0,1,14.64-8C224.1,76.88,224.88,75.88,224.62,74.2Z" fill="#fff" fill-rule="evenodd"/><path d="M224.62,74.2c-0.34-1.43-1.31-1.6-3.49-1.39,1.28,0.12,1.4,1.65.62,2.57-2.35,2.76-8.48,6.2-13.67,10.34a68.73,68.73,0,0,1,14.64-8C224.1,76.88,224.88,75.88,224.62,74.2Z" fill="none" stroke="#000" stroke-miterlimit="22.93" stroke-width="0.5"/><path d="M233.17,54c-1-.66-2.41.47-2.42,2.17,1.76-.3,2.26.56,2.53,3.07,1.28-1.21,1.35-4.34-.11-5.24" fill="#fff" fill-rule="evenodd"/><path d="M172,74.42c1.56-2.4,9.27,1.47,5.9,9.35,0.31,15.64,11.8,15.1,19,11-4.15,5.28-7.9,7.78-9.79,14.67-0.07.24-8.89-3.18-12.31-11-2-6.8-8.06-23.35-2.78-24" fill-rule="evenodd"/><path d="M169.42,74.52c1.67-.94,1.94-0.38,3,0.38a0.87,0.87,0,0,0,.33-1.68A3,3,0,0,0,169.42,74.52Z" fill="#fff" fill-rule="evenodd"/><path d="M169.42,74.52c1.67-.94,1.94-0.38,3,0.38a0.87,0.87,0,0,0,.33-1.68A3,3,0,0,0,169.42,74.52Z" fill="none" stroke="#000" stroke-miterlimit="22.93" stroke-width="0.22"/><path d="M167.74,76.3c1.67-.94,1.94-0.38,3,0.38A0.87,0.87,0,0,0,171,75,3,3,0,0,0,167.74,76.3Z" fill="#fff" fill-rule="evenodd"/><path d="M167.74,76.3c1.67-.94,1.94-0.38,3,0.38A0.87,0.87,0,0,0,171,75,3,3,0,0,0,167.74,76.3Z" fill="none" stroke="#000" stroke-miterlimit="22.93" stroke-width="0.22"/><path d="M168.44,78.34c1.44-.81,1.67-0.33,2.55.33a0.75,0.75,0,0,0,.28-1.44A2.62,2.62,0,0,0,168.44,78.34Z" fill="#fff" fill-rule="evenodd"/><path d="M168.44,78.34c1.44-.81,1.67-0.33,2.55.33a0.75,0.75,0,0,0,.28-1.44A2.62,2.62,0,0,0,168.44,78.34Z" fill="none" stroke="#000" stroke-miterlimit="22.93" stroke-width="0.22"/><path d="M211.42,186.67c1.88-15.45-1.66-21.58-6.94-29.38,1.27,6.16,1.6,10.06-4.28,11.59-15.21,7.76-16.93,15.35-11.87,38.2,1.61,3.54-2.13,9.56-6.42,13-4.93.53-10.85-1.33-12.56,4-0.11,4.56,3.75,8.1,10.47,7.49,10.53-2.86,10.74-13.11,17.84-20.11-0.31-4.65-2.67-7.16.64-11.12,3.08-4.51,11-4.51,13.12-13.67" fill-rule="evenodd"/><path d="M217.93,110.45L195.23,96.32c-5.66,7.27-7.71,13.62-10.49,21.09-2,4.21-3.53,3.63-6.15-1.44-2.78-5-3.53-5.53-6.4-7.1H162.08a5.44,5.44,0,0,0-.08,1.81c0,3.06-.09,7.94,7.45,10.21,2.84,0.24,4.09-.58,5.59,1,2.68,3.16,1.83,11.47,7.11,11.52,4.8-.42,7.91-4.87,12.9-11.39-1.17,2.72-1.69,5-4.4,7.09,3.67,15.68,7.9,17.92,13.22,26.14,4.06,6.84,9,12.23,9.14,23.73,0.43,5.8-1.68,10.18-.92,16.93,0.34,3.38,1.05,10.43,6.86,14.35,5,4.46,13.08,2,18.7,5.22,1.94,1.62,3.33,7,2.3,12a2.56,2.56,0,0,1-2.46,2.58c-5.53-.77-9.82.35-10.73,4.07-0.3,3.45,9.27,7.22,12.87,6.41,3.88-.74,6.49-6.81,7.22-11q0.05-7,.1-14.06c-0.49-8.77-12-4.14-9.83-18.89,1.7-6.4,1.05-9.49-1.09-15.29,0-8.21.71-15.61-4.31-23.11-7.44-15.31-17.91-29.48-13.78-47.75" fill-rule="evenodd"/><path d="M177.59,230.13c-0.46-.7-1-0.69-1.81-0.16-0.7,1.88,0,3.24.65,4.65C176.67,232.76,177.84,231.2,177.59,230.13Z" fill="#fff" fill-rule="evenodd"/><path d="M177.59,230.13c-0.46-.7-1-0.69-1.81-0.16-0.7,1.88,0,3.24.65,4.65C176.67,232.76,177.84,231.2,177.59,230.13Z" fill="none" stroke="#000" stroke-miterlimit="22.93" stroke-width="0.22"/><path d="M175,230a1.12,1.12,0,0,0-2.08-.38c-0.61,2,.53,3.06,1.15,4.47C173.85,231.59,174.69,231.92,175,230Z" fill="#fff" fill-rule="evenodd"/><path d="M175,230a1.12,1.12,0,0,0-2.08-.38c-0.61,2,.53,3.06,1.15,4.47C173.85,231.59,174.69,231.92,175,230Z" fill="none" stroke="#000" stroke-miterlimit="22.93" stroke-width="0.22"/><path d="M172.45,228.29c-0.07-.7-1.58-1.25-1.89-0.33-0.58,2,.68,2.88,1.27,4.3C171.22,229.83,172.36,230,172.45,228.29Z" fill="#fff" fill-rule="evenodd"/><path d="M172.45,228.29c-0.07-.7-1.58-1.25-1.89-0.33-0.58,2,.68,2.88,1.27,4.3C171.22,229.83,172.36,230,172.45,228.29Z" fill="none" stroke="#000" stroke-miterlimit="22.93" stroke-width="0.22"/><path d="M170.5,226.27c-0.07-.64-0.9-1.59-1.52-0.26-0.72,1.78.63,2.65,1.18,4C169.34,227.28,170.85,227.39,170.5,226.27Z" fill="#fff" fill-rule="evenodd"/><path d="M170.5,226.27c-0.07-.64-0.9-1.59-1.52-0.26-0.72,1.78.63,2.65,1.18,4C169.34,227.28,170.85,227.39,170.5,226.27Z" fill="none" stroke="#000" stroke-miterlimit="22.93" stroke-width="0.22"/><path d="M235.08,238.89a1.27,1.27,0,0,0-1.8-.13c-0.69,1.48,0,2.56.66,3.67C234.18,241,235.33,239.74,235.08,238.89Z" fill="#fff" fill-rule="evenodd"/><path d="M235.08,238.89a1.27,1.27,0,0,0-1.8-.13c-0.69,1.48,0,2.56.66,3.67C234.18,241,235.33,239.74,235.08,238.89Z" fill="none" stroke="#000" stroke-miterlimit="22.93" stroke-width="0.22"/><path d="M232.49,238.78a1.21,1.21,0,0,0-2.07-.31c-0.6,1.56.54,2.42,1.16,3.53C231.37,240,232.21,240.3,232.49,238.78Z" fill="#fff" fill-rule="evenodd"/><path d="M232.49,238.78a1.21,1.21,0,0,0-2.07-.31c-0.6,1.56.54,2.42,1.16,3.53C231.37,240,232.21,240.3,232.49,238.78Z" fill="none" stroke="#000" stroke-miterlimit="22.93" stroke-width="0.22"/><path d="M230,237.42c-0.07-.55-1.57-1-1.87-0.26-0.57,1.57.69,2.28,1.27,3.4C228.76,238.63,229.89,238.79,230,237.42Z" fill="#fff" fill-rule="evenodd"/><path d="M230,237.42c-0.07-.55-1.57-1-1.87-0.26-0.57,1.57.69,2.28,1.27,3.4C228.76,238.63,229.89,238.79,230,237.42Z" fill="none" stroke="#000" stroke-miterlimit="22.93" stroke-width="0.22"/><path d="M228,235.82a0.78,0.78,0,0,0-1.5-.21c-0.71,1.4.64,2.09,1.19,3.13C226.88,236.61,228.38,236.71,228,235.82Z" fill="#fff" fill-rule="evenodd"/><path d="M228,235.82a0.78,0.78,0,0,0-1.5-.21c-0.71,1.4.64,2.09,1.19,3.13C226.88,236.61,228.38,236.71,228,235.82Z" fill="none" stroke="#000" stroke-miterlimit="22.93" stroke-width="0.22"/><path d="M161.77,107.71c-0.27,2.7.4,2.85,1.55,4,0.22,1.41-.88,2.25-1.52,1.15A5.74,5.74,0,0,1,161.77,107.71Z" fill="#fff" fill-rule="evenodd"/><path d="M161.77,107.71c-0.27,2.7.4,2.85,1.55,4,0.22,1.41-.88,2.25-1.52,1.15A5.74,5.74,0,0,1,161.77,107.71Z" fill="none" stroke="#000" stroke-miterlimit="22.93" stroke-width="0.22"/><path d="M163.06,108.24c-0.43,2.48.3,2.6,1.54,3.6,0.18,1.29-1.1,2.08-1.76,1.08A4.42,4.42,0,0,1,163.06,108.24Z" fill="#fff" fill-rule="evenodd"/><path d="M163.06,108.24c-0.43,2.48.3,2.6,1.54,3.6,0.18,1.29-1.1,2.08-1.76,1.08A4.42,4.42,0,0,1,163.06,108.24Z" fill="none" stroke="#000" stroke-miterlimit="22.93" stroke-width="0.22"/><path d="M96.5,109.59h79.3v-5.8a0.18,0.18,0,0,0,0-.09c-5.67-14.32-15.57-21.94-26.21-25.27-0.19-.06-1.14-0.3-1.45-0.41-0.07,0,0-.14,0-0.18l0-4h-24v4.25s0.1,0,0,0-0.77.21-.87,0.24C112.84,81.56,102.33,89,96.5,103.65h0v5.93" fill="gold" fill-rule="evenodd"/><path d="M101.78,299.87c21.73,0,34.12,20.65,34.12,32,0-17.64,17.8-32,34.38-32" fill="none" stroke="#000" stroke-miterlimit="22.93"/><line x1="101.94" y1="0.5" x2="169.59" y2="0.5" fill="none" stroke="#000" stroke-miterlimit="22.93"/></svg>
