<?xml version="1.0"?>
<svg xmlns="http://www.w3.org/2000/svg" width="150.03mm" height="282.22mm" viewBox="0 0 425.28 800">
  <title>Coat_of_Arms_of_Perm_Krai</title>
  <path d="M425.09,282.43H0V693.66c0.4,27,10.56,51.7,36.36,63.39a73.71,73.71,0,0,0,26.71,6.2h0.12c17.37-.06,34.88-2.56,52.13-4.45,10.12-1.11,20.29-2.07,30.48-2.31a85.51,85.51,0,0,1,16.57,1.88A90.54,90.54,0,0,1,194.68,772c7.44,5.16,15.13,12.59,17.9,21.44l2,6.56,2.06-6.56c4.15-13.18,19.3-24.2,31.26-29.89,9.39-4.46,20.68-7.71,31.17-7.15h0.11c28.06,0,55.94,4.23,83.85,6.6a54.9,54.9,0,0,0,25.54-4.34,56.87,56.87,0,0,0,26.5-24.26c7.29-12.66,10.19-27.39,10.16-41.88Zm-293.9,232.9c-0.43,1.64-2.38,4.31-3.67,4.31-2.29,0-3.19-2.07-3.53-4.44-0.18-1.28-.91-3.26,1-5.46,1-1.22,2.17-2.07,2.8.91,0.27,1.3,2.45-.4,3.14.16C131.81,511.53,131.62,513.73,131.19,515.33Z" style="fill: #694b32"/>
  <path d="M422.94,284.58H2.15V693.65c0.71,47,30.19,65.93,61,67.46,26.21-.09,55.07-6.13,82.6-6.76,30.15,0.33,62.47,18,68.86,38.45,6.4-20.35,39.5-39.88,64.59-38.55,28.05,0,56,4.23,84,6.6,32.68,2.14,60-24.33,59.87-68.33Zm-292,226.23c0.89,0.72.7,2.92,0.27,4.52s-2.38,4.31-3.67,4.31c-2.29,0-3.19-2.07-3.53-4.44-0.18-1.28-.91-3.26,1-5.46,1-1.22,2.17-2.07,2.8.91C128,512,130.23,510.25,130.92,510.81Z" style="fill: #dc231e"/>
  <path d="M343.54,592.45l3.05-.2-0.7-3c-1.81-7.64-3.39-20.11-7.77-26.44l-0.18-.26-0.23-.21c-6.09-5.38-12.87-11.42-15.9-19.15l-0.09-.24-0.14-.21c-2.27-3.55-6.1-3.78-9.91-3.88h-0.19c1.48-1.22,1.65-3.33,2.16-5.1h-3l0.28-.83-10.26.26a4.12,4.12,0,0,0,.25-1.44v-1.59l-1.43-.71c-3.69-1.85-10.41-1.06-15.63-.08a3.18,3.18,0,0,0,.74-3L284,524.71l-1.79-.07c-3-.11-6.73,1.72-9.44,3-0.69.32-2.76,1.33-4.58,2,0.23-.24.47-0.47,0.71-0.69l0.66-.62a2.68,2.68,0,0,0,.55-3.55,2.64,2.64,0,0,0-3.49-.81,27.28,27.28,0,0,1-7.72,1.71,18.87,18.87,0,0,0-5.88,1.55,11.72,11.72,0,0,1-2.16-.19l-1.3-.22c-2.91-.55-6.56-1.47-7.86-1.79q-4.95-1.2-9.87-2.51c-1.64-.42-3.28-0.86-4.91-1.29l-6.64-1.76c-5.1-1.35-10.21-2.7-15.34-4-1.13-.29-2.27-0.56-3.4-0.84l-0.1,0c-2.13-.51-4.46-1.08-6.8-1.56l-1.29-.26q-1.43-.27-2.82-0.48l-1.09-.14L188,512l-1.39-.09c-0.37,0-.73,0-1.1,0-1,0-1.93,0-2.87,0-0.37,0-.74,0-1.1.09-0.64.06-1.28,0.14-1.9,0.26a14.37,14.37,0,0,0-1.45.31,18.63,18.63,0,0,0-8.33,4.52,61.76,61.76,0,0,1-7.77,3.66c-0.51.2-1.58,0.6-2.77,1a3.46,3.46,0,0,0-.08-3.53c-1.35-2-4.2-1.47-6.25-1.3-1,.09-2,0.16-3,0.18,0-.14.1-0.29,0.14-0.45a2.12,2.12,0,0,0,.1-0.8v-3.5l-3.35,1c-3.19,1-6.11.69-9.09,2.8a8,8,0,0,0-1.91,1.9c1.72-4.24,1.86-10.66-1.53-13.44l0,0,0,0c-4.19-3.13-8.42-2.65-12.13-.41,0-2-1.84-2.69-3.42-3.1-1.93-.51-4.1-2.39-4.9-2.56l-0.27-.06h-0.27c-3.14,0-6.12,3.43-7.65,6-1.64,2.79-2.48,7.06-.11,9.71a4.73,4.73,0,0,0,.61.58C102.43,516.4,99,519,96,521l-0.16.12c-1.42,1.13-3.36,4.94-4.31,6.61A45.61,45.61,0,0,1,89,532l-0.44-.13-1.09,1.24c-4.23,4.78-11.92,6.71-17.63,9.33l-1.22.56-0.24,1.32a6.81,6.81,0,0,0,.06,2.66,8.69,8.69,0,0,1,.28,1.59v1.74l1.62,0.65a0.42,0.42,0,0,1,.13.07c0.73,0.89.22,5.66,1.79,9.72L74,562.93c2.54,3.52,4.72,5.89,10.67,7.11,2.77,0.58,5.64.85,8.44,1.3s8,1.34,9.61,3.76a3,3,0,0,1,.39.82l0.57,1.8h1.9a4.27,4.27,0,0,0,3.53-1.68,8.15,8.15,0,0,0,1.43,3.39l1.15,1.4,1.71-.6a4.81,4.81,0,0,0,2.9-2.59,2.75,2.75,0,0,0,1.08,1.35c1.45,1,3,.35,4.23-0.57,0.35-.27.71-0.55,1.06-0.85,0.7,1.93,1,4,2.73,5,1.93,1.08,4,0,5.75-1.19a21.21,21.21,0,0,1-.34,3.69,12.35,12.35,0,0,0,.16,5.41l1.11,3.54-1.64,1.55c-2,1.91-4.84,2.71-7.17,4.23l-0.11.07-0.1.09a32.46,32.46,0,0,1-6.49,3.44,26,26,0,0,0-6.92,4.17c-4.94,2.31-7,6.68-9.36,11.35a28.72,28.72,0,0,1-2.86,4.88l-0.66.85,0.15,1.07A1.75,1.75,0,0,1,96.6,627a23.15,23.15,0,0,0-2.3,3.44l-0.07.13,0,0.15c-0.94,3.06-3,5.82-4.42,8.65A21.7,21.7,0,0,0,88,644c-0.25.87-.54,2.79-0.77,3.23l-0.7.54-0.18,1a11.65,11.65,0,0,0,.6,7.09c3.86,7.63,5.08,8.12,13.6,6.64a7,7,0,0,0,4.3-2.26c1.13-1.23,1.26-2.41,2-3.72l0.26-.46,0.06-.53c0.64-5.58,7.68-7.25,9-14.6l0.41-.51a2.62,2.62,0,0,0,1.16,1,2.79,2.79,0,0,0,2.91-.33l6.34-5.57c-4.18,6.43,6.76,3.2,9.79,1.19a2.46,2.46,0,0,0,.51.65c1.78,1.68,3.7.19,5-1a25.79,25.79,0,0,0,2.91-3.19,15.28,15.28,0,0,0,2.62-6.82l0.76,1.2c0.21,0.48.43,1,.66,1.45a46.72,46.72,0,0,1,2.47,7.53l0.17,0.72,0.53,0.52c1.19,1.18,2.77,2.13,4.46,1.24a3.13,3.13,0,0,0,.36-0.22c0.14,1,.24,1.83.28,2.28,0.15,1.51.26,3,.37,4.53a19.29,19.29,0,0,0,.44,3.41l0.47,1.68,1.75,0.18a1.87,1.87,0,0,1,.29.06c0.65,1.26-.8,5.85,1.28,8.82l0.71,1,1,0.06a8.35,8.35,0,0,1,.48,4.07h-1v2.58c0,5.07-4.21,6.33-8.38,7.53-3.82,1.1-8.77,2.13-11.29,5.47a7.65,7.65,0,0,0-1,1.82l-1,2.42,2.45,0.94,0.11,0a3.32,3.32,0,0,0,0,4c1,1.19,2.48,1.23,4,.76a2.9,2.9,0,0,0,.19.54,2.6,2.6,0,0,0,3.27,1.27,85.41,85.41,0,0,1,33-5.27c4.58,0.17,5.76-5.08,6.21-8.6,0.15-1.24.25-2.47,0.36-3.71,0-.19,0-0.43.06-0.69H192v-1.41a3.78,3.78,0,0,0,1.8-.61c3.44-2.1,3-6.64,3-10.1a11.7,11.7,0,0,1,.48-4l3.57-3.56,0.4-12.47,2.38,2-0.09-5.72a20.67,20.67,0,0,0-.33-3.35l2,0.82,0.35-3.44a12.42,12.42,0,0,0,0-1.59H206l1.76-2.26c0.87-1.1,2,2.32,3.17,2.92,1.4,0.7,3.34,0,4.82-.17a18.33,18.33,0,0,1,4.25-.13c2.31,0.24,3.19-1.53,3.86-3.28a24.55,24.55,0,0,0,3.53,2.91,2.44,2.44,0,0,0,1.55.41c2-.07,2.74-1.85,3.15-3.52,0.61,1.92,1.3,4.17,3.4,4.88l0.24,0.08a9.12,9.12,0,0,0,.54,3.71c0.87,2.36,1.65,4.78,2.51,7.15,0.64,1.73,1.29,3.49,2,5.18a18,18,0,0,0,.83,1.71,3,3,0,0,0,3.37,1.71,2.46,2.46,0,0,0,.89-0.43c0.13,1.28.21,2.65,0.28,3.25a13.3,13.3,0,0,0,1,3.71c0.28,0.64.65,1.29,0.89,1.94a2,2,0,0,1,.13.48,3,3,0,0,1-.07,1.29c-0.82,2.77-6.73,5.57-9.13,6.75-5,2.48-15.36,5.63-15.19,12.4v0.13l0,0.13c0.94,7.3,15.85,7.46,19.63,7.25A77.74,77.74,0,0,0,255.11,686c4.41-1.34,11-3.54,14.83-6.07,8.71-5.75,8.22-15.84,6-24.81l-1.51-6c0.16-.88.5-1.92,0.69-2.78,0.33-1.55.66-3.53,0-5,2.88-.4,2.66-4.25,2.66-6.37v-0.37c0.47,0.93.89,1.8,1.1,2.24,0.7,1.48,1.36,3,2,4.44,1.32,2.88,4,8.56,6,1.71,1.26,5.69,4.85,17.46,9,20.66l3.48,2.67,1.54-10.13a27.32,27.32,0,0,1,5.32,10.78,10.84,10.84,0,0,1-.75,2.8c-0.89,2-6.23,4.8-8.15,6a29.18,29.18,0,0,0-4.81,3.63c-3.29,3.21-4.92,6.86-3.54,9.14,3.94,6.5,24,4.48,29.1,1.42,7.28-6.4,16.17-11.82,23.38-18.29L342,671l0.2-.77c1.5-6-3.28-13.09-5.86-18.32a53.11,53.11,0,0,1-3.19-7.31l0.37,0.15,3.11,1.28,0.43-3.33c0.71-5.4-.27-9.6-2-14.64-0.75-2.12-1.51-4.16-2-6.3a3.39,3.39,0,0,0,3.15.66,3.08,3.08,0,0,0,1.87-1.7,10.82,10.82,0,0,0,.92-5.44c-0.16-2.07-.81-4.06-0.93-6.13a11.32,11.32,0,0,1,1.78-6.63c2.7-4.61.76-8.35-1.93-12a9,9,0,0,0,1.4.94A8,8,0,0,0,343.54,592.45ZM141.41,528l0-.07h0Zm-10.49-17.21c0.89,0.72.7,2.92,0.27,4.52s-2.38,4.31-3.67,4.31c-2.29,0-3.19-2.07-3.53-4.44-0.18-1.28-.91-3.26,1-5.46,1-1.22,2.17-2.07,2.8.91C128,512,130.23,510.25,130.92,510.81Zm6.82,11.9-0.3.42-0.34.44a3.51,3.51,0,0,0-.38-0.71l-0.1-.15h1.12Zm-4-.87c-0.29.08-.72,0.18-1.19,0.27,0.64-.61,1.34-1.18,1.69-1.45l0.24-.18Z"/>
  <path d="M273.41,655.7l-1.61-6.44c-0.16-.65,2.22-7,0.41-7.32-7.53-1.54-.71-6.75-10.31-9.18-2.29-.58-1.37,6.06-4,6.12-4.06.09-2.64-8.26-6.55-7.72-2.53.35-1.49,4.32-2,7.32,0,0.1-3-1-6.11-6.72-2.61-4.82-6.17-1-4.52,3.41,0.28,0.74,5,15,5.68,14.14,4.19-5.49,3.85.56,4.38,5,0.36,3.15,1.7,4.19,2,6,0.72,4.71-4.25,7.6-10.6,10.74-5,2.47-13.88,5.3-13.75,10,0.44,3.39,8.31-5.8,4.47,1.7,1.54,0.44,10.45-5.29,6.55,1.2s24.37-1.89,31.08-6.32C276.1,672.72,275.4,663.67,273.41,655.7ZM112.82,502.4c-7,0-10.29,16.23,2.06,9.19-0.27-3.29,1.93-4.8,3-7.13C122.31,504.27,116.64,503.22,112.82,502.4ZM329.79,639c2.65-1.64,2.53,2.53,4.68,3.41,1.27-9.72-3.67-15-4.68-23.47,1-4.93,4.92,2.73,5.82.75,2.67-5.86-3.19-9.71,1.9-18.42,4.88-8.38-11.62-13.25-4.9-22.64,3.55,3.79,4.94,11.61,10.77,11.24-1.65-6.94-3.47-19.9-7.39-25.58-6.71-5.93-13.42-12.07-16.59-20.15-2.91-4.54-10.38-1.18-14.3-4.08,0.65-1.82,4.18-2.15,5.22-3.7-0.41,0-1.83.18-1.52-.75l-12.94.28c-0.89-2.4,2.46-2.09,2.46-4.12-3.8-1.89-12.84-.17-17.91,1-2-1.39,1.85-5.15,1.72-5.53-4.94-.18-14,7.13-17.92,5.15-1.14-2.78,5.35-7,3.42-6.06-8.16,3-7.87.8-13.79,3.34h0a7.18,7.18,0,0,1-3-.08v1.08H188.31a12.55,12.55,0,0,1-4.82-.85h0a9.74,9.74,0,0,1-1.48-.74c-0.23-.14-0.45-0.29-0.66-0.44a6.82,6.82,0,0,1-1.12-1,3.9,3.9,0,0,1-.38-0.43l-0.25-.33a1.39,1.39,0,0,1-.13-0.18l-0.18-.28a7.07,7.07,0,0,1-.73-1.55c0-.13-0.09-0.26-0.12-0.4a4.38,4.38,0,0,1-.12-0.49,12.8,12.8,0,0,1-.14-1.64v-7.06a15.48,15.48,0,0,0-6.77,3.92c-2.54,1.52-14,7.15-17.59,5.88,7.54-9.29,1.33-4.15-8.86-5.68,0-1.91,2.66-2.37,2.66-3.53-3.27,1-8.09.73-10,4.29,3.37,0,4.68.84,1.9,4.54l5.44,1.64c2.93,0.88-6.07,4.73-.38,6.82-1.77.88-2.78,5-5.44,2.39-0.44-3.09,1.84-1.81-1.52-3.15-1.37-.55.57-2.85,0.76-3.41-5.68.94-2.65-2.95-3.8-4.67-7.75,2.06-7.37-1.48-1.9-5.68,1.85-2.77,2.84-9.65,0-12-4.62-3.45-9.24-1.2-13.16,3-2.66,3.66,1.64,5.56,1.89,8.58-3,.72-6.92,3.89-7.34-2.39-5.61-.94-12.21,4.33-16.58,7.32-1.64,1.3-6.4,12.11-8.11,11.61-4.68,5.29-12.15,7.06-18.48,10-0.25,1.39.38,2.4,0.38,3.79,3.8,1.51.37,7.45,2.94,10.53,3.93-1.38,8.79,2.48,12.08-.43,2.41,0,5-2.53,6.63,0-2.92,4-7.09,5.55-12.41,5.3-1.52,6.38,22.19,2,25.07,11.23,2.53,0,1.77-3.66,4.68-3.16,1.39,1.39,1.14,4.42,2.28,5.81,2.53-.89,1.39-4.3,3.42-5.43,5.74,0.82-1.08,9,7.34,1.13,3.89,4.4.91,10.11,7.72,4.68,5.19,1.13,1.14,7.44,2.41,11.48,5.06-3.91,1.65,4.42,5.32,4.29-0.38,2.65.42,5.12,0,7.77,2.76,2.29,1.21,8.86,4.56,3,2.74,0.34,2,13,2.61,15.2a1.67,1.67,0,0,1,2.79-1.14c0,6.69,4,11.11,5.44,17,2.74,2.7,1.27-2,2.79-2.65,3.34-1.52,3.15,12.74,3.79,15,4.81,0.5,1.4,7.07,3.42,10,3.54,0.21,3.06,9.21,1.65,9.21,0,12.35-17.91,8.35-20.89,15.78,1.64,0.63,3.16-1.27,4.3.38-6.59,6.56-1.59,5,3,1.51,3.8,2.14-2.24,4.93-1.52,4.67a87.58,87.58,0,0,1,33.93-5.43c4.68,0.18,3.24-13,4.69-13,0-4.57,1.21-.52,3-1.64,3.29-2,.53-9.23,2.66-13.37l3.17-3.16,0.38-11.86c0.53-2.51-3.87-8.41,2.28-3.16-0.13-8.34-6-13.22-3.8-22.21,1-.38.92,3.57,2.81,5.22,0.31,1.63,2,10.28,3,10.72,0.09-.92-0.42-3.91.76-3.91l1.14-10.35c2.09,0-.84-9-0.38-11.1,5.84-2.19,8,15.62,6.2,15,0.75,10.39,2.41,6.07,9.63,6.81,1.5,0.15,1.1-5.92,4.44-3.35,2.14,1.65,2,2.07,4,3.35,0.76,0.47,1.34-5,1.68-5.18,5.91-3.37,2.53,15,10.64,2.1,1.88-3,3.81,3.77,7,4.34,1.34,0.23,3.07-.57,4.49-0.93,5.38-1.39,5.34,10.72,7-2.64,2.88,1.31,4.28,7.25,5.49,4.33,1.92-4.65-3.16-12.62.38-16.91,4-.82,9.62,37.18,9.62,21.45,0-16.4,7.76,5.7,9.47,7.91,0-6.62,5.64-2.87,4.68,1.89,0.59,5.5,3.95,13.62,8.13,16.83l1.5-9.89c5,1.52,9.22,11.08,9.83,14.93a11.28,11.28,0,0,1-1,4.17c-2.34,5.29-14.86,7.54-16.45,15.46,1.11-1.11,4.35-2.32,5.44-1.89-0.23,1.27-.58,3.13-1.9,3.79,3.78,0,4.56-4.39,4.56,2,5-2.26,11.17-1.65,16.88-2.18,6.46-5.68,16.75-13.24,23.08-18.92C341.67,659.87,328.78,648.66,329.79,639ZM94,540.82c-1.58-.37,3.14-10.92,6.32-1.4C101.22,543.8,102.21,542.74,94,540.82Zm31-31.08c1-1.22,2.17-2.07,2.8.91,0.27,1.3,2.45-.4,3.14.16,0.89,0.72.7,2.92,0.27,4.52s-2.38,4.31-3.67,4.31c-2.29,0-3.19-2.07-3.53-4.44C123.81,513.92,123.08,511.94,125,509.74Zm7.35,54.79c-2.21,0-4.14-.59-4.16,2.13-0.06,6.05-6.64.18-6.62,4.49,0,0.84-.74.94-1.06,0.39-1.17-2.08-3.59-2.06-5.68-2.43-4.24-.74-3.13-4.75-0.68-3.37,0.53,0.29,2.2,1.37,2.53,1.45,3.42,0.88,3.46-.66,4-2.64,0.41-1.59,2.09,0,2.51,1.06,0.66,1.71,2.3,2,2.74,1.77,0.72-.43,0-2.63,0-4,0-2.58,2.14-1.72,3.67-1.47,3.37,0.53,4.25.39,6.86-.49C135.73,563.71,134.51,564.53,132.33,564.53Zm9,60.22c-1.64,0,.78-5.52.81-5.75,0.62-5,1.55-3.47-4.27-2.14-2-3.2,1.18-5.21,1.85-8-5.06.72-3.07-2.48-3.26-4-0.33-2.8,2.27-7.52-1.56-9.1-3.62,2.54-6.3,3.63-10.19,6.17-3.62,2.94-10.09,4.3-13.58,7.78-6.57,2.81-7.61,10.42-11.63,15.63,0.4,2.94-1.88,4-2.82,6.15-1.47,4.81-5,8.34-6.2,13.15-0.53,1.47-.4,3.6-1.6,4.54-0.81,4.15,2.79,7.25,2.52,9.39,1.75-.8,0-2.64,1.71-3.71,3.62-1.47,2,3.71,3.66,4.51,0.67-1.6.21-4.92,2.09-5.32,0.53,1.2,2.79,3.53,2,5.26,2.68-.13,2.68-2.27,3.76-4.14,0.8-7.08,8.27-8.3,9.08-15.38,8.51-10.61,3.94.27,5.36-.81l7.38-5.61,2.41-.4c1.49-.25-0.57,4.14-0.8,4.41,3.62-1.07,7.64-2.27,10.19-5.35a4.79,4.79,0,0,1,.8,3.34C138.88,636.48,151.32,624.75,141.31,624.75Z" style="fill: #e1e1e1"/>
  <path d="M131.19,515.33c-0.43,1.64-2.38,4.31-3.67,4.31-2.29,0-3.19-2.07-3.53-4.44-0.18-1.28-.91-3.26,1-5.46,1-1.22,2.17-2.07,2.8.91,0.27,1.3,2.45-.4,3.14.16C131.81,511.53,131.62,513.73,131.19,515.33Z"/>
  <path d="M244.93,447.78h5.95v82.87H188.31c-5.94,0-9.29-3.16-10-6.69a11.73,11.73,0,0,1-.14-1.64V440.67h0c0.3-3.77,3.86-7.44,10.77-7.73L245.73,433,244.44,435a11.82,11.82,0,0,0,0,12.09l0.49,0.73h0Z"/>
  <path d="M202.85,515.19v6h6Zm0-58v6l6-6h-6Zm31.57,28.4v-2.3h-9.75v-6.85h5v-2.3h-5V469.6h-2.31v4.58h-5v2.3h5v6.84H212.6v2.31h9.76v10.69l-5.56-3.2v2.31l5.56,3.19v10.79h2.31V500l5.55,3.2v-2.31l-5.55-3.19v-12h9.75Zm1-28.4,6,6v-6h-6Zm-1,28.4v-2.3h-9.75v-6.85h5v-2.3h-5V469.6h-2.31v4.58h-5v2.3h5v6.84H212.6v2.31h9.76v10.69l-5.56-3.2v2.31l5.56,3.19v10.79h2.31V500l5.55,3.2v-2.31l-5.55-3.19v-12h9.75Zm-0.88-28.4H210.7L202.85,465v48.32l2.11,2.1,5.74,5.72h22.84l7.85-7.82V465Zm2.17,29.69H226v10l5.55,3.2v5.28L226,502.19v8.51h-4.89V499.37l-5.56-3.2v-5.28l5.56,3.2v-7.17h-9.76V482h9.76v-4.27h-5v-4.88h5v-4.58H226v4.58h5v4.88h-5V482h9.75v4.88Zm-11-10.44h5v-2.3h-5V469.6h-2.31v4.58h-5v2.3h5v6.84H212.6v2.31h9.76v10.69l-5.56-3.2v2.31l5.56,3.19v10.79h2.31V500l5.55,3.2v-2.31l-5.55-3.19v-12h9.75v-2.3h-9.75v-6.85Zm10.7,44.71h6v-6Zm6,0v-6l-6,6h6Zm-30.69-64L202.85,465v48.32l2.11,2.1,5.74,5.72h22.84l7.85-7.82V465l-7.85-7.82H210.7Zm25,29.69H226v10l5.55,3.2v5.28L226,502.19v8.51h-4.89V499.37l-5.56-3.2v-5.28l5.56,3.2v-7.17h-9.76V482h9.76v-4.27h-5v-4.88h5v-4.58H226v4.58h5v4.88h-5V482h9.75v4.88Zm-0.33-29.69,6,6v-6h-6Zm-10.71,19.25h5v-2.3h-5V469.6h-2.31v4.58h-5v2.3h5v6.84H212.6v2.31h9.76v10.69l-5.56-3.2v2.31l5.56,3.19v10.79h2.31V500l5.55,3.2v-2.31l-5.55-3.19v-12h9.75v-2.3h-9.75v-6.85Zm-21.82-19.25v6l6-6h-6Zm0,64h6l-6-6v6Zm-8.19-72.12v80.29h54.92V449.07H194.66Zm6.9,73.41V455.94h41.12v66.54H201.56Zm39.83-1.29v-6l-6,6h6Zm-30.69-64L202.85,465v48.32l2.11,2.1,5.74,5.72h22.84l7.85-7.82V465l-7.85-7.82H210.7Zm25,29.69H226v10l5.55,3.2v5.28L226,502.19v8.51h-4.89V499.37l-5.56-3.2v-5.28l5.56,3.2v-7.17h-9.76V482h9.76v-4.27h-5v-4.88h5v-4.58H226v4.58h5v4.88h-5V482h9.75v4.88Zm5.68-23.69v-6h-6Zm-16.72,13.25h5v-2.3h-5V469.6h-2.31v4.58h-5v2.3h5v6.84H212.6v2.31h9.76v10.69l-5.56-3.2v2.31l5.56,3.19v10.79h2.31V500l5.55,3.2v-2.31l-5.55-3.19v-12h9.75v-2.3h-9.75v-6.85Zm-21.82-19.25v6l6-6h-6Zm0,64h6l-6-6v6Zm0-6v6h6Zm0-58v6l6-6h-6Zm31.57,28.4v-2.3h-9.75v-6.85h5v-2.3h-5V469.6h-2.31v4.58h-5v2.3h5v6.84H212.6v2.31h9.76v10.69l-5.56-3.2v2.31l5.56,3.19v10.79h2.31V500l5.55,3.2v-2.31l-5.55-3.19v-12h9.75Zm1-28.4,6,6v-6h-6Zm-1,28.4v-2.3h-9.75v-6.85h5v-2.3h-5V469.6h-2.31v4.58h-5v2.3h5v6.84H212.6v2.31h9.76v10.69l-5.56-3.2v2.31l5.56,3.19v10.79h2.31V500l5.55,3.2v-2.31l-5.55-3.19v-12h9.75Zm-0.88-28.4H210.7L202.85,465v48.32l2.11,2.1,5.74,5.72h22.84l7.85-7.82V465Zm2.17,29.69H226v10l5.55,3.2v5.28L226,502.19v8.51h-4.89V499.37l-5.56-3.2v-5.28l5.56,3.2v-7.17h-9.76V482h9.76v-4.27h-5v-4.88h5v-4.58H226v4.58h5v4.88h-5V482h9.75v4.88Zm-11-10.44h5v-2.3h-5V469.6h-2.31v4.58h-5v2.3h5v6.84H212.6v2.31h9.76v10.69l-5.56-3.2v2.31l5.56,3.19v10.79h2.31V500l5.55,3.2v-2.31l-5.55-3.19v-12h9.75v-2.3h-9.75v-6.85Zm10.7,44.71h6v-6Zm0,0h6v-6Zm-1-35.56v-2.3h-9.75v-6.85h5v-2.3h-5V469.6h-2.31v4.58h-5v2.3h5v6.84H212.6v2.31h9.76v10.69l-5.56-3.2v2.31l5.56,3.19v10.79h2.31V500l5.55,3.2v-2.31l-5.55-3.19v-12h9.75Zm0,0v-2.3h-9.75v-6.85h5v-2.3h-5V469.6h-2.31v4.58h-5v2.3h5v6.84H212.6v2.31h9.76v10.69l-5.56-3.2v2.31l5.56,3.19v10.79h2.31V500l5.55,3.2v-2.31l-5.55-3.19v-12h9.75Zm-0.88-28.4H210.7L202.85,465v48.32l2.11,2.1,5.74,5.72h22.84l7.85-7.82V465Zm2.17,29.69H226v10l5.55,3.2v5.28L226,502.19v8.51h-4.89V499.37l-5.56-3.2v-5.28l5.56,3.2v-7.17h-9.76V482h9.76v-4.27h-5v-4.88h5v-4.58H226v4.58h5v4.88h-5V482h9.75v4.88Zm-11-10.44h5v-2.3h-5V469.6h-2.31v4.58h-5v2.3h5v6.84H212.6v2.31h9.76v10.69l-5.56-3.2v2.31l5.56,3.19v10.79h2.31V500l5.55,3.2v-2.31l-5.55-3.19v-12h9.75v-2.3h-9.75v-6.85Zm10.71-19.25,6,6v-6h-6Zm-32.53,0v6l6-6h-6Zm0,58v6h6Zm31.57-29.56v-2.3h-9.75v-6.85h5v-2.3h-5V469.6h-2.31v4.58h-5v2.3h5v6.84H212.6v2.31h9.76v10.69l-5.56-3.2v2.31l5.56,3.19v10.79h2.31V500l5.55,3.2v-2.31l-5.55-3.19v-12h9.75Zm0,0v-2.3h-9.75v-6.85h5v-2.3h-5V469.6h-2.31v4.58h-5v2.3h5v6.84H212.6v2.31h9.76v10.69l-5.56-3.2v2.31l5.56,3.19v10.79h2.31V500l5.55,3.2v-2.31l-5.55-3.19v-12h9.75Zm1,35.56h6v-6Zm-1-35.56v-2.3h-9.75v-6.85h5v-2.3h-5V469.6h-2.31v4.58h-5v2.3h5v6.84H212.6v2.31h9.76v10.69l-5.56-3.2v2.31l5.56,3.19v10.79h2.31V500l5.55,3.2v-2.31l-5.55-3.19v-12h9.75Zm0,0v-2.3h-9.75v-6.85h5v-2.3h-5V469.6h-2.31v4.58h-5v2.3h5v6.84H212.6v2.31h9.76v10.69l-5.56-3.2v2.31l5.56,3.19v10.79h2.31V500l5.55,3.2v-2.31l-5.55-3.19v-12h9.75Zm-0.88-28.4H210.7L202.85,465v48.32l2.11,2.1,5.74,5.72h22.84l7.85-7.82V465Zm2.17,29.69H226v10l5.55,3.2v5.28L226,502.19v8.51h-4.89V499.37l-5.56-3.2v-5.28l5.56,3.2v-7.17h-9.76V482h9.76v-4.27h-5v-4.88h5v-4.58H226v4.58h5v4.88h-5V482h9.75v4.88Zm-11-10.44h5v-2.3h-5V469.6h-2.31v4.58h-5v2.3h5v6.84H212.6v2.31h9.76v10.69l-5.56-3.2v2.31l5.56,3.19v10.79h2.31V500l5.55,3.2v-2.31l-5.55-3.19v-12h9.75v-2.3h-9.75v-6.85Zm10.71-19.25,6,6v-6h-6Zm-32.53,0v6l6-6h-6Zm0,58v6h6Zm0-58v6l6-6h-6Zm31.57,28.4v-2.3h-9.75v-6.85h5v-2.3h-5V469.6h-2.31v4.58h-5v2.3h5v6.84H212.6v2.31h9.76v10.69l-5.56-3.2v2.31l5.56,3.19v10.79h2.31V500l5.55,3.2v-2.31l-5.55-3.19v-12h9.75Zm0,0v-2.3h-9.75v-6.85h5v-2.3h-5V469.6h-2.31v4.58h-5v2.3h5v6.84H212.6v2.31h9.76v10.69l-5.56-3.2v2.31l5.56,3.19v10.79h2.31V500l5.55,3.2v-2.31l-5.55-3.19v-12h9.75Zm-0.88-28.4H210.7L202.85,465v48.32l2.11,2.1,5.74,5.72h22.84l7.85-7.82V465Zm2.17,29.69H226v10l5.55,3.2v5.28L226,502.19v8.51h-4.89V499.37l-5.56-3.2v-5.28l5.56,3.2v-7.17h-9.76V482h9.76v-4.27h-5v-4.88h5v-4.58H226v4.58h5v4.88h-5V482h9.75v4.88Zm-11-10.44h5v-2.3h-5V469.6h-2.31v4.58h-5v2.3h5v6.84H212.6v2.31h9.76v10.69l-5.56-3.2v2.31l5.56,3.19v10.79h2.31V500l5.55,3.2v-2.31l-5.55-3.19v-12h9.75v-2.3h-9.75v-6.85Zm10.71-19.25,6,6v-6h-6Zm0,64h6v-6Zm-32.52-6v6h6Z" style="fill: #c8a064"/>
  <path d="M189.18,434.23h54.18a11,11,0,0,0-1.6,3.94H197.33v1.14h44.25a14.35,14.35,0,0,0,.12,4.16h-41v1.13h41.3a10.46,10.46,0,0,0,1.42,3.17H189.18c-12.29,0-12.34-13.63,0-13.55h0Z" style="fill: #fff"/>
  <path d="M207.67,404.11L199,381.57l2.79,0.68a51,51,0,0,0,24.52,0l2.79-.68-8.62,22.54,21.21-8.35-0.69,2.83a50.46,50.46,0,0,0,0,24.44l0.69,2.82L221.8,418l7.4,18.67-2.83-.69a51,51,0,0,0-24.52,0l-2.83.69,7.4-18.67-19.95,7.86,0.69-2.82a50.51,50.51,0,0,0,0-24.44l-0.69-2.83Z"/>
  <path d="M188.62,398.22l21.68,8.54-8.82-23a52.44,52.44,0,0,0,25.24,0l-8.82,23,21.68-8.54a51.91,51.91,0,0,0,0,25.16l-20.47-8.07,7.61,19.2a52.44,52.44,0,0,0-25.24,0l7.61-19.2-20.47,8.07a51.91,51.91,0,0,0,0-25.16h0Z" style="fill: #e1e1e1"/>
  <path d="M189,449.07c-4.69,0-7.86-1.67-9.5-3.94a18.37,18.37,0,0,0,.18,2.7l0,0.3a5.92,5.92,0,0,0,2.71,3.83,10.86,10.86,0,0,0,5.81,1.52h5.17v-4.41H189Zm-0.76,5.6a12.13,12.13,0,0,1-6.45-1.71,7.41,7.41,0,0,1-2.29-2.24,18,18,0,0,0,.18,2.67h0l0,0.29a5.92,5.92,0,0,0,2.71,3.83A11,11,0,0,0,188.2,459h5.17v-4.37H188.2Zm0,5.56a12.19,12.19,0,0,1-6.46-1.71,7.61,7.61,0,0,1-2.28-2.24v23.46a12.57,12.57,0,0,0,.22,1.39,6,6,0,0,0,2.71,3.83,11,11,0,0,0,5.81,1.52h5.17V460.22H188.2Zm-5.58,19.55h-1.1V462.65h1.1v17.13Zm4,1.19h-1.1V463.84h1.1V481Zm4,1.09h-1.09V464.93h1.09v17.13Zm-2.35,5.6a12.12,12.12,0,0,1-6.45-1.7,7.56,7.56,0,0,1-2.29-2.25,18.19,18.19,0,0,0,.18,2.68l0,0.3a5.94,5.94,0,0,0,2.71,3.83A11,11,0,0,0,188.2,492h5.17v-4.38H188.2Zm0,5.56a12.27,12.27,0,0,1-6.46-1.7,7.64,7.64,0,0,1-2.28-2.25v21a15.18,15.18,0,0,0,.16,2l0.06,0.47a6,6,0,0,0,2.71,3.83,11,11,0,0,0,5.81,1.52h5.17V493.21H188.2Zm-5.58,19.69h-1.1V495.79h1.1v17.12Zm4,1.19h-1.1V497h1.1V514.1Zm4,1.09h-1.09V498.07h1.09v17.12Zm-2.35,4.08a12.12,12.12,0,0,1-6.45-1.7,7.56,7.56,0,0,1-2.29-2.25,18.1,18.1,0,0,0,.18,2.68l0,0.3a6,6,0,0,0,2.71,3.83,11,11,0,0,0,5.81,1.52h5.17v-4.38H188.2Zm0,5.56a12,12,0,0,1-6.45-1.7,7.56,7.56,0,0,1-2.29-2.25v1.46a9.61,9.61,0,0,0,.13,1.42c0.84,4,5,5.61,8.72,5.6h5.06v-4.53H188.2Z" style="fill: #c8a064"/>
  <path d="M202,83.14a10.62,10.62,0,1,1,10.62,10.59A10.61,10.61,0,0,1,202,83.14Z"/>
  <path d="M341.31,184.3a14.73,14.73,0,0,0-2.71-1.82,15.9,15.9,0,0,0-3-1.22h0a44.11,44.11,0,0,0-4.68-1.12q1.28-2.48,2.42-5h0c0.93-2,1.79-4.08,2.58-6.17h0a93.09,93.09,0,0,0,5.22-20.12h0q0.43-3.15.63-6.32h0a75.81,75.81,0,0,0-.07-10.33,69.51,69.51,0,0,0-1.52-10.1h0a64.44,64.44,0,0,0-2.09-7.24h0a60.49,60.49,0,0,0-9-16.8,57,57,0,0,0-4.33-5h0l-0.35-.37a57.68,57.68,0,0,0-15.72-11.38,54,54,0,0,0-5.29-2.32h0a66.49,66.49,0,0,0-19.3-4.14h0L283,74.64a74.45,74.45,0,0,0-7.47,0,86.44,86.44,0,0,0-17,2.58c-2.6.65-5.18,1.41-7.72,2.27h0a115,115,0,0,0-12.14,4.91q0-.63,0-1.26a26,26,0,0,0-19.29-25.06v-12h9.76L237.47,59h6.93V19.84h-6.93l-8.34,12.88h-9.76V18.4L235.48,8V0H189.82V8L205.93,18.4V32.72h-9.76l-8.34-12.87h-6.94V59h6.94l8.34-12.88h9.76v12a26,26,0,0,0-19.3,25.06q0,0.63,0,1.26a115.1,115.1,0,0,0-12.15-4.91q-3.82-1.29-7.73-2.27a85.71,85.71,0,0,0-17-2.58,74.25,74.25,0,0,0-7.46,0l-1.08.07h0a66.07,66.07,0,0,0-19.32,4.16s0,0,0,0a52.22,52.22,0,0,0-5.25,2.31h0A57.72,57.72,0,0,0,100.9,92.56l-0.37.39a59.45,59.45,0,0,0-4.3,5h0a61.18,61.18,0,0,0-9,16.84A65.63,65.63,0,0,0,85.12,122a68.71,68.71,0,0,0-1.53,10.14,76.09,76.09,0,0,0-.08,10.35h0c0.13,2.1.34,4.2,0.62,6.28h0A93.44,93.44,0,0,0,89.38,169q1.18,3.11,2.56,6.13h0c0.76,1.7,1.58,3.38,2.43,5-1.57.29-3.13,0.67-4.69,1.12h0a17.24,17.24,0,0,0-5.71,3c-1.6,1.32-2.75,3-2.56,4.72,0.28,2.53,3.11,3.62,5.25,4.12A26.69,26.69,0,0,1,97,198c5.66,4.29,10,10.71,13.21,16.92a165.53,165.53,0,0,1,8.86,21.39c3.26,9.23,6.21,18.87,10.12,27.83A20.88,20.88,0,0,0,139,274.82c7.22,3.88,17.15,4.9,25.21,5.21q48.38,1.84,96.81,0c8-.31,18-1.33,25.21-5.21A20.92,20.92,0,0,0,296,264.13c3.91-9,6.85-18.59,10.12-27.83A165.52,165.52,0,0,1,315,214.91c3.24-6.21,7.55-12.63,13.21-16.92a26.83,26.83,0,0,1,10.42-4.85C345.47,191.53,344.93,187.4,341.31,184.3ZM200.94,83.14a11.66,11.66,0,1,1,.92,4.54,1.54,1.54,0,0,0-.08-0.19A11.66,11.66,0,0,1,200.94,83.14Z"/>
  <path d="M340.41,132.23c-1.11-14.52-6.67-28.28-16.95-38.76-10.81-11-25.21-16.76-40.55-17.54-15-.75-29.76,3.14-43.3,9.43l-16.52,63a27.69,27.69,0,0,1,4.7,3.08l16.28-63.35c67.76-29.48,115,28.2,80.84,91.44a36.9,36.9,0,0,1,4.66.39C337.18,165.27,341.67,148.79,340.41,132.23ZM185.67,85.36c-13.54-6.29-28.34-10.19-43.3-9.43-15.34.78-29.73,6.51-40.55,17.54C91.54,104,86,117.72,84.88,132.23c-1.27,16.56,3.23,33,10.83,47.68a35.17,35.17,0,0,1,4.66-.4C66.21,116.27,113.45,58.6,181.21,88.07l16.28,63.35a27.41,27.41,0,0,1,4.7-3.07h0Z" style="fill: #786441"/>
  <path d="M182.11,70.52A9.14,9.14,0,1,0,173,79.63a9.13,9.13,0,0,0,9.14-9.11h0Z"/>
  <path d="M180.82,70.52A7.85,7.85,0,1,0,173,78.34a7.84,7.84,0,0,0,7.85-7.82h0Z" style="fill: #96c8c8"/>
  <path d="M154.58,66.62a9.14,9.14,0,1,0-9.15,9.11,9.13,9.13,0,0,0,9.15-9.11h0Z"/>
  <path d="M153.29,66.62a7.85,7.85,0,1,0-7.85,7.83,7.84,7.84,0,0,0,7.85-7.83h0Z" style="fill: #96c8c8"/>
  <path d="M124.92,72.11a9.14,9.14,0,1,0-9.14,9.11,9.13,9.13,0,0,0,9.14-9.11h0Z"/>
  <path d="M123.63,72.11a7.85,7.85,0,1,0-7.85,7.82,7.84,7.84,0,0,0,7.85-7.82h0Z" style="fill: #96c8c8"/>
  <path d="M101.05,89.92A9.14,9.14,0,1,0,91.9,99a9.13,9.13,0,0,0,9.15-9.11h0Z"/>
  <path d="M99.76,89.92a7.85,7.85,0,1,0-7.85,7.83,7.84,7.84,0,0,0,7.85-7.83h0Z" style="fill: #96c8c8"/>
  <path d="M87.28,116.11a9.14,9.14,0,1,0-9.15,9.11,9.13,9.13,0,0,0,9.15-9.11h0Z"/>
  <path d="M86,116.11a7.85,7.85,0,1,0-7.85,7.83A7.84,7.84,0,0,0,86,116.11h0Z" style="fill: #96c8c8"/>
  <path d="M261.46,70.52a9.15,9.15,0,1,0-9.14,9.11,9.13,9.13,0,0,0,9.14-9.11h0Z"/>
  <path d="M260.17,70.52a7.85,7.85,0,1,0-7.85,7.82,7.84,7.84,0,0,0,7.85-7.82h0Z" style="fill: #96c8c8"/>
  <path d="M289,66.62a9.14,9.14,0,1,0-9.14,9.11A9.13,9.13,0,0,0,289,66.62h0Z"/>
  <path d="M287.7,66.62a7.85,7.85,0,1,0-7.85,7.83,7.84,7.84,0,0,0,7.85-7.83h0Z" style="fill: #96c8c8"/>
  <path d="M318.65,72.11a9.15,9.15,0,1,0-9.14,9.11,9.13,9.13,0,0,0,9.14-9.11h0Z"/>
  <path d="M317.36,72.11a7.85,7.85,0,1,0-7.85,7.82,7.84,7.84,0,0,0,7.85-7.82h0Z" style="fill: #96c8c8"/>
  <path d="M342.52,89.92A9.15,9.15,0,1,0,333.38,99a9.13,9.13,0,0,0,9.14-9.11h0Z"/>
  <path d="M341.23,89.92a7.85,7.85,0,1,0-7.85,7.83,7.84,7.84,0,0,0,7.85-7.83h0Z" style="fill: #96c8c8"/>
  <path d="M356.29,116.11a9.14,9.14,0,1,0-9.14,9.11,9.13,9.13,0,0,0,9.14-9.11h0Z"/>
  <path d="M355,116.11a7.85,7.85,0,1,0-7.85,7.83,7.84,7.84,0,0,0,7.85-7.83h0Z" style="fill: #96c8c8"/>
  <path d="M196.39,152.34L180.11,89c-13.4-5.74-28.26-9-42.85-7a53.56,53.56,0,0,0-31.44,15.36c-9.35,9.54-14.35,22.08-15.36,35.28-1.24,16.13,3.46,32.22,11.09,46.32l0.49,0.54a27,27,0,0,1,15.25,5.11,38,38,0,0,1,10.44,12.18c0.16-10.27,1.45-21.58,5.4-30.69,2.79-6.42,7.57-13,15-14.13s14,3.55,18.72,8.7c6.17,6.76,10.66,15.87,13.85,24.72C183.28,169.75,189.16,158.73,196.39,152.34Z" style="fill: #dc231e"/>
  <path d="M228.89,152.34L245.17,89c13.4-5.74,28.26-9,42.85-7a53.55,53.55,0,0,1,31.44,15.36c9.35,9.54,14.35,22.08,15.36,35.28,1.23,16.13-3.46,32.22-11.1,46.32l-0.49.54A27,27,0,0,0,308,184.63a37.92,37.92,0,0,0-10.44,12.18c-0.16-10.27-1.45-21.58-5.4-30.69-2.79-6.42-7.57-13-15-14.13s-14,3.55-18.72,8.7c-6.17,6.76-10.66,15.87-13.85,24.72-2.58-15.65-8.46-26.67-15.69-33.06h0Z" style="fill: #dc231e"/>
  <path d="M212.64,72.56a10.59,10.59,0,1,0,10.62,10.58A10.61,10.61,0,0,0,212.64,72.56Zm0,0a10.59,10.59,0,1,0,10.62,10.58A10.61,10.61,0,0,0,212.64,72.56Zm24.72,10.58A24.68,24.68,0,0,0,213.21,58.5a6.51,6.51,0,1,1-1.14,0,24.68,24.68,0,0,0-24.15,24.64,24.39,24.39,0,0,0,1.79,9.22,6.43,6.43,0,0,1-.43-2.33,6.51,6.51,0,0,1,12.5-2.54,11.79,11.79,0,1,1,.08.19,6.51,6.51,0,0,1-12,4.92,24.75,24.75,0,0,0,45.66,0A6.47,6.47,0,1,1,236,90a6.44,6.44,0,0,1-.44,2.33A24.39,24.39,0,0,0,237.36,83.14Z" style="fill: #c8a064"/>
  <path d="M212.64,71.48a11.66,11.66,0,0,0-10.86,16,1.54,1.54,0,0,1,.08.19A11.69,11.69,0,1,0,212.64,71.48Zm0,22.25a10.59,10.59,0,1,1,10.62-10.59A10.61,10.61,0,0,1,212.64,93.73Z"/>
  <path d="M235.71,95.14a26.06,26.06,0,0,1-46.13,0h0l5.23,19.94a7.23,7.23,0,0,1-.1-1.15,6.66,6.66,0,1,1,.38,2.2l8.29,31.63a22.16,22.16,0,0,1,18.54,0l8.3-31.64a6.64,6.64,0,1,1,.37-2.19,7.36,7.36,0,0,1-.1,1.16Zm-9.82,35.41a13.25,13.25,0,1,1-13.25-13.21A13.23,13.23,0,0,1,225.89,130.55Z" style="fill: #c8a064"/>
  <path d="M86.92,191.89c5.7,1.35,15.22,4.71,24.48,22.43,7.73,14.81,12.95,35.38,19,49.3,3.32,7.61,10,14.21,33.86,15.12,32.15,1.23,64.57,1.23,96.71,0,23.9-.92,30.54-7.51,33.86-15.12,6.07-13.92,11.29-34.49,19-49.3,9.26-17.72,18.78-21.07,24.48-22.43,8.75-2.08,2.18-7.85-3.08-9.39-23.77-7-34,8.93-39,19.63,1.18-62.83-35.84-63.87-52.19-11-6.32-58.75-56.48-58.75-62.81,0-16.35-52.83-53.37-51.8-52.19,11-5.07-10.7-15.27-26.62-39-19.63C84.75,184,78.18,189.81,86.92,191.89Z" style="fill: #fff"/>
  <path d="M212.64,244.08c17.18,0,36.53,1.66,53,6.66,7,2.11,22.47,7.66,22.47,16.82,0,2.74-1.09,3.42-3.31,4.61-6.77,3.63-16.3,4.56-23.9,4.85q-48.26,1.85-96.58,0c-7.6-.29-17.13-1.22-23.9-4.85-2.22-1.19-3.31-1.87-3.31-4.61,0-9.16,15.51-14.71,22.48-16.82C176.11,245.74,195.46,244.08,212.64,244.08Z"/>
  <path d="M227.46,199.13l1-.52-14.1-24.25h5a3.81,3.81,0,0,0,6.45,2.11c4.87-4.85-5.44-9.82-6.45-3.24h-6.14v-4.7a3.79,3.79,0,0,0,2.12-6.42c-4.88-4.87-9.84,5.43-3.26,6.42v4.7h-6.14a3.8,3.8,0,0,0-3.76-3.22h0a3.75,3.75,0,0,0-2.68,1.12c-4.87,4.85,5.43,9.81,6.44,3.24h5l-14.09,24.25,1,0.56,14.26-24.54v7.31l-11,18.93,1,0.52,9.94-17.11V204h1.14V184.28l9.93,17.07,1-.52-10.95-18.89v-7.31ZM225,171.92a2.65,2.65,0,0,1-1.88,4.53C218,176.45,221.37,168.32,225,171.92Zm-22.82,4.53c-5.1,0-1.74-8.13,1.88-4.53A2.65,2.65,0,0,1,202.17,176.45Zm10.47-9c-5.1,0-1.74-8.13,1.88-4.53A2.65,2.65,0,0,1,212.64,167.43Z"/>
  <path d="M246.88,214.23a3.82,3.82,0,0,0,6.29,2.55c5.12-4.77-4.79-10-6.2-3.68l-6.13-.43,0.33-4.69a3.79,3.79,0,0,0,2.56-6.26c-4.78-5.11-10,4.77-3.7,6.18l-0.33,4.69-6.12-.43a3.8,3.8,0,0,0-3.52-3.47h0a3.74,3.74,0,0,0-2.76.92c-5.13,4.76,4.78,10,6.2,3.68l5,0.35-15.76,23.21,0.95,0.62,16-23.49-0.52,7.3L226.83,239.4l1,0.6,11.12-16.38-1.38,19.67,1.14,0.08,1.38-19.67,8.7,17.73,1.06-.46-9.6-19.6,0.51-7.3,12.5,25.44,1-.45-12.36-25.17Zm5.81-2a2.66,2.66,0,0,1-2.2,4.39C245.41,216.22,249.31,208.34,252.69,212.18Zm-23.08,2.93c-5.11-.35-1.16-8.23,2.19-4.38A2.65,2.65,0,0,1,229.61,215.11Zm11.07-8.26c-5.09-.35-1.16-8.23,2.19-4.38A2.65,2.65,0,0,1,240.68,206.85Z"/>
  <path d="M202.58,236.86l-15.76-23.21,5-.35c1.42,6.34,11.33,1.08,6.21-3.68a3.77,3.77,0,0,0-2.76-.92h0a3.79,3.79,0,0,0-3.52,3.47l-6.13.43-0.33-4.69c6.35-1.41,1.08-11.29-3.7-6.18a3.79,3.79,0,0,0,2.56,6.26l0.33,4.69-6.12.43c-1.41-6.33-11.33-1.09-6.2,3.68a3.81,3.81,0,0,0,6.28-2.55l5-.34L171,239.06l1,0.45,12.49-25.44,0.51,7.3L175.46,241l1,0.46,8.71-17.73,1.38,19.67,1.13-.08-1.38-19.67L197.47,240l1-.6-12.27-18.11-0.51-7.3,15.94,23.49Zm-9.1-26.13c3.35-3.85,7.3,4,2.2,4.38A2.65,2.65,0,0,1,193.48,210.73Zm-18.69,5.84a2.66,2.66,0,0,1-2.19-4.39C176,208.34,179.87,216.22,174.79,216.57Zm9.81-9.72a2.65,2.65,0,0,1-2.19-4.38C185.77,198.62,189.69,206.5,184.6,206.85Z"/>
  <path d="M292.89,223.67l-5.81-2,1.54-4.44c3.64,0.67,5.38-3.58,4.09-5.39-4.37-6.13-10.46,2.27-5.18,5L286,221.31l-5.81-2a3.8,3.8,0,0,0-2.5-4.27h0a3.82,3.82,0,0,0-2.9.17c-6.2,3.06,2,11,5,5.17l4.71,1.61-21.24,18.36,0.75,0.84,21.5-18.57-2.39,6.91L266.6,243.89l0.8,0.82,15-12.94L276,250.4l1.08,0.37,6.44-18.64,3.8,19.37,1.14-.17-4.18-21.41,2.39-6.92,5.47,27.8,1.12-.17-5.41-27.5,4.71,1.62c-0.83,4.54,5.82,6.31,7.34,1.91S295,219.58,292.89,223.67Zm-1.2-11.32a2.66,2.66,0,0,1-3.26,3.67C283.6,214.37,289.45,207.76,291.69,212.35Zm-16.1,8.79c-4.82-1.66,1-8.25,3.26-3.67A2.66,2.66,0,0,1,275.59,221.14Zm19.8,6.8c-4.83-1.66,1-8.26,3.25-3.67A2.66,2.66,0,0,1,295.39,227.94Z"/>
  <path d="M162,240.37L140.75,222l4.71-1.61c3.06,5.86,11.24-2.1,5-5.16a3.77,3.77,0,0,0-2.9-.18h0a3.78,3.78,0,0,0-2.5,4.27l-5.81,2-1.53-4.44c5.28-2.75-.81-11.15-5.18-5-1.29,1.81.46,6.06,4.1,5.39l1.54,4.44-5.81,2c-2.15-4.09-8.48-1.39-7,3s8.17,2.63,7.33-1.91l4.71-1.62-5.41,27.5,1.13,0.17,5.46-27.8,2.39,6.92-4.18,21.41L138,251.5l3.8-19.37,6.44,18.64,1.08-.37-6.44-18.63,15,12.94,0.79-.82-16.55-14.34-2.39-6.91,21.5,18.57Zm-15.57-22.9c2.25-4.58,8.09,2,3.26,3.67A2.66,2.66,0,0,1,146.43,217.47Zm-12.84-5.12c2.25-4.59,8.09,2,3.26,3.67A2.66,2.66,0,0,1,133.59,212.35Zm-3.69,15.59a2.66,2.66,0,0,1-3.26-3.67C128.88,219.68,134.73,226.28,129.9,227.94Z"/>
  <path d="M280.15,181.73l-6-1.38,1.06-4.58c4.61,0.36,5.68-6.42,1.14-7.47s-6.56,5.53-2.25,7.22l-1.06,4.57-6-1.37a3.81,3.81,0,0,0-2.93-4h0a3.81,3.81,0,0,0-4.56,2.84c-1,4.52,5.53,6.54,7.24,2.25l4.85,1.11-19.2,20.47,0.84,0.77,19.43-20.72-1.65,7.13-15,16,0.87,0.74,13.55-14.44-4.44,19.21,1.11,0.25,4.45-19.21L277.48,210l1.12-.28-6.4-20.86,1.65-7.13,8.34,27.08,1.11-.28L275,181.72l4.85,1.12c-0.35,4.6,6.45,5.66,7.5,1.14S281.85,177.44,280.15,181.73ZM262.68,181c-5-1.14.15-8.31,2.86-4A2.66,2.66,0,0,1,262.68,181Zm15.09-10.42a2.66,2.66,0,0,1-2.85,4C270,173.44,275.06,166.26,277.77,170.59Zm5.32,15.12c-5-1.14.14-8.32,2.85-4A2.66,2.66,0,0,1,283.09,185.71Z"/>
  <path d="M172.83,201.41l-19.21-20.47,4.85-1.11c2.27,5.74,11.29,0,5.55-4.61a4.22,4.22,0,0,0-2.87-.48h0a3.8,3.8,0,0,0-2.94,4l-6,1.37-1.06-4.57c4.3-1.69,2.29-8.26-2.26-7.22s-3.47,7.83,1.15,7.47l1.06,4.58-6,1.38c-2.28-5.75-11.29.05-5.55,4.61,1.91,1.52,6.08,0,5.8-3.5l4.85-1.12L142,208.51l1.11,0.28,8.34-27.07,1.66,7.12-6.4,20.86L147.8,210l5.82-18.86,4.45,19.21,1.11-.25-4.45-19.21,13.55,14.44,0.88-.74-15-16-1.65-7.13L172,202.18ZM159.74,177c2.72-4.32,7.83,2.85,2.86,4A2.66,2.66,0,0,1,159.74,177Zm-17.54,8.69a2.66,2.66,0,0,1-2.86-4C142.06,177.39,147.17,184.57,142.2,185.71Zm8.16-11.13a2.66,2.66,0,0,1-2.85-4C150.22,166.26,155.34,173.44,150.36,174.58Z"/>
  <path d="M331.76,191.49c-4.08-6.78-10.36.84-5.91,4.15l-2.21,4.14-5.42-2.87a3.78,3.78,0,0,0-1.8-4.6,3.83,3.83,0,0,0-2.9-.28c-6.79,4.07.84,10.33,4.16,5.89l4.4,2.33-23.87,14.81,0.62,1L323,201l0.77-.79L324,200c0.26-.26.48-0.46,0.66-0.63a7.75,7.75,0,0,0,.88-0.82,18,18,0,0,0,1.36-2.4,2.9,2.9,0,0,0,1.88-.13,6,6,0,0,0,2.34-1.43A2.5,2.5,0,0,0,331.76,191.49ZM313.39,198c-4.51-2.38,2.29-8,3.79-3.11A2.66,2.66,0,0,1,313.39,198Zm13.49-3.06c-4.51-2.38,2.29-8,3.79-3.11A2.66,2.66,0,0,1,326.88,194.93Zm-10.07,14.24L300.94,219,301.6,220l13.9-8.62,0.12-.21,0.54-.91,0.33-.55,0.33-.53h0Z"/>
  <path d="M103.2,200.25l4.4-2.34c2.76,3.71,8.59.07,6.41-4-1.69-3.15-5.13-1.56-5.15-1.56a3.79,3.79,0,0,0-1.8,4.6l-5.42,2.87-2.21-4.14c4.46-3.31-1.83-10.93-5.9-4.15a2.51,2.51,0,0,0,.72,3.15,5.9,5.9,0,0,0,2.3,1.4,2.88,2.88,0,0,0,1.87.13,16.45,16.45,0,0,0,1.39,2.42v0a8.44,8.44,0,0,0,.85.78c0.35,0.32.86,0.81,1.63,1.63h0l24.15,15,0.61-1Zm4.9-5.37c1.5-4.88,8.3.72,3.8,3.11A2.66,2.66,0,0,1,108.1,194.88Zm-9.7,0a2.66,2.66,0,0,1-3.79-3.11C96.11,186.94,102.91,192.55,98.4,194.93Zm10.08,14.25h0c0.39,0.63.8,1.29,1.19,2l0.12,0.21,13.9,8.62,0.66-.94Z"/>
  <path d="M212.64,244.94c41.22,0,74.64,10.13,74.64,22.63,0,2.36-.89,2.8-2.86,3.86-6.62,3.55-16.15,4.46-23.52,4.75q-48.23,1.85-96.52,0c-7.37-.28-16.9-1.2-23.52-4.75-2-1.05-2.86-1.49-2.86-3.86C138,255.07,171.43,244.94,212.64,244.94Z" style="fill: #dc231e"/>
  <path d="M84.43,146.47a9.14,9.14,0,1,0-9.14,9.12,9.13,9.13,0,0,0,9.14-9.12h0Z"/>
  <path d="M83.13,146.47a7.85,7.85,0,1,0-7.85,7.83,7.84,7.84,0,0,0,7.85-7.83h0Z" style="fill: #96c8c8"/>
  <path d="M91.94,175.26a9.14,9.14,0,1,0-9.14,9.12,9.13,9.13,0,0,0,9.14-9.12h0Z"/>
  <path d="M90.64,175.26a7.85,7.85,0,1,0-7.85,7.83,7.84,7.84,0,0,0,7.85-7.83h0Z" style="fill: #96c8c8"/>
  <path d="M359.14,146.47a9.14,9.14,0,1,0-9.14,9.12,9.13,9.13,0,0,0,9.14-9.12h0Z"/>
  <path d="M357.85,146.47A7.85,7.85,0,1,0,350,154.3a7.84,7.84,0,0,0,7.85-7.83h0Z" style="fill: #96c8c8"/>
  <path d="M351.64,175.26a9.14,9.14,0,1,0-9.14,9.12,9.13,9.13,0,0,0,9.14-9.12h0Z"/>
  <path d="M350.34,175.26a7.85,7.85,0,1,0-7.85,7.83,7.84,7.84,0,0,0,7.85-7.83h0Z" style="fill: #96c8c8"/>
  <path d="M223.26,83.14a10.62,10.62,0,1,1-10.62-10.58A10.6,10.6,0,0,1,223.26,83.14Z" style="fill: #dc231e"/>
  <path d="M218.07,65a5.44,5.44,0,1,0-5.44,5.42A5.43,5.43,0,0,0,218.07,65h0Z" style="fill: #96c8c8"/>
  <path d="M234.93,90a5.43,5.43,0,1,0-5.44,5.42A5.43,5.43,0,0,0,234.93,90h0Z" style="fill: #96c8c8"/>
  <path d="M201.22,90a5.43,5.43,0,1,0-5.43,5.42A5.43,5.43,0,0,0,201.22,90h0Z" style="fill: #96c8c8"/>
  <path d="M224.81,130.55a12.17,12.17,0,1,0-12.18,12.13,12.15,12.15,0,0,0,12.18-12.13h0Z" style="fill: #dc231e"/>
  <path d="M229.5,113.94a5.58,5.58,0,1,0-5.58,5.57,5.57,5.57,0,0,0,5.58-5.57h0Z" style="fill: #96c8c8"/>
  <path d="M206.94,113.94a5.58,5.58,0,1,0-5.58,5.57,5.57,5.57,0,0,0,5.58-5.57h0Z" style="fill: #96c8c8"/>
  <path d="M243.1,21.13h-4.93L229.82,34H218.07V17.7L234.18,7.33v-6H191.1v6L207.21,17.7V34H195.45l-8.34-12.88h-4.93V57.71h4.93l8.34-12.88h11.76V57.78a26.28,26.28,0,0,1,10.86,0V44.83h11.75l8.34,12.88h4.93V21.13h0Z" style="fill: #c8a064"/>
</svg>
