<?xml version="1.0" encoding="utf-8"?><svg xmlns="http://www.w3.org/2000/svg" width="400px" height="500px" viewBox="0 0 400 500"><style type="text/css">.st0{fill:#D20000;}.st1{fill:#A15A41;}.st2{fill:#009AFF;}.st3{fill:#008E1F;}.st4{fill:#FFD700;}</style><title>Coat of Arms of Tver oblast</title><path d="M400,0H0v417.3c-0.2,10,1.2,18.2,5.5,24.2c4.5,6.3,12,9.8,23.7,9.8c0.9,0,1.8,0,2.7-0.1h122.5c32.5,0.4,42.6,22.8,47,48.8c4.4-26.3,13.1-47.6,45.7-48.8h125.6c11.1-1.3,18.2-5.9,22.3-12.5c3.6-5.7,5-12.9,4.9-21.2L400,0"/><path class="st0" d="M396.8,3.2v414.4c0.1,8.3-1.4,14.7-4.4,19.5c-3.9,6.2-10.6,9.9-19.8,11l-125.6,0c-28.8,1-40.1,17.1-45.7,37c-5.6-19.1-17.4-36.6-46.9-37l-125.2,0.1c-10.1,0-17-2.8-21.1-8.4c-3.5-4.9-5.1-12-4.9-22.4V3.1L396.8,3.2"/><path d="M163.9,306.1l0.1,19l3.9,4.8h65.4l3.9-4.8l0.1-19h-20.7v4.1h-11.7l-4.3,5.1l-4.3-5.1h-11.7V306L163.9,306.1L163.9,306.1z M284,306.1v29.2c0.5,2.7,1.6,5.1,4.5,6.2v2l25.7,18.2v4.3l22.3,16.5l0.2,18.2H64.4l0.2-18.2L86.9,366v-4.3l25.7-18.2v-2c2.9-1.1,3.9-3.5,4.5-6.2V306h-2.8v-32.1h1.7c-2.2-1.6-4-3.8-5.2-6.2l-0.4,1.9c-0.6,4.3-0.3,8.7,0.7,12.9c0.9,3.9,0,6.6-4.5,6.6c-2.9,2.9-5.6,2.3-8,0.2c-2.5,0.4-4.9-1.3-5.4-3.8c-2.2-0.9-2.5-3.9,0.7-6.9s3-7,2.8-10.9c-0.7-1.8,0-3.7,1.5-4.8c-1.8-3.4-0.4-7.7,3-9.4c2.2-1.1,4.9-1,7,0.3h1.5c1.9-5.9,7-10.3,13.1-11.3v-0.2h0.1c-3.1-7.1,0.2-16.1,10.2-19.9h4.8l2.8-4.1V47.3h3.5l10.4-9.4l10.4,9.3h3.7v7.5h5.3v-7.3h8.3V36h11l7.1-6.1l7,6.2h11v11.4h8.3v7.3h5.3v-7.5h3.7l10.4-9.3l10.4,9.3h3.5v171l2.9,4.3h4.7c10.1,3.8,13.3,12.8,10.2,19.9h0.2v0.2c6.1,1,11.2,5.3,13.1,11.3h1.5c3.2-2.1,7.6-1.2,9.7,2c1.4,2.1,1.5,4.9,0.3,7.1c1.5,1.1,2.2,3,1.5,4.8c-0.2,3.9-0.3,7.7,2.8,10.9s2.9,6,0.7,6.9c-0.5,2.5-2.9,4.1-5.4,3.8c-2.4,2.1-5.2,2.6-8-0.2c-4.5,0-5.4-2.6-4.5-6.6c1.1-4.2,1.3-8.6,0.7-12.9l-0.4-1.9c-1.2,2.5-3,4.6-5.2,6.2h1.6v31.9H284L284,306.1z"/><path class="st1" d="M141.7,233.1l5.6-1.6c2.3-1.4,5.2-1.4,7.6-0.2h2.5c1.1-0.7,2.6-0.8,3.6-1.5s1.6-1.4,2.5-0.6v2.4c0.9,0.5,2,0.4,2.8-0.1c1.8-0.2,3.3-1.2,4.2-2.7c0.8-0.9,2.1-1,3-0.2c0,0,0,0,0,0l0.2,0.2l-0.4,2.3c2.8,0.7,5.3,1.1,5.3-1.3c1.8-1.6,3.5-2.6,4.8,0c1.1,1.1,2.2,1.9,4.2,0c0.6-0.6,1.5-0.6,2.1,0c0,0,0,0,0,0c0.4,1.3,1.5,1.3,3.3,0c0.8,1.5,1.8,2.5,4.2,0c1.2-0.6,2.6-0.6,3.9,0c1.8,1.2,4.3,3.5,3.6,0c0.3-1.3,1.4-2.2,2.6,0c1,1.1,2.1,2.1,3.1,0.2c0.6-0.7,1.7-0.8,2.4-0.2c0.1,0.1,0.3,0.3,0.3,0.4c0.9,1.6,2,2,2.7,0.2c0.9-2.3,1.8-2.2,2.7,0.2c0.9,0.3,1.9,0.4,2.8,0.3c1.3-0.8,2.6-1.4,3.9,0.2l2-0.2l-0.2-1.7h2.2l1.3,2.1c0.9,0.7,1.3,0.8,1.5,0.1c0.8-1,1.6-1,2.5,0.2c2.1,0.7,3.1,0.1,2.9-1.6l2.5-0.5l3.5,1.8c0.4,0.8,1.4,1.2,2.3,0.8c0.3-0.1,0.5-0.4,0.7-0.7l0.4-2c1.1-0.8,2.1-1.2,3.2,0.8l1.6,1.1c1.1,1,2,1,2.6,0.1l0.6-1.1h2.5l2,2l3.2,0.2l3.4-0.3l1.4,3.5l-1,1.1l-4.3-0.7c-1.6,3.2-3.3,2.9-4.9-0.8H255l-1.3,2.7l-1.3-2.5l-1.8-0.1l-0.6,1.9l-1.3-1.5l-1.6,0.5l-1,2.2l-1.4-2.4l-2-0.6l-0.5,2.2l-1.3-1.8h-2.2l-0.6,3l-1.7-3l-1.8-0.1c-0.2,1.1-1,1.1-2.4,0.1c-1.6-1.4-2.4-0.6-3,0.5c-2.4,1.9-3.3,0.2-4.5-0.7c-0.9,0.9-1.7,0.9-2.3,0l-0.9,0.4c-1.2-1.1-2-0.8-2.2,0.7c-0.9,0.6-2,0.5-2.7-0.3c-0.7-1.1-1.3-1.2-2-0.2c-0.3,1.1-1.2,1.2-2.9,0.4l-0.9,1.6l-2.2-2.1l-1.9-0.2l-1.2,1.5l-2.1-1.2c-0.4,2.5-1.8,2.4-4.1-0.5c-0.7-1.1-1.5-1.1-2.2-0.2l-0.5,2l-1.3-1.6l-1.5-0.1l-1,1.8l-0.8,0.2l-1.2-1.8c-1.7-1.6-2.4-0.8-2.5,0.9l1.8,4c-1.8-0.4-3-1.9-3.7-4.4h-1.2c-2.1,1.4-3.1,0.4-4-1.1s-1.6-0.9-2.5-0.2c-1,2.3-3.1,2.1-6.2-0.5c-0.8-1.6-1.6-1-2.4-0.2l-0.6,1.6c-3.1,0.7-5.1,0.3-5.9-1.6c-0.5-0.4-1.3-0.3-1.7,0.2l-1,1.5c-0.5,1.1-1.4,1.2-2.8,0.5l-2.2-2.4c-0.2-0.5-0.8-0.6-1.3-0.4c-0.1,0.1-0.2,0.2-0.3,0.3c-1.6,0.8-2.6,0.2-3.1-1.6c-0.3-0.8-1.3-1.2-2.1-0.9c-0.3,0.1-0.6,0.4-0.7,0.6l-5.9,2.1C141.1,234.7,140.9,234.1,141.7,233.1"/><path class="st2" d="M171.6,189.2c1.3-1.9,3.4-2.8,4.6-1.9s1.2,3.2,0,5s-3.4,2.8-4.6,1.9S170.3,191.1,171.6,189.2 M229.5,189.2c-1.3-1.9-3.4-2.8-4.6-1.9s-1.2,3.1,0,5s3.4,2.8,4.6,1.9S230.7,191.1,229.5,189.2"/><path class="st0" d="M200.6,159.7c1.4,0,2.7-0.9,3.2-2.2h-6.4C197.9,158.8,199.2,159.7,200.6,159.7 M200.6,143c1.4,0,2.7,0.9,3.2,2.2h-6.4C197.9,143.9,199.2,143,200.6,143 M204.4,193.5c-0.5-1.5-1.7-6.2-3.8-6.3c-2.1,0.1-3.3,4.8-3.8,6.3c-0.6,2.1-0.8,4.7,1.1,6.3c1.6,1.4,4,1.4,5.6,0C205.2,198.2,205.1,195.6,204.4,193.5"/><path class="st3" d="M208.2,266.6c-0.3,2.2-0.8,4.3-1.4,6.5v0.1H275c4.8,0,9.2-2.5,11.6-6.6H208.2 M126,273.2h68.2l0.1-0.1c1.4-2,2.6-4.2,3.4-6.5h-83.3C116.8,270.7,121.2,273.2,126,273.2 M287.3,254c-2.1-4.6-6.6-7.6-11.6-7.9c-2.1,2.4-4.9,4.1-8,5h-60.4c0.3,0.9,0.5,1.9,0.7,2.9L287.3,254 M196.6,254c-0.5-1-1.1-2-1.8-2.9h-61.7c-3.1-0.9-5.8-2.6-7.9-5c-5,0.3-9.5,3.3-11.6,7.9L196.6,254L196.6,254z"/><path class="st4" d="M245.1,46.8h-3l3-2.8V46.8z M247.4,46.8h3l-3-2.8V46.8z M249.9,88l-3.7-10.8L242.5,88H249.9 M242.4,59.2l3.7,10.8l3.7-10.8L242.4,59.2 M251.2,79.1V68.2l-3.1,5.5L251.2,79.1 M241.1,68.2v10.9l3.1-5.5L241.1,68.2 M252.5,56.1h-12.7c-0.8,0-1.4,0.7-1.4,1.4c0,0,0,0,0,0v32.3c0,0.8,0.6,1.4,1.4,1.4c0,0,0,0,0,0h12.7c0.8,0,1.4-0.7,1.4-1.4V57.5C254,56.7,253.3,56.1,252.5,56.1L252.5,56.1z M235.2,99.9v84.9l0.2,0.2c1.7-1.3,4.2-1,5.6,0.7c0.1,0.1,0.2,0.3,0.3,0.5v-74.3c0-0.9,0.7-1.7,1.6-1.8h5.1c0.9,0.1,1.6,0.8,1.6,1.8v88.4c2.2-0.4,4.2,1.1,4.6,3.3c0.2,1.5-0.4,3-1.6,3.9c1.5,2.1,3,4.2,4.4,6.3V99.9L235.2,99.9 M244.6,196.6l1.6,2.1v-85.2h-1.6V196.6z M235.2,50.4h21.9v46.5h-21.9L235.2,50.4z M107.9,259.9c0,1.9-1.5,3.4-3.3,3.4c0,0,0,0,0,0c-1.9,0-3.3-1.5-3.3-3.4l0,0c0-1.9,1.5-3.4,3.3-3.4c0,0,0,0,0,0C106.4,256.6,107.9,258.1,107.9,259.9L107.9,259.9 M300,259.9c0,1.9-1.5,3.4-3.4,3.4l0,0c-1.9,0-3.4-1.5-3.4-3.4l0,0c0-1.9,1.5-3.4,3.4-3.4l0,0C298.5,256.6,300,258.1,300,259.9L300,259.9 M203.6,133.5c0,1.6-1.3,2.9-2.9,2.9s-2.9-1.3-2.9-2.9s1.3-2.9,2.9-2.9S203.6,131.9,203.6,133.5 M158.6,88l-3.7-10.8L151.2,88H158.6 M151.3,59.2L155,70l3.7-10.8L151.3,59.2 M159.9,79.1V68.1l-3.1,5.5L159.9,79.1 M149.9,68.1v10.9l3.1-5.5L149.9,68.1 M269,288.1l5.1-4.7H264L269,288.1 M269,291.7l-5.1,4.7h10.1L269,291.7 M272.3,289.9l4.7,5.1v-10.1L272.3,289.9 M265.7,289.9l-4.7,5.1v-10.1L265.7,289.9 M132.1,288.1l-5.1-4.7h10.1L132.1,288.1 M132.1,291.7l5.1,4.7h-10.1L132.1,291.7 M128.8,289.9l-4.7,5.1v-10.1L128.8,289.9 M135.4,289.9l4.7,5.1v-10.1L135.4,289.9 M202.4,273.8h-4.3c5.1-6.6,5.6-15.7,1.2-22.8h4.1C203.7,251.6,209.1,263.5,202.4,273.8 M205.2,171.6H196c-11.6,13.5-20.6,30.7-28.2,50.9h20.1l3.4-3c0.9-0.7,1.2-1.3,0.9-1.8l-3.1-4.4c-0.8-0.6-1-1.8-0.4-2.6c1.3-1.6,3.9-2.2,6.6-2.2c-2.3-1.4-1.9-4.4,1.8-3.5l1.7-0.6c-2.2-0.6-4.1-2-5.3-4c-1.8-3.2-1.1-6.3,0.3-10.1c0.8-2.1,1.9-4,3.3-5.7c-3.1-2-4-6.1-2-9.1c2-3.1,6.1-4,9.1-2c3.1,2,4,6.1,2,9.1c-0.6,0.9-1.4,1.7-2.4,2.3c1.3,1.6,2.4,3.5,3.2,5.5c1.4,3.7,2.1,6.9,0.3,10.1c-1.2,2-3.1,3.4-5.3,4l1.7,0.6c3.7-0.9,4.1,2.1,1.8,3.5c2.7,0.1,5.3,0.6,6.6,2.2c0.6,0.8,0.4,2-0.4,2.6l-3,4.4c-0.3,0.5,0,1.1,0.9,1.8l3.5,3h20.1C225.8,202.4,216.8,185.2,205.2,171.6 M293.5,265.4c-0.3,2.9-0.4,5.7,1.5,8.1C295.4,270.2,295.5,267.2,293.5,265.4 M293.2,278.2c-0.3,2.9-0.4,5.7,1.5,8.2C295.1,283,295.2,280,293.2,278.2 M300.7,278.2c-0.3,2.9-0.3,5.7,1.5,8.2C302.6,283,302.7,280,300.7,278.2 M297,272.3c-0.3,2.9-0.4,5.6,1.5,8.2C298.9,277.1,299,274.1,297,272.3 M299.2,265.6c-0.3,2.9-0.3,5.7,1.5,8.2C301.1,270.4,301.2,267.4,299.2,265.6 M208.5,257.5L208.5,257.5L208.5,257.5L208.5,257.5 M208.6,257.5c0.1,1.8,0.1,3.6,0,5.4h81.1v-5.4H208.6 M198.1,257.5h-86.8v5.4h87.2C198.7,261.2,198.6,259.3,198.1,257.5 M107.8,278.2c-2,1.8-1.8,4.8-1.5,8.2C108.2,283.9,108,281.1,107.8,278.2 M104,272.3c-2,1.8-1.8,4.8-1.5,8.2C104.4,278,104.3,275.2,104,272.3 M107.5,265.4L107.5,265.4L107.5,265.4L107.5,265.4 M107.5,265.5c-2,1.8-1.8,4.8-1.5,8.1C107.9,271.2,107.8,268.4,107.5,265.5 M101.9,265.5L101.9,265.5L101.9,265.5L101.9,265.5 M101.9,265.6c-2,1.8-1.8,4.8-1.5,8.1C102.3,271.3,102.2,268.5,101.9,265.6 M100.3,278.2c-2,1.8-1.8,4.8-1.5,8.2C100.7,283.9,100.6,281.1,100.3,278.2 M199.8,305.2l-2.9,2.8l3.7,3.8l3-2.7L199.8,305.2 M199,289.3v-11h-12.1l3.4,4h5.9v5.6l-8.9,7.3v12.2h8l2.9-3.3l-2.6-2.5l-1.1,1.6h-2.7v-7.4L199,289.3 M176.6,286.3l-1.4,1.4l2.2,2.3l1.4-1.4L176.6,286.3 M174.9,295.3l-7.6-7l-1.9,1.5l7.3,6.6h10.4v-4.1L174.9,295.3 M182.2,278.2H171v6.3l7.9-3.9l8.8,8.7l3-2.2L182.2,278.2 M166.2,282.9l0.1-4.7h-11.5l-0.1-0.1v6.1l1.5,0.1v-4.2h7.7c1,0.3,1.1,1.1,0.4,2.3l-9.6,9.6v4.5h9.8l-4.8-4.1l0.1-3.2 M151.6,301v-24h-2.7v26.1h35.6v-2H151.6 M202,278.2v11l2.9-1.4v-5.6h5.9l3.4-4H202 M210.8,298.9l0.1,4.1h-2.5l-8.8-8.2l-2.3,1.8l10.9,10.9l6.9-0.5v-12.9L210.8,298.9 M224.3,286.4l-2.2,2.3l1.4,1.4l2.2-2.3L224.3,286.4 M233.7,288.4l-7.6,6.9l-8.3-2.9v4.1h10.4l7.4-6.6L233.7,288.4 M220.6,278.2l-15.8,16.4l1.9,1.5l15.6-15.5l7.9,3.9v-6.3L220.6,278.2 M246.5,284.2v-6.1l-0.2,0.1h-11.5l0.1,4.7l6.4,6.3l0.1,3.2l-4.8,4.1h9.9V292l-9.6-9.6c-0.6-1.3-0.5-2,0.4-2.3h7.7v4.2 M249.6,277v24h-32.9v2h35.6V277H249.6 M252.2,276.9L252.2,276.9L252.2,276.9L252.2,276.9 M156.6,325.8v-18.7h-3.1v23.9h5.6C157.4,329.8,156.5,327.9,156.6,325.8 M154.9,333.9l4.1,4.3h3.4v-4.3H154.9 M150.6,332.8v-27.5H149l0.2,28c0.6,3.2,2.8,6,5.7,7.4v7.9h1.6v-8.4C153.5,338.8,151.3,336.1,150.6,332.8 M145.5,333v-28.2h-24.9v28.6c0.1,2.5-0.7,5.1-2.1,7.1h29.9C146.7,338.4,145.7,335.8,145.5,333 M115.8,343.9h34.8v7.2h-34.8V343.9z M244.7,307.1v18.7c0.1,2-0.8,4-2.4,5.2h5.6v-23.9H244.7 M238.8,333.9v4.3h3.4l4.1-4.3H238.8 M250.7,305.3v27.5c-0.7,3.2-2.9,6-5.9,7.4v8.4h1.7v-7.9c3-1.4,5.1-4.2,5.7-7.4l0.1-28L250.7,305.3 M280.8,333.4v-28.6h-24.9V333c-0.3,2.7-1.3,5.4-2.9,7.6h29.9C281.4,338.5,280.7,336,280.8,333.4 M250.7,343.9h34.9v7.2h-34.9V343.9z M288.7,347.1v6.8h-42.2l-4.6-4.6l-0.5-8.1c-6.2,0.3-9.6-2.2-8.8-9h-63.9c0.8,6.7-2.6,9.3-8.8,8.9l-0.5,8.1l-4.6,4.6h-42.3v-6.9l-18.8,13.8h213.7 M67.7,384.7h266v13.2h-266L67.7,384.7z M314.5,369.9v7H86.8v-7l-15.8,11.8h259.3L314.5,369.9 M89.9,363.4h221.4v10.7H89.9V363.4z M203.6,97.4c0,1.6-1.3,2.9-2.9,2.9s-2.9-1.3-2.9-2.9s1.3-2.9,2.9-2.9S203.6,95.9,203.6,97.4 M219.4,114.9c0,1.6-1.3,2.9-2.9,2.9s-2.9-1.3-2.9-2.9s1.3-2.9,2.9-2.9S219.4,113.3,219.4,114.9 M187.1,114.9c0,1.6-1.3,2.9-2.9,2.9s-2.9-1.3-2.9-2.9s1.3-2.9,2.9-2.9S187.1,113.3,187.1,114.9 M201.4,114.2V103H200v11.2h-10.4v1.4H200v11.2h1.4v-11.2h9.9v-1.4H201.4 M200.5,86.1c-14,0-26.1,6.4-31.6,15.4v79.8c1.5-1.6,2.9-3.2,4.4-4.8c-0.7-2.1,0.5-4.4,2.6-5c0.8-0.3,1.7-0.3,2.5,0c0.8-0.8,1.7-1.6,2.5-2.3c-0.3-1.5,0.1-3,1.2-4c-0.6-1-0.2-2.8,0.7-3v-2.8c-3.7-3-4.2-8.4-1.2-12.1c0,0,0,0,0,0c0.6-0.7,1.2-1.3,2-1.8c-1.2-5.1,5.4-9.6,10.6-7.3l2.5-0.5c-2.3-2.2-2.3-5.9-0.1-8.2c0,0,0,0,0,0c0.2-0.3,0.5-0.5,0.8-0.7v-10.8h-8.4c-1.8,2.7-5.4,3.4-8.1,1.6c-2.7-1.8-3.4-5.4-1.6-8.1s5.4-3.4,8.1-1.6c0.6,0.4,1.2,1,1.6,1.6h8.4v-9.3c-2.7-1.8-3.3-5.4-1.5-8.1c1.8-2.7,5.4-3.3,8.1-1.5c2.7,1.8,3.3,5.4,1.5,8.1c-0.4,0.6-0.9,1.1-1.6,1.6v9.3h7.8c1.8-2.7,5.4-3.4,8.1-1.6c2.7,1.8,3.4,5.4,1.6,8.1c-1.8,2.7-5.4,3.4-8.1,1.6c0,0,0,0,0,0c-0.6-0.4-1.1-0.9-1.6-1.6h-7.7v10.7h0.1c2.6,1.8,3.3,5.4,1.6,8c-0.3,0.4-0.6,0.7-0.9,1.1l2.2,0.5c5.2-2.2,11.9,2.2,10.6,7.3c4,2.6,5.1,7.9,2.5,11.9c-0.5,0.8-1.1,1.4-1.8,2v2.8c0.9,0.2,1.3,2,0.7,3c1,1,1.5,2.5,1.2,3.9c0.9,0.8,1.7,1.6,2.6,2.4c2.1-0.7,4.3,0.5,5,2.5c0.3,0.8,0.3,1.7,0,2.5c1.4,1.5,2.9,3,4.3,4.6v-79.7c-5.4-9-17.5-15.3-31.5-15.3L200.5,86.1z M184.8,160.6h31.6v2h-31.6V160.6z M196,141.9c2.5-2.5,6.6-2.5,9.1,0c0,0,0,0,0,0C205.1,138.1,196,138.2,196,141.9 M186.9,144.4l5.7-3.1C190.9,139.5,186.4,141.1,186.9,144.4 M184.7,155.9v-6.5C182.3,150,181.6,154.9,184.7,155.9 M192.6,157.2v-8.6C189.4,149.4,188.4,155.8,192.6,157.2 M208.5,148.5v8.6C212.8,155.8,211.8,149.4,208.5,148.5 M216.4,149.5v6.5C219.6,154.9,218.9,150.1,216.4,149.5 M208.5,141.3l5.7,3.1C214.8,141.1,210.3,139.4,208.5,141.3 M155.9,43.8v2.8h3L155.9,43.8 M150.5,46.7h3v-2.8L150.5,46.7 M154.8,113.4v85.3l1.6-2.1v-83.3L154.8,113.4 M239.1,186.9c-0.3-0.3-0.8-0.5-1.3-0.5c-0.4,0-0.7,0.1-1.1,0.3l2.4,2.8C239.8,188.8,239.8,187.6,239.1,186.9L239.1,186.9z M163.3,186.3c-0.5,0-1,0.2-1.3,0.5c-0.7,0.7-0.7,1.9,0,2.6l2.4-2.8C164.1,186.4,163.7,186.2,163.3,186.3L163.3,186.3z M159.8,190v2.3l0.9-1.1C160.4,190.8,160.1,190.5,159.8,190 M144,99.9v114c1.5-2.1,3-4.3,4.5-6.4c-1.8-1.3-2.2-3.8-0.9-5.6c0.7-1,1.9-1.6,3.1-1.7c0.2,0,0.5,0,0.7,0v-88.4c0-0.9,0.7-1.7,1.6-1.8h5.1c0.9,0.1,1.6,0.8,1.6,1.8v74.5c0.1-0.2,0.2-0.4,0.4-0.6c1.4-1.7,3.8-2,5.6-0.7l0.1-0.1v-85h0.1h-21.8L144,99.9z M240.5,191.1l0.8,1v-2C241.1,190.5,240.9,190.8,240.5,191.1 M150.6,202.7c-0.8,0-1.5,0.7-1.5,1.5c0,0.5,0.3,1,0.7,1.3l1.7-2.4C151.4,202.9,151.1,202.7,150.6,202.7 M251.7,203.4c-0.3-0.5-0.8-0.7-1.3-0.7c-0.4,0-0.7,0.1-1,0.4l1.7,2.4c0.7-0.4,1-1.3,0.6-2C251.8,203.4,251.8,203.4,251.7,203.4L251.7,203.4z M202.5,35.5v4.4l3.2-2.5L202.5,35.5 M195.5,37.4l3.2,2.5v-4.4L195.5,37.4 M219.2,74l4.1,2v-6.4L219.2,74 M177.7,69.6V76l4.1-2L177.7,69.6 M169.6,88.9v1.6c6.7-5.8,14.9-9.5,23.6-10.6l-3.6-3.5v-3.7l-15-15.5h-5.9v28.4c4.4-2.8,9.1-5.1,14-6.8l0.1-1.7l-5.7,2.5c-1.5,0.8-2.4,0.3-2.5-1.4v-13c0.4-1.1,1-1.4,2.4-0.9l10.4,10.1v5C181.1,81.8,175.1,85,169.6,88.9 M212.4,56.4l-2.3,2.2l4.3,4.5l2.1-2.3L212.4,56.4 M217.8,50.6l-2.7,2.8l5.7,5l2.7-2.8v-5.1H217.8 M183.3,50.6h-5.7v5.1l2.7,2.8l5.7-5L183.3,50.6 M192.8,51.6l-10.2,9.1l3.3,3.4l10.3-9L192.8,51.6 M193.8,39.2h-8.4v8.5l2.4,2.8l2.9-2.2l-1.5-1.9c0-1.2,0.3-2.2,2.1-1.7l8.7,9l4.3-3.8 M237.7,199.9L237.7,199.9c-0.8,0-1.5,0.7-1.5,1.6s0.7,1.6,1.6,1.6s1.6-0.7,1.6-1.6C239.4,200.7,238.6,200,237.7,199.9 M163.5,199.9L163.5,199.9c-0.9,0.1-1.6,0.8-1.6,1.6c0,0.9,0.7,1.6,1.6,1.6c0.9,0,1.6-0.7,1.6-1.6C165.1,200.6,164.4,199.9,163.5,199.9 M202.1,207.5c0,0.8-0.7,1.5-1.5,1.5s-1.5-0.7-1.5-1.5s0.7-1.5,1.5-1.5S202.1,206.7,202.1,207.5z M209.3,212.7c0,0.8-0.7,1.5-1.5,1.5s-1.5-0.7-1.5-1.5s0.7-1.5,1.5-1.5S209.3,211.9,209.3,212.7 M193.3,211.2L193.3,211.2c-0.9,0-1.6,0.7-1.6,1.6s0.7,1.5,1.6,1.5c0.8,0,1.5-0.7,1.5-1.6C194.8,211.9,194.2,211.3,193.3,211.2 M183,176.8c-0.9,0-1.6,0.7-1.6,1.6c0,0.9,0.7,1.6,1.6,1.6s1.6-0.7,1.6-1.6S183.9,176.8,183,176.8 M218.1,176.6L218.1,176.6c-0.9-0.1-1.6,0.7-1.6,1.5s0.7,1.6,1.6,1.6s1.6-0.7,1.6-1.6C219.7,177.3,219,176.7,218.1,176.6 M200.8,177.4c-0.9,0-1.6,0.8-1.5,1.6s0.8,1.6,1.6,1.5c0.9,0,1.6-0.7,1.5-1.6C202.5,178.2,201.7,177.4,200.8,177.4C200.9,177.4,200.8,177.4,200.8,177.4 M171.6,199.4c0.8,0.3,1.4,0.8,1.9,1.5l1.3-2.5C173.8,199,172.7,199.3,171.6,199.4 M157.3,222.5h6.2l1.6-3.7C163,220.9,160.3,222.2,157.3,222.5 M152,210.6v-0.4c-2.9,4.1-5.7,8.2-8.3,12.3h7.1c-1.8-3.5-2.4-7,2.1-10.1C153.7,210.7,152.2,211.2,152,210.6 M170,207.7c-1.7,0-3.3-1-4-2.7c-1.9,1.4-4.6,1-6-0.9c-0.8-1.1-1-2.4-0.7-3.7c-2,2.5-3.9,5.1-5.7,7.7c1.2,0,2.4,0.6,3,1.6c0.5,0.8,1.3,0.4,1.8-0.1l1.6-1.8c1.3-1.4,2.9-1.2,4.2,0.5c0.2,1.1-0.3,2.4,1.6,2.7c0.9-0.6,2.1-0.8,3.2-0.6l1.3-2.7h-0.3H170z M168.5,198.7c-2.1-1.4-2.6-4.3-1.8-7.5c-1.9,2.2-3.7,4.4-5.4,6.6c2.1-1.2,4.7-0.4,5.9,1.6c0,0,0,0,0,0c0.1,0.2,0.2,0.3,0.2,0.5c0.6-0.4,1.2-0.7,1.9-0.8C169.1,199.1,168.8,198.9,168.5,198.7 M178.7,178.1L178.7,178.1L178.7,178.1L178.7,178.1 M178.8,179.4c-0.1-0.3-0.1-0.7-0.1-1c0-0.1,0-0.2,0-0.4c-1.3,1.4-2.6,2.7-4,4.1c2.4-1.1,5.2,0.1,6.3,2.5c0,0,0,0,0,0c0.3,0.6,0.4,1.3,0.4,2c0.9-1.4,1.7-2.7,2.6-4.1C181.7,183.2,179.4,181.7,178.8,179.4L178.8,179.4z M184.6,171.7c-0.6,0.6-1.3,1.8-2,2.5h0.4c2.2,0,4,1.6,4.3,3.7c1.3-1.9,2.7-4.3,4.1-6.2L184.6,171.7 M191.4,171.7L191.4,171.7 M207.8,222.5c-4.5-2.7-10.1-2.7-14.6,0H207.8 M235.6,217.7l2.1,4.8h6.2C240.7,221.9,237.8,220.2,235.6,217.7 M257.4,222.5c-2.7-4.1-5.4-8.2-8.3-12.3v0.4c-0.1,0.6-1.6,0-0.8,1.9c4.4,3.1,3.8,6.5,2.1,10.1H257.4 M241.8,200.4c0.6,2.3-0.7,4.7-3,5.3c-1.3,0.4-2.6,0.1-3.7-0.6c-0.7,1.6-2.3,2.6-4.1,2.6H231l1.3,2.7c1.1-0.2,2.2,0,3.2,0.6c1.9-0.4,1.4-1.6,1.6-2.7c1.3-1.7,2.9-1.9,4.2-0.5l1.6,1.8c0.5,0.5,1.3,0.9,1.8,0.1c0.6-1,1.8-1.6,3-1.6c-2-2.5-3.9-5.1-5.9-7.6 M226.3,198.4l1.3,2.5c0.5-0.7,1.1-1.2,1.9-1.5C228.4,199.4,227.3,199,226.3,198.4 M234.4,191.2c0.9,3.2,0.3,6.1-1.8,7.5c-0.3,0.2-0.5,0.3-0.8,0.4c0.7,0.1,1.3,0.4,1.9,0.8c0.9-2.2,3.5-3.3,5.7-2.3c0.2,0.1,0.3,0.1,0.5,0.2C238.1,195.6,236.3,193.4,234.4,191.2 M222.4,178.1L222.4,178.1L222.4,178.1L222.4,178.1L222.4,178.1c0,0.5-0.1,0.9-0.2,1.3c-0.7,2.3-3.1,3.6-5.4,2.9c1,1.4,1.9,2.9,2.8,4.4c0-0.7,0.1-1.4,0.4-2c1.1-2.4,3.9-3.5,6.3-2.5c0,0,0,0,0,0C225.1,180.9,223.8,179.5,222.4,178.1 M209.7,171.6L209.7,171.6L209.7,171.6 M216.5,171.7h-6.8c1.4,1.8,2.8,4.2,4.2,6.2c0.2-2.2,2.1-3.9,4.3-3.9C217.7,173.4,217.1,172.3,216.5,171.7 M224,79.6l-5.7-2.5l0.1,1.7c4.9,1.7,9.6,4,13.9,6.8V57.3h-5.8l-15,15.5v3.8L208,80c8.7,1.1,16.9,4.8,23.6,10.6v-1.6c-5.5-4-11.5-7.2-17.9-9.6v-5L224,64.3c1.4-0.5,2.1-0.2,2.4,0.9v13C226.4,79.9,225.5,80.4,224,79.6 M214.2,39.2h-7.4l-5,3.7l3.8,3.9l1.9-1.6l3,3.2l-8.4,7.4v18.9c-0.2,1-1.2,1.6-2.2,1.4c-0.7-0.2-1.2-0.7-1.4-1.4V57.9l-5.8,4.9v11.4l7.9,6.9l6.2-6.3l-0.2-18.3l7.7-6.8V39.2 M143.9,50.3h21.9v46.5h-21.9V50.3z M117.1,277.1L117.1,277.1l0,25.9H146v-25.9H117.1 M255.1,277v26H284v-26l0,0H255.1 M214.7,197.5c-2,0.4-4-1.6-4.6-4.2s0.7-5.3,2.7-5.6c2-0.4,4,1.6,4.6,4.2S216.7,197.1,214.7,197.5 M191.1,193.3c-0.5,2.6-2.6,4.6-4.6,4.2s-3.2-3-2.7-5.6s2.6-4.6,4.6-4.2h-0.1C190.4,188.1,191.6,190.7,191.1,193.3 M161.2,56h-12.7c-0.8,0-1.4,0.7-1.4,1.4c0,0,0,0,0,0v32.3c0,0.8,0.6,1.4,1.4,1.4c0,0,0,0,0,0h12.7c0.8,0,1.4-0.7,1.4-1.4V57.5C162.7,56.7,162,56,161.2,56L161.2,56z M280.4,299.3h-21.7v-18.7h21.7V299.3z M120.7,280.6h21.7v18.7h-21.7V280.6z M306.1,365.4H95c-1.6,1.9-1.6,4.8,0,6.7h211.1C307.8,370.2,307.8,367.3,306.1,365.4 M327.6,395.4h-254c-1.6-2.5-1.6-5.7,0-8.3h254C328.8,389.8,329.1,393,327.6,395.4"/></svg>
