<svg height="900.01263" style="enable-background:new" version="1.1" width="756.78662" xmlns="http://www.w3.org/2000/svg">
<g transform="translate(6,-1202.4221)">
<g transform="matrix(1.00286,0,0,1.00286,.01719,-6.02959)">
<path d="m-3.4419706,1207.558 0,707.5083c0,51.7424 41.9455556,93.6878 93.6878256,93.6878l187.375655,0c51.74244,0 93.68782,41.9455 93.68782,93.6878 0,-51.7423 41.94573,-93.6878 93.68783,-93.6878l187.37565,0c51.74229,0 93.68783,-41.9454 93.68783,-93.6878l0,-707.5083 -749.5026106,0z" style="fill:#ffd700;enable-background:new"/>
<path d="m-3.4419706,1207.558 0,707.5083c0,51.7424 41.9455556,93.6878 93.6878256,93.6878l187.375655,0c51.74244,0 93.68782,41.9455 93.68782,93.6878 0,-51.7423 41.94573,-93.6878 93.68783,-93.6878l187.37565,0c51.74229,0 93.68783,-41.9454 93.68783,-93.6878l0,-707.5083 -749.5026106,0z" style="stroke:#000;enable-background:new;fill:none;stroke-width:5.11605883"/>
<path d="m680.88734,1714.1529 -632.477045,0" style="stroke:#000;stroke-linejoin:round;enable-background:new;fill:none;stroke-width:4.26338243;stroke-linecap:round"/>
<path d="m174.1812,1836.9798c-7.38747,0 -11.07496,3.14 -12.44375,7.0879l-33.18777,50.561c2.06373,-1.8619 5.23247,-3.0776 9.81911,-3.0776l41.43474,0 41.43475,0c6.1819,0 11.18401,-2.3988 14.30898,-5.7689 3.12496,-3.3701 4.37674,-7.7023 3.03766,-11.5644l-12.91006,-37.238 -10.05892,0 -41.43474,0 z m -88.758294,73.6099 -35.812411,54.5713 44.885422,0 44.885423,0c2.91418,0 6.13624,-2.8797 8.2603,-6.395 2.12406,-3.5154 3.15036,-7.6691 1.69203,-10.1922l-10.97821,-18.9854 -10.97821,-18.9987 z M 240.30359,1669.0958c-3.25764,-0.026 -6.46647,2.7126 -8.72661,6.3284l-35.26616,53.732c2.55853,-3.6862 6.11921,-6.211 9.57928,-5.3026l82.70962,21.7166 82.70962,21.7166 0,-63.9774 -46.89721,-12.3105 -82.70962,-21.7166c-0.46462,-0.122 -0.93354,-0.1828 -1.39892,-0.1865z" style="stroke:#000;stroke-linejoin:round;fill:#f00;stroke-width:2.98436761;stroke-linecap:round"/>
<path d="m138.36879,1891.5511c-10.74225,-1.5958 -16.91034,11.3242 -10.70882,19.5279 7.22152,12.5 14.44624,24.9982 21.6737,37.4948 2.40145,5.2907 -4.22004,13.9328 1.40824,5.4679 11.11872,-17.0833 22.50215,-34.0071 33.4545,-51.1908 2.87013,-3.9208 2.07723,-13.2707 -4.39288,-11.2998 -13.81158,0 -27.62316,0 -41.43474,0 z m 66.12239,-167.884c-9.13781,1.6201 -14.30962,13.8527 -10.46563,22.0411 14.85312,42.8365 29.70624,85.673 44.55937,128.5096 1.03943,5.3601 -1.39722,9.465 2.47054,3.2133 10.9488,-16.5189 22.01281,-32.9632 32.88846,-49.5296 2.86605,-7.4308 -2.42397,-14.5049 -4.17456,-21.6021 -8.35166,-24.0847 -16.7008,-48.1702 -25.05583,-72.2537 -13.41793,-3.4019 -26.7483,-7.2632 -40.22235,-10.3786z" style="stroke:#000;fill:#8b0000;stroke-width:2.98436761"/>
<path d="m568.43747,1836.9798c7.38747,0 11.07496,3.14 12.44375,7.0879l33.18777,50.561c-2.06373,-1.8619 -5.23247,-3.0776 -9.8191,-3.0776l-41.43475,0 -41.43475,0c-6.1819,0 -11.18401,-2.3988 -14.30897,-5.7689 -3.12497,-3.3701 -4.37675,-7.7023 -3.03766,-11.5644l12.91005,-37.238 10.05892,0 41.43474,0 z m 88.7583,73.6099 35.81241,54.5713 -44.88543,0 -44.88542,0c-2.91418,0 -6.13624,-2.8797 -8.2603,-6.395 -2.12406,-3.5154 -3.15036,-7.6691 -1.69203,-10.1922l10.97821,-18.9854 10.97821,-18.9987 z M 502.31508,1669.0958c3.25764,-0.026 6.46647,2.7126 8.72661,6.3284l35.26617,53.732c-2.55854,-3.6862 -6.11922,-6.211 -9.57929,-5.3026l-82.70962,21.7166 -82.70961,21.7166 0,-63.9774 46.8972,-12.3105 82.70962,-21.7166c0.46462,-0.122 0.93354,-0.1828 1.39892,-0.1865z" style="stroke:#000;stroke-linejoin:round;fill:#f00;stroke-width:2.98436761;stroke-linecap:round"/>
<path d="m604.24988,1891.5511c10.74225,-1.5958 16.91034,11.3242 10.70882,19.5279 -7.22152,12.5 -14.44624,24.9982 -21.6737,37.4948 -2.40145,5.2907 4.22004,13.9328 -1.40824,5.4679 -11.11872,-17.0833 -22.50215,-34.0071 -33.4545,-51.1908 -2.87013,-3.9208 -2.07723,-13.2707 4.39288,-11.2998 13.81158,0 27.62316,0 41.43474,0 z m -66.12239,-167.884c9.13781,1.6201 14.30962,13.8527 10.46563,22.0411 -14.85312,42.8365 -29.70624,85.673 -44.55937,128.5096 -1.03943,5.3601 1.39722,9.465 -2.47054,3.2133 -10.9488,-16.5189 -22.01281,-32.9632 -32.88846,-49.5296 -2.86605,-7.4308 2.42397,-14.5049 4.17456,-21.6021 8.35166,-24.0847 16.7008,-48.1702 25.05583,-72.2537 13.41793,-3.4019 26.7483,-7.2632 40.22235,-10.3786z" style="stroke:#000;fill:#8b0000;stroke-width:2.98436761"/>
<path d="m673.82296,1263.7813c-0.0218,0.041 -0.0784,0.1618 -0.0932,0.1866 -0.044,0.073 -0.0699,-0.032 0.0932,-0.1866z" style="font-family:Sans;enable-background:accumulate;fill:#f00"/>
<path d="m48.824434,1707.5728c1.154886,0 2.128689,0.3191 2.664614,0.6395 0.267962,0.1602 0.385081,0.2988 0.426338,0.3464l0.599538,3.5439 0,1.9852c0,-0.4069 -0.02656,0.1586 -0.65283,0.6661 -0.626283,0.5075 -1.64145,0.9726 -3.03766,0.9726 -2.54628,0 -4.07686,-1.6811 -4.07686,-4.0768 0,-0.9448 0.485007,-1.9774 1.372277,-2.8112 0.887269,-0.8338 2.11309,-1.2657 2.704583,-1.2657z" style="font-family:Sans;enable-background:accumulate"/>
<path d="m685.89366,1707.5728c0.5915,0 1.81731,0.4319 2.7046,1.2657 0.88725,0.8338 1.37226,1.8664 1.37226,2.8112 0,2.3957 -1.5306,4.0768 -4.07686,4.0768 -1.39622,0 -2.41137,-0.4651 -3.03766,-0.9726 -0.62629,-0.5075 -0.65281,-1.073 -0.65281,-0.6661l0,-1.9852 0.59951,-3.5439c0.0413,-0.048 0.15839,-0.1862 0.42634,-0.3464 0.53591,-0.3204 1.50975,-0.6395 2.66462,-0.6395z" style="font-family:Sans;enable-background:accumulate"/>
<path d="m240.67664,1603.906c-61.85639,34.3893 -123.46741,69.2289 -185.203995,103.8267 -0.339152,-1.9972 -3.097496,-3.8104 -6.648211,-3.8104 -3.550758,0 -7.727381,3.4596 -7.727381,7.7274 0,4.2677 3.287494,7.7273 7.727381,7.7273 4.439886,0 7.341011,-3.0099 7.341011,-5.2892 0,0 162.917585,-81.3042 191.812235,-93.6878 16.11712,-6.9075 47.33241,8.7412 42.20748,42.807l154.34777,0c-5.12493,-34.0658 26.09036,-49.7145 42.20748,-42.807 28.89465,12.3836 191.81221,93.6878 191.81221,93.6878 0,2.2793 2.90115,5.2892 7.34104,5.2892 4.43988,0 7.72738,-3.4596 7.72738,-7.7273 0,-4.2678 -4.17663,-7.7274 -7.72738,-7.7274 -3.55072,0 -6.30904,1.8132 -6.64824,3.8104 -61.73654,-34.5978 -122.7015,-70.6262 -185.20397,-103.8267 -32.14901,-17.0771 -73.91639,17.441 -73.91639,47.2436l-105.53203,0c0,-29.2331 -42.60772,-64.6498 -73.91639,-47.2436z" style="stroke:#000;stroke-width:3.4107058"/>
<path d="m240.67664,1603.906c-61.85639,34.3893 -123.46741,69.2289 -185.203995,103.8267 -0.339152,-1.9972 -3.097496,-3.8104 -6.648211,-3.8104 -3.550758,0 -7.727381,3.4596 -7.727381,7.7274 0,4.2677 3.287494,7.7273 7.727381,7.7273 4.439886,0 7.341011,-3.0099 7.341011,-5.2892 0,0 160.505855,-88.238 189.400505,-100.6216 16.11712,-6.9074 58.48668,11.9067 53.36175,45.9725l137.46562,0c-5.12493,-34.0658 36.64172,-52.8799 52.75884,-45.9725 28.89465,12.3836 189.40046,100.6216 189.40046,100.6216 0,2.2793 2.90115,5.2892 7.34104,5.2892 4.43988,0 7.72738,-3.4596 7.72738,-7.7273 0,-4.2678 -4.17663,-7.7274 -7.72738,-7.7274 -3.55072,0 -6.30904,1.8132 -6.64824,3.8104 -61.73654,-34.5978 -122.7015,-70.6262 -185.20397,-103.8267 -32.14901,-17.0771 -73.91639,17.441 -73.91639,47.2436l-105.53203,0c0,-29.2331 -42.60772,-64.6498 -73.91639,-47.2436z" style="fill:#f00"/>
<path d="m114.00749,1670.581 -12.79014,12.7901 -60.113693,0 12.790147,-12.7901 z m 0,-6.0081 -12.79014,-12.7901 -60.113693,0 12.790147,12.7901z" style="stroke:#000;enable-background:new;fill:#fff;stroke-width:1.4921838"/>
<rect height="6.0179515" style="stroke:#000;enable-background:new;fill:#f00;stroke-width:2.13549733" width="582.62915" x="51.53104" y="1664.3547"/>
<path d="m352.65704,1617.1625c1.86022,-11.1446 17.132,-1.1113 25.90004,4.5831z" style="enable-background:new;fill:#f00"/>
<path d="m358.94552,1626.9682 5.43582,-5.0627 19.87802,6.5549z" style="enable-background:new;fill:#f00"/>
<path d="m35.874408,1230.1273c-0.779265,0.012 -1.525839,0.195 -2.278245,0.5462 -15.889694,7.4181 25.580294,46.2577 25.580294,46.2577 -4.610434,-0.8038 -11.721688,-6.4558 -13.895962,-1.3723 -5.458007,12.7612 25.119252,37.0713 37.984072,45.4983 0,0 -18.373276,-8.8089 -21.74325,-2.3448 -5.422498,10.4011 34.959735,36.2387 34.959735,36.2387 -7.952474,0.2035 -9.450443,3.6171 -9.312826,5.8355 0.904046,14.5738 27.290484,24.2416 44.059394,36.5852 -19.26267,7.6265 19.54259,30.7786 31.12269,32.828 -19.11346,9.3062 27.11323,31.1619 45.19185,34.5334 -16.18567,13.3609 51.23209,40.0902 102.32118,35.5993 1.62122,2.8422 3.18497,5.6845 3.62387,8.5267l-230.435812,2.7712c-0.289684,8.4081 -0.496318,16.7687 7.460919,20.4643l61.819043,-4.9029 -59.047845,6.6082c-1.431852,7.5189 1.856371,12.9728 6.821415,17.693l60.32686,-10.8716 -58.19517,13.0033c1.42006,6.3011 1.77077,13.315 8.9531,15.7745l42.84699,-11.2979 -41.78114,13.2165c1.05167,4.7222 0.47923,9.6764 6.82141,13.6428l49.24206,-16.6272 -47.32354,18.7589c0.23583,4.9205 1.87559,9.4667 8.10043,12.7901l45.19185,-18.5457 -44.33918,21.1038c0.89631,4.0181 3.16719,7.8644 10.44529,11.0848l38.15727,-19.3984 -37.9441,21.53c1.9949,5.726 3.31209,11.8331 11.51113,14.0692l104.2397,-67.5746 18.78553,7.6741 7.43427,-10.019c-3.80841,7.0633 -7.67803,14.0653 -11.29796,21.317l13.85599,1.0658 -4.68972,2.1317 -7.24775,11.9375c0,0 1.95802,2.707 3.61055,2.3981 9.08926,-1.6989 18.19759,-1.2121 17.93285,-0.9726 -9.99324,5.4118 -12.16903,-2.7525 -15.06839,13.5629 6.24935,0.4496 11.8961,-0.6042 17.7863,-1.0525 -0.3999,4.0366 -1.42497,7.9675 -4.22341,11.6044 5.72786,0.2424 11.45889,0.05 17.18676,-1.5055l-7.39431,11.7509 8.30027,-2.2649c2.49484,1.2464 5.67825,1.6371 8.96643,1.8919 2.01936,3.6782 3.86121,7.2877 10.01895,8.207l1.2124,4.3699c-5.78855,0.9396 -7.59832,1.7862 -8.07182,5.2849 2.66501,-1.4109 7.63195,6.9434 7.72542,12.5814 0.0784,4.7319 -5.99284,9.8318 -6.66532,9.1593 0.67083,1.3554 3.16635,3.9321 4.64021,4.2837 1.3566,4.4465 6.4582,8.7135 11.19138,8.7399 3.39656,0.019 8.40189,-3.318 8.10043,-6.1819 3.19753,-0.018 6.39507,-0.2875 9.59261,-2.8778 7.94055,3.6239 14.58062,-2.8429 15.08171,-8.7399 0.24995,-11.623 4.11826,-24.2131 -12.20393,-22.4893 -2.31429,-2.6104 -4.84649,-4.9632 -10.23212,-3.9437l-12.47039,-30.0568 13.64282,0.2131 -5.32923,10.2322 12.15064,0.6395 -4.47655,7.1411 13.64283,4.6897 5.64898,7.6742 3.30412,0.5329 1.91852,5.5424c-0.98896,0.5838 -3.77728,-0.26 -4.47655,2.8111 4.85524,-0.5633 6.90283,6.7021 6.4084,12.3772 -0.27987,3.2122 -3.19468,7.907 -6.30182,9.406 -0.32271,2.7096 4.8314,5.842 6.76812,7.7541 3.61298,7.5434 8.93519,4.6638 13.32307,2.8778 6.84822,-0.869 7.46359,-2.0101 9.53932,-3.9969 8.34343,2.9179 14.57824,1.208 18.70559,-12.2573 3.42247,-11.1656 -1.0425,-24.0712 -14.54879,-21.4235l-12.36381,-1.9185 -16.61387,-44.1793c73.85003,1.6895 88.31863,-14.0161 114.85819,-25.3138 40.0705,-5.8097 56.12209,-19.1111 80.19153,-23.5153 18.36345,-3.36 25.99218,12.0598 43.33997,5.9421 -4.53944,-4.1068 -12.82788,-8.878 -17.08018,-12.9766 4.4413,0.1716 15.8811,2.3581 15.8811,2.3581 -2.02353,-4.8473 -7.69847,-8.3289 -12.77684,-12.0307 6.98371,-2.4312 19.01937,-3.1015 28.89776,-5.6357 4.61425,-1.1837 14.08246,5.9155 14.0825,5.9155 -3.94798,-9.1804 4.77542,-22.7142 -25.76686,-22.7691 -1.09343,-2.0499 -5.33835,-2.9703 -12.05735,-3.011 -5.53801,-2.6319 -11.44173,-7.551 -16.2808,-7.834 -22.58309,-1.3209 -56.70686,8.3768 -64.07066,-3.1709l1.06585,5.8755 -10.4053,-5.5691 6.32848,12.0574 -78.83262,-0.453c-3.68583,0.2958 -18.02469,-11.7455 11.00485,-26.0732 24.74403,-12.2126 41.01515,-0.2667 49.89488,4.3699 26.25851,13.7111 55.14045,-4.8889 77.47367,-26.9792 3.76141,-1.7097 14.38823,1.2175 15.68123,-3.9303 1.08516,-4.3196 -3.40137,-3.3897 -5.58235,-9.3395 23.00504,-34.685 49.18341,-63.299 73.35683,-93.8343 1.93451,-2.4437 -0.60276,-7.1631 -5.82216,-6.1819 0,0 51.90868,-94.6403 32.09525,-111.1677 -8.98798,-7.4974 -17.37307,31.3239 -19.58491,31.8155 0,-8.5918 2.66256,-26.3095 -1.51883,-32.7082 -5.5103,-8.4322 -10.91729,14.7831 -25.31384,42.5006 0.42157,-11.8791 0.76899,-26.7748 -5.43581,-27.4322 -5.03983,-0.5339 -15.21123,24.7809 -22.7558,37.5311 0,0 2.49676,-16.5591 -3.91698,-21.1037 -5.59693,-3.9658 -28.43804,44.8121 -30.44324,45.6714 1.80887,-8.5918 2.0955,-19.5709 -0.90597,-22.9156 -6.63582,-7.3951 -26.69866,38.8138 -30.00355,41.9143 0,0 2.69446,-14.0537 -2.25158,-18.3991 -6.8345,-6.0046 -17.9592,22.3169 -32.1086,38.1439 0.82356,-4.12 2.71706,-14.8558 -2.41149,-16.4273 -8.77149,-2.6879 -17.08039,27.0295 -80.33807,80.7911 -2.31608,-4.4714 -25.68526,22.9368 -38.43708,33.9072l0.14656,-14.0159c23.39132,-23.2016 22.38931,-43.568 11.75094,-58.4883 -21.71096,-30.4495 -49.68641,-26.2331 -61.79239,-29.5372 -2.58432,-3.7465 -10.84257,-11.2842 -11.45784,-6.1819 -0.30949,2.5665 -0.43331,5.046 -1.50551,7.9938 -51.96019,-7.9721 -93.57202,-16.145 -148.63217,-50.0414 -5.89046,-3.6263 -6.63529,7.2087 0,15.3748C65.537436,1266.9998 47.563374,1229.9461 35.874408,1230.1273 z m 295.465712,357.831 6.71483,0 -4.90289,6.8214 z m 3.09096,9.9123 9.80578,0 -5.64899,10.2322z" style="enable-background:new"/>
<path d="m645.92445,1644.3282 8.76658,17.0801 -20.53087,0 0,11.9109 20.53087,0 -8.76658,17.0801 39.90261,-23.0355 -39.90261,-23.0356z" style="stroke-linejoin:round;enable-background:new;fill:#fff;stroke-width:1.4921838;stroke-linecap:round;stroke:#000"/>
<path d="m243.07361,1706.9131 0,255.1356c0,17.6134 14.27851,31.8919 31.89191,31.8919l63.78394,0c17.61346,0 31.89197,14.2785 31.89197,31.892 0,-17.6135 14.27851,-31.892 31.89186,-31.892l63.78394,0c17.6134,0 31.89191,-14.2785 31.89191,-31.8919l0,-255.1356 -255.13553,0z" style="stroke:#000;fill:#ffd700;stroke-width:0.31891948"/>
<path d="m259.02569,1850.4306 -15.95208,27.6162 0,83.9972c0,17.6135 14.29069,31.9042 31.90415,31.9042l0,-115.9014 -15.95207,-27.6162z" style="fill:#f00"/>
<path d="m290.92978,1850.4306 -15.95202,27.6162 0,115.9014 31.90409,0 0,-115.9014 -15.95207,-27.6162z" style="fill:#008000"/>
<path d="m322.83392,1850.4306 -15.95207,27.6162 0,115.9014 31.87864,0c0.009,0 0.0167,-10e-5 0.0254,0l0,-115.9014 -15.95207,-27.6162z" style="fill:#f00"/>
<path d="m354.73807,1850.4306 -15.95207,27.6162 0,115.9014c17.60157,0.014 31.85307,14.2737 31.85307,31.8786 0,-0.5505 0.0237,-1.09 0.0508,-1.6335l0,-146.1465 -15.95202,-27.6162z" style="fill:#008000"/>
<path d="m386.64216,1850.4306 -15.95207,27.6162 0,146.1465c0.85421,-16.8508 14.79017,-30.2451 31.85313,-30.2451l0.0508,0 0,-115.9014 -15.95208,-27.6162z" style="fill:#f00"/>
<path d="m418.54631,1850.4306 -15.95207,27.6162 0,115.9014 31.90415,0 0,-115.9014 -15.95208,-27.6162z" style="fill:#008000"/>
<path d="m450.45046,1850.4306 -15.95207,27.6162 0,115.9014 31.82755,0c0.026,0 0.0508,0 0.0765,0l0,-115.9014 -15.95208,-27.6162z" style="fill:#f00"/>
<path d="m482.35455,1850.4306 -15.95207,27.6162 0,115.9014c17.5779,-0.042 31.80204,-14.3165 31.80204,-31.9042l0,-84.1758 -15.84997,-27.4376z" style="fill:#008000"/>
<g transform="matrix(.95963,0,0,.99901,1330.6097,1566.0274)">
<path d="m672,-172.625c-6.92343,0.22518 -13.37925,1.82473 -20.25,2.6875l-0.3125,3.53125c0.95278,2.82885 2.11607,5.67179 3.03125,8.5 6.45448,0.11117 13.27755,0.8413 19.2481,-0.65752 5.91878,-3.09695 11.14568,-6.85095 15.72065,-11.12373 -6.38131,-2.45963 -12.05261,-3.11264 -17.4375,-2.9375z" style="stroke:#000;stroke-linejoin:round;fill:#f00;stroke-width:1.00099552;stroke-linecap:round" transform="translate(-1622.1024,359.0172)"/>
<path d="m-953.7328,192.94259c-5.97386,1.37441 -8.30548,0.1013 -13.82572,2.27149 4.46261,4.54645 15.31365,4.13588 19.03992,1.49114 2.87137,-2.03797 5.11732,-3.80955 7.52881,-6.06175 -3.36362,-1.29648 -7.51307,1.09585 -12.74301,2.29912z" style="stroke:#000;fill:none;stroke-width:1.00099552;stroke-linecap:round"/>
<path d="m606.09375,-186.78125c-5.19599,0.15552 -10.34735,1.27386 -15.40625,4.71875l1.375,15.65625c-1.7721,5.26121 -4.29845,10.52004 -4.53125,15.78125 2.1301,7.75377 5.31185,14.47403 10.71875,19.0625 -0.7877,6.48621 1.2981,12.20415 4.1875,17.6875 -2.3809,1.1016 -2.59025,3.08492 -3.40625,4.8125 1.3974,4.24683 3.6057,8.06411 7.6875,10.96875 -2.6914,7.62805 6.85545,8.03125 15.03125,8.03125 8.17575,0 17.72262,-0.403202 15.03125,-8.03125 4.08179,-2.90464 6.29008,-6.72192 7.6875,-10.96875 -0.81599,-1.72758 -1.02531,-3.7109 -3.40625,-4.8125 2.88938,-5.48335 4.97525,-11.20129 4.1875,-17.6875 5.40691,-4.58847 8.58858,-11.30873 10.71875,-19.0625 -0.23282,-5.26121 -2.75923,-10.52004 -4.53125,-15.78125l1.375,-15.65625c-10.11785,-6.88978 -20.62381,-4.4666 -31.0625,-3.65625 -5.21935,-0.40517 -10.46026,-1.21802 -15.65625,-1.0625z" style="stroke:#000;fill:#f00;stroke-width:1.00099552" transform="translate(-1622.1024,359.0172)"/>
</g>
<g transform="matrix(.95963,0,0,.99901,1330.6097,1566.0274)">
<path d="m636.14357,-145.3142c0,0 0.94025,-4.12911 2.92343,-3.47135 1.99846,0.66284 5.9073,0.25958 9.70347,-0.94807 -1.42548,4.02332 -11.15733,6.99637 -12.6269,4.41942z" style="stroke:#000;fill:#c0c0c0;stroke-width:1.00099552" transform="translate(-1622.1024,359.0172)"/>
<path d="m644,-148.65625c-1.43503,0.19162 -2.73369,0.22429 -3.78125,0.0937 -0.23856,0.36674 -0.375,0.81024 -0.375,1.28125 0,1.26398 0.98195,2.29418 2.21875,2.34375 0.0102,4.1e-4 0.021,-2.8e-4 0.0312,0 0.0863,-0.0262 0.16363,-0.0659 0.25,-0.0937 0.0405,-0.0128 0.0844,-0.0182 0.125,-0.0312 0.34936,-0.11551 0.71736,-0.23481 1.0625,-0.375 0.013,-0.005 0.0182,-0.0259 0.0312,-0.0312 0.53582,-0.4297 0.90625,-1.06687 0.90625,-1.8125 0,-0.51839 -0.18582,-0.98691 -0.46875,-1.375z" style="stroke:#000;stroke-width:1.00099552" transform="translate(-1622.1024,359.0172)"/>
<path d="m-979.44774,211.1308c-0.33538,0.0258 -0.65298,0.0463 -0.95593,0.0445 -0.0824,0.22763 -0.13338,0.50175 -0.13338,0.82254 0,0.76552 0.28078,1.37831 0.62246,1.37831 0.34168,0 0.62246,-0.61279 0.62246,-1.37831 0,-0.34506 -0.0589,-0.63301 -0.15561,-0.867z" style="fill:#c0c0c0"/>
</g>
<path d="m358.04625,1768.6554c-2.39121,3.3198 -2.36357,10.3192 1.7993,22.3527 -3.69112,3.0134 -3.04514,8.88 -3.38869,14.111 -2.91535,0.2955 -3.43969,3.2614 -4.34832,5.8067 -2.28479,1.1005 -2.48569,3.0819 -3.26874,4.8077 1.34098,4.2426 3.46013,8.0561 7.37715,10.9579 -2.58275,7.6204 6.5787,8.0232 14.42444,8.0232 7.8457,0 17.00716,-0.4028 14.42444,-8.0232 3.91701,-2.9018 6.03615,-6.7153 7.37716,-10.9579 -0.78305,-1.7258 -0.98392,-3.7072 -3.26874,-4.8077 -0.40449,-3.0258 -2.57401,-4.2069 -4.34832,-5.8067 -0.34356,-5.231 0.30239,-11.0976 -3.3887,-14.111 4.16293,-12.0335 4.19048,-19.0329 1.79931,-22.3527 -3.91844,3.3348 -7.3924,6.993 -12.59515,6.993 -5.20275,0 -8.67668,-3.6582 -12.59514,-6.993z" style="stroke:#000;stroke-linejoin:round;fill:none;stroke-width:0.98009479;stroke-linecap:square"/>
<path d="m360.88601,1805.7557c0,0 3.8674,-1.6398 9.75432,-1.6398 5.88692,0 9.75431,1.6398 9.75431,1.6398" style="stroke:#000;stroke-linejoin:round;fill:none;stroke-width:0.98009479;stroke-linecap:round"/>
<path d="m384.69624,1812.189c3.98288,7.0736 -0.32717,10.1429 -6.84619,9.3347 0.91714,-2.8754 5.3141,-4.2489 6.84619,-9.3347z"/>
<path d="m356.58656,1812.1891c-3.98285,7.0736 0.32714,10.1429 6.84619,9.3346 -0.91712,-2.8754 -5.31414,-4.2489 -6.84619,-9.3346z"/>
<path d="m358.05611,1768.654c-2.3912,3.3198 -2.37625,10.3248 1.78663,22.3584 -3.69112,3.0133 -3.05105,8.8834 -3.3946,14.1144 -2.91535,0.2955 -3.43032,3.2485 -4.33896,5.7938 -2.28478,1.1005 -2.48393,3.098 -3.26698,4.8239 1.34099,4.2426 3.45921,8.0477 7.37623,10.9495 0,0 3.6888,1.333 5.38542,0.7657 1.69662,-0.5674 6.82775,-1.8592 10.33694,-1.7867 2.72936,0.056 6.90151,1.1921 8.32059,1.7867 1.41909,0.5945 4.79838,-0.7657 4.79838,-0.7657 3.91701,-2.9018 6.03523,-6.7069 7.37624,-10.9495 -0.78305,-1.7259 -0.98216,-3.7234 -3.26699,-4.8239 -0.40449,-3.0259 -2.56464,-4.194 -4.33896,-5.7938 -0.34355,-5.231 0.2965,-11.1011 -3.3946,-14.1144 4.16292,-12.0336 4.20333,-19.0386 1.81216,-22.3584 -3.91844,3.3348 -7.40576,6.9933 -12.60851,6.9933 -5.20275,0 -8.66453,-3.6585 -12.58299,-6.9933z" style="stroke:#000;stroke-linejoin:round;fill:none;stroke-width:0.98009479;stroke-linecap:square"/>
<g transform="matrix(-.95963,0,0,.99901,-589.32691,1566.0274)">
<path d="m636.14357,-145.3142c0,0 0.94025,-4.12911 2.92343,-3.47135 1.99846,0.66284 5.9073,0.25958 9.70347,-0.94807 -1.42548,4.02332 -11.15733,6.99637 -12.6269,4.41942z" style="stroke:#000;fill:#c0c0c0;stroke-width:1.00099552" transform="translate(-1622.1024,359.0172)"/>
<path d="m644,-148.65625c-1.43503,0.19162 -2.73369,0.22429 -3.78125,0.0937 -0.23856,0.36674 -0.375,0.81024 -0.375,1.28125 0,1.26398 0.98195,2.29418 2.21875,2.34375 0.0102,4.1e-4 0.021,-2.8e-4 0.0312,0 0.0863,-0.0262 0.16363,-0.0659 0.25,-0.0937 0.0405,-0.0128 0.0844,-0.0182 0.125,-0.0312 0.34936,-0.11551 0.71736,-0.23481 1.0625,-0.375 0.013,-0.005 0.0182,-0.0259 0.0312,-0.0312 0.53582,-0.4297 0.90625,-1.06687 0.90625,-1.8125 0,-0.51839 -0.18582,-0.98691 -0.46875,-1.375z" style="stroke:#000;stroke-width:1.00099552" transform="translate(-1622.1024,359.0172)"/>
<path d="m-979.44774,211.1308c-0.33538,0.0258 -0.65298,0.0463 -0.95593,0.0445 -0.0824,0.22763 -0.13338,0.50175 -0.13338,0.82254 0,0.76552 0.28078,1.37831 0.62246,1.37831 0.34168,0 0.62246,-0.61279 0.62246,-1.37831 0,-0.34506 -0.0589,-0.63301 -0.15561,-0.867z" style="fill:#c0c0c0"/>
</g>
<path d="m400.4499,1742.8061c13.08609,-2.406 26.17217,-1.9392 39.25825,-27.9999 -2.75806,17.7169 -1.73153,35.6757 -40.2798,40.109z" style="stroke:#000;stroke-linejoin:round;fill:#f00;stroke-width:0.98009479"/>
<path d="m340.83289,1742.8061c-13.0861,-2.406 -26.17219,-1.9391 -39.25828,-27.9998 2.75807,17.7169 1.73156,35.6757 40.2798,40.109z" style="stroke:#000;stroke-linejoin:round;fill:#f00;stroke-width:0.98009479"/>
<path d="m355.61718,1738.0921c-4.98622,0.1553 -9.92962,1.2725 -14.7843,4.714l1.31949,15.6407 10.88581,9.7403c0.2377,1.6452 1.02719,3.2651 1.7993,4.9014 0.67702,-2.2993 1.8934,-3.463 3.20877,-4.4331 0.23348,2.7213 -0.65006,4.8209 1.7993,8.7725 0.3211,-2.7253 1.32233,-4.144 2.609,-5.0262 0.31341,2.1017 0.0222,4.5302 2.30911,5.5257 0.86175,-1.9747 1.60867,-2.7442 2.30911,-2.8721 1.52495,0.5317 2.50583,2.2212 3.56862,3.715 1.06282,-1.4938 2.04373,-3.1833 3.56863,-3.715 0.70048,0.1279 1.44736,0.8974 2.30911,2.8721 2.28686,-0.9955 1.99576,-3.424 2.30911,-5.5257 1.28672,0.8822 2.2879,2.3009 2.60899,5.0262 2.4494,-3.9516 1.56586,-6.0512 1.79931,-8.7725 1.31537,0.9701 2.53175,2.1338 3.20876,4.4331 0.77221,-1.6363 1.56165,-3.2562 1.79931,-4.9014l10.8858,-9.7403 1.31949,-15.6407c-9.70939,-6.8829 -19.79123,-4.4621 -29.80851,-3.6526 -5.00864,-0.4048 -10.03798,-1.2168 -15.02421,-1.0614z" style="stroke:#000;stroke-linejoin:round;fill:#f00;stroke-width:0.98009479;stroke-linecap:round"/>
<g transform="matrix(-.95963,0,0,.99901,-589.32499,1566.0236)">
<path d="m672,-172.625c-6.92343,0.22518 -13.37925,1.82473 -20.25,2.6875l-0.3125,3.53125c0.95278,2.82885 2.11607,5.67179 3.03125,8.5 6.45448,0.11117 13.27755,0.8413 19.2481,-0.65752 5.91878,-3.09695 11.14568,-6.85095 15.72065,-11.12373 -6.38131,-2.45963 -12.05261,-3.11264 -17.4375,-2.9375z" style="stroke:#000;stroke-linejoin:round;fill:#f00;stroke-width:1.00099552;stroke-linecap:round" transform="translate(-1622.1024,359.0172)"/>
<path d="m-953.7328,192.94259c-5.97386,1.37441 -8.30548,0.1013 -13.82572,2.27149 4.46261,4.54645 15.31365,4.13588 19.03992,1.49114 2.87137,-2.03797 5.11732,-3.80955 7.52881,-6.06175 -3.36362,-1.29648 -7.51307,1.09585 -12.74301,2.29912z" style="stroke:#000;fill:none;stroke-width:1.00099552;stroke-linecap:round"/>
</g>
<path d="m361.59345,1827.4627c6.81529,13.0016 13.00542,12.2061 18.67852,0 -6.48724,-2.7179 -12.64611,-2.0172 -18.67852,0z" style="fill:#c0c0c0;stroke-width:0.98009479;stroke-linecap:round;stroke:#000"/>
<path d="m370.78652,1825.703 0,3.893" style="fill:#f00;stroke-width:0.81674564;stroke-linecap:round;stroke:#000"/>
<path d="m355.16152,1742.8361c-0.71841,1.8574 -1.12303,3.8615 -1.12303,5.9724 0,9.1701 7.42006,16.6157 16.59015,16.6157 9.17001,0 16.61563,-7.4456 16.61563,-16.6157 0,-2.1099 -0.40527,-4.1157 -1.12303,-5.9724" style="stroke:#000;fill:none;stroke-width:0.98009479;stroke-linecap:round"/>
<path d="m243.07361,1706.9131 0,255.1356c0,17.6134 14.27851,31.8919 31.89191,31.8919l63.78394,0c17.61346,0 31.89197,14.2785 31.89197,31.892 0,-17.6135 14.27851,-31.892 31.89186,-31.892l63.78394,0c17.6134,0 31.89191,-14.2785 31.89191,-31.8919l0,-255.1356 -255.13553,0z" style="stroke:#000;fill:none;stroke-width:3.26698256"/>
<path d="m476.37003,1397.041c-26.87734,26.5379 -39.69482,55.4128 -41.00901,63.3157 10.20002,-14.0447 17.76727,-31.1969 28.84443,-42.7138 -2.19065,7.4929 -12.19754,21.0072 -15.65459,27.672 4.25294,-1.9197 12.51269,-16.3029 15.56135,-20.3443 -2.4077,6.5526 -5.37979,12.9834 -7.58085,19.5583 11.6045,-16.3675 23.33302,-36.2531 33.50136,-47.7601 1.39703,-2.4888 6.06526,-7.538 1.5077,-8.6944 -4.55759,-1.1565 -11.19525,5.0417 -15.17039,8.9666z" style="fill:#f00"/>
<path d="m587.57707,1355.7306c-6.06858,0.6531 -10.68454,5.3706 -15.35734,8.8913 -16.00405,13.6022 -30.38853,29.177 -42.97344,45.924 -3.82076,5.6925 -8.24244,11.1817 -10.93583,17.5023 0.70188,1.0319 1.83564,-1.1731 2.42927,-1.5434 7.42426,-8.3684 14.54999,-17.0026 21.76542,-25.5557 -3.09747,5.3216 -6.42219,10.5631 -9.15297,16.0676 0.68159,0.9935 1.81475,-1.3719 2.4248,-1.732 7.80331,-9.3681 15.09937,-19.0909 22.82244,-28.4714 -6.14677,8.7524 -12.03898,17.91 -16.30744,27.6721 0.77781,0.7898 1.36787,-1.5888 1.97335,-1.9236 6.07835,-8.8595 11.76165,-17.9889 18.06455,-26.6944 -5.6752,9.1477 -10.62768,18.7904 -15.25494,28.4847 0.20938,1.2701 1.37575,-1.1513 1.71725,-1.5125 6.45766,-9.4695 12.10605,-19.6032 19.62631,-28.2512 -6.2239,9.6271 -12.19199,19.581 -16.42732,30.2434 0.92831,0.5513 1.54841,-1.6603 2.23827,-2.1451 11.53748,-16.9399 25.56047,-31.9566 37.23796,-48.789 1.02714,-2.0464 2.61435,-5.5802 0.35975,-7.3544 -1.25745,-0.7639 -2.8048,-0.9071 -4.25009,-0.8127z" style="fill:#f00"/>
<path d="m623.54936,1352.0401c-7.20341,0.6958 -12.7904,6.0856 -18.38242,10.2224 -18.61303,15.5334 -35.27203,33.4124 -50.12595,52.5617 -5.19493,7.1603 -10.72036,14.4355 -13.68162,22.83 0.18857,1.5474 1.57165,-0.6771 1.80895,-1.1446 4.55956,-6.2264 9.19437,-12.4045 13.87228,-18.5469 -1.1735,3.0156 -3.59795,5.5744 -4.43656,8.66 1.09296,0.869 1.59028,-1.6788 2.27937,-2.137 6.44393,-9.1703 13.97806,-18.2576 21.42235,-26.1213 -5.76324,7.6946 -12.12238,15.0302 -17.49317,22.969 0.52529,1.2624 1.77834,-1.4022 2.35816,-1.6654 10.96542,-12.5384 21.84694,-25.1559 33.17444,-37.3712 -8.22329,10.4254 -16.49485,21.0304 -23.50189,32.3618 0.0188,1.2529 1.47777,-0.6979 1.82528,-1.0392 9.11631,-10.3188 17.87794,-21.0205 26.36633,-31.8155 -7.20852,11.8128 -14.78852,23.5725 -21.82318,35.4527 0.13561,1.3171 1.67981,-0.777 2.06509,-1.2124 7.20196,-9.0039 13.43631,-18.809 20.25303,-28.1312 0.63755,-0.8783 3.87333,-5.5719 1.89175,-2.4693 -5.28911,8.7909 -11.13681,17.3358 -15.65646,26.5369 0.95018,0.6656 1.81863,-1.6005 2.54954,-2.1141 12.41962,-15.528 26.10043,-30.2848 37.15342,-46.8895 1.48067,-2.8261 4.39482,-6.6359 2.11817,-9.7644 -0.99336,-1.1174 -2.63694,-1.2298 -4.03691,-1.1725z" style="fill:#f00"/>
<path d="m663.7051,1348.1631c-14.12821,2.2691 -25.05296,12.7829 -35.58548,21.8126 -15.39665,14.1627 -30.53515,28.8623 -42.98065,45.7354 -3.39066,4.9559 -7.14888,9.9609 -9.24621,15.5746 1.25182,0.9817 2.2735,-1.572 3.22035,-2.0984 5.9539,-6.4785 11.76621,-13.0864 17.76347,-19.5249 -1.57903,3.3091 -3.99142,6.4071 -5.196,9.8058 1.13896,0.4047 1.69256,-1.8536 2.46479,-2.4381 3.66561,-5.51 7.56827,-10.8354 12.27053,-15.5081 -2.60681,4.2633 -6.00455,8.0635 -8.30026,12.497 15.98854,-16.222 33.03504,-34.9197 47.61666,-48.8157 -12.04184,13.0932 -36.0504,38.0544 -46.27105,52.0133 -1.13026,1.5436 -2.884,3.46 -2.58467,5.4758 5.89058,-3.9226 11.1426,-10.2168 15.96103,-14.5488 -0.97652,2.027 -2.48904,3.8441 -3.21083,5.9687 19.68331,-17.7029 40.11216,-41.7418 54.58459,-59.8339 1.19319,-3.1689 3.55498,-6.7675 -0.50627,-6.1153z" style="fill:#f00"/>
<path d="m553.03038,1364.2307c-8.25208,1.3449 -14.12809,8.0371 -20.05124,13.3764 -14.1034,13.8226 -26.03529,29.8252 -35.87526,46.9222 -2.03576,4.0641 -4.85232,7.9668 -6.01248,12.3388 1.19277,0.4437 1.86378,-2.0743 2.74456,-2.6913 10.97829,-14.5375 21.06255,-29.8497 33.22773,-43.4065 -7.61922,9.9223 -14.23483,20.6847 -19.78473,31.8421 0.38536,1.3261 1.53584,-1.0468 1.95416,-1.4253 4.17556,-5.9929 8.03737,-12.198 12.14164,-18.2395 -2.91359,6.6568 -6.82823,12.9321 -9.24621,19.7581 0.67127,1.0765 1.54185,-1.212 1.95847,-1.5721 6.0141,-9.4319 11.97589,-19.1237 19.17192,-27.6987 -6.01883,9.4815 -11.96488,19.2114 -16.09427,29.6705 0.89024,0.7739 1.56466,-1.4825 2.09635,-1.997 10.30963,-16.0825 22.06791,-31.2545 33.12985,-46.8454 1.45467,-2.609 4.20467,-5.5806 3.1176,-8.7666 -0.46509,-0.8676 -1.51278,-1.355 -2.47809,-1.2657z" style="fill:#f00"/>
<path d="m522.64043,1372.3312c-7.08015,0.7899 -12.25641,6.3517 -17.47986,10.6851 -15.11242,14.4046 -27.7617,31.3233 -38.30381,49.3086 -2.06616,4.1351 -4.74889,8.1296 -6.10196,12.5237 0.78237,0.9271 1.5682,-1.4639 2.17163,-1.8119 11.34683,-15.2995 21.97791,-31.203 34.67998,-45.405 -7.78767,10.136 -15.55943,20.4754 -21.4102,31.8421 4.32959,-5.1812 11.10884,-14.842 14.78861,-19.6915 -3.22614,5.7741 -6.74228,11.5232 -9.04634,17.7197 7.62996,-8.0255 14.76034,-20.1481 22.12959,-27.5388 -6.3506,9.6387 -11.601,20.0422 -15.08171,31.0428 9.34712,-16.4216 23.58209,-36.9917 33.97383,-50.2946 1.25407,-2.1716 3.74018,-5.3135 1.93186,-7.794 -0.58314,-0.5488 -1.47675,-0.6457 -2.25162,-0.5862z" style="fill:#f00"/>
<path d="m448.05282,1414.1508c-13.6812,13.7683 -25.54943,29.6255 -33.75559,47.2451 -0.23515,1.3522 1.172,0.6554 1.41225,-0.2398 10.03246,-13.0349 20.17351,-25.9634 30.98946,-38.3705 -7.94512,10.9826 -16.42677,21.6871 -23.28873,33.3876 -0.43457,0.4131 -0.93843,2.4481 0.15988,1.6388 3.93241,-3.985 7.46522,-8.379 11.04484,-12.6969 -0.59789,3.1019 -2.20536,6.2342 -2.31821,9.3661 1.49628,-0.5285 2.00025,-2.9465 2.99093,-4.1967 7.80996,-14.5888 17.73635,-27.8705 28.61139,-40.289 1.71938,-2.5413 6.73333,-8.7766 1.6643,-9.7056 -3.56172,-0.3261 -12.07569,8.8214 -17.51052,13.8609z" style="fill:#f00"/>
<path d="m435.33438,1416.7636c-9.86065,5.1163 -22.49547,20.128 -27.61874,28.2449 3.85599,-3.293 8.79578,-7.2775 11.25799,-9.6859 -4.84548,6.4988 -10.83957,12.4831 -14.61541,19.7848 0,0 12.35001,-11.998 13.00332,-12.6969 -3.45024,5.092 -7.25595,10.0616 -10.32538,15.3482 10.88902,-7.56 24.82919,-26.1926 29.61718,-36.2521 0.68253,-1.5196 1.19311,-4.7504 -1.31896,-4.743z" style="fill:#f00"/>
<path d="m516.85822,1334.467c-4.16515,1.4166 -5.45223,6.2683 -8.26341,9.2539 -9.57684,13.0117 -20.09422,25.3049 -31.81004,36.4368 -5.27717,5.4134 -11.1568,10.3599 -16.42967,15.7553 0.006,1.5557 1.96167,-0.057 2.55803,-0.413 2.28944,-1.4769 4.47421,-3.1036 6.63489,-4.7564 -0.8045,0.493 -0.68316,2.0035 0.43964,1.3856 6.77383,-3.9459 11.79341,-10.2801 16.93364,-16.0942 2.08591,-2.4916 4.00886,-5.0358 6.11527,-7.5009 -2.94194,4.735 -6.27241,9.4349 -9.67255,13.7894 0.32197,1.2895 1.94206,-0.7945 2.29157,-1.1725 8.05417,-9.1198 15.70796,-18.6557 23.30207,-28.1116 -5.01548,7.808 -11.12495,14.8972 -16.85519,22.1518 -2.01786,2.9931 -4.62739,5.7061 -6.20706,8.9309 0.96356,0.6258 1.85235,-1.6811 2.66461,-2.0784 3.69951,-4.1195 7.38414,-8.5855 11.0182,-12.5504 -0.82935,2.2808 -2.91551,4.1529 -3.43735,6.4484 1.42231,0.3098 2.51825,-1.8564 3.65137,-2.5338 2.1296,-2.0814 4.18268,-4.2695 6.38088,-6.2461 -0.87033,0.4393 -1.10264,2.3156 0.21317,1.5855 7.38328,-4.3127 10.94517,-12.9593 12.97667,-20.9039 0.61384,-3.9961 1.76171,-8.6796 -0.3597,-12.3772 -0.51208,-0.6549 -1.26725,-1.1999 -2.14504,-0.9992z" style="fill:#f00"/>
<path d="m549.60633,1312.2308c-3.7951,1.3237 -5.19434,5.8046 -7.35434,8.8598 -9.66496,17.4462 -21.78418,33.295 -32.76141,49.9216 -1.03122,0.889 0.22324,1.918 0.94592,0.7461 4.53795,-4.385 8.41144,-9.442 12.39046,-14.3357 -2.66897,4.5665 -5.78413,8.9227 -8.20701,13.6029 0.72861,0.789 1.77753,-1.3778 2.50473,-1.772 8.05779,-8.7537 14.04618,-19.1749 21.03272,-28.7766 2.21273,-3.1459 4.78313,-7.0066 6.8125,-9.7004 -5.11977,12.2391 -15.69637,21.4888 -20.55748,33.8539 0.79627,0.7887 1.62103,-1.6456 2.29562,-2.0853 2.91087,-3.8267 5.57245,-7.8477 8.49607,-11.6641 -1.29189,2.9103 -2.9775,5.6826 -3.98362,8.7 1.28008,0.1889 2.01816,-2.6423 3.0264,-3.5076 2.83225,-4.1184 5.54935,-8.3146 8.3515,-12.4535 -1.9742,4.2468 -4.48128,8.3261 -6.10196,12.6836 1.15917,0.4393 2.01739,-1.9857 2.93107,-2.598 6.47638,-7.7485 12.0594,-16.9156 13.47007,-27.0572 -0.0166,-4.2913 0.75462,-8.8328 -0.5067,-12.9786 -0.50346,-1.0719 -1.61535,-1.6382 -2.78454,-1.4389z" style="fill:#f00"/>
<path d="m582.07467,1289.9413c-4.23832,1.3593 -5.79931,6.2896 -7.96634,9.7698 -7.70193,15.1777 -17.38659,29.1443 -26.80687,43.2827 3.45521,-6.3902 6.34365,-13.3632 5.91544,-20.784 -0.27277,-3.2279 0.88917,-7.5243 -1.78529,-9.939 -2.46697,-1.6388 -4.62871,1.7838 -5.94209,3.4373 -6.41341,9.8434 -12.29419,20.0621 -19.00539,29.7338 -5.73779,8.9112 -12.25441,17.4038 -17.55311,26.5429 0.36801,1.8221 2.08274,-0.4627 2.66461,-0.9993 2.9445,-2.9257 5.5441,-6.1758 8.23366,-9.3394 -1.65292,3.186 -4.21491,6.1562 -5.14271,9.5926 1.43292,0.3667 2.40608,-2.0015 3.464,-2.7446 9.12313,-10.6057 16.43862,-22.9335 24.70097,-34.0005 -5.70598,10.0121 -13.63016,18.8356 -18.37253,29.4174 -0.59705,0.9633 0.5333,1.4626 0.9859,0.453 2.88197,-3.3056 5.2446,-7.0626 7.92725,-10.5386 -0.57871,1.9868 -2.41226,4.029 -2.19833,6.0887 1.86941,-0.7094 2.67809,-3.3989 4.04838,-4.8692 1.4921,-2.1876 3.3737,-5.1965 4.7049,-6.8818 -1.05237,2.8287 -3.11717,5.5012 -3.67717,8.4602 1.32297,0.4206 2.23257,-1.8603 3.1842,-2.5714 0.90823,-0.9553 3.54346,-4.7056 3.1176,-3.7837 -3.84131,6.4855 -8.15449,12.7976 -11.45784,19.5449 0.698,0.92 1.57165,-1.4264 2.11838,-1.8253 4.37641,-6.0351 8.49117,-12.2555 12.88339,-18.2792 -3.05778,5.5081 -6.26662,11.0489 -8.91311,16.7071 1.01059,0.496 1.57123,-1.9616 2.34298,-2.4987 2.9573,-4.4619 5.75672,-9.0275 8.75512,-13.4623 -2.0495,4.91 -4.70912,9.5998 -6.46167,14.6154 0.95401,0.59 1.48634,-1.7857 2.17164,-2.2516 11.2769,-17.6307 22.14746,-35.6101 33.45425,-53.199 -6.27724,14.9312 -17.0497,27.4645 -23.44861,42.3007 -0.3432,1.4663 1.23442,0.235 1.37277,-0.5158 4.57388,-6.2582 8.86357,-12.7301 13.3492,-19.0558 -1.70164,3.8792 -4.3767,7.5908 -5.47576,11.5911 1.52216,-0.5721 2.21342,-3.0067 3.41071,-4.1968 1.87729,-2.7603 3.84374,-5.8208 5.67563,-8.3935 -0.1334,0.8816 -1.79472,2.8548 -0.61286,3.3041 3.90048,-3.8033 6.6956,-8.7786 9.20622,-13.6028 4.13454,-8.715 5.25726,-18.7306 4.1035,-28.2316 -0.3846,-1.3429 -1.33128,-3.0601 -2.97102,-2.8778 z m -48.16292,63.0181c-0.54848,0.1461 -0.62714,1.596 0,0 z m 0,0 -0.0132,0 0.0132,0z" style="fill:#f00"/>
<path d="m607.73234,1275.8839c-12.06899,21.7415 -25.32172,42.8276 -36.11396,65.2576 -2.01248,4.4363 -4.77563,8.7258 -6.1576,13.3501 2.85851,-3.0917 4.87317,-7.3055 7.37088,-10.8379 2.05669,-2.9101 3.80165,-6.5073 6.08542,-9.0135 -1.41429,4.4983 -4.60313,8.5074 -5.60899,13.0833 0.9263,0.011 1.44784,-2.305 2.17441,-2.9923 2.25187,-3.7077 4.42437,-7.8364 6.85863,-11.2235 -1.27062,4.3982 -3.77783,8.6474 -4.67642,13.0167 1.50689,-1.5595 2.25759,-4.337 3.49862,-6.3089 8.53789,-16.5679 16.66381,-33.3864 25.51903,-49.7679 -6.12303,17.2866 -15.31578,32.0309 -22.037,48.0908 4.44159,-4.5179 9.80079,-14.9102 13.85663,-19.8592 -1.23693,4.1278 -3.6185,8.1695 -4.5165,12.2305 7.77155,-9.9444 14.70032,-20.6364 20.30436,-31.9354 4.59742,-9.2694 5.44562,-25.0807 2.57679,-30.3275 -4.36106,-5.1402 -7.31835,3.9658 -9.1343,7.2371z" style="fill:#f00"/>
<path d="m636.33951,1260.2442c-14.08489,27.5976 -29.63959,54.4271 -43.07346,82.3499 -1.0106,1.8222 0.11673,1.2957 0.73274,0 4.95627,-7.3068 9.5212,-15.2895 14.32233,-22.4361 -1.65999,4.575 -4.63861,9.0834 -6.06202,13.4696 3.7175,-4.732 6.51014,-11.0345 9.89906,-15.4547 -0.38724,1.3111 -1.72177,2.7679 -1.55882,4.0369 6.84563,-11.8535 12.44298,-24.6337 19.06533,-36.4653 -6.85142,15.9998 -14.78119,31.54 -21.47679,47.6034 0.25466,0.5312 1.67279,-2.1549 2.14555,-2.6037 3.68476,-5.2886 7.08174,-11.0332 10.77783,-16.1552 -2.33995,5.2761 -5.63858,10.4617 -7.60749,15.6946 2.87612,-3.2426 5.02358,-7.062 7.78067,-10.4054 -1.95642,5.4305 -4.90093,10.7042 -6.40837,16.1742 8.03127,-12.3488 15.38254,-25.1765 22.49633,-38.0841 6.12938,-11.3341 10.48468,-24.2499 8.6119,-37.2425 -0.45835,-3.18 0.0844,-9.3083 -3.14573,-9.7387 -3.23015,-0.4304 -4.79916,5.9263 -6.49906,9.2571z" style="fill:#f00"/>
<path d="m665.11704,1244.9735c-12.73285,32.8676 -33.86468,63.0154 -50.90713,102.5501 4.7124,-5.069 8.74701,-13.0668 12.25531,-18.9703 4.51313,-8.1084 8.75004,-16.5675 13.48486,-24.4363 -2.6496,7.5153 -8.88591,20.5397 -11.19138,28.0984 5.04823,-9.5808 9.89536,-20.4533 14.5621,-28.9777 -1.67052,5.8347 -6.94625,16.9111 -8.23848,22.7818 2.6459,-4.3672 6.60505,-15.0587 9.1178,-19.3578 -0.40719,2.6996 -3.37434,10.3261 -3.55451,12.8486 6.5654,-14.1088 13.50883,-33.6726 19.72872,-47.8216 -5.67363,16.2713 -13.66546,34.4429 -19.06794,50.8057 4.66474,-7.4237 8.41775,-16.5747 12.32646,-23.5334 -2.07835,6.2447 -7.72554,17.3846 -9.38843,23.6353 5.628,-9.8595 10.10396,-21.4679 15.22394,-30.8964 -1.44354,5.5318 -5.71963,15.1861 -6.72084,20.7012 2.79298,-5.0048 6.31147,-15.0431 8.85603,-20.3063 -0.56951,2.8024 -3.93425,12.4988 -4.16708,14.8116 4.04502,-6.9135 7.92452,-16.9727 10.51871,-24.5459 4.36745,-12.7502 8.24883,-26.3005 6.83471,-39.8227 -0.29588,-2.8292 -1.55383,-8.3901 -4.44543,-8.0499 -2.89155,0.3402 -3.81189,6.8318 -5.22742,10.4856z" style="fill:#f00"/>
<path d="m686.71133,1245.643c-14.68816,33.7663 -29.77146,67.3642 -46.21694,100.3079 -0.3337,0.6269 -1.79271,3.6488 -0.0514,2.0124 5.63388,-5.6853 7.71757,-13.7122 11.49612,-20.582 2.69318,-5.3099 8.02748,-18.1128 10.83607,-23.0936 -1.50233,5.5003 -7.5444,17.5137 -8.92919,22.9449 2.74213,-3.6707 4.45605,-8.2907 6.69189,-12.3723 1.78632,-3.5114 3.46652,-7.1069 5.36551,-10.5434 -2.14606,5.7679 -4.23545,11.6685 -6.34178,17.3866 -0.90524,0.9688 0.68372,1.3537 0.67946,-0.027 2.04787,-4.1403 3.92551,-9.2396 6.06201,-12.8434 -0.54375,3.3546 -2.52609,6.7954 -2.42479,10.0589 2.84627,-4.4554 4.44551,-9.7911 6.67279,-14.6373 5.15144,-12.0142 9.55385,-24.3741 14.56418,-36.4167 -2.60075,10.7956 -6.90122,21.0382 -10.41314,31.5926 -0.74712,2.2453 -5.0982,14.4261 -5.0982,14.4261 0,0 5.96043,-13.4194 7.83725,-16.0551 -0.16414,3.6357 -1.88437,7.371 -1.62541,10.885 0,0 3.69243,-10.561 6.32843,-15.1217 -0.0579,2.881 -2.6279,9.2243 -2.41866,12.0336 2.36776,-4.4238 3.55754,-10.6213 5.80272,-15.1113 -0.11183,3.0518 -1.54036,6.1672 -1.23902,9.1397 3.35809,-7.7544 5.65286,-16.1209 8.01972,-24.288 2.43912,-10.2128 5.50066,-20.6592 4.71713,-31.2026 -0.21125,-2.8428 -1.26716,-8.2453 -4.72122,-7.8828 -3.45407,0.3626 -4.15655,6.0857 -5.59356,9.3892z" style="fill:#f00"/>
<path d="m513.12776,1434.6831c-7.01902,0.1039 -13.75742,8.1916 -17.26849,13.6876 -5.34389,0.8807 -14.26907,0.4997 -18.89032,1.9537 -0.474,-5.5385 12.31977,-7.0443 15.45476,-8.7932 -11.73705,-3.4007 -21.47947,5.8359 -25.39377,15.2016 -6.07349,2.1325 -12.10928,4.9043 -18.27925,6.4617 1.21796,-6.8434 9.2419,-8.8584 14.4822,-11.4046 -7.10199,-0.2996 -15.25605,2.3064 -19.18522,8.5801 -2.63494,4.2072 -2.09823,9.4587 -2.47809,14.229 -3.11841,1.1831 -6.85808,4.3328 -9.60596,3.6239 -1.55558,-0.4013 1.84174,-5.6375 2.96373,-8.5506 -3.80899,3.3724 -11.03713,8.935 -10.07283,14.7397 1.2629,5.7612 4.62031,11.1212 9.85365,14.0487 1.64524,1.9647 2.17505,-1.3391 3.00113,-2.24 5.17387,-11.2686 15.89103,-19.3055 27.85455,-22.1159 8.87866,-2.4179 18.13762,-2.5549 27.2729,-2.7832 12.43228,8.7257 27.73769,14.0562 43.04409,12.3155 16.06306,-1.8115 29.9497,-11.4574 41.50411,-22.2012 -3.8136,-11.5583 -19.27458,-15.7531 -30.0169,-12.617 -5.68151,0.9595 -10.93924,3.5223 -16.29409,5.3958 -5.46255,-3.0943 -9.8369,-9.2377 -16.76042,-8.9797 -2.96975,0 -5.88995,0.6148 -8.79323,1.1724 4.50452,-5.1273 10.99782,-8.5169 17.85291,-8.8198 0.66842,-0.8131 -2.05469,-1.1628 -2.5417,-1.6218 -2.44662,-0.9501 -5.08058,-1.3972 -7.70376,-1.2827 z m 1.21242,32.5483c15.21452,11.2768 41.82574,0.9778 52.59799,-6.6419 -4.35961,4.8565 -12.12549,11.6831 -19.41348,15.3901 -20.90328,8.5629 -34.96622,1.867 -47.87698,-9.6353 -21.89464,-2.557 -44.23186,8.1402 -54.04229,15.7932 5.99312,-7.6637 15.02851,-16.5148 24.52647,-19.5239 16.05786,-5.0874 32.52095,-11.847 44.20829,4.6178z" style="fill:#f00"/>
<path d="m539.84902,1444.9369c13.80552,-1.6298 30.90513,-4.8577 41.55949,-0.6745 5.46349,2.1451 9.07768,7.12 12.21724,11.8842 1.06184,-0.9345 2.72357,-1.3035 3.65052,-2.8112 -4.704,-5.9426 -14.53826,-13.5776 -24.69701,-14.2072 -12.07645,-0.7484 -21.85273,1.4337 -32.73024,5.8087z" style="fill:#f00"/>
<path d="m361.64014,1352.1294c8.73093,4.8463 17.95945,8.1674 24.32422,13.4553 4.46305,3.8232 8.98011,7.8076 14.16346,17.3082 5.18334,9.5005 2.84414,22.07 -2.17027,32.2624 -2.51998,5.1221 -6.89048,8.4096 -8.88136,13.7167 -3.09947,8.2624 -0.98409,15.3733 -0.66075,20.1845 0.77682,11.5585 13.56777,33.2639 16.01375,41.0905 -7.18748,-12.3849 -15.57953,-25.5082 -19.21068,-37.6422 -1.95495,-6.5328 -3.23151,-14.7911 -3.35166,-21.5849 8.802,-7.2097 18.67343,-23.0713 6.17009,-39.1641 -6.82856,-9.6803 -20.44605,-39.3416 -33.74542,-37.3442 0.98044,7.9288 17.50999,26.7101 16.81619,42.1771 -4.84728,4.695 -8.65383,12.497 -9.71125,19.0156 -0.47004,9.4039 3.86273,13.8696 9.38152,19.5815 -0.99825,11.7156 3.11541,21.5476 8.67658,26.4066 0.65749,11.2773 3.72918,17.2203 13.55658,21.3005 -0.19887,19.2243 29.60146,34.9175 54.16888,29.3241 -18.66663,-7.2501 -29.53867,-7.9608 -39.67625,-24.6014 -10.31621,-16.9338 -17.22492,-41.8251 -9.78221,-59.42 3.85171,-9.1056 9.74791,-17.8549 11.76482,-26.781 3.51121,-15.5394 -1.63261,-30.5009 -14.37439,-38.1003 -9.27274,-5.5304 -23.44801,-11.0884 -33.47185,-11.1849z" style="fill:#f00"/>
<path d="m340.15164,1341.9732c-4.82345,21.6248 3.7588,45.955 19.98251,53.4983 -11.98061,-11.7272 -20.18385,-36.2699 -17.17436,-52.1086z" style="fill:#f00"/>
<path d="m353.94675,1399.4971c-5.6864,9.0715 -14.0412,25.1316 7.98887,33.3874 -12.00067,-9.0016 -11.7495,-20.7947 -7.98887,-33.3874z" style="fill:#f00"/>
<path d="m359.44852,1437.708c0.19507,8.774 2.84533,16.451 12.4355,21.0273 -18.43567,-2.7353 -14.87408,-12.0493 -12.4355,-21.0273z" style="fill:#f00"/>
<path d="m372.71305,1462.8051c-3.23314,9.4132 -0.51429,15.6979 11.90793,16.8821 -11.65575,-5.1793 -8.9364,-14.1027 -11.90793,-16.8821z" style="fill:#f00"/>
<path d="m89.999764,1361.6843c2.343496,5.7012 7.893406,9.1403 12.518746,12.8451 32.51433,26.0435 73.70879,39.0029 114.67708,43.6271 3.80498,0.4295 13.99235,2.2611 17.67923,1.9228 -21.54754,-4.6869 -45.1553,-8.9454 -63.75088,-15.0018 8.56421,1.1947 24.88161,4.6 33.38761,5.8355 -17.66134,-4.9573 -45.31401,-12.6662 -60.22028,-18.4791 9.10023,1.8123 18.39045,5.0667 27.53879,6.6615 -2.14843,-1.8397 -5.54495,-2.1844 -8.19088,-3.3254 -13.92393,-4.8386 -28.24492,-9.358 -40.70479,-17.4319 -1.81405,-1.3824 2.96128,0.8924 2.27825,0.5596 21.11589,9.4145 43.05304,17.141 65.52285,22.5826 0.72982,-0.7845 -1.82055,-1.1356 -2.25159,-1.5722 -13.48821,-5.4907 -27.44831,-10.0575 -40.80857,-15.7079 10.77357,2.7488 21.42758,6.3207 32.12192,9.1263 -0.45185,-1.4707 -3.04065,-1.5976 -4.30855,-2.3226 -13.8785,-5.0728 -27.94223,-9.9225 -41.29631,-16.2097 16.94166,5.9907 38.32871,13.9387 55.99686,17.4665 -28.14029,-11.2652 -64.05952,-24.1987 -88.46518,-33.7207 -4.341125,-1.6937 -14.05641,-2.5293 -11.724306,3.1443z" style="fill:#f00"/>
<path d="m66.830946,1318.2644c-3.401842,0.043 -2.699407,4.572 -1.398922,6.5016 4.637243,6.9416 17.322135,15.8391 24.034818,20.5975 28.228738,20.0102 63.661018,32.5931 98.537428,41.6746 -15.59731,-6.6337 -34.02012,-12.498 -47.23029,-18.1061 9.49928,2.3593 26.81558,8.6572 36.32704,11.0135 -33.52867,-12.2984 -72.00047,-31.4756 -98.305957,-47.3988 25.365727,11.0841 91.294207,42.2453 107.951857,45.0348 -12.58447,-6.3943 -42.9493,-19.2288 -55.52739,-25.5761 11.13461,3.8902 39.28519,15.2128 50.67362,18.3558 -33.24968,-13.6608 -73.15812,-33.0366 -103.667765,-47.9076 -3.735051,-1.4226 -7.264786,-4.2599 -11.394439,-4.1892z" style="fill:#f00"/>
<path d="m49.577571,1275.8704c-2.860069,0.7665 -2.9878,5.1012 -1.638738,7.261 6.135592,11.7282 16.61739,20.3942 26.712755,28.618 26.197712,20.0047 55.868452,35.1144 86.533342,46.9905 7.66977,2.824 28.85911,10.0324 36.73063,11.9878 -24.32515,-9.1721 -52.03694,-19.4693 -72.11951,-29.5129 12.77679,4.4344 39.99359,16.2929 54.66486,19.6147 -19.24556,-8.0108 -52.36999,-21.3037 -69.07762,-29.8816 8.53314,3.0952 36.68424,15.5444 45.13984,18.5975 -32.43109,-15.1183 -66.924443,-34.1202 -91.104429,-54.0768 29.50397,20.1812 63.022849,39.3242 95.043629,52.8623 -7.20926,-5.6929 -34.60628,-18.6526 -43.58993,-23.6981 9.85671,3.6858 23.47224,10.9633 33.43384,14.0786 -8.53551,-6.0181 -24.07515,-14.0651 -32.73791,-19.6636 3.78177,1.143 26.09439,12.9996 29.93978,13.5914 -2.19249,-2.4159 -22.68106,-11.8476 -25.55962,-13.4621 -17.46831,-9.7976 -34.305519,-20.6644 -50.666649,-32.1859 -6.574115,-3.9336 -12.987751,-8.4522 -20.265378,-10.9743 -0.465255,-0.1253 -0.958485,-0.1715 -1.438892,-0.1465z" style="fill:#f00"/>
<path d="m36.880686,1232.4638c-4.274276,0.3574 -3.977181,5.8549 -2.851137,8.8865 2.388332,6.4301 7.052905,11.7703 11.385959,16.9933 13.858461,16.7051 30.894408,30.6349 48.997663,42.4765 23.686139,15.4934 58.699559,28.4637 85.094359,38.321 -41.92985,-18.9202 -66.5565,-31.8697 -82.086816,-43.8723 6.808526,2.9743 23.998406,12.8291 29.230816,14.1757 -21.61074,-12.2676 -41.677082,-23.2413 -73.135886,-53.2991 38.408569,33.1325 70.120446,53.1929 112.372326,67.0618 -21.12706,-10.2943 -50.40651,-20.539 -66.88181,-36.1321 16.37342,9.8004 42.92348,23.7051 60.82084,30.0714 -18.98273,-10.6116 -51.62472,-24.4715 -55.73143,-32.6428 13.74231,8.2515 28.09906,15.866 43.27333,20.9839 -6.90135,-5.7519 -18.12844,-10.2674 -25.27386,-14.6155 4.82036,0.9138 9.82939,2.8968 14.48218,3.4507 -11.43523,-6.3366 -23.37185,-11.7633 -34.86751,-18.0174 -18.540234,-10.0868 -37.483643,-20.1861 -52.484269,-35.2055 -3.537221,-3.5417 -6.932289,-9.0887 -12.344755,-8.6361z" style="fill:#f00"/>
<path d="m160.7053,1436.4134c2.33373,5.2834 8.03299,7.8996 12.76427,10.6236 23.86922,13.7424 51.35812,19.2646 78.3522,23.137 2.27389,0.2947 -0.13175,-0.7477 -1.01255,-0.8926 -13.8233,-4.0563 -28.0664,-7.1816 -41.74118,-11.4179 4.61129,0.43 26.91232,4.5251 26.91232,4.5251 -10.20488,-3.0463 -32.3166,-7.7873 -41.3945,-11.2533 5.94678,0.7613 57.34249,12.617 57.34249,12.617 0,0 -57.54035,-14.7988 -64.36375,-19.4117 20.70401,6.97 50.66942,13.5063 72.19772,16.9469 0,0 -38.99533,-9.6822 -48.62921,-12.8301 -1.24702,-0.5197 -2.99806,-1.2519 -3.38406,-2.558 15.19948,3.5696 33.7396,8.002 49.33533,9.0597 0,0 -27.36555,-6.7493 -38.83675,-9.7792 8.6962,0.8989 35.35468,5.4297 43.97946,6.102 -32.05834,-5.8481 -66.84285,-12.7596 -94.98921,-18.566 -3.23353,-0.6671 -7.78453,0.8631 -6.53258,3.6975z" style="fill:#f00"/>
<path d="m128.80987,1403.8518c9.19442,17.2611 39.00037,26.0551 54.91741,30.2303 20.20271,5.2429 44.96428,9.4766 65.66969,11.8306 -14.27866,-4.5577 -34.93333,-8.9401 -50.4145,-13.1898 8.53481,0.8132 29.19227,4.6538 37.73094,5.1027 -27.68559,-5.9934 -61.03692,-13.8752 -84.40165,-21.9298 23.86325,6.1763 53.55651,14.1596 79.29891,17.7064 -16.40771,-4.8104 -38.24043,-8.8602 -52.786,-13.7894 17.94429,2.9527 37.42656,7.4777 55.99686,8.0471 -16.03957,-3.6022 -34.57056,-5.2705 -48.76243,-9.5259 10.33628,0.536 36.88801,3.9527 47.2436,5.3025 -31.38202,-5.5735 -64.75211,-12.0403 -90.19134,-21.9628 -4.12475,-1.6089 -17.29904,-3.4494 -14.30149,2.1781z" style="fill:#f00"/>
<path d="m209.61428,1471.3331c2.34761,3.9084 7.07498,5.7608 10.95157,7.9939 13.03997,7.5114 32.70363,14.2117 48.35254,15.7729 -13.39972,-4.1983 -26.40282,-8.2135 -34.16193,-13.4563 6.98441,0.7623 33.19047,6.8896 40.89504,7.7559 0.21483,-0.9673 -15.49264,-3.4003 -16.16451,-3.8393 -13.84644,-3.6485 -27.82766,-7.5212 -40.69311,-13.8807 18.92068,6.1413 37.44725,13.1642 58.43471,13.7878 -12.42165,-3.8862 -30.9132,-6.8766 -42.9533,-12.1624 15.95099,4.0082 33.2479,6.7086 47.49674,7.874 -20.00336,-6.4193 -48.19379,-12.544 -68.90692,-15.8145 -4.0812,-0.6444 -5.08449,2.9159 -3.25083,5.9687z" style="fill:#f00"/>
<path d="m187.30442,1302.4316c-1.82251,0.2917 0.73006,3.4157 1.34563,4.5165 7.03289,12.5762 17.72631,22.9202 28.991,31.7755 19.10551,15.0192 39.19047,24.3681 60.16698,30.5765 18.45369,5.4617 41.78106,6.7631 58.82135,5.8221 1.73126,-0.7971 -4.16264,-1.1769 -3.42403,-1.1857 -12.48459,-2.0794 -38.01032,-4.0549 -42.11685,-8.3133 3.2794,0.7158 29.14602,3.9472 40.49144,2.6776 -32.79178,-4.8647 -89.61254,-13.5481 -116.93658,-41.5146 32.28622,20.0113 68.34204,35.2856 102.29453,34.7998 -21.26023,-7.4222 -39.42336,-6.167 -54.9177,-16.2008 9.07301,4.6658 26.33491,9.0247 48.57592,8.8198 -12.80897,-3.0961 -33.56597,-5.4058 -45.31177,-11.6843 12.97419,5.0895 28.68503,6.1915 41.06171,5.2226 -26.57273,-6.6297 -54.76857,-13.6676 -77.83409,-23.1183 -11.64825,-4.7727 -22.85751,-11.7484 -32.57419,-19.1025 -2.41218,-1.8256 -5.57577,-3.5804 -8.63335,-3.0909 z m 13.34971,38.024c-7.44308,0.166 -3.85739,6.1144 -0.95926,9.7392 15.16603,18.9684 36.09855,32.851 58.43499,42.0742 26.47757,10.9668 59.70329,15.5464 88.33821,14.1491 -15.85367,-4.0273 -40.17351,-1.7678 -51.40013,-8.6333 11.71875,2.3679 27.6238,3.8079 39.45665,2.3981 -26.75073,-0.7092 -86.67767,-17.7776 -115.51127,-41.1549 33.46203,17.1501 65.67203,34.473 100.75271,33.8181 -15.69275,-5.5662 -38.50916,-8.2201 -50.49913,-16.7988 14.55692,5.9639 30.20332,10.415 43.96717,10.0398 -10.30644,-4.3364 -32.48437,-7.0558 -42.12335,-13.8155 11.17985,4.0502 29.15837,7.5774 39.85843,7.4604 -16.70484,-5.758 -32.88283,-8.7911 -45.64484,-13.2298 -15.27319,-5.3121 -30.58072,-10.4129 -44.73886,-18.1993 -6.33191,-2.8818 -12.76913,-8.007 -19.93132,-7.8473z" style="fill:#f00"/>
<path d="m218.39911,1382.7528c-5.5472,0.5866 -2.14083,7.5008 0.50551,9.9043 20.59222,18.7027 45.65945,32.5408 72.7073,39.1485 18.7185,4.5728 37.9538,6.7409 57.17341,7.5303 -20.76776,-4.5867 -47.70201,-8.5529 -66.20735,-14.1985 11.45414,1.4561 26.8083,4.3549 38.2412,6.006 -15.35266,-4.3417 -35.99721,-7.5559 -50.00711,-12.778 14.55524,3.1889 29.37508,5.5077 44.03741,8.3251 -12.50529,-5.6696 -55.23108,-12.6302 -65.6008,-22.7407 16.77342,8.9862 62.26473,19.8951 62.5185,18.0661 -12.09909,-4.5548 -30.37499,-8.8829 -42.4524,-13.1824 9.3359,1.809 46.58471,10.4394 40.39718,8.0783 -14.61549,-4.4574 -39.60858,-10.9786 -54.69697,-18.2408 17.02287,5.2084 32.73564,10.8829 51.49624,13.1394 -26.04084,-11.0144 -56.3509,-19.1334 -79.97838,-28.125 -2.58525,-0.9838 -5.38788,-1.223 -8.13374,-0.9326z" style="fill:#f00"/>
<path d="m249.6108,1425.7418c-1.41037,-0.1222 -3.17372,0.6107 -2.7132,2.3552 0.24579,2.0965 0.82837,4.5712 2.54363,5.9351 1.97176,1.7183 4.08354,3.465 6.49095,4.5032 1.65284,1.2597 3.63383,2.26 5.52061,3.09 0.54598,0.6587 1.56301,0.3745 1.96896,1.1022 0.95408,0.083 1.64067,0.7305 2.57188,0.9233 0.77817,0.8116 2.0383,0.6128 2.86394,1.3943 1.11253,0.1415 1.97336,0.6379 2.88277,1.1305 1.43858,0.2099 2.5032,1.0989 3.93791,1.4037 3.01108,1.1045 5.99456,2.2879 9.11937,3.0052 1.06012,0.013 1.6593,1.044 2.86393,0.895 1.74215,0.7807 3.68991,1.1757 5.55829,1.7617 3.52888,0.8517 6.932,2.064 10.54191,2.619 3.18365,0.9751 6.49551,1.5897 9.7694,2.2045 1.90676,0.6865 4.06006,0.6183 5.98223,1.3471 5.15523,0.7603 10.31153,1.5136 15.45802,2.3012 4.88712,0.3456 9.83011,1.1106 14.71691,0.77 0.36389,-0.9142 -1.54247,-0.6562 -2.05374,-0.8007 -2.3166,-0.931 -4.94287,-0.7825 -7.32355,-1.6136 -4.74832,-0.7281 -9.36889,-1.9635 -14.09,-2.786 -3.4356,-0.7332 -6.82039,-1.7014 -10.29411,-2.3355 -6.28134,-1.4818 -12.55146,-3.0315 -18.80684,-4.5982 -1.15561,-0.033 -1.94779,-0.9239 -3.16514,-0.886 -3.40842,-0.9946 -6.81564,-2.0465 -10.19361,-3.0707 -2.65979,-1.0013 -5.56042,-1.8596 -8.14902,-3.2314 -0.38449,-0.106 -2.38751,-1.2426 -0.87613,-0.9138 2.09079,0.9788 4.48224,1.3684 6.67925,2.1572 5.11019,1.2033 10.16139,2.7194 15.29955,3.7308 2.56991,0.2448 4.87486,1.2265 7.4613,1.4037 3.27648,0.9051 6.7524,0.864 10.03318,1.7711 3.94882,0.3211 7.94647,1.313 11.89852,0.8762 -0.90703,-1.0116 -3.01581,-0.2934 -4.2488,-1.0363 -5.14169,-1.1332 -10.48419,-1.5784 -15.52553,-3.0712 -2.41559,-0.2632 -4.79763,-0.8271 -7.13157,-1.4979 -2.32879,-0.5368 -4.68003,-1.0881 -6.98084,-1.7335 -3.72285,-1.0478 -7.37619,-2.3142 -11.04121,-3.5799 -0.67955,-0.2357 -1.2109,-0.8661 -2.08201,-0.895 -1.96123,-0.7498 -4.11826,-1.8885 -5.9257,-2.5813 2.28017,-0.069 4.37756,1.2543 6.55689,1.5827 1.03722,0.7202 2.59797,0.5539 3.72123,1.2247 4.55562,0.9855 9.07423,2.0986 13.66964,2.9393 4.07367,0.7418 8.0871,1.744 12.23013,2.1043 7.88993,1.1795 15.79148,2.547 23.78571,2.7286 1.38081,-0.044 -0.42566,-0.5883 -0.8573,-0.5935 -3.93968,-0.7325 -7.78457,-1.8597 -11.77604,-2.374 -2.74325,-0.7551 -5.57527,-1.0507 -8.28091,-1.9125 -6.9611,-1.2616 -13.88416,-2.7587 -20.71641,-4.5691 -1.6417,-0.5558 -4.5386,-1.1932 -1.20771,-0.7392 2.21856,0.5463 4.48679,0.9314 6.67179,1.5588 4.24271,0.5549 8.41979,1.5092 12.71152,1.7841 4.30559,0.2437 8.52081,1.2432 12.81894,1.4096 0.45728,0.038 2.31327,0.055 1.13992,-0.6218 -3.53678,-1.4442 -7.07511,-2.9116 -10.61728,-4.3147 -1.52333,-0.3898 -3.03675,-0.9232 -4.67882,-0.9962 -4.64705,-1.2323 -9.49392,-1.5774 -14.13458,-2.8192 -2.70113,-0.7295 -5.49022,-1.0831 -8.23381,-1.6581 -3.79562,-0.9091 -7.60825,-1.8362 -11.47814,-2.4991 -5.839,-1.383 -11.73629,-2.4479 -17.65108,-3.4455 -2.31666,-0.6802 -4.82595,-0.8192 -7.2352,-0.8384 z m 34.93245,11.0412c0.95741,0.3156 -1.29308,0.2479 -0.0754,0l0.0754,0 z m 1.50734,0.3015c0.95741,0.3156 -1.29309,0.2479 -0.0754,0l0.0754,0 z m 1.63922,0.6123c1.21127,0.2518 -1.41853,0.2518 -0.20726,0l0.10363,-0.01 0.10363,0.01z" style="fill:#f00"/>
<path d="m274.41884,1453.9352c-1.63959,0.06 -3.7833,1.1433 -3.31745,3.1043 0.60277,2.4306 1.50897,5.0389 3.77129,6.4071 4.34049,3.5964 9.59029,5.8026 14.68116,8.1017 1.79345,0.3868 3.38108,1.5659 5.18934,1.8719 0.72416,0.4894 1.7474,0.4211 2.53805,0.886 11.71136,3.869 23.81108,6.445 35.96787,8.448 10.95315,1.6856 22.0309,2.76 33.1189,2.7234 0.44267,0.1424 1.29517,-0.3061 0.49962,-0.5596 -5.46951,-1.082 -11.04389,-1.6778 -16.54745,-2.6116 -10.99718,-1.6719 -21.98892,-3.468 -32.8746,-5.7411 -4.15779,-0.8607 -8.29533,-1.9451 -12.37035,-3.0652 -0.65747,-0.1458 -1.19712,-0.5248 -1.9052,-0.5862 -1.80442,-0.8677 -3.94691,-1.3214 -5.50243,-2.558 1.83119,0.3476 3.68867,1.0429 5.55987,1.4136 6.33022,1.4995 12.69891,2.8751 19.10114,4.0821 7.10425,1.3457 14.22619,2.6259 21.36354,3.7771 0.46283,0.2521 1.36209,-0.2107 0.59288,-0.5396 -5.44185,-1.1198 -10.87199,-2.2849 -16.30144,-3.5075 -2.74925,-0.587 -5.46675,-1.3608 -8.19969,-1.9416 -2.30576,-0.8269 -4.69842,-1.217 -6.99461,-2.0784 -0.72882,-0.1682 -1.42141,-0.2965 -2.0784,-0.6128 -0.69974,-0.093 -1.24861,-0.5304 -1.98514,-0.5663 -2.82368,-1.1923 -6.06549,-2.1723 -8.69996,-3.4307 0.87873,-0.221 1.54243,0.452 2.38483,0.4996 0.94078,0.5624 2.24179,0.4006 3.21752,1.0326 1.21068,-0.018 2.13321,0.6992 3.31744,0.8593 13.61349,3.501 27.62127,5.0792 41.58759,6.401 0.3335,-0.014 0.98146,0.1639 0.55328,-0.2191 0.34675,-0.4916 -1.11257,-0.4645 -1.40169,-0.647 -1.70911,-0.5016 -3.53261,-0.7312 -5.21988,-1.1649 -5.70127,-1.2269 -11.4642,-2.34 -17.18171,-3.5592 -4.74137,-1.0265 -9.50385,-2.0464 -14.13416,-3.4621 -1.21105,0 -2.2337,-0.8593 -3.43735,-0.9592 -0.10143,-0.5036 -1.07765,-0.2601 -1.16577,-0.4397 1.34812,-0.1451 2.62326,0.6502 3.99299,0.6869 11.18289,2.35 22.67118,2.2211 34.0044,3.2234 0.32101,-0.2276 -0.53573,-0.8199 -0.84601,-0.8327 -3.54634,-0.8426 -6.85834,-2.5591 -10.51526,-2.9018 -12.3137,-2.1755 -24.5462,-4.7866 -36.81495,-7.1837 -1.21014,-0.1132 -2.25103,-0.709 -3.49064,-0.6462 -2.50725,-0.829 -5.24418,-0.9448 -7.82998,-1.5551 -4.20954,-0.7063 -8.39899,-1.6342 -12.62759,-2.1487 z m 33.16778,10.8583c0.85649,0.178 -1.00305,0.178 -0.14656,0l0.0733,-0.01 0.0733,0.01 z m -8.19369,1.6987c0.67699,0.2231 -0.91435,0.1753 -0.0533,0l0.0533,0z" style="fill:#f00"/>
<path d="m295.73575,1479.5022c-3.78692,0.6089 -0.73968,7.1152 0.55055,8.1707 3.76494,3.08 11.12249,7.7933 15.62653,9.5995 8.03731,3.2231 30.51118,11.5714 48.94608,9.9551 -6.70578,-2.9492 -32.3212,-7.6531 -40.44146,-11.4712 3.40323,-0.8909 22.2437,7.7583 39.55508,6.9634 -12.71663,-1.4724 -33.76298,-7.9609 -40.93878,-11.5183 13.14208,4.5529 32.2044,9.2284 44.60968,8.7067 -15.27647,-4.2385 -30.57922,-6.6193 -44.98083,-12.6292 6.07305,1.5991 32.04464,7.5505 49.53066,6.9186 0.65157,-0.1406 -0.53493,-0.8531 -0.85267,-0.6728 -4.11693,-1.7947 -8.58459,-2.3798 -12.59934,-3.2888 -16.35867,-2.9231 -32.58307,-6.5365 -48.92941,-9.5284 -3.33413,-0.6102 -6.7123,-1.7463 -10.07609,-1.2053z" style="fill:#f00"/>
<path d="m87.299492,1514.2805 119.380798,-0.3015 -56.67573,3.0147 55.77133,0.9044 -54.86693,3.0147 52.15373,-0.603 -112.145599,7.2352c-4.488992,-4.0567 -4.13812,-8.6512 -3.617599,-13.2645z" style="fill:#f00"/>
<path d="m97.387021,1536.0516 108.289909,-10.8716 -49.0289,7.4609 51.8001,-5.1161 -54.14496,8.5268 56.48982,-7.4609 -108.92942,18.5457c-2.420691,-3.4628 -6.308115,-6.5589 -4.476549,-11.0848z" style="fill:#f00"/>
<path d="m107.34702,1554.8278 104.4582,-23.0622 -55.01767,14.7718 49.13907,-10.4006 -60.5948,15.827 37.0804,-7.3859 -33.4628,9.6469 28.18713,-6.3308 -65.41826,16.5807c-4.37445,-2.7294 -4.76894,-6.1222 -4.37127,-9.6469z" style="fill:#f00"/>
<path d="m115.63736,1570.8055 82.30039,-23.0622 -39.79359,13.7167 45.37073,-11.6064 -51.5508,15.0733 40.54727,-9.9484 -40.54727,13.4153 48.08393,-13.7168 -79.13499,26.8306c-4.00064,-1.9659 -6.85592,-4.7499 -5.27567,-10.7021z" style="fill:#f00"/>
<path d="m125.43502,1586.934 80.0394,-28.3379 -39.3414,15.5255 46.1244,-14.6211 -49.89273,19.1431 40.09506,-13.8674 -41.45166,17.6358 50.34493,-18.691 -79.88867,32.8599c-3.28666,-1.4067 -7.36124,-1.6972 -6.02933,-9.6469z" style="fill:#f00"/>
<path d="m134.62976,1600.8014c0.60293,-0.3014 81.54673,-35.7238 81.54673,-35.7238l-45.22,22.9115 49.13906,-22.1578 -50.19419,26.3783 52.90739,-25.6246 -81.54672,42.2053c-2.71953,-1.2215 -6.17428,-0.3598 -6.63227,-7.9889z" style="fill:#f00"/>
<path d="m145.03036,1614.9704 73.55786,-39.4922 -33.915,24.2681 37.0804,-23.0622 -41.75313,29.0915 42.80826,-27.2827c-23.24591,16.2219 -46.29354,32.9395 -70.69393,46.2751 -4.55067,-1.2757 -6.95521,-4.5024 -7.08446,-9.7976z" style="fill:#f00"/>
<path d="m298.77121,1585.5456c-3.78489,0.3161 -7.73997,0.5863 -11.33326,1.7334 -1.91946,0.4749 -3.95516,1.1244 -5.74671,2.0067 -0.91767,0.7792 -2.54181,1.1977 -2.67551,2.7414 -0.13511,0.8795 -0.24777,2.4311 1.1305,1.9878 12.30676,0.1415 24.63159,0.2287 36.92966,-0.1413 1.12149,-0.5738 -1.17117,-0.7208 -1.5827,-0.7725 -5.37046,-0.4042 -10.67395,-1.3332 -16.06252,-1.545 -2.76481,-0.07 -1.9739,-0.4484 0.21825,-0.7188 2.94129,-0.2365 5.68346,-1.3041 8.62463,-1.4171 1.04438,-0.242 2.60819,-0.2484 3.36652,-0.8317 -4.55923,-0.3872 -9.20799,0.5777 -13.72615,0.1884 2.00919,-0.6447 4.26842,-0.6061 6.32138,-1.2341 1.48717,-0.3569 3.61492,0.014 4.71041,-1.0457 -3.28805,-0.8423 -6.78711,-0.9712 -10.1745,-0.9515z" style="fill:#f00"/>
<path d="m284.80954,1605.2728c-1.13346,1.1081 0.1023,2.6022 1.63922,2.5719 11.98505,-0.2359 23.99001,-0.01 35.96874,-0.4145 -6.95176,-1.5828 -13.33088,-1.5559 -18.68151,-2.3458 3.17659,-1.5345 6.75606,-1.1051 14.21428,-2.8877 -9.75519,0.2424 -11.72275,0.6785 -15.6274,0.5042 4.14678,-1.315 8.64618,-1.0988 12.78407,-2.3269 -8.55392,-2.0892 -24.25591,-1.0074 -30.2974,4.8988z" style="fill:#f00"/>
<path d="m299.87991,1614.8527c-1.25888,3.0939 7.80775,2.1005 30.22499,3.5716 -3.3268,-1.9399 -8.0644,-2.0965 -15.53218,-3.4262 3.98257,-0.8513 9.88609,-1.2396 13.67628,-2.4807 -6.16278,-0.3651 -26.33011,-2.6757 -28.36909,2.3353z" style="fill:#f00"/>
<path d="m310.93579,1623.7021c-1.7428,1.3061 -0.80068,3.5429 1.86616,3.6383 5.64941,0.202 14.75603,0.4879 21.62395,1.046 -5.69445,-2.6169 -13.20461,-2.0624 -16.31485,-3.0938 4.25059,-1.8404 9.19379,-1.3342 12.92021,-2.672 -2.38014,-1.9567 -16.97874,-1.2542 -20.09547,1.0815z" style="fill:#f00"/>
<path d="m555.7033,1544.3518c5.09986,-1.7208 10.77788,-2.5744 16.42993,-3.4669l-6.86371,-2.009 4.15053,-3.1913c-5.72137,-4.1117 -9.7107,-1.988 -14.09359,-1.2812 3.34757,-6.1065 11.17578,-9.0392 21.32877,-10.3252 -15.94258,-5.2054 -31.37048,-8.9525 -48.91298,-18.691 8.4979,10.394 24.5466,13.2373 38.28628,18.3895 -11.90886,4.2972 -16.21607,10.1594 -18.54021,16.4299l11.90797,-3.4668c3.07428,0.6922 -1.14967,4.5122 -3.69299,7.612z" style="fill:#f00"/>
<path d="m588.19561,1502.1844c-2.88776,0 -6.26364,0.2118 -10.21882,0.7194l12.15064,4.37c0,0 -7.5458,-1.5416 -12.31052,-1.3856 -3.93318,0.1287 -5.9226,1.6789 -8.9531,1.5987 -5.38555,-0.1424 -6.91359,1.1016 -7.62079,1.9186 -1.49654,1.7288 8.73993,5.3292 14.28233,9.5926 -4.64151,-1.5439 -10.23144,-4.247 -14.22904,-3.7305 6.96074,3.7099 11.6589,8.1416 24.1414,6.928 0,0 1.54548,0.7994 1.17243,1.8652 -6.4716,2.4065 -17.34613,5.3571 -17.47987,6.555 7.22669,-1.4648 13.81328,-3.3563 21.79654,-4.3167 1.52071,-0.8471 3.05404,-1.9644 4.47656,-3.7837 0,0 0.68781,0.9033 0.79938,2.0251 1.42636,-0.4567 2.07601,-1.69 2.66461,-2.9844 0.80962,0.2917 1.06802,1.1347 1.17243,2.1317 3.64166,-7.3188 6.07707,-5.8544 6.928,-13.6428 -1.79488,-1.4608 -3.17835,-7.8502 -18.77218,-7.8606 z m -3.61058,5.982c3.44592,-0.062 5.4203,0.4306 8.84652,0.7594 5.49456,0.5274 10.38223,2.3793 9.91237,4.9029 -0.37804,2.0305 -4.15386,-0.044 -6.44837,-0.1066 -2.92583,-0.079 -4.26308,2.335 -5.75557,3.091 -4.83804,2.4505 -14.29827,1.7138 -18.97205,-2.6646 -2.5388,-2.3784 -10.12157,-2.7399 -8.68664,-4.5832 3.23156,-1.1739 8.50379,0.1274 12.68356,-0.5329 3.75135,-0.5925 6.35266,-0.8288 8.42018,-0.866z" style="fill:#f00"/>
<path d="m579.20251,1510.5779c-0.53774,2.3335 -0.35893,3.7117 0,4.8496 -3.24997,-0.8885 -5.50773,-2.0604 -6.76812,-3.5173 0.71983,-1.095 1.98474,-0.1987 6.76812,-1.3323z" style="fill:#fff"/>
<path d="m584.41185,1510.6312c-1.81065,0 -3.27751,1.4697 -3.27751,3.2908 4e-5,1.821 1.46686,3.3041 3.27751,3.3041 1.81062,0 3.29078,-1.4831 3.29078,-3.3041 0,-1.8211 -1.48016,-3.2908 -3.29078,-3.2908 z m 0.47964,1.3589c0.63473,0 1.14578,0.9067 1.14574,2.0251 0,1.1185 -0.51101,2.0252 -1.14574,2.0252 -0.63478,0 -1.14583,-0.9067 -1.14583,-2.0252 0,-1.1184 0.51105,-2.0251 1.14583,-2.0251z" style="fill:#fff"/>
<path d="m612.56348,1541.1144c-1.70343,-3.069 -12.78094,-11.0021 -14.65538,-5.0628 -1.75532,5.5618 7.39224,3.4875 14.65538,5.0628z" style="fill:#f00"/>
<path d="m626.68593,1517.1861c7.82966,-0.4405 13.43298,2.8674 17.47987,6.1819 -1.7618,-12.1631 -13.48572,-10.4765 -23.02226,-11.8308 -4.10534,3.883 -3.40956,8.6744 -23.87494,16.3074l-8.73994,5.2226c-4.86021,1.0162 -9.51651,2.3892 -12.79015,6.1819 4.87373,1.618 9.96054,3.875 15.02843,6.0754 6.42347,7.3327 11.93043,7.3336 17.58645,8.5267 -3.52872,-2.0847 -7.73996,-3.4869 -9.59261,-7.2477 5.06473,1.2159 9.68291,4.6646 14.4955,7.1411 -1.59877,-3.9436 -20.27788,-10.2055 -18.97205,-19.0786 1.12041,-7.6133 25.04737,-4.2634 38.79678,-12.1506z" style="fill:#fff"/>
<path d="m614.00237,1508.4329c-4.86234,0.2269 -5.03454,9.4757 -14.77526,16.8537 6.07204,-1.6044 15.63779,-5.5211 20.19777,-14.5089 -1.0985,-1.577 -2.48593,-2.1587 -4.92958,-2.3315 -0.16708,-0.012 -0.33608,-0.021 -0.49293,-0.013 z m 0.41304,2.2383c0.84602,-0.061 1.7152,0.1439 2.0784,1.0125 -2.98979,3.9893 -6.22331,6.6944 -8.89981,7.5275 4.43217,-3.9551 3.70893,-7.855 6.00868,-8.4068 0.25985,-0.062 0.5307,-0.113 0.81273,-0.1332z" style="fill:#fff"/>
<path d="m494.20308,1539.9022 5.26399,0.3945 5.17554,0.3878 -5.57668,-1.7441 2.52789,-3.3471 -3.66408,2.1362 -3.72666,2.1727z" style="fill:#f00"/>
<path d="m476.86876,1560.4597 2.90784,0.2893 2.85898,0.2845 -3.08059,-1.2794 1.39643,-2.4552 -2.02409,1.567 -2.05857,1.5938z" style="fill:#f00"/>
<path d="m481.3234,1565.7697 2.388,0.09 2.34785,0.088 -2.57794,-0.8671 1.01856,-2.0151 -1.5748,1.3405 -1.60167,1.3634z" style="fill:#f00"/>
<path d="m467.59863,1558.0308 3.55387,0.4121 3.49419,0.4049 -3.765,-1.8215 1.70663,-3.4957 -2.47374,2.231 -2.51595,2.2692z" style="fill:#f00"/>
<path d="m469.93501,1564.228 2.90784,0.2894 2.85898,0.2844 -3.08059,-1.2794 1.39643,-2.4552 -2.02409,1.567 -2.05857,1.5938z" style="fill:#f00"/>
<path d="m474.38965,1569.5381 2.388,0.09 2.34785,0.088 -2.57794,-0.8671 1.01856,-2.0151 -1.57481,1.3405 -1.60166,1.3635z" style="fill:#f00"/>
<path d="m458.95228,1563.2822 4.07319,0.1027 4.00473,0.1008 -4.44727,-1.3639 1.60363,-3.2977 -2.59499,2.2101 -2.63929,2.248z" style="fill:#f00"/>
<path d="m462.19544,1568.7199 3.3282,0.041 3.27224,0.04 -3.61868,-0.9247 1.35077,-2.3312 -2.14798,1.5741 -2.18455,1.6011z" style="fill:#f00"/>
<path d="m467.75834,1573.1925 2.71914,-0.1004 2.67336,-0.099 -3.00884,-0.5893 0.96386,-1.9037 -1.65956,1.3347 -1.68796,1.3575z" style="fill:#f00"/>
<path d="m497.89602,1546.6565 3.96128,0.3574 3.89472,0.3513 -4.19661,-1.58 1.90223,-3.0321 -2.75721,1.9352 -2.80441,1.9682z" style="fill:#f00"/>
<path d="m502.0266,1553.4587 2.77478,0.2961 2.72813,0.2911 -2.9396,-1.3092 1.33252,-2.5123 -1.93144,1.6034 -1.96439,1.6309z" style="fill:#f00"/>
<path d="m504.75303,1558.6058 2.27878,0.092 2.24036,0.09 -2.45997,-0.8872 0.97201,-2.062 -1.50276,1.3717 -1.52842,1.3952z" style="fill:#f00"/>
<path d="m487.6448,1561.8465 2.27878,0.092 2.24036,0.09 -2.45997,-0.8872 0.97201,-2.0621 -1.50276,1.3717 -1.52842,1.3952z" style="fill:#f00"/>
<path d="m483.87785,1556.013 2.90784,0.2894 2.85898,0.2844 -3.08059,-1.2793 1.39642,-2.4552 -2.02408,1.5669 -2.05857,1.5938z" style="fill:#f00"/>
<path d="m490.58547,1551.7171 2.90784,0.2894 2.85898,0.2844 -3.08059,-1.2793 1.39643,-2.4552 -2.02409,1.5669 -2.05857,1.5938z" style="fill:#f00"/>
<path d="m494.88002,1558.2289 2.27877,0.092 2.24037,0.09 -2.45997,-0.8872 0.97201,-2.0621 -1.50276,1.3717 -1.52842,1.3952z" style="fill:#f00"/>
<path d="m505.35732,1541.7577 3.96128,0.3574 3.89473,0.3512 -4.19662,-1.5799 1.90224,-3.0321 -2.75722,1.9351 -2.80441,1.9683z" style="fill:#f00"/>
<path d="m514.25061,1542.8882 3.96128,0.3574 3.89473,0.3512 -4.19662,-1.5799 1.90223,-3.0321 -2.75721,1.9351 -2.80441,1.9683z" style="fill:#f00"/>
<path d="m523.82216,1543.984 3.69524,0.3749 3.63321,0.3684 -3.9148,-1.6574 1.7745,-3.1807 -2.57206,2.03 -2.61609,2.0648z" style="fill:#f00"/>
<path d="m532.48932,1544.9637 3.69524,0.3749 3.63321,0.3685 -3.91481,-1.6574 1.77451,-3.1807 -2.57206,2.03 -2.61609,2.0647z" style="fill:#f00"/>
<path d="m507.52836,1548.4845 2.77478,0.2961 2.72814,0.2911 -2.9396,-1.3092 1.33252,-2.5123 -1.93144,1.6034 -1.9644,1.6309z" style="fill:#f00"/>
<path d="m510.17942,1554.6113 2.27878,0.092 2.24036,0.09 -2.45997,-0.8872 0.97201,-2.0621 -1.50276,1.3717 -1.52842,1.3952z" style="fill:#f00"/>
<path d="m517.64072,1555.8172 2.27878,0.092 2.24036,0.09 -2.45997,-0.8873 0.97201,-2.062 -1.50276,1.3717 -1.52842,1.3952z" style="fill:#f00"/>
<path d="m527.4384,1555.8646 2.65882,0.1061 2.614,0.1042 -2.87023,-1.0232 1.1341,-2.3782 -1.75336,1.582 -1.78333,1.6091z" style="fill:#f00"/>
<path d="m517.18851,1550.014 2.27877,0.092 2.24037,0.09 -2.45997,-0.8872 0.972,-2.062 -1.50275,1.3717 -1.52842,1.3952z" style="fill:#f00"/>
<path d="m524.34834,1550.4662 2.27878,0.092 2.24037,0.09 -2.45997,-0.8872 0.972,-2.062 -1.50275,1.3717 -1.52843,1.3952z" style="fill:#f00"/>
<path d="m488.32447,1544.3312 2.90784,0.2894 2.85898,0.2844 -3.08059,-1.2794 1.39643,-2.4552 -2.02409,1.567 -2.05857,1.5938z" style="fill:#f00"/>
<path d="m481.84293,1549.7576 2.90784,0.2894 2.85899,0.2844 -3.0806,-1.2794 1.39643,-2.4552 -2.02408,1.567 -2.05858,1.5938z" style="fill:#f00"/>
<path d="m475.13531,1554.1289 2.90784,0.2893 2.85898,0.2845 -3.08059,-1.2794 1.39643,-2.4552 -2.02408,1.5669 -2.05858,1.5939z" style="fill:#f00"/>
<path d="m464.65933,1552.3954 2.90784,0.2894 2.85898,0.2844 -3.08059,-1.2793 1.39643,-2.4552 -2.02409,1.5669 -2.05857,1.5938z" style="fill:#f00"/>
<path d="m456.82119,1556.9928 2.90784,0.2894 2.85898,0.2844 -3.08059,-1.2793 1.39642,-2.4553 -2.02408,1.567 -2.05857,1.5938z" style="fill:#f00"/>
<path d="m471.5177,1547.4966 2.90784,0.2894 2.85899,0.2844 -3.0806,-1.2793 1.39643,-2.4553 -2.02408,1.567 -2.05858,1.5938z" style="fill:#f00"/>
<path d="m480.10949,1542.7485 2.90784,0.2894 2.85898,0.2844 -3.0806,-1.2793 1.39643,-2.4553 -2.02408,1.567 -2.05857,1.5938z" style="fill:#f00"/>
<path d="m472.49747,1541.1658 2.90784,0.2894 2.85898,0.2844 -3.08059,-1.2793 1.39643,-2.4553 -2.02408,1.567 -2.05858,1.5938z" style="fill:#f00"/>
<path d="m479.73269,1535.9655 2.90784,0.2894 2.85898,0.2844 -3.08059,-1.2793 1.39643,-2.4553 -2.02409,1.567 -2.05857,1.5938z" style="fill:#f00"/>
<path d="m486.66644,1537.6236 2.90784,0.2893 2.85898,0.2845 -3.08059,-1.2794 1.39643,-2.4552 -2.02409,1.567 -2.05857,1.5938z" style="fill:#f00"/>
<path d="m472.0453,1534.1567 2.90784,0.2894 2.85898,0.2844 -3.08059,-1.2793 1.39643,-2.4553 -2.02409,1.567 -2.05857,1.5938z" style="fill:#f00"/>
<path d="m465.48839,1531.9711 2.90784,0.2893 2.85898,0.2845 -3.08059,-1.2794 1.39642,-2.4552 -2.02408,1.567 -2.05857,1.5938z" style="fill:#f00"/>
<path d="m473.17578,1526.5447 2.90784,0.2894 2.85898,0.2844 -3.08059,-1.2794 1.39642,-2.4552 -2.02408,1.567 -2.05857,1.5938z" style="fill:#f00"/>
<path d="m463.67956,1523.6054 2.90784,0.2894 2.85898,0.2844 -3.08059,-1.2794 1.39643,-2.4552 -2.02408,1.567 -2.05858,1.5938z" style="fill:#f00"/>
<path d="m472.19601,1518.7065 2.90784,0.2894 2.85898,0.2844 -3.08059,-1.2793 1.39643,-2.4552 -2.02409,1.5669 -2.05857,1.5938z" style="fill:#f00"/>
<path d="m466.43256,1516.0523 2.92088,-0.087 2.87182,-0.086 -3.21967,-0.8721 1.0687,-2.6146 -1.8055,1.8146 -1.83623,1.8455z" style="fill:#f00"/>
<path d="m480.07393,1514.0174 2.92088,-0.087 2.87182,-0.086 -3.21966,-0.8721 1.0687,-2.6146 -1.8055,1.8146 -1.83624,1.8455z" style="fill:#f00"/>
<path d="m488.59038,1515.5248 2.92088,-0.087 2.87182,-0.086 -3.21967,-0.8721 1.0687,-2.6145 -1.8055,1.8145 -1.83623,1.8456z" style="fill:#f00"/>
<path d="m495.8464,1517.3196 2.92216,0 2.87314,0 -3.19153,-0.9699 1.14805,-2.5808 -1.86007,1.7586 -1.89175,1.7886z" style="fill:#f00"/>
<path d="m503.68454,1519.5053 2.92217,0 2.87313,0 -3.19152,-0.97 1.14804,-2.5807 -1.86007,1.7585 -1.89175,1.7886z" style="fill:#f00"/>
<path d="m511.07047,1521.5402 2.92216,0 2.87314,0 -3.19153,-0.97 1.14805,-2.5807 -1.86008,1.7585 -1.89174,1.7886z" style="fill:#f00"/>
<path d="m518.15493,1522.746 2.92216,0 2.87314,0 -3.19153,-0.9699 1.14805,-2.5808 -1.86007,1.7586 -1.89175,1.7886z" style="fill:#f00"/>
<path d="m480.26024,1520.8922 2.90784,0.2893 2.85898,0.2845 -3.08059,-1.2794 1.39643,-2.4552 -2.02409,1.567 -2.05857,1.5938z" style="fill:#f00"/>
<path d="m488.17376,1523.1532 2.90784,0.2893 2.85898,0.2845 -3.08059,-1.2794 1.39643,-2.4552 -2.02409,1.567 -2.05857,1.5938z" style="fill:#f00"/>
<path d="m488.17376,1523.1532 2.90784,0.2893 2.85898,0.2845 -3.08059,-1.2794 1.39643,-2.4552 -2.02409,1.567 -2.05857,1.5938z" style="fill:#f00"/>
<path d="m495.10751,1525.4895 2.90784,0.2894 2.85898,0.2844 -3.08059,-1.2793 1.39643,-2.4552 -2.02409,1.5669 -2.05857,1.5938z" style="fill:#f00"/>
<path d="m501.81513,1526.62 2.90784,0.2894 2.85898,0.2844 -3.08059,-1.2793 1.39643,-2.4552 -2.02408,1.5669 -2.05858,1.5938z" style="fill:#f00"/>
<path d="m509.95474,1528.881 2.90784,0.2894 2.85898,0.2844 -3.08059,-1.2793 1.39643,-2.4552 -2.02409,1.5669 -2.05857,1.5938z" style="fill:#f00"/>
<path d="m480.1849,1527.5244 2.90784,0.2894 2.85899,0.2844 -3.0806,-1.2793 1.39643,-2.4552 -2.02408,1.5669 -2.05858,1.5938z" style="fill:#f00"/>
<path d="m488.02305,1529.9362 2.90784,0.2893 2.85898,0.2845 -3.08059,-1.2794 1.39643,-2.4552 -2.02409,1.567 -2.05857,1.5938z" style="fill:#f00"/>
<path d="m495.10751,1531.5942 2.90784,0.2894 2.85898,0.2844 -3.08059,-1.2793 1.39643,-2.4552 -2.02409,1.5669 -2.05857,1.5938z" style="fill:#f00"/>
<path d="m502.51625,1533.7104 4.32891,0.3244 4.25613,0.3189 -4.58603,-1.4343 2.07882,-2.7525 -3.01319,1.7567 -3.06464,1.7868z" style="fill:#f00"/>
<path d="m513.03013,1535.5214 2.77478,0.2962 2.72814,0.291 -2.9396,-1.3091 1.33252,-2.5124 -1.93144,1.6034 -1.9644,1.6309z" style="fill:#f00"/>
<path d="m521.4712,1536.6519 2.77478,0.2962 2.72814,0.291 -2.9396,-1.3091 1.33252,-2.5124 -1.93144,1.6034 -1.9644,1.6309z" style="fill:#f00"/>
<path d="m517.55213,1530.6226 2.77478,0.2961 2.72814,0.2911 -2.9396,-1.3092 1.33252,-2.5123 -1.93144,1.6034 -1.9644,1.6309z" style="fill:#f00"/>
<path d="m527.586,1532.1507 2.77691,0.2751 2.73027,0.2704 -2.94941,-1.2868 1.31347,-2.5224 -1.91925,1.618 -1.95199,1.6457z" style="fill:#f00"/>
<path d="m529.77473,1537.9794 2.96284,0.1179 2.91292,0.1157 -3.19844,-1.1366 1.2638,-2.6417 -1.95387,1.7573 -1.98725,1.7874z" style="fill:#f00"/>
<path d="m539.04482,1539.4867 2.96284,0.1179 2.91291,0.1158 -3.19843,-1.1367 1.26379,-2.6416 -1.95386,1.7573 -1.98725,1.7873z" style="fill:#f00"/>
<path d="m536.33165,1533.0658 2.31676,0.087 2.27776,0.086 -2.50103,-0.8419 0.98825,-1.9566 -1.52783,1.3016 -1.55391,1.3239z" style="fill:#f00"/>
<path d="m542.0595,1528.2423 2.31676,0.087 2.27776,0.086 -2.50103,-0.8419 0.98825,-1.9567 -1.52782,1.3016 -1.55392,1.3239z" style="fill:#f00"/>
<path d="m548.99325,1528.5438 2.31677,0.087 2.27775,0.086 -2.50103,-0.8419 0.98826,-1.9566 -1.52783,1.3016 -1.55392,1.3239z" style="fill:#f00"/>
<path d="m526.30477,1524.4633 2.77691,0.2751 2.73027,0.2704 -2.94941,-1.2868 1.31346,-2.5224 -1.91924,1.618 -1.95199,1.6457z" style="fill:#f00"/>
<path d="m534.21829,1525.8953 2.77691,0.2751 2.73027,0.2704 -2.94941,-1.2868 1.31346,-2.5224 -1.91924,1.618 -1.95199,1.6457z" style="fill:#f00"/>
<path d="m540.17227,1520.9964 2.77691,0.2752 2.73027,0.2704 -2.94941,-1.2869 1.31347,-2.5224 -1.91925,1.618 -1.95199,1.6457z" style="fill:#f00"/>
<path d="m530.75143,1519.1876 2.77691,0.2752 2.73027,0.2704 -2.9494,-1.2869 1.31346,-2.5224 -1.91925,1.618 -1.95199,1.6457z" style="fill:#f00"/>
<path d="m522.91329,1517.6803 2.77691,0.2751 2.73027,0.2704 -2.94941,-1.2868 1.31347,-2.5224 -1.91925,1.618 -1.95199,1.6457z" style="fill:#f00"/>
<path d="m515.30128,1516.3237 2.77691,0.2751 2.73027,0.2704 -2.94941,-1.2868 1.31346,-2.5224 -1.91924,1.618 -1.95199,1.6457z" style="fill:#f00"/>
<path d="m508.89512,1513.6859 2.77691,0.2751 2.73027,0.2704 -2.94941,-1.2868 1.31346,-2.5224 -1.91924,1.618 -1.95199,1.6457z" style="fill:#f00"/>
<path d="m385.82685,1481.9482c-3.1291,11.5784 0.79394,16.9594 10.92817,16.8821 -9.87283,-4.7967 -9.73341,-10.9283 -10.92817,-16.8821z" style="fill:#f00"/>
<path d="m399.874,1500.9853c-2.28466,8.3919 1.33109,12.8502 12.68356,12.1506 -7.39779,-2.8975 -11.53848,-6.9794 -12.68356,-12.1506z" style="fill:#f00"/>
<path d="m357.47147,1531.4616 9.02013,3.4191 8.86868,3.3612 -8.63876,-6.5716 6.7779,-6.2237 -7.94621,2.9819 -8.08174,3.0331z" style="fill:#f00"/>
<path d="m339.9864,1538.6968 9.24815,3.419 9.09286,3.3613 -8.85713,-6.5716 6.94923,-6.2237 -8.14707,2.9819 -8.28604,3.0331z" style="fill:#f00"/>
<path d="m337.12247,1554.3834 9.93219,2.6537 9.76542,2.6089 -9.51226,-5.1006 7.46324,-4.8307 -8.74968,2.3144 -8.89891,2.3543z" style="fill:#f00"/>
<path d="m355.81341,1561.92 9.93218,2.6538 9.76542,2.6089 -9.51226,-5.1007 7.46325,-4.8306 -8.74968,2.3144 -8.89891,2.3542z" style="fill:#f00"/>
<path d="m371.94187,1578.1992 9.93218,2.6538 9.76543,2.6089 -9.51226,-5.1007 7.46324,-4.8306 -8.74968,2.3144 -8.89891,2.3542z" style="fill:#f00"/>
<path d="m393.49674,1582.9884 8.5641,2.2866 8.42031,2.2479 -8.20202,-4.3949 6.43523,-4.1622 -7.54447,1.9942 -7.67315,2.0284z" style="fill:#f00"/>
<path d="m419.27214,1585.7995 7.72805,2.0852 7.59829,2.0499 -7.40132,-4.0078 5.80698,-3.7956 -6.80794,1.8185 -6.92406,1.8498z" style="fill:#f00"/>
<path d="m376.64042,1568.7134 8.98385,1.4155 8.83297,1.3914 -8.87254,-3.7903 6.03452,-5.4292 -7.42609,3.179 -7.55271,3.2336z" style="fill:#f00"/>
<path d="m395.78355,1573.0847 8.98385,1.4154 8.83298,1.3914 -8.87255,-3.7902 6.03452,-5.4293 -7.42608,3.1791 -7.55272,3.2336z" style="fill:#f00"/>
<path d="m416.13255,1576.0994 8.98387,1.4154 8.83296,1.3914 -8.87253,-3.7902 6.03452,-5.4293 -7.42609,3.1791 -7.55273,3.2336z" style="fill:#f00"/>
<path d="m439.32699,1578.7997 9.77308,0.2543 9.6089,0.2499 -9.96267,-2.1384 5.73612,-4.8621 -7.51365,3.2206 -7.64178,3.2757z" style="fill:#f00"/>
<path d="m377.40959,1554.3838 9.25397,2.8418 9.09852,2.7937 -9.42661,-5.5286 5.44981,-5.3504 -7.12709,2.5994 -7.2486,2.6441z" style="fill:#f00"/>
<path d="m395.79905,1559.358 9.25397,2.8418 9.09853,2.7937 -9.42662,-5.5286 5.44981,-5.3504 -7.12709,2.5994 -7.2486,2.6441z" style="fill:#f00"/>
<path d="m357.81425,1547.9695 9.25398,2.9599 9.09852,2.9098 -9.42662,-5.7584 5.44981,-5.5728 -7.12708,2.7075 -7.24861,2.754z" style="fill:#f00"/>
<path d="m376.01146,1540.4486 8.2212,2.6068 8.08326,2.5627 -6.9721,-5.8682 8.5818,-7.0327 -8.88128,3.8328 -9.03288,3.8986z" style="fill:#f00"/>
<path d="m394.55166,1531.7665 8.91295,2.5763 8.7634,2.5327 -7.55875,-5.7996 9.30389,-6.9505 -9.62856,3.788 -9.79293,3.8531z" style="fill:#f00"/>
<path d="m415.26471,1523.0588 8.73879,2.2393 8.59208,2.2013 -7.56567,-5.5532 8.70958,-7.4077 -9.15924,4.224 -9.31554,4.2963z" style="fill:#f00"/>
<path d="m395.36791,1547.1804 8.09711,2.1611 7.96116,2.1245 -7.01013,-5.3595 8.07004,-7.1492 -8.48668,4.0766 -8.6315,4.1465z" style="fill:#f00"/>
<path d="m413.15444,1538.3136 8.66749,2.6038 14.24984,4.2178c-2.97145,-3.3199 -13.12128,-5.4342 -17.37696,-7.2864 4.26148,-3.1476 9.55187,-6.0894 12.78368,-9.4428l-9.08451,4.9117z" style="fill:#f00"/>
<path d="m430.18733,1528.6289 10.02214,3.307 9.85391,3.2509 -8.67679,-8.2011 9.98868,-10.9399 -10.50434,6.2381 -10.6836,6.345z" style="fill:#f00"/>
<path d="m411.04418,1552.4573 12.16109,3.0726 11.957,3.0205 -15.50284,-6.8662 17.0947,-10.9181 -12.74619,5.7959z" style="fill:#f00"/>
<path d="m430.48879,1557.13 12.16108,3.0727 11.957,3.0205 -10.52864,-7.6199 12.1205,-10.1645 -12.74619,5.796 -12.96375,5.8952z" style="fill:#f00"/>
<path d="m429.43364,1543.2626 12.16109,3.0726 11.957,3.0205 -10.52864,-7.6199 12.1205,-10.1644 -12.74619,5.7959 -12.96376,5.8953z" style="fill:#f00"/>
<path d="m445.71286,1533.8138 11.44812,3.1247 11.25597,3.0717 -9.91139,-7.749 11.40992,-10.3368 -11.9989,5.8942 -12.20372,5.9952z" style="fill:#f00"/>
<path d="m447.78942,1518.3449 5.13,-3.9024 5.04397,-3.8366 -3.2012,6.6517 8.42013,4.8394 -7.63124,-1.86 -7.76166,-1.8921z" style="fill:#f00"/>
<path d="m416.36004,1564.8801 8.78588,1.3964 8.63829,1.3728 -9.30219,-3.8484 4.23448,-5.6471 -6.12606,3.3346 -6.2304,3.3917z" style="fill:#f00"/>
<path d="m433.32262,1567.2016 9.88623,3.1011 9.72025,3.0488 -9.98885,-5.6951 6.04079,-4.9369 -7.76307,2.2219 -7.89535,2.2602z" style="fill:#f00"/>
<path d="m446.31579,1547.4831 12.16108,3.0726 11.957,3.0205 -10.52864,-7.6198 12.1205,-10.1645 -12.74619,5.7959 -12.96375,5.8953z" style="fill:#f00"/>
<path d="m384.11312,1631.4035c-3.21712,0.057 -10.37617,2.8624 -6.67942,6.6915 2.55887,3.0354 5.56865,5.8365 9.80681,4.8518 1.81138,1.0075 8.93881,1.2554 5.97738,-1.6868 -1.74962,-0.3111 -8.26669,-0.2767 -3.72114,-2.4128 4.08412,0.1251 3.64989,-6.6632 -0.60065,-4.4327 -1.90904,-0.3392 -7.10204,3.7492 -6.52508,0.022 0.90107,-1.6536 7.29845,-3.6206 2.23817,-3.0827l-0.49609,0.05 2e-5,0 z m 4.19677,46.0978c-4.97356,-0.6074 0.0867,5.7035 2.05952,2.1616 0.62165,-2.1681 0.32865,-2.8707 -2.05952,-2.1616 z m 28.96435,-27.8852c-1.08004,3.5247 -3.99075,0.799 -4.99887,-0.029 -0.32383,6.346 -0.197,12.729 -0.59682,19.0808 1.64579,-0.9412 1.27566,-4.7138 4.17389,-2.3817 4.34045,1.0772 6.42272,-3.9226 4.57053,-7.323 -0.67285,-3.5642 -1.34458,-7.1285 -2.01627,-10.6928 -0.79208,-0.2973 -0.71277,1.0057 -1.13246,1.3456 z m -10.73839,-5.1694c0.35844,4.6151 -6.35782,5.6549 -9.3455,3.6243 -3.40727,-2.8821 -0.005,3.2435 0.65098,4.5903 2.40392,5.4601 2.12984,11.9958 -1.05274,17.0814 -2.76729,2.1026 1.91595,5.2896 2.78676,3.2576 -2.88322,-4.1344 4.77934,-4.6377 7.47533,-4.161 4.90965,-0.2463 2.9637,-6.7174 3.40701,-10.0255 0.15588,-5.01 -1.33521,-9.949 -3.50883,-14.4204l-0.20705,0.027 -0.20596,0.026 0,0 z m -23.63513,1.1325c-5.44009,0.2298 -2.30264,5.3831 0.35961,7.2446 2.7317,2.1296 1.85844,5.6025 1.99232,8.6051 0.19188,4.2171 -1.96657,8.05 -4.90666,10.9156 -1.79007,1.5368 -1.76229,2.7521 0.74853,2.8872 3.79011,2.3841 4.79562,-1.3003 3.91741,-4.3291 0.007,-4.2715 4.97998,-2.8323 7.14213,-1.1243 3.42681,0.9938 4.51932,-4.1544 5.07692,-6.6888 0.76097,-4.7991 -1.12136,-9.4129 -2.50429,-13.9029 -2.49126,-3.4901 -7.81739,-3.691 -11.82597,-3.6074l0,0 z m 5.3159,1.9318c2.00816,0.1657 6.29224,4.9813 1.95384,3.2696 -2.41698,-0.3821 -3.4063,4.2927 -5.45964,0.7216 -1.32074,-2.2852 1.54753,-4.0025 3.5058,-3.9912 z m -51.42704,29.031c-3.19342,1.5982 1.19475,3.871 3.21844,2.8905 1.90469,0.5021 5.58139,-0.5617 2.16194,-1.9776 -1.70255,-0.6197 -3.57205,-0.9395 -5.38038,-0.9129 z m 25.80678,-7.2877c-3.31736,-1.0045 -3.96244,4.1525 -0.38796,3.2115 1.33129,-0.7633 8.29948,-0.8806 4.5344,-2.8721 -1.33851,-0.4265 -2.76184,-0.3536 -4.14644,-0.3394 z m -14.82858,0.866c-3.4621,0.656 -1.6717,5.41 1.46918,3.6511 1.8644,0.242 8.49585,-0.7303 3.98042,-2.2703 -1.86903,-0.28 -3.5259,-1.4114 -5.4496,-1.3808 z m 1.71868,-28.6313c-4.14049,-1.0346 -2.89426,5.1742 0.69989,3.0715 1.83174,-1.1209 6.40093,-0.3816 6.6557,-2.1419 -2.23573,-1.2273 -4.91776,-0.7096 -7.35559,-0.9296 z m -13.93494,3.4689c-2.04592,-0.5938 -5.2409,1.9271 -1.55822,1.9091 2.26749,-0.2997 1.5423,2.7933 4.40054,2.0097 -1.64123,2.6921 -5.39693,3.5105 -7.95244,1.218 0.54998,3.0653 3.87419,6.1344 3.8127,9.8286 0.67334,4.2149 -0.31888,8.4924 -2.0301,12.3358 1.28866,1.4094 5.16247,2.5815 6.79152,1.9296 -1.95362,-2.3474 -6.16501,-4.1377 -2.53234,-6.897 2.75004,-2.1188 7.47531,2.2938 9.87951,-1.9284 1.18217,-3.4515 0.50443,-7.4155 -0.38144,-10.9194 -1.33184,-3.9374 -3.579,-8.7997 -8.23226,-9.3532 -0.72671,-0.1097 -1.46312,-0.1474 -2.19747,-0.1328 z m 27.15242,-0.8927c-0.62234,2.1966 6.15973,3.6152 5.90245,5.4395 -2.27698,-0.4391 -6.16183,-0.4827 -4.74009,2.9654 0.37289,3.7887 -0.86593,8.8343 0.6659,11.8428 2.50905,-0.017 8.12444,3.0702 8.01988,-1.1122 0.32181,-5.0138 0.26128,-10.1835 -0.98368,-15.0591 -1.66603,-3.1272 -5.67709,-3.7616 -8.86446,-4.0764 z m -4.76966,1.3324c-1.26969,4.0326 -5.64627,0.8167 -8.13273,2.0656 -1.27854,2.1746 -5.33855,-0.9755 -3.33575,2.5957 2.08765,5.6687 2.19507,11.7806 2.40062,17.7347 2.09701,1.7289 2.58566,-3.9201 5.58178,-2.2343 2.21575,0.9638 7.46524,1.6688 6.34126,-2.147 -1.84165,-0.7341 2.97592,-1.8833 1.13389,-3.8888 -0.86081,-4.1953 1.13436,-9.5762 -2.21105,-12.742 -0.4944,-0.5615 -1.02983,-1.17 -1.77802,-1.3839 z m -19.9944,-15.7572c-3.45728,-0.1767 -7.22276,3.5078 -7.36449,6.4166 2.8624,1.5301 0.49476,7.8536 5.69266,6.4574 1.6398,-0.995 6.51542,-0.2619 6.18441,-2.3133 -3.61538,-0.701 -0.1841,-4.2675 2.28025,-3.0592 1.51971,-0.017 5.349,-0.7709 2.11928,-1.7831 -3.04242,-1.6331 -6.36266,-1.7309 -9.55272,-0.6218 -1.19728,-3.3524 7.33922,-2.9258 4.86336,-4.8938 -1.3974,-0.2038 -2.81341,-0.2189 -4.22275,-0.2028z" style="fill:#fff"/>
</g>
</g>
</svg>
