<?xml version="1.0" encoding="utf-8"?>
<svg xmlns="http://www.w3.org/2000/svg" width="679" height="678" viewBox="0 0 679 678">
<style type="text/css">.st0{fill:#2C2C2B;}.st1{fill:#FFFFFF;}.st2{fill:#FFCC00;}.st3{fill:#009240;}.st4{fill:#E21C2A;}.st5{fill:#AC4882;}	.st6{fill:#9E9FA1;}</style>
<path class="st0" d="M466.6,153.4c0.8,0.3,1.6,0.7,2.3,1.3c2.3,1.7,3.7,4.2,4,7.1c0.3,3.3-0.9,6.5-2.8,9.2c-2,2.9-3.8,5.9-5.6,8.9
	c-2.9,4.9-5.6,9.9-7.9,15.1c-2.3,5-4.9,11.6-5.7,17.3c1.5,1.3,2.6,3.1,3.2,5c0.8,2.6,0.7,5.7-1.2,7.9c-2.2,2.5-5.6,2.5-8.5,1.5
	H254.1c-2.9,1-6.3,1-8.5-1.5c-1.9-2.2-2.1-5.2-1.2-7.9c0.6-1.9,1.7-3.7,3.2-5c-0.7-5.7-3.4-12.3-5.7-17.3
	c-2.4-5.2-5.1-10.2-7.9-15.1c-1.8-3-3.6-6-5.6-8.9c-1.9-2.7-3.1-5.9-2.8-9.2c0.3-2.8,1.7-5.4,4-7.1c0.7-0.5,1.5-1,2.3-1.3
	c-2.3-2-3.8-4.9-3.8-8.2c0-3.8,2-7.1,5-9c-1.6-1.9-2.6-4.4-2.6-7c0-4.4,2.6-8.2,6.4-9.8c-1.2-1.8-1.9-4-1.9-6.4
	c0-5.8,4.3-10.6,9.8-11.4c-0.5-1.3-0.8-2.7-0.8-4.2c0-6.5,5.3-11.8,11.8-11.8c0.8,0,1.6,0.1,2.3,0.2c0-6,4.9-10.9,10.9-10.9
	c1.6,0,3.1,0.3,4.5,1c1.2-4,4.9-6.9,9.3-6.9c1.9,0,3.7,0.6,5.2,1.5c1.5-2.7,4.4-4.5,7.7-4.5c2.2,0,4.2,0.8,5.7,2.1
	c1.6-1.8,3.9-3,6.5-3c2.5,0,4.8,1.1,6.4,2.9c1.4-1.1,3.1-1.7,5-1.7c1.4,0,2.8,0.4,3.9,1c0.1-0.4,0.2-0.9,0.4-1.3
	c-1.9-1.1-3.1-3.1-3.1-5.4c0-1.2,0.3-2.4,0.9-3.3c-0.2-1.7,0.4-3.4,2.1-4.5c0.9-0.6,1.8-1.1,2.7-1.6c2.3-5.9,6.7-10.7,12.4-13.4
	c-0.3,0.1-0.6,0.1-0.9,0.1c-3.8,0.1-4.6-4.4-6.7-6.6c-1.9-2.1-5.7-2.8-5.7-6.3c-0.1-3.6,4.1-4.6,6-6.8c1.7-1.9,2.4-5.3,5-6.1
	c0.9-2.6,4.4-3.6,6.2-5.5c2-2.1,2.7-6.2,6.4-6.2c3.8-0.1,4.7,4.4,6.8,6.6c1.8,1.8,5.1,2.6,5.9,5.2c2.7,0.9,3.5,4.5,5.3,6.4
	c1.9,2.1,5.7,2.8,5.7,6.3c0.1,3.6-4.1,4.6-6,6.8c-2,2.1-2.5,6.3-6.2,6.3c-0.4,0-0.7,0-1-0.1c5.6,2.6,10,7.3,12.3,13.1
	c1.1,0.5,2.2,1.2,3.3,1.9c1.4,0.9,2.2,2.5,2.1,4.2c0,0.3-0.1,0.6-0.1,0.9c0.4,0.8,0.6,1.7,0.6,2.7c0,2.2-1.1,4.1-2.8,5.2
	c0.2,0.4,0.3,0.8,0.4,1.3c1.1-0.5,2.3-0.8,3.5-0.8c1.9,0,3.6,0.6,5,1.7c1.6-1.8,3.9-2.9,6.4-2.9c2.6,0,4.9,1.2,6.5,3
	c1.6-1.3,3.5-2.1,5.7-2.1c3.3,0,6.2,1.8,7.7,4.5c1.5-1,3.3-1.5,5.2-1.5c4.4,0,8.1,2.9,9.3,6.9c1.4-0.6,2.9-1,4.5-1
	c6,0,10.9,4.9,10.9,10.9c0.7-0.1,1.5-0.2,2.3-0.2c6.5,0,11.8,5.3,11.8,11.8c0,1.5-0.3,2.9-0.8,4.2c5.6,0.8,9.8,5.6,9.8,11.4
	c0,2.4-0.7,4.6-1.9,6.4c3.8,1.7,6.4,5.5,6.4,9.8c0,2.7-1,5.2-2.6,7c3,1.9,5,5.2,5,9C470.3,148.5,468.9,151.4,466.6,153.4z"/>
<path class="st1" d="M414.7,204.6c6.8,0.3,14,1.2,20.9,2.8c0.3-3.5,0.9-6.5,1.7-9.9c-2,2.1-4.1,4.1-6.4,5c2.2-2,4.1-4.3,5.7-7.3
	c-2,1.4-3.9,1.6-5.6,0.3c3.1,1.2,7.6-4.4,8.9-8.3c0.9-2.7-1.1-1.9-2.3-0.9c-0.9,0.8-1.9,2.6-2.2,2.5c-0.3-0.1-0.3-2-0.7-3.2
	c-0.4-1.2-1.5-2.3-1.4-2.9c0.1-0.5,1.4-0.8,2.4-1.6c0.9-0.8,1.9-2.6,2.2-2.5s0.3,2,0.7,3.2c1.1,3.2,3.2,2.4,1.8-1.1
	c-0.5-1.2-1.6-2.4-1.5-2.9c0.1-0.5,1.5-0.8,2.5-1.6c1-0.8,2-2.6,2.3-2.5c0.4,0.1,0.4,2,0.8,3.2c0.5,1.2,1.6,2.4,1.5,2.9
	c-0.1,0.5-1.5,0.8-2.5,1.6c-2.6,2.2-1.8,4.5,0.8,2.2c0.9-0.8,1.9-2.6,2.2-2.5c0.3,0.1,0.3,2,0.7,3.2c0.4,1.2,1.5,2.3,1.4,2.9
	c-0.1,0.5-1.4,0.8-2.4,1.6c-0.9,0.8-1.9,2.6-2.2,2.5c-0.3-0.1-0.3-2-0.7-3.2c-0.5-1.5-1.9-3.6-2.4-0.6c-0.6,4.1,0.8,11.4,4,12
	c-2.1,0.3-3.7-1-4.8-3.3c0,3.4,0.6,6.4,1.7,9.4c-1.6-2-2.5-4.8-3.3-7.7c-0.8,3.4-1.7,6.3-3,9.5c4.1,0.9,8.2,2.1,12.1,3.5
	c1.8-10.3,8.7-23.8,13.9-32.8c-0.6,0-1.4,0.2-2,0.6c-1.1,0.6-2.5,2.1-2.9,2c-0.4-0.2,0-2-0.3-3.3c-0.3-1.3-1.3-2.6-1.1-3.1
	c0.2-0.5,1.7-0.5,2.9-1.1c1.1-0.6,2.5-2.1,2.9-2c0.4,0.2,0,2,0.3,3.3c0.2,1.1,0.6,1.8,1,2.1c0.4-0.8,0.9-1.5,1.3-2.2
	c0-0.2-0.1-0.4-0.1-0.7c-0.3-1.3-1.4-2.7-1.2-3.2c0.2-0.5,1.8-0.4,3-1c0.9-0.4,1.9-1.4,2.5-1.8c4-7-0.6-12.1-5.7-11.6
	c-6,0.6-14.8,10.8-18.2,15.2c-1.7-11.4-7.6-25-20-28.1c-13.2-3.3-27.6,7.2-37.9,18.1c-8-14.4-19.7-26.7-36.8-26.7
	c-17.1,0-28.8,12.3-36.8,26.7c-10.3-10.9-24.7-21.4-37.9-18.1c-12.3,3.1-18.3,16.6-20,28.1c-3.4-4.4-12.2-14.5-18.2-15.2
	c-5.1-0.5-9.8,4.6-5.7,11.7c0.6,0.4,1.6,1.3,2.4,1.7c1.2,0.6,2.8,0.5,3,1c0.2,0.5-0.9,1.9-1.2,3.2c-0.1,0.2-0.1,0.4-0.1,0.6
	c0.4,0.7,0.9,1.4,1.3,2.2c0.4-0.3,0.8-1,1-2.1c0.3-1.3-0.1-3.1,0.3-3.3c0.4-0.2,1.7,1.4,2.9,2c1.1,0.6,2.6,0.6,2.9,1.1
	c0.2,0.5-0.8,1.8-1.1,3.1c-0.3,1.3,0.1,3.1-0.3,3.3c-0.4,0.2-1.7-1.4-2.9-2c-0.6-0.3-1.4-0.6-1.9-0.6c5.2,9,12,22.5,13.9,32.7
	c8-2,15.7-3.6,24-3.3c-9.8,1.1-23,3.6-26.5,9.3c-1.4,2.3-1.4,5.2,0.4,6.3c9-2.3,18.2-4.3,27.4-5.9c24.2-4.2,48.6-5.9,73.1-5.9
	s49,1.7,73.1,5.9c9.3,1.6,18.4,3.6,27.4,5.9c0.9-0.6,1.3-1.7,1.3-2.9c0-4.1-3.5-6.5-6.8-8C435.2,208.4,425,206,414.7,204.6
	L414.7,204.6z"/>
<path class="st2" d="M349.2,38.9c0.9,0,1.7,0.1,2.6,0.2c0.6,2.3,0.8,5.9,0.8,9c-1-0.6-2.1-0.9-3.4-0.9c-1.3,0-2.4,0.4-3.4,1
	c-0.1-3.1,0-6.8,0.8-9.1C347.5,38.9,348.3,38.9,349.2,38.9z M355.5,54.7c4,0.4,8.6,1.1,12.5,2.9c-0.6,0.8-1,1.8-1,2.9
	c0,0.3,0,0.5,0.1,0.8c-0.7-0.3-1.5-0.6-2.1-0.8c-3.6-1.2-7.6-1.8-11.5-2C354.5,57.4,355.3,56.1,355.5,54.7z M345,58.4
	c-3.9,0.3-7.9,0.9-11.5,2c-0.7,0.2-1.4,0.5-2.1,0.8c0-0.3,0.1-0.5,0.1-0.8c0-1.1-0.4-2.1-1-2.9c3.8-1.8,8.4-2.5,12.5-2.9
	C343.2,56.1,343.9,57.4,345,58.4z M358.1,40.9c4.5,2.1,8.1,5.7,10.1,10.2c-3.1-1.2-6.5-1.8-9.7-2.1
	C358.7,46.4,358.6,43.4,358.1,40.9z M367.9,69.4c-0.1,0.2-0.3,0.5-0.4,0.7c-2,0.2-3.7,1.3-4.7,2.9c-0.7-1-1.9-1.7-3.2-1.7
	c-1.9,0-3.5,1.4-3.8,3.2l-6.5-3.7l-6.5,3.7c-0.3-1.8-1.9-3.2-3.8-3.2c-1.3,0-2.5,0.7-3.2,1.7c-1-1.6-2.8-2.7-4.7-2.9
	c-0.1-0.2-0.3-0.5-0.4-0.7c0.1-0.2,0.1-0.4,0.2-0.7c0.2-1,3.8-2.3,4.6-2.6c4.3-1.4,9.3-1.9,13.8-1.9s9.5,0.5,13.8,1.9
	c0.8,0.3,4.4,1.6,4.6,2.6C367.7,69,367.8,69.2,367.9,69.4z M355.7,78.8l0,0.9c-0.9,0.3-1.9,0.6-2.9,0.7L355.7,78.8L355.7,78.8z
	 M345.6,80.5c-1-0.2-2-0.4-2.9-0.7l0-0.9L345.6,80.5L345.6,80.5z M330.2,51.1c2.1-4.5,5.7-8.2,10.2-10.3c-0.5,2.6-0.6,5.6-0.5,8.1
	C336.6,49.3,333.3,49.9,330.2,51.1z M345.5,36.2c1.2-2.5,2-4.9,2.2-7.1c0.6-5.4-4-2.5-6.2-0.1c-1.8,1.9-2.8,5.2-3.7,5.2
	c-0.9,0-2.2-3.6-4-5.5c-1.8-1.9-4.8-3-4.8-4c0-1,3.3-2.4,5.1-4.3c1.8-1.9,2.8-5.2,3.7-5.2c0.9,0,2.2,3.6,4,5.5
	c4.9,5.3,8.2,1.5,3.2-3.5c-1.9-1.9-5.1-3-5.1-4c0-1,3.6-2.4,5.4-4.3c1.9-1.9,3-5.2,3.9-5.2c1,0,2.4,3.6,4.2,5.5c1.9,1.9,5.1,3,5.1,4
	c0,1-3.6,2.4-5.4,4.3c-5.4,5.5-0.9,8,3.8,2.9c1.8-1.9,2.8-5.2,3.7-5.2c0.9,0,2.2,3.6,4,5.5c1.8,1.9,4.8,3,4.8,4c0,1-3.3,2.4-5.1,4.3
	c-1.8,1.9-2.8,5.2-3.7,5.2c-0.9,0-2.2-3.6-4-5.5c-2.2-2.4-6.7-4.8-6.1,0.4c0.3,1.9,1,4.1,2,6.2c0.2,0.4,0.3,0.7,0.5,1.1
	c-0.4,0.2-0.7,0.5-0.9,0.8c-0.9-0.1-1.9-0.2-2.9-0.2s-1.9,0.1-2.9,0.2c-0.3-0.4-0.6-0.7-1-0.9C345.4,36.3,345.4,36.2,345.5,36.2
	L345.5,36.2z M373.6,56.4c0-0.3-0.2-0.6-0.5-0.9c-4.6-3.4-10.8-4.7-16.3-5c0.1-3.3,0.2-8.7-1.1-12c-0.6-1.5-2.8-0.9-2.4,0.1
	c0.8,2.2,1.1,7.5,1.1,10.9c0.7,0.9,1.2,2.1,1.3,3.3c4.6,0.4,9.7,1.3,13.9,3.5c0.6-0.3,1.3-0.4,2-0.4C372.3,55.9,373,56.1,373.6,56.4
	L373.6,56.4z M349.2,62.5c5.6,0,10.6,0.7,14.4,2c3.4,1.1,5.6,2.5,5.8,4c0.3,1.6,2.7,1.2,2.4-0.4c-0.4-2.5-3.2-4.6-7.5-6
	c-4-1.3-9.3-2.1-15.1-2.1s-11.2,0.8-15.1,2.1c-4.3,1.4-7.1,3.5-7.5,6c-0.3,1.6,2.2,2,2.4,0.4c0.2-1.5,2.4-2.9,5.8-4
	C338.6,63.2,343.7,62.5,349.2,62.5z M324.8,56.4c0-0.3,0.2-0.6,0.5-0.9c4.1-3.2,10.6-4.7,16.3-5c-0.1-3.7,0-8.1,1-11.8
	c0.4-1.3,2.6-1.2,2.3,0c-0.8,2.9-1,7.4-0.9,10.9c-0.7,0.9-1.2,2-1.3,3.3c-4.6,0.4-9.7,1.3-13.9,3.5c-0.6-0.3-1.3-0.4-2-0.4
	C326.2,55.9,325.5,56.1,324.8,56.4L324.8,56.4z M363.7,85.1l0.7-0.4c49-18.2,86.7,24.1,86.1,65l6.1,4.9c-1,0.6-2.1,1.3-3.1,2
	l-6.5-5.3l0-1.7c0.3-21-10.1-42.5-27-55c-18.3-13.5-37.8-12.6-56-6.3C363.9,87.2,363.8,86.1,363.7,85.1L363.7,85.1z M241.8,154.6
	l6.1-4.9c-0.6-40.9,37.1-83.2,86.1-65l0.7,0.4c-0.1,1.1-0.2,2.1-0.3,3.2c-18.2-6.3-37.7-7.1-56,6.3c-17,12.5-27.3,34-27,55l0,1.7
	l-6.5,5.3C243.9,155.8,242.9,155.1,241.8,154.6L241.8,154.6z M336.8,75.1c0,18.8-4,37.6-8.6,54.6l6.4,4.6c1.9-0.8,3.8-1.5,5.8-1.9
	l-6.8-4.6c4.1-16.1,7.2-35.5,7.3-52.6c0-1.2-0.9-2.1-2.1-2.1C337.8,73,336.8,73.9,336.8,75.1z M361.6,75.1c0,18.8,4,37.6,8.6,54.6
	l-6.4,4.6c-1.9-0.8-3.8-1.5-5.8-1.9l6.8-4.6c-4.1-16.1-7.2-35.5-7.3-52.6c0-1.2,0.9-2.1,2.1-2.1C360.7,73,361.6,73.9,361.6,75.1
	L361.6,75.1z M340.9,99.9l6.3,3.8l-7.6,4.4C340.1,105.3,340.6,102.6,340.9,99.9z M338.9,112.6l8.5,5l-10.9,6.2
	C337.4,120.1,338.2,116.4,338.9,112.6z M342.7,78.8l4.6,2.6l-4.9,2.8C342.6,82.5,342.6,80.6,342.7,78.8L342.7,78.8z M342.1,88.8
	l5.3,3l-5.9,3.5C341.7,93.1,342,90.9,342.1,88.8L342.1,88.8z M361.9,123.9l-11.1-6.3l8.6-5.1C360.2,116.3,361.1,120.1,361.9,123.9z
	 M358.7,108.1l-7.7-4.5l6.5-3.8C357.8,102.6,358.3,105.4,358.7,108.1L358.7,108.1z M356.9,95.4l-6.1-3.6l5.4-3.1
	C356.5,90.9,356.7,93.2,356.9,95.4z M356,84.4l-5-2.9l4.8-2.7C355.8,80.6,355.8,82.5,356,84.4z"/>
<path class="st1" d="M238.8,152.4c-4,0-7.2-3.2-7.2-7.2s3.2-7.2,7.2-7.2c4,0,7.2,3.2,7.2,7.2S242.8,152.4,238.8,152.4z M330.3,81.2
	c-2.6,0-4.7-2.1-4.7-4.7c0-2.6,2.1-4.7,4.7-4.7c2.6,0,4.7,2.1,4.7,4.7C335,79.1,332.9,81.2,330.3,81.2z M319.4,79.1
	c-2.6,0-4.7-2.1-4.7-4.7s2.1-4.7,4.7-4.7s4.7,2.1,4.7,4.7S322,79.1,319.4,79.1z M308,78.6c-2.8,0-5-2.3-5-5c0-2.8,2.3-5,5-5
	c2.8,0,5,2.3,5,5C313,76.3,310.8,78.6,308,78.6z M295.8,80.2c-3,0-5.4-2.4-5.4-5.4c0-3,2.4-5.4,5.4-5.4c3,0,5.4,2.4,5.4,5.4
	C301.2,77.8,298.8,80.2,295.8,80.2z M282.8,84.7c-3.4,0-6.2-2.8-6.2-6.2c0-3.4,2.8-6.2,6.2-6.2c3.4,0,6.2,2.8,6.2,6.2
	C289,82,286.2,84.7,282.8,84.7z M269,93.1c-4.1,0-7.4-3.3-7.4-7.4c0-4.1,3.3-7.4,7.4-7.4c4.1,0,7.4,3.3,7.4,7.4
	C276.4,89.8,273.1,93.1,269,93.1z M255.8,105.6c-4.6,0-8.3-3.7-8.3-8.3c0-4.6,3.7-8.3,8.3-8.3c4.6,0,8.3,3.7,8.3,8.3
	C264.1,101.9,260.4,105.6,255.8,105.6z M246.4,120.9c-4.4,0-8-3.6-8-8c0-4.4,3.6-8,8-8c4.4,0,8,3.6,8,8
	C254.4,117.3,250.8,120.9,246.4,120.9z M241.2,136.4c-4,0-7.2-3.2-7.2-7.2c0-4,3.2-7.2,7.2-7.2c4,0,7.2,3.2,7.2,7.2
	C248.5,133.1,245.2,136.4,241.2,136.4z M459.6,152.4c4,0,7.2-3.2,7.2-7.2s-3.2-7.2-7.2-7.2c-4,0-7.2,3.2-7.2,7.2
	S455.6,152.4,459.6,152.4z M368.1,81.2c2.6,0,4.7-2.1,4.7-4.7c0-2.6-2.1-4.7-4.7-4.7c-2.6,0-4.7,2.1-4.7,4.7
	C363.4,79.1,365.5,81.2,368.1,81.2z M379,79.1c2.6,0,4.7-2.1,4.7-4.7s-2.1-4.7-4.7-4.7c-2.6,0-4.7,2.1-4.7,4.7S376.4,79.1,379,79.1z
	 M390.4,78.6c2.8,0,5-2.3,5-5c0-2.8-2.3-5-5-5c-2.8,0-5,2.3-5,5C385.4,76.3,387.6,78.6,390.4,78.6z M402.6,80.2c3,0,5.4-2.4,5.4-5.4
	c0-3-2.4-5.4-5.4-5.4c-3,0-5.4,2.4-5.4,5.4C397.3,77.8,399.7,80.2,402.6,80.2z M415.6,84.7c3.4,0,6.2-2.8,6.2-6.2
	c0-3.4-2.8-6.2-6.2-6.2c-3.4,0-6.2,2.8-6.2,6.2C409.4,82,412.2,84.7,415.6,84.7z M429.4,93.1c4.1,0,7.4-3.3,7.4-7.4
	c0-4.1-3.3-7.4-7.4-7.4s-7.4,3.3-7.4,7.4C422,89.8,425.3,93.1,429.4,93.1z M442.6,105.6c4.6,0,8.3-3.7,8.3-8.3
	c0-4.6-3.7-8.3-8.3-8.3c-4.6,0-8.3,3.7-8.3,8.3C434.3,101.9,438.1,105.6,442.6,105.6z M452,120.9c4.4,0,8-3.6,8-8c0-4.4-3.6-8-8-8
	c-4.4,0-8,3.6-8,8C444,117.3,447.6,120.9,452,120.9z M457.2,136.4c4,0,7.2-3.2,7.2-7.2c0-4-3.2-7.2-7.2-7.2c-4,0-7.2,3.2-7.2,7.2
	C450,133.1,453.2,136.4,457.2,136.4z"/>
<path class="st3" d="M349.2,104.7l-9.9,5.8l9.9,5.8l9.9-5.8L349.2,104.7z M349.2,82.6l-6.9,4l6.9,4l6.9-4L349.2,82.6z M349.2,58.2
	c-2.6,0-4.7-2.1-4.7-4.7c0-2.6,2.1-4.7,4.7-4.7s4.7,2.1,4.7,4.7C353.9,56.1,351.8,58.2,349.2,58.2z"/>
<path class="st4" d="M349.2,118.8l-13.6,7.8l8.2,5.1c3.5-0.5,7.1-0.5,10.7,0l8.3-4.8L349.2,118.8z M349.2,92.7l-8.1,4.7l8.1,4.7
	l8.1-4.7L349.2,92.7z M349.2,72.9l-6.5,3.7l6.5,3.7l6.5-3.7L349.2,72.9z M326.9,57.7c1.5,0,2.8,1.2,2.8,2.8c0,1.5-1.2,2.8-2.8,2.8
	c-1.5,0-2.8-1.2-2.8-2.8C324.2,58.9,325.4,57.7,326.9,57.7z M371.5,57.7c1.5,0,2.8,1.2,2.8,2.8c0,1.5-1.2,2.8-2.8,2.8
	c-1.5,0-2.8-1.2-2.8-2.8C368.7,58.9,370,57.7,371.5,57.7z"/>
<path class="st5" d="M270.6,140.9l0-0.5c-2.2-9.4-2-16,1.9-25c-0.9,8.6-1.3,15.8,2.6,23.3l0.6,0.8c0.8-0.1,1.6-0.2,2.4-0.2
	c5.3-0.3,10.4,1.1,15.2,3.3l0,0c4.7-5.7,12.7-11.3,20.7-11.4c-7.7,2.7-12.6,6.7-16.3,13.7c3.3,2,6.5,4.3,9.4,6.7
	c1.6,1.3,3.2,2.8,4.7,4.2c5.1-8.1,11.4-15.3,19.4-19.7l-6.8-4.9l0.6-2.4c3.1-11.6,5.8-23.4,7.3-35.4c-12.9-2.3-22.6,7.3-29.7,15.7
	c-3.6,4.2-7.8,1.9-7-3.3c0.8-5.6,5.9-11.2,10-12.6c-3,2.8-7.5,8.7-7.4,12.5c0,1.8,0.8,2.4,2.6,0.1c6.5-8.6,16-15,27.2-15.9
	c-15.5-4.7-31.9-3.6-47.1,7.5c-16,11.8-25.9,32.2-25.6,52.1l0,3.4l-7.3,5.9c1.7,1.5,3.3,3.2,4.8,4.8
	C255.4,153.9,261.1,144.6,270.6,140.9L270.6,140.9z M427.8,140.9l0-0.5c2.2-9.4,2-16-1.9-25c0.9,8.6,1.3,15.8-2.6,23.3l-0.6,0.8
	c-6-0.9-12,0.5-17.5,3l0,0c-4.7-5.7-12.7-11.3-20.7-11.4c7.7,2.7,12.6,6.7,16.4,13.7c-3.4,2-6.6,4.3-9.4,6.7
	c-1.6,1.3-3.2,2.8-4.7,4.2c-5.1-8.1-11.4-15.3-19.4-19.7l6.8-4.9l-0.6-2.4c-3.2-11.9-6-24.1-7.4-36.5c13.6-3.3,22.5,8,29.8,16.7
	c3.6,4.2,7.8,1.9,7-3.3c-0.8-5.6-5.9-11.2-10-12.6c3,2.8,7.5,8.7,7.4,12.5c0,1.8-0.8,2.4-2.6,0.1c-6.1-8-14.1-14.9-24-16.8
	c14.5-3.6,29.8-2,43.9,8.4c16,11.8,25.9,32.2,25.6,52.1l0,3.4l7.3,5.9c-1.7,1.5-3.3,3.2-4.8,4.8C443,153.9,437.3,144.6,427.8,140.9
	L427.8,140.9z"/>
<path class="st0" d="M455.1,572.2c-10.1,5.1-20.5,9.5-31.1,13.4c-12.9,4.7-26.1,8.7-39.2,12.5c-14.5,4.2-24.5,8-32.4,21.7l-3.1,5.4
	l-3.1-5.4c-7.8-13.7-17.8-17.5-32.4-21.7c-13.2-3.8-26.3-7.7-39.2-12.5c-10.6-3.9-21-8.3-31.1-13.4c-11.3-4.9-22.8-11-30.6-20.8
	c-8.7-10.9-11.1-24.4-11.1-38l-0.1-208c0-21.1-4.1-43.8-13.6-62.8l-1.7-3.5l3.6-1.4c8.6-3.3,17.1-6.5,25.8-9.4
	c19.8-6.7,39.7-12.1,60.3-15.7c24.2-4.2,48.6-5.9,73.1-5.9c24.5,0,49,1.7,73.1,5.9c20.6,3.6,40.5,9,60.3,15.7
	c8.7,2.9,17.3,6.1,25.8,9.4l3.6,1.4l-1.7,3.5c-9.4,19-13.6,41.7-13.6,62.8l-0.1,208c0,13.7-2.4,27.1-11.1,38
	C477.9,561.2,466.3,567.3,455.1,572.2L455.1,572.2z"/>
<path class="st2" d="M349.3,618.1c8.3-14.5,18.8-18.8,34.4-23.3c25.4-7.3,46.7-14,69.8-25.7c25.8-11.3,39.7-23.5,39.7-55.6l0.1-208
	c0-21.7,4.3-45,13.9-64.4c-46.6-17.9-90.6-30.8-158-30.8s-111.4,12.9-158,30.8c9.6,19.3,13.9,42.7,13.9,64.4l0.1,208
	c0,32.1,13.9,44.3,39.7,55.6c23.1,11.6,44.4,18.3,69.8,25.7C330.5,599.2,341,603.6,349.3,618.1z"/>
<path class="st0" d="M351.8,246.3c1-2.6,3.5-4.5,6.5-4.5c3.4,0,6.3,2.5,6.8,5.9c1.4-0.9,3.1-1.4,4.9-1.4c5.1,0,9.2,4.1,9.2,9.2
	c0,1-0.2,2-0.5,2.9c9.5,6.3,18.2,18.2,21.6,29.2c2.5,1.8,5,4,7.3,6.5l7.7-5l0-0.3c-0.3-3.1,0.8-6.2,3.5-7.9c2-1.3,4.4-1.5,6.6-0.8
	l5.8-3.6c-0.2-0.3-0.4-0.6-0.6-0.9c-3-4.6-9.1-5.9-13.7-2.9c-5.1,3.3-5.2,9.8-4.9,14.8c-3.4-3.9-6.2-7-8-11.9
	c-1.9-5.4-2.4-11.3-1.1-17c1.7-8.2,6.6-15.2,13.6-19.8c12-7.9,27.7-6.4,38,2.9c3.1,2.8,4.9,5.3,6.6,9.2c-3.4-0.8-6.5-0.6-9.6,1.4
	c-4.2,2.7-5.6,8.9-3.1,13.3c3.3-2.7,5.4-6.2,7.4-9.9c12.7-0.9,24.6-5.6,36.1-9.6c-8.9,9.1-17.3,17.9-23.3,29.2
	c-4.2,0.3-8.3,0.9-12.2,2.8c4.6,9.3,4.5,20,0.1,29c-3.7,7.7-7.7,11.3-15.4,14.1c2.5-3.9,3.7-7.3,3.5-11.9
	c-0.3-6.3-2.8-14.4-5.3-19.9l-5.4,3.7c-0.3,2.2-1.3,4.3-3.4,5.7c-2.7,1.7-6,1.4-8.7,0l-0.2-0.1l-7.1,4.6c4,6.5,6.4,13.9,6,20.8
	c-1.7-2.8-3.3-4.5-6.1-6.4c3.8,7.9,4.4,16.2,3.2,24.6c-1.1,8-2.7,15.9-3.8,23.9c-1.9,13.1-1.5,28.8,3.2,40.4
	c6.6,8.6,9.5,19.8,9.8,30.7c0.3,11.2-4.6,23.3-1.4,34c-3-0.5-6-2.2-7.6-4.9c1.4,8.9-1.2,17.3-3.2,25.9c-2.1,8.9-2.9,15.7,0.1,24.1
	c4.8,13.2,6.9,27.4,1.8,40.5c-3.6,9.4-13.1,16.9-22.2,21.5c-4.8,2.4-10,4.1-15,3c-2.8,1.4-5.4,3.5-7.5,6.1c-1.1,1.3-1.2,0.7-1.3-0.2
	c-0.2-3.1,1-6,3.1-8.2c-0.7-0.4-1.3-0.8-1.9-1.2c-3.4,0.9-6.7,2.7-9.6,5.1c-1.4,1.2-1.5,0.5-1.4-0.5c0.5-3.9,3-7.2,6.4-9.1
	c-0.4-0.6-0.7-1.1-1.1-1.7c-2.9,0.6-5.8,1.6-8.5,2.8c-2,0.9-1.8,0.2-1.4-0.8c1.5-3.4,4.6-6.1,8.3-7.6c0-0.6,0-1.2,0-1.8
	c-2.5,0.3-5,0.8-7.5,1.5c-2.3,0.7-2-0.1-1.3-1.1c2.5-3.5,6.4-5.8,10.6-6.9c1.7-2.9,4.5-4.2,8.3-4.8c2.5-0.4,5.3-1,7.2-2.9
	c2.4-2.3,2.7-5.8-0.4-8.9c-8.8-9-16-18.4-16.9-33.5c-5.2-2.4-8.5-7.5-10.4-12.7c-0.9,6.9-4.3,13.3-8.8,18.5
	c-2.8,5.9-3.8,12.2-5,18.5c-1.9,10.2-5.8,19.3-11.5,26.6c-11,14.1-44.7,7.1-51-8.9c-2.7-1.6-5.9-2.6-9.2-3c-1.6-0.2-1.2-0.7-0.5-1.2
	c2.5-1.8,5.6-2.4,8.6-1.8c0-0.8,0-1.5,0-2.3c-2.6-2.3-6-4.2-9.5-5.4c-1.8-0.6-1.2-1-0.3-1.4c3.6-1.7,7.7-1.3,11.1,0.5
	c0.3-0.6,0.6-1.2,0.9-1.8c-2-2.1-4.4-4-7-5.6c-1.8-1.1-1.1-1.4-0.1-1.6c3.7-0.6,7.6,0.6,10.9,2.9c0.5-0.3,1-0.7,1.5-1
	c-1.6-2-3.4-3.8-5.3-5.5c-1.8-1.6-1-1.7,0.2-1.6c4.3,0.2,8.3,2.2,11.5,5.2c3.4-0.1,6,1.6,8.5,4.4c1.4,1.6,3.1,3.3,5.2,4.1
	c0.4-1.1,0.2-2.6-0.1-4c-2.1-9-2.8-19,0.2-27.9c-3.7-6.3-5.3-12.1-5.3-19.2c0.2-20.3,11.7-39.9,25.1-54.4c-3-8-4.9-16.8-5.4-25.4
	c-4.3-1.5-8.1-3.9-11.2-7c-8.1,1.3-15.6-0.6-23.3-3c-1,4-3.1,7.5-6.2,9.8c0.7,2.2,1.9,4.2,3.3,6c0.9,1,0.3,1.1-0.4,1.1
	c-3.2,0-6-1.9-7.4-4.8c-0.4,0.1-0.9,0.3-1.4,0.4c-0.4,2.9,0.2,5.9,0.9,8.8c0.3,1.5-0.2,1.3-0.8,1c-3.2-1.7-5.3-5.4-4.8-9.6
	c-0.5-0.1-1-0.1-1.5-0.2c-1.2,3-1.8,6.3-1.9,9.6c0,1.7-0.5,1.4-1.1,0.8c-2.8-2.9-4-7.9-2.6-12.3c-0.3-0.1-0.5-0.3-0.8-0.4l-1,0.6
	c-1.1,1.6-2.1,3.4-2.8,5.4c-0.6,1.8-1,1.3-1.3,0.5c-0.4-0.9-0.6-1.8-0.7-2.7l-8.6,5.6c-1.9,1.2-2.9,3.1-3.6,5.2l-0.8,2.3l-2.4-0.4
	c-3.1-0.5-5.6-2-7.3-4.6c-1.7-2.6-2-5.5-1.3-8.6l0.6-2.3l2.4,0.2c2.2,0.2,4.3,0,6.2-1.2l14.7-9.6c-0.4-3.7,0.4-7.4,2-10.9
	c6.3-13.6,25-24.6,39.4-27.8c-10-11.6-17.6-27.7-20.8-42.5c-9.2-3.9-20.4-11.3-22.8-21.7c-2.6-0.4-5.4-0.2-8,0.4
	c-1.4,0.3-1.2-0.2-0.8-0.8c1.8-2.8,5.1-4.5,8.4-4.7c0-0.6,0.1-1.2,0.2-1.8c-2.3-1.3-5.2-2-7.9-2.5c-1.5-0.3-1.1-0.7-0.4-1.1
	c3-1.9,6.8-2.4,10-1.2c0.4-0.7,0.8-1.3,1.3-1.9c-1.8-1.7-4-3.2-6.3-4.3c-1.5-0.7-1-1.1-0.1-1.3c3.7-1.2,8.3-0.5,11.5,1.8
	c0.7-0.3,1.3-0.4,2.1-0.6c-0.8-1.8-1.9-3.4-3.4-4.9c-1.3-1.3-0.6-1.4,0.3-1.4c4.8,0.1,8.9,3.3,11,7.6c0.9,0.4,1.8,1,2.6,1.5
	c3.1,2,4.9,4.6,7.3,7.1c4,4.1,9.2,6.3,14.2,9c5.5,2.9,10.3,7.6,14.2,12.4c4.1,5.1,8.1,11.2,13.1,13.2c1.9,0.7,3.8,1,5.5,0.8
	c4.8-0.6,6.9-4.9,2.3-7.9c-3.1-2-5.7-5-7-9.4c-2.2-6.8-2.7-11.3-10.7-13.8c-5.3-1.7-11.6-4.2-12.1-10.3c-0.2-2.1,1-3.1,3.1-1.9
	c3.8,2.2,7.3,2.2,11.6,1.9c-7.8-2-17.5-6.7-17.2-16.4c-1.1-2.4-1.5-5.2,0.2-7c2.5-2.6,5.8-1.7,8.3,0.1c3.9,0.8,8.5,1.7,12.5,0.2
	c2.9-1.1,2.7-4.8,5.9-6.4C330,244,342.5,244.3,351.8,246.3L351.8,246.3z"/>
<path class="st6" d="M258.9,390.3c4.7-1.9,12.7-2.8,21-1.3c7.6,1.4,14,4.8,22,4.6c-3.7-0.4-6.9-1-10-2.2c-1.6-0.4-1.9-1.5-0.2-2.3
	c1.3-0.6,2-1.3,2.8-2.5c-4.8,1.3-9.7,2.3-14.3,0.6c-0.9-0.3-1.2-1.3-0.2-1.9c1.1-0.6,1.9-2.3,1.8-3.5c-3.2,3.4-8,3.9-12.4,4.7
	C265.8,387.1,262.5,387.6,258.9,390.3z M296.7,358.5c13.9-2.5,27.8-3.6,41.6-0.1c8.8-9.2,20.2-16.4,32.8-18.7
	c-10.4,3.6-20.5,9.8-26.9,19c5.1,1.8,8.6,3.5,12.8,7C337.6,359,317.2,357.8,296.7,358.5L296.7,358.5z M316.7,352.9
	c2.4-5.4,6.5-9.1,12.3-10.5c-2.1-0.7-6.1-0.5-8,0.5c2.1-6.1,6.5-8.2,12.6-9.4c-1.7-0.6-4.7-1.1-6.5-0.5c3.2-6.3,9.7-7,12.5-7.2
	c-1.7-0.9-5-1.2-6.8-0.5c3.2-3.6,4.1-8.7,1.1-13.8c1.3,6.1-0.7,9.5-5.4,15.8c-5.8,7.7-12.9,15.6-13.5,25.7L316.7,352.9L316.7,352.9z
	 M263.9,278.2c-6.7-0.4-9.9,4.5-9.1,10.5c0.9-4.3,4.2-7,7.7-7.2c5.6-0.4,9.4,6,10.6,10.8c1.7,6.6,3.4,13.1,4.9,19.8
	c1.5,7,3.9,15.3,7.3,21.2c-1.9-5.4-3.5-11.9-4.3-16.2c1.5,1.4,4.6,2.5,6.6,2.7c-5.9-3.4-9.2-10.3-10-17.1c1.3,1.9,5.5,2.7,7.1,2.8
	c-5.4-3.3-8.2-6.4-9.6-13.5C273.7,285.4,270.3,278.6,263.9,278.2L263.9,278.2z M328.4,321.7c-4,1.1-8.4,0-11.8-2.3
	c1.9,3,5.8,4.6,9.8,5.3L328.4,321.7z M325,421.4c6,15,13.5,30.8,24.8,42.6l-0.3,5.7C339,456.1,329.9,437.8,325,421.4L325,421.4z
	 M319.5,399.9c12,6.2,31.6,1.2,41.1-4.9c-0.5,4.5,1.2,7.4,4.1,10c-0.2-5.9,6.7-9.4,9.1-14.5c9.7-6.4,17.1-15.6,16.5-26
	c-0.5,3.5-2.3,9-4.8,11.6c0.1-1.8-0.9-4.8-2.1-6.1c1.8,7.1-4,13.3-8.2,16.1c0.4-2.8-0.6-6.7-1.7-8.6c0.4,4.4,0.1,8.4-1.8,12.1
	c-2.6,5.1-5.8,6.3-7.8,10.3c-2.4-2.4-1-7.9-1-12.4c-1.4,5.3-8.3,9.2-13.1,10.4c1-1.5,1.5-4.8,1.2-6.3c-2.1,5.9-8.7,8.5-14.1,9
	c2.2-1.4,3.1-4.3,2.8-6.5C337.1,400.5,327.5,401.6,319.5,399.9z M372.4,428.8c-20,12.5-22.2,42.4-15.7,63c-1-8.2-1-18.1,5.9-23.9
	c-3.2,0.4-5.9,2.2-7,4.8c0.4-9.2,3.6-15.9,9.2-19.8c-2.6,0.2-5.6,1.6-7.4,3.6c0.8-7.5,5.6-13.1,10.9-15.3c-1.3-0.2-4.1,0.2-5.3,0.9
	C364.2,437.8,369.1,431.5,372.4,428.8L372.4,428.8z M367.8,565.1c0,4.5,2.8,7.9,6.7,10.3c-5.3-6.1-6.6-17.2,5.6-18.1
	c-1.8-0.7-3.5-1-5.2-0.9C370,556.9,367.8,560.6,367.8,565.1L367.8,565.1z M280.8,543.6c-2-4.2,1-9.1,4.3-11.8
	c4.7-3.8,9.2-1.3,11,3.5c3.6,9.5,7.2,21.3,18,24.5c-9.1,0.9-17.4-12.5-20.8-21c-1.1-2.7-2.7-5.4-6.1-4.5
	C283.2,535.4,280.6,539.8,280.8,543.6L280.8,543.6z M335.2,269.4c2.5,0.4,5.3,0.1,7.2-2.3c-1.1,0-1.8-0.2-2.8-0.6
	C338.5,268.1,337.1,268.9,335.2,269.4L335.2,269.4z M326.1,265c-0.1,1.2,0.1,2.4,0.3,3.4c0.1,0.7,0.4,1.3,1.3,1.4
	c1.6,0.2,3.1,0.1,4.6-0.2l0,0C329.6,269.2,327.2,267.5,326.1,265L326.1,265z M334.6,260.1c2.6,2.9,4.8,4.9,9.2,5.6
	c-3.2-1.5-5.2-3.4-6.9-6.4c-1-1.7-2-3.5-3-4.5c1.1-1.3,2.6-1.5,4.3-1.4c-2.5-2-7.1-0.7-9.2,1.5C331.1,255,333.2,258.5,334.6,260.1
	L334.6,260.1z M360,252.2c-9.5-4.7-23.9-7.1-33.9-3.1c-1.5,0.6-2.3,1.5-2.9,2.6c-0.9,1.6-1.4,3.4-3.5,4.2c-3.8,1.4-9.5,0.7-13.6,0.4
	c3.8,1.4,8.3,1.8,12.2,1.9c4.9,0.2,6-3.1,7.9-6.8C334.7,246.4,351.5,249.6,360,252.2z M313.3,285.3c-2.3-1-4.5-2.4-6.4-4
	c-1.1-0.9-1.5-2.2,0.4-2.4c-1.4-0.2-2.9-0.5-4-1.2c-1-0.7-2-0.5-1.8,0.7c0.2,1.4,1.3,2.7,2.5,3.6
	C306.4,283.8,310.3,284.4,313.3,285.3L313.3,285.3z M321.2,279.9c-1.3-4.4-6.1-6.1-10.2-7.4c-5.3-1.6-10.4-4.7-9.9-11
	c-0.9-0.6-1.4-1.9-1.3-2.9c0.1-1.1,0.9-1.3,1.7-0.6c0.7,0.7,0.9,1.3,0.9,2.2c0.1,1.2,1.3,1,1.6,0c0.6-2.2-0.9-4.7-2.9-5.5
	c-1.8-0.8-3.8,0.1-3.9,2.1c-0.1,1.6,0.9,3.4,1.7,4.4c-0.2,7.5,6.7,11.6,11.4,12.9C314.8,275.2,318.4,275.4,321.2,279.9L321.2,279.9z
	 M363.4,254c2.2-5.2,10.3-6.1,11.7,0.1c0.8,3.4-0.3,6.7-2.7,9.3c-1.6,1.7-4.8-0.1-2.4-2.7c0.9-1,1.7-2.1,1.9-3.6
	c0.3-2.1-0.8-3.9-2.4-4.6C367.6,251.7,364.9,252.5,363.4,254z M324.1,274.7c1.7,0.6,3.1,2.4,3.5,4.7c0.4,2.4-0.4,5.9-3.3,6.4
	c-1.5,0.3-3-0.1-3.6-2.4c0.5,0.6,0.9,0.8,1.6,0.6c2.7-0.5,3.8-3.7,3.3-6.1C325.5,276.7,324.9,275.5,324.1,274.7L324.1,274.7z
	 M372.8,507.5c12.3-2.4,24.7-11.8,24.3-25.5c-0.5,2.9-2.5,8.4-4.6,10.7c0.2-1.4-0.2-5.6-1-6.7c0,8-3.5,12-8.3,14.9
	c1.1-2.6,0.6-6.4,0.1-8.2C382.7,499.3,379.8,503.5,372.8,507.5z M313.3,502.3c12.5-1.5,25.4-10.1,26-23.8c-0.7,2.9-3,8.2-5.3,10.4
	c0.3-1.4,0.2-5.6-0.5-6.7c-0.6,8-4.3,11.8-9.3,14.4c1.3-2.5,1-6.4,0.6-8.2C323.7,494.7,320.6,498.7,313.3,502.3L313.3,502.3z
	 M316.7,287.8c4,1.8,5.6,7.1,6.8,11c1.3,4.1,3.7,7.9,8.2,9.8c-5.9-5.6-5-12.6-0.4-16.3c-3,1.7-4.9,3.8-5.8,5.8
	C324.6,293.6,322.2,288.5,316.7,287.8z M338.3,311.6c9.7,1.8,18.8-1.7,25.2-9c5.8-6.6,10-16.9,5.1-25.2c0.8,3.6,1.2,9.7-1.7,13.5
	c-0.8-2.6-2.4-4-5-5.1c3.7,4,3.7,13.2-2.2,17.3c0.5-3.6-0.3-6.8-3.4-9.1c3.4,5.8,0.7,13.1-7.3,15.6c1.9-2.5,2.1-5.1,1.3-8.1
	C349.5,308.2,345.5,311,338.3,311.6z"/>
<path class="st4" d="M421.2,295.1l-89.5,58.4c-3-0.4-6.1-0.7-9.1-0.8l95.8-62.4C421.3,288.3,424.8,292.7,421.2,295.1L421.2,295.1z
	 M272.8,391.8l-29.1,19c-2.5,1.6-3.8,4-4.8,6.7c-2.4-0.4-4.2-1.5-5.4-3.4c-1.2-1.9-1.5-3.9-0.9-6.3c2.8,0.2,5.5,0,8-1.7l18.3-12
	l1.2-0.5C263.8,392.2,268.5,391.7,272.8,391.8L272.8,391.8z"/>
<path class="st1" d="M453,278.3c6.6,12.3,3.8,27.6-6.5,36.8c2.1-7.7-2-21.2-5.7-28.4L453,278.3z"/>
<path class="st1" d="M432.4,290.2c-0.1-0.4-0.4-1.8-0.4-1.8l18.3-12.5c4.6-3.3,9.5-4.7,15-5.3c2.9-5.3,6.6-10.2,10.6-14.6
	c-4.2,2.9-9.2,8.5-11.7,13c-5.4,0.6-10.3,2.2-14.9,5.5l-18.1,12.3c-0.8-1.1-2.2-1.8-3.6-1.7c1.2,0.6,2,1.9,2.5,3.1
	c1.3,3.2,0.8,6.6-1.5,8.1c-1.6,1.1-3.8,0.9-5.7-0.1c4.2-3.6-0.4-9.8-4.9-7.6c-0.2-2.2,0.6-4.2,2.2-5.3c1.5-1,3.5-0.9,5.3-0.1
	l9.4-5.9c-0.7-1.2-1.6-2.4-2.2-3.3c-3.8-5.9-11.7-7.5-17.6-3.7c-3.6,2.4-5.6,6.2-5.8,10.2c-8.6-13.2-4.9-30.8,8.3-39.4
	c12.6-8.2,29.3-5.2,38.3,6.7c-2.2,0.1-4.4,0.8-6.4,2.1c-5.9,3.8-7.3,12.1-3.7,17.6c0.4,0.6,0.8,1.5,1.3,2.2c4.5-2.8,7.5-6.7,10-11.3
	c9-0.6,17.3-3.2,25.6-6.6c-6.5,6.2-12.2,12.8-16.4,20.8c-5.1,0.4-9.7,1.5-13.9,4.3L432.4,290.2L432.4,290.2z"/>
<path class="st0" d="M445,251.7c-2.6-2.4-6-3.9-9.5-4.3c-6.8-0.8-13.3,2.2-16.8,8c-2.3,3.7-3.2,7.9-2.6,12.1l-1.7,0.8
	c-0.6-4.8,0.1-9.4,2.7-13.6c3.9-6.5,11.2-10,18.7-9.1c3.9,0.5,7.5,2.1,10.5,4.7L445,251.7z"/>
<path class="st1" d="M338,265.5c-1.1,1.4-2.8,2.4-4.8,2.4c-3.3,0-6-2.7-6-6c0-1.3,0.4-2.6,1.2-3.5c1.2-0.2,2.2,0.1,3,0.8
	c-0.9,0.6-1.7,1.8-1.8,3.2c-0.1,1.3,0.2,2.6,0.9,3.3c0.5,0.6,1.2,0.9,2,0.8c1.4-0.1,2.2-1.6,1-2.7c-0.3,0.4-0.7,0.7-1.1,0.6
	c-0.7-0.1-1.1-0.8-1-1.7c0.1-0.9,0.7-1.5,1.4-1.5c0.4,0,1.1,0.5,1.8,1.3C335.5,263.7,336.7,264.6,338,265.5L338,265.5z"/>
<path class="st0" d="M349.3,617.7c-6.9-12-18.6-20.5-33.5-20.2c-10.8,0.2-20.3,5.2-26.6,13.1c-0.5-0.1-1-0.3-1.5-0.4l-0.3-0.1
	c-0.8-6.8-3.2-13.3-7.5-18.9c-7.3-9.5-18.6-15.1-30.1-17.5c-32.2-6.7-62.6,6.5-91.1,19.7c-3.1,1.4-6.1,3-9,4.6c-3.6,2-7.2,4-10.8,6
	c-8.2,4.6-16.5,9.2-25.1,13.2c-2,0.9-4,1.8-6,2.7c-2.2-10.7-12.4-10.5-18.2-7.6c4.1,1.8,7.9,4.9,6.4,9.1c-1.6,4.5-11.3,6.4-15.4,6.9
	c-9,1.2-18.3,0.4-25.2-6.2c-7.7-7.4-8.7-22.6-1.7-30.8l0.3-0.3c1.7-2,4.2-3.4,6.9-4.4c0.7,0.4,1.8,2.2,2,2.5
	c1.4,2.1,2.8,4.1,5.2,5.2c0.5,0.2,1,0.4,1.6,0.5c2.4,0.5,4.6,0.1,6.3-0.9c0.1,0.2,0.1,0.5,0.2,0.7c0.7,3,1.7,6,3.9,8.2
	c1.8,1.8,4,2.8,6.5,3.1c3,0.3,5.9-0.5,8-2.8c0.8-0.9,1.5-2,1.9-3.2c1.3,1.1,2.6,1.9,4.2,2.5c3.6,1.3,7.5,1.1,10.9-0.8
	c4.9-2.8,7-8.2,6.2-13.7c-1.1-6.9-5.6-10.3-11.2-11.9c1.4-2.8,1.5-6.3-0.2-9c-3.7-6-11.8-4.8-17.9-2.3c-0.5-2.2-2.1-3.9-4.3-4.7
	c-2.4-0.9-5.1-0.5-7.4,0.5c-1.6,0.6-2.9,1.6-4.1,2.7c-3.2-5.3-8.2-4.8-12.9-3.3c5.5,3.5,3.6,10.8-0.5,12.4c-6,1.5-11.5,4.6-15.6,9.2
	c-6.2,7-8.8,16.5-8.4,25.8c0.4,9.2,4,18.5,10.7,24.9c19.9,19.1,50.8,8.2,72.4-1.8c7.2-3.3,14.2-7,21.1-10.8
	c5.8-3.2,14.8-6.6,21.3-3.8c4.2,1.8,3,7.5,1.8,11.1c5.2-2.6,9.9-5.3,9.6-12.1c-0.1-3.7-2.1-7.4-5.3-9.7
	c20.8-9.6,43.4-19.6,66.6-19.3c12,0.2,25.4,6.2,26.8,20.3c3.4-1.1,6.1-3.7,7-8.6c3.5,3.7,5.7,8.2,6.4,13.5c-2.3,1.1-4.3,2.8-5.3,5.3
	c-0.4,0.9-0.2,0.3-0.4,1.3c-0.7,3.2,0.5,6.2,2.5,8.5c-1.4,1.9-3.2,3.5-5.3,4.6c-2.5-2-2.8-9.6-8.2-10c2.4-6.7-3.6-11.9-7.9-10.8
	c2.9-10.2-4.3-18.5-13.2-17.6c-4.2,0.4-8.2,2.1-10.6,5.7c-2.4,3.6-2.6,8.1-1.9,12.5c-0.8,0-1.6,0.2-2.4,0.4
	c-3.6,1.1-6.3,4.1-7.1,7.8c-1,4.4,0.8,8.6,3.9,11.7c2.8,2.8,6.2,4.5,9.8,5.6c-1,1.6-1.6,3.6-1.4,5.7c0.4,6.6,6.9,10.6,13.1,9.6
	c1.5-0.2,3-0.7,4.4-1.3c0.4-0.2,0.9-0.4,1.3-0.5c0,0.1,0,0.1,0,0.2c1.4,4.6,6.7,6.3,11,5.8c1.9-0.2,3.7-0.8,5.3-1.7
	c2.8,9.1,12.1,7.8,16.6,5.8c-5.1-2.4-7.6-5-4.7-11.2c1.4-2.9,3.6-5.8,4.9-7.1c0.6-0.6,1.2-1.3,1.8-2c-0.3,9.6,1.3,19.8,6.6,26.5
	c2.6,3.2,6.8,5,10.6,2.9c0.7-0.4,1.4-0.9,1.9-1.5c1.3,2.9,2.9,5.5,5.8,7.6c5.2,3.7,13.2,4,16.9-2c1.5-2.5,1.8-5.2,1.2-7.8
	c3.9-0.1,7.7-1,10.5-3.6c3.1-2.9,4-6.9,3.7-11c-0.5-7.6-7.7-11.1-14.3-10c-0.3-3.8-3-6.7-6.8-7.6c-4.3-1.1-8.5,0.8-10.9,4.5
	c-2.1,3.1-4.3,4.7-8,3.3l-0.4-0.2c-1-2.5-1.5-5.2-1.6-7.9c3.6-1.1,7-3.6,7.8-7.5c0.2-1,0.1-0.4,0.2-1.4c0.1-2.4-0.8-4.5-2.1-6.4
	c4.2-3.7,9.7-6,15.4-6.1c3.2-0.1,6.2,0.5,9,1.7c-2.6,2.3-4.1,5.7-4.1,9.2c0,6.7,6.2,9.6,9.8,9.9c-1-2.6-1.6-4.7-0.7-6.8
	c0.7-1.7,2.4-2.8,4.3-2.8c0.9,0,1.7,0.4,2.4,1c-2.2,1.7-3.9,4-4.6,6.9c-0.2,0.7-0.3,1.5-0.3,2.3c0,3.8,2.1,7,5,9.3l0.3,0.2
	c1.2,5.8,5.7,13.4,11.1,15.1l1.1,0.3l1.1-0.3c5.5-1.7,9.9-9.3,11.1-15.1l0.3-0.2c3-2.2,5-5.5,5-9.3c0-0.8-0.1-1.5-0.3-2.3
	c-0.7-2.9-2.4-5.2-4.6-6.9c0.7-0.6,1.5-1,2.4-1c1.9,0,3.6,1.2,4.3,2.8c0.9,2.1,0.3,4.2-0.7,6.8c3.6-0.4,9.7-3.2,9.8-9.9
	c0-3.5-1.6-6.8-4.1-9.2c2.8-1.2,5.8-1.8,9-1.7c5.6,0.1,11.2,2.4,15.4,6.1c-1.4,1.9-2.2,4-2.1,6.4c0,1,0,0.4,0.2,1.4
	c0.9,3.9,4.2,6.3,7.8,7.5c0,2.7-0.6,5.4-1.6,7.9l-0.4,0.2c-3.7,1.4-6-0.2-8-3.3c-2.4-3.7-6.5-5.5-10.9-4.5c-3.8,0.9-6.5,3.9-6.8,7.6
	c-6.6-1.1-13.8,2.4-14.3,10c-0.3,4.1,0.6,8.1,3.7,11c2.8,2.6,6.6,3.6,10.5,3.6c-0.7,2.5-0.4,5.3,1.2,7.8c3.7,5.9,11.7,5.6,16.9,2
	c2.9-2,4.5-4.7,5.8-7.6c0.5,0.6,1.2,1.1,1.9,1.5c3.8,2.1,8.1,0.3,10.6-2.9c5.3-6.7,6.9-16.9,6.6-26.5c0.6,0.7,1.1,1.4,1.8,2
	c1.3,1.3,3.5,4.1,4.9,7.1c2.9,6.2,0.4,8.8-4.7,11.2c4.4,2,13.8,3.3,16.6-5.8c1.6,0.9,3.4,1.5,5.3,1.7c4.3,0.5,9.6-1.3,11-5.8
	c0-0.1,0-0.1,0-0.2c0.4,0.2,0.9,0.4,1.3,0.5c1.4,0.6,2.9,1,4.4,1.3c6.2,0.9,12.7-3,13.1-9.6c0.1-2.1-0.4-4.1-1.4-5.7
	c3.6-1.1,7.1-2.8,9.8-5.6c3.1-3.1,5-7.3,3.9-11.7c-0.8-3.6-3.5-6.7-7.1-7.8c-0.8-0.2-1.6-0.4-2.4-0.4c0.8-4.3,0.6-8.8-1.9-12.5
	c-2.4-3.6-6.4-5.3-10.6-5.7c-8.9-0.9-16.1,7.3-13.2,17.6c-4.3-1.1-10.3,4.1-7.9,10.8c-5.4,0.4-5.7,8.1-8.2,10
	c-2.1-1.1-3.9-2.7-5.3-4.6c2-2.4,3.2-5.4,2.5-8.5c-0.2-1,0-0.4-0.4-1.3c-1-2.5-3-4.2-5.3-5.3c0.7-5.3,2.9-9.8,6.4-13.5
	c0.9,4.9,3.6,7.5,7,8.6c1.4-14.1,14.8-20.1,26.8-20.3c23.2-0.4,45.8,9.7,66.6,19.3c-3.2,2.3-5.2,5.9-5.3,9.7
	c-0.3,6.8,4.4,9.5,9.6,12.1c-1.2-3.5-2.4-9.2,1.8-11.1c6.5-2.8,15.5,0.6,21.3,3.8c6.9,3.8,13.9,7.5,21.1,10.8
	c21.5,10,52.4,20.9,72.4,1.8c6.7-6.4,10.3-15.7,10.7-24.9c0.4-9.2-2.2-18.8-8.4-25.8c-4.1-4.6-9.6-7.6-15.6-9.2
	c-4.2-1.5-6-8.9-0.5-12.4c-4.6-1.5-9.7-2-12.9,3.3c-1.2-1.2-2.5-2.1-4.1-2.7c-2.3-0.9-5-1.4-7.4-0.5c-2.1,0.8-3.7,2.5-4.3,4.7
	c-6.1-2.6-14.2-3.8-17.9,2.3c-1.7,2.8-1.6,6.2-0.2,9c-5.6,1.6-10.2,5.1-11.2,11.9c-0.9,5.5,1.3,10.9,6.2,13.7
	c3.3,1.9,7.3,2.2,10.9,0.8c1.6-0.6,2.9-1.4,4.2-2.5c0.4,1.2,1,2.2,1.9,3.2c2.1,2.3,5,3.1,8,2.8c2.5-0.3,4.8-1.3,6.5-3.1
	c2.2-2.2,3.2-5.2,3.9-8.2c0.1-0.2,0.1-0.4,0.2-0.7c1.7,1,3.8,1.4,6.3,0.9c0.5-0.1,1.1-0.3,1.6-0.5c2.4-1.1,3.8-3.1,5.2-5.2
	c0.2-0.4,1.3-2.1,2-2.5c2.7,0.9,5.1,2.4,6.9,4.4l0.3,0.3c6.9,8.2,6,23.4-1.7,30.8c-6.9,6.6-16.2,7.4-25.2,6.2
	c-4-0.5-13.8-2.4-15.4-6.9c-1.5-4.2,2.3-7.3,6.4-9.1c-5.9-2.9-16.1-3.1-18.2,7.6c-2-0.9-4-1.8-6-2.7c-8.5-4-16.8-8.6-25.1-13.2
	c-3.6-2-7.2-4-10.8-6c-3-1.6-6-3.2-9-4.6c-28.6-13.2-58.9-26.4-91.1-19.7c-11.5,2.4-22.8,8-30.1,17.5c-4.3,5.6-6.8,12.1-7.5,18.9
	l-0.3,0.1c-0.5,0.1-1,0.2-1.5,0.4c-6.3-7.8-15.8-12.9-26.6-13.1C367.9,597.2,356.2,605.7,349.3,617.7L349.3,617.7z"/>
<path class="st3" d="M286.9,613.6c7.8,1.7,13.3,6.7,12.3,11.2c-0.5,2.3-2.7,4.1-5.8,5c-0.1-0.8-0.1-1.6,0.3-2.5
	c0.3-0.2,0.5-0.3,0.7-0.5c0.6-0.2,0.8,0.1,0.9-0.7c0.1-0.3-0.6-1-1.6-1.8c-4.4-3.6-11.7-5.3-17.5-4c-1.4,0.3-2.3,0.8-2.4,1.1
	c-0.2,0.8,0.3,0.8,0.9,1.3c0,0.1,0.1,0.1,0.1,0.2c-0.2,0.9-0.6,1.6-1.1,2.1c-2-2-3-4.2-2.6-6.3C272.1,614.2,279.2,611.9,286.9,613.6
	L286.9,613.6z M411.6,613.6c-7.8,1.7-13.3,6.7-12.3,11.2c0.5,2.3,2.7,4.1,5.8,5c0.1-0.8,0.1-1.6-0.3-2.5c-0.3-0.2-0.5-0.3-0.7-0.5
	c-0.6-0.2-0.8,0.1-0.9-0.7c-0.1-0.3,0.6-1,1.6-1.8c4.4-3.6,11.7-5.3,17.5-4c1.4,0.3,2.3,0.8,2.4,1.1c0.2,0.8-0.3,0.8-0.9,1.3
	c0,0.1-0.1,0.1-0.1,0.2c0.2,0.9,0.6,1.6,1.1,2.1c2-2,3-4.2,2.6-6.3C426.4,614.2,419.4,611.9,411.6,613.6L411.6,613.6z M271.9,643.7
	c-3,4-5.5,10.2-1.8,14.3c-4.9-0.1-7.4-6.8-5.3-11.7c-3,3.9-6.3,5.7-9.4,6c-5.8,0.6-10.1-3.9-5.3-8.2c-3.2,0.3-7.3,3.4-11.6,4.1
	c-4.1,0.6-8.8-1.8-9.1-6.4c-0.2-3.2,2-6.2,5.7-6c3.1,0.1,5.5,0.5,7.9,2.3c-1.7-2.9-4.9-3.2-7.8-3.6c-5.7-0.9-11.4-2.3-15.2-6.2
	c-8.6-8.5,2.1-18.9,8.6-11.1c-4.2-10.2-3.7-20.9,7.3-20.9c8.7,0,11.2,8.2,10.1,12c-1.1,3.8-1.6,7.3-1.4,10.2
	c2.2-10,12.4-3.1,8.6,2.9c-1.7,2.7-2.3,5.6-1.9,7.9c0.4-5.8,7-6.7,7.9-0.2c0.3,2,1.8,3.4,3.4,4.9c-7.5,2.1-15,0-20-4.9
	c-4.7-4.6-7.5-10.8-6.6-19.6c-3.3,7.2,0.1,16.5,5.5,21.7c3.7,3.5,9.8,6.9,16.2,6.8c8.5-0.1,15-6.3,18-13.9c1.7-4.3,7.7-2.4,6.6,1.4
	C279.9,634.2,276,638.4,271.9,643.7L271.9,643.7z M289.1,664.1c3.8,4.7,9.3,2,8.1-3.4c-0.6-2.9-1.9-4.9-4-6.8
	c2.9,1.2,4.4,2.8,5.6,5.2c2.5,4.8,3.6,10.4,7.8,13.3c4,2.8,9.5,2.8,11.8-0.9c2.4-3.9-0.1-8.2-3-10.2c10,2.2,18.5,0.2,17.8-10.1
	c-0.5-6.9-8.7-8.3-13.6-5.6c-2.1,1.1-3.7,2.9-5.9,3.7c3-1.8,4.8-4.7,5.2-7.1c0.3-3-1.7-4.9-4.1-5.5c-2.9-0.7-5.5,0.6-7.1,3
	c-3,4.5-6.9,6.6-12.2,4.7c2.1,4.9,11.9,14.2,25.7,9.5c-12.5,5.7-22.8,0.6-27.7-8.6c-2.3-4.4-2.6-10-2.1-14.8
	c0.1-0.7,0.2-2.2,0.4-2.9c0.9-4.5-5.9-5.6-6.8-2C282.4,636.5,281.7,654.9,289.1,664.1L289.1,664.1z M349.3,654.2
	c-4.6-1.4-8.4-9.2-8.9-13.6c2.4-5.9,15.4-5.9,17.9,0C357.7,645,353.9,652.8,349.3,654.2z M349.3,623.4c7.7,0,14,4.3,14,9.6
	c0,2.5-1.4,4.7-3.6,6.4c-3.2-6.8-17.5-6.8-20.7,0c-2.3-1.7-3.6-4-3.6-6.4C335.3,627.7,341.6,623.4,349.3,623.4L349.3,623.4z
	 M340.7,623.5c-1.5-2.4-3.6-4.2-6.5-4.2c-4.5,0-8.2,3.6-8.2,8.2c-3.8-5.3-0.3-13.2,6.6-13.6c-4.5-3.7-10.1-5.9-16.6-5.8
	c-7.5,0.1-14,3.6-18.3,8.9c-0.2-0.2-0.4-0.4-0.6-0.5c-1.6-1.3-3.5-2.4-5.5-3.2c5.7-7.3,14.4-12,24.3-12.2
	c14.3-0.3,25.5,8.5,31.6,20.7C345.2,621.9,342.9,622.5,340.7,623.5L340.7,623.5z M357.8,623.5c1.5-2.4,3.6-4.2,6.5-4.2
	c4.5,0,8.2,3.6,8.2,8.2c3.8-5.3,0.3-13.2-6.6-13.6c4.5-3.7,10.1-5.9,16.6-5.8c7.5,0.1,14,3.6,18.3,8.9c0.2-0.2,0.4-0.4,0.6-0.5
	c1.6-1.3,3.5-2.4,5.5-3.2c-5.7-7.3-14.4-12-24.3-12.2c-14.3-0.3-25.5,8.5-31.6,20.7C353.3,621.9,355.7,622.5,357.8,623.5
	L357.8,623.5z M409.5,664.1c-3.8,4.7-9.3,2-8.1-3.4c0.6-2.9,1.9-4.9,4-6.8c-2.9,1.2-4.4,2.8-5.6,5.2c-2.5,4.8-3.6,10.4-7.8,13.3
	c-4,2.8-9.5,2.8-11.8-0.9c-2.4-3.9,0.1-8.2,3-10.2c-10,2.2-18.5,0.2-17.8-10.1c0.5-6.9,8.7-8.3,13.6-5.6c2.1,1.1,3.7,2.9,5.9,3.7
	c-3-1.8-4.8-4.7-5.2-7.1c-0.3-3,1.7-4.9,4.1-5.5c2.9-0.7,5.5,0.6,7.1,3c3,4.5,6.9,6.6,12.2,4.7c-2.1,4.9-11.9,14.2-25.7,9.5
	c12.5,5.7,22.8,0.6,27.7-8.6c2.3-4.4,2.6-10,2.1-14.8c-0.1-0.7-0.2-1.4-0.3-2.1c-0.9-4.5,5.9-5.6,6.8-2
	C416.1,637.3,416.8,654.9,409.5,664.1L409.5,664.1z M426.6,643.7c3,4,5.5,10.2,1.8,14.3c4.9-0.1,7.4-6.8,5.3-11.7
	c3,3.9,6.3,5.7,9.4,6c5.8,0.6,10.1-3.9,5.3-8.2c3.2,0.3,7.3,3.4,11.6,4.1c4.1,0.6,8.8-1.8,9.1-6.4c0.2-3.2-2-6.2-5.7-6
	c-3.1,0.1-5.5,0.5-7.9,2.3c1.7-2.9,4.9-3.2,7.8-3.6c5.7-0.9,11.4-2.3,15.2-6.2c8.6-8.5-2.1-18.9-8.6-11.1
	c4.2-10.2,3.7-20.9-7.3-20.9c-8.7,0-11.2,8.2-10.1,12c1.1,3.8,1.6,7.3,1.4,10.2c-2.2-10-12.4-3.1-8.6,2.9c1.7,2.7,2.3,5.6,1.9,7.9
	c-0.4-5.8-7-6.7-7.9-0.2c-0.3,2-1.7,3.4-3.4,4.9c7.5,2.1,15,0,20-4.9c4.7-4.6,7.5-10.8,6.6-19.6c3.3,7.2-0.1,16.5-5.5,21.7
	c-3.7,3.5-9.8,6.9-16.2,6.8c-8.5-0.1-15-6.3-18-13.9c-1.7-4.3-7.7-2.4-6.6,1.4C418.6,634.2,422.6,638.4,426.6,643.7L426.6,643.7z
	 M635.2,573.4c-3.5-3-3.2-8.4-1.8-10.6c-3.8-0.3-6.4,4.7-4.4,7.7c-3.5-1.1-4.4-5-8.2-6.5c-4.6-1.8-7,0.2-7,2.4
	c0,2.2,2.4,4.8,7.4,4.4c-3.2,1-6.2,0.6-8.9-1c-3.8-2.3-13.5-6.1-16.7-0.8c-2,3.3,0,8.9,6.3,9.6c-7.3-0.1-15.9,1.5-17.3,10
	c-1.3,8,5.8,13.1,12.3,10.7c4.8-1.8,6.6-6.9,10.8-9.5c-4.1,4.3-3.2,13.5,4.1,12.7c8-0.9,6.9-11.1,9.4-15.8c1.6-3,3.9-5.4,7.3-4.7
	c-2.1,0.5-3.5,1.5-4.4,2.6c-3.2,3.8-0.5,7.8,4.2,6.9c2.9-0.6,4.2-4.5,6.4-6.7c3.6-3.6,8.9-0.2,12.6,4c8.5,9.6,7.5,27.2-1.7,36
	c-7.3,7-17.2,8.6-28.1,7.2c-5.6-0.7-16-2.9-18.2-9.2c-1.1-3.1-0.2-6.3,2-8.5c-5.3,0.2-8.4,6.2-6.8,11.2c-17.5-7-35.1-17.6-47.7-24.5
	c-9.8,0.4-20.1-3.9-23.6-6c-3.9-2.3-7.6-5.8-10.3-9.3c-20.3-7.8-41.4-12.9-63.3-8.4c-18.2,3.8-33.3,15.5-34.9,34.3
	c2.3-0.2,4.7-0.1,7,0.5c1-10.7,7.4-18.4,16.3-23.1c-3.6,3.2-4,8.7-0.9,12.2c0.7-12.1,17.2-18.2,28.3-18.4
	c24.5-0.4,48.2,10.4,70.2,20.6c2.2,1,4.6,2.2,7.1,3.6c-2.5-0.3-5.2-0.1-7.1,0.7c-4.9,2.2-7.2,8.6-3.7,12.7c0.1-3,1.9-5.9,4.8-7.2
	c7.7-3.3,17.5,0.2,24.4,3.9c29.2,15.9,67.2,34.3,89.3,13.1c10.5-10.1,13-28.8,5.3-41.4c-11.5-18.8-44.8-13.8-59.2,1.6
	C602.8,578.3,623.3,571.8,635.2,573.4L635.2,573.4z M63.3,573.4c3.5-3,3.2-8.4,1.8-10.6c3.8-0.3,6.4,4.7,4.4,7.7
	c3.5-1.1,4.4-5,8.2-6.5c4.6-1.8,7,0.2,7,2.4c0,2.2-2.4,4.8-7.4,4.4c3.1,1,6.2,0.6,8.9-1c3.8-2.3,13.5-6.1,16.7-0.8
	c2,3.3,0,8.9-6.3,9.6c7.3-0.1,15.9,1.5,17.3,10c1.3,8-5.8,13.1-12.3,10.7c-4.8-1.8-6.6-6.9-10.8-9.5c4.1,4.3,3.2,13.5-4.1,12.7
	c-8-0.9-6.9-11.1-9.4-15.8c-1.6-3-3.9-5.4-7.3-4.7c2.1,0.5,3.5,1.5,4.4,2.6c3.2,3.8,0.5,7.8-4.2,6.9c-2.9-0.6-4.2-4.5-6.4-6.7
	c-3.6-3.6-8.9-0.2-12.6,4c-8.5,9.6-7.5,27.2,1.7,36c7.3,7,17.2,8.6,28.1,7.2c5.6-0.7,16-2.9,18.2-9.2c1.1-3.1,0.2-6.3-2-8.5
	c5.3,0.2,8.4,6.2,6.8,11.2c21.8-8.7,43.7-23,56-28.7c27.8-12.8,57.6-26,88.9-19.5c18.2,3.8,33.3,15.5,34.9,34.3
	c-2.3-0.2-4.7-0.1-7,0.5c-1-10.7-7.4-18.4-16.3-23.1c3.6,3.2,4,8.7,0.9,12.2c-0.7-12.1-17.2-18.2-28.3-18.4
	c-24.5-0.4-48.2,10.4-70.2,20.6c-2.2,1-4.6,2.2-7.1,3.6c2.5-0.3,5.2-0.1,7.1,0.7c4.9,2.2,7.2,8.6,3.7,12.7c-0.1-3-1.9-5.9-4.8-7.2
	c-7.7-3.3-17.5,0.2-24.4,3.9c-29.2,15.9-67.2,34.3-89.3,13.1c-10.5-10.1-13-28.8-5.3-41.4c11.5-18.8,44.8-13.8,59.2,1.6
	C95.8,578.3,75.2,571.8,63.3,573.4L63.3,573.4z"/>
<path class="st0" d="M612.8,140.8c11,0.6,19.8,9.7,19.8,20.9c0,2.1-0.3,4.2-0.9,6.1c1,1.6,0.6,3.6-1.3,4.8c-1,0.6-1.9,1.7-2.5,2.7
	c-1,1.6-2.1,4.5-2.5,6.6l-8.7,8.8l-50-0.2l-9.3-8.8c-0.4-2.1-1.4-4.8-2.4-6.4c-0.6-1-1.5-2.1-2.5-2.7c-1.9-1.2-2.3-3.2-1.3-4.8
	c-0.6-1.9-0.9-4-0.9-6.1c0-11.2,8.8-20.3,19.8-20.9c0.1-0.6,0.3-1.1,0.7-1.6c2.2-3.1,7.4-2.2,9.3,0.8c0.5,0.7,0.9,1.5,1.3,2.3
	c0-0.8,0.3-1.6,0.8-2.3c-0.8-1.5-1.2-3.2-1.2-4.9c0-3.3,1.5-6.3,4-8.2c-0.9-1.3-1.4-2.8-1.4-4.5c0-4.4,3.6-8,8-8c4.4,0,8,3.6,8,8
	c0,1.7-0.5,3.2-1.4,4.5c2.4,1.9,4,4.9,4,8.2c0,1.8-0.4,3.5-1.2,4.9c0.5,0.7,0.8,1.5,0.8,2.3c0.4-0.8,0.9-1.5,1.3-2.3
	c0.8-1.2,2-2,3.4-2.4c2.1-0.6,4.6-0.2,5.9,1.7C612.5,139.7,612.7,140.2,612.8,140.8L612.8,140.8z"/>
<path class="st2" d="M571.1,143.9c0.5,0,1,0,1.4,0.1c3.4,5.7,6.4,13.6,7.5,20.8c-0.4-0.1-0.8-0.2-1.3-0.1c-0.3,0-0.5,0.1-0.7,0.2
	c0.2-0.6,0.3-1.3,0.2-1.9c-0.2-1.1-0.9-1.7-1.7-2.1c-1.2-5.4-3.2-11.1-5.5-14.4c1.4,3.5,2.8,9,3.5,13.9c-0.8-0.1-1.6,0-2.2,0.1
	c-2.1,0.3-5.3,1.6-4.8,4.2c0.1,0.6,0.4,1.1,0.8,1.6c-0.2,0-0.4,0-0.6,0c-1.7,0.3-2.5,1.7-2.7,3.3c-1-0.9-2.4-1.3-3.8-0.5
	c-0.2,0.1-0.4,0.3-0.6,0.4c0-0.4-0.1-0.8-0.4-1.2c-1.2-1.8-4-1.7-5.9-1c-0.6-1.8-1-3.8-1-5.8C553.3,151.9,561.3,143.9,571.1,143.9
	L571.1,143.9z"/>
<path class="st2" d="M573.4,142.8c3.9,6.2,7.2,15.2,8.1,23.1c0.1,0.2,0.3,0.3,0.4,0.5c0.5-1.5,1.6-2.6,3.1-2.6
	c-1.4-8-3.8-15.5-7.9-22.1C576.1,139.8,571.7,140,573.4,142.8L573.4,142.8z"/>
<path class="st2" d="M609.3,142.8c-3.9,6.2-7.2,15.2-8.1,23.1c-0.1,0.2-0.3,0.3-0.4,0.5c-0.5-1.5-1.6-2.6-3.1-2.6
	c1.4-8,3.8-15.5,7.9-22.1C606.6,139.8,611,140,609.3,142.8z"/>
<path class="st2" d="M598.1,143.6c-1.8,4.3-3.2,9.6-4,14.9c-0.3-0.1-0.6-0.1-0.9-0.2c0.1-0.3,0.2-0.6,0.2-0.9c0-0.6-0.2-1.1-0.6-1.5
	c0.7-0.5,1.2-1.3,1.2-2.2c0-0.8-0.4-1.6-1-2.1c0.9-0.6,1.6-1.6,1.6-2.8c0-1.1-0.5-2.1-1.4-2.7c1.2-0.7,2-1.9,2-3.4
	c0-0.4-0.1-0.8-0.2-1.1c0.8-0.4,2-0.5,2.7-0.2C598.3,141.8,598.5,142.5,598.1,143.6L598.1,143.6z"/>
<path class="st2" d="M589.9,155.9c-0.4,0.4-0.6,0.9-0.6,1.5c0,0.3,0.1,0.6,0.2,0.9c-0.3,0.1-0.6,0.1-0.9,0.2
	c-0.7-5.3-2.2-10.6-4-14.9c-0.5-1.1-0.3-1.8,0.3-2.2c0.7-0.4,1.8-0.3,2.7,0.2c-0.1,0.4-0.2,0.7-0.2,1.1c0,1.4,0.8,2.7,2,3.4
	c-0.8,0.6-1.4,1.6-1.4,2.7c0,1.2,0.6,2.2,1.6,2.8c-0.6,0.5-1,1.2-1,2.1C588.7,154.6,589.2,155.5,589.9,155.9L589.9,155.9z"/>
<path class="st2" d="M611.6,143.9c-0.5,0-1,0-1.4,0.1c-3.4,5.7-6.4,13.6-7.5,20.8c0.4-0.1,0.8-0.2,1.3-0.1c0.3,0,0.5,0.1,0.7,0.2
	c-0.2-0.6-0.3-1.3-0.2-1.9c0.5-2.6,3.9-2.9,5.9-2.5c2.1,0.3,5.3,1.6,4.8,4.2c-0.1,0.6-0.4,1.1-0.8,1.6c0.2,0,0.4,0,0.6,0
	c1.7,0.3,2.5,1.7,2.7,3.3c1-0.9,2.4-1.3,3.8-0.5c0.2,0.1,0.4,0.3,0.6,0.4c0-0.4,0.1-0.8,0.4-1.2c0.3-0.4,0.7-0.8,1.1-1
	c0.8-1.7,1.2-3.6,1.4-5.5c0.4-4-0.4-8.8-3-11.9c3.4,2.8,4.6,7.6,4.5,11.8c0,1.8-0.3,3.5-0.9,5.1c1,0,1.9,0.2,2.8,0.5
	c0.6-1.8,1-3.8,1-5.8C629.4,151.9,621.4,143.9,611.6,143.9L611.6,143.9z"/>
<path class="st2" d="M566.4,186.1l3.8-4.4l-10-1.9l-0.1,0c-0.2-0.8-0.5-1.6-0.8-2.5c1.2-0.7,1.5-2.3,0.9-3.5
	c-0.6-1.3-2.1-2.1-3.5-1.5l-0.1,0c-0.8-1-1.7-1.8-2.7-2.4c-0.5-0.3-0.2-0.6,0.2-0.8c1-0.5,3.9-1.2,4.8,0.1c0.3,0.5,0.2,0.9,0.1,1.9
	c-0.1,0.7,1.1,1.2,1.7,0.5c0.4-0.5,0.7-0.9,1.1-1.2c2.1-1.3,4.7,3.1,2.7,4.3c-0.6,0.4-1,0.1-2.3,0.4c-1.1,0.3-1.1,1.3,0,1.9
	c2.2,1.2,4.3-0.2,4.5-1.7c1.4,1.3,5.4,1.3,6.2-1.2c0.4-1.2-0.3-2.1-1.3-1.5c-1.1,0.6-1.9,1.3-2.7,1.4c-2.6,0.4-3.8-6-1.2-6.4
	c0.5-0.1,1.1,0.1,1.8,0.2c1,0.2,1.4-0.8,0.8-1.4c-0.8-0.8-1.4-1.5-1.6-2.1c-0.2-1.3,1.6-2.3,3.6-2.6c2-0.3,4.1,0.1,4.3,1.4
	c0.1,0.7-0.2,1.5-0.7,2.5c-0.4,0.7,0.4,1.6,1.2,1.1c0.6-0.3,1.1-0.6,1.6-0.7c2.6-0.4,3.8,6,1.2,6.4c-0.8,0.1-1.8-0.3-3.1-0.6
	c-1.2-0.3-1.6,0.8-0.7,1.8c1.7,2.1,5.5,0.9,6.3-0.6c1.2,1.6,5.5,2.2,6.9-0.3c0.7-1.2,0.1-2.3-1.1-1.8c-1.3,0.5-2.3,1.1-3.2,1.1
	c-2.9,0-2.9-7,0-7c0.5,0,1.2,0.2,1.9,0.5c1,0.4,1.7-0.7,1.1-1.4c-0.7-0.9-1.2-1.8-1.2-2.5c0-1.5,2.2-2.2,4.4-2.2
	c2.2,0,4.4,0.7,4.4,2.2c0,0.7-0.5,1.6-1.2,2.5c-0.5,0.7,0.1,1.7,1.1,1.4c0.7-0.3,1.3-0.5,1.9-0.5c2.9,0,2.9,7,0,7
	c-0.9,0-1.9-0.6-3.2-1.1c-1.2-0.5-1.8,0.6-1.1,1.8c1.4,2.5,5.7,1.9,6.9,0.3c0.8,1.5,4.6,2.6,6.3,0.6c0.8-1,0.5-2-0.7-1.8
	c-1.3,0.3-2.3,0.7-3.1,0.6c-2.6-0.4-1.5-6.8,1.2-6.4c0.5,0.1,1,0.4,1.6,0.7c0.9,0.5,1.6-0.4,1.2-1.1c-0.5-0.9-0.8-1.8-0.7-2.5
	c0.2-1.3,2.3-1.7,4.3-1.4c2,0.3,3.8,1.3,3.6,2.6c-0.1,0.7-0.7,1.4-1.6,2.1c-0.6,0.6-0.2,1.6,0.8,1.4c0.7-0.1,1.3-0.3,1.8-0.2
	c2.6,0.4,1.5,6.8-1.2,6.4c-0.8-0.1-1.6-0.8-2.7-1.4c-1-0.6-1.7,0.3-1.3,1.5c0.8,2.5,4.8,2.5,6.2,1.2c0.2,1.6,2.3,2.9,4.5,1.7
	c1.1-0.6,1.1-1.7,0-1.9c-1.2-0.3-1.6,0-2.3-0.4c-2-1.2,0.6-5.6,2.7-4.3c0.4,0.2,0.7,0.7,1.1,1.2c0.6,0.7,1.8,0.2,1.7-0.5
	c-0.1-1-0.3-1.4,0.1-1.9c0.9-1.4,3.8-0.6,4.8-0.1c0.4,0.2,0.7,0.4,0.2,0.8c-1,0.6-1.9,1.5-2.7,2.4l-0.1,0c-1.4-0.6-2.9,0.2-3.5,1.5
	c-0.6,1.2-0.3,2.8,0.9,3.5c-0.3,0.9-0.6,1.7-0.8,2.5l-0.1,0l-10.2,1.9l4,4.5c-0.5,1-0.8,2-1,3.1c-7.2-2.7-15.3-4.2-23.9-4.2
	c-8.6,0-16.7,1.5-23.9,4.2C567.3,188.1,566.9,187.1,566.4,186.1L566.4,186.1z"/>
<path class="st0" d="M591.4,164.5c1.9,0,3.4,1.5,3.4,3.4c0,1.9-1.5,3.4-3.4,3.4c-1.9,0-3.4-1.5-3.4-3.4
	C588,166,589.5,164.5,591.4,164.5z"/>
<circle class="st0" cx="573.7" cy="169.2" r="3.2"/>
<circle class="st0" cx="609" cy="169.2" r="3.2"/>
<circle class="st0" cx="575.8" cy="180.5" r="3.7"/>
<circle class="st0" cx="606.9" cy="180.5" r="3.7"/>
<polygon class="st0" points="591.4,184.2 582.6,179.4 591.4,174.6 600.4,179.6 "/>
<path class="st1" d="M591.4,169.8c-1.1,0-1.9-0.9-1.9-1.9c0-1.1,0.9-1.9,1.9-1.9c1.1,0,1.9,0.9,1.9,1.9
	C593.3,168.9,592.4,169.8,591.4,169.8z M573.7,171c-1,0-1.8-0.8-1.8-1.8c0-1,0.8-1.8,1.8-1.8c1,0,1.8,0.8,1.8,1.8
	C575.5,170.2,574.7,171,573.7,171z M609,171c-1,0-1.8-0.8-1.8-1.8c0-1,0.8-1.8,1.8-1.8c1,0,1.8,0.8,1.8,1.8
	C610.8,170.2,610,171,609,171z M624.2,176c0.5,0.3,1.3-0.1,1.6-0.8s0.2-1.5-0.4-1.7c-0.5-0.3-1.3,0.1-1.6,0.8S623.6,175.8,624.2,176
	z M558.6,176c-0.5,0.3-1.3-0.1-1.6-0.8s-0.2-1.5,0.4-1.7c0.5-0.3,1.3,0.1,1.6,0.8S559.1,175.8,558.6,176z M591.4,156.5
	c-0.5,0-1,0.4-1,1c0,0.5,0.4,1,1,1c0.5,0,1-0.4,1-1C592.3,156.9,591.9,156.5,591.4,156.5z M591.4,152.2c-0.9,0-1.5,0.7-1.5,1.5
	c0,0.9,0.7,1.5,1.5,1.5c0.9,0,1.5-0.7,1.5-1.5C592.9,152.8,592.2,152.2,591.4,152.2z M591.4,146.7c-1.2,0-2.1,1-2.1,2.1
	s1,2.1,2.1,2.1c1.2,0,2.1-1,2.1-2.1C593.5,147.6,592.5,146.7,591.4,146.7z M591.4,140c-1.5,0-2.7,1.2-2.7,2.7c0,1.5,1.2,2.7,2.7,2.7
	c1.5,0,2.7-1.2,2.7-2.7C594.1,141.3,592.9,140,591.4,140z"/>
<path class="st4" d="M575.8,178.2c-1.3,0-2.3,1-2.3,2.3s1,2.3,2.3,2.3s2.3-1,2.3-2.3S577,178.2,575.8,178.2z M606.9,178.2
	c-1.3,0-2.3,1-2.3,2.3s1,2.3,2.3,2.3s2.3-1,2.3-2.3S608.2,178.2,606.9,178.2z"/>
<path class="st3" d="M591.4,182.6l-6-3.3l6-3.3l6,3.3L591.4,182.6z M563.2,181.7l4.5,0.8l-1.9,2.2
	C565,183.6,564.2,182.6,563.2,181.7z M617,184.7l-1.9-2.2l4.4-0.8C618.6,182.6,617.7,183.6,617,184.7z"/>
<path class="st5" d="M585.9,160.4c-1.1-5-2.6-10-4.8-14.6c0.9-0.2,1.8-0.4,2.7-0.6c1.6,4.1,2.9,9,3.5,13.9
	C586.7,159.4,586.2,159.8,585.9,160.4z M596.8,160.4c1.1-5,2.6-10,4.8-14.6c-0.9-0.2-1.8-0.4-2.7-0.6c-1.6,4.1-2.9,9-3.5,13.9
	C596,159.4,596.5,159.8,596.8,160.4z"/>
<path class="st2" d="M588.9,126.1l1-1c0.3-0.3,0.3-0.8,0-1.2l0,0c-0.3-0.3-0.8-0.3-1.2,0l-2,2c-0.7-0.9-1.1-2.1-1.1-3.4
	c0-1.3,0.4-2.5,1.1-3.4l2,2c0.3,0.3,0.8,0.3,1.2,0l0,0c0.3-0.3,0.3-0.8,0-1.2l-2-2c0.9-0.7,2.1-1.1,3.4-1.1c1.3,0,2.5,0.4,3.4,1.1
	l-2,2c-0.3,0.3-0.3,0.8,0,1.2l0,0c0.3,0.3,0.8,0.3,1.2,0l2-2c0.7,0.9,1.1,2.1,1.1,3.4c0,1.3-0.4,2.5-1.1,3.4l-2-2
	c-0.3-0.3-0.8-0.3-1.2,0l0,0c-0.3,0.3-0.3,0.8,0,1.2l1.1,1.1c-0.5-0.1-0.9-0.2-1.4-0.3c-0.4-0.2-0.8-0.3-1.2-0.3
	c-0.4,0-0.9,0.1-1.2,0.3C589.7,126,589.3,126,588.9,126.1L588.9,126.1z"/>
<path class="st2" d="M592.7,133.4c2.3,0.2,4.5,0.9,6.4,1.8c0,0.7-0.1,1.3-0.3,2c-2.3-1.1-5-1.7-7.8-1.7c-2.6,0-5,0.5-7.1,1.4
	c-0.2-0.6-0.2-1.2-0.2-1.9l0-0.1c1.9-0.8,4.1-1.4,6.4-1.5v-5c0-0.7,0.6-1.3,1.3-1.3l0,0c0.7,0,1.3,0.6,1.3,1.3L592.7,133.4
	L592.7,133.4z M585.4,139.9c-0.4-0.5-0.8-1.1-1.1-1.7l0.1,0c2.1-0.9,4.3-1.3,6.5-1.3c2.5,0,5,0.5,7.2,1.6l0.1,0
	c-0.3,0.5-0.6,0.9-0.9,1.4c-1-0.2-2,0-2.9,0.5c-0.7-0.9-1.8-1.5-3-1.5c-1.2,0-2.3,0.6-3,1.5C587.4,139.9,586.4,139.7,585.4,139.9
	L585.4,139.9z M583.8,133.2c0.6-2.6,2.4-4.6,4.9-5.5c0,0.2-0.1,0.4-0.1,0.6v3.7C587,132.2,585.4,132.6,583.8,133.2L583.8,133.2z
	 M594,127.7c2.5,0.9,4.5,3.2,4.9,5.9c-1.5-0.7-3.2-1.2-4.9-1.5v-3.8C594.1,128.1,594.1,127.9,594,127.7L594,127.7z"/>
<path class="st0" d="M644.1,254.3c7.7,7.5,19.4,28.1,16.6,49.4c-0.2-2.1-2.9-6.2-4.9-6.8c3.6,5.8,5.3,16.7,1.6,21.2
	c-0.4-1.3-2.3-2.8-3.3-4.1c3.1,23.4-11.3,40.1,6.2,75.8c5.6,11.5,11.1,23.6,12.2,36.5c1.3,15.2,1.4,36.3,6.5,50.5
	c-4.1-0.5-8.1-2.5-10.5-6c4.7,22.1-11.8,47.9-3.2,68c7.5,17.5,11.4,36.6,5.7,54.8c-5,16.2-25.6,39.1-44.4,36.3
	c-3.6,2.1-6.9,5.3-9.5,8.9c-1.3,1.8-1.6,1-1.7-0.2c-0.5-4.2,0.9-8.2,3.5-11.4c-0.9-0.5-1.8-1-2.6-1.5c-4.4,1.5-8.8,4.3-12.4,7.7
	c-1.8,1.7-1.9,0.8-1.8-0.6c0.4-5.3,3.5-10,7.8-12.9c-0.6-0.7-1.1-1.5-1.5-2.3c-3.8,1-7.5,2.6-11,4.5c-2.5,1.4-2.4,0.4-1.9-0.9
	c1.8-4.8,5.7-8.6,10.5-10.9c-0.1-0.8-0.1-1.6-0.1-2.4c-3.3,0.6-6.7,1.5-9.9,2.6c-3,1.1-2.6,0-1.8-1.4c2.8-4.4,7.1-7.7,12-9.6
	c1,1.8,2.9,3,5.7,2.7c5.7-0.6,6.8-6,7.8-10.8c2.9-0.7,5.9-1.8,8-4.1c3-3.3,3.1-8.1-1.2-12c-12.5-11.5-22.8-23.6-25.3-44
	c-7.1-2.9-11.9-9.4-14.8-16.4c-0.6,9.5-4.6,18.3-10.3,25.8c-3.3,8.2-4.1,16.8-5.1,25.5c-1.5,12.8-4.3,25.5-15.1,33.7
	c-1.5,1.1-3.1,2.2-4.8,3.1c-4.8-2.7-9.1-5-12.6-6.6c-20.5-9.5-42-19.1-64.5-20.9c4.5-2.3,9.7-2,14.3,0c0.3-0.9,0.6-1.7,1-2.6
	c-2.9-2.7-6.6-4.7-10.1-5.9c-2.7-1-1.6-1.8-0.3-2.1c4.4-1.5,10.6-0.8,15.1,2c0.6-0.5,1.2-1,1.9-1.4c-2.3-2.5-4.8-4.9-7.5-7
	c-2.6-2-1.4-2.2,0.2-2.2c5.7,0,11.3,2.3,15.8,6.1c9.6-3,16,8.5,23.8,10.7c2.3,0.6,4.2-2.8,2.8-6.6c-4.4-12.2-9.8-27.3-6.3-40.3
	c-20-34.3-3.4-71,20.7-102.4c-0.8-1.9-2.9-5.6-5.4-10.9c-10.5,4.6-31.9,10-40.7,10.5c-4.6,0.3-9.8-1-14-2.7
	c-2.4,2.5-4.3,5.7-5.6,9.1c-0.7,1.8-1.1,1.2-1.5,0.2c-1.7-4.2-1.2-9.1,1.2-12.8c-0.6-0.5-1.2-1.1-1.8-1.6c-3.2,1.5-6.1,4.1-8.8,6.7
	c-1.5,1.4-1.6,0.7-1.6-0.4c0.2-4.8,2.5-9.3,6.4-11.9c-0.5-0.9-0.8-1.9-1.1-2.9c-3.3,0.6-6.6,1.9-9.6,3.5c-2,1.1-1.9,0.2-1.5-0.9
	c1.6-5,5.8-9.5,10.8-11.1c0.2-0.9,0.5-1.8,0.9-2.7c-2.6-0.5-5.2-0.7-8-0.2c-2.4,0.4-2.1-0.4-1.3-1.5c3.8-5.1,10.5-7.2,16.9-6.1
	c2.8-4.8,8.8-6.5,14.2-5.9c3.3,0.4,6.1-1.9,9.6-4.4c6.1-4.3,14.5-11.7,19.4-15.4c-1-6.7-1.7-13.8-1.7-21.2c-1.8,3.7-5.8,6.8-9.6,7
	c3.7-5.3,0.8-10.4-3.7-14c-5.1-4.1-11.9-6.3-15.3-8.6l0-20.2c0-10.4,1-21.2,3.1-31.7c11.4,6.6,23.4,10.5,36.6,11
	c3-7.2,6.7-14.5,11.2-21.9c-5.4-6.1-8.6-13.4-8.6-21.2c0-4.4,1-8.7,2.9-12.7c-0.3-1.6-0.4-3.2-0.4-4.9c0-7.7,3-14.8,8.2-20.9
	c-3.5-2.5-5.8-6.6-5.8-11.2c0-7.6,6.1-13.7,13.5-13.7c6.5,0,12,4.7,13.3,10.9c7.2-2.7,15.3-4.2,23.9-4.2c8.6,0,16.7,1.5,23.9,4.2
	c1.3-6.2,6.7-10.9,13.3-10.9c7.5,0,13.5,6.1,13.5,13.7c0,4.7-2.3,8.8-5.8,11.2c5.2,6,8.2,13.2,8.2,20.9c0,1.7-0.1,3.3-0.4,4.9
	c1.9,4,2.9,8.3,2.9,12.7C647,246.1,646,250.4,644.1,254.3L644.1,254.3z M532.8,609.3c-18,3-37.9-1.1-43.6-13.7
	c-3.7-1.9-8.1-3.1-12.5-3.3c-2.2-0.1-1.7-0.8-0.8-1.6c3.2-2.7,7.3-3.7,11.3-3.2c-0.1-0.9-0.2-1.8-0.2-2.6
	c16.8,3.7,33,11.1,48.5,18.2c2.2,1,4.6,2.2,7.1,3.6c-2.5-0.3-5.2-0.1-7.1,0.7C534.5,607.8,533.5,608.5,532.8,609.3L532.8,609.3z"/>
<path class="st6" d="M550.1,422.3c8.9,15.8,16,25.2,28.4,36.9l0.1,7.8C566.2,452.5,556.7,440.6,550.1,422.3z M635,326.6
	c4.2,18.4-9.7,46.4-30.9,57.9c0.8,1.3,1.5,2.7,2.1,4.3c-7.3-3.3-15.2,3.4-22.9,3.7c-2.7,2.4-12.9,6.4-17.9,6.8
	c-7.6,4.4-17.2,8.2-26.1,8.6c7.7-2.2,15.3-4.3,21.2-9.4c-2.2-0.4-6.1-2.1-7.9-4.7c8.5,4.6,20,1.3,25.2-1.7c-2.7-1.4-8.1-4.8-9.9-7.1
	c5.3,2.8,9.7,4.4,15.4,4c7.7-0.5,10.6-3.4,16.7-3.8c-1.8-4.2-8.7-8.9-14.3-11.1c6.8,1.6,12.8,3.4,16.9,8.3
	c6.9-5.5,9.8-12.6,8.3-20.2c2.4,4.2,2.4,8.6,1.6,11.1c5.3-4.2,11.1-12.8,8.8-23.1c2.1,3,2.7,8.9,2,10.8c4.1-5.6,6.3-16,3.8-21.5
	c1.9,1.2,3.7,6.6,3.1,9.1C634,341.6,635.2,335.3,635,326.6L635,326.6z M545.5,198.8c-1.4-1.9-2.2-4.2-2.2-6.7
	c0-6.1,4.8-11.1,10.8-11.2c-3.9,1-7.4,4.5-8.8,9.2C544.4,193.1,544.5,196.2,545.5,198.8L545.5,198.8z M604.6,418.4
	c-4.8,3.3-8.5,8.2-12,14.1c-9,15.3-12.2,37.3-8.7,54.2c-0.2-9.2,0.8-20.1,9-25.9c-2.2-0.1-6.1,1.1-7.7,3.3
	c0.7-9.5,5.4-16.3,11.8-19.7c-2.3,0.1-6.1,0.6-8,1.9c1.7-6.2,7.9-12.3,13.1-14.6c-2.3-0.3-5.1,0.3-6.7,1.1
	C597.5,428.4,600.9,421.9,604.6,418.4L604.6,418.4z M610.4,609.2c0.4,6,4.4,10.5,9.7,13.4c-4.5-4.6-7.2-11.6-5.4-17.1
	c-1.3,0.5-2.8,0.7-4.2,0.6C610.4,607,610.4,608.1,610.4,609.2z M531.1,594.3c-7.2-1.1-15.6-9.6-18.4-15.6c-3-6.5-11.1-6.4-15.4-1.6
	l-3.9-0.9c2.4-9,17.3-10.8,21.3-1.7C517.7,581.2,524.6,591.8,531.1,594.3z M544.1,273.8c-8.5,13-16.8,29.5-16.8,45.4
	c3.9-10.1,6.4-14.4,15.7-18.8c-5.3-0.1-8.4,1.8-11.4,4.1c2.5-10.7,8.3-16.3,15.5-20.7c-2.9,0.6-5.4,1.8-7.9,3.4
	C540.2,283,541.5,278.8,544.1,273.8L544.1,273.8z M533,361.8c10.3-4.6,20.9-9.1,32.1-11c1.6-6.6,7-8.3,12.2-8.5
	c7.3-16.4,17.4-31.2,30.3-42.8c-14.7,9.7-24.1,24.8-32.1,40.1c-5.4,0-10.6,4.2-12.7,8.3C552.1,350.7,542.1,355.3,533,361.8
	L533,361.8z M526.8,328.9c-0.9,6.8-0.6,16.1,1.6,22.6c1.3-2.7,4.1-4.2,6.9-5.6c3.1-1.6,5.9-3.2,7.8-6.1c9.3-1.7,16.7-9.6,18.1-12.8
	c6.3-3,11.5-11.1,11.4-19.6c-1.6,7.8-6.5,14.5-11.2,16.6c0.6-2.6-0.3-6.6-1.2-8.2c1.7,10.6-6.5,17.3-14.4,20.6
	c1.5-2.8,2-7.6,1.4-10.9c-2,11.5-8.3,15.9-16.6,19.9c-0.5,0.2-1.3,0.5-1.7-1C527.5,340.2,526.6,334.5,526.8,328.9L526.8,328.9z
	 M562.7,216c2.4,2.7,5.4,4.2,9,4.8c-0.7,1-1.1,1.8-1.5,3C566.5,222.1,564,219.8,562.7,216L562.7,216z M591.4,232.5
	c1.9,0,2.4-1,2.5-2.7c0.1-1.5-0.7-3.4,0.4-4.5c1.1-1.2,2.4-0.5,1.8,0.7c-0.4,1-1.1,3.1,0.4,3.5c0.2-1.3,2.7-2.6,1-5.7
	c-1.2-2.2-3.4-2.9-6.2-3c-2.8,0.1-5,0.8-6.2,3c-1.7,3.1,0.9,4.5,1,5.7c1.5-0.4,0.9-2.5,0.4-3.5c-0.6-1.2,0.7-1.9,1.8-0.7
	c1,1.1,0.3,3,0.4,4.5C588.9,231.5,589.5,232.5,591.4,232.5L591.4,232.5z M554.3,186.3c-2.6,0-4.7,2-5.1,4.5c-0.1,0.7,0.1,1,0.6,0.2
	c0.6-0.8,1.7-1.4,2.8-1.4c1.9,0,3.5,1.6,3.4,3.5c0,1-0.5,1.6-1.1,2.2c-0.5,0.5,0.4,1.2,0.8,0.6c0.9-1.2,2.1-2.2,3.4-3
	c0.1-0.5,0.2-1,0.2-1.5C559.5,188.6,557.2,186.3,554.3,186.3L554.3,186.3z M584.2,216.8c-8.5,2-11.5,9.9-12.6,17.1
	c-5.6,0.3-7.7,4-7,9.9c-2.1-2.9-2.2-11,5-11.4C571.4,225,574.5,216.8,584.2,216.8z M557.9,268c-5.4-3.9-8.1-9.7-8.1-17
	c-1.3,1.8-2,4.3-1.9,6.5c-3-2.6-5.5-6.7-6.8-10.5C542.1,257.6,548.4,263.4,557.9,268z M598.5,216.8c8.5,2,11.5,9.9,12.6,17.1
	c5.6,0.3,7.7,4,7,9.9c2.1-2.9,2.2-11-5-11.4C611.3,225,608.3,216.8,598.5,216.8L598.5,216.8z M624.8,268c5.4-3.9,8.1-9.7,8.1-17
	c1.3,1.5,1.8,5.3,1.5,7.2c3.2-2.2,6-7.6,7.2-11.2C640.6,257.6,634.3,263.4,624.8,268L624.8,268z M591.4,281.2
	c8.1,0,13.1-4.4,14.6-11.2c-1.5,3.8-6.1,9.3-11.5,9.4c-2.5,0-2.8-1.5-3.1-4.3c-0.3,2.7-0.6,4.4-3.1,4.3c-5.3-0.2-9.9-5.3-11.5-9.4
	C578.3,276.8,583.3,281.2,591.4,281.2L591.4,281.2z M597.5,203.3c-1.1,2.4-2.1,6.3,0.5,8c2.5,1.7,5.9-1,6.8-3.7
	c0.2-0.7,0-0.7-0.4-0.2c-1.3,1.5-3.4,2.5-5,1.2c-1.6-1.4-1.8-3-1.3-4.9C598.2,203.1,598.1,202,597.5,203.3L597.5,203.3z
	 M584.7,211.5c-2.3,2-6.1-1.2-7-3.9c-0.2-0.7,0-0.7,0.4-0.2c1,1.2,3.7,2.6,5.1,2.4C584.9,209.5,586.2,210.3,584.7,211.5z
	 M574.6,190.7c-5.9,1.1-12.1,5.6-11.4,11.7c2.9-1,5.8-0.9,8.8,0c-0.8-1.7-3.3-3.3-5.2-3.3C567.7,195.6,571.6,191.8,574.6,190.7
	L574.6,190.7z M619.2,198.8c0.4,1.1,0.5,2.2,0.4,3.5c-2.9-1-5.8-0.9-8.8,0C613.9,199.3,616.2,198.8,619.2,198.8z M579.8,245.5
	c-0.3,2.1-0.3,4.2,0,6.2c-3.7-1.5-5.9-3.7-6-7.6c-0.1-3-3.7-4.1-4.1-0.8c-0.2,1.3,1,3.1,2.7,4.5c2.8,2.3,4.3,3.6,5,8.4
	c0.2,0.8,0.4,1.5,0.7,2.1c0.4-1.7,1.2-3.5,2-4.8c1,1.3,1.7,2.5,2.2,3.7c0.2-0.8,0.3-1.6,0.5-2.3c0.5-2.6,1.6-6.9,0.8-9.4
	C582.7,242.7,580.2,242.8,579.8,245.5L579.8,245.5z M602.9,245.5c0.3,2.1,0.3,4.2,0,6.2c3.7-1.5,5.9-3.7,6-7.6
	c0.1-3,3.7-4.1,4.1-0.8c0.2,1.3-1,3.1-2.7,4.5c-2.8,2.3-4.3,3.6-5,8.4c-0.2,0.8-0.4,1.5-0.7,2.1c-0.4-1.7-1.2-3.5-2-4.8
	c-1,1.3-1.7,2.5-2.2,3.7c-0.2-0.8-0.3-1.6-0.5-2.3c-0.5-2.6-1.6-6.9-0.8-9.4C600.1,242.7,602.5,242.8,602.9,245.5L602.9,245.5z
	 M633.6,191.2c-0.2-2.6-2.3-4.6-4.8-4.8c-0.7-0.1-1,0.1-0.2,0.7c0.9,0.6,1.5,1.6,1.6,2.7c0.1,1.9-1.3,3.6-3.3,3.7
	c-0.9,0-1.6-0.4-2.3-0.9c-0.6-0.5-1.2,0.5-0.5,0.9c1.3,0.8,2.3,2,3.2,3.2c0.5,0.1,1,0.2,1.5,0.1C631.7,196.5,633.8,194,633.6,191.2
	L633.6,191.2z M531,524.4c1.7,1.8,4.7,2.1,7.6,1.7c14.7-1.8,29-12.8,31.5-28c-1.6,4.8-6.7,12.4-9.2,14.2c0.8-2.7,0.7-5.8,0.2-8.6
	c-0.9,9.4-6.8,14.2-12,16.3c1-3,1.2-7.8,0.4-10.8c-0.1,7.4-4.2,13.5-11.6,15.4C535.5,525.3,532.9,525.4,531,524.4L531,524.4z
	 M606,527.2c2.5,1.4,5.8,0.6,8.8-0.8c15.3-7.2,26.9-24.3,24.2-41.6c0,5.7-2.8,15.8-4.9,18.7c-0.1-3.2-1.3-6.6-2.8-9.4
	c2.4,10.6-2.3,17.8-7.2,22c0-3.6-1.5-8.9-3.4-11.8c2.5,8.1,0.3,16.1-7.1,20.9C611.3,526.6,608.6,527.7,606,527.2L606,527.2z
	 M617.2,190.4c0.8-5.3,5.2-9.4,10.7-9.5c-4.8,1.3-8.1,5.7-9.1,10.4L617.2,190.4z"/>
<path class="st1" d="M567,203.7c-2.1,1.2-3.6,3.4-3.6,6c0,3.8,3.1,6.9,6.9,6.9c2.1,0,4-1,5.3-2.5c0.3-0.4,0.8-0.8,1.3-0.7
	c0.8,0.2,2.1,0,1.4-1c-0.7-0.9-1.8-1.7-2.3-3C574.6,205.9,570.8,203.5,567,203.7L567,203.7z"/>
<path class="st1" d="M615.7,203.7c2.1,1.2,3.6,3.4,3.6,6c0,3.8-3.1,6.9-6.9,6.9c-2.1,0-4-1-5.3-2.5c-0.3-0.4-0.8-0.8-1.3-0.7
	c-0.8,0.2-2.1,0-1.4-1c0.7-0.9,1.8-1.7,2.3-3C608.2,205.9,611.9,203.5,615.7,203.7z"/>
<path class="st0" d="M570.2,205.9c2.1,0,3.9,1.7,3.9,3.9c0,2.1-1.7,3.9-3.9,3.9c-1.8,0-3.3-1.2-3.7-2.9c-0.3-1,0.7-1,1.3-0.5
	c0.4,0.3,0.8,0.5,1.4,0.5c1.1,0,2-0.9,2-2c0-0.9-0.6-1.6-1.4-1.9C568.6,206.5,568.8,205.9,570.2,205.9L570.2,205.9z"/>
<path class="st0" d="M612.4,205.9c2.1,0,3.9,1.7,3.9,3.9c0,2.1-1.7,3.9-3.9,3.9c-1.8,0-3.3-1.2-3.7-2.9c-0.3-1,0.7-1,1.3-0.5
	c0.4,0.3,0.8,0.5,1.4,0.5c1.1,0,2-0.9,2-2c0-0.9-0.6-1.6-1.4-1.9C610.8,206.5,611,205.9,612.4,205.9L612.4,205.9z"/>
<path class="st1" d="M604,243.7c0.5,1.8,0.7,4,0.5,5.8c2.1-1.2,3.2-4.2,3-6.9C606.2,243.3,605.3,243.5,604,243.7z"/>
<path class="st1" d="M578.7,243.7c-0.5,1.8-0.7,4-0.5,5.8c-2.1-1.2-3.2-4.2-3-6.9C576.5,243.3,577.4,243.5,578.7,243.7z"/>
<path class="st1" d="M581.5,263.7c0.3-3.1,0.1-5.8-1.4-7.8C578.7,258.1,578.6,262.5,581.5,263.7z"/>
<path class="st1" d="M601.2,263.7c-0.3-3.1-0.1-5.8,1.4-7.8C604,258.1,604.2,262.5,601.2,263.7z"/>
<path class="st4" d="M591.4,270.2c5.2,0,8-2.4,8.3-6.9c0.4-5.5-3.3-13.6-1.7-18.3c1.1-3.2-3.3-4-4.8-1.7c-1.9,2.9-0.9,6.6-1.8,9.8
	c-1-3.1,0.1-6.8-1.8-9.8c-1.6-2.4-5.9-1.5-4.8,1.7c1.6,4.7-2.2,12.8-1.7,18.3C583.4,267.8,586.2,270.2,591.4,270.2L591.4,270.2z"/>
<path class="st4" d="M142.4,292.2c1.4,0.9,2.7,2,3.9,3.3c2.9,0.4,5.7,1.6,7.9,3.8c0.3,0.3,0.5,0.5,0.8,0.8c0.2,0.3,0.5,0.6,0.7,0.9
	c1.1,1.6,0.8,3.8-0.8,4.9c-0.8,0.6-1.9,0.8-2.8,0.6c0.2,0.8,0.3,1.6,0.4,2.4c0.1,1,0.2,1.9,0.2,2.9c0,4.1-1.1,8.2-3.6,11.5
	c-2.4,3.2-5.8,5.4-9.8,5.8c-0.6,0.1-1.2,0.1-1.8,0.1c-4.9,0-9.4-2.4-12.7-5.9c-2.7-2.8-4.6-6.3-5.6-10.1c-2.5,2-4.8,4.1-6.8,6.2
	c-5.7,5.9-10.4,12.7-13.4,20.3c-1.8,4.6-3.6,11.7-1.7,16.5c0.7,1.8-0.2,3.9-2,4.6s-3.9-0.2-4.6-2c-2.7-6.7-0.8-15.2,1.7-21.7
	c3.2-8.3,8.6-16.1,14.7-22.5c3.5-3.6,7.1-5.7,11.2-8.6c0.2-2.3,0.7-4.8,1.5-7c0.8-2.1,2-4,3.6-5.5l-1,0.1
	c-7.8,3.1-14.5,8.3-20.3,14.2c-5.8,6-10.7,13.2-13.7,21.1c-1.9,4.9-5.5,13.4-3.5,18.6c0.7,1.8,1.2,3.8-0.7,4.5
	c-1.8,0.7-3.9-0.2-4.6-2.1c-2.6-7-0.4-16.8,2.1-23.5c3.3-8.7,8.7-16.8,15.2-23.5c6.5-6.7,14.7-12.3,23.3-15.8
	c6.7-2.7,15.9-4.7,22.8-1.8c1.8,0.8,2.6,2.9,1.9,4.6C144.6,291.3,143.5,292,142.4,292.2L142.4,292.2z M142.7,302.3
	c-2.8,0.1-5.7,0.9-7.8,1.7c-3.2,1.2-6.4,2.8-9.4,4.7l0,0.2c0.4,3.5,2,7,4.4,9.6c2,2.1,4.6,3.7,7.6,3.7c0.3,0,0.6,0,0.9-0.1
	c2.1-0.3,3.8-1.4,5-3c1.5-2.1,2.2-4.7,2.2-7.3c0-0.7,0-1.3-0.1-2C145.1,307.1,144.2,304.5,142.7,302.3z"/>
<path class="st0" d="M81.9,354c-1.7-0.4-3.2-1.6-3.9-3.3c-1.6-4.1-1.6-9.1-0.8-13.9c-1.2-1.8-2.2-3.5-2.8-5.6
	c-0.2,0.3-0.4,0.6-0.7,0.8c-3.6,4.4-2.2,9.6,0.3,14.1c1.3,2.4,1.8,5.8,1.4,8.5c-0.6,4.5-3.5,7.7-7.1,8.3c-5.3,0.8-8.2-2.3-9.8-6.6
	c1.9,1.3,5.3,2.4,6.8,0.9c0.4-0.4,0.2-1.3,0.1-1.8c-0.3-1.2-1.1-2.9-1.9-3.8c-2.7-3.1-7.6-8.6-7.2-14.5c-1.7,1.1-2.3,5.5-0.8,8.3
	c-13.6-6-7.8-20.1,1.7-26.3c3.4-2.8,5.9-5.8,4.3-10.4c-1-2.9-2.1-4.9-2.5-7.7c-2.5,2.9-0.7,5.4,1.3,7.8c-4.5,1.9-10.3-0.5-11.6-6.7
	c-1.1-5.2,2-10.2,5-14.1c2.4-3.1,2.7-5,2.7-8.5c-2.7,1-5.8,0.8-8.3-0.8c-2.7-1.7-4.2-4.4-4.1-7.7c0.2-4.4,2.8-7.2,6-9
	c-1.3,2.6,0.1,7.3,3.6,4.3c2-1.7,1.9-4.8,2.8-6.9c1.6-3.5,4.3-7.3,7.8-9.1c0,0,0-0.1,0-0.1c0.5-2.4,0.7-4.1,1.5-5.4
	c-4.5-1.6-9-4.3-11.5-7.8l-2.8-3.8c-0.8-0.7-1.5-1.1-2.2-2.1c-1.1-1.7-2.2-3.5-3.5-5.1l-3.1-3.6c10.5-3.8,23.4-6.4,35-2.2
	c1.9,0.7,3.6,1.5,5.1,2.3l1.1-4.3l9.8-5.6l5.8-1.8l4.1-0.9l4.3-0.1l5.2,0.2l8.8,4.6c8.9,4.4,13.3,7.2,17.9,16
	c4.2,2,8.4,4.4,12.4,6.7c3.9,2.3,7.9,4.7,11.7,7.3c6.4,1.4,9.5,8,5.5,13.7c-0.5,0.7-1.1,1.4-1.6,2.1c-0.1,0.2-0.2,0.3-0.3,0.5
	c-0.5,1.1-0.9,2.1-1.6,3.1c-1.6,2.1-3.5,3.1-6,3.4c-0.1,1.3-0.7,2.4-1.6,3.3c-0.7,0.7-1.6,1.2-2.4,1.6c-0.8,0.3-1.6,0.6-2.4,0.7
	c-3.3,0.4-6.5,0.3-9.8,0c-2.7-0.3-5.4-0.7-8.1-0.9c-2.2-0.2-4.4-0.3-6.7,0c-1.3,0.2-2.9,0.4-4.5,0.9c-1.3,3.8-0.6,7.5,1.6,10.7
	c6-1.6,12.6-2.1,18.1,0.2c1.4,0.6,2.4,1.7,2.9,3.1c2.9,0.4,5.2,2.9,5.2,6c0,0.8-0.2,1.6-0.5,2.3c1.4,0.7,2.8,1.6,3.9,2.8
	c0.3,0.3,0.6,0.6,0.9,0.9c0.3,0.3,0.5,0.7,0.8,1c1.2,1.7,1.3,3.9,0.3,5.7c0.8,0.6,1.7,1.3,2.5,2c12.3-11.8,25.8-21.1,41.8-27.9
	l1.3-0.6l0.1,0c1.4,8.8,2.1,17.7,2.1,26.3l0,9.1c-0.5,0.8-0.9,1.6-1.3,2.5c-1.8,3.9-2.3,6.1-5.9,10.3c-0.2,4.4-2.5,8.7-6.2,11
	c-0.6,2.3-2.8,5-5.1,6.9c2.1,6.8,2.9,13.8,2.6,20.8c9.4,5.3,19.1,10.1,28.3,15.5c5.7,3.3,7.7,8.5,8.2,14.8c0.9,11-0.8,21.7-1.6,32.6
	c-0.4,5.5-0.9,11-1.5,16.5c-0.6,5.8-1.4,11.7-2.7,17.5c-0.7,3-0.8,4.2-2.9,6.4c-0.1,0.3-0.3,0.9-0.4,1.2c0,0.9,0,1.7-0.1,2.5
	c0.9,4.3,0.7,11.1-0.5,14.1c-1.3,3.5-3.5,6.9-6.8,8.9c-2.3,1.4-4.5,0.9-6.4-0.9c-0.3-0.3-0.6-0.7-0.9-1l-0.4,0.1
	c-1.8,0.6-3.7,0.1-5.1-1.2c-5.7-4.7-7.7-14-8-21.1c-0.1-2.6,1.1-4.7,3.2-6.2c1.5-1,4.9-2.8,7.1-3.5c0.2-0.1,0.3-0.3,0.5-0.4
	c0.6-0.4,2.1-1.4,2.6-2.1c-0.3-0.3-0.9-0.8-1.1-0.9c-1.8-1.2-3-2.8-2.9-5c0.1-2.9,1.5-4.7,4.2-5.7c9.7-3.6,8.2-32.7,4.9-41.4
	c-1.1-2.8-4.8-4.1-7.5-4.6c-7.7-1.6-15.3-3-22.9-3.6c-1.5,3.2-3.5,6.1-5.9,8.8c-7,7.9-16.9,13-26.1,18.1
	c-7.4,4.1-15.2,8.5-20.9,14.8l-1.7,1.9c1.2,0.6,2.5,1.1,3.8,1.6c16.2,5.7,39.7,21,46.3,37.4c2.1,5.3,4.4,10.7,8.1,15.2
	c3.5,4.3,6.7,3.7,9.5,0.4c1.2,6.3-2.6,14.8-12.8,12.6c-2.3-0.5-4.3-1.6-6-3.2c-5.7,11.5-28.1,17.6-31.5,25.6c0,0.1,0,0.1,0,0.2
	c0.3,1.3,4.8,2.9,5.9,3.2c16.5,5.3,35.4,0.6,50,11.4c2.6,1.9,2.4,3.8,3,6.8c0.1,0.8,1.2,1.5,2.4,2.3c2.3,0.3,4.7,1.2,5.5,1.5
	c5.7,2.5,11.1,8.5,11.8,14.5c0.3,2.7-1.1,4.5-3.5,5.4c-0.4,0.2-0.9,0.3-1.3,0.4l-0.1,0.5c-0.2,1.9-1.5,3.3-3.2,4.2
	c-6.6,3.2-16,1.2-22.5-1.5c-2.4-1-3.8-3-4.3-5.5c-0.4-1.9-0.5-5,1-8.5c0-0.3,0-0.5,0-0.8c0.1-1.1-0.4-3-1.2-3.7
	c-0.2-0.2-0.6-0.5-1-0.7c-2.2,3.6-6.8,3.1-9.7,0.3c-1.5-1.5-4.4-2.8-6.3-3.8l0,0c-12.7-6.2-24.7-7.1-38.4-10.1
	c-9.2-2-13.8-8.5-10.1-17.7c2.7-6.9,4-13.8,3.2-21c-0.7-1.2-1.2-2.5-1.6-3.8c-3.4-0.8-6.5-3.4-8-6.4c-1.5-0.3-4.6-2.3-6.7-4.7
	c0.5,6.5,0.4,12.9-0.6,19c-1.2,7.3-3.7,14-6.2,20.9c-3.3,8.8-5.4,21.1,6.4,17.5c-2,10.9-19.9,12.2-22.5,0.6
	c-9.2,4.9-22.7,5.7-32.6,3.8c1.3,6.4,3.8,12.2,6.9,18.2c3.7,7.3,7.8,14.6,13.4,20.7c4.6,5.1,8.4,5.9,10.5,12.9
	c0.5,0.1,1,0.3,1.5,0.6c5.8,3.6,10.3,12.5,8.9,19.3c-0.6,2.6-2.5,3.9-5.1,4c-0.5,0-0.9,0-1.4,0l-0.2,0.4c-0.8,1.7-2.5,2.7-4.3,2.9
	c-7.3,0.9-15.5-4-20.8-8.7c-2-1.7-2.7-4.1-2.3-6.6c0.3-2.1,0.7-4,1.8-5.8c0.3-0.6,0.6-1.5,0.7-2.7c0-0.2-0.1-0.3-0.1-0.5
	c-0.2-0.6-0.4-1.6-0.7-2.3c-0.3,0.1-0.6,0.2-0.7,0.2c-1.5,0.6-3,0.6-4.5-0.1c-2.4-1.2-3.5-3.8-3.5-6.3c0-2.1-1.1-5.2-1.8-7.1l0,0
	c-2.7-8-7.2-15.9-11.2-23.4c-3.3-6.1-6.6-12.2-9.3-18.6c-1.4-3.4-2.9-7.3-3-11c-0.2-5.6,4.4-9,9.7-8.9c1.9,0,4.4-0.3,6.1-0.8
	c0.1,0,0.3-0.1,0.4-0.1c2.8-1,5.2-2.5,8.2-3.2c0.3-0.1,0.6-0.1,0.8-0.2c-2.2-3.2-3-7.1-2.3-11.3c-1.9-2.8-3.3-7-2.6-10.3
	c-1.7-2.7-2.6-8.4-1.6-11.3c-0.5-0.3-0.9-0.6-1.3-1c-1.4,2.1-3.5,3.7-6.7,4.5c-1.6,3.2-4.2,6-7.6,7.1c-3.5,1.2-7.1,0.3-10.1-1.7
	l-2.1-1.4C4.5,503.4,1,494.9,0,487.4c3.2,2.2,5.6,3,9.3,2.2c6-1.4,9.7-7,12.8-12.2c3.2-5.6,5.9-11.8,8.4-17.7
	c2.9-6.8,5.6-13.6,8.8-20.3c4.2-8.8,9.3-17.4,16-24.5c3.8-7.8,7.6-15.7,12.1-23.2c6.8-11.3,14.5-20.7,24.2-29.3
	c-1.1-0.6-2.1-1.5-2.6-2.8c-0.3-0.7-0.5-1.5-0.7-2.2c-0.3,0-0.6,0.1-0.9,0.1C84.9,357.5,82.8,356,81.9,354L81.9,354z"/>
<path class="st0" d="M35.6,134.7c0.6-0.5,1.2-0.9,1.9-1.4c2-1.4,5-3.4,5.8-5.9c0.7-2.1,2.3-3.7,4.6-3.6c3,0.1,5.2,3.3,4.7,6.1
	c-1,5.9-4.8,9.2-9,13c-4.9,4.5-9.1,8.9-8.6,16c0.2,3.6,1.7,6.6,3.9,9.1c2.3-3.7,5-7.1,7.9-10.4c2.3-2.6,4.4-5.9,4.7-9.6
	c0.5-6.7,9.7-6.8,10.1-0.3c0.6,7.4-1.8,12.9-5.7,18.7c-5,7.5-8.8,14.6-5.9,23.8c3.3,10.2,15.3,11.4,24,7.9c1.4-0.6,2.8-1.3,4-2.1
	c-5.7-2.9-10.6-7.4-13.6-13c-3.3-6-4.1-12.8-2.6-19.4c0.8-3.5,2.1-6.9,3.9-10c-4.2-8.8-4.7-18.2-0.2-27.1c2.3-4.6,5.6-8.4,9.9-11.1
	c0.2-3.4,1.7-7.5,3.1-10.1C81.6,99.2,87,95,93.2,92.1c2.2-1,4.7-2.3,6.4-4.2c4.4-5.1,10.5,0.6,7.9,5.1c-2.3,4.1-6,6.7-9.8,9.2
	c-3.2,2.1-7.1,4.7-8.7,8.4c0,0.1-0.1,0.1-0.1,0.2c0.8-0.1,1.5-0.3,2.3-0.4c2.4-0.4,6-1,7.8-2.8c1.5-1.6,3.6-2.4,5.7-1.3
	c2.6,1.4,3.3,5.2,1.7,7.6c-3.4,4.8-8.3,6.2-13.7,7.9c-6.4,1.9-12,4.1-14.6,10.7c-1.3,3.3-1.3,6.7-0.4,9.9c3.6-2.4,7.6-4.3,11.6-6
	c3.2-1.4,7.6-3.3,9.4-6.4c1.2-2,3.2-3.5,5.6-2.9c3.1,0.7,4.9,4.7,3.7,7.6c-2.7,6.9-8.3,10.1-14.3,13.7c-7.8,4.7-14.3,9.4-15.6,18.9
	c-1.1,8.1,4.6,13.6,11.5,16.1c0.3-0.5,0.7-1,1-1.5c6.4-11.7,15.1-23.6,31.7-22.9c7.4,0.4,8.3,10.2,0.4,10.3
	c-6.9,0.1-12.7,7.3-16.8,14c3.4-1.2,6.7-3,9.8-4.9c0.8-0.5,1.7-1,2.5-1.5c5.5-3.4,11-6.9,17.3-8.6c7.7-2.1,14.8-0.8,21.7,3
	c2.8,1.5,4.1,5.3,2.2,8c-1.7,2.3-4.5,2.3-6.9,1.2c-2.6-1.2-5.2-1.7-8.1-1.4c-7.2,0.8-15,6.8-20.7,10.9c-1.9,1.4-3.9,2.7-5.9,3.8
	c0.3,0.4,0.6,0.8,0.8,1.3c1.4,2.6,1.5,4.7,0.5,7.1c5.1-2.4,10.6-0.8,14.2,3.3c4.1,0.8,8.2,3.5,8.3,8.1c0.1,3.2-2.5,6.4-4.9,6.7
	c0.6-3.6-1.5-5.6-5.8-4.1c-5,1.6-8.7,4.8-14.3,4.2c-4.1-0.4-6.8-1.5-9.7-3.6c-1,0.5-2,0.8-3,1c-1.2,0.3-2.5,0.4-3.7,0.3
	c-0.8,2.8-2.8,5.3-4.9,7c-1.3,1-2.9,1.8-4.5,2.2c-5.8,1.6-12.5,1.4-14.8-5.2c-0.6-1.8-1-3.1-2-4.8c-0.7-1.3-2.3-1.2-3.7-1.1
	c-8.7,1.6-18.2,0-25.4-5.3c-5.5-4-9.2-9.8-10.7-16.4c-0.8-3.5-1.1-7.1-0.7-10.7c-7.6-6.2-12-14.4-11.8-24.4c0.1-5.1,1.4-10,4.1-14.3
	c-1.3-3.2-1.7-7.5-1.6-10.5c0.3-6.9,3.3-13,7.6-18.3c1.5-1.9,3.3-4.2,3.9-6.5c1.8-6.5,9.7-4,9.3,1.3c-0.3,4.7-2.5,8.6-4.9,12.5
	c-2,3.3-4.4,7.3-4.3,11.3C35.6,134.6,35.6,134.7,35.6,134.7L35.6,134.7z"/>
<path class="st2" d="M84.4,115.4c-0.1-2.5,0.4-4.5,1.1-6.3c1.8-4.3,5.7-7.1,10.1-9.9c3.3-2.1,6.7-4.4,8.7-7.9
	c0.5-0.9-0.5-2.9-2.1-1.1c-2,2.3-4.8,3.8-7.5,5.1c-5.7,2.7-10.3,6.4-13.1,11.7c-1.3,2.6-3.2,7.7-2.6,10.5
	c-4.1,2.2-7.7,5.6-10.3,10.7c-4.2,8.2-3.6,17,1.1,25.8c-2.1,2.9-3.6,6.4-4.5,10.5c-3.1,13.7,5.4,25.4,17.7,30
	c2.3-2.3,4.3-4.9,6.2-7.6C80,184,73,176.6,74.4,166.6c1.5-10.7,8.4-16.2,17.3-21.5c4.8-2.9,10.5-5.9,12.8-12c0.5-1.4-1.2-4.7-3-1.6
	c-2.3,4.1-7.1,6.2-11,7.9c-5.7,2.5-10.4,4.9-14.5,8.3c-2.9-5.5-3.6-11.3-1.4-16.7c3.1-7.7,9.3-10.5,16.9-12.8
	c4.2-1.3,8.9-2.4,11.8-6.5c0.7-0.9,0-3.7-1.9-1.8c-2.5,2.6-6.4,3.3-9.7,3.8C89,114.2,86.6,114.7,84.4,115.4L84.4,115.4z
	 M100.6,199.3c1.2-2,3.7-3,6-3.8c1.6-0.6,3.2-1.3,4.8-2.1c-0.3-0.8-0.9-1.7-2.3-2.4c2-0.1,3.7,0.2,5.1,0.8c2.6-1.5,5-3.2,7.4-5
	c10.5-7.6,20.6-15.3,32.3-9.9c3.3,1.5,3.5-1.8,1.5-2.9c-15.6-8.5-26.5,0.1-38,7c-5.2,3.1-10.5,5.9-16.5,6.7
	c-0.4,0.8-0.9,1.6-1.3,2.4c-2.1,3.7-4.4,7.3-7.2,10.5C94.8,199.8,97.6,199.4,100.6,199.3L100.6,199.3z"/>
<path class="st1" d="M84.7,238.3c-1.6,1.6-3.3,2.8-5.1,3.5c-0.4,0-0.9,0.1-1.4,0.3c-1.9,0.6-4,0.8-6.1,0.6c-1.6-0.2-3.2-0.6-4.9-1.1
	c2.2-1,2.6-1.5,3.7-3.7c-2.2,1.8-4.5,2.4-6.7,2.1c-2.6-0.4-5.1-2.1-7.2-4.9c1.7,0,3.9-0.5,5.3-2c-4.2,0.6-7.7-0.1-10.1-3.8
	c-1.2-1.8-2.2-3.5-3.7-5.4c10-3,35.7-5.2,37.9,9.9c0.3-2.8-0.4-5-1.5-7.5c5.3,0.4,11-1.3,14.5-5.3c1.2-1.4,2.3-3.2,2.1-5.2l0-0.3
	c1.3-0.5,2.5-1.2,3.6-2.1l0.5-0.4c3.8,3.1,7.7,5.7,12.9,5.4c0.7,0,1.5-0.2,2.2-0.3c8,4,12,6.7,16.3,15.4
	c6.3,2.9,19.2,10.5,25.4,14.6c4.4,0.6,6.6,4.5,4,8.3c-0.3,0.4-1,1.2-1.6,2.1c-0.8,1.1-1.2,2.7-1.8,3.5c-1,1.3-2.1,1.9-4.3,2.1
	c-8.1,0.7-14.3-5.6-22.7-2c7.8-0.7,11.8,3,18.7,4.2c3.7,0.6,0.5,3.1-1.7,3.4c-9.6,1.1-16.4-1.9-24.7-0.9c-2.8,0.3-6.2,1-8.9,2.3
	c-3.2,1.6-6.2,4.2-4.8,8.6c-5.3-2.1-7.7-6.5-7.4-11.9c-0.6,2.2-0.9,4.9-0.5,6.8c-5.6-0.4-8.7-4.2-8.4-9.9c-0.8,1.7-1,3.6-0.7,5.4
	c-5.8-0.7-8.5-5.8-6.8-11.3c-0.9,1.1-1.5,2.5-1.8,4c-2.3-2.8-2.8-8.8-0.7-12.2c-3.8,3.5-3.4,10.6,0.6,13.8c0.2,3.5,4.3,7.8,9.3,7.7
	c1.7,2.8,5.6,4.5,8.7,4.1c1.7,3.7,7.2,6.1,10.6,5.9c-3-3.7-0.5-7.5,3.1-9.3c-1.4,4.8-0.5,9.6,2.7,13.9c-1,0.3-2,0.7-3,1.1
	c-6.6,2.6-13,6.6-18.5,11.3l-0.1-0.1c-4.2-4.1-8.8-7.1-14-9.8c-2.4-2.5-3.5-5-4.5-8c-2.9-9.1-4.7-17.4-3.2-26.9l0-0.3l0-0.1
	c0.2-1.4,0.5-2.9,0.9-4.4l0,0l0.1-0.2l0,0l0-0.1l0-0.1l0-0.1c0.2-0.9,0.5-1.8,0.8-2.8l0.1-0.2C82.7,243.1,83.6,240.8,84.7,238.3z"/>
<path class="st1" d="M91.6,443.6c-4.2,6.4,0.5,15,3.2,23.1c4.9,14.3,7.8,31.3,5.4,45.8c-1.1,6.8-3.5,12.8-6.1,20.2
	c-3.7,10.9-5.5,19.2,3.6,22c-11,5.1-15.9-3.5-13.1-9.8c-7.5,9-23.9,9.9-36,7.3c-2.4-0.5-3.8-1-4,1.2c1.2,8.2,4.1,15.2,7.7,22.2
	c3.9,7.7,8.1,15.1,13.9,21.5c3.1,3.4,8.5,5.9,9.9,10.6c0.4,1.4,0.2,3.5-0.4,4.7c-0.4,0.7-0.9,1-1.5,0.3c-0.5-0.6-1.1-1.1-1.6-1.5
	c-1-0.8-1.4-0.1-0.6,0.8c0.4,0.5,0.8,1,1.2,1.4c0.4,0.6,0.1,1.1-0.5,1.2c-2.9,0.7-6.4,0.6-9.2-0.6c-2.7-1.2-1.9-4.1-2.7-6.4
	c-0.9-2.7-1.9-3.9-5.5-2.5c-1.9,0.7-3.1-0.9-3.2-3.2c0-2.3-1-5.4-2-8.3c-4.6-13.6-14.8-28.2-20.6-42.2c-1.2-2.9-2.7-6.6-2.8-9.8
	c-0.1-3.2,2.4-5.4,6.1-5.3c2.1,0,5.1-0.3,7.2-1c2.8-0.9,5.4-2.5,8.4-3.3c3.7-0.9,5.6-0.5,8.7,1.9c0.1,0.1,0.2,0.1,0.3,0.1
	c-0.3-1.8-1.8-3.5-3.3-4.7c-4.7-3.9-6.1-10.8-2.9-16c1.3-2.1,2.2-5.1,1.9-7.4c-0.3,1.5-2.5,5.9-5.4,8.2c-2.6-6.3-1.5-11.7,1.4-16.9
	c-2.1,1.5-3.4,4.1-4.3,7.2c-1.1-5.8-1.5-11.7,1.4-17c-1.4,0.8-2.8,3.4-3.5,4.8c-2.1-5.4-2.6-11.7-2.4-17.8c-1.1,4.1-1.3,7-1.2,10.9
	c0.1,4.5-0.1,9.2-5.4,10.4c0.5-1.4,0.4-3.4-0.2-4.7c-0.8,9.1-8.8,14.6-15.4,10.4c2.2-0.9,4.5-2.7,5.1-5.2
	c-7.5,5.4-16.5,3.1-19.5-4.3c9.9,2.8,16.6-5.3,21-12.9c10.2-17.7,16.4-45,33.1-62.2c9.9-20.4,18-37,37.7-53.6c1-0.8,2-1.6,3-2.4
	c0.3,0.3,0.6,0.6,0.9,0.9c2,2,3.6,3.5,3.6,5.9c0,1.5-0.6,3.8-2.6,3.1c-1.4-0.5-2.4-1.9-2.8-3.4c-1.6,2-2.6,6.3,0.6,9.5
	c1.2,1.2,2.8,2,4.6,2.1c1,0.1,2,0,2.8-0.2c-0.3,3.6,0.5,7.2,3.1,9.7c1.4,1.3,3.1,2,4.8,2.2c4.2,0.5,7.2-1.2,10-4.3
	c-2.8,1-6.2,1.4-8.4-0.8c-1.7-1.6-2-4.3-1-6.8c0.9-2.2,2.1-4.4,3.2-6.5c4.1-7.8,4.2-16.5,0.7-24.5c-1.5-3.3-3.4-5.7-5.9-7.9
	c5.9,2.5,12.6,3.2,18.2,1.6c3.2-1,6.2-2.4,9.4-3.5c3.8-1.3,5.8,1.7,6,4.1c1.7-2.7,2.6-5.9,0-8.4c-1.8-1.7-4.7-2.2-7.3-2
	c-3.9,0.3-7.9,2-11.8,1c-6.9-1.8-10.4-8.7-10.8-15.4l-0.1-1.5c1-0.9,2-1.7,3-2.6c1,3.7,3,7.2,5.6,10.1c3.3,3.5,7.8,5.9,12.7,5.9
	c0.6,0,1.2,0,1.8-0.1c4-0.5,7.4-2.6,9.8-5.8c2.4-3.3,3.6-7.4,3.6-11.5c0-1-0.1-1.9-0.2-2.9c-0.1-0.8-0.2-1.6-0.4-2.4
	c0.3,0.1,0.5,0.1,0.8,0.1c20.2,14.6,33.9,34.9,32.8,59.4c-6.7-3.8-13.1-7.9-19.2-12.6c-2.9-2.2-6.3-4.8-10-6.8
	c-4.5-2.5-11.2-4.3-15.1-1.3c3.9-1.4,7.4-0.3,11.2,1.4c4.5,2.1,9.1,5.3,12.8,8.1c15.4,11.8,33.6,20,50.4,29.7c4.6,2.6,6,6.7,6.5,12
	c0.9,10.9-0.8,21.2-1.6,32c-0.8,10.3-2,23.5-4.1,33.4c-0.7,3.3-0.8,3.4-2.2,4.9c-0.5,0.5-1.2,2.4-1.2,3.3c-0.1,2.6,0.3,4.4-2.5,5.1
	c-0.8,0.2-1.3,0-1.2-0.9c0.1-0.8,0.1-1.5,0-2.2c-0.1-1.3-0.9-1.1-1,0.1c-0.1,0.6-0.2,1.2-0.2,1.8c-0.1,0.7-0.7,0.9-1.2,0.5
	c-2.5-1.6-4.9-4.2-5.9-7.1c-0.5-1.3-0.6-2.5,0.2-3c1.4-0.9,2.9-3.1,3.7-4.7c1.3-2.2,0.8-4.6-1.6-3.8c-1.7,0.5-2.3-1.8-1.6-3.2
	c0.8-1.6,2.1-1.9,3.5-2.8c2.9-2,5.3-4.8,6.3-9.9c2.2-11,2.9-24.5-1.1-35c-1.5-3.9-5.7-5.9-10.1-6.8c-8.5-1.8-16.9-3.3-25.5-3.8
	c-6.3-0.4-13.1-0.9-19.4-0.3c1.5-1.4,2.6-2.6,3.2-5.2c-2.8,5-10.6,6.4-17.6,3.2c2.8-0.8,4.7-2.2,5.8-5c-7.5,6.4-15.1,2.7-18-0.9
	c2,0,4.3-0.9,5.3-2.7c-5.6,3.6-10.7-0.7-12.3-7c0.2,4.2,1.9,7.8,5,9.7c2.4,4.5,9.2,6.7,11.4,6.6c3.5,3.4,14,4.4,17.3,3.5
	c2.5-0.4,8.3-0.4,17.8,0.4c-9.7,20.2-37.4,24-52.2,40.6c-9.6-0.1-18,4.5-21.8,11.7c4.3-4.8,10.6-8.7,17-8.9c3-0.1,3.6,2.7,1,3.8
	c-9.4,4-15.6,11.3-20.6,21.1C94.1,458.1,89.1,450.8,91.6,443.6L91.6,443.6z"/>
<path class="st1" d="M142.7,302.3c-2.8,0.1-5.7,0.9-7.8,1.7c-3.2,1.2-6.4,2.8-9.4,4.7l0,0.2c0.4,3.5,2,7,4.4,9.6
	c2,2.1,4.6,3.7,7.6,3.7c0.3,0,0.6,0,0.9-0.1c2.1-0.3,3.8-1.4,5-3c1.5-2.1,2.2-4.7,2.2-7.3c0-0.7,0-1.3-0.1-2
	C145.1,307.1,144.2,304.5,142.7,302.3z"/>
<path class="st0" d="M161.4,257.9c0.8-2.3,1.3-2.7,2.2-3.7c1.2-1.4-0.9-3-2.1-2.2c-0.9,0.6-3.1,1.6-4.2,1.5
	C160.2,253.8,161.4,254.9,161.4,257.9z"/>
<path class="st0" d="M55.5,225.4c8.2-2.5,22.3-1.2,25.9,7.9c-0.3-0.4-0.7-0.8-1.1-1.2c-2-2-4.4-2.8-5.3-1.9c-0.9,0.9,0,3.3,2,5.2
	c0.5,0.5,1,0.9,1.5,1.2c-4.5-0.8-6.8-4.7-5.6-8.3C67.9,225.7,61.3,224.7,55.5,225.4L55.5,225.4z"/>
<path class="st0" d="M137.1,239c-1.3-0.3-7.1-1.3-7.7,0.4c-1.2,3.7-4.1,6.3-8.4,6.3c-4.5,0-8.4-3.1-9.5-7.5
	c-0.1-0.5-0.1-0.9-0.1-1.4c-3.3,0.3-7.5-1-8.5-2c5.7,0.6,8.8-0.5,11.8-2.3c3-2.4,7-3.4,10.8-3.4c1.9,0,4.1-0.7,4.7-2.3
	c0.7,1.6-1.3,3.7-2.2,4c0.9,1.1,1.4,2.6,1.6,4C130.1,237.4,135.1,238.4,137.1,239z"/>
<path class="st1" d="M161.4,311.1c11-10.8,23.4-19.9,38.9-26.9l0,0c0.3,2.6,0.6,5.3,0.9,7.9l0,0.1c-4.4,3.3-8.6,6.8-12.6,10.3
	c4.2-2.5,8.5-4.7,12.9-6.7l0,0.2l0,0.2c0.1,1.3,0.1,2.5,0.2,3.8l0,0.2l0,0.5l0,0.2l0,0.2l0,0.2l0,0.1l0,0l0,0.5l0,0.2l0,0.1l0,0.2
	l0,0.1l0,0l0,0.1l0,0.1l0,0.5v0l0,0.1l0,0.5v0.1l0,0.1v0l0,0.2v0l0,0.1v0.1l0,0.1l0,0.3v0v0.1v0.1l0,0.2l0,6.4
	c0,3.9-1.8,9.4-5.1,11.7c-0.3-2.2-1.1-4.5-2.5-5.8c1.3,4.1,1.7,10.4-2.8,15.9c-0.1-2.6-1-6.9-2.6-9c1.1,5.9,1.3,13-4.9,17.3l-0.1,0
	c-0.2-0.6-0.4-1.1-0.6-1.7C178.4,329,170.6,319.2,161.4,311.1L161.4,311.1z"/>
<path class="st1" d="M127.2,447.8c14,5.5,35.8,19.3,41.9,34.5c2.3,5.7,4.7,11.3,8.6,16.1c2.2,2.7,4.9,4.8,8.6,4
	c-6.5,7.3-14.5,1.7-16.3-4.9c-2.5,20.8-29.5,20-33.9,33.3c-0.3,3,1.4,5.3,8.3,7.6c13.1,4.2,26.6,0.6,39.4,6c3.2,1.4,6.7,2.1,10.4,6
	c0.8,0.8,0.9,2.1,1.1,3.4c0.4,2.7,4.7,3.2,4.7,6.2c0,0.6,0,1.2-0.1,1.8c-0.1,0.8-0.5,1.2-1.3,0.8c-0.7-0.4-1.3-0.7-2-0.9
	c-1.3-0.4-1.3,0.4-0.3,1c0.5,0.3,1.1,0.7,1.6,1c0.6,0.4,0.5,1,0,1.3c-2.5,1.6-5.8,2.7-8.9,2.4c-1.3-0.1-1.3-0.7-1.3-1.5
	c0.1-2.2-0.7-5.1-2.4-6.6c-2.2-2-5.1-2.6-6.2-0.3c-0.8,1.8-2.8,1.6-4.5,0c-1.7-1.6-4.5-3.1-7.3-4.4c-12.9-6.3-24.5-7.1-39.2-10.4
	c-6.9-1.5-10.6-5.6-7.6-12.9c1.7-4.2,3.2-9.2,3.6-15c0.3-4.7-0.3-7.5-1.8-11.9c-0.9-2.1-1.6-5.1-1.7-7.9c-0.1-3.1-0.6-6.1-2.4-7.5
	c1.3,2.2,0.9,4.7,0.8,7.1c-0.1,1.9-0.2,3.8,0.2,5.7c-7.6-1.9-9-10-9.1-14.6c-1.1,2.5-0.6,6.1,0.6,8.6c-2.4-1.3-4.6-4.1-5.6-5.7
	c-4.5-6.7-5.2-14.8-7.7-22.7c2.4-4.4,6.7-11.1,11.9-15.7C114.9,446.8,120.3,445.1,127.2,447.8L127.2,447.8z"/>
<path class="st2" d="M138.8,214c0.9-6.1-6.4-6.4-9.7-5.6c-4.6,1.1-11.2,4-14.9,1.2c6.2,1.3,10.1-2.6,15.9-3c-4-4.4-8.1-3.6-11.3-1.7
	c-3.3,1.9-6.8,2.7-10.8,0.9c-2.6-1.1-5.4-2.1-8.9-1.5c2.8-1.6,5.7-1.2,8.7-0.4c3.1,0.8,6.7,0.5,8.1-2.9c0.9-2.2,0.5-5-2.1-6.7
	c1.6,5.6-5.1,6.8-10,6.6c-4.8-0.3-10.7,0-15,4c-1.8,1.7-3.5,4-3.1,6.6c1.3-0.6,2.7-0.9,4.2-0.9c1.9,0,3.6,0.7,5,2
	c2.9,2.8,6.2,1.3,8.9-0.8c-3.1-3.1-6-4.2-10.5-3.7c3.9-2.4,8.4-0.7,10.9,1.4c4.2,3.5,8.2,7.3,14.1,6.9
	C125.2,216.1,132,208.8,138.8,214L138.8,214z"/>
<path class="st2" d="M33.7,140.8c-1.2-2.2-1.6-4.2-1.7-6.2c-0.2-4.7,2.1-8.9,4.8-13.3c2.1-3.3,4.1-6.9,4.4-10.9c0.1-1-1.7-2.4-2.3,0
	c-0.8,2.9-2.7,5.5-4.6,7.8c-3.9,4.9-6.6,10.2-6.8,16.2c-0.1,2.9,0.5,8.3,2.2,10.6c-2.8,3.7-4.6,8.4-4.7,14.1
	c-0.2,9.2,4,16.9,12,22.8c-0.6,3.5-0.5,7.3,0.4,11.5c3.4,14.9,18.1,21.7,32.2,19c4.1-0.3,6,0.8,7.2,2.8c1.2,2,1.9,4,2.5,6.1
	c1.6,0.8,2.9,1.8,3.9,2.9c4.7,0.9,11-0.2,14.7-4.5c1.3-1.5,1.7-2.8,1.6-3.8c-2,0.3-4-0.1-5.9-1.9c-1-1-2.3-1.5-3.7-1.5
	c-1.4,0-2.6,0.3-3.9,0.9c1.5,2.9,4.2,5,7.6,4.9c-4.4,1.8-8.5-1.6-9.8-5.6c-0.4-1.3-0.6-2.7-0.3-4c0.6-3,2.1-3.7,4.2-5.7
	c4.2-3.9,7.5-8.5,10.2-13.5c6.2-11.4,11.7-23.7,24.5-24c3.1-0.1,2.2-3.2-0.7-3.3c-17.1-0.4-22.8,12.9-30.1,23.9
	c-4.2,6.4-8.9,12.4-16.4,15.5c-11.2,4.5-24.9,1.8-28.7-10.1c-3.3-10.3,0.6-18.2,6.3-26.8c3.1-4.7,5.6-10,5.1-16.5
	c-0.1-1.5-3-2.8-3.1,0.3c-0.1,4.4-2.7,8.4-5.5,11.6c-4,4.7-7.3,8.9-9.6,13.7c-5-3.7-8.1-8.6-8.4-14.5c-0.5-8.3,3.9-13.5,9.8-18.8
	c3.2-2.9,7-6,7.9-11c0.2-1.1-1.6-3.4-2.5-0.8c-1.1,3.4-4.4,5.7-7.1,7.6C37.4,137.8,35.4,139.3,33.7,140.8L33.7,140.8z"/>
<path class="st1" d="M127.4,232.9c0.5,1,0.7,2.1,0.7,3.3c0,4.4-2.7,7.8-7.1,7.8c-3.8,0-6.9-2.6-7.8-6.1c-0.2-0.9,0.3-1.8,0.9-2.4
	c2.7-2.8,5.9-4.4,10.5-4.4C126,231.1,126.8,231.7,127.4,232.9L127.4,232.9z"/>
<path class="st0" d="M119.8,240.4c4.7,2.5,8.1-3.4,5.2-6.5c-1-0.3-4,0.7-4.9,1.5c1.7-0.3,3,1.6,2,3.1c-0.5,0.7-1.4,1.1-2.2,0.9
	C118.8,239,118.6,239.7,119.8,240.4z"/>
<path class="st3" d="M118.3,305.4c-3.2,2.3-7.2,3.3-11.1,2.7c0.2-1.1,0.6-2.1,1-3.1c2.5-5.4,7.7-8.7,13.3-9c-0.7,1-1.2,2.1-1.7,3.2
	C119,301.1,118.5,303.3,118.3,305.4L118.3,305.4z M88.6,339c0.6,1.5,3.1,8.2-0.9,8.9C83,346.5,86.6,340.8,88.6,339z"/>
<path class="st4" d="M101.3,314.2c0.2,1,0.2,2,0.2,3.1c-0.3,6.5-4.9,11.8-10.9,13.3c-0.2-1-0.2-2-0.2-3.1
	C90.7,321,95.3,315.7,101.3,314.2L101.3,314.2z"/>
<path class="st1" d="M90,337.6c-1.4,0-2.5-1.1-2.5-2.5c0-1.4,1.1-2.5,2.5-2.5c1.4,0,2.5,1.1,2.5,2.5C92.5,336.5,91.3,337.6,90,337.6
	z M104.4,314c-1.4,0-2.5-1.1-2.5-2.5s1.1-2.5,2.5-2.5c1.4,0,2.5,1.1,2.5,2.5S105.8,314,104.4,314z M143.5,292.9L143.5,292.9
	c0-0.5,0.1-1,0.4-1.4c0.3-0.2,0.5-0.4,0.7-0.7c0.4-0.2,0.8-0.4,1.3-0.4c1.4,0,2.5,1.1,2.5,2.5c0,1.3-1,2.3-2.2,2.5
	C145.4,294.5,144.5,293.7,143.5,292.9z M87.3,353.9c-1.4,0-2.5-1.1-2.5-2.5c0-1.4,1.1-2.5,2.5-2.5c1.4,0,2.5,1.1,2.5,2.5
	C89.8,352.8,88.7,353.9,87.3,353.9z"/>
<path class="st2" d="M104.4,354.8c-2.8-2.2-5.8-4.5-7.5-8c-0.6,3.3-0.8,6.8,0.3,9.6c0.1,0.2,0.1,0.3,0.2,0.5
	c1.2,1.3,2.4,2.5,3.7,3.8c2.8,2.8,5,5.2,3.7,9.7c-0.8,2.6-4,3.7-6.5,0.8c-0.5,3.5,2.2,6,5.1,6.2c3.1,0.3,4.6-1.4,5.9-3.7
	c-3.6,7.4-0.9,17.3,8.5,15.1c-4-0.9-7-5.1-4.8-10.5c0.9-2.2,2.1-4.5,3.3-6.7c3.8-7.3,4-15.4,0.6-23c-1.8-4.1-4.5-6.7-7.9-9.4
	c-2.1-1.7-5.1-4.2-6.7-6.2c-1.2,2.2-2.3,4.4-3.2,6.8c-0.4,1.1-0.8,2.3-1.2,3.5C98.1,347,101.2,350.9,104.4,354.8L104.4,354.8z
	 M103.2,331.2c5.7,7.1,17.9,11.3,27,8.7c3.1-0.9,6.2-2.4,9.4-3.5c2.1-0.7,4.9-0.2,6.6,1.3c-0.3-3.6-4.2-4.5-7.2-4.2
	c-3.9,0.3-8,2.1-12.4,1c-6.9-1.9-11.6-8.6-12.1-17c-0.7,0.7-1.5,1.4-2.1,2.1C108.9,323.1,105.8,327,103.2,331.2L103.2,331.2z
	 M100.5,299.7c-4-4-8.4-6.9-14.6-10.1c-7.6-3.9-14.8-12.3-14-25.5c0.8,8.2,4.5,15.9,11,21c-4.4-13.1-6.8-23-3.9-35.4
	c0.4-1.5,0.8-3.1,1.3-4.6c0.5-1.4,0.2-1.9-1.5-1.4c-2.1,0.7-4.5,0.9-7,0.7c-1.9,1.6-3.4,3.7-4,6.5c2.4,0.2,5-1.9,5.8-4
	c-0.3,3.8-3.3,4.9-6.3,6.4c-7.7,3.8-6.8,8-10.6,14.8c-1.9,3.4-5.8,5.5-9,1.9c-0.5,6.2,5.6,8,9.7,4.9c2.3-1.7,2.3-6,4.9-7.4
	c-2.2,3.7-2.2,7.4-2.2,10.7c0.1,5.3-0.5,7.9-3.5,11.8c-4.3,5.5-6.5,10.5-2.3,15.1c-0.3-4.4,1.2-5.8,3.5-8c4.2-4.2,7.7-7,8.5-13.1
	c0.6,6-3.9,9.4-3.9,15c0,3.4,1.5,5.9,2.4,8.5c2.3,6.3-0.9,11.1-5.6,14.3c-8.8,6-11.1,13.2-6.9,19.1c-0.6-5.7,3.5-10.6,7.9-10.8
	c-3.5,7.8,1.1,13.5,6,19.1c2.2,2.5,4.9,9.2,0.9,10.7c7.9-0.8,5.4-9.1,3.8-12.1c-2.8-5-4.9-12,0-18.1c6.3-7.8,9.1-14.7,5.1-22.1
	c4,4.4,3.3,10.3,2.2,13.6c-1.3,4-1.6,7.9,1.2,12.8c0.6-2.7,1.4-5.3,2.3-7.5c2.1-5.5,5-10.8,8.5-15.6c-1.1-2.6-3.1-5.1-7-8.7
	c3.8,2.1,6.6,4.5,8.2,7c1.7-2.2,3.5-4.3,5.4-6.2C98.1,301.9,99.2,300.8,100.5,299.7L100.5,299.7z M91.1,340.9
	c0.2-0.6,0.4-1.2,0.6-1.8c-0.3,0.2-0.7,0.3-1.1,0.3C90.8,339.8,90.9,340.3,91.1,340.9L91.1,340.9z M88.6,328.4
	c-0.1,0.2-0.2,0.4-0.2,0.6c-0.3,0.8-0.6,1.7-0.9,2.7c0.4-0.3,0.9-0.6,1.4-0.7l0-0.1C88.7,330.1,88.7,329.3,88.6,328.4L88.6,328.4z
	 M86.1,336.9c-0.2,0.9-0.3,1.8-0.4,2.8c0.4-0.6,0.8-1.1,1.3-1.5C86.6,337.8,86.3,337.4,86.1,336.9z M103.1,319.2
	c1.3-1.5,2.6-3,3.9-4.4l0,0c-0.7,0.6-1.7,0.9-2.7,0.9c-0.4,0-0.8-0.1-1.1-0.2c0,0.6,0.1,1.2,0,1.8
	C103.3,318,103.2,318.6,103.1,319.2z M107.7,314.2c1.5-1.5,3.1-3,4.7-4.4c-1.3,0.2-2.6,0.3-4,0.2c0.2,0.5,0.3,1,0.3,1.5
	C108.7,312.5,108.3,313.4,107.7,314.2z M107,303.4c-1.7,1.4-3.3,2.9-4.8,4.5c0.7-0.4,1.4-0.7,2.3-0.7c0.4,0,0.8,0.1,1.1,0.2
	c0.3-1.1,0.6-2.1,1.1-3.1C106.7,304,106.9,303.7,107,303.4z M100.7,309.4c-1.4,1.5-2.7,3.1-4,4.8c1.1-0.6,2.3-1.1,3.6-1.5
	c-0.1-0.4-0.2-0.8-0.2-1.2C100.2,310.7,100.4,310,100.7,309.4z"/>
<path class="st2" d="M137.4,295.5c-0.3-0.1-0.5-0.3-0.7-0.5c0-0.7,0-1.3-0.1-2c0.4-0.7,1.4-1.1,2.2-0.7c3.2,1.3,6,3.6,8.1,6.6
	c2.1,2.9,3.5,6.5,4,10.3c0.1,0.9,0.2,1.8,0.2,2.7c0,4-1.2,7.7-3.2,10.4c-2.1,2.8-5.1,4.7-8.6,5.1c-0.5,0.1-1,0.1-1.6,0.1
	c-4.2,0-8.3-2-11.4-5.3c-3.1-3.2-5.3-7.7-5.9-12.6c-0.4-3.5,0-6.8,1.2-9.7c1.2-2.9,3.1-5.3,5.7-6.9c0.8-0.5,1.9-0.2,2.4,0.6
	c0.5,0.8,0.2,1.9-0.6,2.4c-1.9,1.1-3.3,2.9-4.2,5.2c-0.9,2.3-1.3,5.1-0.9,7.9c0.5,4.1,2.3,7.9,4.9,10.6c2.5,2.6,5.6,4.2,8.8,4.2
	c0.4,0,0.8,0,1.1-0.1c2.5-0.3,4.7-1.7,6.2-3.7c1.6-2.1,2.5-5,2.5-8.3c0-0.7,0-1.5-0.1-2.2c-0.4-3.2-1.6-6.2-3.3-8.7
	C142.1,298.5,139.9,296.6,137.4,295.5L137.4,295.5z M126.4,291.1c0.5-1.8,2.2-2.5,3.9-2.2c3.6,0.4,5.4,4.7,4.1,7.8
	c-0.6,1.6-1.9,2.5-3.5,2.9c-1.4,0.3-2.6-1-0.8-2.1c3.2-1.8,1.2-6.6-1.8-6.8C127.7,290.8,127.1,290.9,126.4,291.1L126.4,291.1z
	 M95.6,357c0.4,0.9-0.1,1.9-1,2.3c-0.9,0.4-1.9-0.1-2.3-1c-2-5.2-1.4-12.5,1.7-20.4c2.8-7.3,7.8-15.1,14.5-22l0,0l0,0l0,0
	c3.2-3.3,6.5-6.2,9.9-8.6c0,0.8,0.1,1.7,0.2,2.5c0.1,0.5,0.2,1.1,0.3,1.6c-2.6,2.1-5.2,4.4-7.8,7l0,0l0,0l0,0
	c-6.4,6.5-11,13.9-13.7,20.8C94.5,346.3,93.9,352.7,95.6,357L95.6,357z M126.2,302.2c0.8-0.4,1.6-0.9,2.4-1.2
	c0.7,0.5,1.6,0.7,2.7,0.5c1.9-0.5,3.5-1.5,4.4-3.2c0.7-0.2,1.3-0.4,2-0.5c1.4,0.7,2.6,1.8,3.7,3c-2.2,0.2-4.6,0.8-7.1,1.7
	c-2.8,1-5.8,2.5-8.9,4.4C125.4,305.2,125.7,303.6,126.2,302.2L126.2,302.2z M148.1,297.7c1.9,0.6,3.5,1.5,4.9,2.8
	c0.2,0.2,0.5,0.5,0.7,0.7c0.2,0.3,0.4,0.5,0.6,0.8c0.6,0.8,0.4,1.9-0.4,2.5c-0.8,0.6-1.9,0.4-2.5-0.4l0,0
	C150.6,301.9,149.6,299.7,148.1,297.7L148.1,297.7L148.1,297.7z M84.6,348.2c0.3,0.9-0.1,1.9-1,2.3c-0.9,0.3-1.9-0.1-2.3-1
	c-1.9-5-1.3-13.2,2.1-22.3c2.9-7.5,7.7-15.6,14.8-22.9c6.9-7.1,15-12.3,22.7-15.4c8.3-3.3,16.2-4.1,21.5-1.8
	c0.9,0.4,1.3,1.4,0.9,2.3c-0.4,0.9-1.4,1.3-2.3,0.9c-1.8-0.8-3.9-1.1-6.4-1c-1-1.2-2.4-2-4.1-2.2c-2.6-0.3-5,0.9-5.8,3.5l-0.2,0.8
	c-0.7,0.3-1.5,0.5-2.2,0.8c-7.2,2.9-15,7.8-21.5,14.6c-6.7,6.9-11.3,14.6-14,21.7C83.6,336.6,83,343.9,84.6,348.2L84.6,348.2z"/>
<path class="st2" d="M199,466.9c1,4,3.9,7.4,7.2,9.5c0.8,0.5,1.3,0.8,1.1,1.8c-1.3,4.5-3.4,8.2-6.2,12l-0.5,0.5
	c-0.6,0.2-1.1,0-1.7-0.5c-4.7-3.9-6.5-12.4-6.8-18.5c-0.1-1.4,0.6-2.4,1.7-3.2c1.3-0.9,2.7-1.9,4.2-2.3
	C198.4,466.1,198.9,466.5,199,466.9L199,466.9z M210,477.3c1.1-0.1,2.2-0.5,3.2-1c0.4-0.2,0.6,0.2,0.7,0.6c1,5-1.5,13.1-6.3,16
	c-0.8,0.5-1.3,0.3-2-0.5c-0.7-0.7-1.2-1.3-1.5-2c2-3.2,3.8-7.8,4.7-11.9C208.9,478.2,209.6,477.3,210,477.3z M201.4,563.2
	c0.4-1,0.5-2.2,0.4-3.3c0-0.5,0.5-0.4,0.8-0.3c5,1.2,11.2,6.8,11.9,12.4c0.1,0.9-0.3,1.3-1.3,1.6c-0.9,0.3-1.7,0.5-2.4,0.5
	c-2.1-3.2-5.5-6.7-8.8-9.3C201.8,564.5,201.3,563.5,201.4,563.2L201.4,563.2z M187.4,568.8c4,0.8,8.3-0.4,11.7-2.6
	c0.8-0.5,1.3-0.9,2.1-0.2c3.5,3,6,6.5,8.3,10.7l0.3,0.7c-0.1,0.6-0.5,1-1.2,1.4c-5.6,2.6-14,0.7-19.7-1.6c-1.3-0.5-1.9-1.5-2.2-2.9
	c-0.3-1.5-0.6-3.3-0.3-4.8C186.4,569,187,568.7,187.4,568.8z M76.8,614.2c0.7-0.9,1.1-1.9,1.5-3c0.1-0.5,0.6-0.3,0.9-0.1
	c4.4,2.7,8.5,10.1,7.3,15.6c-0.2,0.9-0.6,1.1-1.7,1.2c-0.9,0-1.7,0-2.4-0.3c-0.9-3.7-3-8.1-5.4-11.6
	C76.8,615.7,76.6,614.5,76.8,614.2L76.8,614.2z M61.8,615.1c3.6,2,8,2.3,11.9,1.3c0.9-0.2,1.5-0.4,2,0.5c2.4,4,3.6,8.1,4.4,12.8
	l0,0.7c-0.3,0.5-0.8,0.8-1.6,0.9c-6.1,0.7-13.5-3.8-18.1-7.8c-1.1-0.9-1.3-2.1-1.1-3.5c0.2-1.6,0.5-3.3,1.2-4.6
	C60.8,615,61.4,614.9,61.8,615.1L61.8,615.1z"/>
<path class="st0" d="M349.1,190.2c-0.9-4.7-1.3-8.9-1.3-13.7c-2.7,3.6-5.7,6.9-9.5,9c3.2-3.5,5.7-7.2,7.3-11.7
	c-3.1,2.6-6.5,3.6-10.3,2.5c6.2,0.4,12.1-8.6,12.7-14.3c0.5-4.1-3-1.9-4.7,0c-1.3,1.4-2.1,3.9-2.8,3.9c-0.7,0-1.7-2.7-3-4.1
	s-3.6-2.3-3.6-3c0-0.7,2.5-1.8,3.8-3.2c1.3-1.4,2.1-3.9,2.8-3.9c0.7,0,1.7,2.7,3,4.1c3.7,4,6.2,1.2,2.4-2.7c-1.4-1.4-3.8-2.3-3.9-3
	c0-0.7,2.7-1.8,4.1-3.2c1.4-1.4,2.2-3.9,3-3.9c0.7,0,1.8,2.7,3.2,4.1c1.4,1.4,3.8,2.3,3.9,3c0,0.7-2.7,1.8-4.1,3.2
	c-4.1,4.1-0.7,6,2.9,2.2c1.3-1.4,2.1-3.9,2.8-3.9c0.7,0,1.7,2.7,3,4.1c1.3,1.4,3.6,2.3,3.6,3c0,0.7-2.5,1.8-3.8,3.2
	c-1.3,1.4-2.1,3.9-2.8,3.9c-0.7,0-1.7-2.7-3-4.1c-1.7-1.8-5-3.6-4.6,0.3c0.7,5.7,6.5,14.7,12.7,14.3c-3.7,1.1-7.2,0.1-10.3-2.5
	c1.6,4.5,4,8.2,7.3,11.7c-3.8-2.1-6.8-5.4-9.5-9C350.4,181.3,350,185.5,349.1,190.2L349.1,190.2z"/>
<path class="st0" d="M262.8,207.4c-1.3-3.2-2.2-6.1-3-9.5c-0.7,2.9-1.7,5.7-3.3,7.7c1-3,1.6-6,1.7-9.4c-1.1,2.3-2.7,3.5-4.8,3.3
	c3.2-0.6,4.6-7.9,4-12c-0.5-3-1.8-0.9-2.4,0.6c-0.4,1.2-0.4,3.1-0.7,3.2c-0.3,0.1-1.3-1.7-2.2-2.5c-0.9-0.8-2.2-1.1-2.4-1.6
	c-0.1-0.5,1-1.7,1.4-2.9s0.4-3.1,0.7-3.2c0.3-0.1,1.3,1.7,2.2,2.5c2.6,2.3,3.3-0.1,0.8-2.2c-1-0.8-2.3-1.1-2.5-1.6
	c-0.1-0.5,1-1.7,1.5-2.9c0.5-1.2,0.5-3.1,0.8-3.2c0.4-0.1,1.4,1.7,2.3,2.5c1,0.8,2.3,1.1,2.5,1.6c0.1,0.5-1,1.7-1.5,2.9
	c-1.3,3.5,0.7,4.4,1.8,1.1c0.4-1.2,0.4-3.1,0.7-3.2c0.3-0.1,1.3,1.7,2.2,2.5c0.9,0.8,2.2,1.1,2.4,1.6c0.1,0.5-1,1.7-1.4,2.9
	c-0.4,1.2-0.4,3.1-0.7,3.2c-0.3,0.1-1.3-1.7-2.2-2.5c-1.2-1-3.2-1.8-2.3,0.9c1.3,4,5.8,9.5,8.9,8.3c-1.7,1.3-3.6,1.1-5.6-0.3
	c1.6,3,3.5,5.2,5.7,7.3c-2.3-0.9-4.4-2.9-6.4-5C261.9,200.9,262.5,203.9,262.8,207.4L262.8,207.4z"/>
<path class="st0" d="M282.7,190.8c-1.3-3.8-2.1-7.2-2.7-11.2c-1.3,3.2-2.9,6.3-5.2,8.5c1.7-3.3,2.8-6.6,3.3-10.5
	c-1.7,2.5-3.9,3.7-6.6,3.2c4.2-0.3,7-8.4,6.6-13.2c-0.2-3.4-2.3-1.2-3.1,0.5c-0.7,1.3-0.9,3.4-1.4,3.5c-0.5,0.1-1.5-2.1-2.6-3.1
	c-1.1-1-2.7-1.5-2.8-2.1c-0.1-0.6,1.5-1.8,2.2-3.1c0.7-1.3,0.9-3.4,1.4-3.5c0.5-0.1,1.5,2.1,2.6,3.1c3,2.9,4.3,0.3,1.2-2.5
	c-1.1-1-2.9-1.5-3-2.1c-0.1-0.6,1.6-1.8,2.3-3.1c0.8-1.3,1-3.5,1.5-3.6c0.5-0.1,1.6,2,2.7,3.1c1.1,1,2.9,1.5,3,2.1
	c0.1,0.6-1.6,1.8-2.3,3.1c-2.2,3.8,0.3,5.1,2.2,1.5c0.7-1.3,0.9-3.4,1.4-3.5c0.5-0.1,1.5,2.1,2.6,3.1c1.1,1,2.7,1.5,2.8,2.1
	c0.1,0.6-1.5,1.8-2.2,3.1c-0.7,1.3-0.9,3.4-1.4,3.5c-0.5,0.1-1.5-2.1-2.6-3.1c-1.4-1.3-3.9-2.4-3.1,0.7c1.2,4.6,6.4,11.5,10.5,10.4
	c-2.4,1.3-4.8,0.9-7.3-1c1.7,3.5,3.8,6.3,6.5,8.9c-2.9-1.3-5.3-3.7-7.6-6.4C282.3,183.3,282.7,186.8,282.7,190.8L282.7,190.8z"/>
<path class="st0" d="M314.8,203.4c-1-3.9-1.5-7.4-1.8-11.4c-2,3.1-4.4,6.1-7.4,8c2.5-3.1,4.3-6.3,5.4-10.2c-2.4,2.3-5.3,3.4-8.4,2.6
	c5.2,0.1,9.6-7.8,9.8-12.6c0.2-3.4-2.6-1.4-3.9,0.2c-1,1.3-1.6,3.4-2.1,3.4c-0.6,0-1.5-2.2-2.7-3.3c-1.2-1.1-3.1-1.7-3.2-2.3
	c0-0.6,2-1.6,3-2.9c1-1.3,1.6-3.4,2.1-3.4c0.6,0,1.5,2.2,2.7,3.3c3.3,3.2,5.2,0.7,1.8-2.3c-1.2-1.1-3.3-1.7-3.4-2.3
	c0-0.6,2.1-1.6,3.2-2.9c1.1-1.3,1.7-3.4,2.3-3.4c0.6,0,1.6,2.2,2.9,3.3c1.2,1.1,3.3,1.7,3.4,2.3c0,0.6-2.1,1.6-3.2,2.9
	c-3.2,3.6-0.3,5.1,2.5,1.7c1-1.3,1.6-3.4,2.1-3.4c0.6,0,1.5,2.2,2.7,3.3c1.2,1.1,3.1,1.7,3.2,2.4c0,0.6-2,1.6-3,2.9
	c-1,1.3-1.6,3.4-2.1,3.4c-0.6,0-1.5-2.2-2.7-3.3c-1.5-1.4-4.4-2.8-3.8,0.5c0.8,4.8,6.2,12,11.3,11.4c-3,1.1-6,0.4-8.7-1.6
	c1.6,3.7,3.8,6.7,6.6,9.5c-3.3-1.6-6-4.2-8.4-7.1C315.4,195.9,315.3,199.4,314.8,203.4L314.8,203.4z"/>
<path class="st0" d="M415.7,190.8c1.3-3.8,2.1-7.2,2.7-11.2c1.3,3.2,2.9,6.3,5.2,8.5c-1.7-3.3-2.8-6.6-3.3-10.5
	c1.7,2.5,3.9,3.7,6.6,3.2c-4.2-0.3-7-8.4-6.6-13.2c0.2-3.4,2.3-1.2,3.1,0.5c0.7,1.3,0.9,3.4,1.4,3.5c0.5,0.1,1.5-2.1,2.6-3.1
	c1.1-1,2.7-1.5,2.8-2.1c0.1-0.6-1.5-1.8-2.2-3.1c-0.7-1.3-0.9-3.4-1.4-3.5c-0.5-0.1-1.5,2.1-2.6,3.1c-3,2.9-4.3,0.3-1.2-2.5
	c1.1-1,2.9-1.5,3-2.1c0.1-0.6-1.6-1.8-2.3-3.1c-0.8-1.3-1-3.5-1.5-3.6c-0.5-0.1-1.6,2-2.7,3.1c-1.1,1-2.9,1.5-3,2.1
	c-0.1,0.6,1.6,1.8,2.3,3.1c2.2,3.8-0.3,5.1-2.2,1.5c-0.7-1.3-0.9-3.4-1.4-3.5c-0.5-0.1-1.5,2.1-2.6,3.1c-1.1,1-2.7,1.5-2.8,2.1
	c-0.1,0.6,1.5,1.8,2.2,3.1c0.7,1.3,0.9,3.4,1.4,3.5c0.5,0.1,1.5-2.1,2.6-3.1c1.4-1.3,3.9-2.4,3.1,0.7c-1.2,4.6-6.4,11.5-10.5,10.4
	c2.4,1.3,4.8,0.9,7.3-1c-1.7,3.5-3.8,6.3-6.5,8.9c2.9-1.3,5.3-3.7,7.6-6.4C416,183.3,415.7,186.8,415.7,190.8L415.7,190.8z"/>
<path class="st0" d="M383.6,203.4c1-3.9,1.5-7.4,1.8-11.4c2,3.1,4.4,6.1,7.4,8c-2.5-3.1-4.3-6.3-5.4-10.2c2.4,2.3,5.3,3.4,8.4,2.6
	c-5.2,0.1-9.6-7.8-9.8-12.6c-0.2-3.4,2.6-1.4,3.9,0.2c1,1.3,1.6,3.4,2.1,3.4c0.6,0,1.5-2.2,2.7-3.3c1.2-1.1,3.1-1.7,3.2-2.3
	c0-0.6-2-1.6-3-2.9c-1-1.3-1.6-3.4-2.1-3.4c-0.6,0-1.5,2.2-2.7,3.3c-3.3,3.2-5.2,0.7-1.8-2.3c1.2-1.1,3.3-1.7,3.4-2.3
	c0-0.6-2.1-1.6-3.2-2.9c-1.1-1.3-1.7-3.4-2.3-3.4c-0.6,0-1.6,2.2-2.9,3.3c-1.2,1.1-3.3,1.7-3.4,2.3c0,0.6,2.1,1.6,3.2,2.9
	c3.2,3.6,0.3,5.1-2.5,1.7c-1-1.3-1.6-3.4-2.1-3.4c-0.6,0-1.5,2.2-2.7,3.3c-1.2,1.1-3.1,1.7-3.2,2.4c0,0.6,2,1.6,3,2.9
	c1,1.3,1.6,3.4,2.1,3.4c0.6,0,1.5-2.2,2.7-3.3c1.5-1.4,4.4-2.8,3.8,0.5c-0.8,4.8-6.2,12-11.3,11.4c3,1.1,6,0.4,8.7-1.6
	c-1.6,3.7-3.8,6.7-6.6,9.5c3.3-1.6,6-4.2,8.4-7.1C383,195.9,383.1,199.4,383.6,203.4L383.6,203.4z"/>
</svg>
