<svg style="enable-background:new 0 0 307.1 376.5" version="1.1" viewBox="0 0 307.1 376.5" xml:space="preserve" xmlns="http://www.w3.org/2000/svg">
<style type="text/css">
	.st0{fill:#1D1D1B;}
	.st1{fill:#DA2439;}
	.st2{fill:#3DAA5F;}
	.st3{fill:#B9AEA4;}
	.st4{fill:#866C5D;}
	.st5{fill:#FFFFFF;}
	.st6{fill:#999999;}
</style>

<rect x="2.7446" y="4.0544" width="300.47" height="180.86" ry="0" style="fill:#3daa5f;paint-order:fill markers stroke;stroke-width:0"/><path class="st5" d="m59.135 162.43c-8.452-7.6822-9.6476-12.071-14.262-21.631 0.1-0.9 0.45625-1.5 1.4562-1.7 2.3643-1.4594 7.24-2.29 17-4.3 1 1 1.0884 2.4873 1.0884 3.7873-5.0147 2.5287-11.374 1.9321-15.834 3.6558 2.937 5.2384 5.1081 10.743 11.445 15.957 4.9915-1.9466 10.367-4.2341 14.7-6.1 2.3872-1.3073 6.107-1.8339 8.6375-2.025-0.1 0.4 0.95625 0.7 0.41875 1.6625-8.444 4.103-17.263 8.0651-24.65 10.694z"/><path class="st5" d="m236.52 163.39c8.452-7.6822 9.6476-12.071 14.262-21.631-0.1-0.9-0.0143-3.3562-1.0143-3.5562-2.3643-1.4594-11.576-2.0008-21.243-2.8858-1 1-3.6958 2.664-3.6958 3.964 8.6022 0.98502 14.313 1.446 21.004 2.3742-2.937 5.2384-5.9919 13.571-8.5285 17.681-4.0614-1.1886-19.86-9.7352-21.747-9.937-4.0984-0.48389-7.3644 0.34644-6.8269 1.3089 8.444 4.103 20.4 10.054 27.788 12.682z" style="fill:#fff"/><path class="st0" d="m0 315.9v-315.9h307.1v317.6c-0.1 0.2-0.3 0.4-0.3 0.6 0.1 1.8-0.5 3.5-0.7 5.3-0.2 1.7-0.8 3.3-1.3 4.9-1.3 4.5-3.3 8.7-5.9 12.6-2.2 3.4-4.9 6.2-8 8.7-1.6 1.3-3.4 2.4-5.2 3.4-1.7 0.9-3.5 1.7-5.3 2.4-2.3 0.9-4.6 1.5-6.9 1.9-0.8 0.1-1.7 0.2-2.5 0.4s-1.6 0.3-2.5 0.4c-0.5 0-0.9 0.1-1.6 0.2-0.2 0-0.6-0.2-0.9-0.1-0.9 0.2-1.9 0.1-2.8 0.1-1 0.1-2.1 0-2.8 0.3h-3.6c-1.3 0-2.6 0-3.8 0.1-1.3 0-2.6 0.2-4 0.2h-15.6-1.1c-0.8-0.2-1.6-0.2-2.4-0.1-0.7 0.1-1.4 0-2.1 0-2-0.2-4.1 0-6.1-0.2-1.2-0.2-2.5 0-3.7-0.1-1.6-0.2-3.3-0.2-4.9-0.3-1 0-2 0-2.9-0.2-0.8-0.2-1.6-0.2-2.4-0.2s-1.6 0-2.4-0.1-1.6-0.1-2.4-0.2c-0.9 0-1.7 0.1-2.5-0.1-1.4-0.3-2.9-0.3-4.4-0.3h-1c-1.5-0.3-2.9-0.2-4.4-0.1-1 0.1-2 0.2-3-0.1h-0.4c-1 0.2-2.1 0.3-3.1 0.5-2.8 0.6-5.6 1.4-8.2 2.7-2 1-4 2-5.9 3.1-1.8 1.1-3.5 2.2-5.2 3.5-2.8 2.1-5.5 4.3-7.9 6.9-0.9 1-1.9 2-2.9 2.9h-0.3l-0.9-0.9c-0.5-0.5-1.1-1-1.6-1.5-0.7-0.7-1.4-1.5-2.2-2.2-0.8-0.8-1.6-1.5-2.4-2.2-2.1-1.8-4.3-3.4-6.5-5-2.4-1.6-4.9-3-7.5-4.3-2.5-1.2-5.1-2-7.7-2.7-0.6-0.2-1.2-0.3-1.8-0.4-0.9-0.2-1.8-0.3-2.8-0.4-0.9-0.1-1.9-0.2-2.8-0.1-1 0-2 0.2-3.1 0.2-1.4-0.1-2.9 0.1-4.4 0.2-0.9 0-1.9 0.2-2.8 0.2-1.7 0.1-3.5 0-5.2 0.3-1.4 0.2-2.8 0-4.2 0.3s-2.8 0.2-4.2 0.2c-0.4 0-0.8 0.1-1.2 0.2s-0.9-0.1-1.4-0.1c-1 0.2-2.1 0.1-3.1 0.2-2 0.1-4.1 0.2-6.1 0.3-2.4 0.1-4.7 0.1-7.1 0.2-3.2 0.2-6.5 0.1-9.8 0-2.9 0-5.8 0.1-8.7-0.1-2-0.2-4-0.1-6-0.1-1.5 0-3.1 0.2-4.7-0.2-0.2 0-0.4 0-0.6-0.1-1.2 0-2.5 0-3.7-0.2-1.7-0.2-3.4-0.2-5.1-0.5-1.4-0.3-2.8-0.5-4.2-0.8-0.9-0.1-1.7-0.4-2.6-0.7-2.4-0.9-4.8-1.6-7-2.9-1.4-0.8-2.9-1.6-4.3-2.5-1.3-0.9-2.7-1.8-3.7-3l-0.3-0.3c-1.6-0.9-2.6-2.5-3.7-3.8-0.9-1-1.5-2.3-2.4-3.3-1-1.3-1.7-2.7-2.4-4.1-0.8-1.6-1.5-3.2-2.2-4.9-1.1-2.8-1.9-5.6-2.4-8.5-0.4-2.1-0.9-4.1-0.8-6.3 0-0.2-0.1-0.4-0.1-0.5 0.2-0.3 0-0.4-0.1-0.4zm4.6-126.5c0 0.6-0.1 1.2-0.1 1.7v6.3 96.2 12.6c0 4.2-0.2 8.4 0.3 12.6 0.1 1.1 0.3 2.2 0.5 3.4 0.2 0.9 0.5 1.7 0.6 2.6 0.5 2.8 1.5 5.4 2.6 7.9 2 4.4 4.6 8.3 8.1 11.7 2 1.9 4.2 3.5 6.6 4.9 3.9 2.2 8.1 3.5 12.5 4.4 1 0.2 2 0.5 3.1 0.4h0.4c1.4 0.4 2.8 0.1 4.2 0.5 3 0 6 0.4 8.9 0.3h0.8l4.8 0.3h10.2c3.4 0 6.9 0.2 10.3-0.2 1.5-0.2 3 0 4.6-0.1 1.5 0 3-0.1 4.5-0.3 1-0.1 2.1-0.2 3.1-0.2 0.9 0 1.8-0.1 2.7-0.1 0.4 0 0.8-0.1 1.3-0.1 1.6-0.1 3.1 0 4.7-0.3 1.4-0.2 2.8-0.2 4.2-0.3 2.1-0.2 4.2 0 6.4-0.3 1.1-0.1 2.1-0.2 3.2-0.1h0.7c0.5 0 0.9-0.1 1.4-0.1 2.1 0 4.2-0.1 6.2 0.2 1.4 0.2 2.9 0.4 4.3 0.8 2.8 0.6 5.5 1.7 8.1 2.9 2.9 1.4 5.7 2.9 8.4 4.8 1.9 1.3 3.8 2.7 5.6 4.1 1.6 1.3 3.1 2.7 4.6 4 0.4 0.4 0.9 0.6 1.3 0.9 0.9-0.4 1.4-1 2-1.5 1.1-1 2.2-2.1 3.4-3 2.3-1.8 4.5-3.6 7-5.1 3.3-2 6.6-3.9 10.1-5.3 4.3-1.7 8.7-2.6 13.4-2.7 2 0 4 0.1 5.9 0.2 2.6 0.1 5.3 0.4 7.9 0.4h0.4c1.8 0.4 3.6 0.2 5.4 0.5s3.7 0 5.5 0.3c1.3 0.2 2.6 0.1 4 0.2 2.4 0.2 4.9 0.4 7.4 0.3 1.1 0 2.3-0.1 3.4 0.1 1.3 0.2 2.6 0.2 3.8 0.2h9.7c3.2 0 6.4 0.1 9.6-0.2 2.1-0.2 4.2-0.1 6.3-0.1h1.1c2.1-0.3 4.1-0.5 6.2-0.5 0.5 0 0.9-0.1 1.4-0.2 0.3 0 0.6-0.1 0.8-0.1 0.8 0 1.6-0.1 2.4-0.3 2-0.3 4-0.8 5.9-1.4 3.5-1 6.7-2.5 9.7-4.5 1.7-1.1 3.2-2.3 4.6-3.7 0.4-0.4 0.8-0.9 1.2-1.4 1-1 1.9-2 2.7-3.1s1.5-2.3 2.2-3.5c1.4-2.4 2.5-4.9 3.4-7.5 1-2.9 1.7-6 2.1-9.1 0.3-1.8 0.4-3.7 0.4-5.5v-122-2c0-0.3-0.1-0.5-0.2-0.8-0.2-0.1-0.4-0.1-0.5-0.1h-297.7zm298.5-185.1c-0.3 0-0.5-0.1-0.7-0.1-99.2 0-198.5 0-297.7 0.1-0.1 0-0.2 0.1-0.3 0.2 0 0.2 0 0.5-0.1 0.8v3.4 165.1 9.9c0 0.4-0.1 0.8 0.3 1.1h1.5 38.4 251.4 6.4c0.3 0 0.5-0.1 0.8-0.1v-180.4z" style="enable-background:new 0 0 307.1 376.5"/><path class="st1" d="m4.2875 189.37 298.18 0.0273c0.1 1e-5 0.33516 0.10391 0.53516 0.10391 0.1 0.2 0.2 0.5 0.2 0.8v124c0 1.9-0.1 3.7-0.4 5.5-0.4 3.1-1.1 6.1-2.1 9.1-0.9 2.6-2 5.1-3.4 7.5-0.7 1.2-1.4 2.3-2.2 3.5-0.8 1.1-1.7 2.1-2.7 3.1-0.4 0.4-0.8 0.9-1.2 1.4-1.4 1.4-3 2.7-4.6 3.7-3 1.9-6.3 3.5-9.7 4.5-1.9 0.5-3.9 1.1-5.9 1.4l-2.4 0.3c-0.3 0-0.6 0.1-0.8 0.1-0.5 0.1-0.9 0.2-1.4 0.2-2.1 0-4.1 0.2-6.2 0.5h-1.1c-2.1 0-4.2-0.1-6.2 0.1-3.2 0.3-6.4 0.2-9.6 0.2h-9.7c-1.3 0-2.75 0.0625-4.05-0.1375-1.1-0.2-2.3-0.1-3.4-0.1-2.5 0.1-4.9-0.2-7.4-0.3-1.3-0.1-2.6 0-4-0.2-1.8-0.3-3.7 0-5.5-0.3s-3.6 0-5.4-0.5h-0.4c-2.6 0.1-5.3-0.2-7.9-0.4-2-0.1-4.0004-0.23633-5.9-0.2-4.6221 0.0884-8.85 0.9375-13.15 2.6375-3.6 1.4-6.9 3.3-10.1 5.3-2.5 1.5-4.7 3.4-7 5.1-1.2 0.9-2.3 2-3.4 3-0.6 0.5-1.2768 1.5536-2.1768 1.8536-0.4-0.3-0.9-0.6-1.3-0.9-1.6-1.3-3-2.7-4.6-4-1.8-1.4-3.7-2.8-5.6-4.1-2.6-1.8-5.4-3.4-8.4-4.8-2.6-1.2-5.3-2.2-8.1-2.9-1.4-0.3-2.8779-0.84306-4.2779-1.0431-2.1-0.3-4.0453-0.31049-6.0453-0.31049-0.5 0-0.9 0.1-1.4 0.1-1.345 0.0215-2.8217-0.0124-3.9 0.1-2.1 0.3-4.3 0.1-6.4 0.3-1.4 0.1-3.2991 0.19375-4.6991 0.39375-1.6 0.2-3.1 0.2-4.7 0.3-0.4 0-0.8 0.1-1.3 0.1-0.9 0.1-1.8 0.1-2.7 0.1-1 0-2.1 0-3.1 0.2-1.5 0.2-3 0.2-4.5 0.3-1.5 0-3.1-0.1-4.6 0.1-3.4 0.4-6.9 0.2-10.3 0.2h-10.2c-1.6 0-3.2-0.2-4.8-0.3h-0.8c-3 0.1-6-0.3-8.9-0.3-1.4-0.4-2.8 0-4.2-0.5h-0.4c-1 0.1-2.1-0.2-3.1-0.4-4.4-0.9-8.6-2.2-12.5-4.4-6.6573-3.8054-11.802-10.325-14.7-16.6-1.1-2.5-2.1-5.1-2.6-7.9-0.2-0.9-0.5-1.7-0.6-2.6-0.2-1.1-0.3-2.2-0.5-3.4-0.5-4.2-0.3-8.4-0.3-12.6v-12.6c0.17083-34.484 0.20335-70.307-0.01342-104.32z"/>

<path class="st5" d="m112.39 132.25c1.4 0.6 1.8375 2.2312 3.0375 3.1312 1.2225-0.53753 1.7719-0.86368 2.2413 0.5856-0.2 0.9-1 1.389-1.5 2.189 0.1 0.6 0.13371 1.3442 0.33371 2.1442-1 1.5-2.6 2.2-4.1 2.9-2.541-0.23661-2.6187-2.0659-3.1188-4.4062 0.42726-0.38805 0.0493-0.73218 0.0989-0.97391-0.71871-0.01-0.642-2.27-1.0239-2.9573 0.6378-1.2349 2.8272-2.1935 4.0312-2.6125z"/>

<path class="st2" d="m209.8 170.3c0.3 0 0.6 0.1 0.8 0.1v0.4c-0.2 0-0.4 0.1-0.6 0.1-0.1-0.3-0.1-0.4-0.2-0.6z"/>
<path class="st1" d="m137.9 257.1c-0.7 0.8-1.7 1.3-2.6 1.8-2 1.1-3.4 2.9-4.4 4.9-1.3 2.5-2.7 5-4.3 7.3-1.8 2.7-4 5-6.8 6.7-1.8 1.1-3.7 1.7-5.6 2.2-2.3 0.6-4.7 0.4-7.1 0.3-1.5-0.1-3-0.5-4.6-1-3.9-1.1-7.6-2.8-11.2-4.6-3.2-1.7-6.4-3.4-9.5-5.3-3.7-2.2-7.5-4.4-11.4-6.3-3.3-1.6-6.8-3.1-10.3-4.4-0.5-0.2-1-0.4-1.4-0.6-0.2-0.1-0.3-0.2-0.5-0.3 0.5-0.5 1-0.6 1.5-0.6h2.3c3-0.1 6-0.2 8.9-0.3 2.9 0 5.9 0 8.8-0.1 7-0.3 14-0.1 21-0.2s14 0 21 0h13.8 1.7c0.2 0 0.4 0.1 0.5 0.2s0.1 0.2 0.2 0.3z"/>
<path class="st1" d="m242.9 256.1c-0.9 0.8-1.6 1.1-2.4 1.4-4.9 2-9.6 4.3-14 7.1-3.7 2.4-7.4 4.8-11.1 7-3.4 2.1-7 3.9-10.7 5.4-2.6 1-5.2 1.6-8 1.3-1.8-0.2-3.6-0.6-5.3-1.3-1.7-0.6-3.3-1.4-4.9-2.2-2.3-1.2-4.4-2.6-6.3-4.3-1.6-1.4-3.2-2.8-4.6-4.4-2.2-2.5-4.3-5-6.8-7.2-0.8-0.7-1.7-1.3-2.5-2 0-0.3 0.3-0.2 0.4-0.2h0.6c7.8-0.4 15.5-0.1 23.3-0.2 2 0 4 0.1 6-0.1 5-0.4 10-0.1 15-0.2h15.1 15.1c0.1 0 0.5 0 1.1-0.1z"/>
<path class="st1" d="m153.9 231.8c0.6-0.4 1.2-0.7 1.9-1.1 1.5-0.8 3-1.5 4.6-2.3 0.4-0.2 0.8-0.5 1.2-0.7h0.7c2.2 3 4.3 6.1 6.2 9.4-1.8 3.1-3.9 5.9-5.8 8.9-1.9 2.9-3.9 5.8-5.9 8.6-0.9 0.2-1.7 0.1-2.5 0.1-0.2-0.7-0.4-1.4-0.4-2.1v-20.1c-0.1-0.2-0.1-0.3 0-0.7z"/>
<path class="st1" d="m136.7 233.6c1.1-1.6 3.8-4.6 4.7-5.2 3.1 0.9 6.1 2.1 9 3.7 0 0.4 0.1 0.8 0.1 1.1v18.9 1c0 0.2-0.2 0.4-0.3 0.7-0.3 0-0.5-0.1-0.7-0.1-0.1-0.2-0.3-0.4-0.4-0.6-0.4-0.9-0.9-1.6-1.5-2.4-1.9-2.7-3.7-5.5-5.5-8.2-1.2-1.9-2.5-3.8-3.7-5.7l-1.5-2.4c-0.1-0.4-0.1-0.7-0.2-0.8z"/>
<path class="st3" d="m148.08 319.86c1.5 0.3 3.0438 1.45 4.1438 2.35 0.61935 2.6272 1.4848 5.2954 1.8312 7.7438 0.67163-2.6469 1.2182-5.127 1.7438-7.7562 0.6-0.5 1.1688-1.0875 1.8688-1.4875 0.6-0.4 1.2875-0.8625 1.9875-1.0625 0.4 0.2 0.2 0.5 0.1 0.8-1.6893 6.0754-3.4797 11.894-5.4 17.45-0.1 0.3-0.54375 0.6875-0.74375 0.9875-2.127-5.4203-5.2632-13.717-5.5312-19.025z"/>
<path class="st3" d="m188.09 303.36c2.0814 5.9927 4.5664 11.874 5.5562 17.575-1.008 0.2375-2.3169-0.96539-3.0438-1.5312-3.8518-3.6588-8.1335-6.1744-11.5-10 0.1-0.4 0.0563-0.7125 0.25625-0.8125 0.9-0.1 2.2688-0.1 3.2688-0.1 2 1.8 3.775 3.5062 5.975 5.5062-0.2-1.6-0.9-2.3938-1.4-3.5938s-1.1-2.4-1.7-3.6c0.1-0.4 0.1-0.8 0.2-1.1 0.2-0.9 1-3.1688 1.4-3.9688 0.39884 0.32521 0.84308 0.96598 0.9875 1.625z"/>
<path class="st3" d="m121.5 306.1c0.4 0.7 0.93258 1.4 0.93258 2.4-0.98159 2.4177-2.1024 4.867-2.8116 7.1442 3.7988-3.8231 4.5246-4.322 6.479-5.9442 1.3768-0.35468 2.4547 0.2221 3.6547 0.6221l-1.1221 1.1663c-2.2 1.9-4.6326 3.7442-6.9326 5.6442-1.1 0.9-2.0116 1.8663-3.1116 2.6663-1 0.8-2.1221 1.5116-3.1221 2.3116-0.3 0.2-0.76629 0.42209-1.2663 0.72209 0-0.4-0.1-0.73258 0-1.0326 0.2-0.6 0.3-1.3 0.6-1.9 0.9-2.6 2-5.2 2.9-7.8 0.5-1.4 1.1-2.7 1.4-4.1 0-0.2 0.3-0.4 0.4-0.7 0.2-0.5 0.85243-2.0386 1.1524-2.4386 0.47057 0.21511 0.73329 0.64194 0.84757 1.2386z"/>
<path class="st1" d="m117.3 208.2c0.6 0.8 1.2 1.6 1.8 2.4 2 2.9 4 5.9 6 8.8 3.3 4.8 6.5 9.6 9.8 14.4 1.8 2.7 3.6 5.3 5.4 8 2.4 3.5 4.8 6.9 7.1 10.4 0.4 0.7 0.9 1.3 1.3 2 0.1 0.1 0 0.3 0.1 0.5-0.2 0.1-0.4 0.1-0.7 0.2-0.4-0.5-0.7-0.9-1-1.4-2.5-3.6-4.9-7.3-7.4-10.9-0.7-1-1.5-1.9-2.1-2.9-0.2-0.3-0.4-0.6-0.5-0.8-0.3-0.5-0.6-1.1-0.9-1.6-1.5-2.2-3-4.5-4.5-6.7-2.1-3-4.1-6-6.2-9-2.5-3.7-5-7.3-7.5-11-0.4-0.7-0.8-1.4-1.2-2 0.1-0.2 0.2-0.3 0.2-0.3 0-0.2 0.1-0.1 0.3-0.1z"/>
<path class="st1" d="m151.5 204.2c0.6-0.1 0.7 0.1 0.8 0.4 0.1 0.5 0.1 0.9 0.1 1.4v14.4 33.1 0.8c-0.3 0.4-0.6 0.6-1.1 0.4-0.1-0.6-0.1-1.2-0.1-1.8v-11.4c0-11.1 0-22.3 0.1-33.4 0-1.3 0.1-2.6 0.2-3.9z"/>
<path class="st1" d="m158.1 269.3c0.4-0.4 0.7-0.3 1.1-0.3 8.2 12.3 16.3 24.7 24.5 37-0.1 0.3-0.1 0.5-0.2 0.7h-0.7c-1.4-1.6-2.6-3.4-3.7-5.3-1.9-3.4-4.2-6.6-6.4-9.9-2.1-3.3-4.3-6.5-6.4-9.7-1.6-2.4-3.2-4.7-4.7-7-0.9-1.4-1.9-2.8-2.8-4.3-0.2-0.3-0.4-0.8-0.7-1.2z"/>
<path class="st1" d="m154.9 321.5h-0.9c0-0.5-0.1-1-0.1-1.4v-3.3c-0.4-9.3-0.2-18.5-0.3-27.8 0-0.9-0.2-1.8-0.2-2.7 0-5.5-0.1-11.1-0.1-16.6 0-0.3 0-0.5 0.1-0.8 0.4-0.3 0.6 0.1 0.8 0.3v1.5c0 3.5-0.1 6.9 0.1 10.4 0.2 4.5 0 9 0.3 13.5 0.3 4.7 0.1 9.5 0.2 14.2 0 2-0.1 4 0.1 6 0.2 1.9 0.1 3.9 0.2 5.8-0.2 0.2-0.2 0.5-0.2 0.9z"/>
<path class="st1" d="m159.1 255.1h-0.8c0-0.2-0.1-0.3-0.1-0.3 0.5-1.2 1.3-2.2 2-3.2 1.8-2.6 3.5-5.2 5.2-7.9 0.8-1.3 1.6-2.5 2.5-3.8 0.7-1.1 1.4-2.3 2.2-3.5 0.5-0.7 1-1.4 1.4-2.1 1.9-2.9 3.8-5.7 5.7-8.6 3.1-4.7 6.2-9.4 9.3-14.2 0.5-0.8 1-1.7 1.8-2.5l0.5 0.5c-0.8 1.6-1.7 3-2.7 4.4-2 3.1-4.1 6.2-6.2 9.3-1.9 2.9-3.8 5.9-5.8 8.9-1 1.5-2 3.1-3 4.6-1.1 1.5-2 3.1-3.1 4.6-1 1.5-2 3.1-3.1 4.6-1.5 2.3-3.1 4.6-4.6 7-0.4 0.5-0.8 1.3-1.2 2.2z"/>
<path class="st1" d="m123.6 310.6c-0.2-0.2-0.3-0.3-0.5-0.4 0.2-0.8 0.7-1.5 1.2-2.1 0.2-0.4 0.5-0.7 0.7-1 2.2-3.4 4.5-6.8 6.7-10.2l4.8-7.5c1.9-3 3.9-5.9 5.9-8.9 1.5-2.2 2.9-4.5 4.4-6.8 0.6-1 1.3-2 2-2.9 0.1-0.2 0.2-0.5 0.4-0.9 0.2-0.1 0.4-0.3 0.8-0.5l0.6 0.6c-1.4 2.1-2.7 4.1-4.1 6.2-2.8 4.2-5.5 8.4-8.2 12.5-1.6 2.4-3.2 4.9-4.8 7.3-2 3.1-4 6.2-6 9.2-0.9 1.3-1.7 2.7-2.6 4-0.4 0.6-0.7 1-1.3 1.4z"/>








<path class="st3" d="m198.9 213.48c-6.4 10.662-17.2 24.225-17.5 24.725h-1.3l-7.2-0.6c-0.4 0-0.7-0.2-1.2-0.3 0.1-0.7 15.938-24.6 16.338-25.1 3.2304 0.14544 8.1816 0.19246 10.862 1.275z"/>











<path class="st3" d="m139.44 199.11c1.3 0.5 8.0049 4.8303 10.605 7.0303 0.39775 5.6707 0.8292 12.281 0.40823 24.47-4.0325-1.3504-6.888-1.9945-9.4386-2.9937-0.4-0.3-1.9712-23.725-1.6745-27.407 0-0.3 0-0.7 0.1-1.1z"/>






<path class="st3" d="m121.51 235.01c-0.1-0.3-13.651-19-15.956-23.847 0.1-0.1 0.24972-0.2221 0.34972-0.2221 1 0 2.1 0.1 3.1 0.1h6.5c0.6 0 1.1 0 1.7 0.1 0.1 0.2 0.39375 0.45625 0.49375 0.65625 5.4254 6.9501 15.888 22.184 15.612 23.312l-0.3 0.3c-0.4 0.1-0.8 0.1-1.1 0.1h-8.8c-0.5-0.1-1 0-1.6-0.5z"/>









<path class="st3" d="m181.89 201.13c1.3 1.9 2.9938 5.125 3.9938 7.225 0.3 0.5 0.6 1.1 0.6 1.8-0.2 0.3-16.946 25.523-17.917 25.314-1.1-1.3-3.9719-6.625-4.6719-8.825 6.2563-7.5788 11.198-19.198 17.996-25.514z"/>











<path class="st3" d="m124.02 199.61c0.1 0 0.2 0 0.2 0.1 1.5281 1.0281 15.978 24.688 16.278 24.988-0.1 0.3-0.1 0.7-0.3 1-1.2 2.1-1.9156 3.725-3.0156 5.725-0.2 0.3-1.0562 1.0625-1.2562 1.2625-0.6 0-17.247-23.831-17.447-24.131 0.3-1.4 3.7406-6.1438 5.5406-8.9438z"/>










<path class="st1" d="m103.5 288.7c0.6-0.2 1 0 1.4 0.1 0.8 0.3 1.6 0.5 2.4 0.8 1 0.4 2.1 0.5 3.2 0.5 1.8 0.1 3.5 0 5.1-0.8 0.2-0.1 0.3-0.1 0.7-0.1-1 1.2-2.3 1.6-3.6 1.8-2 0.4-4.1 0.4-6.1-0.4-1.1-0.5-2.3-0.9-3.1-1.9z"/>
<path class="st3" d="m161.33 200.35 0.52344 0.0547c0.4 0.3 0.26742 25.051 0.0674 25.351-0.7 0.7-4.6391 3.2172-7.1391 4.4172-0.2 0.1-0.5 0.2-0.7 0.3-0.1-0.1-0.65232-0.73125-0.65313-0.83124l-0.19416-23.864c2.4-1.6 5.6955-3.8281 8.0955-5.4281z"/><path class="st0" d="m120.5 300.8c1.1 2 1.6 4.1 2.6 6 0.3 0.1 0.5-0.1 0.6-0.3 0.5-0.6 1-1.2 1.4-1.8 2.2-3.3 4.3-6.6 6.4-10 2-3.1 3.9-6.2 5.9-9.3 1.4-2.3 2.9-4.5 4.4-6.8 1-1.5 1.9-3 2.9-4.5 0.9-1.4 1.8-2.8 2.6-4.2 0.2-0.3 0.3-0.6 0.5-1-0.2-0.1-0.3-0.2-0.4-0.2-2.8-0.2-5.4 0.6-8 1.6-1.1 0.4-1.9 1.2-2.6 2.1-1.6 2-3.1 4-4.6 6.1-2.2 3-4.7 5.7-7.5 8.1-2.6 2.3-5.4 4.1-8.7 5.2-1.8 0.6-3.6 1-5.5 1h-1.6c-1.8 0-4.7-0.6-6.5-1.2-2.7-1-5.2-2.5-7.6-4.1-3.7-2.5-7.6-4.8-11.3-7.2-2.3-1.5-4.5-3.1-6.8-4.6-3.8-2.6-7.5-5.4-11.5-7.7-1.7-1-3.5-2.1-5.4-2.8-1-0.4-1.9-0.9-2.8-1.2-1.2-0.5-2.5-0.8-3.8-1.2-1.1-0.3-2.2-0.5-3.3-0.6-0.8-0.1-1.6-0.3-2.5-0.2-0.3 0.2-0.8 0.4-1.2 0.6-0.7 1.2-0.8 2.5-0.8 3.7-0.8 2.1-2 3-4.1 3.1-1 0-1.9 0.1-2.8-0.4-1.2-0.7-1.7-1.9-1.9-3.2-0.2-1-0.3-1.9-0.1-2.9 0.3-1.7 1.2-3 2.5-4s2.7-1.6 4.3-2.1c1.9-0.5 3.8-0.8 5.7-0.8h5c0.6 0 1.1 0.1 1.7 0.1 0.1 0 0.2 0.1 0.3 0 1-0.3 2 0.1 3.1 0 1-0.1 2 0 3 0s2.1 0.1 3.1 0c5.7-0.4 11.4-0.1 17.2-0.2 5.7-0.1 11.4 0.1 17.1-0.1 6.8-0.2 13.6-0.1 20.5-0.1 6.9-0.1 13.8 0 20.8-0.1 1.7 0 3.3-0.3 4.9-0.6 0.3-0.1 0.5-0.2 0.7-0.3 0.2-0.4 0.1-0.6 0-0.9-0.6-0.8-1.1-1.7-1.6-2.5-1.5-2.2-3-4.3-4.5-6.5-0.9-1.4-2-2.7-2.9-4-1-1.5-2-2.9-3.2-4.4-1.1 0-2.3-0.1-3.5 0.2-0.4 0.1-0.8 0.1-1.1 0.1-0.9 0.1-1.9 0-2.8 0.3-0.4 0.1-0.9 0-1.4 0.1-0.8 0-1.6 0.1-2.6 0.1-0.1-0.1-0.4-0.3-0.6-0.5-0.8-1.1-1.6-2.1-2.3-3.2-1.3-1.9-2.6-3.7-3.8-5.6-1.1-1.6-2.1-3.1-3.2-4.7-1.3-2-2.7-4-4-6-1.3-2.1-2.7-4.1-4-6.2-0.3-0.4-0.5-0.8-0.6-1.4 0.3-0.1 0.5-0.1 0.7-0.1 1.3 0 2.7-0.1 4 0.2h0.4c1 0.2 2-0.2 3.1-0.1 1 0.1 2.1 0.1 3.1 0.1 0.2 0 0.4 0 0.6-0.1 0.1-0.6-0.4-1-0.5-1.5 0.4-0.6 1-1.1 1.8-1.5 0.3 0.2 0.6 0.5 1 0.8 0.1-0.1 0.3-0.1 0.3-0.2 0.3-0.4 0.5-0.8 0.7-1.2 0.4-0.7 0.9-1.4 1.3-2.2 0.5-0.9 0.9-1.7 1.4-2.6s1.1-1.7 1.8-2.3c0.2-0.2 0.5-0.2 0.7-0.4 1.1 1.3 2 2.8 2.5 4.1 0.1 0.3 0.2 0.5 0.4 0.7 1.5 1.8 2.6 3.9 3.9 5.9 1.1 1.7 2.1 3.3 3.2 5 0.8 1.3 1.6 2.7 2.5 4 0.7 1.1 1.3 2.3 2.3 3.2 0.3-1.1 0.3-1.4 0.3-2.4-0.1-1.3 0-2.6-0.1-4 0-1.1-0.2-2.2-0.2-3.2-0.1-1.1-0.1-2.2-0.2-3.2-0.1-0.8-0.1-1.6-0.1-2.4s-0.1-1.5-0.1-2.3c0-0.6 0.1-1.1 0.1-1.6-0.2-0.3-0.4-0.6-0.5-0.9v-2.9c0.2-0.2 0.3-0.4 0.5-0.6 0.1 0 0.2 0 0.3 0.1 1.2 0.7 2.4 1.4 3.6 2 1.8 0.9 3.5 1.9 5 3.2 0.5 0.4 1.2 0.6 1.8 0.8 0-0.4 0.1-0.8 0.1-1.1 0.4-0.2 0.8-0.3 1.1-0.4h1.6c0.6 0.3 0.9 0.8 0.9 1.4 0.6-0.1 1.2-0.3 1.7-0.4 1.2-1.6 3-2.5 4.6-3.6 0.7-0.4 1.4-0.8 2-1.3 0.1-0.1 0.3-0.2 0.5-0.2 0.4 0.4 0.4 0.8 0.4 1.3v4c0 0.9-0.1 1.7 0.2 2.5 0.1 0.2 0 0.4 0 0.6-0.3 1.5-0.2 2.9 0 4.4 0.1 0.7 0.1 1.4 0 2.1-0.2 1.6-0.2 3.1 0 4.6v0.7c-0.2 0.9-0.1 1.9 0 2.8 0.1 0.7 0.1 1.4 0.2 2.1 0.4 0.1 0.6-0.1 0.8-0.3l3.3-3.9c1.5-1.9 2.9-3.8 4.3-5.6 2.4-3.1 4.7-6.3 7.1-9.3 0.9-1.1 1.5-2.4 2.4-3.5 0.3-0.4 0.5-0.8 1.1-0.9 0.8 1.4 1.6 2.9 2.4 4.3s1.6 2.9 2.7 4.2c0.5 0 0.9-0.8 1.8-0.3 0.1 0 0.3 0.3 0.6 0.6s0.6 0.6 0.8 0.9c0.1 0.8-0.7 1.2-0.8 1.9 0.7 0.2 1.4 0.4 2.1 0.4 1 0 2 0 3 0.1 1.6 0.1 3.3 0.2 4.9 0.3 0.3 0 0.5 0.2 0.8 0.3-0.1 0.3 0 0.5-0.1 0.7-0.3 0.5-0.6 1.1-1 1.6-2 2.8-4 5.6-6.1 8.4-1.1 1.5-2.3 3-3.4 4.5-1.4 1.9-2.8 3.7-4.1 5.6-1.2 1.6-2.4 3.3-3.6 4.9-0.3 0.4-0.8 0.8-1.1 1.2-1.2-0.1-2.2 0.1-3.3-0.2h-0.1c-1.9-0.1-3.8-0.2-5.7-0.4-0.3 0.3-0.6 0.6-0.8 0.9-2.2 3.3-4.3 6.5-6.5 9.8-0.9 1.3-1.7 2.6-2.5 3.9-0.3 0.4-0.6 0.9-0.4 1.6 0.2 0.1 0.4 0.3 0.6 0.3 0.3 0.1 0.7 0 1 0h28.9c6.5-0.4 13-0.1 19.4-0.3 4.4-0.2 8.7-0.2 13.1-0.2 4.3-0.1 8.6 0.1 12.9-0.1 3.7-0.1 7.5-0.1 11.2-0.3 1.2-0.1 2.3 0 3.5 0.4 1.3 0.4 2.5 1 3.5 1.8 1.6 1.5 2.5 3.3 2.3 5.5-0.1 0.8-0.4 1.5-0.9 2.2-0.8 1-1.6 1.7-2.8 2-0.3 0.1-0.5 0.2-0.8 0.3h-2.1c-2-0.7-3.1-2.2-3.8-4.1-0.2-0.6-0.3-1.1-0.5-1.8-1.3 0.3-2.4 0.4-3.6 0.7-3.7 1.1-7.1 2.9-10.3 4.8s-6.1 4.1-9.1 6.3c-1.5 1.1-2.9 2.3-4.2 3.5-3.3 2.9-6.8 5.4-10.6 7.6-2.9 1.8-6 3.2-9.3 4.2l-3.3 0.9c-0.3 0.1-0.7 0-1 0h-4.1c-1.1 0-2.1-0.4-3.2-0.6-2.5-0.6-4.7-1.9-6.8-3.3-2.5-1.7-4.6-3.8-6.6-6-1.3-1.5-2.7-3-4.2-4.4-1.8-1.8-3.9-3.3-6.1-4.5-1-0.6-2.2-0.9-3.5-0.6 0.1 0.2 0.1 0.4 0.2 0.5 1.4 2.2 2.9 4.4 4.3 6.6 2 3 4.1 6 6.1 9 2.3 3.4 4.6 6.8 7 10.2l5.4 7.8c0.2 0.3 0.5 0.5 0.8 0.9 1.2-1.7 1.3-3.7 2.3-5.4 0.3-0.1 0.4 0.2 0.5 0.4 0.6 1.8 1.4 3.6 1.9 5.5 0.6 2.3 1.4 4.5 2.1 6.7 0.9 3.1 1.9 6.3 2.8 9.5 0.2 0.6 0.3 1.2 0.4 1.7-0.4 0.3-0.7 0-0.9-0.2l-3.3-2.4c-2-1.6-4.1-3.2-6.1-4.9-1.6-1.2-3.1-2.4-4.7-3.7 0 0-0.1 0-0.1-0.1-1.1-1-2.2-2-3.3-2.9-0.2-0.2-0.4-0.4-0.5-0.6 0-0.4 0.3-0.6 0.6-0.6 1.2-0.1 2.4-0.2 3.7-0.3 0.4 0 0.7-0.1 0.9-0.5-0.1-0.1-0.1-0.4-0.2-0.6-0.5-0.8-0.9-1.6-1.4-2.4-1.8-2.7-3.5-5.5-5.3-8.2-1.1-1.8-2.3-3.5-3.5-5.3-2-3-4-6-6.1-9-1.2-1.8-2.6-3.6-3.8-5.5-0.8-1.2-1.6-2.3-2.5-3.4-0.8-1-1.5-1.9-2.6-2.7-0.2 0.1-0.5 0.2-0.8 0.3 0 0.3-0.1 0.6-0.1 0.9v5.3c0 1 0 2 0.2 3 0.1 1 0.1 2 0.1 3 0.1 5 0.1 10 0.4 15 0.2 3.3 0 6.6 0.2 9.9 0.2 2.2 0.2 4.4 0.2 6.7v4.7c0 0.5-0.1 1 0.2 1.5 0.2-0.1 0.4-0.1 0.6-0.2 0.9-0.6 1.8-1.2 2.7-1.9 0.8-0.6 1.7-1.2 2.5-1.9 0.2 0.1 0.3 0.1 0.5 0.2-0.1 0.5-0.2 1-0.4 1.5l-2.1 6.9c-1.4 4.3-2.9 8.6-4.4 13-0.4 1.2-0.9 2.5-1.3 3.7-0.1 0.2-0.3 0.4-0.5 0.6-0.2-0.4-0.4-0.6-0.4-0.8-0.9-3.2-2.1-6.3-3-9.6-0.5-1.9-1.2-3.8-1.8-5.7-0.8-2.5-1.5-5.1-2.2-7.6-0.2-0.5-0.2-1-0.2-1.7 0.6 0.4 1 0.7 1.4 1 0.9 0.8 1.9 1.6 2.8 2.5 0.6 0.5 1.1 1 1.9 1.4 0.1-0.2 0.2-0.4 0.2-0.6 0-0.9 0.1-1.8 0-2.7 0-3.7 0.1-7.5-0.1-11.2-0.3-7.4 0-14.8-0.3-22.2-0.1-4-0.1-8-0.2-12.1 0-0.5 0-1-0.4-1.5h-0.5c-0.4 0.6-0.9 1.3-1.3 1.9-1.9 3-3.9 6-5.8 9-2.4 3.6-4.7 7.3-7.1 10.9-2.7 4.2-5.3 8.4-7.9 12.6-0.2 0.3-0.4 0.5-0.7 0.8 0 0.8-1.2 1.4-0.9 2.5 0.7 0.3 1.5 0 2.3 0.1s1.6-0.4 2.4-0.1c0 0.2 0 0.4 0.1 0.6-1.3 1.3-2.5 2.6-3.9 3.8-2.2 2-4.3 4.1-6.7 5.9-0.5 0.4-0.9 0.8-1.3 1.3-0.4 0.4-0.8 0.8-1.2 0.9-0.8 0.7-1.4 1.3-2 1.9-1.2 1-2.3 1.9-3.5 2.9-0.2 0.2-0.5 0.2-0.8 0.4 0-0.4-0.1-0.6-0.1-0.8 0.1-0.5 0.3-1.1 0.4-1.6 0.8-2.7 1.7-5.4 2.6-8.1 0.8-2.4 1.5-4.8 2.3-7.3 0.8-2.3 1.5-4.5 2.3-6.8-0.4-0.5-0.3-0.7 0-1zm24.5-72.2c0 0.1 0 0.3 0.2 0.1-0.1 0-0.1-0.1-0.2-0.1-0.1-0.2-0.1-0.5-0.2-0.6-0.9-1-1.8-1.9-3-2.5-0.1-0.1-0.3-0.1-0.5-0.1-0.2 0.5-0.3 1.1-0.2 1.8 1.1 0.9 2.5 1.3 3.9 1.4zm107.8 30.4c-0.1-0.3-0.2-0.4-0.5-0.4 0.2 0.2 0.3 0.3 0.5 0.4 0.1 0.2 0.2 0.5 0.4 0.7 0.4 0.5 0.8 1 1 1.6-0.4 0.8-1.5 0.6-2 1.3 0.4 0.8 1.1 0.9 1.8 1.1 0.4-0.2 0.8-0.4 1.1-0.5 0.8-0.9 0.6-1.7 0-2.4-0.5-0.6-1-1.1-1.6-1.6-0.2-0.2-0.4-0.3-0.7-0.2zm-108.1-56-0.6-0.6c-1.4-0.9-2.7-1.8-4.2-2.8-0.1 0.3-0.2 0.7-0.4 1 0.4 0.7 0.9 1.1 1.5 1.5 0.4 0.3 0.9 0.5 1 1.1-0.5 0.1-1 0-1.4-0.4-0.3-0.3-0.6-0.5-1.1-0.4-0.2 0.4-0.2 0.9 0 1.2 0.1 0.2 0.3 0.3 0.5 0.4 3.9 3 8.5 6.1 9.9 6.6 0-0.6 0.1-1.1-0.1-1.6-0.7-0.4-1.3-0.9-1.9-1.3-1.9-1.4-3.8-2.7-5.8-4.1-0.1-0.1-0.3-0.2-0.2-0.4 0.2 0.1 0.4 0.1 0.6 0.2l0.6 0.3 5.4 3.6c0.4 0.3 0.8 0.6 1.3 0.6 0.2-0.5 0.1-1 0-1.5-1-0.7-1.9-1.4-2.8-2.1-0.5-0.4-1.4-0.9-2.3-1.3zm-20-1.4c0.3-0.2 0.2-0.5 0.1-0.7-0.2-0.4-0.4-0.7-0.7-1-0.5 0.3-0.8 0.6-0.9 1.1-0.5 0.8-0.9 1.6-1.4 2.4-0.7 1.1-1.3 2.3-2 3.4-0.8 0.5-0.9 1.4-0.8 2.2 0.2 0.4 0.4 0.6 0.9 0.5 0 0 0.1-0.1 0.2-0.3l3.9-6.6c0.3-0.3 0.3-0.8 0.7-1zm11.4 18.4c-1.5 2.4-2.9 4.8-4.2 7.3 0.3 0.4 0.4 0.9 0.9 1 0.5-0.3 0.7-0.8 1-1.2 0.8-1.3 1.6-2.6 2.3-3.9 0.4-0.8 1-1.4 1.2-2.3 0.1-0.1 0.2-0.1 0.4-0.2-0.4-0.5-0.5-1.1-1.1-1.3-0.1 0.2-0.3 0.4-0.5 0.6zm-9.3-15.3c-0.2 0.4-0.7 0.6-0.8 1.1-0.3 1.1-1.1 2.1-1.7 3.1-0.8 1.3-1.5 2.6-2.3 3.9 0.3 0.4 0.6 0.7 0.9 1.1 0.6-0.6 3.2-4.9 4.8-8 0.1-0.1 0.2-0.3 0.2-0.4-0.1-0.5-0.3-0.9-0.8-1.3-0.1 0.1-0.2 0.3-0.3 0.5zm43.5 13.6c-0.1 0.1-0.2 0.2-0.2 0.3 1.5 3.4 3.7 7.6 4.6 8.6 0.4-0.3 0.6-0.8 0.8-1.4-0.3-0.6-0.5-1.1-0.8-1.7-1-1.9-2.1-3.7-3.1-5.6-0.1-0.4-0.2-0.7-0.7-0.8-0.3 0.3-0.5 0.4-0.6 0.6zm-41.4-9.8c0.1 0 0.3-0.1 0.4-0.1 0.1-0.2 0.1-0.4 0.1-0.5-0.3-0.4-0.4-1-1-1.2-0.2 0.3-0.4 0.6-0.5 0.9-0.6 1.3-1.8 2.2-2.2 3.7-0.6 0.5-0.6 1.4-1.1 1.9-0.5 0.6-0.6 1.2-0.8 1.9 0.1 0.2 0.2 0.4 0.4 0.6 0.1 0.2 0.2 0.5 0.4 0.4 0.1-0.1 0.2-0.1 0.2-0.2 1.3-2.1 2.6-4.2 3.8-6.4 0.1-0.4 0.2-0.7 0.3-1zm33.2 3.9c0.2-0.3 0.2-0.6 0-0.9-0.1-0.2-0.1-0.3-0.2-0.5-0.6 0.4-1.1 0.7-1.7 1-1.6 1-3.2 2-4.9 3-0.7 0.4-1.4 0.9-1.8 1.7 0 0.4-0.1 0.9 0.5 1.1 0.6-0.4 1.1-0.8 1.7-1.1 1.7-1.1 3.4-2.1 5-3.2 0.5-0.3 1.1-0.5 1.4-1.1zm2.2 13.9c-0.1 0.1-0.2 0.3-0.3 0.4 0.7 2.1 3.5 7.4 4.5 8.7 0.3-0.4 0.5-0.8 0.7-1.1 0-0.8-0.4-1.3-0.6-1.8-1.1-2.1-2.1-4.2-3.4-6.1 0-0.2-0.1-0.3-0.1-0.5-0.5-0.1-0.6 0.1-0.8 0.4zm11.1-15c0-0.1 0-0.1-0.1-0.2-0.1 0.1-0.2 0.1-0.2 0.1-0.4 0.1-0.7 0.4-0.8 0.9 1.2 2.7 2.6 5.2 4 7.9 0.1 0.2 0.3 0.4 0.6 0.8 0.3-0.5 0.6-0.9 0.8-1.5-0.1-0.3-0.3-0.7-0.5-1.1-0.4-0.7-0.7-1.4-1.1-2.1-0.9-1.7-1.6-3.4-2.7-4.8zm-34.6-1.2 8.1 5.7c0.4 0.3 0.8 0.6 1.4 0.6v-1.5c-0.9-0.6-1.8-1.3-2.7-2l-5.4-3.6c-0.1-0.3-0.3-0.5-0.6-0.5-0.2-0.1-0.5-0.2-0.8-0.3-0.1-0.4-0.4-0.6-0.8-0.5-0.2 0.5-0.1 1 0 1.5 0.2 0.2 0.3 0.6 0.8 0.6zm20.42-7.1328-0.64062 0.71875c-0.23991 0.26916-0.67969 0.41406-0.87969 0.61406-1.3 0.9-2.7 1.8-4 2.7-0.2 0.1-0.4 0.3-0.6 0.3-0.6 0.2-1.1 0.7-1.5 1.2 0 0.4-0.1 0.9 0.1 1.4 0.7-0.4 1.3-0.8 1.9-1.2 1.6-1 3.3-2.1 4.9-3.1 0.5-0.3 1-0.6 1.3-1.1 0-0.4 0.1-0.9-0.2-1.3-0.2-0.1-1.4859 0.82187-1.7953 0.81562 0.3-0.4 1.7953-1.6156 1.9953-2.0156 0-0.4-0.1-0.8-0.1-1.3-0.4 0.1-0.7 0.1-0.8 0.3-0.7 0.6-1.4 1.2-2 1.8-0.8 0.2-1.6 0.6-2.3 1-0.9 0.6-1.8 1.3-2.7 2-0.1 0.1-0.2 0.2-0.2 0.3 0 0.4-0.1 0.8 0.2 1.3 0.7-0.4 1.3-0.8 2-1.2 1.1-0.7 2.1-1.4 3.2-2 0.3-0.4 2.525-1.6869 2.1203-1.2328zm-39.72 103.13c-0.1-0.4-0.3-0.7-0.7-1-0.4 0.2-0.6 0.4-0.6 0.8-0.3 0.4-0.3 1-0.6 1.4-0.1 0.2-0.4 0.4-0.4 0.7-0.2 1.5-0.9 2.8-1.4 4.1-0.9 2.6-1.9 5.2-2.9 7.8-0.2 0.6-0.4 1.2-0.6 1.9-0.1 0.2 0 0.5 0 0.9 0.4-0.3 0.8-0.5 1.2-0.7 1.1-0.8 2.1-1.6 3.1-2.4 1.1-0.9 2.1-1.7 3.2-2.6 2.3-1.9 4.5-3.7 6.8-5.6 0.4-0.3 0.7-0.7 1.1-1.1-1.3-0.4-2.3-0.9-3.5-0.6-0.4 0.4-0.9 0.7-1.3 1.1-0.5 0.4-1 0.8-1.4 1.3-1 1.3-2.2 2.4-3.5 3.4-0.1 0.1-0.2 0.1-0.5 0.1 0.4-1.3 0.9-2.5 1.4-3.6 0.6-1.2 1-2.4 1.5-3.5-0.2-1-0.5-1.7-0.9-2.4zm65.2-3.1c-0.4 0.8-0.6 1.7-0.9 2.5-0.1 0.4-0.2 0.7-0.2 1.1 0.6 1.2 1.1 2.4 1.7 3.6 0.5 1.2 1.2 2.4 1.4 4-2.2-2-4.1-3.8-6.1-5.6-1 0-1.9 0.1-2.8 0.1-0.3 0-0.6 0-0.6 0.5 0.4 0.5 0.9 0.9 1.3 1.5 0.5 0.6 1 1.2 1.8 1.5 0.2 0.1 0.4 0.3 0.7 0.5 0.9 0.8 1.9 1.6 2.8 2.4 1.6 1.4 3.3 2.7 4.9 4.1 0.7 0.5 1.4 1 2 1.5 0.2 0.1 0.4 0.3 0.7 0 0-0.5-0.1-1-0.2-1.6-0.5-1.6-1-3.2-1.5-4.9-1.2-3.6-2.4-7.1-3.7-10.7 0-0.6-0.3-1-0.7-1.4-0.4 0.3-0.5 0.6-0.6 0.9zm-48.8-45.9c-0.1-0.1-0.1-0.2-0.2-0.2-0.2-0.1-0.4-0.2-0.5-0.2h-36.5c-7 0.1-14-0.1-21 0.2-2.9 0.1-5.9 0-8.8 0.1-3 0.1-5.9 0.2-8.9 0.3h-2.3c-0.5 0-0.9 0.1-1.5 0.6 0.2 0.1 0.3 0.2 0.5 0.3 0.5 0.2 1 0.4 1.4 0.6 3.5 1.2 6.9 2.7 10.3 4.4 3.9 1.9 7.6 4.1 11.4 6.3 3.1 1.9 6.3 3.6 9.5 5.3 3.6 1.9 7.3 3.5 11.2 4.6 1.5 0.4 3 0.9 4.6 1 2.3 0.2 4.7 0.3 7.1-0.3 2-0.5 3.9-1.1 5.6-2.2 2.8-1.7 5-4 6.8-6.7 1.6-2.4 3-4.8 4.3-7.3 1-2 2.4-3.7 4.4-4.9 0.9-0.6 1.9-1.1 2.6-1.9zm105-1h-31.6c-5 0-10-0.2-15 0.2-2 0.1-4 0-6 0.1-7.8 0.1-15.5-0.2-23.3 0.2h-0.6c-0.1 0-0.4-0.1-0.4 0.2 0.8 0.7 1.7 1.3 2.5 2 2.5 2.2 4.6 4.8 6.8 7.2 1.4 1.6 3 3 4.6 4.4 2 1.6 4.1 3 6.3 4.3 1.6 0.9 3.2 1.7 4.9 2.2 1.7 0.6 3.5 1 5.3 1.3 2.8 0.3 5.5-0.3 8-1.3 3.8-1.5 7.3-3.3 10.7-5.4 3.8-2.3 7.4-4.7 11.1-7 4.4-2.8 9.1-5.1 14-7.1 1.1-0.2 1.8-0.5 2.7-1.3zm-89.1-24.3v20.7c0 0.7 0.2 1.4 0.4 2.1 0.9 0 1.6 0.1 2.5-0.1 2-2.9 4-5.7 5.9-8.6 1.9-3 4-5.8 5.8-8.9-1.9-3.3-4-6.3-6.2-9.4h-0.7c-0.4 0.2-0.8 0.5-1.2 0.7-1.5 0.8-3 1.5-4.6 2.3-0.6 0.5-1.3 0.9-1.9 1.2zm-17.1 1.7c0 0.2 0 0.4 0.1 0.6 0.5 0.8 0.9 1.6 1.5 2.4 1.2 1.9 2.5 3.8 3.7 5.7 1.8 2.8 3.6 5.5 5.5 8.2 0.5 0.8 1.1 1.5 1.5 2.4 0.1 0.2 0.2 0.4 0.4 0.6 0.2 0 0.4 0.1 0.7 0.1 0.1-0.2 0.3-0.4 0.3-0.7 0.1-0.3 0-0.7 0-1v-18.9c0-0.4 0-0.8-0.1-1.1-2.9-1.6-5.9-2.8-9-3.7-0.8 0.8-3.5 3.8-4.6 5.4zm11.5 86.7c-0.2 0.4-0.1 0.8 0 1.1 1.1 4.5 2.6 9 4 13.4 0.4 1.2 0.8 2.5 1.2 3.8 0.1 0 0.3 0 0.5 0.1 0.1-0.3 0.3-0.5 0.4-0.8 0.9-2.6 1.7-5.3 2.6-7.9 0.9-3.1 1.8-6.2 2.8-9.3 0.1-0.3 0.2-0.5-0.1-0.8-0.7 0.2-1.2 0.6-1.8 1s-1.2 0.9-1.9 1.3c-0.2 0.8-0.4 1.6-0.5 2.5-0.2 1.7-0.7 3.3-1 4.9 0 0.2-0.2 0.3-0.4 0.7-0.2-1.5-0.7-2.8-0.9-4-0.2-1.3-0.6-2.6-0.9-3.9-1.3-0.9-2.5-1.7-4-2.1zm-31-112h-0.5c-0.1 0-0.1 0.1-0.2 0.3 0.4 0.6 0.7 1.4 1.2 2 2.5 3.7 5 7.3 7.5 11 2.1 3 4.1 6 6.2 9 1.5 2.2 3 4.4 4.5 6.7 0.3 0.5 0.6 1.1 0.9 1.6 0.2 0.3 0.4 0.6 0.5 0.8 0.6 1 1.5 1.9 2.1 2.9 2.5 3.6 5 7.2 7.4 10.9 0.3 0.5 0.6 0.9 1 1.4 0.3-0.1 0.5-0.1 0.7-0.2 0-0.2 0-0.4-0.1-0.5-0.4-0.7-0.9-1.4-1.3-2-2.4-3.5-4.8-6.9-7.1-10.4-1.8-2.6-3.6-5.3-5.4-8-3.3-4.8-6.5-9.6-9.8-14.4-2-2.9-4-5.9-6-8.8-0.4-0.8-1-1.5-1.6-2.3zm34.3-4c-0.1 1.3-0.2 2.6-0.2 3.8 0 11.1 0 22.3-0.1 33.4v11.4c0 0.6 0 1.2 0.1 1.8 0.5 0.2 0.8 0.1 1.1-0.4v-48.3c0-0.5 0-0.9-0.1-1.4-0.1-0.2-0.3-0.4-0.8-0.3zm6.6 65.1c0.2 0.4 0.4 0.9 0.7 1.3 0.9 1.4 1.9 2.9 2.8 4.3 1.6 2.4 3.2 4.7 4.7 7 2.1 3.2 4.3 6.4 6.4 9.7s4.4 6.5 6.4 9.9c1.1 1.9 2.3 3.6 3.7 5.3h0.7c0.1-0.2 0.1-0.4 0.2-0.7-8.2-12.4-16.3-24.7-24.5-37-0.4-0.2-0.7-0.2-1.1 0.2zm-3.3 52.2c0-0.4 0.1-0.7 0.1-1 0-1.9 0-3.9-0.2-5.8-0.2-2-0.1-4-0.1-6-0.1-4.7 0.1-9.5-0.2-14.2-0.3-4.5-0.1-9-0.3-13.5-0.2-3.5 0-6.9-0.1-10.4v-1.5c-0.3-0.2-0.4-0.6-0.8-0.3 0 0.2-0.1 0.5-0.1 0.8 0 5.5 0 11.1 0.1 16.6 0 0.9 0.2 1.8 0.2 2.7 0.1 9.3-0.1 18.5 0.3 27.8 0.1 1.1 0 2.2 0 3.3 0 0.5 0.1 0.9 0.1 1.4zm4.2-66.5c0.5-0.8 0.9-1.6 1.3-2.4 1.5-2.3 3.1-4.6 4.6-7 1-1.5 2-3.1 3.1-4.6s2-3.1 3.1-4.6c1-1.5 2-3 3-4.6 2-2.9 3.9-5.9 5.8-8.9 2.1-3.1 4.1-6.2 6.2-9.3 0.9-1.4 1.9-2.8 2.7-4.4l-0.5-0.5c-0.8 0.8-1.2 1.6-1.8 2.5-3.1 4.7-6.2 9.4-9.3 14.2-1.9 2.9-3.8 5.7-5.7 8.6-0.5 0.7-1 1.4-1.4 2.1-0.7 1.1-1.4 2.3-2.2 3.5-0.8 1.3-1.6 2.5-2.5 3.8-1.8 2.6-3.5 5.2-5.2 7.9-0.7 1.1-1.5 2.1-2 3.2 0 0.1 0 0.2 0.1 0.3 0.1 0.2 0.3 0.2 0.7 0.2zm-35.5 55.6c0.6-0.3 0.9-0.7 1.2-1.2 0.9-1.3 1.7-2.7 2.6-4 2.1-3 4-6.1 6-9.2 1.6-2.5 3.2-4.9 4.8-7.3 2.8-4.2 5.5-8.4 8.2-12.5 1.4-2 2.7-4.1 4.1-6.2l-0.6-0.6c-0.3 0.2-0.6 0.4-0.8 0.5-0.2 0.4-0.3 0.6-0.4 0.9-0.6 1-1.3 2-2 2.9-1.5 2.3-2.9 4.5-4.4 6.8-1.9 3-3.9 5.9-5.9 8.9l-4.8 7.5c-2.2 3.4-4.5 6.8-6.7 10.2-0.2 0.4-0.5 0.7-0.7 1-0.4 0.6-0.9 1.3-1.2 2.1 0.3-0.1 0.5 0 0.6 0.2zm60.5-91.6 0.1 0.1c2.3 0.3 4.6 0.6 7 0.9 0.8 0.1 1.5 0.2 2.2 0.2 0.3 0 0.6 0 0.9-0.1 0.3-0.5 0.9-0.9 0.8-1.6-0.2-0.1-0.4-0.2-0.6-0.2-1.1-0.1-2.1-0.5-3.2-0.4-0.5 0-0.9-0.1-1.4-0.1-1.3-0.1-2.5-0.3-3.8-0.5h-1.1c-0.4 0.7-0.8 1.1-0.9 1.7zm1.9-2.5c3.8 0.7 8.8 1.3 10.3 1.1 0.4-0.4 0.8-0.9 0.9-1.5-0.7-0.3-1.4-0.4-2.1-0.5-1.6-0.1-3.3-0.3-4.9-0.6-1.1-0.2-2.1-0.2-3.3-0.2-0.4 0.7-1 1-0.9 1.7zm0.4-6.7c-0.6-1.5-1.3-2.8-2-4.1-0.7-1.4-1.5-2.7-2.3-4.1-0.5 0.2-0.9 0.5-1.1 0.9-0.2 0.8 0.2 1.4 0.5 1.9l3.3 6.6c0.1 0.2 0.2 0.4 0.5 0.4 0.5-0.2 0.7-0.9 1.1-1.6zm-69 18.7c0.6 0 1.3 0.1 1.9 0.1h8.1c0.4 0 0.8 0 1.1-0.1 0.1 0 0.1-0.1 0.2-0.2-0.2-0.3-0.4-0.7-0.6-1.1-0.4-0.1-0.8-0.2-1.2-0.2-3.3 0-6.6 0-9.9-0.1-0.2 0-0.5-0.1-0.6 0.2 0.2 0.5 0.4 1 1 1.4zm32.7-16.6-0.6-0.6c-1.6-1.1-3.3-2.3-4.9-3.4-1.3-0.9-2.6-1.8-3.9-2.6-0.2-0.1-0.5-0.5-0.9-0.2 0 0.4 0 0.9 0.1 1.2 1.6 1.5 9.1 6.5 10.3 7 0.1-0.4 0-0.9-0.1-1.4zm0.3 11.4c-0.2-0.2-0.3-0.3-0.4-0.3l-7.5-5.1c-0.7-0.4-1.3-1-2.1-1.1-0.3 0.4-0.2 0.8-0.1 1.4 0.3 0.3 0.8 0.7 1.2 1 1.3 0.9 2.6 1.8 3.9 2.6 1.4 1 2.9 2 4.3 3 0.2 0.1 0.4 0.2 0.7 0zm30.3 1.2c1.1 0.1 2.2 0.3 3.3 0.4 1 0.1 2 0.4 3.1 0.4s2.1 0.6 3.3 0.2c0.4-0.4 0.9-0.8 0.9-1.6-1.5-0.6-3.1-0.6-4.7-0.8l-4.8-0.6c-0.5 0.7-1 1.1-1.1 2zm1.8 12.1c-1.2-0.5-2.2-0.5-3.3-0.6s-2.2-0.2-3.2-0.3h-3.2c-0.4 0.5-0.8 0.9-0.9 1.6l1.2 0.3 7.2 0.6h1.3c0.2-0.5 0.5-1 0.9-1.6zm-71.4-17.4c0.8 0.1 1.5 0.2 2.1 0.2h8.9c0.2 0 0.4-0.1 0.8-0.1-0.4-0.6-0.7-1-1-1.5h-11.5c0.3 0.5 0.5 0.9 0.7 1.4zm82.4 2.1c-0.6-0.2-1.2-0.4-1.8-0.5-1.6-0.2-3.1-0.4-4.6-0.5-1.2-0.1-2.3-0.2-3.5-0.3-0.4 0.5-0.9 0.9-1 1.6 2.8 0.7 8.7 1.4 10 1.2 0.3-0.4 0.7-0.8 0.9-1.5zm-6.1-7.3c0.2 0.1 0.4 0.3 0.6 0.3 1.2 0 2.3 0.5 3.5 0.4 0.2 0 0.4 0.1 0.6 0.1 1.5 0.2 3.1 0.4 4.6 0.5 0.3 0 0.6 0 1-0.1 0.4-0.5 0.8-0.9 0.7-1.5-1.1-0.6-2.3-0.3-3.3-0.6-1.1-0.3-2.2-0.1-3.4-0.4-1.1-0.3-2.2-0.2-3.4-0.1-0.5 0.4-0.8 0.8-0.9 1.4zm-47.1 1c1.2 0.9 2.4 1.7 3.6 2.6 1.8 1.3 3.7 2.5 5.5 3.7 0.3 0.2 0.6 0.5 1.1 0.3 0-0.5 0.1-1-0.1-1.6-0.8-0.5-1.6-1.1-2.4-1.6-0.9-0.6-1.7-1.2-2.6-1.8-0.8-0.6-1.6-1.1-2.5-1.7-0.9-0.5-1.6-1.2-2.6-1.6zm37.1 14.9c1 0.5 2.1 0.3 3.2 0.4s2.1 0.4 3.2 0.3 2.1 0.4 3.2 0.2c0.4-0.6 0.9-1.1 0.9-1.8-1.1-0.3-2.1-0.1-3.2-0.4-1.1-0.2-2.2 0-3.4-0.2-1.1-0.2-2.1-0.2-3.2 0-0.2 0.5-0.7 0.8-0.7 1.5zm-2.2 2.6c0.4 0.1 0.7 0.1 1 0.1 1.1 0.1 2.2 0.1 3.2 0.3 1.8 0.2 3.7 0.3 5.6 0.4 0.3-0.6 0.9-1 0.7-1.7-0.4-0.4-0.8-0.3-1.1-0.4-0.7 0-1.3 0-2-0.1-1-0.2-2-0.2-3-0.2-0.9 0-1.8 0-2.7-0.2-0.2-0.1-0.5 0-0.7 0-0.3 0.5-0.7 1-1 1.8zm3.9-5.4c1.2 0.1 2.2 0.3 3.3 0.4 1 0.1 2 0.4 3.1 0.5 1.1 0 2.1 0.4 3.2 0.2 0.4-0.5 0.7-0.9 0.8-1.5-0.2-0.1-0.4-0.3-0.7-0.3-1.8-0.2-3.6-0.6-5.4-0.6-0.2 0-0.5 0-0.7-0.1-1-0.3-1.9-0.2-2.9-0.1-0.3 0.3-0.6 0.9-0.7 1.5zm-38.8-14.8c0.4 0.4 0.8 0.7 1.3 1 1.1 0.8 2.2 1.5 3.2 2.3l4.5 3c0.3 0.2 0.7 0.5 1.2 0.4 0.1-0.5 0.1-1-0.1-1.6-3.3-2.2-6.5-4.7-10.1-6.7zm39-7.1c-0.1 0.6 0 1.1 0.2 1.5 1.1 2.3 2.3 4.7 3.4 7 0.1 0.2 0.3 0.4 0.4 0.5 0.5-0.4 0.9-1 1.2-1.9-0.6-1.6-1.1-2.4-1.8-3.3-0.2-1.2-0.9-2.1-1.4-3.1-0.3-0.6-0.5-1.2-1.2-1.6-0.3 0.4-0.6 0.6-0.8 0.9zm-28.9 21c-2.8-2-5.6-4-8.4-5.9-0.3-0.2-0.7-0.4-1.1-0.6-0.1 0-0.2 0-0.3 0.1v1.2c0.3 0.4 0.6 0.8 0.8 1 0.5 0.4 0.9 0.6 1.3 0.9 2.1 1.5 4.2 3 6.4 4.5 0.2 0.1 0.4 0.3 0.6 0.4s0.4 0.4 0.7 0.2zm32.8 9.5c0.3-0.5 0.6-0.9 0.8-1.3 0.1-0.2 0-0.4 0.1-0.7-0.8 0-1.5-0.1-2.2-0.1-0.8-0.1-1.5-0.2-2.2-0.2-1.1-0.1-2.2-0.2-3.4-0.2h-1.8c-0.4 0.5-0.8 1-0.9 1.7 3.2 0.3 6.3 0.5 9.6 0.8zm-42.3-13.3c0 0.4-0.1 0.8-0.1 1 0.2 0.6 0.6 0.9 1.1 1.2 2.5 1.8 5 3.6 7.5 5.3 0.3 0.2 0.5 0.5 0.9 0.5 0.2-0.5 0.1-1.1 0.1-1.6-2.6-2.1-8.2-5.9-9.5-6.4zm-14.2 2.8c-1.3-0.3-5.2-0.4-11.2-0.2-0.2 0-0.3 0.1-0.5 0.1 0.2 0.5 0.3 1 0.8 1.2 3 0.1 6.1 0.1 9.2 0.1 0.7 0 1.4-0.1 2.1-0.2 0-0.2 0.1-0.3 0-0.3-0.1-0.2-0.3-0.4-0.4-0.7zm-13.8-3.8c1.8 0.2 9.5 0.4 11.1 0.3 0.1 0 0.2-0.1 0.4-0.2-0.1-0.6-0.3-1-0.7-1.4-0.3 0-0.7-0.1-1-0.1-3.3 0.1-6.7 0.1-10 0.2-0.1 0-0.1 0.1-0.3 0.2 0.1 0.4 0.3 0.8 0.5 1zm22.2-4.8c-0.3 0.5-0.6 1-0.9 1.4-0.7 1.2-1.3 2.4-2 3.6-0.2 0.5-0.4 1-0.8 1.3-0.5 0.5-0.8 1.1-1.1 1.7 0.4 0.5 0.7 0.9 1.1 1.3 0.9-0.9 2.9-4.4 4.9-8-0.4-0.3-0.6-0.9-1.2-1.3zm30.8 8.7c0.8 1.6 1.6 3.1 2.2 4.6 0.5 1.3 1.4 2.3 2.2 3.6 0.3-0.5 0.6-0.9 0.8-1.4-0.1-0.4-0.2-0.8-0.4-1.2-1.3-2.4-2.4-4.9-4-7.2l-0.8 0.8c-0.1 0.4 0 0.6 0 0.8zm-59.6-13.1c0.6 0.4 1.1 0.4 1.5 0.4h8.8c0.4 0 0.8 0 1.1-0.1 0.1 0 0.2-0.2 0.3-0.3-0.1-0.2-0.2-0.4-0.3-0.5s-0.2-0.3-0.4-0.5c-0.6 0-1.1 0-1.7-0.1h-6.5c-1 0-2.1-0.1-3.1-0.1-0.1 0-0.1 0.1-0.3 0.2 0.3 0.4 0.5 0.7 0.6 1zm24.8-2c-0.3-0.5-0.6-0.8-1-1.1-1.1 1.8-2.3 3.5-3.4 5.3-0.6 0.9-1.2 1.8-1.4 2.9 0.2 0.4 0.5 0.9 1 1.1 0.7-0.9 4.2-6.9 4.8-8.2zm-0.3 21.3h-11.1c-0.1 0-0.1 0.1-0.2 0.2 0.3 0.4 0.5 0.7 0.8 1.1 3.8 0 7.5 0.1 11.3 0-0.1-0.5-0.2-0.9-0.8-1.3zm-0.8-1.1c0.1-0.6-0.2-0.9-0.6-1.2-1.2-0.2-10.1-0.2-11.4 0 0 0.5 0.3 0.9 0.6 1.2 1.2 0.2 10 0.2 11.4 0zm-9.7-14.8c-1.6-0.2-10.2-0.1-11.3 0-0.1 0.6 0.2 0.9 0.6 1.1 1.1 0.1 8.7 0.2 10.8 0.1 0.2 0 0.3-0.1 0.6-0.1-0.3-0.4-0.5-0.7-0.7-1.1zm12.6 18.4h-11.6c0.1 0.6 0.4 1 0.8 1.3 0.2 0 0.3 0.1 0.4 0.1h10c0.1 0 0.3 0 0.4-0.1 0.1 0 0.1-0.1 0.3-0.2-0.1-0.3-0.2-0.7-0.3-1.1zm-7.8-11.1h-10.9c-0.2 0-0.3 0.1-0.5 0.1 0.1 0.6 0.3 1 0.7 1.2 0.1 0 0.2 0.1 0.3 0.1h10.3c0.2 0 0.5 0.1 0.6-0.3 0-0.3-0.2-0.7-0.5-1.1zm-6.4-9.6c-0.2-0.1-0.4-0.1-0.5-0.1h-10.5c-0.2 0-0.3 0.1-0.6 0.2 0.3 0.5 0.5 0.9 0.7 1.3h10.1c0.4 0 0.8 0 1.2-0.4-0.1-0.4-0.3-0.7-0.4-1zm13.4-1.8c-0.5 0.5-0.8 1-1 1.4-0.3 0.5-0.6 1.1-0.9 1.6-0.9 1.6-1.7 3.1-2.6 4.7-0.2 0.3-0.3 0.7-0.2 1.2 0.2 0.2 0.4 0.5 0.7 0.8 0.2-0.2 0.4-0.4 0.5-0.6 1.4-2.5 2.9-5 4.4-7.5-0.3-0.5-0.5-1-0.9-1.6zm50.9 3.6c-1-2.6-3.5-7.2-4.4-8.2-0.5 0-0.7 0.4-1 0.8 0.1 0.4 0.3 0.9 0.5 1.3 1.3 2.4 2.6 4.7 3.9 7.1 0.1 0.1 0.2 0.2 0.4 0.3 0.1-0.4 0.3-0.9 0.6-1.3zm-7-5.5c1.3 3.1 2.9 5.9 4.5 8.8 0.6-0.3 0.7-0.9 1-1.3-0.1-0.2-0.1-0.4-0.2-0.6-1.1-2.1-2.2-4.2-3.3-6.2-0.2-0.4-0.5-0.8-0.8-1.1-0.1-0.1-0.2-0.1-0.4-0.2-0.3 0.1-0.5 0.2-0.8 0.6zm-41.3 21c1.5-2.5 2.9-5 4.4-7.4 0.1-0.1 0.1-0.3 0.1-0.5-0.2-0.3-0.5-0.6-0.7-0.9-0.3 0-0.5 0-0.8 0.1-1 2.6-2.7 4.9-4 7.4 0 0.6 0 1.2 1 1.3zm27.2-14.3c-0.2 0.1-0.4 0.1-0.6 0.2-0.9 0.5-1.8 1.1-2.6 1.6s-1.5 1.1-2.3 1.5c-1 0.5-1.9 1.2-2.8 2 0 0.5 0.1 0.9 0.1 1.5 2.9-1.8 5.6-3.5 8.2-5.2 0.1-0.5 0.2-1.1 0-1.6zm15 7c-0.4-0.7-0.7-1.4-1.1-2.1-0.8-1.5-1.6-3.1-2.5-4.6-0.2-0.4-0.5-0.7-0.8-1-0.1-0.1-0.2 0-0.3-0.1-0.2 0.2-0.4 0.4-0.6 0.7 0 0.2 0.1 0.3 0.1 0.4 1.2 2.6 2.6 5.2 4 7.8 0.1 0.2 0.3 0.3 0.5 0.5 0.5-0.5 0.7-1 0.7-1.6zm-14.8-9.8c-1.8 1.1-3.4 2-5 2.9-1.2 0.8-2.4 1.6-3.5 2.6 0 0.3 0 0.7 0.1 1.1 0.2 0 0.3 0.1 0.4 0 2.2-1.4 4.5-2.8 6.7-4.1 0.5-0.3 0.9-0.6 1.3-1zm10.8 0.3c-0.1 0.8 0.4 1.3 0.7 1.9 1.1 2.1 2.2 4.2 3.3 6.2 0.1 0.2 0.3 0.4 0.6 0.7l0.7-1.4c-0.6-1.5-2.9-5.9-3.9-7.6-0.1-0.2-0.4-0.4-0.6-0.7-0.4 0.4-0.6 0.6-0.8 0.9zm-47-11.9c-0.2 0.1-0.3 0.2-0.4 0.2-0.7 0.8-0.9 1.9-1.8 2.5-0.2 1.1-0.9 1.8-1.4 2.7-0.6 1-1.2 2-1.7 3 0.3 0.4 0.3 0.9 0.9 1.1 0.9-1 5.1-8.2 5-8.7-0.1-0.1-0.3-0.4-0.6-0.8zm27.8 13.5c2.8-1.8 5.5-3.5 8.1-5.2 0.3-0.6 0.5-1.1 0.1-1.9-2.8 1.7-5.5 3.6-8.2 5.4zm8.3 6.4c-0.6-0.2-0.9 0.1-1.2 0.4-1 0.6-1.9 1.2-2.8 1.9-0.4 0.3-0.9 0.6-1.3 0.8-1.1 0.6-2.1 1.2-3.1 2.2v0.7c0 0.2 0.1 0.4 0.1 0.6 2.4-1.2 4.6-2.9 6.9-4.2 0.5-0.3 1-0.7 1.4-1.1zm-22.3 2c-1.9 2.7-4.1 6.7-4.4 8.1 0.1 0.4 0.3 0.7 0.9 0.6 0.2-0.2 0.4-0.4 0.6-0.7 1.2-2 2.4-4.1 3.5-6.1 0.2-0.3 0.2-0.7 0.3-1-0.3-0.3-0.5-0.6-0.7-0.8 0-0.1-0.1-0.1-0.2-0.1zm22-4.9c-1.4 0.9-2.8 1.7-4 2.6-1.3 1-2.7 1.9-4 2.8-0.1 0.6-0.2 1 0.1 1.5 2.8-1.6 5.4-3.4 8.1-5.1 0-0.6 0.1-1.2-0.2-1.8zm11.4 10.3c0.1 0 0.2-0.1 0.2-0.1 0.7-0.7 0.6-1.4 0.2-2.2-1.1-2-2.1-4-3.2-6-0.2-0.4-0.5-0.8-0.9-1.2-0.3 0.4-0.6 0.7-0.8 1 0.5 1.5 3.5 7.1 4.5 8.5zm-11-23.5c-0.4 0.1-0.6 0.2-0.8 0.3-2.6 1.6-5.1 3.3-7.7 5.1 0 0.5 0.1 0.9 0.1 1.4 0.4-0.1 0.6-0.2 0.8-0.4 2.2-1.3 4.3-2.7 6.5-4.1 0.4-0.3 0.9-0.5 1.2-1.1 0-0.3 0-0.6-0.1-1.2zm5.1 16.9c0.1 0.3 0.1 0.7 0.3 0.9 1.3 2.4 2.6 4.8 3.8 7.2 0.1 0.2 0.3 0.3 0.5 0.6 0.3-0.5 0.5-0.9 0.7-1.3-0.1-0.4-0.2-0.7-0.4-1-1.2-2.4-2.4-4.8-3.9-7.1 0-0.1-0.1-0.1-0.3-0.2-0.2 0.3-0.4 0.6-0.7 0.9zm-37.6 1.3c0.6-0.3 0.9-0.8 1.1-1.3 1-1.8 2-3.5 3-5.2 0.3-0.5 0.7-1 0.8-1.6-0.2-0.4-0.4-0.9-0.9-1.1-0.1 0.1-0.3 0.2-0.4 0.4-1.4 2.5-2.9 4.9-4.2 7.4 0.2 0.5 0.4 0.9 0.6 1.4zm-26 64.8c0.9 1 2 1.4 3.1 1.9 2 0.8 4.1 0.8 6.1 0.4 1.2-0.2 2.6-0.6 3.6-1.8-0.3 0-0.5 0-0.7 0.1-1.6 0.8-3.3 0.9-5.1 0.8-1.1 0-2.2-0.2-3.2-0.5-0.8-0.3-1.6-0.5-2.4-0.8-0.4-0.2-0.9-0.3-1.4-0.1zm57.7-64c-2.4 1.6-4.9 3-7.3 4.6v0.8c0 0.1 0.1 0.1 0.2 0.3 0.2-0.1 0.5-0.2 0.7-0.3 2.4-1.2 6.3-3.7 7.1-4.3 0.1-0.4 0.1-0.7-0.2-1zm26.2 60.3c2 2.7 8.9 4 12.2 1.1h-0.6c-0.6 0.1-1.3 0.3-1.9 0.5-1.3 0.2-2.6 0.3-3.8 0-1.3-0.2-2.5-0.7-3.8-1.1-0.7-0.3-1.4-0.5-2.1-0.5zm-145.4-19.4c-0.5-0.4-1-0.8-1.1-1.4 0.1-1.2 1.6-1.5 1.6-2.7-0.7-0.4-1.2-0.1-1.8 0.2-0.9 0.6-1.7 1.3-1.8 2.5 0.2 0.7 0.6 1.2 1.2 1.6 0.4 0.2 0.9 0.5 1.5 0.3 0.2-0.2 0.3-0.3 0.4-0.5z"/>
<path class="st1" d="m187.4 285c0.8 0 1.4 0.3 2.1 0.5 1.3 0.4 2.5 0.9 3.8 1.1 1.2 0.2 2.5 0.2 3.8 0 0.6-0.1 1.3-0.3 1.9-0.5h0.6c-3.3 2.9-10.2 1.6-12.2-1.1z"/>

<path class="st1" d="m42.1 265.6c-0.2 0.2-0.2 0.4-0.3 0.5-0.6 0.2-1.1 0-1.5-0.3-0.6-0.3-1-0.9-1.2-1.6 0.1-1.2 0.9-1.9 1.8-2.5 0.5-0.3 1.1-0.6 1.8-0.2-0.1 1.2-1.5 1.5-1.6 2.7 0 0.6 0.4 1 1 1.4z"/>
<path class="st1" d="m252.8 259c0.3-0.1 0.6 0 0.8 0.2 0.6 0.5 1.1 1 1.6 1.6 0.6 0.7 0.7 1.5 0 2.4-0.3 0.1-0.7 0.4-1.1 0.5-0.7-0.2-1.4-0.3-1.8-1.1 0.5-0.7 1.6-0.5 2-1.3-0.3-0.6-0.6-1.1-1-1.6-0.3-0.1-0.4-0.4-0.5-0.7z"/>











<path class="st3" d="m165.2 226.3h-0.9c0.1-0.3 0.3-0.5 0.8-0.5 0 0.2 0.1 0.4 0.1 0.5z"/>
<path class="st1" d="m252.8 259c-0.1-0.1-0.3-0.2-0.5-0.4 0.3 0.1 0.4 0.2 0.5 0.4z"/>
<path class="st4" d="m162.1 212.4v-0.9c0.2 0.3 0.2 0.6 0 0.9z"/>



<path class="st4" d="m60 156.9c-0.2-0.1-0.4-0.2-0.5-0.4-2.2-2.7-4.3-5.5-6.3-8.4-1.1841-1.717-2.9066-3.6589-4.1125-5.0875 7.1856-1.1744 15.301-4.0227 15.825-4.5 0 0-0.275-0.55-0.6875-3.4625 8.0392-2.4911 21.309-5.5197 35.775-8 7.824-2.1322 14.599-6.9226 20.919-11.019 1.7492-1.0934 3.3897-2.221 5.15-3.0375 1.1597 1.3216 1.0958 3.7817 2.1 5.1875-0.4 0.4-1.3688 1.0188-1.8688 1.4188-4.0452 3.0001-8.1377 6.2093-12 8.9-1.6395 1.4302-2.2479 1.9105-4.8 1.8-1.4136 0.46815-2.2347 1.463-2.825 2.4125 0.15668 2.2913 0.22997 4.1543-1.875 5.1875-1.5 1.1-3.1 2.2-4.6 3.3-2.5 1.9-5 3.8-7.5 5.6-0.9 0.7-1.8 1.3-2.8 2-0.9 0.6-1.9 1-3.1 0.9-1.3-0.1-2.6 0.1-3.9-0.2-0.7-0.1-1.4 0.1-2.1 0.1-0.3 0-0.7 0.1-1 0.1-1.6 0-3.1 0.4-4.5 0.9-2.9 1-5.8 2.3-8.6 3.6-2 1-4.1 1.8-6.2 2.7 0-0.1-0.2 0-0.5 0z"/>
<path class="st4" d="m244.96 143.24c-2.2441 5.7677-4.666 11.201-7.7528 15.831-6.6551-3.0622-12.366-6.2111-18.566-8.8221-0.9-0.4-2.0442-0.73258-3.0442-0.93258-2-0.3-3.9-0.4558-5.9-0.5558s-3.9-0.6663-5.7-1.8663c-3.7008-2.4202-7.0129-4.3206-10-6.9426-1.4128-0.98176-2.4503-2.1204-3.025-3.5562 0.2-0.2 0.625-0.1 0.825 0 0.9 0.5 1.9 1.1 2.8 1.6 0.3 0.2 0.48281 0.4625 0.78281 0.0625-0.1-0.2-0.21562-0.4-0.41562-0.5-1.1-0.9-2.2547-1.7062-3.4547-2.5062-2.4-1.8-4.7125-3.3188-7.1125-5.0188-2.5-1.8-11.725-7.8-14.425-9.4-1.6-1-15.388-10.35-16.888-11.35-0.2-0.2-0.4-0.4-0.6-0.5v-0.6l1.2-2.1c0.2-0.3 0.5-0.6 0.6-0.8 0.6-0.2 1 0 1.3 0.2 0.7 0.4 1.4 0.9 2.1 1.4 2.7 1.7 24.212 15.812 26.912 17.512 3.3 2.1 6.6 4.2 9.9 6.2 1.8714 1.1586 3.7093 1.0568 5.6 1.2 0.2 0 0.4 0.2 0.7 0.3-1 1.1 24.598 2.6931 27.335 2.6806-2.8622 3.9974-3.6018 4.2713-2.455 4.7432 8.813 1.1622 21.379 0.53398 19.283 3.7205z"/>
<path class="st4" d="m216.27 60.008c-0.3 0.2-0.7 0.5-1.1 0.8-24.072 16.072-58.448 39.003-80.87 53.592-0.85874 0.69132-1.7518 1.3037-2.6 1.8-0.7-1.5-1.5-2.9-2.1-4.3-0.2764-0.76861-0.35908-1.2517 0.58125-1.7469 24.004-15.759 60.496-39.221 83.288-52.345 0.5-0.2 1-0.6 1.7-0.4 0.6 0.6 1.2 1.3 1.1 2.6z"/>
<path class="st4" d="m77.847 60.159c0.47925-1.3463 1.2028-2.692 2.5-2.2 21.329 13.929 43.856 27.17 63.653 40.541 2.2205 1.4307 0.86784 1.6741-2.2875 3.6625-21.873-14.4-38.149-24.446-63.866-42.003z"/>



<path class="st5" d="m138.7 103.6c-18.112-11.541-35.697-23.328-53.031-34.65 0.46316-0.76011 1.017-1.0124 1.6625-1.6031 18.712 10.063 35.505 23.349 51.75 33.772 2.6076 1.5184 0.77742 1.9114-0.38125 2.4812z"/><path class="st5" d="m185.97 134.12c-18.112-11.541-20.494-12.765-37.828-24.088 0.46316-0.76011 2.166-1.2333 2.8116-1.8241 16.962 11.235 19.153 13.007 35.398 23.43 2.6076 1.5184 0.77742 1.9114-0.38125 2.4812z" style="fill:#fff"/>
<path class="st5" d="m250.13 41.6c-2.3 1.7-12.521 9.5651-14.821 11.265-5.9476 3.8159-11.199 9.0411-16.348 11.313-0.4-0.5-0.9625-1.1781-1.2625-1.6781-2.7285 1.2646-5.3447 3.7808-7.9531 5.125-0.4-0.4-0.74687-1.025-0.64687-1.725 1.7-1.4 3.4-2.8 5.4-4 0.6-0.4 1.2-0.9 1.8-1.2s1.1-0.7 1.8-0.7c0.4 0.2 0.9 0.4 1.4 0.7 0.7-0.1 1.2-0.6 1.8-1 3.1-2.1 6.3-4.2 9.4-6.3 3.5-2.4 14.79-10.136 18.29-12.536 0.1-0.1 2.034-0.74082 2.234-0.84082-0.1 0.4-0.6397 1.2094-1.0921 1.5768z"/>
<path class="st6" d="m206.2 131.6h-2.6c-0.1-0.2-0.3-0.5-0.4-0.7-0.6-2-1.3-4-1.9-6-0.1-0.4-0.3-0.8-0.4-1.3-0.3-0.1-0.6-0.3-0.9-0.4-1.6-0.5-3-1.2-4.6-1.7-0.4-0.2-0.7-0.5-1.2-0.7-1-0.3-2-0.7-3-1-2.1 1-4.1 1.9-6.1 2.9-0.1 0.1-0.3 0-0.5 0-0.6-0.3-1.4-0.5-1.6-1.5 2.3-1 4.5-1.9 6.8-2.9 0.3-0.1 0.5-0.2 0.8-0.3 0.6-0.3 1.3-0.3 1.9 0 2.7 0.9 5.4 1.8 8 2.7 1 0.3 1.9 0.8 2.9 1.2 0.4 1 0.7 2.1 1 3.2l0.9 3.3c0.4 0.9 0.7 2 0.9 3.2z"/>




<path class="st5" d="m207.02 69.788c-5.1076 3.9308-87.818 59.209-92.643 62.299-0.6-0.4-1.0768-1.0873-1.2768-1.7873 0.45056-0.7367 87.749-59.346 92.625-62.353 0.82913 0.37837 1.2235 1.0383 1.2946 1.8415z"/>
<path class="st6" d="m97.2 126.5c-0.7 0.2-1.3 0.4-1.8 0.5-0.3-0.2-0.5-0.5-0.4-0.7 0.3-0.6 0.3-1.3 0.6-2 0.4-0.8 0.7-1.7 1.1-2.6 0.4-0.8 0.8-1.6 1.3-2.4 2.2-1.5 4.6-2.8 7.1-4 0.8-0.4 1.6-0.5 2.6-0.3 2.1 0.5 4.2 0.8 6.3 1.3 0.6 0.1 1.1 0.4 1.6 0.6 0.2 0.4 0.1 0.7-0.2 0.8-0.3 0.2-0.6 0.4-1 0.6-1.4-0.4-2.7-0.9-4-1.3s-2.5-1.1-4.2-0.7c-2.2 1.3-4.9 2.4-7 4-0.7 2.2-1.3 4.2-2 6.2z"/>



<path class="st5" d="m182.77 137.29c0.6 0.1 0.83427 0.0105 0.93427-0.58951 0.2 0 0.12435-1.4363 0.97621-1.7683 0.83337-0.32481 1.4011 0.89381 2.2011 0.89381 0.6 0.3 1.2055 1.0806 1.7055 1.6806 0.39394 0.0125 0.50812 0.15519 1.1143 0.97463-0.86597 1.4307-1.6473 3.1313-2.7725 4.2224-0.6141 0.224-1.6235-0.40293-2.4136-0.32639l-0.44532 0.43427c-1.6603 0.41561-1.9506-1.0016-2.4657-1.711 0-0.2 0-0.5-0.1-0.8-0.49718-0.41161-1.3032-1.7961-1.3032-2.2961 0.5-0.5 0.75525-1.7286 2.5689-0.71443z"/>






<path class="st5" d="m82.6 64.5c0 0.6-0.3 0.9-0.6 1.3-2.5-1.5-6.0275 0.15746-8.4275-1.4425-0.3-0.2-26.552-19.956-26.752-20.156 0.2-0.5 0.5-0.8 0.9-1 0.2 0.1 24.287 15.656 24.487 15.856 3.085-1.5936 8.093 3.6421 10.393 5.4421z"/><path class="st0" d="m158.2 105.8c2.2 1.5 4.3 3.1 6.5 4.5 2.2 1.5 4.5 2.9 6.8 4.3 2.4 1.5 4.8 3 7.2 4.4 0.9 0.5 1.8 0.9 2.6 1.3 0.2 0.1 0.5 0.2 0.7 0.2 1.1-0.4 2-0.8 3-1.2 1.5-0.6 3-1.3 4.5-1.9 1-0.5 2-0.6 3.1-0.3 1.2 0.4 2.4 0.7 3.6 1.1 1.5 0.5 3 0.8 4.4 1.5 0.3 0.2 0.7 0.3 1 0.5 0.7 0.3 1.5 0.6 2.3 0.9 0.1 0.1 0.2 0.3 0.3 0.5 0.6 1.6 1.2 3.2 1.6 4.9 0.4 1.6 0.8 3.2 1.5 4.8 1 0.4 2 0.6 3.1 0.7 1.2 0.1 2.3 0.3 3.5 0.5 0.1 0 0.3 0.1 0.4 0.1 1.2 0.1 2.4 0.2 3.7 0.3 1.8 0.2 3.6 0.5 5.4 0.8h0.9c0.8 0 1.5-0.1 2.2 0.3h0.3c1.6 0 3.3 0.3 4.9 0.6h0.4c1.5 0 2.9 0.2 4.3 0.5h0.4c1.4 0.1 2.7 0.1 4.1 0.3 1.7 0.3 3.5 0.4 5.2 0.6 1.4 0.2 2.7 0.4 4.1 0.6 0.3 0.1 0.6 0.2 1 0.3 0.2 0.4 0.1 0.9 0.1 1.4-0.3 2.3-0.7 4.5-1.5 6.7-1.4 3.9-3.1 7.7-5.2 11.3-0.7 1.3-1.6 2.6-2.4 3.9s-1.9 2.4-3 3.4c-0.5 0.5-1.2 0.8-1.6 1-1.3 0.2-2.4-0.1-3.4-0.5-1.8-0.7-3.5-1.3-5.3-2-1.2-0.5-2.4-1.1-3.6-1.6-1.4-0.6-2.8-1.3-4.2-2-1.8-0.9-3.6-1.8-5.4-2.8-2.4-1.4-4.9-2.9-7.2-4.4-2.9-1.9-5.8-3.9-8.7-5.8-2.7-1.8-5.4-3.5-8.1-5.2-0.5-0.3-1-0.6-1.6-0.7-1.4 1-1.7 2.8-3 4-0.4 0-0.9 0.1-1.4 0.1-0.7 0.3-1.3 0.6-1.8 1.1s-1.2 0.6-1.9 0.9c-0.7-0.2-1.4-0.3-1.8-1-0.4-1.2 0.1-2.5 0.3-3.7-0.7-1.4-1.8-2.6-1.4-4.3 0.8-1.2 2.1-1.6 3.5-1.6 0.1-0.7-0.2-1.1-0.6-1.6-0.8 0-1.5 0-2.2 0.2-1.8 0.5-3.7 0.8-5.6 0.6-0.9-0.4-0.9-1.2-1-2-0.1-0.6-0.1-1.2-0.1-1.9v-2.4c-0.6-1-1.5-1.4-2.3-1.9-1.2-0.8-2.5-1.5-3.7-2.3-1.3-0.8-2.5-1.7-3.7-2.5-3.2-2-6.4-4.1-9.5-6.1-1.6-1-3.3-2.1-4.9-3.1-0.6-0.4-1.3-0.6-2.3-0.3-3.6 2.4-7.5 5.1-11.4 7.6-3.9 2.6-7.8 5.1-11.5 7.8-0.7 1.6-0.2 3.1-0.5 4.5-0.4 0.6-1 1-1.6 1.3-1.4-0.2-2.5-1.1-3.5-1.9-0.8 0-1.3 0.6-1.8 0.9-0.6 0.4-1 0.8-1.5 1.2 0 0.6 0.3 1 0.6 1.3 0.9 0.5 1.3-0.5 2-0.4 0.7 0.2 0.9 0.9 1.2 1.5 0.3 0.4 0.6 0.9 0.4 1.5-0.6 0.5-1.2 1.1-1.8 1.6 0.2 0.8 0.3 1.6 0.4 2.3-0.4 0.4-0.8 0.8-1.2 1.1-1.1 0.9-2.3 1.6-3.7 2.1-0.5 0.2-0.9 0.2-1.5 0.1-1.4-1.5-2.7-3.2-3.7-5.3-0.3-0.2-0.7-0.5-1.4-0.2-1.1 0.9-2.6 1.8-3.7 3l-0.2 0.2c-2.6 1.7-5 3.8-7.6 5.6-3.3 2.2-6.7 4.3-10.2 6-3 1.4-5.9 2.8-9 4.1-3 1.2-5.9 2.5-8.9 3.7-2 0.8-4 1.6-6.1 2.1-0.5 0.1-1 0.1-1.3 0.1-0.9-0.3-1.4-0.7-1.9-1.2-1.5-1.5-3-2.9-4.4-4.4-1.3-1.5-2.5-3-3.6-4.7-1.2-1.9-2.2-4-3.1-6-0.7-1.6-1.4-3.3-1.8-5-0.3-1.1-0.1-2.1-0.2-3 0.2-0.5 0.5-0.8 0.8-0.9 1.3-0.3 2.5-0.8 3.8-0.9 0.8-0.1 1.7-0.4 2.5-0.6 2.2-0.5 4.4-0.9 6.6-1.4 1.9-0.5 3.9-0.7 5.8-1.3 1.1-0.4 2.4-0.5 3.6-0.7 0.8-0.2 1.6-0.4 2.5-0.6 1.8-0.4 3.7-0.8 5.5-1.1 1.2-0.2 2.4-0.6 3.6-0.8 1.8-0.4 3.7-0.8 5.5-1.2 2.5-0.6 5-1.1 7.6-1.7l0.9-0.3c0.8-0.3 1.4-0.6 1.5-1.5 0.9-2 1.6-4 2.6-5.9 0.4-0.9 1.1-1.5 1.9-2 1.6-0.9 3.2-1.9 4.8-2.7 0.7-0.4 1.5-0.7 2.3-1.1 1.3-0.2 2.5 0.1 3.8 0.4 2 0.5 4 0.9 6.1 1.4l0.4 0.4h2.1c1.3-0.2 2.3-1 3.5-1.7 1.7-1 3.4-2.1 5-3.2 1.7-1.1 3.3-2.2 4.9-3.3 1.1-0.7 2.2-1.5 3.3-2.2 0.6-0.4 1.2-0.9 1.7-1.6-0.2-0.2-0.3-0.5-0.5-0.7-1.1-0.8-2.2-1.6-3.4-2.3-2.9-1.9-5.9-3.9-8.9-5.8-2.3-1.5-4.6-3.1-6.9-4.6-3.2-2.1-6.5-4.2-9.7-6.3-2-1.3-4.1-2.6-6.1-3.9-1.2-0.8-2.4-1.7-3.6-2.5-1.5-1-3.1-2-4.6-3s-3-1.9-4.5-2.9c-1.6-1-3.1-1.9-4.6-3-1.2-0.8-2.5-1.6-3.7-2.4-0.3-0.2-0.7-0.4-1.1-0.7-0.4-0.2-0.8-0.4-1.1-0.5-0.6 0.5-0.8 1.3-1.7 1.6-0.3-0.2-0.6-0.3-0.9-0.5-1.3-0.9-2.5-1.8-3.8-2.7-2.2-1.6-4.3-3.3-6.5-5-0.9-0.7-1.8-1.4-2.7-2-1-0.7-2.1-1.3-3-2.1-1.2-1.1-2.6-2-3.9-3-1.5-1.1-2.9-2.3-4.4-3.4-1.2-0.9-2.5-1.7-3.6-2.8-1.2-1-2.5-1.9-3.7-2.8-1.9-1.4-3.8-2.8-5.6-4.3-1.8-1.4-3.7-2.8-5.5-4.2-2-1.6-4-3.2-6-4.7l-2.4-1.8c-1.5-1.2-3.1-2.3-4.6-3.6-0.6-0.5-1.2-1.1-1.7-1.8 0.2-0.5 0.6-0.3 0.8-0.2 0.5 0.2 1 0.4 1.5 0.8 4.9 3.2 9.9 6.5 14.8 9.7 2.6 1.8 5.2 3.6 7.8 5.3 1.6 1.1 3.1 2.1 4.7 3.2 1.8 1.2 3.5 2.4 5.2 3.6 2.7 1.8 5.5 3.7 8.2 5.5 2.5 1.7 5.1 3.5 7.6 5.2l2.7 1.8c0.3 0.2 0.6 0.4 1 0.6 0.6-0.5 1.1-1 1.6-1.5 0.8 0 1.3 0.7 2.1 0.8 0.4-0.2 0.8-0.7 1.1-1.2 0.4-0.6 1-1.1 1.9-1.4 0.9 0.6 1.9 1.2 2.9 1.8 3.8 2.5 7.7 5 11.5 7.5 3.3 2.2 6.7 4.3 10 6.4 5.1 3.3 10.1 6.6 15.2 9.9 2.8 1.8 5.7 3.7 8.5 5.6 3.6 2.4 7.3 4.7 10.9 7.1 1.8 1.2 3.6 2.3 5.5 3.5 0.6 0.4 1.2 0.8 1.8 1.1 0.3 0.2 0.7 0.3 1.1 0.4 0.3-0.1 0.7-0.2 1-0.4 1.2-0.7 2.4-1.5 3.6-2.2 1.3-0.8 2.6-1.5 3.8-2.3 2.2-1.4 4.5-2.8 6.7-4.2 1.7-1.1 3.4-2.2 5.2-3.2 0.9-0.5 1.6-1.1 2.4-1.6 1.2-0.8 2.4-1.5 3.7-2.3 2.5-1.5 4.9-3.2 7.5-4.6 1.2-0.7 2.3-1.5 3.5-2.3 1.4-0.9 2.8-1.7 4.2-2.6 0.7-0.4 1.4-0.9 2.1-1.4 1.3-0.8 2.6-1.5 3.8-2.3 1.3-0.8 2.4-1.7 3.8-2.4 1.6-0.8 3.1-1.9 4.6-2.9s3-2 4.6-2.8c2.7-1.5 5.3-3.2 8-4.8 0.4-0.2 0.7-0.5 1.3-0.3 0.2 0.1 0.5 0.3 0.8 0.5 0.7 0 1.1-0.5 1.7-0.8h0.9c0.1 0.1 0.3 0.2 0.4 0.4 0.3 0.5 0.6 0.9 1 1.4 0.1 0.2 0.3 0.3 0.5 0.5 1-0.5 1.9-1 2.8-1.6 2.8-1.9 5.7-3.8 8.6-5.7 2.5-1.7 5.1-3.3 7.6-5 2.4-1.6 4.9-3.2 7.3-4.8 2-1.3 3.9-2.8 5.9-4.1 3-2 6-4 9.1-6 1.8-1.1 3.5-2.3 5.4-3.4 2.4-1.4 4.6-3 7-4.5 0.3-0.2 0.6-0.3 0.9-0.4h0.5c0 0.5-0.3 0.6-0.5 0.9-1 0.8-1.9 1.5-2.9 2.3-0.7 0.6-1.6 0.8-2.2 1.4s-1.3 1.1-1.9 1.7c-3 2.3-6 4.6-9 6.8-2.8 2-5.5 4.1-8.3 6.2l-0.1 0.1c-0.8 0.7-1.8 1.1-2.6 1.9s-1.7 1.3-2.6 2-1.7 1.3-2.6 2c-2.2 1.6-4.4 3.2-6.7 4.8-2 1.4-3.9 2.9-5.9 4.4-3 2.2-6 4.4-9.1 6.6-1.2 0.8-2.3 1.8-3.5 2.6-0.4 0.2-0.8 0.5-1.2 0.7-0.5-0.3-1-0.6-1.6-0.9-0.3 0.2-0.7 0.4-1 0.6l-19.5 12.9c-3 2-6 4-8.9 6-2.4 1.6-4.7 3.1-7.1 4.7-4.2 2.8-8.4 5.7-12.5 8.6-1.2 0.8-2.4 1.5-3.5 2.3-1 0.7-2 1.5-3.1 2.2-0.5 0.4-1 0.7-1.5 1.1-0.4 0.3-0.8 0.7-1.1 1-0.54393-1.0701 0.0956 0.0662 0.4 0.4zm6 14.5c0.2 0.1 0.6 0.2 1 0.2 0.34986-0.50481 0.22373-1.0661 0.3-1.6-0.2-0.2-0.3-0.4-0.5-0.6-0.7-0.6-1.4-1.1-2.1-1.7-3.3-2.4-6.6-4.7-10-7-0.5-0.3-1-0.6-1.5-0.8-1.0854-0.38538-2.0504 0.63761-2.8315 1.3978l0.93146 0.50225c2.9038 1.2029 5.0126 3.1472 7.6 4.7 2.7956 1.6659 4.7547 3.0759 7.1 4.9zm-92.1-57.4c0.1 0.1 0.2 0.2 0.3 0.2 0.43258 0.37847 0.76573 0.61274 1.2105 0.90113 0.77158-0.52412 0.75795-0.83324 1.2895-1.6011-2.6675-2.1577-5.6871-4.1041-8.7-6.2-2.0732-1.4938-3.6177-2.5126-5.7-4-1.8019-1.3253-3.6381-2.175-5.2-3.4-2.7619-1.7261-4.9823-4.2449-7.8-5.1-0.1-0.1-0.1-0.3-0.3-0.1l0.2 0.2c0.4 0.8 1.1 1.2 1.7 1.7s1.2 1 1.9 1.5c2.965 2.2634 5.8613 4.963 9 6.8 2.9213 2.1086 4.9841 4.222 7.8 6.1 1.6134 0.80794 2.8345 2.1744 4.3 3zm170.8 91.7c0.1 0.2 0.1 0.4 0.3 0.7 0.1-0.3 0.2-0.5 0.3-0.6 0.1-0.3 0.1-0.7 0.4-0.9 0.6-0.6 0.8-1.3 1-1.9-0.1-1.2-0.2-2.2-0.2-3.3 0.1 0 0.2-0.1 0.3-0.1 0.1 0.4 0.3 0.8 0.4 1.2-0.2 0.3 0 0.5 0.1 0.8 0.1 0.1 0.2 0.2 0.3 0 0.1-0.1 0.2-0.1 0.2-0.1 0.6-0.8 1-1.7 0.9-2.7-0.1-1.1 0-2.2 0-3.6 0.3 0.4 0.5 0.5 0.6 0.7 0.2 0.3 0.2 0.7 0.7 0.8 0.1-0.1 0.2-0.2 0.2-0.3 0.6-2.1 1.1-4.2 1.4-6.3 0-0.2-0.1-0.4-0.1-0.6-1.4-0.1-2.4 0.9-3.6 1.1-0.3-0.6 0.4-0.9 0.1-1.5-0.1-0.1-0.3-0.2-0.5-0.3-0.9 0.4-1.7 1-2.4 1.5-0.83473 0.3867-0.7396 0.0492-0.74194 0.0492l0.64194-0.7492c0.3-0.2 0.4-0.6 0.4-1-1.1-0.6-1.4-0.6-2.4 0.4-0.3 0.3-0.6 0.6-1 0.8-0.2 0.2-0.5 0.4-0.9 0.3 0.1-0.2 0.1-0.3 0.2-0.5 0.4-0.4 0.4-0.8 0.2-1.3-0.7-0.3-1.2-0.2-1.7 0.4l-1.5 0.9c-0.19375-0.0297-0.23281-0.0594-0.2-0.3 0.1-0.2 0.1-0.4 0.2-0.6 0.5-0.5 0.2-0.8-0.1-1.2-0.6-0.1-1 0-1.3 0.5-0.4 0.2-0.7 0.5-1 0.7s-0.5 0.4-0.8 0.5c-0.1 0-0.2 0-0.3-0.1 0-0.2 0-0.4-0.1-0.6 0.1-0.2 0.2-0.3 0.3-0.4 0.3-0.2 0.2-0.5 0.1-0.8-0.5-0.4-1-0.7-1.7-0.1-0.8 0.1-1.3 0.7-2 1.1l-0.3-0.3c0.1-0.4 0.2-0.7 0.3-1.1-0.7-0.4-1.3-0.3-1.7 0.3-1 0.7-1.8 1.5-2.5 2.5-0.1 0.1 0 0.3 0 0.5 3.4 0.3 6.8 0.7 10.2 1s6.9 0.6 10.3 1.2c0 0.2 0.1 0.4 0 0.6-0.3 0.9-0.6 1.9-1 2.8l-4.2 9.3c-0.4 0.9-0.9 1.7-1.3 2.5s-1.1 1.5-1.4 2.4c-0.1 0.4-0.4 0.6-1 0.8-0.3-0.1-0.8-0.2-1.2-0.5-3.7-1.8-7.4-3.6-11.1-5.5l-6.6-3.3c-2.2-1.1-4.6-1-6.9-0.8-0.4 0-0.7 0.2-1.1 0.3-0.2 0.1-0.3 0.2-0.1 0.5 1 0.1 2 0.1 3.1 0.1 0.9 0 1.7 0 2.6 0.1 0.2 0 0.4 0.1 0.4 0.4-0.3 0-0.6 0.1-0.9 0.1-0.5 0-1.1 0-1.6 0.1-0.6 0.1-1.2 0.1-1.6 0.6 1.1 0.9 2.3 1.4 3.7 1.3 1.5 0 3 0.1 4.5 0.1 0.6 0 1.2 0.1 1.8 0.1 0.1 0 0.2 0.1 0.3 0.2-0.2 0.4-0.6 0.3-0.9 0.3h-3.8c-0.3 0-0.6 0-0.9 0.2 0.5 0.7 1.1 0.9 1.7 1.1 1.7 0.1 3.4 0.2 5 0.3v0.6h-1.4c-0.2 0-0.4 0-0.5 0.1-0.2 0-0.5-0.1-0.5 0.4l2.2 1.1c2.2 0 4.3-0.1 6.4-0.1v0.1c-1.2 0.2-2.4 0.5-3.8 0.8 0.3 0.3 0.5 0.5 0.8 0.6 0.9 0.5 1.8 0.9 2.6 1.4 0.6 0.4 1.3 0.5 2.1 0.3 1.6-0.3 3.2-0.2 4.8-0.3 0.3 0 0.5 0.1 1 0.1-0.6 0.5-1.2 0.6-1.7 0.7s-1.1 0-1.6 0.3c0 0.2 0 0.4 0.1 0.5 0.7 0.7 1.6 1 2.6 1.3 1.2-0.9 2.3-1.9 3.1-3.3v-2.5c0.9 0.3 0.4 1.3 1.2 1.7 1-1.4 2.1-2.7 1.6-4.6l0.6-0.4 0.1 0.1zm7.9-114.2c-0.6 0-1 0.3-1.4 0.7h-0.4c-0.4 0.3-0.8 0.7-1.2 1-1.3 0.9-2.7 1.7-4 2.5-0.7 0.5-1.5 0.8-2 1.5-0.1 0.1-0.3 0.1-0.4 0.2-3.5 2.4-7.1 4.7-10.6 7.1-3.1 2.1-6.3 4.2-9.4 6.3-0.6 0.4-1.1 0.8-1.8 1-0.5-0.2-1-0.5-1.4-0.7-0.7 0-1.3 0.4-1.8 0.7-0.6 0.4-1.1 0.9-1.8 1.2-1.9 1.1-3.7 2.5-5.4 4-0.1 0.7 0.2 1.1 0.6 1.6 0.7-0.1 1.2-0.6 1.8-1l5.1-3.6c0.3-0.2 0.6-0.5 1.1-0.4 0.4 0.5 0.8 1.1 1.2 1.6 0.7-0.2 1.3-0.6 1.8-1 4.8-3.5 9.7-7 14.5-10.5 2.3-1.7 4.5-3.4 6.8-5.1 0.3-0.2 0.6-0.3 0.8-0.5 2-1.5 3.9-3 5.9-4.5 0.2-0.2 0.5-0.4 0.7-0.7l0.3-0.3c0.1-0.1 0.1-0.2 0.2-0.2 0.4-0.1 0.8-0.4 0.8-0.9 0.1 0 0.3 0 0.1-0.2 0 0-0.1 0.1-0.1 0.2zm-202.6 104.1c-0.4-0.1-0.8-0.2-1.1 0.1 0.1 0.6 0.5 0.9 1 1.1 0.4 0.6 1.2 0.9 1.6 1.7-0.2 0.1-0.3 0.2-0.5 0.3-0.2 0-0.5 0-0.8 0.1 0.2 0.6 0.4 1 1 1.1 0.4 0.3 0.9 0.7 1.3 1 0.4 0.4 1 0.5 1.3 1.1-0.3 0.1-0.6 0.1-0.8 0.1h-0.6c-0.1 0.6 0.1 0.9 0.6 1 0.5 0.7 1.3 1 1.9 1.6 0.3 0.3 0.6 0.5 0.9 0.7 0 0.2-0.1 0.4-0.1 0.5-0.2 0.1-0.5 0.2-0.8 0.3 0.2 0.3 0.2 0.6 0.4 0.8 0.6 0.5 1.2 0.9 1.9 1 0.6 0.4 1.2 0.7 1.7 1.1v0.4c-0.4 0-0.8 0.2-1.1 0.5 0.4 0.9 1 1.7 1.9 2.1 0.1 0.1 0.2 0.2 0.3 0.2 0.2 0.2 0.3 0.5 0.5 0.6 0.5 0.3 0.7 0.2 1.2-0.4 0.6-0.7 1.3-1.4 1.9-2 0.2-0.1 0.3-0.4 0.7-0.2 0 0.2 0 0.5-0.1 0.8-0.4 0.3-0.2 0.6-0.1 1.1 0.4-0.4 0.9-0.5 1-1.1 0.4-0.4 0.8-0.9 1.3-1.3 0.3-0.3 0.5-0.7 1-0.7 0.1 0.4 0.1 0.7 0.1 1.1 0.6-0.2 0.9-0.7 1.3-1.1s0.70547-1.3008 1.2055-1.5008c0.4 0.5-0.30547 1.3008-0.0055 1.7008 0.5-0.2 0.9-0.6 1.4-1.2 0.7-1 1.1-1.3 2.1-1.6-0.1 0.6-0.2 1.2-0.4 2 0.8-0.7 1.3-1.3 1.9-1.9l1.2-1.2c0.1-0.1 0.3-0.1 0.5-0.1 0 0.4 0 0.7 0.1 1.1 0.8-0.4 0.8-0.4 1.3-1.1 0.3-0.3 0.6-0.7 1-1 0.3-0.1 0.7-0.3 1.2-0.5l0.3 0.9c0.8-0.5 1.6-1 2.1-1.9l1.2-0.3c0.4 0.2 0.9 0.1 1.4 0 0.1-0.1 0.2-0.3 0.3-0.5-0.4-0.6-0.9-0.8-1.4-0.6l-2.3 0.1c-0.1 0-0.3 0.1-0.4 0.1-1.1 0.2-2.2 0.5-3.2 0.9-0.6 0.2-1.2 0.5-1.8 0.8-4.4 1.9-8.9 3.7-13.3 5.6-0.5 0.2-1 0.4-1.4 0.5-1.1-0.4-1.9-1.1-2.5-1.9-1.3-1.5-2.5-3.1-3.7-4.6l-2.1-3c0-0.2 0-0.3-0.2-0.3-0.3-0.5-0.6-0.9-0.8-1.4 0-0.3 0-0.5-0.3-0.6-0.4-0.7-0.7-1.4-1.1-2 0-0.2 0-0.5-0.3-0.6-0.2-0.6-0.4-1.1-0.6-1.8 0.3-0.2 0.5-0.4 0.8-0.4 0.6-0.2 1.3-0.3 1.9-0.4 2.1-0.4 4.1-0.9 6.2-1.3 1.9-0.4 3.8-0.7 5.7-1.1 0.5-0.1 0.9-0.2 1.3-0.5 0-1.3 0-2.5-1-3.5-1.2 0.3-2.4 0.2-3.4 0.9 0.1 0.6 0.3 1 0.9 1.1 0 0.3 0 0.6-0.4 0.7-0.8-0.4-1.6-0.9-2.4-1.3l-0.6 0.3c0.1 0.4 0.2 0.8 0.3 1.1l-0.19997 0.2-1.5-0.8c-0.5-0.6-1-0.6-1.7-0.3 0.1 0.4 0.1 0.8 0.2 1.2h-0.3c-0.4-0.2-0.6-0.4-0.9-0.5-0.4-0.4-0.9-0.4-1.3-0.2-0.1 0.4 0 0.6 0.3 0.7 0.2 0.4 0.5 0.7 0.8 1.1 0 0.1-0.1 0.1-0.2 0.2-0.2 0-0.5-0.1-0.7-0.1-0.7-0.3-1.4-0.5-2-0.8-0.3-0.5-0.8-0.3-1.2-0.5-0.2 0.1-0.5 0.2-0.8 0.4 0.2 0.3 0.4 0.5 0.6 0.6s0.4 0.2 0.5 0.4c-0.1 0.1-0.2 0.3-0.3 0.4-1 0-1.9-0.3-2.7-0.6-1 0.1-1.2 0.8-1.3 1.7 0.2 0.4 0.5 0.8 0.8 1.2 0.7 0.8 1.5 1.6 2.3 2.4 0-0.2 0.1-0.1 0.1 0zm61.5-7.1c0.1 0.1 0.2 0.2 0.2 0.4v0.4c-0.1 0-0.3 0.1-0.4 0.1v1.4c0.7 1.5 1.7 2.9 2.6 3.6 1.6206-0.97038 3.506-1.8094 4.4-3.1-0.2-0.8-0.3-1.5-0.4-2.1 0.5-0.8 1.3-1.3 1.5-2.2-0.1-0.4-0.3-0.8-0.8-0.8-0.5 0.1-1 0.3-1.5 0.4-1.2-0.9-1.7-2.5-3.1-3.1-0.5 0.1-0.9 0.3-1.3 0.6-1 0.3-1.7 1.1-2.4 1.9 0.1 1 0.6 1.8 1.2 2.5zm64.4-6.9v0.8c-0.2 0.7 0.2 1.2 0.4 1.9 0.3 0 0.6 0.1 0.9 0.1 0.7-0.1 1.5-0.1 2.2-0.4 0.6-0.2 1.4-0.2 1.9-0.9-0.6-0.8-1.3-1.5-2.2-1.9l-0.9-0.6c-0.6-0.7-1.3-0.9-2.2-1.1-0.2 0.9-0.3 1.5-0.1 2.1zm-106.2 5.7c-0.2-0.1-0.5-0.1-0.7-0.2-0.4-0.2-0.8-0.5-1.2-0.7-0.5-0.3-0.9-0.3-1.5-0.1 0.2 0.8 0.6 1.4 1.1 1.9 0.7 0.5 1.3 1.1 2 1.6 0.5 0.4 1 0.7 1.6 0.7 0.2-0.1 0.4-0.2 0.7-0.4-0.1-0.3-0.2-0.5-0.4-0.8s-0.6-0.5-0.6-0.9l0.1-0.1c0.3 0.2 0.6 0.3 0.8 0.5 0.6 0.5 1.2 0.8 2 1l0.5-0.5c-0.1-0.5-0.3-0.9-0.7-1.3-0.9-1-2-1.9-3.3-2.4-0.4-0.2-0.8-0.3-1.1 0 0.4 0.7 0.6 1.2 0.7 1.7zm116.1 6.6 0.6-0.6c0.4-0.1 0.7 0 1.1 0.2 0.3 0.2 0.6 0.5 1.2 0.3 0.6-0.5 1.1-1.2 1.4-2 0.2-0.4 0.3-0.9 0.8-1.2 0.1-0.1 0.1-0.3 0.2-0.5s0.2-0.4 0.3-0.5c-0.3-0.4-0.5-0.8-1-0.9-0.70278-0.71791-1.3555-1.1254-1.8-1.7-0.6-0.3-1.1-0.8-2-0.6-0.4 0.3-0.9 0.7-1 1.4-0.2 0.6-0.6 0.8-1.1 0.7-0.3-0.4-0.7-0.4-1.2-0.3s-0.9 0.3-1.1 0.8c-0.1 0.4 0 0.8 0.2 1.1 0.3 0.4 0.7 0.9 1.1 1.3-0.21952 1.0698-0.25481 2.6937 0.1 3.7 0.2 0.1 0.5 0.2 0.8 0.3 0.5-0.4 1.1-0.8 1.4-1.5zm-54.1-22.8c-0.3-0.2-0.5-0.3-0.8-0.5-0.8 0.2-1.5 0.7-2.1 1.2-2.3 1.6-4.7 3.2-7 4.8-2.1 1.4-4.1 3-6.3 4.3-0.2 0.1-0.4 0.4-0.5 0.6 0.1 0.7 0.5 1.2 1.1 1.5 0.4-0.2 0.7-0.4 1.1-0.7 4.6-3.1 9.2-6.1 13.8-9.2 0.3-0.2 0.6-0.5 0.9-0.7 0.4-0.1 0.6-0.3 0.8-0.8-0.4-0.2-0.7-0.4-1-0.5zm74.4-50.9c-1.7 1.2-3.4 2.3-5.2 3.5-5.9 3.9-11.7 7.8-17.6 11.7-6.2 4.1-12.4 8.2-18.5 12.4-5.1 3.4-10.1 6.8-15.2 10.2-4.4 2.9-8.7 5.9-13.1 8.8-0.6 0.4-1.3 0.8-1.7 1.5l0.3 0.6c0 0.3 0.1 0.5 0.5 0.7 0.4-0.1 0.8-0.2 1-0.7 0.4-0.2 0.8-0.4 1.2-0.7 1-0.6 1.9-1.2 2.9-1.9l2.7-1.8c0.9-0.6 1.9-1.3 2.8-1.9s1.9-1.3 2.8-1.9l2.7-1.8c0.9-0.6 1.9-1.2 2.9-1.9 0.9-0.6 1.9-1.3 2.8-1.9s1.8-1.3 2.7-1.8c1-0.5 1.8-1.2 2.8-1.8 1.2-0.7 2.3-1.6 3.4-2.3 1.2-0.8 2.4-1.6 3.6-2.3 5.9-3.9 11.8-7.9 17.7-11.8 6.2-4.1 12.4-8.3 18.7-12.4 0.7-0.5 1.4-1 2.1-1.6 0.1-0.1 0.2-0.1 0.3-0.2-0.3-0.6-0.5-1.2-1-1.6-0.2 0.1-0.3 0.2-0.4 0.2-0.40394 0.27797-0.75836 0.46392-1.2 0.7zm-144.3 87.8c0.2-0.1 0.5-0.1 0.7-0.2 2.1-0.9 4.2-1.7 6.2-2.7 2.8-1.3 5.6-2.6 8.6-3.6 1.5-0.5 2.9-1 4.5-0.9 0.3 0 0.7-0.1 1-0.1 0.7-0.1 1.4-0.2 2.1-0.1 1.3 0.3 2.6 0.1 3.9 0.2 1.1 0.1 2.1-0.3 3.1-0.9 0.9-0.7 1.9-1.3 2.8-2 2.5-1.9 5-3.8 7.5-5.6 1.5-1.1 3.1-2.2 4.6-3.3 0.6-0.5 1.3-1 1.4-1.8-0.3-1.1 0.3-2.2 0.1-3.2 0.4-0.6 0.8-1 1.3-1.6 0.6-0.3 1.3-0.6 1.9-1h2.1l2.7-1.8c1.3-0.9 2.6-1.9 3.9-2.8 1.2-0.9 2.4-1.7 3.5-2.6 1.5-1.2 3.1-2.4 4.6-3.5 0.5-0.4 0.9-0.7 1.4-1.2 0-0.2 0-0.4-0.1-0.6-0.4-1.2-0.9-2.5-1.4-3.7-0.1-0.2-0.2-0.3-0.3-0.5-0.1-0.1-0.2-0.1-0.3-0.2-0.5 0-0.9 0.3-1.2 0.5-1.1 0.7-2.1 1.4-3.2 2.1-2 1.3-3.9 2.6-5.9 3.9l-3.6 2.4-8.7 6-5.4 3.6c-1.3 0.8-2.6 1.7-4 2.4-3.9 2.1-7.9 3.7-12 5.4-2.6 1.1-5.2 2-7.8 2.9-2.4 0.8-4.9 1.5-7.4 2.1-3.2 0.8-6.4 1.4-9.7 1.9-0.9 0.1-1.8 0.4-2.8 0.6-0.3 0.1-0.6 0.3-0.8 0.4 0 0.2 0 0.4 0.1 0.5 1.9 2.9 4.1 5.6 6.3 8.4-0.1 0.4 0.1 0.5 0.3 0.6zm182.8-9.8c-0.3 0-0.5-0.1-0.7-0.1-1 0-2.1-0.1-3.1-0.2-1.8-0.1-3.6-0.1-5.4-0.3-1.6-0.2-3.2-0.2-4.8-0.3h-0.3c-0.6-0.3-1.3-0.2-2-0.2-0.3 0-0.7 0.1-1 0-1-0.4-2.1-0.2-3.2-0.5-0.9-0.2-1.9-0.1-2.8-0.4s-1.9 0-2.8-0.5c-1.6-0.1-3.1-0.5-4.6-0.9-3.1-0.7-6.1-1.8-8.9-3.2-1.3-0.7-2.6-1.5-3.9-2.2-1.6-0.9-2.9-2.1-4.2-3.3-0.1-0.1-0.1-0.3-0.2-0.6 1 0.1 1.8 0.2 2.5 0.3 1.2-0.8 2.5-1.4 3.4-2.5-0.3-0.1-0.5-0.3-0.7-0.3-0.7 0-1.3 0-2-0.1-1.3 0-2.5-0.4-3.6-1.1-3.4-2-6.6-4.1-9.9-6.2-2.7-1.8-5.4-3.5-8.1-5.2-0.7-0.5-1.4-0.9-2.1-1.4-0.4-0.2-0.8-0.4-1.3-0.2-0.2 0.2-0.4 0.4-0.6 0.8l-1.2 2.1c-0.1 0.2 0 0.4 0 0.6 0.2 0.2 0.4 0.4 0.6 0.5 1.6 1 3.1 2.1 4.7 3.1 2.6 1.6 5.3 3.1 7.8 4.9s4.9 3.5 7.3 5.3c1.1 0.8 2.2 1.7 3.4 2.6 0.2 0.1 0.3 0.3 0.4 0.5-0.4 0.4-0.6 0.2-0.9 0-0.9-0.6-1.9-1.1-2.8-1.6-0.2-0.1-0.4-0.2-0.7 0 0.2 0.7 0.6 1.4 1.2 1.9s1.1 1 1.7 1.5c0.8 0.6 1.5 1.3 2.3 1.9 2.5 1.7 5.2 3.3 7.7 5 1.7 1.2 3.6 1.7 5.7 1.8 2 0.1 3.9 0.3 5.9 0.6 1 0.1 2 0.4 3 0.8 1.9 0.8 3.7 1.6 5.6 2.5 2 1 4 2.1 6.1 3.1 0.6 0.3 1.2 0.5 1.8 0.8 1.6 1 3.2 1.7 5 2.4 0.2-0.3 0.5-0.6 0.6-0.9 0.5-0.9 1.1-1.8 1.6-2.7 1.1-2 2.1-4 3.1-6 0.2-0.3 0.3-0.7 0.4-1.1zm-37.8-79.8c0.1-1.2-0.5-2-1.1-2.7-0.7-0.2-1.2 0.2-1.7 0.4-1.1 0.6-2.1 1.3-3.2 2-1.7 1-3.3 2-5 3.1-1.5 0.9-3.1 1.9-4.6 2.9-1.4 0.9-2.9 1.9-4.4 2.8-2 1.1-3.9 2.4-5.8 3.6-1.6 1-3.1 2-4.7 2.9-1.9 1.1-3.8 2.4-5.7 3.5-1.1 0.7-2.3 1.4-3.4 2.2-1.9 1.2-3.7 2.3-5.6 3.4-1.9 1.2-3.8 2.5-5.8 3.7-2.4 1.5-4.8 2.9-7.1 4.5-1.9 1.3-3.8 2.6-5.8 3.7-1.6 0.9-3 1.9-4.5 2.9-2.1 1.3-4.1 2.6-6.2 3.9-0.4 0.2-0.7 0.5-0.9 0.9 0 0.3 0 0.6 0.1 0.8 0.7 1.4 1.4 2.9 2.1 4.3 0.4-0.2 0.7-0.4 1-0.6 0.5-0.4 1-0.8 1.6-1.2 4.3-2.8 8.7-5.7 13-8.5l22.5-15c2.4-1.6 4.7-3.1 7.1-4.7 3.9-2.6 7.7-5.1 11.5-7.7 2.4-1.6 4.8-3.3 7.3-4.9 2.7-1.8 5.5-3.7 8.2-5.5 0.5-0.2 0.8-0.5 1.1-0.7zm-116.9-0.6c9.9808 6.8635 19.506 12.776 28.7 19 3 2 6.1 4 9.1 6 2.7 1.8 5.4 3.6 8.2 5.3 1.7 1.1 3.4 2.3 5.2 3.4 0.9 0.6 1.7 1.2 2.7 1.5 1.1-0.6 2.2-1.2 2.9-2.1-0.1-0.6-0.5-0.8-0.8-1-2.3-1.5-4.5-3.1-6.8-4.5-2.1-1.3-4.2-2.7-6.3-4-3.2-2.1-6.4-4.1-9.7-6.1-3.1-2-6.2-4-9.3-5.9-3.5-2.2-6.9-4.4-10.3-6.6-3.6-2.4-7.2-4.7-11-6.9-0.2-0.1-0.5-0.2-0.8-0.3-0.9 0.4-1.6 1-1.8 2.2zm52.2 35.6c-0.3-0.2-0.6-0.5-0.9-0.7-0.2-0.2-0.6-0.2-0.7-0.4-0.3-0.5-0.8-0.7-1.2-1l-18.6-12.3-9.6-6.3c-3.1-2-6.2-4-9.3-6.1-3.7-2.4-7.4-4.9-11.2-7.3-0.4-0.3-0.9-0.6-1.4-0.7-0.3 0.2-0.6 0.5-0.8 0.7-0.3 0.2-0.5 0.5-0.8 0.7 2.3 1.5 4.5 3 6.7 4.4s4.4 2.8 6.5 4.3c2.2 1.4 4.4 2.9 6.7 4.3 2.2 1.4 4.4 2.8 6.5 4.3 2.2 1.4 4.4 2.9 6.7 4.3 2.2 1.4 4.4 2.9 6.7 4.3l6.6 4.2c2.2 1.4 4.4 2.9 6.6 4.3 0.5-0.1 1.3-0.1 1.5-1zm65.9 29.3c-0.2-1.2-0.5-2.3-0.9-3.4l-0.9-3.3c-0.3-1.1-0.6-2.2-1-3.2-1-0.4-1.9-0.9-2.9-1.2-2.7-0.9-5.4-1.8-8-2.7-0.6-0.2-1.3-0.3-1.9 0-0.2 0.1-0.5 0.2-0.8 0.3-2.2 1-4.5 1.9-6.8 2.9 0.1 1 0.9 1.2 1.6 1.5 0.2 0 0.4 0.1 0.5 0 2-0.9 4-1.9 6.1-2.9 1 0.3 2 0.7 3 1 0.5 0.1 0.8 0.5 1.2 0.7 1.5 0.6 3 1.2 4.6 1.7 0.4 0.1 0.7 0.3 0.9 0.4 0.2 0.5 0.3 0.9 0.4 1.3 0.6 2 1.3 4 1.9 6 0.1 0.2 0.2 0.5 0.4 0.7zm-53.8-23.3c0.2 0.2 0.3 0.4 0.5 0.5 1.7 1.2 3.4 2.3 5.1 3.5 0.4 0.3 0.8 0.6 1.3 0.9l3.3 2.4c0.6 0.4 1.2 0.9 1.8 1.4 0.8 0.6 1.7 0.9 2.5 1.3 1.1-0.8 1.2-2.1 2-2.9 0-0.2-0.1-0.4-0.1-0.6l-1.5-1.2c-3.4-2.2-6.7-4.5-10.1-6.7-0.5-0.3-1.1-0.8-1.9-0.8-1 0.5-2.1 1.1-2.9 2.2zm33.6 15.5c2.1 1.5 4.1 2.8 6.3 3.8 1.2-0.9 2-2.2 3.5-2.9 0.3 0 0.7 0 1.1 0.1 0.2 0.3 0.5 0.6 0.7 0.8 0.1 0.7 0 1.2-0.2 1.8-0.2 0.4-0.4 0.8-0.4 1.2-0.1 0.6-0.6 1.1-0.4 1.7 0.7 0.1 4.2 0.2 4.8 0.1 0.2 0 0.3-0.2 0.5-0.3-0.5-1.8-1.2-3.6-1.9-5.4l-0.9-0.9c-0.2-0.2-0.5-0.3-0.8-0.4-1.9-0.8-3.8-1.5-5.7-2.3h-1.4c-1 0.4-1.9 0.8-2.8 1.1-0.8 0.4-1.7 0.8-2.4 1.6zm-72.8-4.6c-0.4-0.6-0.9-0.8-1.4-0.9-0.7-0.2-1.5-0.4-2.2-0.6-0.8-0.3-1.5-0.2-2.2-0.1-1.7 0.3-3.1 1.1-4.5 1.9-1 0.6-1.9 1.3-2.4 2.3l-1.2 2.4c-0.3 0.7-0.4 1.4-0.6 2.2 0 0.1 0.1 0.2 0.1 0.3 1.4-0.3 2.9-0.5 4.3-1.2-0.1-0.3-0.1-0.7-0.2-1-0.2-1.2-0.2-2.3 0.2-3.5 0.1-0.2 0.3-0.4 0.6-0.6 1 0.9 1.9 1.8 2.7 2.6 0.9 0.2 1.5-0.3 2.1-0.7 1.8-0.8 3.3-1.8 4.7-3.1zm-16 7.2c0.7-2 1.3-3.9 2-6.1 2.1-1.6 4.8-2.7 7-4 1.7-0.3 2.9 0.4 4.2 0.7 1.3 0.4 2.7 0.8 4 1.3 0.3-0.2 0.7-0.4 1-0.6 0.2-0.2 0.4-0.4 0.2-0.8-0.5-0.2-1-0.5-1.6-0.6-2.1-0.4-4.2-0.8-6.3-1.3-0.9-0.2-1.8-0.1-2.6 0.3-2.5 1.2-4.9 2.5-7.1 4-0.5 0.8-0.9 1.6-1.3 2.4s-0.7 1.7-1.1 2.6c-0.3 0.6-0.3 1.3-0.6 2-0.1 0.2 0 0.6 0.4 0.7 0.5-0.2 1.1-0.3 1.8-0.6zm72.3-3.9c0.2 0.7 0.7 1 1.1 1.3 4.2 2.9 8.5 5.8 12.7 8.7 0.2 0.2 0.5 0.5 1 0.3 0.1-0.2 0.4-0.4 0.6-0.7 0.1-0.2 0.2-0.5 0.3-0.8-0.2-0.2-0.4-0.3-0.5-0.4-2.3-1.5-4.6-3.1-6.9-4.6-0.7-0.5-1.4-1-2.2-1.3-0.9-0.4-1.7-0.9-2.3-1.5-0.7-0.7-1.6-1.2-2.4-1.6-0.1-0.1-0.3-0.1-0.6-0.1-0.3 0.2-0.5 0.4-0.8 0.7zm37.7-60.4c0.3 0.8 0.6 1.4 0.9 2 0.1 0.2 0.3 0.3 0.4 0.5 2.5-1.5 5-3 7.3-4.5 0.1-0.1 0.2-0.3 0.3-0.5-0.2-0.4-0.3-0.7-0.5-1s-0.4-0.6-0.7-0.9c-2.7 1.1-5.1 2.8-7.7 4.4zm-128.7-2.1c1.1 1.4 2.5 2.2 3.9 3 0.4 0.2 0.8 0.5 1.3 0.3 0.4-0.6 1-1.1 1.1-2-1.3-1.2-2.7-2.3-4.3-3-0.2-0.1-0.4 0-0.8 0-0.4 0.5-0.8 1.1-1.2 1.7zm145 75.2c-1-0.2-1.3-0.2-2.1 0.2-1.1 0.6-2.3 1-3.2 1.9-0.8 0.7-1.7 1.2-2.5 1.7-0.1 0.5-0.2 0.9 0 1.3 0.4 0.1 0.9 0.1 1.2-0.1 1.7-0.8 3.3-1.7 4.6-2.9 0.5-0.4 1-0.9 1.6-1.4 0.1-0.1 0.2-0.4 0.4-0.7zm4-0.1c-0.4 0-0.7 0-1 0.1-0.4 0.1-0.9 0.4-1.3 0.6-1.3 0.7-2.5 1.7-3.7 2.6-0.8 0.6-1.4 1.4-1.6 2.4 0.1 0.1 0.1 0.2 0.2 0.2 0.1 0.1 0.3 0.1 0.4 0.2 1.8-0.5 3.1-1.8 4.6-2.9 0.7-1.1 2-1.7 2.4-3.2zm-7.7-0.6c-0.5-0.1-0.9-0.1-1.4 0.1-0.4 0.2-0.9 0.3-1.3 0.5-1 0.4-1.9 1-2.8 1.6-1 0.6-1.8 1.4-2.5 2.3 0.1 0.2 0.1 0.4 0.1 0.5 0.2 0.1 0.3 0.1 0.4 0.1h0.9c2.9-1.3 5.9-3.5 6.6-5.1zm-137.2-70c-2.3-1.8-4.7-3.3-7.1-4.9l-0.6-0.3c-0.4 0.2-0.7 0.5-0.9 1 0.2 0.2 0.5 0.4 0.7 0.6 2.4 1.7 4.7 3.4 7.3 4.9 0.3-0.4 0.5-0.7 0.6-1.3zm125.9 74.3c2.4-0.4 4.1-1.6 5.9-2.9 0.9-0.6 1.3-1.3 1.5-1.9-0.6-0.1-1.1-0.1-1.6 0.1-1.2 0.6-2.4 1.2-3.6 1.9-0.9 0.5-1.6 1.3-2.3 2.1 0 0.2 0.1 0.4 0.1 0.7zm2.3-5.2c-4.5 2-4.8 2.2-6.1 3.7 0 0.1 0.1 0.3 0.1 0.5 0.5 0.2 0.9 0.1 1.3-0.1 1.4-0.7 2.9-1.3 4.2-2.3 0.6-0.4 1.1-1 1.5-1.7-0.4 0-0.8 0-1-0.1zm-140.5 0.2c0.8 1.7 2.8 3.4 4.7 4.1 0.2-0.3 0.6-0.4 0.6-0.9-1.2-1.4-2.6-2.7-4.3-3.5-0.4-0.1-0.7 0.1-1 0.3zm8.1 3.2c0.2-0.9-0.2-1.4-0.7-1.9-1-0.9-2-1.9-3.4-2.3-0.3 0-0.6 0.1-0.9 0.1v0.3c0.9 1.7 2.4 2.9 4.1 3.8 0.2 0.1 0.5 0 0.9 0zm40.9-7.1c0.7 1 1.5 1.6 2.7 1.7l0.7-0.7c0.1-1.1 0.3-2.2-0.7-3-1 0.4-2 0.9-2.7 2zm82.9 6.9c1.6-0.2 2.9-1 4.1-1.8 0.7-0.5 1.5-0.8 1.8-1.7-0.6-0.5-1.1-0.1-1.6 0.1-1.6 0.6-3.2 1.4-4.3 2.7zm-121.1-1.4c-1.1-1.3-2.1-2.4-3.6-3.2-0.3 0-0.7 0.1-1 0.1v0.6c1.2 1.1 2.1 2.6 3.9 3 0.3-0.1 0.4-0.3 0.7-0.5zm-2-3.4c0.9 1.8 2.5 2.7 4 3.7 0.2-0.2 0.4-0.4 0.5-0.6-0.8-1.5-2.3-2.8-4-3.4-0.1 0-0.2 0.1-0.5 0.3zm140.7 11.7c1.1 0.4 2.1 0.8 3.3 0.6 0.1-0.5 0.2-1 0-1.6-1-0.2-2-0.9-3.2-0.5-0.1 0.6-0.1 1-0.1 1.5zm-130.6-10.5c-0.6-1.2-1.6-2.1-2.9-2.8-0.4-0.2-0.8-0.3-1.2-0.1 0 0.2 0 0.4 0.1 0.5 0.9 1.3 2.2 2 3.5 2.8 0.1-0.1 0.3-0.2 0.5-0.4zm-3 0.8c-0.1-0.3-0.2-0.6-0.3-0.8-0.9-1.1-1.9-2-3.3-2.5-0.2 0.1-0.3 0.1-0.4 0.2l-0.2 0.2c0.8 1.4 2.2 2.1 3.4 3 0.3 0 0.5 0 0.8-0.1zm112.4 1.2c0.5 0.1 0.9 0.1 1.2 0.1s0.6-0.1 0.8-0.2c0.7-0.4 1.4-0.8 1.9-1.4 0.3-0.3 0.7-0.5 0.7-1-0.7-0.4-1.2 0-1.8 0.2-1.1 0.4-2 1.1-2.8 2.3zm25.7 6.2c1.1 0.3 2.1 0.6 3.1 0.4 0.3-0.5 0.5-0.9 0.1-1.4-1.1-0.5-1.4-0.6-2.9-0.3-0.1 0.3-0.2 0.8-0.3 1.3zm-135.9-12c-0.2 0-0.5 0-0.8 0.1 0.1 0.3 0.1 0.6 0.2 0.7 0.8 1 1.8 1.8 3 2.3l0.5-0.5c-0.8-1.2-1.7-2-2.9-2.6zm5.2 2.3c-0.1-0.3-0.2-0.7-0.4-0.9-0.6-0.6-1.3-1.2-2-1.7-0.2-0.1-0.4-0.2-0.7-0.3-0.2 0.2-0.3 0.4-0.4 0.6 0.9 1 1.8 1.9 2.9 2.5 0.2-0.1 0.4-0.1 0.6-0.2zm133.5 11.8c-0.8-0.1-1.5-0.6-2.4-0.4 0 0.3-0.1 0.5-0.1 0.7 0 0.3 0.1 0.5 0.1 0.8 0.4 0.1 0.7 0.3 1 0.3 0.4 0.1 0.8 0 1.1 0 0.1 0 0.1-0.1 0.3-0.2zm-170.7-1.6c-0.6 0.1-1.3-0.1-2 0.2 0 0.6-0.2 1.2 0.3 1.7 0.5-0.1 1-0.1 1.5-0.2 0.2 0 0.4-0.2 0.6-0.3 0.1-0.6 0.1-1.1-0.4-1.4zm159.2 1.2c0.7 0.6 1.6 0.4 2.3 0.7 0.3-0.5 0.6-0.8 0.2-1.4-0.7-0.3-1.4-0.7-2.2-0.5-0.2 0.3-0.3 0.7-0.3 1.2zm-148.6-3.3c-0.9 0.1-1.7-0.1-2.4 0.2-0.1 0.6 0 1.1 0.4 1.5 0.6 0 1.3 0 2-0.1zm147.3 3.1c0.5-0.5 0.4-1 0.3-1.5-0.7-0.2-1.4-0.6-2.1-0.3-0.4 0.3-0.4 0.7-0.3 1.2 0.6 0.4 1.4 0.4 2.1 0.6zm20.5 1.3h-2.1c-0.1 0-0.1 0.1-0.3 0.2v0.9c0 0.1 0.1 0.1 0.2 0.3 0.7-0.1 1.4 0.5 2.2 0.1zm-3.9-0.2c-0.8-0.2-1.5-0.2-2.3-0.1v0.9c0 0.1 0.1 0.3 0.1 0.4 0.8 0.1 1.5 0.6 2.2 0.1 0.3-0.4 0.3-0.8 0-1.3zm11.5-0.5c0.8 0 1.5 0.1 2.2 0 0.2-0.7 0.2-0.7 0-1.4-0.6-0.1-1.3-0.2-1.8-0.3-0.4 0.6-0.6 1-0.4 1.7zm-9.8-2.7c-0.1 0.6-0.1 1.1 0.1 1.6 0.8 0 1.5 0.1 2.2 0 0.1-0.5 0.1-1 0-1.3-0.7-0.1-1.5-0.2-2.3-0.3zm-169.2 1.2c0-0.6 0.2-1.1-0.2-1.6-0.7 0.1-1.4-0.2-2.1 0.4 0 0.4 0.1 0.8 0.1 1.2 0.8 0.2 1.4 0.1 2.2 0zm175.1-0.2c-0.1-0.1-0.2-0.2-0.3-0.4h-1.7c-0.1 0-0.2 0.1-0.4 0.2v0.7c0 0.1 0 0.3 0.1 0.4 1.4 0.5 1.8 0.5 2.2 0.3-0.1-0.5 0-0.9 0.1-1.2zm2.8 1.5c0.2-0.6 0.5-1 0.2-1.6-0.3 0-0.7-0.1-1-0.1h-1.3v1.3c0.7 0.1 1.3 0.2 2.1 0.4zm-183.5-1.9c-0.1 0.6-0.1 1 0.5 1.4 0.5-0.2 1.3 0.2 1.9-0.4-0.1-0.4-0.2-0.9-0.4-1.2-0.7-0.3-1.3 0-2 0.2zm181.5 3.3h-2.2c-0.1 0-0.1 0.1-0.2 0.2-0.1 0.4-0.2 0.8 0.2 1.2 0.7 0 1.4 0.1 2.2-0.1zm-188.1-0.4c0.9 0.2 1.5 0 2.2-0.3 0-0.4 0-0.8-0.1-1.3-0.8 0-1.5-0.1-2.2 0.1zm179.9-2.5c0.1-0.6 0.2-0.9-0.1-1.4-0.7-0.1-1.4-0.1-2.2 0v1.4c0.7 0.1 1.4 0.1 2.3 0zm-160.3 0.4c-0.1-0.3-0.2-0.6-0.4-0.8h-1.8c-0.1 0.2-0.3 0.5-0.3 0.7s0.2 0.4 0.3 0.6c0.7 0 1.2 0.1 1.8-0.1zm-13.7 2.2c-0.8 0-1.5-0.1-2.2 0.1-0.1 0.5-0.2 0.9 0.2 1.2 0.7-0.1 1.4 0.2 2-0.4zm23.2-6.3c-0.8 0.2-1.6-0.2-2.3 0.4 0.2 0.3 0.3 0.6 0.5 1h1.3c0.1 0 0.3-0.1 0.4-0.1 0.4-0.3 0.3-0.7 0.1-1.3zm-21.9 6.8c0.9 0.1 1.6 0.1 2.2-0.5-0.1-0.3-0.1-0.6-0.2-0.9-0.8 0.1-1.5-0.2-2.1 0.5 0 0.3 0 0.6 0.1 0.9zm16.4-4.5c0.8 0.5 1.5 0.3 2.3-0.2-0.1-0.3-0.2-0.6-0.2-0.9-0.8-0.1-1.5-0.1-2.1 0.4zm20.8-10.2c-0.7-1-1.5-1.6-2.4-2h-0.2l-0.2 0.2c0.5 0.9 1.4 1.4 2.3 2 0.1 0 0.2 0 0.5-0.2zm-41.6 15.1h-1.8c-0.2 0-0.4 0.2-0.6 0.3 0.2 0.3 0.3 0.6 0.4 0.8 0.7-0.1 1.4 0.1 2-0.2zm9.6-2.3c-0.7 0-1.3-0.1-1.9 0.1-0.1 0-0.2 0.2-0.3 0.2-0.1 0.4 0 0.8 0.4 1l1.8-0.3zm10.4-1.5c-0.1-0.5-0.2-0.8-0.2-1.1-0.7 0-1.4-0.1-2.1 0.1 0 0.3 0.1 0.6 0.1 0.9 0 0.1 2.2 0.1 2.2 0.1zm9.9-4.4h-1.9c-0.1 0.2-0.2 0.3-0.4 0.5 0.2 0.2 0.3 0.4 0.4 0.5 0.6 0 1.2 0.1 1.9-0.1l0.3-0.6zm-19.1 5.4c0.1 0.2 0.1 0.4 0.1 0.6 0 0 0.1 0.1 0.2 0.1 0.6 0 1.3 0.1 2.1-0.1-0.1-0.3-0.1-0.6-0.2-1-0.8 0.1-1.5-0.2-2.2 0.4zm30.7-14.5c0.6 0.3 1 0.5 1.5 0.8h1c0.3 0 0.6 0.1 1-0.2-1.1-0.7-2.2-0.8-3.5-0.6zm-6.9 7.6c0.5-0.1 0.9 0.1 1.3-0.3-0.1-0.2-0.1-0.5-0.2-0.9-0.5 0.1-0.9 0.1-1.3 0.1-0.1 0-0.1 0.1-0.2 0.3 0.1 0.2 0.2 0.5 0.4 0.8zm-1.8 1.1c-0.1-0.4-0.1-0.7-0.2-1.1-0.4 0.1-0.8 0.1-1.1 0.2-0.2 0.4-0.2 0.6 0 0.9z"/>





<path class="st5" d="m119.3 129.9c0.7-1.1 1.7-1.6 2.8-2 0.9 0.8 0.7 1.9 0.7 3l-0.7 0.7c-1.2-0.1-2.1-0.7-2.8-1.7z"/>









<path class="st5" d="m174.1 131.3c-0.0422-0.94531-0.30781-1.525 0.11875-2.8922 0.9 0.2 1.5266 0.32657 2.1531 1.0844 0.8012 0.47641 0.0864 0.0213 0.87499 0.57656 0.9 0.4 1.6859 1.0312 2.2859 1.9312-0.5 0.6-1.3172 0.79375-2.0172 0.99375s-1.4141 0.21406-2.1141 0.31406c-0.3 0-0.60156-0.10781-1.0016-0.10781-0.1-0.6-0.5-1.2-0.3-1.9z"/>




<path class="st5" d="m181.6 141c2.1272 1.8183 0.11846 1.6239 2.4215 1.7552-0.3 0.7-0.71162 1.2768-1.4116 1.5768-0.3-0.1-0.85411-0.32153-1.0541-0.42153-0.5-0.4-0.45581-1.6105 0.0442-2.9105z"/>




























































































<path class="st3" d="m244.5 148.7c0.1-0.1 0.1-0.2 0.1-0.3 0.1 0.1 0.1 0.1 0.2 0.1-0.1 0.1-0.2 0.2-0.3 0.2z"/>

<path class="st4" d="m249.4 41.8 0.3-0.3-0.3 0.3z"/>





<path class="st0" d="m160.4 203.6c0-0.1 0-0.1 0.1-0.2 0.1 0 0.1 0.1 0.1 0.1-0.1 0-0.2 0-0.2 0.1z"/>

<path class="st0" d="m53.092 139.2c0.0974 0.0909 0.0974 0.18177 0.19479 0.27266-0.09739 0-0.30807-0.0714-0.40547-0.0714 0-0.0909 0.21068-0.11043 0.21068-0.2013z" style="stroke-width:.94085"/>
<path class="st0" d="m57.503 137.15c0.1 0.1 0.49688 0.55156 0.49688 0.65156-0.1 0.2-0.41328 0.26797-0.51328 0.16797 0.1-0.1-0.08359-0.71953 0.01641-0.81953z"/>
<path class="st0" d="m68.2 156.6c0.14297 0.0805 0.2 0.1 0.4 0.3-0.2 0-0.29609 0.51406-0.39609 0.51406z"/>

<path class="st0" d="m68 136.2c0.1 0 0.1 0.1 0.2 0.1-0.1 0-0.1 0.1-0.1 0.1-0.1-0.1-0.1-0.1-0.1-0.2z"/>
<path class="st0" d="m69 137.4c-0.1-0.1-0.1-0.2-0.2-0.3 0.1 0.1 0.2 0.1 0.3 0.1 0 0.1 0 0.1-0.1 0.2z"/>
</svg>
