<?xml version="1.0" encoding="UTF-8"?>
<!-- Created with Inkscape (http://www.inkscape.org/) -->
<svg width="823" height="1039" version="1.1" viewBox="0 0 823 1039" xmlns="http://www.w3.org/2000/svg">
 <g stroke="#000" stroke-width="4.5">
  <path d="m403.76 1005.8c-5.9997-8.9845-14.215-16.475-23.703-21.642-10.499-5.7174-22.542-8.5675-34.491-8.1625l138.37-1e-5c-11.948-0.40496-23.991 2.4451-34.491 8.1626-9.4881 5.1667-17.703 12.657-23.703 21.642-6.209 9.298-10.028 20.178-10.992 31.317-0.96397-11.139-4.7827-22.019-10.992-31.317z" fill="none" stroke-linejoin="round"/>
  <path d="m403.76 1005.8c-5.9997-8.9845-14.215-16.475-23.703-21.642-10.499-5.7174-22.542-8.5675-34.491-8.1625h-274.76c-17.323 0.23022-34.641-6.4982-47.265-18.363-12.848-12.076-20.675-29.339-21.292-46.961v-908.38c137.5-7.5e-6 275-1.25e-5 412.5-1.5e-5 135.58-2.4e-6 271.15-2.4e-6 406.73 0v908.38c-0.61678 17.622-8.4438 34.885-21.292 46.961-12.624 11.865-29.942 18.594-47.265 18.363l-268.99 2e-5c-11.948-0.40496-23.991 2.4451-34.491 8.1626-9.4881 5.1667-17.703 12.657-23.703 21.642-6.209 9.298-10.028 20.178-10.992 31.317-0.96397-11.139-4.7827-22.019-10.992-31.317z" fill="#430036"/>
 </g>
 <g transform="translate(-546.66 -16.551)" stroke="#000">
  <path transform="matrix(1.0048 .050083 -.050083 1.0048 18.887 -50.741)" d="m1033.1 772.9-13.56-10.336-8.7246 14.649-12.797-11.267-9.7361 13.997-11.971-12.141-10.699 13.276-11.085-12.956-11.609 12.488-10.143-13.705-12.461 11.638-9.151-14.387-13.251 10.73-8.1134-14.996-13.975 9.7684-7.0354-15.531-14.629 8.7583-5.9223-15.989-15.21 7.7046-4.7798-16.367-15.716 6.6125-3.6134-16.663-16.143 5.4874-2.429-16.876-16.49 4.335-1.2325-17.006-16.755 3.161-0.0298-17.05-16.936 1.9713 1.173-17.01-17.033 0.77172 2.3699-16.885-17.045-0.43168 3.555-16.676-16.972-1.6329 4.7224-16.383-16.815-2.826 5.8664-16.009-16.573-4.0051 6.981-15.556-16.249-5.1642 8.0609-15.025-15.845-6.2975 9.1006-14.418-15.361-7.3995 10.095-13.741-14.801-8.4646 11.039-12.994-14.167-9.4876 11.928-12.183-13.462-10.463 12.758-11.311-12.691-11.387 13.524-10.383-11.856-12.254 14.223-9.4035-10.962-13.059 14.851-8.3768-10.014-13.8 15.405-7.3084-9.0151-14.472 15.882-6.2036-7.9718-15.072 16.28-5.0679-6.8888-15.597 16.597-3.9069-5.7714-16.044 16.831-2.7264-4.6254-16.411 16.981-1.5324-3.4562-16.696 17.047-0.33074-2.2699-16.899 17.028 0.87257-1.0722-17.017 16.924 2.0715 0.1308-17.05 16.736 3.2602 1.3332-16.998 16.464 4.4326 2.5289-16.862 16.11 5.5829 3.712-16.641 15.676 6.7054 4.8766-16.338 15.164 7.7945 6.0169-15.953 14.577 8.8448 7.1273-15.489 13.917 9.851 8.2021-14.948 13.187 10.808 9.2361-14.332 12.392 11.711 10.224-13.645 11.535 12.556 11.161-12.89 10.62 13.339 12.042-12.07 9.6531 14.055 12.864-11.191 8.6376 14.701 13.621-10.255 7.5791 15.273 14.311-9.2691 6.4829 15.77 14.929-8.2366 5.3544 16.188 15.473-7.163 4.1992 16.525 15.939-6.0537 3.0231 16.78 16.327-4.9143 1.8318 16.952 16.633-3.7504 0.6316 17.039 16.856-2.5678-0.5719 17.041 16.995-1.3724-1.7726 16.958 17.05-0.17013-2.9643 16.791 17.019 1.033-4.1413 16.54 16.904 2.2309-5.2977 16.206 16.704 3.4177-6.4277 15.792 16.422 4.5875-7.5257 15.3 16.057 5.7344-8.5861 14.731 15.613 6.8528-9.6038 14.088 15.09 7.937-10.574 13.376 14.493 8.9817-11.491 12.597 13.823 9.9816-12.351 11.755 13.085 10.932-13.149 10.854 12.281 11.828-13.882 9.8996 11.416 12.664-14.546 8.8957 10.494 13.438-15.137 7.8475 9.5203 14.145-15.653 6.7602 8.4987 14.781-16.091 5.6392 7.435 15.344-16.448 4.4902 6.334 15.83-16.724 3.3187 5.2016 16.238-16.917 2.1308 4.0433 16.564-17.025 0.93216 2.8649 16.808-17.048-0.27108 1.672 16.968-16.987-1.473 0.471 17.044-16.84-2.6675-0.7324 17.035-16.61-3.8488-1.9322 16.941-16.297-5.0109-3.1223 16.762-15.903-6.148-4.2969 16.5-15.43-7.2545-5.4502 16.156-14.88-8.3248-6.5762 15.731-14.256-9.3537z" fill="#dedede" stroke-linecap="round" stroke-width="1.491"/>
  <path d="m972.89 782.46-22.495-633.67m32.979 620.09-44.844-632.48m57.139 644.44-67.137-630.5m76.637 616.22-89.346-627.74m102.45 638.8-111.44-624.2m119.91 609.28-133.4-619.87m147.26 629.99-155.2-614.78m162.59 599.3-176.8-608.92m191.33 618.03-198.18-602.3m204.46 586.34-219.31-594.93m234.45 602.99-240.17-586.82m245.31 570.46-260.73-577.98m276.4 584.95-280.96-568.42m284.94 551.73-300.85-558.15m316.97 564-320.36-547.18m323.15 530.26-339.47-535.54m355.97 540.24-358.16-523.22m359.75 506.14-376.4-510.26m393.19 513.78-394.17-496.65m394.56 479.51-411.46-482.43m428.45 484.77-428.23-467.61m427.4 450.48-444.46-452.21m461.58 453.34-460.14-436.24m458.11 419.21-475.25-419.73m492.41 419.65-489.77-402.7m486.54 385.85-503.68-385.16m520.78 383.87-516.96-367.15m512.54 350.57-529.59-348.67m546.56 346.18-541.57-329.77m535.99 313.54-552.87-310.45m569.62 306.76-563.48-290.74m556.78 274.95-573.39-270.68m589.84 265.81-582.58-250.27m574.78 234.99-591.05-229.56m607.12 223.55-598.79-208.55m589.93 193.86-605.77-187.29m621.38 180.16-612.01-165.8m602.13 151.77-617.48-144.09m632.54 135.88-622.18-122.21m611.34 108.92-626.1-100.18m640.55 90.927-629.25-78.02m617.5 65.521-631.61-55.765m645.37 45.517-633.18-33.439m620.58 21.8-633.97-11.073m646.97-0.12013-633.97 11.308m620.58-22.03-633.17 33.675m645.35-45.756-631.59 55.999m617.48-65.75-629.22 78.254m640.51-91.165-626.06 100.41m611.3-109.14-622.13 122.44m632.49-136.12-617.42 144.32m602.08-151.99-611.94 166.02m621.31-180.39-605.7 187.52m589.86-194.08-598.71 208.78m607.04-223.77-590.97 229.77m574.7-235.21-582.49 250.49m589.74-266.03-573.29 270.89m556.67-275.16-563.37 290.95m569.51-306.97-552.75 310.65m535.88-313.74-541.44 329.97m546.43-346.38-529.46 348.87m512.41-350.76-516.82 367.34m520.64-384.06-503.53 385.35m486.39-386.03-489.62 402.88m492.25-419.83-475.1 419.91m457.95-419.38-459.98 436.41m461.41-453.51-444.29 452.37m427.23-450.64-428.05 467.77m428.27-484.92-411.28 482.59m394.38-479.65-393.99 496.8m393-513.93-376.21 510.4m359.56-506.28-357.97 523.36m355.77-540.37-339.27 535.66m322.95-530.38-320.16 547.3m316.76-564.12-300.64 558.26m284.74-551.84-280.75 568.52m276.18-585.06-260.51 578.08m245.1-570.55-239.95 586.91m234.23-603.08-219.09 595.01m204.24-586.42-197.95 602.37m191.1-618.1-176.57 608.98m162.37-599.36-154.97 614.84m147.03-630.04-133.17 619.92m119.69-609.32-111.21 624.24m102.22-638.84-89.113 627.77m76.408-616.25-66.903 630.53m56.899-644.46-44.609 632.49m32.749-620.1-22.259 633.68m11.416-12.804-0.11774-634.07" fill="none" stroke-width="1.5"/>
 </g>
 <path d="m671.95 442.47a257.2 257.2 0 0 1-257.2 257.2 257.2 257.2 0 0 1-257.2-257.2 257.2 257.2 0 0 1 257.2-257.2 257.2 257.2 0 0 1 257.2 257.2z" fill="#a7d4f3" stroke="#000" stroke-linecap="round" style="paint-order:normal"/>
 <path d="m615.2 442.47a200.45 200.45 0 0 1-200.45 200.45 200.45 200.45 0 0 1-200.45-200.45 200.45 200.45 0 0 1 200.45-200.45 200.45 200.45 0 0 1 200.45 200.45z" fill="none" stroke="#f51c05" stroke-linecap="round" stroke-width="9.0515" style="paint-order:normal"/>
 <path d="m358.41 388.32c-2.0586-0.9999-4.3749-1.4635-6.6597-1.333-1.7231 0.0984-3.4091 0.52598-5.1197 0.75537-0.53391 0.0716-1.0963 0.12051-1.5947-0.0839-0.35366-0.14505-0.64983-0.4109-0.86943-0.72377-0.21959-0.31288-0.36648-0.67177-0.47344-1.0388-0.26506-0.90937-0.29073-1.8874-0.0737-2.8094 0.21698-0.92202 0.67611-1.7859 1.3189-2.4816-0.63874-1.2479-1.5843-2.3374-2.73-3.1454-0.99218-0.69975-2.1325-1.1884-3.3234-1.4243-0.0298-0.44166-0.17424-0.8751-0.41543-1.2463-0.27963-0.43035-0.68292-0.77107-1.1278-1.027-0.44484-0.25596-0.93165-0.43106-1.4242-0.57533-1.2186-0.35697-2.4819-0.53153-3.7389-0.71217-0.44366-0.0638-0.88916-0.12885-1.3181-0.25892-0.42893-0.13006-0.84391-0.32862-1.1745-0.63129-0.3367-0.30827-0.57424-0.71501-0.72196-1.147s-0.20895-0.88949-0.2276-1.3456c-0.0876-2.1434 0.79993-4.3078 2.3672-5.7727l-13.05-11.201c-0.69192 2.189-1.9259 4.2044-3.5608 5.816-0.60171 0.59311-1.2603 1.1348-1.9964 1.5496s-1.5529 0.70058-2.3953 0.76497c-1.3798 0.10546-2.7278-0.37872-4.0356-0.83086-2.0102-0.69496-4.0404-1.3308-6.0534-2.0178-1.838-0.62728-3.6706-1.2997-5.5786-1.6617-2.4565-0.46613-4.9774-0.40704-7.4777-0.41543-1.4781-5e-3 -2.9797-0.0377-4.3917-0.47478-1.6304-0.50471-3.0608-1.5285-4.273-2.73-1.1241-1.1142-2.0822-2.3887-2.908-3.7389-0.23233-0.37982-0.45691-0.7692-0.75935-1.096-0.30243-0.32678-0.69615-0.59073-1.138-0.64554-0.27034-0.0335-0.54748 0.013-0.8007 0.11343s-0.48343 0.25342-0.68905 0.43211c-0.64408 0.55972-1.0512 1.3659-1.7415 1.8674-0.49679 0.36096-1.1139 0.538-1.7278 0.55442-0.61386 0.0164-1.2251-0.12158-1.7973-0.3446-1.1575-0.45117-2.1493-1.2359-3.2313-1.8464-0.59401-0.3352-1.2494-0.6253-1.9304-0.58751-0.54664 0.0303-1.0633 0.27205-1.5107 0.58751-0.4253 0.29985-0.79917 0.66711-1.2189 0.97468s-0.90481 0.5597-1.4249 0.57802c-0.43857 0.0154-0.86837-0.1373-1.2528-0.34888-0.38448-0.21158-0.73296-0.48173-1.0972-0.72651-0.55707-0.37438-1.1583-0.69255-1.8045-0.874-0.54992-0.15442-1.1306-0.20755-1.6966-0.13055-0.56598 0.077-1.1165 0.28611-1.5766 0.62455-0.50288 0.3699-0.88518 0.88153-1.2008 1.4202-0.29623 0.50562-0.54295 1.0503-0.62947 1.6299-0.12524 0.83892 0.0913 1.693 0.0417 2.5398-0.0402 0.68644-0.25487 1.3682-0.16786 2.0503 0.0916 0.71781 0.50606 1.35 0.72297 2.0404 0.16555 0.52688 0.21439 1.0844 0.20983 1.6366-6e-3 0.67255-0.0882 1.3516 0.0301 2.0136 0.16686 0.93368 0.72208 1.7561 1.3713 2.4476 0.26587 0.28319 0.54953 0.54966 0.84877 0.79733-1.4846 0.42552-2.7792 1.4756-3.502 2.8403-0.40873 0.77177-0.6394 1.6456-0.604 2.5182 0.0421 1.037 0.4557 2.0332 1.0331 2.8956 0.3682 0.54995 0.81421 1.0762 0.96519 1.7206 0.10754 0.45899 0.0524 0.94983-0.12649 1.386-0.1789 0.43616-0.47778 0.8184-0.8387 1.1217-0.24563 0.2064-0.51897 0.37705-0.77443 0.57115s-0.49735 0.41712-0.65237 0.69802c-0.15513 0.28109-0.21476 0.60431-0.25179 0.92322-0.12918 1.1125-0.0104 2.2396-0.0839 3.3572-0.19491 2.9619-1.7084 5.6469-3.0215 8.309-0.0763 0.15465-0.15243 0.31033-0.25185 0.45122-0.0994 0.14089-0.2241 0.2676-0.37762 0.34612-0.20638 0.10555-0.45051 0.11645-0.67904 0.0777-0.22854-0.0388-0.44613-0.12396-0.66383-0.20358-2.0899-0.76438-4.3246-1.0525-6.5465-1.175-0.22899-0.0126-0.46532-0.0253-0.67144-0.1259-0.20018-0.0977-0.35389-0.27012-0.48207-0.45227-0.12819-0.18216-0.23659-0.37843-0.3767-0.55158-0.19975-0.24686-0.45983-0.44064-0.74117-0.58791-0.28134-0.14726-0.58422-0.24952-0.89088-0.33197-0.89647-0.24102-1.8315-0.31604-2.7596-0.29674-2.9708 0.0618-5.8372 1.0721-8.5757 2.2255-0.48861 0.2058-0.97664 0.41708-1.4857 0.56513-0.50909 0.14805-1.0433 0.23193-1.5706 0.17671-0.50622-0.053-0.99169-0.23244-1.4493-0.45529s-0.89218-0.48977-1.34-0.73165c-1.2458-0.67284-2.5935-1.1502-3.9764-1.454-1.7268-0.37938-3.528-0.48821-5.2656-0.16221-0.50224 0.0942-1.0004 0.22465-1.5107 0.25179-0.70027 0.0372-1.397-0.12135-2.0982-0.1259-1.0857-7e-3 -2.1458 0.35432-3.2313 0.37768-0.91088 0.0196-1.824-0.19931-2.7277-0.0839-0.89299 0.11404-1.709 0.5451-2.5598 0.83929-0.8422 0.29121-1.7468 0.45036-2.6282 0.31921-1.0772-0.16029-2.052-0.73995-3.121-0.94868-1.2076-0.23581-2.4846 0.0245-3.567 0.60968-1.6011 0.86566-2.7582 2.3751-4.2804 3.373-0.65286 0.42798-1.366 0.75713-2.023 1.1788-0.65694 0.42169-1.2723 0.95742-1.6016 1.6652-0.13034 0.28007-0.21289 0.58159-0.2518 0.88804-0.11517 0.90714 0.16894 1.8578 0.76299 2.553-0.55777-0.0617-1.1262-0.0254-1.6716 0.1067-0.75658 0.18325-1.4594 0.54702-2.1068 0.97923-1.6163 1.079-2.9121 2.587-3.9467 4.232-0.50661 0.80546-0.96701 1.6898-0.983 2.6412-0.0111 0.65739 0.19301 1.3016 0.46746 1.8991 0.14057 0.306 0.30297 0.61364 0.32641 0.94956 0.0163 0.2335-0.0364 0.46711-0.1145 0.68777s-0.18141 0.4314-0.27126 0.64754c-0.4621 1.1116-0.5544 2.3877-0.17804 3.5312 0.41119 1.2493 1.3293 2.2549 2.2069 3.2344 2.5715 2.87 5.004 5.8644 7.2864 8.9693-0.0838 2.0898-0.0159 4.1858 0.20315 6.2658 0.0244 0.23193 0.0508 0.46542 0.0314 0.69783s-0.0879 0.46673-0.23453 0.64811c-0.15705 0.19431-0.38961 0.31223-0.62474 0.3967-0.23513 0.0845-0.48043 0.14151-0.70832 0.24392-0.30263 0.13599-0.56529 0.34805-0.80212 0.5804-0.23684 0.23235-0.45102 0.48664-0.68156 0.72524-0.657 0.67997-1.4383 1.2243-2.1771 1.8145-0.65808 0.52571-1.2863 1.0915-1.8464 1.7206-0.78786 0.88481-1.4372 1.8903-2.2721 2.7309-0.67065 0.67522-1.4559 1.2363-2.312 1.652 0.38563 0.78612 0.81484 1.5509 1.285 2.2895 0.65512 1.0293 1.4023 2.0207 2.3671 2.7675 0.3901 0.3019 0.81285 0.56147 1.1869 0.883 0.29512 0.25365 0.55684 0.54321 0.83086 0.81952 1.1232 1.1326 2.4657 2.0491 3.9361 2.6675 0.29203 0.12281 0.6005 0.24179 0.81171 0.47792 0.12302 0.13753 0.20572 0.30889 0.24797 0.48852 0.0422 0.17962 0.0449 0.36735 0.0191 0.55006-0.0663 0.46922-0.31566 0.89508-0.61745 1.2604-0.3018 0.36535-0.65807 0.68133-0.98492 1.0244-0.79112 0.83047-1.4082 1.818-2.2322 2.6158-0.88727 0.85905-2.0097 1.4948-2.7013 2.5179-0.11591 0.17146-0.21857 0.35272-0.29375 0.54554-0.14906 0.38228-0.18603 0.79729-0.23272 1.2049-0.0467 0.40764-0.10739 0.82331-0.29724 1.1871-0.19525 0.3741-0.51359 0.66755-0.75537 1.0134-0.16795 0.24025-0.29937 0.50785-0.36995 0.79237-0.0706 0.28451-0.079 0.5863-8e-3 0.87063 0.0968 0.3857 0.33572 0.72431 0.62502 0.99712 0.28931 0.27281 0.62878 0.48601 0.96964 0.69081 0.43957 0.26411 0.89257 0.52288 1.2432 0.89707 0.37387 0.39895 0.60858 0.90451 0.89697 1.369 0.3875 0.62416 0.88737 1.1894 1.5107 1.5782 0.46588 0.29056 0.98853 0.47613 1.5107 0.64577 1.0763 0.34965 2.202 0.65694 3.0896 1.359 0.51968 0.41105 0.94202 0.95475 1.165 1.5787 0.13192 0.36914 0.19294 0.75925 0.2928 1.1383 0.0999 0.37907 0.24542 0.7585 0.5142 1.0438 0.27566 0.29266 0.65713 0.46138 1.039 0.58714 0.92237 0.30375 1.9129 0.39859 2.8761 0.27538 0.32698 0.48401 0.70167 0.93578 1.1169 1.3466 0.47336 0.46838 0.9994 0.88349 1.565 1.235-0.52836 0.96583-0.84446 2.0471-0.91955 3.1454-0.038 0.55591-0.0146 1.1188 0.10873 1.6621 0.12331 0.5434 0.34875 1.0676 0.69027 1.5079 0.2363 0.30464 0.52386 0.56479 0.79773 0.83616 0.27387 0.27136 0.53861 0.56 0.71531 0.90266 0.2216 0.42974 0.2922 0.91843 0.41965 1.3848 0.28257 1.0341 0.87987 2.0029 1.7625 2.6113 0.82429 0.56812 1.8532 0.79361 2.8536 0.75536 0.76299-0.0292 1.5119-0.20301 2.2658-0.32375 0.75393-0.12073 1.5336-0.18754 2.2749-5e-3 0.46817 0.11531 0.90652 0.32663 1.364 0.479 0.45294 0.15087 0.92382 0.24368 1.3751 0.39954s0.89293 0.38404 1.199 0.75046c0.28598 0.34241 0.43142 0.77674 0.63072 1.1759 0.6689 1.3396 1.9292 2.2616 3.0184 3.289 0.2908 0.2743 0.57659 0.56568 0.75537 0.92323 0.19311 0.38619 0.24943 0.82716 0.25179 1.2589 5e-3 0.93102-0.22633 1.8605-0.1259 2.7862 0.0876 0.80769 0.44249 1.5959 1.0396 2.1468 0.62601 0.57746 1.4632 0.86092 2.2837 1.0894 0.82044 0.22854 1.6671 0.4243 2.3913 0.87255 0.76613 0.47422 1.3417 1.1984 2.0475 1.7585 1.4471 1.1483 3.4613 1.5426 5.2345 1.0245 0.1988 0.71913 0.52846 1.4019 0.968 2.0047 0.53426 0.7328 1.2336 1.348 2.0402 1.7625 0.72339 0.37182 1.5246 0.57974 2.3339 0.66174 0.86251 0.0874 1.7402 0.0335 2.5827-0.171 0.53999-0.13108 1.0687-0.32546 1.539-0.62134 0.47035-0.29587 0.8814-0.69712 1.1443-1.1867 0.32472-0.60463 0.40851-1.3345 0.22925-1.997 0.53727 0.0545 1.0862-9e-3 1.5968-0.185 0.79241-0.27295 1.4769-0.80946 2.0143-1.4526 0.22079-0.26422 0.41906-0.54718 0.64979-0.80277 0.23072-0.2556 0.4994-0.48647 0.81898-0.61465 0.32373-0.12984 0.6854-0.14726 1.0294-0.0899 0.34404 0.0574 0.67251 0.18669 0.98487 0.34189 0.82639 0.41061 1.548 1.0009 2.3267 1.496 0.77872 0.4951 1.6573 0.90525 2.5799 0.88645 0.93391-0.019 1.7947-0.47064 2.653-0.8393 0.34426-0.14787 0.69533-0.28428 1.0609-0.36643 0.36556-0.0822 0.74769-0.10883 1.1154-0.0367 0.67385 0.13226 1.2601 0.60074 1.5947 1.2004 0.20706 0.37114 0.32303 0.78468 0.44913 1.1905 0.12609 0.40585 0.2674 0.81485 0.51606 1.1595 0.28372 0.39324 0.69604 0.68274 1.1442 0.86791 0.44815 0.18517 0.93211 0.27076 1.4156 0.30711 0.29303 0.022 0.58826 0.0266 0.87772 0.0772 0.28946 0.0507 0.57763 0.15132 0.80087 0.34242 0.17285 0.14796 0.2998 0.34468 0.38557 0.55543 0.0858 0.21075 0.13192 0.43575 0.15998 0.66155 0.0437 0.35188 0.0445 0.70755 0.0697 1.0612s0.0761 0.71038 0.21408 1.037c0.15713 0.37187 0.42186 0.69047 0.72361 0.95866 0.30632 0.27225 0.65635 0.499 1.0408 0.64091 0.38447 0.14191 0.80431 0.19691 1.2088 0.13109 0.59472-0.0968 1.125-0.44846 1.5371-0.888 0.41867-0.4465 0.73571-0.99778 0.85552-1.598 0.11528-0.57756 0.0465-1.1742 0.0733-1.7625 0.0116-0.2541 0.0412-0.5079 0.1-0.75536 0.0426-0.17907 0.10086-0.35562 0.19035-0.51646 0.0895-0.16084 0.21142-0.30593 0.3654-0.40677 0.20777-0.13607 0.4658-0.1849 0.713-0.16094 0.24721 0.024 0.48419 0.1172 0.69725 0.24484 0.41886 0.25093 0.75328 0.63983 0.93977 1.0911 0.13784 0.33355 0.19521 0.69389 0.29306 1.0413 0.0979 0.34739 0.24632 0.6966 0.5207 0.93106 0.16974 0.14505 0.37935 0.23805 0.59567 0.29331 0.21633 0.0553 0.44022 0.0743 0.66327 0.0844 0.54092 0.0243 1.0849-3e-3 1.6226 0.0603 0.53773 0.0635 1.0818 0.22789 1.4889 0.58483 0.23859 0.20916 0.42149 0.47762 0.55005 0.7677s0.20409 0.6017 0.24572 0.91625c0.0339 0.25611 0.0459 0.51592 0.10523 0.76735 0.0593 0.25143 0.17218 0.49989 0.37073 0.66517 0.20767 0.17287 0.48871 0.23924 0.69356 0.41543 0.1053 0.0906 0.18603 0.20679 0.25066 0.32972 0.0646 0.12294 0.11403 0.25316 0.16477 0.38245 0.13296 0.33882 0.27967 0.67938 0.51513 0.95693 0.31673 0.37334 0.77396 0.60562 1.2463 0.73447 0.75203 0.20515 1.5808 0.16142 2.2808-0.18147 0.3379-0.16551 0.63961-0.39521 0.96149-0.59005 0.2698-0.16331 0.5562-0.30305 0.86054-0.38575 0.67132-0.18242 1.4099-0.0712 2.0178 0.26706 0.5611 0.31223 1.0026 0.79774 1.5134 1.1869 0.82425 0.62812 1.8427 1.0022 2.8783 1.0386 0.46362 0.0163 0.92686-0.0333 1.3906-0.0434 0.4638-0.0101 0.93751 0.0214 1.369 0.19176 0.33363 0.13173 0.62995 0.34161 0.94955 0.50445 0.57367 0.29229 1.228 0.43013 1.8694 0.3744 0.66272-0.0576 1.2901-0.31457 1.8991-0.58212 0.8433-0.37047 1.6829-0.76988 2.5816-0.9719 0.20418-0.0459 0.41349-0.0815 0.62203-0.0641 0.20854 0.0175 0.41828 0.0928 0.56492 0.24211 0.12862 0.13096 0.19981 0.30849 0.24067 0.48745 0.0409 0.17895 0.0544 0.36293 0.0857 0.5438 0.13619 0.78632 0.60083 1.4777 1.1276 2.0772 0.60991 0.69408 1.3167 1.3005 1.8991 2.0178 0.78343 0.96477 1.3232 2.1065 2.0881 3.086 0.39605 0.50717 0.85366 0.97049 1.3837 1.3353 0.64725 0.44546 1.3891 0.73594 2.0503 1.1604 0.54518 0.34999 1.0286 0.78646 1.5402 1.1838 0.32301 0.25082 0.65941 0.48736 1.0251 0.67047 0.36568 0.18311 0.76265 0.31206 1.1708 0.33844 0.54443 0.0352 1.0993-0.11835 1.5482-0.42842s0.78889-0.77465 0.94869-1.2963c0.71163 0.0369 1.4226 0.0876 2.1322 0.15201 1.0717 0.0973 2.1406 0.22596 3.2048 0.38575-0.10648 0.67389-0.1 1.3655 0.0191 2.0373 0.0776 0.43748 0.20408 0.87008 0.419 1.2589 0.31061 0.562 0.79123 1.009 1.283 1.4219 0.47045 0.39501 0.96136 0.77091 1.3715 1.2283s0.7402 1.0109 0.81655 1.6204c0.0436 0.34846 3e-3 0.70117-0.0278 1.051-0.0311 0.3498-0.0525 0.70662 0.0278 1.0485 0.0867 0.36936 0.29126 0.70653 0.56148 0.97285s0.60425 0.46352 0.95971 0.59615c0.41798 0.15596 0.86835 0.22452 1.3138 0.2 0.0378 0.26336 0.1419 0.51694 0.3 0.73093 0.26743 0.36199 0.67453 0.59697 1.094 0.76007 0.91811 0.35697 1.9517 0.40961 2.9013 0.14777 0.28718 0.66458 0.64472 1.2987 1.0647 1.8884 0.68407 0.96049 1.5346 1.8021 2.5023 2.4759 0.18976 1.5581 0.23197 3.1341 0.12589 4.7-0.0306 0.45096-0.0737 0.90321-0.18383 1.3416-0.11011 0.43837-0.28989 0.86474-0.57153 1.2183-0.21075 0.26455-0.47429 0.4833-0.75537 0.67144-1.0336 0.69184-2.2888 0.97105-3.525 1.1074-0.36984 0.0408-0.74178 0.0702-1.1065 0.14389-0.36471 0.0737-0.72507 0.19385-1.0337 0.40165-0.55692 0.37495-0.89108 0.99107-1.2589 1.5527-0.51584 0.78756-1.1396 1.5113-1.8884 2.0819-0.61478 0.46849-1.3092 0.83108-1.8884 1.3429-0.81554 0.72059-1.3561 1.6932-2.0143 2.5599-0.59074 0.77775-1.2937 1.4851-2.1402 1.9723-0.6392 0.3679-1.3481 0.60396-1.9819 0.98112-0.5172 0.30778-0.97722 0.70586-1.3848 1.1487-0.445 0.48341-0.84265 1.0529-0.92323 1.705-0.0641 0.51916 0.0836 1.0534 0.3651 1.4943 0.28145 0.44094 0.69028 0.79213 1.1456 1.0496 0.62982 0.35615 1.3446 0.53868 1.9819 0.88126 0.74563 0.40081 1.3625 1.0081 2.0982 1.4268 0.75394 0.429 1.6134 0.64737 2.4759 0.73921 1.0481 0.1116 2.1174 0.0439 3.1474 0.26795 0.58608 0.12747 1.1577 0.35234 1.6366 0.7134 0.7975 0.60123 1.2791 1.5262 1.9724 2.2451 0.52002 0.53929 1.1531 0.95628 1.6996 1.4688 0.55157 0.51729 1.0086 1.1259 1.4478 1.7415 0.60848 0.85301 1.1929 1.7316 1.9304 2.4759 1.11 1.1204 2.5838 1.9132 4.1545 2.0563 0.15886 0.0145 0.31861 0.0225 0.47582 0.0495s0.31331 0.074 0.44741 0.16037c0.2039 0.13134 0.34417 0.34761 0.41417 0.57983 0.07 0.23221 0.0743 0.48002 0.0474 0.72107-0.057 0.51193-0.24992 1.0003-0.3192 1.5107-0.10013 0.73763 0.0696 1.507 0.46108 2.1402 0.23377 0.37809 0.54431 0.70848 0.90721 0.96519-0.14258 0.76158-0.12819 1.5522 0.042 2.3081 0.272 1.2081 0.92506 2.2897 1.5527 3.3572 0.21322 0.36264 0.42624 0.72865 0.70086 1.0473 0.27461 0.31867 0.61784 0.59081 1.0197 0.71519 0.33601 0.104 0.69561 0.10035 1.0462 0.0718 0.35057-0.0286 0.70045-0.0812 1.0521-0.0718 0.79659 0.0213 1.5454 0.35663 2.3081 0.58751 1.3125 0.3973 2.6996 0.48982 4.0706 0.46161 2.0749-0.0427 4.149-0.35552 6.2182-0.19565 0.15225 0.0118 0.30509 0.0261 0.45739 0.015s0.30577-0.049 0.43281-0.13373c0.10385-0.0693 0.18593-0.1669 0.25495-0.27092 0.069-0.10402 0.12621-0.21534 0.19016-0.32255 0.15686-0.26298 0.35658-0.50301 0.60225-0.68579 0.24568-0.18277 0.53883-0.30657 0.84405-0.33114 0.32384-0.0261 0.64732 0.0589 0.94956 0.17804 0.62156 0.24507 1.1747 0.63262 1.7584 0.95758 0.40318 0.22443 0.82498 0.42061 1.2704 0.54115s0.91642 0.16371 1.3706 0.082c0.43881-0.079 0.84912-0.2711 1.239-0.48745s0.76561-0.45903 1.1679-0.6513c0.77678-0.37129 1.6337-0.54554 2.4893-0.64167 0.67389-0.0757 1.369-0.10904 1.9881-0.38575 0.78424-0.35052 1.3541-1.0496 2.0772-1.5134 0.56254-0.36078 1.2328-0.57621 1.899-0.5231 0.36518 0.0291 0.73369 0.14397 1.0089 0.38575 0.2866 0.25178 0.446 0.61339 0.64554 0.93854 0.25271 0.41179 0.5889 0.78367 1.0163 1.0089 0.42812 0.22559 0.93336 0.29246 1.4103 0.21056s0.92461-0.3087 1.29-0.62599c0.52733-0.45791 0.88455-1.0943 1.4432-1.5134 0.35645-0.26736 0.80373-0.43751 1.2463-0.38576 0.24032 0.0281 0.46975 0.1198 0.68018 0.23922 0.21044 0.11942 0.40373 0.26644 0.59579 0.4136 0.73027 0.55954 1.4622 1.1335 2.2994 1.515 0.75947 0.34605 1.6018 0.52526 2.434 0.46161 0.78599-0.0601 1.5385-0.33124 2.3101-0.49289 0.6448-0.1351 1.321-0.19935 1.8991-0.51527 0.59295-0.32403 1.0256-0.88343 1.6024-1.2355 0.47321-0.28883 1.0239-0.42572 1.5727-0.50445 0.68398-0.0981 1.3994-0.11773 2.0178-0.42608 0.63339-0.31585 1.0963-0.90304 1.7211-1.2356 0.49342-0.26268 1.0573-0.35104 1.6024-0.47478 0.54168-0.12296 1.0738-0.28406 1.6055-0.44495 0.15158-0.0459 0.30421-0.092 0.46162-0.1094 0.2457-0.0272 0.49731 0.0173 0.72414 0.11551 0.22683 0.0983 0.42921 0.24919 0.59775 0.43003 0.29688 0.31855 0.48873 0.72542 0.79733 1.0326 0.25263 0.25149 0.57553 0.42614 0.91629 0.53077 0.34077 0.10463 0.69958 0.14144 1.056 0.14067 0.38748-8.3e-4 0.77379-0.0453 1.1612-0.049 0.38747-4e-3 0.78318 0.0357 1.137 0.19351 0.26466 0.11805 0.50098 0.30237 0.67101 0.53705 0.17002 0.23467 0.27209 0.51989 0.27855 0.80961 7e-3 0.32657-0.10456 0.64585-0.25801 0.93421s-0.34845 0.55216-0.52448 0.82732c-0.25098 0.39233-0.46504 0.81176-0.59385 1.2593-0.12882 0.44757-0.17017 0.92516-0.0777 1.3816 0.0886 0.43717 0.29544 0.8407 0.51659 1.2281 0.22116 0.38737 0.46015 0.76753 0.62239 1.183 0.18741 0.47995 0.26782 0.99811 0.26707 1.5134-9.8e-4 0.67398-0.138 1.352-0.0335 2.0178 0.0358 0.22826 0.1004 0.45325 0.20594 0.6588 0.10555 0.20554 0.25309 0.39139 0.43934 0.52814 0.34403 0.25259 0.78987 0.31989 1.2166 0.32641 0.35167 5e-3 0.70331-0.0251 1.0549-0.0152 0.35158 0.01 0.7093 0.0624 1.0223 0.22295 0.23294 0.11947 0.43469 0.29632 0.59347 0.50446 0.33419 0.43809 0.4707 0.99568 0.53413 1.543 0.0799 0.68969 0.0569 1.3869 0.0961 2.0801s0.14555 1.3975 0.46319 2.0149c0.35375 0.6876 0.96135 1.233 1.6662 1.5511 0.72024 0.32506 1.5378 0.41764 2.3189 0.29755 0.78102-0.1201 1.5246-0.44858 2.1618-0.91589 0.90722-0.66533 1.6015-1.6166 1.9585-2.6835 0.5281 0.22994 1.1234 0.30304 1.6914 0.20771 0.55064-0.0924 1.0638-0.3364 1.553-0.60553 0.48919-0.26913 0.96481-0.56706 1.4803-0.78168 0.73122-0.30446 1.5353-0.43826 2.2189-0.83831 0.90622-0.53031 1.4897-1.4578 2.1365-2.2849 0.40157-0.5135 0.84031-1.0002 1.3353-1.4243 1.0863-0.93087 2.4107-1.5348 3.7389-2.0665 1.2813-0.51288 2.5858-0.97044 3.9169-1.335 1.2463-0.34133 2.5164-0.60136 3.7389-1.0199 1.4557-0.49835 2.8293-1.217 4.1246-2.0475 1.572-1.0078 3.038-2.1852 4.3323-3.5312 1.1356-1.1809 2.1348-2.4863 3.0752-3.8279 0.0932-0.13297 0.18626-0.26682 0.2968-0.38576 0.27705-0.29809 0.64951-0.48787 1.022-0.65178 1.0331-0.45458 2.1309-0.75715 3.2473-0.92323 1.0438-0.15528 2.1012-0.19186 3.1514-0.29541 0.4847-0.0478 0.98439-0.11536 1.4011-0.36753 0.20834-0.12608 0.39173-0.2984 0.51133-0.51053 0.11961-0.21213 0.17227-0.46537 0.12549-0.70436-0.0369-0.18846-0.13302-0.36135-0.25248-0.51171s-0.26221-0.28033-0.40502-0.40872c-0.79698-0.71655-1.6172-1.4072-2.459-2.0706 0.34034-0.43213 0.61887-0.91287 0.8245-1.423 0.1232-0.30567 0.22033-0.62184 0.29-0.94395 0.49839 0.24307 0.99092 0.49817 1.477 0.765 0.26227 0.14397 0.52416 0.29238 0.75556 0.48204 0.23139 0.18966 0.43276 0.42411 0.54444 0.70167 0.12557 0.3121 0.13116 0.65951 0.10102 0.99457-0.0301 0.33506-0.0942 0.66739-0.10152 1.0037-0.0101 0.46269 0.0904 0.93047 0.31179 1.3369 0.22135 0.40643 0.56584 0.74887 0.98451 0.9461 0.36242 0.17073 0.76867 0.23006 1.1693 0.23485 0.4006 5e-3 0.79968-0.0428 1.1989-0.0759 1.1952-0.0991 2.3976-0.0688 3.5945 7e-3 3.0918 0.19587 6.1653 0.69635 9.1544 1.5107 3.3832 0.92175 6.6481 2.2413 10.033 3.1567 1.4212 0.38434 2.9046 0.71629 4.093 1.5853 0.58585 0.42838 1.0761 0.97148 1.6047 1.4688 0.1808 0.17009 0.36849 0.33658 0.58591 0.45636 0.21743 0.11978 0.46911 0.19067 0.71499 0.15658 0.16552-0.0229 0.32297-0.0929 0.4575-0.19203 0.13453-0.0991 0.24668-0.22682 0.33685-0.36751 0.18034-0.28138 0.27199-0.60945 0.34905-0.93466 0.49037-2.0695 0.48138-4.2554-0.026-6.3208 0.51658 0.22566 1.0912 0.31678 1.6523 0.262 0.86825-0.0848 1.692-0.52418 2.2661-1.181 0.52383-0.59928 0.8436-1.3868 0.8261-2.1826-2e-3 -0.10042-0.01-0.20085-5e-3 -0.30119 4e-3 -0.10035 0.0209-0.20167 0.0643-0.29228 0.048-0.10023 0.12683-0.18324 0.21593-0.24962 0.0891-0.0664 0.18863-0.11725 0.28857-0.16581 0.27529-0.13375 0.55821-0.25259 0.82493-0.40271 0.26671-0.15012 0.51949-0.33436 0.70667-0.57651 0.30397-0.39323 0.40938-0.90197 0.4748-1.3947 0.20046-1.5098 0.1-3.0782-0.4483-4.4992-0.31719-0.82202-0.80045-1.6076-1.5211-2.1145-0.44552-0.3134-0.96166-0.5075-1.4662-0.71287-0.50452-0.20537-1.0124-0.43088-1.4195-0.7928-0.44752-0.39785-0.74432-0.93435-1.1273-1.3947-0.15025-0.18059-0.31441-0.35017-0.45011-0.54193s-0.24348-0.41084-0.26209-0.64502c-0.022-0.27666 0.0835-0.55197 0.24353-0.77869 0.16006-0.22672 0.37213-0.4111 0.58737-0.58629 0.39138-0.31856 0.8067-0.62092 1.1053-1.0277 0.46905-0.63904 0.59648-1.5145 0.32907-2.2608-0.26741-0.74623-0.9219-1.3415-1.6901-1.5372 0.0972-0.37615 0.0611-0.78532-0.1004-1.1386-0.16091-0.35201-0.438-0.64065-0.74916-0.87083-0.31116-0.23019-0.65777-0.40701-1.0011-0.58563-1.4023-0.72947-2.7814-1.5078-4.0916-2.392-2.8599-1.9301-5.379-4.3636-7.4068-7.155 0.31779-0.58393 0.69838-1.1337 1.1331-1.6366 0.24421-0.28256 0.50548-0.55046 0.73931-0.84167 0.23383-0.2912 0.44156-0.60917 0.56159-0.96282 0.15979-0.47081 0.15648-0.98497 0.0659-1.4738-0.0906-0.48887-0.26508-0.95771-0.44361-1.4217-0.78935-2.0517-1.6835-4.106-1.8884-6.2947-0.0273-0.29107-0.0422-0.58405-0.0963-0.87134s-0.14988-0.57194-0.32337-0.80725c-0.20191-0.27386-0.49758-0.46541-0.80717-0.60657-0.30958-0.14116-0.63744-0.23733-0.95533-0.35862-0.29482-0.11249-0.58956-0.25262-0.8022-0.48576-0.10631-0.11658-0.18993-0.2556-0.23146-0.40781-0.0415-0.15221-0.0395-0.31784 0.0171-0.46514 0.0696-0.18127 0.21444-0.32273 0.36555-0.44467 0.15111-0.12193 0.31414-0.232 0.44125-0.37879 0.15941-0.18409 0.25391-0.41782 0.30021-0.6569s0.0468-0.48468 0.0355-0.72794c-0.0659-1.419-0.53684-2.817-1.3429-3.9866l-42.926-16.435 2.0528-1.5681 17.709-0.67143c0.79753-0.24348 1.6602-0.26983 2.4711-0.0755 0.81089 0.19435 1.5679 0.6089 2.1684 1.1874 0.34077 0.32831 0.62989 0.70584 0.95192 1.0525 0.32204 0.34671 0.68671 0.66865 1.1252 0.84657 0.23881 0.0969 0.49772 0.14897 0.75501 0.13415 0.25729-0.0148 0.51268-0.0984 0.71899-0.25285 0.29937-0.22412 0.47343-0.57382 0.63298-0.91204 0.15956-0.33822 0.32439-0.69029 0.61332-0.92772 0.19143-0.15731 0.42794-0.25442 0.67139-0.30049 0.24346-0.0461 0.49434-0.043 0.74024-0.0125 0.49178 0.061 0.96486 0.22194 1.4371 0.37225l5.3397 1.6997c0.37495 0.74485 0.80685 1.461 1.2907 2.1402 0.50807 0.71318 1.0734 1.3855 1.6888 2.0085 0.0642-0.89644 0.29292-1.7808 0.6714-2.596 0.1088-0.23433 0.23341-0.46775 0.42239-0.64392 0.0945-0.0881 0.20457-0.16063 0.32607-0.20449 0.1215-0.0439 0.25469-0.0583 0.38134-0.0329 0.19274 0.0387 0.35847 0.16678 0.47935 0.32182 0.12088 0.15503 0.20221 0.33662 0.27925 0.51748 0.17119 0.40189 0.32714 0.81026 0.4674 1.224 0.77465-0.17191 1.5168-0.48911 2.1764-0.93021 1.0636-0.71125 1.8879-1.7205 2.8536-2.5598 0.52901-0.45976 1.1028-0.86987 1.7206-1.2009 0.56789-0.30434 1.1713-0.54129 1.7249-0.87096 0.50216-0.29905 0.95744-0.67096 1.454-0.97923 0.7089-0.4401 1.4984-0.74674 2.3146-0.91988 0.52623-0.11162 1.063-0.16833 1.5887-0.28257s1.0487-0.29104 1.4786-0.61434c0.26936-0.20254 0.4948-0.4569 0.7134-0.7134 1.8076-2.121 3.2855-4.5226 4.3643-7.092l11.372-22.955c-1.942 0.55559-3.9968 0.71365-6.001 0.46161-0.43337-0.0545-0.87316-0.13082-1.2589-0.33572-0.33978-0.18049-0.62249-0.45337-0.8674-0.75009-0.24492-0.29673-0.45602-0.61954-0.6853-0.9285-0.51917-0.6996-1.1352-1.3336-1.5527-2.0982-0.56238-1.03-0.72681-2.2278-0.7974-3.3992-0.0724-1.2014-0.0565-2.4067 0-3.609 0.0397-0.84419 0.10482-1.7098 0.4617-2.4759 0.3906-0.83844 1.1306-1.5074 2.0042-1.8115 0.87351-0.30417 1.869-0.23959 2.6958 0.1749l45.196 17.835c2.2609 0.18139 4.5353 0.19545 6.7983 0.042 0.41073-0.0279 0.8225-0.0612 1.2336-0.0389 0.41106 0.0224 0.82468 0.10268 1.1909 0.29064 0.63117 0.32392 1.0682 0.94056 1.3429 1.5947 0.36164 0.86119 0.48127 1.8087 0.8436 2.6696 0.61546 1.4624 1.955 2.5987 3.4982 2.9674l0.3677 4.6444c0.0373 0.47147 0.0573 0.94405 0.0755 1.4166 0.0181 0.4726 0.0451 0.95489 0.21825 1.395 0.17567 0.44643 0.5004 0.82532 0.88737 1.1089 0.38696 0.28358 0.83465 0.47606 1.2948 0.61167 0.62943 0.18549 1.2927 0.27038 1.8884 0.54554 0.51158 0.2363 0.95144 0.60353 1.3561 0.99573 0.40464 0.3922 0.78105 0.81387 1.2038 1.1864 0.6317 0.55668 1.3892 1.0079 2.2241 1.1169 0.82901 0.10828 1.6663-0.12589 2.5018-0.0945 0.72771 0.0273 1.4381 0.25561 2.1662 0.26706 0.99047 0.0156 1.939-0.3685 2.8487-0.76048 0.4748-0.20458 0.95102-0.41415 1.4539-0.53413 0.37847-0.0903 0.77452-0.12853 1.1574-0.0593 0.59524 0.10763 1.1151 0.46486 1.5726 0.86053 0.39713 0.34343 0.76267 0.72195 1.1573 1.0682 0.7705 0.67615 1.6626 1.2319 2.6481 1.5139 0.5514 0.1578 1.1261 0.22838 1.6996 0.2308 0.63085 3e-3 1.2687-0.0759 1.8884 0.042 0.64018 0.12177 1.2205 0.44527 1.8045 0.73438 0.5319 0.26331 1.0783 0.50258 1.5762 0.82562 0.49788 0.32304 0.95182 0.74023 1.2144 1.2725 0.29319 0.59417 0.3289 1.2877 0.6085 1.8884 0.30353 0.65209 0.88024 1.1505 1.5277 1.4638 0.71618 0.34654 1.5192 0.48362 2.3145 0.50446 0.76608 0.0201 1.551-0.0617 2.2849 0.15902 0.39824 0.11978 0.76553 0.32474 1.1573 0.46422 0.42875 0.15265 0.88212 0.22515 1.3353 0.26706 1.4396 0.13313 2.8973-0.0352 4.3323 0.14047 0.64843 0.0794 1.286 0.22828 1.9288 0.34491 0.69188 0.12555 1.393 0.21392 2.0961 0.20772 0.87505-8e-3 1.7792-0.17569 2.4926-0.6825 0.68754-0.48845 1.1386-1.2512 1.4167-2.0475 0.21386-0.6124 0.33653-1.254 0.4041-1.8991 0.0132-0.12593 0.0246-0.25354 0.0663-0.3731 0.0208-0.0598 0.0493-0.11723 0.0875-0.16767 0.0383-0.0504 0.0866-0.0938 0.14285-0.12278 0.0555-0.0286 0.11789-0.0429 0.18031-0.0454 0.0624-3e-3 0.12498 6e-3 0.18544 0.0221 0.12091 0.0315 0.2328 0.0898 0.34645 0.1417 0.61452 0.28083 1.3031 0.38233 1.9775 0.34131 0.65024-0.0396 1.308-0.21746 1.8254-0.61332 0.42192-0.32283 0.73222-0.77777 0.92937-1.2711 0.19716-0.49332 0.28559-1.0248 0.31373-1.5553 0.0322-0.60727-0.0142-1.2237-0.19537-1.8042-0.18121-0.5805-0.50253-1.1248-0.96373-1.5211-0.67537-0.58045-1.5891-0.80121-2.476-0.88126-1.0898-0.0983-2.1966-0.0135-3.2732-0.20937-0.38766-0.0705-0.77359-0.17925-1.1129-0.37952-0.33933-0.20028-0.63066-0.49964-0.76577-0.86978-0.11323-0.31019-0.11167-0.65352-0.0451-0.97695 0.0666-0.32344 0.19528-0.63052 0.33261-0.93082 0.10843-0.2371 0.22293-0.47205 0.30936-0.71802 0.0864-0.24597 0.14457-0.5051 0.13574-0.76566-0.01-0.2823-0.1012-0.56465-0.27725-0.78554s-0.43895-0.37583-0.72025-0.4014c-0.0954-9e-3 -0.19209-3e-3 -0.28681-0.0175-0.0474-7e-3 -0.0942-0.0197-0.13724-0.0409-0.043-0.0211-0.0821-0.0512-0.11025-0.09-0.036-0.0496-0.0526-0.11184-0.0515-0.17309 1e-3 -0.0612 0.0193-0.12147 0.0474-0.17586 0.0564-0.10878 0.15008-0.19263 0.24149-0.2742 1.1971-1.0683 2.3486-2.189 3.5905-3.2048 0.84694-0.6927 1.7338-1.3348 2.6114-1.9881 0.85457-0.63619 1.7271-1.3136 2.2255-2.2552 0.22469-0.42446 0.36626-0.89595 0.38551-1.3758 0.0192-0.47987-0.0866-0.96775-0.32651-1.3838-0.26514-0.45989-0.68119-0.81792-0.9495-1.276-0.36237-0.61863-0.42495-1.3619-0.4748-2.0772-0.0665-0.95442-0.12816-1.923-0.4413-2.827-0.53958-1.5578-1.8508-2.8268-3.4253-3.3152l-4.7839-6.6724c2.6172 0.8417 5.4494 1.0053 8.1461 0.47043 1.2202-0.242 2.4389-0.62624 3.6795-0.53413 0.39604 0.0294 0.7902 0.10747 1.1869 0.089 0.42407-0.0197 0.8357-0.14937 1.2295-0.30797 0.39379-0.15861 0.7754-0.34716 1.174-0.49321 0.71433-0.26172 1.471-0.38272 2.2091-0.56702 0.60831-0.1519 1.2081-0.34779 1.8295-0.4312 0.62141-0.0834 1.2798-0.0461 1.8341 0.247 0.55053 0.29118 0.94541 0.80257 1.3151 1.3038 0.0953 0.12927 0.19123 0.26001 0.31181 0.36613 0.12059 0.10612 0.26971 0.18709 0.42999 0.19766 0.16622 0.011 0.33156-0.0555 0.46128-0.16004 0.12972-0.1045 0.22672-0.24465 0.30352-0.39247 0.26652-0.51296 0.30005-1.1226 0.1968-1.6914-0.157-0.86488-0.6073-1.6476-0.8495-2.4926-0.11865-0.41394-0.18703-0.84777-0.1415-1.276 0.0391-0.36801 0.16777-0.73465 0.4143-1.0107 0.12327-0.13801 0.27492-0.25163 0.44513-0.32421 0.17021-0.0726 0.35907-0.10339 0.54277-0.0812 0.28422 0.0344 0.53673 0.18947 0.7976 0.30742 0.55942 0.25293 1.1872 0.34105 1.7989 0.28829 0.41355-0.0357 0.82344-0.1352 1.1982-0.31357 0.3748-0.17838 0.71389-0.437 0.96796-0.76524 0.35728-0.46157 0.53465-1.0462 0.5651-1.629 0.0305-0.58289-0.079-1.166-0.25-1.7241-0.18908-0.6172-0.45271-1.2088-0.66667-1.8178-0.21395-0.60902-0.37941-1.2462-0.36063-1.8914 0.0279-0.95972 0.46034-1.8628 0.9793-2.6706 0.82578-1.2854 1.8853-2.4065 2.7299-3.6795 0.43884-0.66144 0.81819-1.3617 1.276-2.0102 0.21062-0.29833 0.44242-0.58985 0.74332-0.79678 0.15045-0.10346 0.31738-0.18456 0.49465-0.22833 0.17726-0.0438 0.3651-0.0495 0.54243-6e-3 0.24579 0.0603 0.45986 0.21069 0.65032 0.37735 0.19046 0.16665 0.36425 0.35282 0.56628 0.50524 0.1688 0.12735 0.35732 0.23042 0.55995 0.29084 0.20264 0.0604 0.41975 0.0773 0.62705 0.0356 0.32482-0.0653 0.61037-0.27226 0.81303-0.53437 0.20267-0.26212 0.32833-0.57661 0.41107-0.89744 0.15049-0.58355 0.16449-1.2058 0.01-1.7882-0.15494-0.58239-0.48239-1.1224-0.94756-1.5056-0.21269-0.17518-0.45426-0.3179-0.71668-0.40194-0.26242-0.084-0.54624-0.10799-0.81582-0.0509-0.28654 0.0607-0.54644 0.20891-0.7921 0.3684-0.24565 0.15949-0.4842 0.3333-0.7508 0.45458-0.39611 0.1802-0.84482 0.23683-1.276 0.17805-0.55357-0.0755-1.0703-0.33572-1.5114-0.67862s-0.81237-0.76685-1.1592-1.2048c-0.39371-0.49722-0.77809-1.0324-1.3353-1.3353-0.4675-0.25414-1.0123-0.31897-1.5431-0.35608-0.88391-0.0618-1.7793-0.0607-2.641-0.26706-0.8603-0.20597-1.6582-0.61203-2.4332-1.0386-1.2898-0.7099-2.542-1.4862-3.7783-2.2856-1.8489-1.1953-3.7093-2.4639-5.8391-3.0215-1.1566-0.30279-2.3844-0.39326-3.4561-0.92323-1.0463-0.51739-1.8812-1.4518-2.2678-2.5531-0.12691-0.36153-0.20712-0.73886-0.3481-1.0951-0.3052-0.77129-0.88847-1.4138-1.5779-1.875-0.68947-0.46116-1.4821-0.75024-2.2898-0.93932-0.14624-0.0342-0.29398-0.0656-0.4335-0.12118-0.13952-0.0556-0.27208-0.13764-0.3639-0.2565-0.089-0.11523-0.13496-0.2589-0.15487-0.40314-0.0199-0.14423-0.0154-0.29057-0.0129-0.43615 7e-3 -0.39335-3e-3 -0.79036-0.0913-1.1737-0.0885-0.38332-0.26144-0.75522-0.54368-1.0293-0.25182-0.24452-0.57924-0.40047-0.91787-0.49284-0.33863-0.0924-0.69047-0.12464-1.0406-0.14897-1.3046-0.0907-2.6592-0.0677-3.8575 0.45605-0.66632 0.29123-1.2613 0.72804-1.9288 1.0166-0.51462 0.22249-1.0714 0.35428-1.6321 0.35609-0.58336 2e-3 -1.1573-0.13529-1.7372-0.19881-0.5799-0.0635-1.1959-0.046-1.7049 0.23911-0.31027 0.17378-0.56616 0.44311-0.72385 0.76187-0.15768 0.31875-0.21649 0.68558-0.16635 1.0376-0.83741 0.0775-1.6591 0.32095-2.4036 0.71217-1.6138 0.84808-2.8341 2.4123-3.2641 4.184l-245.64-51.512z" fill="#f7f002" stroke="#000" stroke-width="1.3"/>
 <path d="m218.75 513.64 17.033-117.87" fill="none" stroke="#000" stroke-width="2"/>
 <path d="m320.11 354.48-12.23 184.71 1.9961-0.65055 12.229-183.93z" color="#000000" style="-inkscape-stroke:none"/>
 <g fill="none" stroke="#000">
  <g stroke-width="2.05">
   <path d="m181.03 445.01c42.196 9.6051 85.084 16.166 128.22 19.616 19.409 1.5519 38.868 2.4748 58.336 2.7666" stroke-dasharray="12.3, 12.3"/>
   <path d="m451.05 467.28c5.9636-0.13297 11.925-0.36657 17.881-0.70067 8.1896-0.45941 16.369-1.1089 24.528-1.9477" stroke-dasharray="12.3, 12.3"/>
   <path d="m621.94 446.12c1.9744-0.56735 3.9283-1.2062 5.8565-1.915 1.3444-0.49414 2.6762-1.0222 3.9939-1.5836" stroke-dasharray="8.2, 8.2"/>
  </g>
  <path d="m194.52 393.01c13.963 2.8308 27.995 5.3218 42.079 7.4701 29.102 4.4388 58.42 7.4127 87.803 9.205 15.58 0.95036 31.181 1.5689 46.787 1.855" stroke-width="2"/>
 </g>
 <path d="m327.7 563.99-3.452 1.9941c12.321 0.94625 24.66 1.6682 37.008 2.166 39.264 1.5829 78.62 0.89428 117.8-2.0625l-0.1503-1.9941c-39.108 2.951-78.387 3.6384-117.57 2.0586-12.323-0.4968-21.339-1.2177-33.636-2.1621z" color="#000000" style="-inkscape-stroke:none"/>
 <path d="m407.09 602.28-3.9463-97.782" fill="none" stroke="#000" stroke-width="2"/>
 <path d="m604.41 515.52-5.668-10.202" fill="none" stroke="#000" stroke-width="2"/>
 <g>
  <path d="m292.75 338.26c-0.36882-0.26532-0.77357-0.47659-1.151-0.72957s-0.73464-0.55679-0.9556-0.95378c-0.28084-0.50458-0.31419-1.1034-0.414-1.6722-0.2451-1.3968-0.93744-2.7115-1.9504-3.7039l3.282-3.8747 1.7812 7.8509c0.31954-0.28809 0.71896-0.48664 1.1415-0.56747 0.42257-0.0808 0.86707-0.0437 1.2704 0.10614 0.4033 0.14983 0.76424 0.41191 1.0315 0.74903s0.4402 0.74829 0.49414 1.1751c0.0539 0.42683-0.0112 0.86809-0.18626 1.2611-0.17503 0.39302-0.45941 0.73665-0.81276 0.9821-0.35334 0.24545-0.77463 0.392-1.204 0.41885-0.42939 0.0268-0.86565-0.0661-1.2468-0.26564-0.39323-0.20585-0.71961-0.51677-1.0799-0.77597z" stroke="#000" stroke-width="1px"/>
  <g fill="#dedede" stroke="#000" stroke-miterlimit="4.8" stroke-width="1.6">
   <path d="m598.64 435.24c0.75623-0.0658 1.5218-0.0232 2.2661 0.1259 0.78126 0.15654 1.5424 0.43231 2.22 0.8516 0.67755 0.41928 1.27 0.98481 1.6828 1.6663 0.34399 0.56782 0.5579 1.2027 0.7909 1.8244 0.0374 0.0998 0.0754 0.19939 0.1187 0.29673 0.22174 0.49808 0.57913 0.9264 0.8012 1.4243 0.27724 0.62162 0.32947 1.3185 0.33738 1.9991 8e-3 0.6806-0.024 1.3672 0.0995 2.0365 0.13203 0.71514 0.43814 1.3877 0.8012 2.0178 0.9239 1.6035 2.2387 2.9799 3.7982 3.9763-0.22081 0.54177-0.60904 1.0139-1.0979 1.3353-0.348 0.22877-0.74559 0.3817-1.1572 0.44511 0.95824 0.94024 1.8142 1.9847 2.5478 3.109 0.70278 1.077 1.2919 2.224 1.9724 3.3152 0.99814 1.6006 2.1896 3.0752 3.483 4.4483 0.4911 0.52133 1.0033 1.0334 1.611 1.4124 0.24636 0.15363 0.50731 0.28464 0.7418 0.45585 0.29304 0.21396 0.54214 0.49116 0.70793 0.81391s0.24632 0.69144 0.21257 1.0527c-0.0281 0.30064-0.13397 0.59117-0.28646 0.85178-0.15248 0.26062-0.35078 0.49237-0.56914 0.70092-0.27272 0.26046-0.57818 0.48661-0.9069 0.67143 0.60365 0.85446 1.3791 1.5871 2.2664 2.1412 0.51218 0.31988 1.0658 0.58451 1.5133 0.99 0.51521 0.46688 0.85618 1.0895 1.2463 1.665 0.73692 1.0871 1.6702 2.0306 2.4036 3.1201 0.19344 0.28734 0.37443 0.58836 0.4748 0.91988 0.17318 0.57199 0.0853 1.2176-0.23446 1.7224-0.31976 0.50488-0.86582 0.86026-1.4569 0.94819 0.54145 0.54666 1.0203 1.1552 1.4243 1.8101 0.54963 0.89096 0.96546 1.8917 1.0089 2.9377 0.0533 1.2837-0.47039 2.5548-1.3056 3.5312-0.94935 1.1097-2.2523 1.843-3.4125 2.73-1.0242 0.78304-1.944 1.6927-2.8487 2.6113-2.2994 2.3348-4.522 4.7457-6.6469 7.2404-1.2085 1.4188-2.3922 2.8717-3.7982 4.095-1.2851 1.1181-2.765 2.041-4.3988 2.523-1.5843 0.46745-3.2585 0.50868-4.9099 0.54554-1.5556 0.0347-3.1115 0.0686-4.6675 0.0584-0.22793-1e-3 -0.45694-4e-3 -0.6825 0.029-0.67532 0.0984-1.2678 0.50248-1.9288 0.67201-0.48377 0.12406-0.99376 0.11892-1.4875 0.0437-0.49373-0.0752-0.97421-0.21892-1.4502-0.37009-0.72273-0.22952-1.4448-0.47853-2.1959-0.5826-0.86235-0.11948-1.7379-0.0446-2.6085-0.0348-0.87053 0.01-1.7663-0.0519-2.5547-0.42116-0.52584-0.2463-0.98906-0.62306-1.5379-0.81265-0.38575-0.13325-0.7995-0.16866-1.187-0.29674-0.29024-0.0959-0.56337-0.24311-0.8605-0.31494-0.39415-0.0953-0.80962-0.0525-1.205 0.0373-0.39544 0.0898-0.77916 0.22571-1.1738 0.31874-0.64571 0.15219-1.3415 0.18434-1.9585-0.0593-0.21227-0.0838-0.41088-0.19841-0.61844-0.29329-0.20755-0.0949-0.42935-0.17093-0.65756-0.17013-0.16074 5.6e-4 -0.31864 0.0392-0.4747 0.0777-0.3624 0.0895-0.72911 0.18026-1.1024 0.17918-0.37329-1e-3 -0.76-0.10383-1.0341-0.35722-0.22715-0.20998-0.35847-0.50424-0.4451-0.80119-0.21205-0.72688-0.18854-1.4998-0.137-2.2552 0.0893-1.309 0.26052-2.6256 0.712-3.8576 0.5309-1.4486 1.4338-2.7352 2.4517-3.8946 0.47558-0.54167 0.97847-1.0598 1.5133-1.543 0.74127-0.6698 1.5576-1.28 2.4926-1.632 0.57917-0.21809 1.1935-0.33288 1.8101-0.38575 1.3722-0.11765 2.7683 0.0707 4.0653 0.53412 0.45801 0.16364 0.91108 0.36287 1.3946 0.41543 0.72434 0.0787 1.4411-0.17889 2.1069-0.47478 0.58207-0.25867 1.1569-0.55244 1.7804-0.68249 0.57383-0.11968 1.1683-0.0958 1.7507-0.0297 1.2476 0.1416 2.4732 0.4756 3.6202 0.98656 0.22669-0.61334 0.25825-1.2972 0.089-1.9288-0.14032-0.52366-0.41178-1.0027-0.7122-1.454-0.53767-0.80767-1.1774-1.5473-1.8991-2.1958-0.58178-0.0403-1.1594-0.13985-1.7211-0.29674-1.8509-0.517-3.5163-1.6744-4.6461-3.229-0.18653 0.1914-0.37912 0.37689-0.5774 0.55609-0.347 0.31362-0.71141 0.60798-1.091 0.88126-0.94167-0.52232-1.8292-1.1422-2.6438-1.8465-0.74406-0.64329-1.4307-1.3612-1.9724-2.1822-0.16547-0.25076-0.31791-0.51231-0.4219-0.79417-0.10399-0.28187-0.15831-0.58601-0.1236-0.88443 0.0303-0.26084 0.12715-0.50974 0.16751-0.76922 0.0202-0.12974 0.026-0.26292 2e-3 -0.39201s-0.0791-0.2543-0.16955-0.3495c-0.12828-0.13506-0.31762-0.19936-0.5036-0.20982-0.28211-0.0159-0.56008 0.0811-0.80855 0.2156-0.24847 0.13454-0.47434 0.30664-0.71305 0.45782-0.72289 0.45783-1.568 0.7206-2.4231 0.75338 0.0818-0.93026-0.0656-1.8798-0.4256-2.7415-0.14167-0.33908-0.31536-0.66408-0.5044-0.97922-0.1499-0.24989-0.31416-0.49895-0.54523-0.67649-0.11553-0.0888-0.2471-0.15831-0.38845-0.19362-0.14136-0.0353-0.29275-0.0354-0.43132 0.01-0.13208 0.0429-0.24865 0.12496-0.34927 0.22067-0.10063 0.0957-0.18679 0.20533-0.27393 0.31346-0.50351 0.62479-1.0785 1.2318-1.8238 1.5293-0.43933 0.17534-0.92466 0.23387-1.3931 0.168-0.46841-0.0659-0.91879-0.25598-1.2927-0.54568 0.56231-0.73514 0.9784-1.5817 1.217-2.4759 0.31158-1.1678 0.3192-2.393 0.2956-3.6015-0.1109-5.6794-0.86909-11.346-2.2552-16.855l19.703-18.398 13.404-0.55124z"/>
   <path d="m356.69 391.52c-1.1134 1.4724-1.9083 3.1844-2.3145 4.9852-0.53541 2.3734-0.3938 4.8625 0.12176 7.2404 0.89436 4.1249 2.8761 7.9276 5.004 11.573 0.34435 0.58985 0.69469 1.1804 0.94258 1.8168 0.2479 0.63644 0.3907 1.3275 0.30256 2.0048-0.0687 0.52779-0.27378 1.027-0.48307 1.5163-0.70856 1.6568-1.4878 3.2833-2.335 4.8736 0.0584 0.35406 0.24498 0.68556 0.51728 0.91928 0.27229 0.23372 0.62825 0.36785 0.98707 0.37195 0.25803 3e-3 0.51293-0.0588 0.7709-0.065 0.12899-3e-3 0.25945 8e-3 0.3824 0.0471s0.23844 0.10757 0.32131 0.20646c0.11718 0.13982 0.16036 0.32831 0.167 0.51062 0.014 0.38346-0.11689 0.75886-0.2908 1.1009-0.1739 0.34204-0.39161 0.66013-0.5702 0.99975-0.51737 0.98388-0.68963 2.1337-0.55317 3.2369 0.0473 0.38266 0.13359 0.76859 0.33234 1.099 0.14886 0.24748 0.35504 0.45446 0.55782 0.6601 0.20278 0.20563 0.40655 0.41562 0.54901 0.66684 0.23882 0.42117 0.28611 0.93154 0.20865 1.4095-0.0775 0.47792-0.27163 0.92913-0.49206 1.3602-0.33631 0.6577-0.73863 1.2842-1.0072 1.9723-0.23831 0.61074-0.36637 1.2578-0.54554 1.8884-0.2386 0.83981-0.56959 1.6568-0.71341 2.5179-0.12313 0.7372-0.10494 1.501 0.0839 2.2241 0.13913 0.53281 0.3702 1.0462 0.41965 1.5947 0.057 0.63182-0.13895 1.2758-0.50358 1.7949-0.52597 0.74882-1.3532 1.2148-2.0982 1.746-0.61267 0.43682-1.2058 0.9613-1.4782 1.6627-0.2163 0.55691-0.20604 1.1981 0.028 1.7478 0.23401 0.5497 0.68907 1.0016 1.2404 1.2317-1.0523 0.90371-2.0877 1.8272-3.1054 2.7697-1.0024 0.92836-2.005 1.8977-2.6438 3.1054-0.22734 0.42977-0.4064 0.88784-0.49662 1.3656-0.0902 0.47775-0.0897 0.97615 0.035 1.4461 0.0518 0.19497 0.12437 0.38382 0.1795 0.57787 0.0551 0.19405 0.0928 0.39646 0.0723 0.59714-0.0344 0.33599-0.22911 0.63628-0.46161 0.88126-0.65456 0.68971-1.5988 1.0151-2.5179 1.259-0.49413 0.1311-0.99439 0.24605-1.5033 0.29477-0.85914 0.0822-1.7236-0.0256-2.5816-0.11869-1.4586-0.1583-2.9309-0.27447-4.3917-0.13755-0.67237 0.063-1.3496 0.18268-1.9585 0.47477-0.39522 0.18959-0.75511 0.44876-1.1573 0.62315-0.43077 0.1868-0.8987 0.27136-1.365 0.32641-0.77693 0.0917-1.5727 0.10762-2.3145 0.35609-1.2045 0.40345-2.1464 1.3939-2.73 2.5223-0.72038 1.393-0.95019 2.991-0.97923 4.5589-0.0158 0.85214 0.0244 1.7057-0.029 2.5563-0.0501 0.79914-0.18162 1.6122 0 2.392 0.13001 0.55823 0.41533 1.0693 0.74785 1.5361 0.33252 0.46686 0.71417 0.89641 1.0653 1.3494 0.58184 0.75074 1.1008 1.5866 1.8954 2.1068 0.68832 0.45062 1.5238 0.6208 2.3442 0.6825 1.8658 0.14033 3.7521-0.23206 5.6065 0.0166 0.79043 0.10599 1.5612 0.32332 2.3437 0.47733 0.8218 0.16174 1.6556 0.25345 2.4892 0.33572 3.3883 0.33443 6.7927 0.51589 10.197 0.50358 1.9034-7e-3 3.8061-0.0743 5.7072-0.16786 0.86011-0.0423 1.727-0.0911 2.5598-0.30986 0.2141-0.0562 0.42557-0.12366 0.62947-0.20983 0.61749-0.26094 1.1495-0.68597 1.663-1.1169 1.6409-1.3773 3.1815-2.8691 4.7157-4.3643 0.54182-0.52806 1.09-1.0656 1.4688-1.7206 0.3083-0.53315 0.50039-1.1378 0.8901-1.6147 0.30625-0.37476 0.72618-0.65309 1.1869-0.80119 0.5124-0.1647 1.0675-0.1695 1.5965-0.0704 0.31124 0.0583 0.62304 0.15549 0.87442 0.34805 0.33297 0.25505 0.52617 0.64936 0.68249 1.0386 0.37981 0.94564 0.611 1.9508 0.68249 2.9674 0.77465-0.31284 1.4603-0.84268 1.9585-1.5134 0.70426-0.94819 1.0171-2.1434 1.0682-3.3234 0.029-0.66771-0.0208-1.3362-0.0239-2.0045-3e-3 -0.66833 0.0421-1.3458 0.25378-1.9797 0.20704-0.62008 0.57141-1.1844 1.0373-1.6431 0.46584-0.45863 1.0316-0.81226 1.6409-1.0493 0.47785-0.1859 0.99337-0.30705 1.4028-0.61563 0.25602-0.19293 0.45961-0.45444 0.58528-0.74936 0.22516-0.52842 0.19442-1.1262 0.29674-1.6914 0.0169-0.0934 0.0377-0.18678 0.0743-0.27442 0.0366-0.0876 0.0897-0.16986 0.16314-0.23003 0.10371-0.085 0.24128-0.12025 0.37535-0.12154 0.13407-1e-3 0.26633 0.0288 0.39616 0.0622 0.67643 0.17425 1.328 0.44489 1.9288 0.80119 0.59929-1.1767 1.0585-2.4247 1.365-3.7092 0.28916-1.212 0.44296-2.4564 0.80118-3.6498 0.13548-0.45135 0.30087-0.89618 0.53413-1.3056 0.22769-0.39968 0.51679-0.76024 0.78756-1.1321 0.27076-0.37185 0.52682-0.76182 0.67609-1.1969 0.1699-0.49524 0.19716-1.0368 0.41964-1.5107 0.23804-0.50711 0.70048-0.90378 1.2379-1.0619 0.53744-0.15807 1.141-0.0749 1.6157 0.22256l7.9733-14.562-47.517-49.513z"/>
  </g>
  <path d="m247.39 285.85c-0.9513 1.0719-1.5785 2.4277-1.7794 3.8467-0.20648 1.458 0.0345 2.9643 0.60269 4.3228 0.50788 1.2142 1.2756 2.319 2.2365 3.2184-0.71582 0.57773-1.1241 1.5164-1.0586 2.434 0.06 0.8413 0.48392 1.6083 0.91419 2.3338 0.56924 0.95974 1.1678 1.9035 1.6786 2.8956 0.64808 1.2588 1.1502 2.5864 1.6715 3.9027 0.22077 0.55738 0.45593 1.1298 0.88084 1.5527 0.27221 0.27094 0.60855 0.46615 0.93315 0.67143 0.59131 0.37395 1.1547 0.78996 1.721 1.2008 0.50494 0.36639 1.0183 0.73221 1.5947 0.971 0.33582 0.13913 0.69163 0.23451 1.0072 0.415 0.60349 0.34521 0.99864 0.96402 1.5527 1.384 0.33136 0.25118 0.71489 0.42707 1.1104 0.55532 0.22679 0.0735 0.45854 0.13208 0.68194 0.21536 0.86402 0.3221 1.5493 0.99121 2.1606 1.6815 0.61138 0.69029 1.1869 1.4294 1.9381 1.9642 0.36012 0.25638 0.77463 0.46675 1.2166 0.47478 0.29895 5e-3 0.59099-0.0818 0.87649-0.1706 0.28551-0.0888 0.57529-0.18084 0.87425-0.18548 0.23482-4e-3 0.4702 0.0479 0.68249 0.14837 0.3325 0.15732 0.59884 0.42723 0.82603 0.71651 0.22719 0.28929 0.42259 0.60293 0.65765 0.88586 0.4575 0.55066 1.0504 0.96838 1.6024 1.4243 0.77177 0.63754 1.4708 1.3572 2.1958 2.0475 1.0205 0.97157 2.0937 1.886 3.1751 2.7893 1.5652 1.3074 3.1582 2.6019 4.4807 4.1543 0.56024 0.65761 1.0696 1.359 1.6617 1.9881 0.49559 0.52659 1.0467 0.99968 1.632 1.4243 0.48239 0.34998 0.98837 0.66746 1.5134 0.94956 0.4064-0.85425 0.65891-1.7814 0.7418-2.7238 0.0285-0.32422 0.0371-0.65018 0.0258-0.97545 0.15982 0.13925 0.34135 0.25355 0.536 0.33748 0.23032 0.0993 0.48042 0.15608 0.73121 0.15204 0.25079-4e-3 0.50207-0.0702 0.7155-0.20194 0.26398-0.16297 0.46123-0.42028 0.58855-0.70318 0.12731-0.2829 0.18869-0.59137 0.22195-0.89981 0.0264-0.24469 0.0357-0.49121 0.0278-0.73719 0.71576 0.47072 1.261 1.1951 1.5152 2.0132 0.35776 1.151 0.1426 2.4014 0.34292 3.5899 0.0938 0.55642 0.27931 1.0971 0.54554 1.5947 0.58659 1.0962 1.604 1.9865 2.8116 2.2819 0.81493 0.19934 1.6739 0.12671 2.4958-0.0418 0.19382-0.0397 0.39327-0.0849 0.5875-0.0472 0.2248 0.0436 0.41758 0.19635 0.5503 0.38296 0.13494 0.18973 0.21456 0.41361 0.26824 0.64016 0.0537 0.22655 0.0829 0.4581 0.12682 0.68674 0.0577 0.30064 0.14156 0.59807 0.276 0.8731 0.13445 0.27503 0.32128 0.52774 0.5633 0.71521 0.3667 0.28405 0.83616 0.40227 1.2975 0.45029 0.46136 0.048 0.92775 0.033 1.3886 0.0856 0.31131 0.0356 0.62989 0.10669 0.88126 0.29375 0.23665 0.1761 0.39366 0.44132 0.49573 0.71808 0.10208 0.27676 0.1547 0.56875 0.22163 0.85604 0.37085 1.592 1.2399 3.1128 2.5975 4.0232 0.27846 0.18673 0.57669 0.3474 0.89597 0.44973 0.31927 0.10234 0.6608 0.14501 0.99244 0.0958 0.43398-0.0644 0.83104-0.28085 1.259-0.37768 0.31657-0.0716 0.64965-0.0761 0.96519 0 0.53681 0.12941 0.99589 0.48279 1.3646 0.8938 0.36875 0.41102 0.66144 0.88316 0.98539 1.3303 0.92314 1.2743 2.1091 2.3517 3.4411 3.1893 0.67432 0.42402 1.3855 0.78744 2.0563 1.217 0.41239 0.26406 0.8086 0.55252 1.217 0.82274 0.67896 0.44927 1.3912 0.84791 2.0563 1.3175 1.2476 0.88077 2.3079 1.9951 3.3992 3.0634 1.0106 0.98935 2.0764 1.9601 3.3572 2.5598 0.72241 0.3383 1.498 0.55092 2.2241 0.88127 0.82172 0.37387 1.5698 0.89417 2.2661 1.4688 1.5969 1.3178 2.9682 2.9816 3.619 4.947 0.24624 0.74367 0.38657 1.5223 0.41543 2.3052 1.8035 0.16558 3.5928 0.48678 5.3412 0.95887 0.61221 0.1653 1.2391 0.35944 1.7211 0.77152 0.30461 0.26042 0.53684 0.59728 0.71606 0.95573 0.17922 0.35844 0.30787 0.73971 0.42995 1.1214 0.4311 1.3479 0.79038 2.7264 1.3958 4.0056 0.56851 1.201 1.36 2.3103 2.392 3.1474 0.55477 0.44999 1.1726 0.81725 1.7294 1.2647 0.55685 0.44742 1.0638 0.99602 1.292 1.6729 0.23875 0.70787 0.1506 1.4773 0.16786 2.2241 9e-3 0.38413 0.0472 0.77124 0.16749 1.1362 0.12028 0.36492 0.32748 0.70846 0.62984 0.94555 0.27695 0.21716 0.61991 0.33555 0.96562 0.40144 0.34572 0.0659 0.69858 0.0828 1.0487 0.11867 0.0896 9e-3 0.17948 0.0197 0.26616 0.0441 0.0867 0.0244 0.17063 0.0634 0.23742 0.12377 0.0683 0.0618 0.11638 0.14416 0.1443 0.23195 0.0279 0.0878 0.0364 0.18097 0.0329 0.27303-7e-3 0.18412-0.0602 0.36288-0.0933 0.54414-0.10726 0.58745 9.3e-4 1.1989 0.21809 1.7551s0.5394 1.0648 0.87299 1.5601c0.67436 1.0012 1.4051 1.9668 2.2241 2.8536 0.55446 0.60031 1.1563 1.1738 1.5527 1.8884 0.37461 0.67525 0.54708 1.444 0.88126 2.1402 0.31465 0.65547 0.76631 1.2339 1.217 1.8045 0.14933 0.18905 0.29945 0.37859 0.42228 0.58584 0.12284 0.20724 0.21832 0.43417 0.24916 0.6731 0.0397 0.30781-0.0288 0.61779-0.0839 0.92323-0.14155 0.78546-0.19525 1.5848-0.20358 2.3828-0.0143 1.3722 0.10512 2.7458 0.35608 4.095 0.91298-0.13661 1.8704 0.0442 2.6706 0.50445 0.69996 0.40255 1.2694 1.0044 1.7276 1.6692 0.64331 0.93355 1.0823 2.0016 1.3288 3.1082 0.15466 0.69445 0.2347 1.4042 0.26708 2.1149 0.0164 0.35974 0.0211 0.72362 0.10966 1.0727 0.0443 0.17452 0.10969 0.34457 0.20422 0.49782 0.0945 0.15324 0.21884 0.28949 0.36959 0.38796 0.25734 0.16809 0.58048 0.21737 0.88526 0.17752 0.30478-0.0399 0.59339-0.16321 0.85944-0.31716 0.53208-0.3079 0.9935-0.74317 1.5663-0.96637 0.58574-0.22824 1.2665-0.20849 1.8317 0.0666 0.48243 0.23479 0.86985 0.6444 1.1174 1.1204 0.22904 0.44036 0.34233 0.93236 0.40615 1.4246 0.0638 0.49224 0.0803 0.98934 0.12797 1.4834 0.1016 1.0535 0.3457 2.0932 0.72358 3.0818 0.61774-0.50364 1.3187-0.90496 2.0657-1.1827 0.49114-0.18262 1.0086-0.31288 1.5326-0.30721 0.52397 6e-3 1.057 0.15581 1.4644 0.48525 0.43411 0.35097 0.69626 0.87905 0.82687 1.4218 0.1306 0.54275 0.14146 1.1061 0.15236 1.6643 0.0245 1.2565 0.0525 2.513 0.0839 3.7694 1.4697-0.30149 2.8615-0.97471 4.0103-1.9397 0.19739-0.16582 0.3904-0.3419 0.61985-0.45942 0.11473-0.0588 0.23816-0.10225 0.36601-0.11868 0.12785-0.0164 0.26033-5e-3 0.38036 0.0419 0.1316 0.0515 0.24426 0.14406 0.33572 0.2518 0.23816 0.28057 0.33526 0.65812 0.34844 1.0259 0.0132 0.36778-0.05 0.73335-0.0967 1.0984-0.12354 0.96651-0.13333 1.9523-0.37768 2.8956-0.0863 0.33312-0.20129 0.65835-0.28489 0.99215-0.0836 0.33381-0.13564 0.68072-0.0928 1.0222 0.0599 0.4771 0.30884 0.9241 0.66862 1.2431 0.35977 0.31902 0.82551 0.51123 1.3037 0.56138 0.50552 0.053 1.0135-0.0472 1.5216-0.0608 0.25405-7e-3 0.51064 8e-3 0.75613 0.0742 0.24548 0.0658 0.48031 0.18435 0.65979 0.36429 0.27423 0.27494 0.39681 0.66624 0.46162 1.0491 0.1265 0.74728 0.069 1.5147 0.16786 2.2661 0.031 0.23583 0.078 0.47141 0.16916 0.69109 0.0912 0.21969 0.22899 0.42389 0.41834 0.56785 0.15229 0.11578 0.33296 0.18929 0.51734 0.2403 0.18437 0.051 0.37385 0.0806 0.56169 0.11687 0.18784 0.0362 0.3757 0.0796 0.551 0.15615 0.1753 0.0766 0.33868 0.18858 0.45241 0.3424 0.11906 0.16102 0.17815 0.36044 0.19646 0.55986 0.0183 0.19942-2e-3 0.40031-0.0291 0.59873-0.0259 0.18938-0.0582 0.37919-0.1238 0.55873s-0.16634 0.3496-0.31157 0.47386c-0.12414 0.10621-0.27649 0.17546-0.43363 0.22015-0.15714 0.0447-0.31987 0.0659-0.48213 0.085-0.16225 0.0191-0.32519 0.0362-0.48435 0.0731s-0.31549 0.0943-0.44952 0.18769c-0.16871 0.11759-0.29614 0.28904-0.37762 0.47787-0.0815 0.18882-0.11864 0.39467-0.12755 0.60013-0.0178 0.41092 0.0746 0.81753 0.12078 1.2262 0.0675 0.59766 0.0328 1.2187-0.19859 1.7738-0.19951 0.47863-0.53413 0.8858-0.81988 1.3185-0.14287 0.21636-0.27474 0.44143-0.37007 0.68253-0.0953 0.24111-0.15353 0.49947-0.14537 0.75861 9e-3 0.27216 0.0915 0.54161 0.23739 0.77151 0.4262 0.46221 0.79245 0.97964 1.0867 1.5353 0.28246 0.53336 0.50151 1.117 0.50358 1.7206 2e-3 0.55676-0.18045 1.0978-0.40043 1.6093s-0.48029 1.0074-0.64869 1.5381c-0.18002 0.56731-0.25162 1.1688-0.20982 1.7625 0.30232-0.0816 0.61151-0.13785 0.92322-0.16786 0.41866-0.0403 0.84186-0.0333 1.2589 0.021 0.2407 1.337 0.27382 2.7112 0.0978 4.0583-0.0975 0.74596-0.25904 1.4847-0.50445 2.1958-0.22224 0.644-0.51328 1.2662-0.67193 1.9288-0.29815 1.2452-0.11195 2.5477-0.12928 3.8279-5e-3 0.34683-0.0245 0.69346-0.0593 1.0386-0.10679 0.22673-0.21193 0.45424-0.31542 0.6825-0.27791 0.61297-0.54507 1.2348-0.70843 1.8877-0.16335 0.6529-0.21994 1.3425-0.0741 1.9996 0.0346 0.15587 0.0811 0.3109 0.1613 0.44898s0.19666 0.25902 0.34315 0.32253c0.13825 0.0599 0.29533 0.0656 0.44395 0.0408 0.14862-0.0249 0.29066-0.0787 0.43055-0.13475 0.21292-0.0853 0.42354-0.17622 0.63158-0.27277 8e-3 0.62542-0.18642 1.2519-0.54765 1.7625-0.43894 0.62046-1.0926 1.0468-1.6955 1.5096-0.30143 0.23141-0.59478 0.47648-0.8449 0.76258-0.25011 0.2861-0.45679 0.61576-0.56502 0.98004-0.14925 0.50235-0.10083 1.0592 0.12589 1.5317 0.15129 0.31528 0.37962 0.59325 0.65951 0.80289-0.48397 0.38775-1.0589 0.66118-1.6651 0.79188-0.43818 0.0945-0.88832 0.11494-1.3353 0.14837-1.2022 0.0899-2.399 0.27635-3.5622 0.59347-0.80089 0.21835-1.5865 0.49867-2.4022 0.65282-1.0245 0.19362-2.0746 0.18433-3.1157 0.24073-1.2986 0.0704-2.6118 0.24293-3.8908 7e-3 -0.73664-0.13589-1.441-0.40411-2.1552-0.6301-0.71417-0.22599-1.4551-0.4121-2.2033-0.37525-0.92013 0.0453-1.7858 0.42262-2.6706 0.67894-0.43606 0.12631-0.88133 0.22423-1.3056 0.38571-0.86092 0.32764-1.613 0.9131-2.1929 1.6288-1.1208 1.3833-1.5763 3.169-2.1564 4.8522-0.25897 0.75146-0.55115 1.5077-0.58758 2.3017-0.0307 0.66842 0.13444 1.3605 0.54554 1.8884 0.34662 0.44514 0.84666 0.75048 1.3725 0.95484 0.52587 0.20436 1.0822 0.3158 1.6334 0.43638 0.76811 0.16805 1.5348 0.35648 2.2661 0.64538 0.76615 0.30268 1.4847 0.71211 2.2241 1.0752 1.2577 0.61755 2.5815 1.1027 3.9447 1.4268 1.3405 0.31872 2.7125 0.48086 4.0706 0.7134 1.4419 0.24688 2.8709 0.57362 4.3224 0.75537 1.6606 0.20792 3.3413 0.22486 4.9994 0.45225 1.972 0.27046 3.893 0.83597 5.8598 1.1424 0.84259 0.13128 1.6918 0.21473 2.5411 0.29193 2.272 0.20652 4.5734 0.36782 6.8249 0 0.63346-0.10349 1.2607-0.2486 1.8991-0.31534 1.2033-0.1258 2.4155 0.0292 3.6227 0.10934 1.2072 0.0801 2.451 0.08 3.5864-0.33777 0.42321-0.15571 0.82368-0.36691 1.217-0.5875 1.8248-1.0235 3.5556-2.293 4.784-3.9867 0.32229-0.44433 0.61345-0.92904 0.7134-1.4688 0.0692-0.37346 0.0438-0.75695 0.0294-1.1365s-0.0164-0.76697 0.0965-1.1296c0.10798-0.34676 0.3173-0.65523 0.56484-0.92099 0.24755-0.26575 0.53365-0.49223 0.81999-0.71563 0.84543-0.6596 1.7125-1.3106 2.392-2.1402 0.40699-0.4969 0.75036-1.08 0.79733-1.7206 7e-3 -0.0915 7e-3 -0.18414 0.0281-0.27354 0.0104-0.0447 0.0258-0.0885 0.0487-0.12822 0.0229-0.0398 0.0534-0.0755 0.091-0.10182 0.0418-0.0293 0.0916-0.0462 0.14219-0.0527 0.0506-7e-3 0.10217-3e-3 0.15237 6e-3 0.10038 0.0185 0.1951 0.0593 0.29295 0.0883 0.26144 0.0777 0.54376 0.0705 0.80864 6e-3 0.26487-0.065 0.51348-0.18601 0.74402-0.33173 0.67203-0.42479 1.1961-1.0613 1.5527-1.7719 0.69742-1.3898 0.75979-2.997 1.0072-4.5322 0.0651-0.40398 0.14608-0.81243 0.33572-1.175 0.0955-0.18262 0.2188-0.35239 0.37464-0.48724 0.15585-0.13485 0.34538-0.23378 0.54859-0.26813 0.27872-0.0471 0.5633 0.0279 0.8294 0.1233 0.26609 0.0954 0.52766 0.21259 0.80723 0.25439 0.47 0.0703 0.96808-0.0909 1.3112-0.41965 0.30197-0.28936 0.47775-0.68752 0.58751-1.0911 0.21748-0.79962 0.20166-1.6425 0.15779-2.47-0.0439-0.82751-0.11398-1.661-2.6e-4 -2.4818 0.16055-1.1588 0.68458-2.2725 0.62947-3.4411-0.0308-0.65248-0.25259-1.3032-0.67143-1.8045-0.30078-0.35995-0.69302-0.6352-0.99116-0.99735-0.10492-0.12745-0.2004-0.2724-0.21867-0.43647-9e-3 -0.082 2e-3 -0.16729 0.0394-0.24098 0.0372-0.0737 0.10127-0.13489 0.17928-0.16185 0.0694-0.024 0.14609-0.0203 0.21712-2e-3 0.071 0.0187 0.13744 0.0515 0.20253 0.0855 0.30785 0.16088 0.59925 0.35262 0.91222 0.5033 0.31298 0.15068 0.65529 0.26057 1.0022 0.24227 0.33346-0.0176 0.65721-0.15642 0.90846-0.37637 0.25125-0.21996 0.4302-0.51853 0.51834-0.84061 0.15308-0.55941 0.0355-1.153-0.0839-1.7206-0.3552-1.6888-0.72345-3.3935-0.6918-5.119 2e-3 -0.13235 8e-3 -0.2672 0.0525-0.39176 0.0224-0.0623 0.0548-0.12142 0.0987-0.17087 0.044-0.0494 0.0999-0.089 0.16285-0.10953 0.0825-0.027 0.17275-0.0205 0.25707 2.5e-4 0.0843 0.0207 0.16456 0.055 0.24651 0.0837 0.53756 0.1881 1.1354 0.12921 1.6786-0.042 0.74308-0.23422 1.4322-0.68931 1.8564-1.3429 0.28844-0.44446 0.44667-0.96773 0.48481-1.4962 0.0381-0.52848-0.0413-1.062-0.20103-1.5672-0.12397-0.39207-0.29685-0.77271-0.3512-1.1803-0.0272-0.2038-0.0237-0.41364 0.0308-0.61189 0.0545-0.19824 0.16213-0.38461 0.32037-0.51587 0.12577-0.10432 0.27788-0.17053 0.41965-0.25179 0.37336-0.21401 0.67706-0.53524 0.91757-0.89211 0.26489-0.39303 0.45981-0.83752 0.534-1.3056 0.0786-0.49601 0.0209-1.0028-0.0522-1.4997s-0.16173-0.99545-0.14453-1.4974c0.0116-0.33861 0.0713-0.67343 0.1187-1.0089 0.0806-0.57043 0.12589-1.153 0.0297-1.7211-0.15686-0.92635-0.68022-1.7626-0.81569-2.6924-0.11328-0.77741 0.0524-1.5675 0.26178-2.3248 0.20934-0.75721 0.46456-1.509 0.53555-2.2914 0.0924-1.0188-0.1323-2.0397-0.41965-3.0215-0.13269-0.45336-0.2791-0.90298-0.39285-1.3615-0.37066-1.494-0.38865-3.0569-0.7402-4.5556-0.0651-0.27736-0.143-0.55578-0.28746-0.80132-0.14447-0.24554-0.36345-0.45785-0.63576-0.54156-0.14827-0.0456-0.30801-0.0515-0.46012-0.0211-0.15212 0.0304-0.29648 0.0967-0.42114 0.18901-0.0971 0.0719-0.18411 0.1603-0.29423 0.21003-0.055 0.0249-0.11576 0.0394-0.17596 0.0344s-0.11977-0.0308-0.15929-0.0765c-0.024-0.0277-0.04-0.0619-0.0486-0.0976-9e-3 -0.0357-0.01-0.0729-6e-3 -0.10938 7e-3 -0.073 0.0324-0.14284 0.0549-0.21267 0.20425-0.63329 0.17786-1.3185 0.0806-1.9768-0.0973-0.65827-0.263-1.3061-0.33237-1.9679-0.0664-0.63336-0.046-1.2858-0.25179-1.8884-0.17608-0.51561-0.50817-0.96405-0.7134-1.4688-0.23694-0.5827-0.29902-1.2258-0.54555-1.8045-0.19146-0.44945-0.4875-0.84472-0.76069-1.2497-0.2732-0.40501-0.53031-0.83491-0.62737-1.3137-0.0566-0.2794-0.0566-0.57016 0-0.84956 3.4979 1.9928 7.4789 3.1306 11.502 3.2871 3.0392 0.11824 6.1693-0.30301 9.0644 0.62944 2.6825 0.86397 4.9381 2.8303 7.6796 3.4831 1.1303 0.26912 2.3046 0.30381 3.4411 0.54554 1.4869 0.31627 2.873 0.97811 4.2804 1.5527 0.33427 0.13647 0.67241 0.26885 1.0257 0.34352 0.35326 0.0747 0.725 0.0897 1.0726-8e-3 0.48229-0.13528 0.87805-0.47197 1.2589-0.79734 0.0852-0.0728 0.17118-0.14597 0.2683-0.20197 0.0971-0.056 0.20712-0.0945 0.3192-0.0918 0.13522 3e-3 0.26297 0.0659 0.37118 0.14703 0.10822 0.0811 0.20076 0.18095 0.30022 0.27262 0.46785 0.43122 1.0743 0.67183 1.6468 0.94946 0.93119 0.45157 1.8044 1.0225 2.5916 1.6943 0.13651-0.80271 0.16484-1.6238 0.084-2.434-0.0208-0.20867-0.0488-0.41662-0.084-0.62336 1.1105 0.90144 2.6195 1.2922 4.0279 1.043 0.72206-0.12775 1.4152-0.41655 2.0143-0.8393-0.28687 1.22-0.35823 2.4904-0.2098 3.7349 0.11325 0.94946 0.35387 1.8836 0.7134 2.7697 0.21719-0.98614 0.85466-1.8724 1.7205-2.392 0.18336-0.11003 0.3784-0.20501 0.58713-0.25146 0.20873-0.0464 0.433-0.0418 0.62987 0.0416 0.15308 0.0649 0.284 0.17473 0.39235 0.30086 0.10836 0.12613 0.19565 0.26875 0.27915 0.41254 0.21195 0.36499 0.40393 0.74496 0.52139 1.1504 0.11747 0.40539 0.15803 0.83923 0.0661 1.2512-0.0725 0.32505-0.22897 0.63341-0.4616 0.87174-0.335 0.34321-0.80853 0.52817-1.1331 0.88126-0.22689 0.24682-0.36762 0.56354-0.44516 0.88971-0.0775 0.32616-0.0951 0.66348-0.10034 0.9987-0.0181 1.1631 0.10915 2.3284 0.378 3.4601 1.0124-0.0526 2.0357 0.11381 2.9792 0.48462 0.21848 0.0859 0.43371 0.18306 0.63025 0.31143 0.19655 0.12836 0.37461 0.28921 0.50275 0.4859 0.16989 0.26078 0.24535 0.57492 0.25596 0.88598 0.0106 0.31105-0.0406 0.62102-0.10741 0.92499-0.13368 0.60795-0.33212 1.2255-0.23255 1.84 0.0833 0.51429 0.3899 0.99536 0.8393 1.259 0.33394 0.19586 0.72585 0.26729 1.1113 0.30327 0.38546 0.036 0.77523 0.0401 1.1548 0.11637 0.14987 0.0301 0.29896 0.072 0.43317 0.14514 0.1342 0.0732 0.25347 0.17991 0.32213 0.31648 0.0898 0.17855 0.0858 0.38766 0.084 0.5875-7e-3 0.77087 0.0469 1.5412 0.1259 2.3081 0.35212 3.4165 1.2521 6.8778 3.3255 9.6159 0.12291 0.16231 0.25036 0.32249 0.40047 0.46004 0.1501 0.13755 0.32456 0.2525 0.51943 0.31147 0.22115 0.0669 0.45966 0.059 0.68578 0.0115 0.22611-0.0475 0.44219-0.13318 0.6559-0.221 0.21371-0.0878 0.42727-0.17849 0.65087-0.2367 0.22359-0.0582 0.45964-0.0831 0.68615-0.0375 0.23836 0.048 0.45977 0.17488 0.62346 0.35466 0.1637 0.17978 0.26917 0.41129 0.29984 0.65249 0.0463 0.3643-0.0733 0.7262-0.1679 1.081-0.36537 1.3711-0.3661 2.84 0.016 4.2065 0.10789 0.38586 0.24883 0.76942 0.4877 1.0911 0.2643 0.35589 0.63469 0.61777 1.014 0.84724 0.37929 0.22946 0.77574 0.43404 1.1262 0.70546 0.4138 0.32045 0.75952 0.73572 0.9652 1.217 0.24513 0.57357 0.28341 1.2107 0.32824 1.8328 0.0448 0.62214 0.1043 1.2612 0.38516 1.8181 0.29211 0.57924 0.79639 1.0168 1.217 1.5107 0.92376 1.0847 1.4512 2.4618 1.7208 3.8608 0.17048 0.88456 0.24387 1.7992 0.084 2.6858-0.10784 0.59799-0.31956 1.1723-0.4516 1.7655-0.15057 0.6764-0.19264 1.4018 0.059 2.0475 0.15769 0.40459 0.42236 0.7576 0.62006 1.1442 0.0988 0.19331 0.18141 0.3967 0.22204 0.60998 0.0406 0.21328 0.038 0.43752-0.0302 0.64365-0.0731 0.22109-0.21865 0.41305-0.39117 0.56947s-0.37199 0.27992-0.57403 0.39572c-0.51436 0.29482-1.0559 0.54744-1.5316 0.90136-0.47565 0.35391-0.89063 0.83002-1.0282 1.4067-0.0721 0.30228-0.065 0.61845-0.0273 0.92693s0.10522 0.61248 0.15324 0.91952c0.0226 0.14433 0.0409 0.29073 0.0279 0.43624s-0.0595 0.29149-0.15377 0.40306c-0.0718 0.085-0.16823 0.14649-0.27013 0.19122-0.1019 0.0447-0.20988 0.0737-0.31737 0.10253-1.5278 0.40944-3.0582 0.81839-4.6162 1.0911-0.77586 0.13579-1.5655 0.23782-2.35 0.16786-0.80094-0.0714-1.5736-0.3197-2.35-0.52898-1.8266-0.49238-3.7114-0.77499-5.6028-0.81295-1.7237-0.0346-3.4648 0.13695-5.1038 0.6719-1.4015 0.45743-2.7061 1.1725-3.9466 1.969-0.8087 0.51924-1.611 1.0914-2.1617 1.879-0.28681 0.41023-0.50212 0.88485-0.52844 1.3847-0.0132 0.24992 0.0218 0.50353 0.1134 0.73643 0.0916 0.23291 0.24082 0.44451 0.43704 0.59986 0.19848 0.15713 0.43756 0.25285 0.65455 0.38324 0.10849 0.0652 0.21235 0.13983 0.29896 0.23213 0.0866 0.0923 0.15563 0.20325 0.18699 0.32588 0.0418 0.16351 0.015 0.33547 0 0.50357-0.0686 0.76769 0.11978 1.5501 0.4935 2.2241 0.64954 1.1716 1.8047 1.9742 2.9896 2.599 1.3364 0.70478 2.7639 1.239 4.2384 1.5685 1.6759 0.37446 3.4028 0.48324 5.1197 0.44863 1.7364-0.035 3.4823-0.2148 5.2036 0.0165 0.77199 0.10374 1.5325 0.28959 2.3081 0.36118 0.48793 0.045 0.9788 0.0446 1.4688 0.042 1.951-0.0102 3.902-0.0525 5.8505-0.15171 0.94747-0.0482 1.9034-0.10947 2.8401 0.0411 1.5464 0.24857 2.957 1.0606 4.5009 1.3242 1.5129 0.25835 3.0575-0.0234 4.5842-0.18103 3.5333-0.36489 7.1056-0.0616 10.647-0.33869 1.7936-0.14036 3.5747-0.42961 5.3251-0.84526 1.147-0.27237 2.331-0.62667 3.1811-1.4435 0.29016-0.2788 0.53214-0.60357 0.81064-0.89401 0.27851-0.29044 0.60573-0.55251 0.99386-0.65869 0.26604-0.0728 0.5475-0.0685 0.82155-0.0373 0.27404 0.0312 0.54454 0.0888 0.81845 0.12118 0.82041 0.0971 1.661-0.0353 2.4306-0.33572 1.2432-0.48524 2.2739-1.3806 3.3991-2.0982 1.0134-0.64631 2.1289-1.1651 2.9795-2.0143 0.54163-0.54074 0.95927-1.205 1.2119-1.9274 0.57593 0.0932 1.1805 8e-5 1.7017-0.26201 0.52123-0.26208 0.9565-0.69186 1.2252-1.2097 0.27678-0.53346 0.37485-1.1463 0.36095-1.7471-0.0139-0.60082-0.13522-1.1939-0.27695-1.7779-0.28864-1.1894-0.6643-2.3597-0.8655-3.567-0.17533-1.052-0.21635-2.1239-0.1678-3.1893 7e-3 -0.162 0.0173-0.32644 0.071-0.47945 0.0269-0.0765 0.0647-0.1496 0.11598-0.21245 0.0512-0.0629 0.11613-0.11527 0.19058-0.14739 0.0737-0.0318 0.15495-0.0431 0.23516-0.0419 0.0802 1e-3 0.15975 0.0146 0.23835 0.0306 0.15722 0.032 0.31682 0.075 0.47579 0.0533 0.10849-0.0148 0.21192-0.0598 0.30063-0.124 0.0887-0.0642 0.16302-0.14715 0.22269-0.23896 0.11935-0.18362 0.17951-0.39902 0.22478-0.61328 0.18233-0.86289 0.14869-1.7584 0.033-2.6327-0.14531-1.0982-0.41896-2.1794-0.8136-3.2146 0.60467 0.0458 1.2153 0.0119 1.8112-0.10067 0.27152-0.0513 0.542-0.11954 0.79172-0.23784 0.24971-0.1183 0.4791-0.28951 0.63518-0.51753 0.20365-0.29753 0.26928-0.67165 0.25654-1.032-0.0127-0.36033-0.0979-0.71352-0.17254-1.0663-0.26161-1.2371-0.39654-2.4984-0.6612-3.7349-0.17185-0.80289-0.39794-1.5931-0.5875-2.392-0.0595-0.25097-0.11549-0.50279-0.1678-0.75536 0.32002 0.0458 0.65223 3e-3 0.95043-0.12149 0.2982-0.12486 0.56156-0.33175 0.75347-0.59191 0.25516-0.34591 0.37944-0.77726 0.3984-1.2067 0.019-0.42942-0.0627-0.8583-0.1887-1.2692-0.38642-1.26-1.1874-2.3814-1.43-3.6768-0.0425-0.22679-0.0672-0.4569-0.074-0.68753l1.7206 0.16789c0.78117 0.0178 1.566-0.15668 2.2661-0.50372 0.38879-0.19273 0.75409-0.44008 1.0503-0.7572s0.52141-0.70666 0.61181-1.1311c0.0972-0.45652 0.0365-0.93319-0.0776-1.3858-0.11414-0.4526-0.28073-0.8905-0.39938-1.3419-0.4236-1.6116-0.21998-3.3164 0.051-4.9606 0.12082-0.7331 0.25516-1.4667 0.4845-2.1734 0.0875-0.26962 0.19227-0.54097 0.3777-0.75536 0.16621-0.19217 0.38992-0.3286 0.62722-0.41938 0.23731-0.0908 0.48893-0.13814 0.74059-0.17312 0.50331-0.07 1.0284-0.0966 1.4794-0.33073 0.43937-0.22809 0.76618-0.63779 0.9652-1.0911 0.25695-0.58523 0.31507-1.2363 0.34599-1.8747 0.0309-0.6384 0.0391-1.2852 0.20611-1.9021 0.25912-0.95697 0.89381-1.7862 1.6786-2.392 0.43878-0.33872 0.93207-0.6165 1.4687-0.75536 0.70185-0.18161 1.4406-0.11895 2.1633-0.0623 0.72275 0.0567 1.4651 0.10411 2.1591-0.10553 0.60273-0.18207 1.1315-0.54731 1.6366-0.92323 0.96134-0.7155 1.8992-1.515 2.4841-2.5609 0.1839-0.32886 0.33314-0.69152 0.3264-1.0682-5e-3 -0.27886-0.0951-0.54866-0.193-0.80981-0.0979-0.26114-0.20545-0.52174-0.248-0.79738-0.0101-0.0655-0.0164-0.13296-2e-3 -0.19777 7e-3 -0.0324 0.0192-0.0639 0.0375-0.0915s0.043-0.0513 0.0723-0.0668c0.0404-0.0213 0.0884-0.0262 0.13316-0.0174 0.0448 9e-3 0.0863 0.0309 0.12149 0.06 0.0703 0.0582 0.11397 0.14185 0.15295 0.22439 0.26899 0.56964 0.40021 1.1927 0.5349 1.8081 0.13469 0.61539 0.27774 1.2373 0.5673 1.7967 0.27606 0.53339 0.68298 0.99845 1.175 1.3429 0.78234-0.53173 1.4572-1.2209 1.9723-2.0143 0.71961-1.1083 1.1167-2.3916 1.7206-3.567 0.2788-0.54266 0.60196-1.0625 0.9652-1.5527 0.41281 0.42459 0.9671 0.70922 1.5527 0.79733 0.80839 0.12163 1.6337-0.12607 2.3579-0.50529 0.86037-0.45051 1.6292-1.1006 2.1365-1.9288 0.2418-0.39472 0.42262-0.8267 0.5341-1.276 0.83014-0.21824 1.6008-0.65852 2.2104-1.2628 0.36578-0.36258 0.67588-0.78636 0.87532-1.2612 0.19944-0.47485 0.2851-1.0023 0.20808-1.5116-0.076-0.50266-0.30445-0.96834-0.54691-1.4152-0.24246-0.44684-0.50398-0.88876-0.65589-1.3739-0.1357-0.43338-0.17963-0.90287-0.07-1.3436 0.13095-0.52643 0.46884-0.97669 0.8356-1.3764 0.17679-0.19267 0.36428-0.37915 0.58572-0.51822s0.48102-0.22878 0.74198-0.21216c0.28873 0.0184 0.55977 0.16718 0.7607 0.37535 0.17969 0.18617 0.30766 0.41767 0.39722 0.66042 0.0896 0.24275 0.14218 0.49749 0.18528 0.75262 0.10588 0.62671 0.15657 1.2639 0.31133 1.8803 0.15477 0.61646 0.42599 1.2244 0.89737 1.6508 0.19989 0.1808 0.43335 0.32577 0.68747 0.41561 0.25412 0.0898 0.52897 0.12379 0.79623 0.0888 0.29936-0.0391 0.58681-0.1654 0.81814-0.3594 0.23134-0.19399 0.40576-0.45504 0.49646-0.743 0.29385 0.0329 0.59224 0.0249 0.8839-0.0237 0.2774-0.0462 0.54891-0.12923 0.8031-0.24954 0.66406-0.3143 1.1874-0.87226 1.5849-1.4902s0.6817-1.3001 0.98114-1.971c0.40731-0.91256 0.84626-1.811 1.3158-2.6931 0.24152 0.41395 0.63311 0.73815 1.0849 0.89815 0.45176 0.16001 0.96011 0.15456 1.4083-0.0151 0.44201-0.1673 0.81958-0.48954 1.0755-0.88687 0.40239-0.62473 0.49877-1.3971 0.507-2.1402 9e-3 -0.83179-0.0792-1.6646-0.2629-2.4759 0.64587 0.0331 1.3004-0.12582 1.8591-0.45144 0.55876-0.32563 1.0197-0.81675 1.3093-1.395 0.34158-0.68211 0.44065-1.4613 0.4455-2.2241 5e-3 -0.80142-0.0884-1.6034-0.2776-2.3822 0.20281-0.57954 0.23239-1.2185 0.084-1.8143-0.17533-0.70398-0.58417-1.3233-0.9814-1.9304-0.26261-0.40134-0.52476-0.80706-0.7055-1.2513-0.28361-0.69715-0.35772-1.467-0.656-2.158-0.11005-0.25496-0.25176-0.50352-0.2843-0.7793-0.0163-0.13789-4e-3 -0.28131 0.0531-0.40808 0.0566-0.12678 0.15986-0.23543 0.29021-0.28326 0.11419-0.0419 0.24087-0.0356 0.36001-0.0111s0.23399 0.0665 0.35219 0.0952c0.26606 0.0646 0.54737 0.0606 0.81382-2e-3 0.26646-0.063 0.51803-0.18415 0.73909-0.34569 0.44213-0.32306 0.75528-0.8011 0.94589-1.3144 0.2536-0.68296 0.30121-1.4315 0.21027-2.1543-0.0909-0.72283-0.31633-1.423-0.59457-2.0964-0.64881-1.57-1.5823-3.0026-2.47-4.451-0.10736-0.17518-0.21467-0.35183-0.28981-0.54306-0.0751-0.19123-0.11719-0.39959-0.0889-0.6031 0.0284-0.20438 0.12662-0.39439 0.25462-0.55623 0.12799-0.16185 0.28527-0.29796 0.44612-0.42721 0.16086-0.12924 0.32665-0.25298 0.47646-0.39487s0.28442-0.30379 0.3695-0.49177c0.14862-0.32836 0.13369-0.71258 0.0295-1.0576s-0.2912-0.65844-0.4825-0.96391c-0.9306-1.4859-2.0042-2.8771-3.1078-4.2395-0.84333-1.0411-1.7054-2.067-2.5855-3.0772 0.49287-0.44321 0.7553-1.13 0.6836-1.7889-0.0703-0.64623-0.43229-1.219-0.7901-1.7617-1.0992-1.6672-2.2569-3.3071-3.6398-4.7478-1.03-1.0731-2.1796-2.03-3.1637-3.1454-0.74201-0.84102-1.3845-1.7664-1.9585-2.73-0.78376-1.3156-1.4669-2.7366-2.6113-3.7542-0.56245-0.50015-1.2165-0.88354-1.8397-1.3056-0.46871-0.31747-0.92384-0.66009-1.3166-1.0678-0.39275-0.4077-0.72285-0.88396-0.911-1.4179-0.16598-0.47101-0.21783-0.97302-0.31087-1.4637-0.093-0.49065-0.23592-0.98873-0.55053-1.3766-0.22168-0.27327-0.51623-0.47639-0.8092-0.67129-1.3813-0.91898-2.8252-1.7441-4.1731-2.7115-0.7994-0.57372-1.565-1.1978-2.2552-1.8991-0.81078-0.82378-1.512-1.748-2.2894-2.6035-0.77734-0.85541-1.649-1.654-2.6958-2.1443-0.39745-0.18617-0.81664-0.3259-1.2463-0.41543-0.2974-0.52778-0.64406-1.0278-1.034-1.4914-0.87213-1.0369-1.9627-1.8892-3.1797-2.4849-0.40155-0.54395-0.90815-1.01-1.4836-1.365-0.87822-0.54169-1.8944-0.81569-2.908-1.0089-0.25424-0.0485-0.51219-0.0931-0.74908-0.19741-0.11844-0.0521-0.23098-0.11919-0.32786-0.205-0.0969-0.0858-0.17785-0.19078-0.22876-0.30976-0.0719-0.16808-0.0813-0.35516-0.1187-0.53412-0.11604-0.55558-0.49654-1.0155-0.8902-1.4243-1.2926-1.3424-2.85-2.3953-4.3917-3.4421-1.1834-0.80352-2.3838-1.6193-3.7389-2.0772-0.68714-0.23218-1.4218-0.3765-2.0178-0.7899-0.65449-0.45401-1.0618-1.1769-1.6023-1.762-0.83764-0.9069-1.9991-1.4743-3.2048-1.7398-0.64197-0.14136-1.3016-0.20233-1.9586-0.18104 0.0119-0.21218-0.0291-0.42715-0.1185-0.61997-0.17194-0.37107-0.51138-0.64224-0.87939-0.82065s-0.76881-0.27581-1.1617-0.38934c-1.259-0.36377-2.4614-0.9024-3.7156-1.2824-1.422-0.43078-2.897-0.65369-4.362-0.90151-0.63982-0.10823-1.2892-0.22479-1.8695-0.51514-0.60581-0.30309-1.1046-0.77951-1.6617-1.1648-1.2545-0.86764-2.7681-1.2525-4.2136-1.7393-1.3642-0.45949-2.6967-1.023-4.095-1.365-1.4014-0.34272-2.8469-0.45748-4.273-0.67564-0.64671-0.0989-1.2961-0.22101-1.8991-0.47478-0.69084-0.29074-1.307-0.74868-2.0178-0.98653-1.0597-0.3546-2.2189-0.18725-3.3234-0.35689-1.0035-0.15413-1.9406-0.58267-2.9081-0.89021-1.2382-0.39358-2.5388-0.59036-3.838-0.58069-0.0163-0.25165-0.0303-0.50346-0.042-0.75537-0.0231-0.49796-0.0371-0.99634-0.042-1.4948-1.3985 0.0354-2.7976 0.044-4.1964 0.026-0.743-0.01-1.4878-0.0268-2.2242-0.12589-0.96591-0.12991-1.9066-0.39895-2.8536-0.62947-0.98639-0.24012-1.9823-0.439-2.9795-0.62948-0.98876-0.18887-1.9792-0.3696-2.9637-0.57967-0.36126-0.0771-0.72357-0.1587-1.0662-0.29673-0.78685-0.31699-1.4379-0.91798-2.2353-1.2073-0.85147-0.30895-1.8002-0.23765-2.6629-0.51375-0.72452-0.23188-1.3554-0.69837-2.0772-0.93869-0.901-0.3-1.8826-0.22823-2.819-0.0702-0.64422 0.10872-1.2831 0.257-1.8991 0.47478-0.5934 0.2098-1.1809 0.4872-1.8101 0.50445-0.58553 0.0161-1.1522-0.19604-1.6864-0.43629-1.1875-0.53404-2.305-1.2236-3.525-1.6786-1.3876-0.51755-2.8847-0.71927-4.3643-0.65524-1.4327 0.062-2.8427 0.36816-4.2385 0.69721-1.421 0.33501-2.8383 0.69536-4.2804 0.92322-0.27673 0.0437-0.55608 0.0827-0.83602 0.0716s-0.56285-0.0747-0.80058-0.22299c-0.23411-0.14599-0.41233-0.36526-0.57476-0.58827-0.16244-0.22301-0.31549-0.45599-0.51634-0.64514-0.41012-0.38623-0.98585-0.55436-1.5483-0.58631-0.56245-0.032-1.1235 0.0589-1.683 0.12471-1.2106 0.14251-2.4339 0.16888-3.6509 0.10001-1.4704-0.0832-2.9335-0.30506-4.4063-0.30984-0.61083-2e-3 -1.2332 0.0358-1.8046 0.25179-0.40969 0.15489-0.7849 0.40022-1.0911 0.7134-0.0491 0.18932-0.18747 0.35341-0.36582 0.43365-0.17836 0.0802-0.39297 0.075-0.56718-0.0139-0.11886-0.0606-0.21722-0.15694-0.29276-0.26694-0.0755-0.11-0.1293-0.2336-0.17262-0.35981-0.0866-0.25243-0.13387-0.51982-0.2539-0.75818-0.10557-0.20965-0.26522-0.39012-0.45289-0.53111-0.18767-0.14098-0.4029-0.24322-0.62722-0.31233-0.44865-0.13822-0.9269-0.14443-1.3958-0.12175-1.4279 0.0691-2.8364 0.39542-4.1808 0.88126-1.1438 0.41334-2.2423 0.94077-3.3572 1.4268-0.37587 0.16386-0.7651 0.32565-1.175 0.33572-0.47764 0.0117-0.93223-0.18267-1.3848-0.33572-1.3932-0.4711-2.8899-0.5684-4.358-0.48113-1.4921 0.0887-2.9679 0.36324-4.4214 0.71217-2.4228 0.58165-4.7955 1.3718-7.0833 2.359-0.9145 0.31992-1.8892 0.46672-2.8574 0.43034-0.99982-0.0376-1.9808-0.26732-2.9674-0.43395-0.82922-0.14006-1.7037-0.23198-2.4926 0.0593-0.56786 0.20966-1.0494 0.60366-1.6024 0.84985-0.20618 0.0918-0.42726 0.16349-0.65282 0.15591-0.29368-0.01-0.56407-0.15145-0.83086-0.2746-0.80272-0.37053-1.6709-0.59846-2.5519-0.67181-0.81113-0.0675-1.6287-5e-3 -2.4332 0.11869-1.1406 0.17517-2.2583 0.47178-3.3828 0.73068-1.2187 0.28059-2.4766 0.51828-3.714 0.33751-1.2715-0.18574-2.4335-0.79942-3.645-1.2277-0.46359-0.16389-0.93816-0.30153-1.4243-0.37511-0.62963-0.0953-1.2731-0.0824-1.8991-0.19929-0.41383-0.0773-0.81849-0.21179-1.187-0.41543-0.54434-0.30085-0.99885-0.74513-1.543-1.0463-0.57936-0.32062-1.2403-0.46726-1.8991-0.53417-1.0634-0.10802-2.1367-0.0181-3.2048-0.06-0.50097-0.0197-1.005-0.0692-1.4837-0.21833-0.34987-0.10904-0.68114-0.26973-1.0089-0.43367-1.0237-0.51203-2.0282-1.0617-3.0267-1.6212-0.59822-0.33519-1.2168-0.68133-1.8991-0.74966-0.48039-0.0481-0.96556 0.046-1.4243 0.19634-0.35592 0.11667-0.70067 0.26741-1.028 0.44949-0.50006-0.40445-1.0384-0.76156-1.6054-1.065-0.43793-0.23434-0.89346-0.4369-1.365-0.593-2.0741-0.68664-4.3214-0.44396-6.506-0.475-0.59884-9e-3 -1.2073-0.0372-1.7874 0.11172-0.54157 0.139-1.0318 0.4262-1.5527 0.62947-0.90127 0.35173-1.8887 0.44762-2.8536 0.37769-0.12899-9e-3 -0.25872-0.0218-0.38285-0.0581-0.12412-0.0363-0.24343-0.0981-0.33055-0.19372-0.0733-0.0804-0.12115-0.18198-0.14678-0.28772-0.0256-0.10574-0.0298-0.21577-0.0229-0.32436 0.0138-0.21717 0.0712-0.42975 0.0858-0.64687 0.0351-0.52364-0.19794-1.0582-0.60542-1.389-1.1339 0.15719-2.2898 0.15517-3.4232-6e-3 -0.47133-0.067-0.94152-0.16222-1.3848-0.33572-0.74475-0.29147-1.3852-0.79134-2.0563-1.2264-0.65793-0.4265-1.3564-0.79615-2.0982-1.05-0.52655-0.18018-1.0724-0.30126-1.5947-0.49341-0.68805-0.25313-1.3269-0.62645-2.0143-0.88126-0.61375-0.2275-1.2584-0.35771-1.8884-0.53543-0.2889-0.0815-0.57697-0.17392-0.84082-0.31706-0.26385-0.14313-0.50421-0.34045-0.66032-0.59684-0.19371-0.31813-0.24501-0.70369-0.24032-1.0761 5e-3 -0.37243 0.0608-0.74291 0.0629-1.1154 2e-3 -0.34511-0.0428-0.69045-0.13261-1.0237-0.56439 0.33166-1.1697 0.59366-1.7978 0.77817-0.45774 0.13447-0.93493 0.22834-1.4104 0.18935-0.47549-0.039-0.95215-0.22235-1.2753-0.57329-0.3407-0.36995-0.47896-0.88074-0.75536-1.3009-0.24626-0.37435-0.6027-0.67231-1.0072-0.86515-0.4303-0.20516-0.90794-0.29218-1.383-0.33151-0.47508-0.0393-0.95281-0.0331-1.4286-0.0623-0.53803-0.0331-1.0741-0.11193-1.5947-0.25179-1.218-0.32722-2.3189-0.97721-3.4411-1.5527-0.53012-0.27186-1.0701-0.52916-1.6366-0.7134-0.81012-0.26345-1.6633-0.37393-2.4759-0.62947-0.51962-0.1634-1.0201-0.38548-1.4963-0.64981-1.0784-0.59852-2.0342-1.4168-2.7917-2.3902 0.45744-0.33214 0.82487-0.78703 1.0534-1.3041 0.2285-0.51706 0.31749-1.095 0.25512-1.6568-0.081-0.72946-0.41225-1.4161-0.86297-1.9954-0.45072-0.57923-1.0177-1.0583-1.613-1.4877-0.55333-0.39916-1.137-0.76044-1.7625-1.033-0.52475-0.22864-1.0908-0.39545-1.6622-0.36256-0.28572 0.0164-0.56999 0.0837-0.82614 0.21131-0.25615 0.12765-0.48349 0.31691-0.6427 0.55474-0.26756 0.39968-0.32661 0.90416-0.31 1.3848 0.0208 0.6024 0.14912 1.2009 0.37706 1.7589-1.6282-1.1791-3.2814-2.3237-4.9581-3.4327-1.9192-1.2694-3.921-2.5142-6.1692-3.0046-1.9847-0.43297-4.0438-0.25239-6.0721-0.14085-2.0755 0.11413-4.1585 0.15354-6.2314 0-1.1164-0.0827-2.2278-0.22118-3.3422-0.32689-0.67001-0.0636-1.3473-0.11514-2.0143-0.0257-0.46673 0.0626-0.9215 0.19335-1.3848 0.27748-1.4214 0.25808-2.9134 0.0762-4.2973 0.49053-1.0784 0.32285-2.017 0.98608-3.0267 1.4837-0.78822 0.38845-1.6272 0.67807-2.4926 0.83086-1.0362 0.18295-2.0955 0.16856-3.1454 0.23739-2.1679 0.14212-4.2947 0.63909-6.4424 0.96731-1.7758 0.2714-3.5736 0.42864-5.3183 0.8566-0.98399 0.24136-1.9458 0.56766-2.9322 0.7994-1.6587 0.38972-3.367 0.50784-5.0551 0.73925-0.27453 0.0376-0.55044 0.0787-0.8128 0.16786-0.40163 0.13647-0.76404 0.38633-1.0344 0.71316-0.27039 0.32684-0.44792 0.72965-0.50673 1.1497z" fill="#dedede" stroke="#000" stroke-miterlimit="4.8" stroke-width="1.6"/>
  <g>
   <g stroke="#000">
    <path d="m244.89 282.16c-0.25384 0.94028-0.29393 1.9376-0.11639 2.8952 0.24692 1.3318 0.92886 2.5917 1.9602 3.4698 0.16334 0.13907 0.33646 0.2695 0.53054 0.36092 0.19407 0.0914 0.41135 0.14242 0.62434 0.11677 0.17341-0.0209 0.33837-0.0918 0.48362-0.18883 0.14525-0.097 0.27186-0.21958 0.38797-0.35006 0.58108-0.65299 0.89885-1.4916 1.3302-2.2518 0.23882-0.42085 0.51666-0.82515 0.67428-1.2826 0.11421-0.33152 0.16216-0.68791 0.1202-1.036-0.042-0.34812-0.1758-0.68732-0.39802-0.95855-0.21412-0.26136-0.5039-0.45368-0.81414-0.58749s-0.64167-0.21178-0.97422-0.27151c-1.2582-0.22598-2.5616-0.19713-3.8086 0.0843z" stroke-width=".5"/>
    <path d="m248.25 296.94-0.16544 0.62919c0.94049 0.51685 1.8051 1.1716 2.5575 1.9368 0.53141 0.54046 1.006 1.1343 1.453 1.7464 0.49312 0.67515 0.97441 1.3936 1.6835 1.8366 0.52479 0.32787 1.1365 0.47993 1.7211 0.683 0.82368 0.28615 1.6265 0.68493 2.4959 0.75209 0.28275 0.0218 0.56716 8e-3 0.84958-0.018 0.55801-0.051 1.1137-0.14806 1.674-0.14109 0.75125 9e-3 1.489 0.20586 2.1945 0.464 0.39457 0.14436 0.79578 0.31793 1.076 0.631 0.19423 0.21702 0.31704 0.48662 0.457 0.74203 0.0783 0.14293 0.16323 0.28353 0.2175 0.43721 0.0388 0.10983 0.0615 0.2253 0.10775 0.3322 0.0231 0.0534 0.0522 0.10471 0.0904 0.14873 0.0381 0.044 0.0856 0.0807 0.13988 0.10178 0.0568 0.0221 0.11996 0.0265 0.17985 0.0152 0.0599-0.0113 0.11648-0.0381 0.1649-0.0751 0.10295-0.0787 0.16612-0.20047 0.19806-0.32606 0.0319-0.12559 0.0356-0.2564 0.0393-0.38593 0.0291-1.005 0.0749-2.0156-0.0591-3.0121-0.13745-1.0222-0.46448-2.017-0.94449-2.9298-0.11754-0.22353-0.24488-0.44329-0.40347-0.63984-0.0719-0.0891-0.15193-0.17472-0.25204-0.23037-0.0501-0.0278-0.10483-0.0478-0.1616-0.0553-0.0568-8e-3 -0.1156-2e-3 -0.16907 0.0182-0.0922 0.0354-0.16198 0.11306-0.21432 0.19676-0.0523 0.0837-0.0907 0.17545-0.14238 0.25956-0.0969 0.15779-0.23927 0.28526-0.40031 0.37667-0.16104 0.0914-0.34041 0.14781-0.52291 0.17917-0.52865 0.0908-1.0709-0.0257-1.5834-0.184-0.43867-0.13554-0.86716-0.30193-1.2928-0.47395-0.40031-0.16176-0.79989-0.32911-1.2166-0.44205-0.71205-0.19298-1.4619-0.22278-2.1958-0.14805-0.72153 0.0735-1.4384 0.24665-2.1626 0.20705-0.84833-0.0464-1.6557-0.38331-2.3966-0.799-0.53856-0.30214-1.0514-0.64755-1.5737-0.977-0.47304-0.29838-0.9542-0.58387-1.4428-0.85606l-6e-5 3e-5z"/>
    <path d="m276.63 282.49c0.0515 0.6278 0.18419 1.2489 0.39358 1.843 0.25534 0.72446 0.623 1.4052 1.039 2.051 0.57188 0.88772 1.2378 1.7148 1.983 2.463-0.86163-0.62007-1.7772-1.1651-2.733-1.627-0.94409-0.4562-1.9275-0.83156-2.8487-1.3324-0.2684-0.14595-0.53108-0.30233-0.80119-0.4451-0.6258-0.33078-1.2906-0.58761-1.9763-0.76345 0.33008-0.45894 0.73354-0.86499 1.1904-1.198 1.0701-0.78006 2.4375-1.1411 3.7532-0.991z" stroke-linejoin="round" stroke-width="1px"/>
    <path d="m275.02 282.51c-0.47303-0.5067-0.95479-1.0052-1.445-1.4953-0.33718-0.3371-0.67837-0.67022-1.0259-0.99666-0.45417-0.42665-0.91907-0.84186-1.3941-1.2451 0.42303 0.89017 0.88564 1.7615 1.386 2.6106 0.37221 0.63164 0.7653 1.251 1.1784 1.8566z" stroke-linejoin="round" stroke-width=".6"/>
   </g>
   <path d="m304.29 311.54c1.0721 0.91802 2.4487 1.4741 3.8576 1.5584 0.94029 0.0562 1.885-0.0923 2.7893-0.35608 1.6136-0.47076 3.0992-1.3012 4.5104-2.2144 1.0172-0.65824 2.0166-1.3745 2.7893-2.3077 0.84937-1.0258 1.3935-2.2831 1.6784-3.5841 0.28492-1.3009 0.31848-2.647 0.22068-3.9752-0.11084-1.5053-0.41315-3.0557-1.3056-4.273-0.58544-0.79849-1.3902-1.4061-2.0587-2.1365-0.52937-0.57839-0.97057-1.2309-1.4646-1.8398-0.33211-0.40938-0.69014-0.80099-1.1024-1.1296s-0.88131-0.59354-1.3909-0.72856c-0.58225-0.15427-1.2097-0.13297-1.7804 0.0597-0.49547 0.16727-0.94718 0.46242-1.2994 0.849-0.0369-0.16039-0.0302-0.33061 0.0193-0.48757s0.14163-0.30025 0.26389-0.41043c0.12001-0.10816 0.26617-0.18316 0.41543-0.245 0.52355-0.21691 1.1084-0.28342 1.6673-0.18961 0.55889 0.0938 1.09 0.34765 1.514 0.72361" fill="none" stroke="#000" stroke-linecap="round" stroke-linejoin="round" stroke-miterlimit="4.8" stroke-width="1.6"/>
   <path d="m304.55 301.96c-0.0557-0.18764-0.0333-0.39219 0.0326-0.57645 0.066-0.18427 0.17336-0.35081 0.28905-0.50867 0.68697-0.93741 1.671-1.6032 2.5607-2.3509 0.19477-0.16368 0.3864-0.3325 0.59913-0.47206 0.21272-0.13956 0.44954-0.24997 0.70177-0.28331 0.33192-0.0439 0.67137 0.0493 0.96519 0.20982 0.62845 0.34335 1.0473 0.9619 1.4886 1.5259 0.15815 0.2021 0.32724 0.41053 0.37794 0.66209 0.0459 0.22794-0.0132 0.46805-0.12589 0.67144-0.20727 0.37415-0.57465 0.62558-0.90136 0.90164-0.12997 0.10982-0.25587 0.22594-0.4002 0.31606-0.14432 0.0901-0.3111 0.15375-0.48106 0.14556-0.12294-6e-3 -0.24203-0.0493-0.34836-0.11124-0.10633-0.062-0.20088-0.14224-0.29055-0.22655-0.17934-0.16861-0.34685-0.35896-0.56852-0.466-0.19837-0.0958-0.42752-0.11663-0.64558-0.0854-0.21806 0.0312-0.42636 0.11221-0.62291 0.21167-0.36909 0.18678-0.70067 0.4385-1.0491 0.66144-0.14453 0.0925-0.29318 0.1806-0.45395 0.24052-0.16077 0.0599-0.33528 0.0908-0.50502 0.0658-0.14248-0.021-0.27909-0.0819-0.38899-0.17496-0.10991-0.0931-0.19259-0.21826-0.23354-0.35634z" stroke="#000" stroke-width="1px"/>
   <path d="m304.29 311.64-0.50022 0.28004c0.55022 0.40472 1.0241 0.9128 1.3897 1.4898 0.25201 0.39782 0.45249 0.82709 0.71498 1.2181 0.26249 0.39098 0.60043 0.75122 1.0365 0.92895 0.33524 0.13662 0.70662 0.15669 1.0682 0.14017 0.37655-0.0172 0.75754-0.0718 1.1276 0 0.36509 0.0708 0.69483 0.26009 1.0143 0.45053 0.31945 0.19044 0.64266 0.38774 1.0035 0.4776 0.57232 0.14251 1.1806-1e-3 1.7211-0.23739 1.0821-0.47268 1.9672-1.2935 2.8415-2.0872 0.72734-0.66035 1.4709-1.3218 2.0143-2.1402 0.63599-0.95789 0.96576-2.0824 1.2552-3.1952 0.18083-0.69514 0.34945-1.3935 0.50575-2.0945l-3.2297 3.4013-2.7697 2.0143-4.0358 0.66038-2.7841 0.0356c-0.7675-0.48741-1.5599-0.93558-2.3731-1.3422-1e-5 0-1e-5 -1e-5 -2e-5 -1e-5s-1e-5 -1e-5 -2e-5 -1e-5z"/>
   <path d="m487.05 432.18c0.26148-0.82573 0.65791-1.6086 1.1688-2.308 0.49309-0.67505 1.0926-1.2722 1.7695-1.7627-0.22088-0.50369-0.54626-0.96129-0.9495-1.3353-0.43274-0.40139-0.95692-0.71127-1.3125-1.1824-0.0896-0.1187-0.1691-0.25127-0.1889-0.39866-0.0178-0.13247 0.0144-0.26773 0.0687-0.38987s0.13001-0.2333 0.20413-0.34452c0.44383-0.66601 0.84438-1.3598 1.2386-2.0563 1.068-1.887 2.0923-3.7988 3.0717-5.7332-0.69094-0.11847-1.3753-0.27528-2.0489-0.46948-0.24812-0.0715-0.4965-0.14884-0.72463-0.26983-0.22812-0.12099-0.43691-0.28904-0.57057-0.50998-0.1346-0.22251-0.18649-0.49325-0.1466-0.75023 0.0346-0.22277 0.13494-0.43106 0.26083-0.61807s0.27739-0.35511 0.42587-0.52474c0.35377-0.40416 0.69591-0.82461 0.9442-1.3009 0.133-0.25514 0.23943-0.53086 0.2518-0.81832 0.017-0.39555-0.14849-0.78425-0.3987-1.0911-0.29983-0.36768-0.73926-0.63662-1.2129-0.66411-0.221-0.0128-0.44325 0.0259-0.66358 4e-3 -0.11016-0.0107-0.22007-0.0369-0.31748-0.0895-0.0974-0.0526-0.18185-0.13294-0.22754-0.23375-0.0359-0.0793-0.0469-0.16811-0.0429-0.25502 4e-3 -0.0869 0.0223-0.17251 0.0429-0.25706 0.25116-1.0327 0.83604-1.959 1.535-2.7596 0.46374-0.53123 0.98053-1.0153 1.5326-1.454 1.114-0.88523 2.366-1.5824 3.6498-2.1958 0.87356-0.41741 1.7647-0.79801 2.6703-1.1404-0.0383-0.43054-0.10852-0.85824-0.2098-1.2784-0.16111-0.66843-0.4011-1.3178-0.7134-1.9304 0.94705-0.38146 1.8609-0.8454 2.7277-1.3848 0.94204-0.58624 1.8286-1.2617 2.6438-2.0143-0.45545-0.54521-0.69966-1.2625-0.6715-1.9724 0.0166-0.41943 0.12495-0.83267 0.2938-1.217 0.26018-0.59218 0.65969-1.1127 1.0911-1.5947 0.69345-0.77464 1.5028-1.4802 2.4759-1.8464 1.0052-0.37828 2.1527-0.36297 3.1474 0.042 0.46194-0.40519 0.83652-0.90948 1.091-1.4688 0.20966-0.46079 0.33833-0.96076 0.35345-1.4668 0.0151-0.50601-0.0852-1.0179-0.31145-1.4708-0.36875-0.73813-1.0643-1.2899-1.8464-1.5527-0.6456-0.21693-1.353-0.2464-2.0144-0.0839" fill="none" stroke="#000" stroke-linecap="round" stroke-miterlimit="4.8" stroke-width="1.6"/>
   <path d="m436.18 423.23c0.0695-0.46706 0.0572-0.94615-0.036-1.409-0.12167-0.60411-0.37856-1.175-0.49377-1.7804-0.11894-0.62499-0.0838-1.2699-0.17804-1.8991-0.10417-0.69525-0.38103-1.3847-0.89021-1.8694-0.31129-0.29634-0.69411-0.50386-1.0623-0.72551-0.36823-0.22165-0.73444-0.46842-0.98515-0.81751-0.2637-0.36718-0.37893-0.81868-0.46374-1.2627-0.16355-0.85631-0.23404-1.7304-0.20982-2.6018-0.45422-0.0967-0.85507-0.41739-1.0491-0.8393-0.17465-0.37974-0.18305-0.81449-0.14675-1.2309 0.075-0.86021 0.32925-1.7044 0.74184-2.4629-0.53-0.0662-1.0434-0.26136-1.4837-0.5638-0.83733-0.57523-1.3878-1.5485-1.4492-2.5625-0.5175 0.16313-1.0659 0.2275-1.6072 0.18863-0.35876-0.0258-0.71717-0.0975-1.045-0.24554-0.32782-0.14801-0.62451-0.37535-0.82445-0.67434-0.22782-0.34069-0.31932-0.75285-0.38575-1.1573-0.26163-1.5928-0.2007-3.238 0.17804-4.8071-0.65667 0.0592-1.3282-0.0544-1.9288-0.32641-0.67038-0.30361-1.2596-0.81767-1.5727-1.4837-0.23819-0.50668-0.30895-1.0742-0.35608-1.632-0.17965-2.1268-0.0594-4.2787 0.35608-6.3722" fill="none" stroke="#000" stroke-linecap="round" stroke-miterlimit="4.8" stroke-width="1.6"/>
  </g>
  <g>
   <path d="m381.42 501.95s0.26236 0.0596 0 0c-0.6346-0.14406-1.7697-0.42503-3.2613-0.49954-1.8206-0.039-3.5066 0.24253-4.859 0.69694a1.1006 1.0951 70.857 0 0-0.68024 1.4127c0.0973 0.27173 0.21365 0.50031 0.32885 0.67878 0.41859 0.64853 1.0601 0.91264 1.6545 1.242 0.14649 0.0812 0.31771 0.17132 0.51287 0.2588 0.57283 0.21174 1.1716 0.35505 1.8992 0.41239 0.96462 0.0936 1.7398-8e-3 2.144-0.0955-0.42435-0.0189-1.173-0.0581-2.0525-0.34724-0.63241-0.22156-1.1287-0.51373-1.458-0.84655-0.1259-0.10754-0.22832-0.21491-0.30785-0.31281-0.41119-0.50622-0.30421-0.80936-0.50023-1.3305-0.044-0.11703-0.10044-0.25245-0.15678-0.40574l-0.68024 1.4127c1.2021-0.41013 2.5756-0.80464 4.2254-0.98106 1.3145-0.183 2.4115-0.18238 3.0084-0.13232 0.24925 0.0209 0 0 0 0a0.58867 0.58867 90 0 0 0.18292-1.163z"/>
   <path d="m375.93 498.48c-0.38827-0.24492-1.162-0.79365-2.2099-1.055-0.31852-0.0794-0.67965-0.13637-1.0717-0.16558-0.18929-0.0341-0.412-0.0494-0.64776-0.0435-0.23214 6e-3 -0.47191 0.0319-0.71986 0.0802-0.11134 0.0248-0.21852 0.0539-0.32173 0.085-0.21745 0.0655-0.43164 0.14784-0.64568 0.24882-0.30925 0.14589-0.59456 0.31984-0.84786 0.50076-0.26751 0.17318-0.493 0.35422-0.64596 0.52117-0.2076 0.22658-0.32529 0.47405-0.38938 0.58214a1.1862 1.1862 90 0 0 2.0406 1.2099c0.0376-0.0635 0.1574-0.20145 0.24632-0.36825 0.0669-0.12554 0.13683-0.30638 0.23034-0.50326 0.10084-0.18334 0.2124-0.36116 0.34105-0.51452 0.0883-0.10521 0.18072-0.1942 0.27716-0.26321 0.046-0.0329 0.095-0.062 0.14652-0.0869 0.1127-0.0621 0.25028-0.10035 0.40742-0.12848 0.16011-0.0287 0.3351-0.0455 0.50452-0.0728 0.35419-0.015 0.66904-0.0185 0.97177-0.0256 0.90531-0.0213 1.9373-0.047 2.3342-9.7e-4z"/>
   <path d="m340.18 475.28c-0.29631-0.1843-0.87037-0.56348-1.6443-0.76776-0.67957-0.17936-1.5459-0.22695-2.4759-0.11875-0.38796 0.0303-0.74002 0.0808-1.0763 0.13181-0.84806 0.12864-1.675 0.27716-2.155 0.53395-0.17845 0.0955-0.29425 0.21672-0.35213 0.26189a1.7564 1.7564 90 0 0 2.1612 2.7693c0.0362-0.0283 0.13321-0.0714 0.22144-0.16468 0.20229-0.21386 0.55966-0.81696 1.0151-1.1986 0.1929-0.16164 0.42777-0.31779 0.69135-0.4625 0.68103-0.33266 1.3262-0.49548 1.9449-0.65089 0.7337-0.18431 1.253-0.30073 1.6696-0.33382z"/>
   <path d="m343.8 481.68c-0.30107-0.19989-0.85514-0.56164-1.6125-0.77615-0.70718-0.20029-1.5727-0.26252-2.4974-0.14881-0.2256 0.0184-0.44383 0.0451-0.65688 0.076-0.92856 0.13489-1.8334 0.37121-2.3823 0.71162-0.18971 0.11767-0.31072 0.25243-0.37115 0.30526a1.4406 1.4406 90 0 0 1.8965 2.169c0.0385-0.0336 0.13912-0.0903 0.23718-0.19507 0.32789-0.35022 0.57553-0.81284 1.2383-1.2762 0.13519-0.0945 0.28314-0.18375 0.44126-0.26666 0.67851-0.31277 1.3686-0.44963 2.0225-0.535 0.72437-0.0946 1.2817-0.10338 1.6845-0.064z"/>
   <path d="m499.59 507.79c-0.0252 3e-3 -0.0727 1e-3 -0.15151 0.0171-0.29712 0.0598-0.9863 0.33703-1.9394 0.27535-0.0931 5e-3 -0.18963 3e-3 -0.28833-4e-3 -0.34049-0.0257-0.60357-0.0989-1.1259-0.18708-0.24708-0.0418-0.52741-0.0789-0.82038-0.0853-0.28126-6e-3 -0.58093 0.016-0.88254 0.0912-0.39701 0.0972-0.76313 0.28284-1.0686 0.53032-0.32205 0.26093-0.57296 0.58726-0.73015 0.94946-0.15312 0.35712-0.20012 0.71674-0.18133 1.03 0.0108 0.18008 0.0431 0.34525 0.0891 0.49126 0.0533 0.16966 0.12884 0.32881 0.22239 0.473 0.19765 0.30466 0.45894 0.51434 0.70799 0.6464 0.36072 0.19127 0.67848 0.21506 0.84535 0.22575-0.15063-0.0965-0.35997-0.28904-0.52225-0.57909-0.11178-0.19979-0.18631-0.41916-0.21569-0.6439-0.0137-0.10499-0.018-0.20954-0.0153-0.31225 2e-3 -0.0886 9e-3 -0.18305 0.0249-0.28137 0.0275-0.17264 0.0811-0.35164 0.17457-0.51637 0.0925-0.16675 0.22853-0.32378 0.40494-0.45167 0.1683-0.12201 0.36344-0.20988 0.56595-0.25071 0.16129-0.0314 0.33425-0.0379 0.51774-0.0228 0.19249 0.0158 0.38946 0.0548 0.58218 0.10772 0.34609 0.0948 0.73126 0.24856 1.009 0.37219 0.10164 0.0452 0.20649 0.0946 0.31314 0.14455 1.1385 0.4125 2.1342 0.57112 2.5874 0.55733 0.11401-3e-3 0.18556-0.0205 0.21983-0.0248a1.2862 1.2862 90 0 0-0.32308-2.5521z"/>
   <path d="m495.26 504.67c-0.52324-0.19222-1.5334-0.60964-2.67-0.78954-0.26148-0.0414-0.52593-0.0695-0.79499-0.0874-0.21212-0.0379-0.60806-0.0332-0.96478-0.0501-0.0246-1e-3 -0.0506-2e-3 -0.0775-3e-3 -0.28251-0.0112-0.76351-0.0184-1.2668 0.17896-0.22444 0.0874-0.42905 0.20004-0.61492 0.32091-0.19123 0.12435-0.36381 0.25844-0.50548 0.37343-0.32171 0.24989-0.55722 0.48855-0.64758 0.61139-0.062 0.0843-0.0801 0.14743-0.0947 0.17543a1.3771 1.3771 90 0 0 2.4424 1.2726c9e-3 -0.0177 0.0376-0.0438 0.0569-0.10551 0.0272-0.0868 0.0522-0.30228 0.11485-0.57103 0.0312-0.12071 0.0615-0.23754 0.0933-0.34495 0.0299-0.10084 0.0618-0.19576 0.0983-0.27569 0.0913-0.19902 0.30052-0.35496 0.49909-0.44357 0.0171-8e-3 0.0339-0.0146 0.0502-0.0209 0.26265-0.10245 0.55771-0.0747 0.79062-0.10581 0.25909-5e-3 0.50956-0.01 0.7651-0.0193 1.0001-0.0377 2.2663-0.12546 2.7259-0.11542z"/>
  </g>
  <path d="m589.31 492.61c1.1955 0.20303 2.3619 0.5773 3.4523 1.1078 0.74547 0.3627 1.4555 0.79815 2.1168 1.2981-0.28518-0.57831-0.50009-1.1912-0.6385-1.821-0.0818-0.3721-0.13693-0.75005-0.1649-1.13" fill="none" stroke="#000" stroke-miterlimit="18.9" stroke-width="1.1"/>
 </g>
 <path d="m459.51 594.33-6.6153-36.429-30.437 21.082 21.082-30.437-36.429-6.6153 36.429-6.6153-21.082-30.437 30.437 21.082 6.6152-36.429 6.6153 36.429 30.437-21.082-21.082 30.437 36.429 6.6152-36.429 6.6153 21.082 30.437-30.437-21.082z" fill="#f51c05"/>
</svg>
